<svg width="19" height="18" viewBox="0 0 19 18" fill="none" xmlns="http://www.w3.org/2000/svg">
<path d="M9.5 4.87451C8.68415 4.87451 7.88663 5.11644 7.20827 5.5697C6.52992 6.02296 6.00121 6.6672 5.689 7.42094C5.37679 8.17469 5.2951 9.00409 5.45426 9.80426C5.61343 10.6044 6.00629 11.3394 6.58318 11.9163C7.16008 12.4932 7.89508 12.8861 8.69525 13.0453C9.49542 13.2044 10.3248 13.1227 11.0786 12.8105C11.8323 12.4983 12.4766 11.9696 12.9298 11.2912C13.3831 10.6129 13.625 9.81536 13.625 8.99951C13.625 7.90549 13.1904 6.85628 12.4168 6.0827C11.6432 5.30911 10.594 4.87451 9.5 4.87451ZM9.5 12.3745C8.83249 12.3745 8.17997 12.1766 7.62495 11.8057C7.06993 11.4349 6.63735 10.9078 6.38191 10.2911C6.12646 9.67437 6.05962 8.99577 6.18985 8.34108C6.32007 7.6864 6.64151 7.08503 7.11351 6.61303C7.58552 6.14102 8.18688 5.81959 8.84157 5.68936C9.49626 5.55914 10.1749 5.62597 10.7916 5.88142C11.4083 6.13686 11.9354 6.56945 12.3062 7.12446C12.6771 7.67948 12.875 8.332 12.875 8.99951C12.875 9.89462 12.5194 10.7531 11.8865 11.386C11.2535 12.0189 10.3951 12.3745 9.5 12.3745ZM13.625 -0.000488281H5.375C4.08207 -0.000488281 2.84209 0.513126 1.92785 1.42737C1.01361 2.34161 0.5 3.58158 0.5 4.87451V13.1245C0.5 13.7647 0.626096 14.3986 0.871087 14.9901C1.11608 15.5816 1.47517 16.119 1.92785 16.5717C2.84209 17.4859 4.08207 17.9995 5.375 17.9995H13.625C14.2652 17.9995 14.8991 17.8734 15.4906 17.6284C16.082 17.3834 16.6195 17.0243 17.0721 16.5717C17.5248 16.119 17.8839 15.5816 18.1289 14.9901C18.3739 14.3986 18.5 13.7647 18.5 13.1245V4.87451C18.5 4.23432 18.3739 3.60039 18.1289 3.00893C17.8839 2.41747 17.5248 1.88005 17.0721 1.42737C16.6195 0.97468 16.082 0.615591 15.4906 0.370599C14.8991 0.125607 14.2652 -0.000488281 13.625 -0.000488281ZM17.75 13.1245C17.75 14.2185 17.3154 15.2677 16.5418 16.0413C15.7682 16.8149 14.719 17.2495 13.625 17.2495H5.375C4.28098 17.2495 3.23177 16.8149 2.45818 16.0413C1.6846 15.2677 1.25 14.2185 1.25 13.1245V4.87451C1.25 3.78049 1.6846 2.73128 2.45818 1.9577C3.23177 1.18411 4.28098 0.749512 5.375 0.749512H13.625C14.719 0.749512 15.7682 1.18411 16.5418 1.9577C17.3154 2.73128 17.75 3.78049 17.75 4.87451V13.1245ZM15.125 4.12451C15.125 4.27285 15.081 4.41785 14.9986 4.54119C14.9162 4.66453 14.7991 4.76066 14.662 4.81742C14.525 4.87419 14.3742 4.88904 14.2287 4.8601C14.0832 4.83116 13.9496 4.75973 13.8447 4.65484C13.7398 4.54995 13.6684 4.41632 13.6394 4.27083C13.6105 4.12534 13.6253 3.97454 13.6821 3.8375C13.7389 3.70045 13.835 3.58332 13.9583 3.50091C14.0817 3.4185 14.2267 3.37451 14.375 3.37451C14.5739 3.37451 14.7647 3.45353 14.9053 3.59418C15.046 3.73483 15.125 3.9256 15.125 4.12451Z" fill="#373B49"/>
</svg>
