<svg width="60" height="60" viewBox="0 0 60 60" fill="none" xmlns="http://www.w3.org/2000/svg">
<rect width="60" height="60" fill="#FAFAFA"/>
<path fill-rule="evenodd" clip-rule="evenodd" d="M47.5 12.5H12.5V18.5559L17.6357 21.5049C20.3404 17.5759 24.8694 15 30 15C35.2066 15 39.7937 17.6528 42.4833 21.6805L47.5 18.8093V12.5ZM50 17.3785V10H10V17.1203L6.30753 15L5.02116 17.1519L10 20.0109V40.2714L5 43.133L6.28229 45.2869L10 43.1592V50H50V42.9799L54.0741 45.3193L55.3604 43.1674L50 40.0893V20.2663L55.3817 17.1863L54.0994 15.0323L50 17.3785ZM47.5 21.6971L43.6962 23.8741C44.534 25.7445 45 27.8179 45 30C45 32.2884 44.4875 34.4571 43.5711 36.3977L47.5 38.6537V21.6971ZM47.5 41.5443L42.3146 38.5667C39.6044 42.4554 35.0994 45 30 45C24.9613 45 20.5028 42.5156 17.7828 38.7049L12.5 41.7284V47.5H47.5V41.5443ZM12.5 38.8406L16.5019 36.5502C15.5397 34.571 15 32.3485 15 30C15 27.7426 15.4987 25.6016 16.3919 23.6812L12.5 21.4464V38.8406ZM18.5701 24.932C17.8822 26.481 17.5 28.1959 17.5 30C17.5 31.8965 17.9224 33.6944 18.6781 35.3047L27.6709 30.1579L18.5701 24.932ZM19.9658 37.4555C22.2442 40.5169 25.8905 42.5 30 42.5C34.1716 42.5 37.8659 40.4565 40.1365 37.316L30.1896 31.6042L19.9658 37.4555ZM41.3942 35.1477C42.1046 33.5778 42.5 31.8351 42.5 30C42.5 28.2699 42.1485 26.6219 41.5131 25.1236L32.7107 30.1614L41.3942 35.1477ZM40.3071 22.9259C38.0536 19.6488 34.2778 17.5 30 17.5C25.7971 17.5 22.0787 19.5743 19.8126 22.7549L30.192 28.715L40.3071 22.9259Z" fill="#373B49"/>
</svg>
