<svg width="60" height="60" viewBox="0 0 60 60" fill="none" xmlns="http://www.w3.org/2000/svg">
<rect width="60" height="60" fill="#FAFAFA"/>
<path fill-rule="evenodd" clip-rule="evenodd" d="M14.3565 42.6301L8.75 10.4288L11.2129 10L12.3148 16.3284C12.4448 16.3562 12.5999 16.3839 12.7816 16.409C13.2879 16.479 13.9021 16.5167 14.5569 16.5177C15.8902 16.5197 17.2446 16.3698 18.0839 16.1166C19.7195 15.6232 22.1372 14.3485 23.017 13.7116L23.7269 13.1977L24.452 13.6898C26.0325 14.7625 28.0847 16.0634 30.625 16.0634C33.17 16.0634 34.927 14.9371 36.8066 13.684L37.4102 13.2816L38.059 13.606C39.3187 14.2359 41.437 15.1815 42.2076 15.3941C44.2805 15.9662 46.4095 15.4534 47.987 14.3826L48.75 10L51.213 10.4288L45.6065 42.6301V46.4644H14.3565V42.6301ZM16.8565 42.4141L12.767 18.926C13.3263 18.9874 13.937 19.0168 14.5532 19.0177C16.0076 19.0199 17.636 18.863 18.8059 18.5101C20.3729 18.0374 22.4421 17.0125 23.7423 16.2218C25.3455 17.2649 27.7013 18.5634 30.625 18.5634C33.649 18.5634 35.8285 17.3171 37.5945 16.161C38.8777 16.774 40.6672 17.5625 41.5425 17.804C43.6058 18.3734 45.6712 18.1621 47.4495 17.4694L43.1065 42.4141V43.9644H16.8565V42.4141Z" fill="#373B49"/>
<path d="M11.25 51.25H48.75V48.75H11.25V51.25Z" fill="#373B49"/>
<path d="M26.888 27.248C26.888 27.76 26.792 28.2027 26.6 28.576C26.408 28.9493 26.1307 29.2533 25.768 29.488C25.416 29.7227 25 29.888 24.52 29.984V30.048C25.4373 30.1547 26.12 30.4427 26.568 30.912C27.016 31.3813 27.24 31.9947 27.24 32.752C27.24 33.4133 27.0853 34.0053 26.776 34.528C26.4667 35.04 25.9867 35.44 25.336 35.728C24.696 36.016 23.8693 36.16 22.856 36.16C22.2587 36.16 21.704 36.112 21.192 36.016C20.68 35.9307 20.1893 35.7707 19.72 35.536V34.224C20.2 34.4587 20.7173 34.6453 21.272 34.784C21.8267 34.912 22.36 34.976 22.872 34.976C23.896 34.976 24.632 34.7787 25.08 34.384C25.5387 33.9787 25.768 33.424 25.768 32.72C25.768 32.24 25.64 31.856 25.384 31.568C25.1387 31.2693 24.776 31.0507 24.296 30.912C23.816 30.7733 23.24 30.704 22.568 30.704H21.464V29.504H22.584C23.2133 29.504 23.736 29.4133 24.152 29.232C24.5787 29.0507 24.8987 28.8 25.112 28.48C25.336 28.1493 25.448 27.7707 25.448 27.344C25.448 26.7893 25.2613 26.3627 24.888 26.064C24.5147 25.7547 24.008 25.6 23.368 25.6C22.9627 25.6 22.5947 25.6427 22.264 25.728C21.9333 25.8027 21.624 25.9147 21.336 26.064C21.0587 26.2027 20.776 26.368 20.488 26.56L19.784 25.6C20.0613 25.3867 20.376 25.1893 20.728 25.008C21.0907 24.8267 21.4907 24.6827 21.928 24.576C22.3653 24.4693 22.84 24.416 23.352 24.416C24.5467 24.416 25.432 24.6827 26.008 25.216C26.5947 25.7493 26.888 26.4267 26.888 27.248ZM36.5243 30.272C36.5243 31.2 36.4549 32.0267 36.3163 32.752C36.1776 33.4773 35.9536 34.096 35.6443 34.608C35.3456 35.1093 34.9509 35.4933 34.4603 35.76C33.9803 36.0267 33.3989 36.16 32.7163 36.16C31.8629 36.16 31.1536 35.9253 30.5883 35.456C30.0336 34.9867 29.6176 34.3147 29.3403 33.44C29.0736 32.5547 28.9403 31.4987 28.9403 30.272C28.9403 29.0347 29.0629 27.9787 29.3083 27.104C29.5643 26.2293 29.9696 25.5627 30.5243 25.104C31.0789 24.6347 31.8096 24.4 32.7163 24.4C33.5696 24.4 34.2789 24.6347 34.8443 25.104C35.4096 25.5627 35.8309 26.2293 36.1083 27.104C36.3856 27.9787 36.5243 29.0347 36.5243 30.272ZM30.3483 30.272C30.3483 31.3173 30.4229 32.1867 30.5723 32.88C30.7323 33.5733 30.9829 34.096 31.3243 34.448C31.6763 34.7893 32.1403 34.96 32.7163 34.96C33.2923 34.96 33.7509 34.7893 34.0923 34.448C34.4443 34.1067 34.7003 33.5893 34.8603 32.896C35.0203 32.192 35.1003 31.3173 35.1003 30.272C35.1003 29.2267 35.0203 28.3627 34.8603 27.68C34.7003 26.9867 34.4443 26.4693 34.0923 26.128C33.7509 25.776 33.2923 25.6 32.7163 25.6C32.1403 25.6 31.6763 25.776 31.3243 26.128C30.9829 26.4693 30.7323 26.9867 30.5723 27.68C30.4229 28.3627 30.3483 29.2267 30.3483 30.272ZM40.7365 29.328C40.2245 29.328 39.7765 29.2267 39.3925 29.024C39.0192 28.8107 38.7258 28.5227 38.5125 28.16C38.2992 27.7867 38.1925 27.36 38.1925 26.88C38.1925 26.3893 38.2938 25.9627 38.4965 25.6C38.7098 25.2267 39.0032 24.9387 39.3765 24.736C39.7605 24.5227 40.2138 24.416 40.7365 24.416C41.2378 24.416 41.6805 24.5227 42.0645 24.736C42.4485 24.9387 42.7472 25.2267 42.9605 25.6C43.1738 25.9627 43.2805 26.3893 43.2805 26.88C43.2805 27.36 43.1738 27.7867 42.9605 28.16C42.7472 28.5227 42.4485 28.8107 42.0645 29.024C41.6805 29.2267 41.2378 29.328 40.7365 29.328ZM40.7525 28.384C41.2645 28.384 41.6378 28.2453 41.8725 27.968C42.1178 27.6907 42.2405 27.328 42.2405 26.88C42.2405 26.5707 42.1818 26.304 42.0645 26.08C41.9578 25.8453 41.7925 25.664 41.5685 25.536C41.3552 25.408 41.0832 25.344 40.7525 25.344C40.2298 25.344 39.8458 25.4827 39.6005 25.76C39.3552 26.0373 39.2325 26.4107 39.2325 26.88C39.2325 27.328 39.3552 27.6907 39.6005 27.968C39.8458 28.2453 40.2298 28.384 40.7525 28.384Z" fill="#373B49"/>
</svg>
