<svg width="60" height="60" viewBox="0 0 60 60" fill="none" xmlns="http://www.w3.org/2000/svg">
<rect width="60" height="60" fill="#FAFAFA"/>
<path fill-rule="evenodd" clip-rule="evenodd" d="M47.7334 17.5H18.1798V15H50.2334V45H10L10.2515 43.5381L10.2529 43.5299L10.2561 43.5118L10.2679 43.4466C10.2781 43.3906 10.2932 43.3099 10.3134 43.2066C10.3536 43.0002 10.4141 42.7036 10.4963 42.3354C10.6603 41.5996 10.9117 40.5735 11.2623 39.4061C11.9564 37.0948 13.0678 34.1315 14.7215 31.7808C18.2019 26.8333 23.7664 25.625 34.2103 25.625C39.4608 25.625 43.1744 25.7413 45.5816 25.8583C46.4746 25.9017 47.188 25.9452 47.7334 25.9829V17.5ZM47.7334 28.4891C47.1882 28.4501 46.4359 28.4028 45.4603 28.3554C43.097 28.2405 39.4241 28.125 34.2103 28.125C23.7255 28.125 19.4412 29.4167 16.7662 33.2192C15.3421 35.2435 14.3233 37.9052 13.6566 40.1252C13.3835 41.0346 13.1743 41.8535 13.023 42.5H47.7334V28.4891Z" fill="#373B49"/>
</svg>
