<svg width="15" height="18" viewBox="0 0 15 18" fill="none" xmlns="http://www.w3.org/2000/svg">
<path fill-rule="evenodd" clip-rule="evenodd" d="M3.2585 2.7675C3.81404 2.20779 4.47479 1.76347 5.20272 1.46013C5.93066 1.15679 6.71139 1.00041 7.5 1C9.09 1 10.616 1.635 11.7415 2.7675C12.8687 3.90308 13.5009 5.43847 13.5 7.0385C13.5 9.8015 11.968 12.3025 10.372 14.149C9.69944 14.9234 8.97026 15.6467 8.1905 16.313C7.96505 16.5064 7.73481 16.6941 7.5 16.876C7.26529 16.694 7.03506 16.5063 6.8095 16.313C6.02974 15.6467 5.30056 14.9234 4.628 14.149C3.032 12.3025 1.5 9.8015 1.5 7.0385C1.5 5.436 2.133 3.9 3.2585 2.7675ZM7.212 17.9085L7.5 17.5L7.788 17.9085C7.70365 17.9678 7.60308 17.9996 7.5 17.9996C7.39692 17.9996 7.29635 17.9678 7.212 17.9085ZM7.212 17.9085L7.5 17.5L7.788 17.9085L7.79 17.9075L7.795 17.904L7.81 17.8925L7.869 17.85C7.919 17.813 7.992 17.759 8.084 17.688C8.268 17.547 8.529 17.3395 8.8405 17.073C9.65821 16.3741 10.4228 15.6153 11.128 14.803C12.782 12.89 14.5 10.1595 14.5 7.038C14.5 5.173 13.763 3.383 12.451 2.063C11.8025 1.4097 11.0312 0.891092 10.1815 0.537038C9.33184 0.182983 8.42051 0.000469168 7.5 0C6.57953 0.000403672 5.66822 0.182839 4.81852 0.536807C3.96883 0.890775 3.19753 1.40929 2.549 2.0625C1.23571 3.38552 0.499118 5.17434 0.500001 7.0385C0.500001 10.1595 2.218 12.89 3.872 14.803C4.57719 15.6153 5.34179 16.3741 6.1595 17.073C6.4715 17.3395 6.732 17.547 6.916 17.688C7.00625 17.7576 7.09742 17.8259 7.1895 17.893L7.2055 17.904L7.21 17.9075L7.212 17.9085ZM5.5 7C5.5 6.46957 5.71071 5.96086 6.08579 5.58579C6.46086 5.21071 6.96957 5 7.5 5C8.03043 5 8.53914 5.21071 8.91421 5.58579C9.28929 5.96086 9.5 6.46957 9.5 7C9.5 7.53043 9.28929 8.03914 8.91421 8.41421C8.53914 8.78929 8.03043 9 7.5 9C6.96957 9 6.46086 8.78929 6.08579 8.41421C5.71071 8.03914 5.5 7.53043 5.5 7ZM7.5 4C6.70435 4 5.94129 4.31607 5.37868 4.87868C4.81607 5.44129 4.5 6.20435 4.5 7C4.5 7.79565 4.81607 8.55871 5.37868 9.12132C5.94129 9.68393 6.70435 10 7.5 10C8.29565 10 9.05871 9.68393 9.62132 9.12132C10.1839 8.55871 10.5 7.79565 10.5 7C10.5 6.20435 10.1839 5.44129 9.62132 4.87868C9.05871 4.31607 8.29565 4 7.5 4Z" fill="#373B49"/>
</svg>
