<svg width="205" height="46" viewBox="0 0 205 46" fill="none" xmlns="http://www.w3.org/2000/svg">
<path fill-rule="evenodd" clip-rule="evenodd" d="M5.93721 25.3481C6.48358 25.1627 6.94147 25.0622 7.31102 25.0468C7.6807 25.0313 7.90553 25.07 7.98592 25.1627C8.0663 25.2554 7.98592 25.379 7.7449 25.5337C7.50388 25.6882 7.04599 25.8272 6.37109 25.9508C5.5999 26.1054 4.95723 26.4067 4.44297 26.8548C3.92884 27.303 3.54324 27.8284 3.28604 28.4311C3.02897 29.0337 2.90853 29.6905 2.92458 30.4013C2.94063 31.1122 3.0933 31.8075 3.3826 32.4875C3.7682 33.2601 4.33048 34.0252 5.06958 34.7823C5.80881 35.5395 6.73255 36.2117 7.84133 36.799C8.94998 37.3861 10.2353 37.8651 11.6975 38.2361C13.1596 38.6069 14.8226 38.7924 16.6865 38.7924C19.4502 38.7924 22.0049 38.406 24.3507 37.6333C26.6967 36.8608 28.7694 35.8718 30.569 34.6663C32.3686 33.461 33.8628 32.1321 35.0519 30.6795C36.2408 29.2269 37.0602 27.8207 37.5102 26.4607C38.3148 24.0285 37.9984 21.4699 35.1963 20.5269C34.0395 20.125 32.7461 19.9087 31.316 19.8778C29.8861 19.8469 28.5684 19.8469 27.3634 19.8778C26.1583 19.9087 25.1943 19.9009 24.4713 19.8547C23.7482 19.8083 23.5153 19.5533 23.7724 19.0896C24.1259 18.5334 24.6801 18.1161 25.4354 17.838C26.1905 17.5598 27.0662 17.3125 28.0624 17.0962C29.0586 16.8799 30.1351 16.6636 31.2919 16.4472C32.4488 16.2309 33.6137 15.9063 34.7867 15.4737C35.9595 15.0411 37.0842 14.4614 38.1609 13.7352C39.2375 13.0089 40.1934 12.0431 41.029 10.8378C42.0251 9.35425 42.4268 7.98663 42.2339 6.73496C42.0412 5.48329 41.4306 4.41704 40.4024 3.53619C39.374 2.65535 38.0002 1.99861 36.2809 1.56598C34.5617 1.13322 32.6738 1.00961 30.6171 1.19502C29.0425 1.34953 27.6687 1.6818 26.4957 2.19182C25.3229 2.7017 24.3588 3.29663 23.6037 3.97662C22.8484 4.65646 22.2861 5.3828 21.9166 6.15548C21.547 6.92817 21.3541 7.64658 21.3381 8.31124C21.322 8.97564 21.4908 9.53967 21.8443 10.0032C22.1976 10.4669 22.7119 10.7295 23.3867 10.7913C23.8687 10.8533 24.1982 10.9613 24.3749 11.1159C24.5517 11.2705 24.5917 11.4095 24.4953 11.5331C24.399 11.6567 24.182 11.7418 23.8446 11.7881C23.5072 11.8345 23.0653 11.7803 22.519 11.6258C20.5267 11.1005 19.2975 10.266 18.8315 9.12249C18.3656 7.97884 18.5504 6.78898 19.386 5.55276C20.2214 4.31654 21.6674 3.17303 23.7241 2.12222C25.7808 1.07141 28.3516 0.391427 31.4366 0.0824056C32.8184 -0.0412029 34.2243 -0.0257517 35.6543 0.128759C37.0842 0.28327 38.4259 0.584635 39.6793 1.03272C40.9325 1.48093 42.0332 2.05262 42.9811 2.74805C43.9291 3.44348 44.6201 4.25473 45.0538 5.18193C45.4877 6.10913 45.6162 7.14449 45.4396 8.288C45.2627 9.43151 44.6601 10.6677 43.6319 11.9967C43.0856 12.6766 42.3947 13.3179 41.5592 13.9207C40.7236 14.5232 39.8078 15.0718 38.8117 15.5664C37.8154 16.0608 36.8032 16.5012 35.7748 16.8877C34.7465 17.2739 33.7985 17.5753 32.9309 17.7916C34.4091 17.8225 35.7908 18.0852 37.0763 18.5798C39.0365 19.3524 40.338 20.4032 40.9807 21.7322C41.6235 23.0611 41.7037 24.5138 41.2218 26.0899C40.7397 27.6662 39.7677 29.2656 38.3055 30.8881C36.8434 32.5107 35.0036 33.9863 32.7863 35.3154C30.569 36.6443 28.0383 37.726 25.1943 38.5605C22.3503 39.395 19.3056 39.8122 16.0599 39.8122C14.0676 39.8122 12.2117 39.6655 10.4924 39.3719C8.77316 39.0782 7.23873 38.6687 5.88906 38.1433C4.5394 37.6179 3.39865 36.9766 2.46669 36.2195C1.53472 35.4623 0.876013 34.6356 0.490414 33.7391C-0.248818 32.1321 -0.152253 30.5481 0.779576 28.9873C1.71154 27.4266 3.43075 26.2135 5.93721 25.3481Z" fill="white"/>
<path fill-rule="evenodd" clip-rule="evenodd" d="M126.332 31.5772C126.107 33.2462 126.219 34.7221 126.669 36.0047C127.119 37.2873 127.786 38.3766 128.67 39.2731C129.554 40.1694 130.614 40.9033 131.851 41.4752C133.088 42.047 134.374 42.4642 135.707 42.7268C137.041 42.9895 138.383 43.1133 139.732 43.0977C141.082 43.0822 142.319 42.951 143.444 42.7036C146.818 41.962 149.703 40.942 152.097 39.6439C154.491 38.3459 156.539 36.8546 158.243 35.1702C159.946 33.4856 161.36 31.6699 162.484 29.7228C163.609 27.7757 164.589 25.7979 165.425 23.7888C166.228 21.8725 167.104 19.9486 168.052 18.017C169 16.0854 170.077 14.2618 171.282 12.5465C172.487 10.8311 173.828 9.27811 175.307 7.88738C176.785 6.49652 178.472 5.38391 180.368 4.54942C181.268 4.14769 182.336 3.76894 183.574 3.41356C184.811 3.05819 186.281 2.83408 187.984 2.74137C188.016 2.74137 187.936 2.84174 187.743 3.04273C187.55 3.24373 187.317 3.45991 187.044 3.69181C186.771 3.92358 186.498 4.14769 186.225 4.36401C185.952 4.58032 185.767 4.68848 185.67 4.68848C185.188 4.75042 184.755 4.80443 184.369 4.85078C183.983 4.89714 183.614 4.96673 183.26 5.05944C182.907 5.15215 182.545 5.27562 182.176 5.43026C181.806 5.58491 181.38 5.78564 180.898 6.03299C179.163 6.92928 177.604 8.10356 176.223 9.55637C174.841 11.009 173.62 12.5774 172.559 14.2618C171.499 15.9463 170.591 17.6385 169.836 19.3382C169.08 21.0381 168.446 22.5526 167.932 23.8815C166.935 26.6322 165.706 29.2516 164.244 31.7395C162.782 34.2274 161.063 36.4451 159.086 38.3922C157.11 40.3393 154.868 41.9696 152.362 43.2832C149.855 44.5967 147.043 45.4388 143.926 45.8098C141.162 46.1499 138.495 46.0339 135.924 45.4621C133.353 44.8903 131.144 43.9014 129.296 42.4951C127.448 41.0888 126.123 39.2962 125.32 37.1173C123.93 33.3471 127.273 24.5591 126.332 31.5772ZM193.913 23.6961C193.752 24.1596 193.536 24.7856 193.263 25.5736C192.989 26.3617 192.7 27.2426 192.395 28.2161C192.09 29.1897 191.8 30.1942 191.527 31.2296C191.254 32.265 191.053 33.2462 190.925 34.1734C190.796 35.1006 190.756 35.9351 190.804 36.6769C190.852 37.4187 191.053 37.9749 191.407 38.3459C191.728 38.6859 192.122 38.8634 192.588 38.879C193.054 38.8944 193.56 38.7167 194.106 38.3459C194.717 37.9131 195.303 37.3723 195.866 36.7232C196.428 36.0742 196.958 35.3711 197.456 34.6138C197.954 33.8566 198.428 33.0762 198.878 32.2727C199.328 31.4691 199.746 30.6964 200.132 29.9547C200.389 29.4293 200.638 29.2129 200.879 29.3057C201.12 29.3984 201.112 29.7228 200.855 30.2792C200.212 31.5465 199.65 32.6204 199.167 33.5012C198.685 34.3821 198.227 35.147 197.794 35.796C197.36 36.4451 196.918 37.0169 196.468 37.5114C196.018 38.0058 195.52 38.5004 194.974 38.9948C194.138 39.7985 193.23 40.3161 192.25 40.548C191.27 40.7797 190.362 40.6794 189.527 40.2466C188.788 39.8757 188.29 39.2962 188.032 38.508C187.775 37.72 187.671 36.8236 187.719 35.8191C187.767 34.8148 187.936 33.733 188.225 32.574C188.514 31.415 188.844 30.2792 189.213 29.1666C189.583 28.054 189.944 27.0185 190.298 26.0604C190.652 25.1024 190.925 24.3143 191.117 23.6961C191.214 23.3251 191.471 22.6143 191.889 21.5636C192.306 20.5128 192.813 19.2919 193.407 17.9012C194.002 16.5103 194.668 15.0423 195.408 13.4969C196.147 11.9516 196.902 10.5067 197.673 9.1623C198.444 7.81779 199.208 6.67427 199.963 5.73162C200.718 4.78884 201.417 4.20936 202.06 3.99305C202.542 3.83853 203.008 3.70727 203.458 3.59911C203.908 3.49082 204.277 3.42122 204.566 3.39045C204.855 3.35955 205 3.39045 205 3.48316C205 3.57586 204.775 3.73051 204.325 3.94669C204.1 4.0703 203.594 4.64978 202.807 5.68527C202.019 6.72063 201.112 8.11149 200.083 9.8576C199.055 11.6038 197.986 13.6591 196.878 16.0235C195.769 18.3879 194.781 20.9453 193.913 23.6961ZM177.138 23.047C176.978 23.5107 176.761 24.1365 176.488 24.9247C176.215 25.7128 175.925 26.5935 175.62 27.5672C175.315 28.5408 175.025 29.5451 174.752 30.5806C174.479 31.6159 174.278 32.5971 174.15 33.5243C174.021 34.4515 173.981 35.286 174.029 36.0278C174.078 36.7696 174.278 37.326 174.632 37.6968C175.307 38.3766 176.174 38.3459 177.235 37.6041C178.231 36.8932 179.203 35.7884 180.151 34.2894C181.099 32.7903 181.959 31.1291 182.73 29.3057C184.305 25.5349 185.831 22.2976 187.309 19.5932C188.788 16.8889 190.177 14.625 191.479 12.8015C192.78 10.978 194.002 9.50988 195.142 8.39727C196.283 7.28466 197.304 6.4194 198.203 5.80109C199.103 5.18291 199.874 4.75807 200.517 4.52631C201.16 4.29441 201.674 4.11665 202.06 3.99305C202.799 3.74583 203.249 3.6378 203.409 3.66857C203.57 3.69947 203.682 3.74583 203.747 3.80763C203.811 3.90034 203.771 4.00863 203.626 4.13224C203.482 4.25571 203.281 4.38711 203.024 4.52631C202.767 4.66537 202.461 4.81209 202.108 4.96673C201.754 5.12124 201.417 5.2603 201.096 5.38391C199.874 5.84757 198.693 6.56611 197.553 7.53967C196.412 8.51322 195.303 9.64908 194.227 10.9471C193.15 12.2451 192.122 13.6747 191.142 15.2354C190.161 16.7961 189.245 18.3803 188.394 19.9873C187.542 21.5944 186.747 23.1784 186.008 24.7391C185.269 26.2999 184.626 27.7603 184.08 29.1202C183.148 31.3455 182.216 33.1922 181.284 34.6602C180.352 36.1282 179.324 37.3723 178.199 38.3922C177.363 39.1958 176.456 39.7058 175.475 39.922C174.495 40.1383 173.587 40.0303 172.752 39.5975C172.013 39.2267 171.515 38.6472 171.258 37.8591C171 37.0709 170.896 36.1745 170.944 35.1702C170.992 34.1657 171.161 33.084 171.45 31.9249C171.74 30.766 172.069 29.6301 172.439 28.5175C172.808 27.4049 173.17 26.3694 173.523 25.4114C173.877 24.4533 174.15 23.6652 174.343 23.047C174.439 22.6762 174.696 21.9653 175.114 20.9145C175.532 19.8637 176.038 18.6428 176.632 17.2521C177.227 15.8612 177.893 14.3932 178.633 12.8478C179.372 11.3025 180.127 9.8576 180.898 8.51322C181.669 7.16871 182.433 6.02533 183.188 5.08254C183.943 4.13989 184.642 3.56041 185.285 3.3441C185.767 3.18945 186.233 3.05819 186.683 2.95003C187.133 2.84174 187.502 2.77227 187.791 2.74137C188.081 2.7106 188.225 2.74137 188.225 2.83408C188.225 2.92678 188 3.08143 187.55 3.29774C187.325 3.42122 186.819 4.00083 186.032 5.03619C185.245 6.07168 184.337 7.46241 183.308 9.20865C182.28 10.9548 181.212 13.0102 180.103 15.3744C178.994 17.7388 178.006 20.2963 177.138 23.047Z" fill="white"/>
<path fill-rule="evenodd" clip-rule="evenodd" d="M62.0775 21.6496C61.724 22.3604 61.2822 23.1949 60.752 24.153C60.2218 25.111 59.6353 26.0383 58.9926 26.9346C58.3498 27.8308 57.667 28.5958 56.9439 29.2293C56.2209 29.8629 55.5059 30.2107 54.7989 30.2723C54.4133 30.3034 53.9955 30.2338 53.5457 30.0638C53.0958 29.8939 52.7262 29.5848 52.437 29.1366C52.1477 28.6884 51.979 28.0704 51.9309 27.2822C51.8826 26.4941 52.0353 25.4974 52.3888 24.2921C52.0032 24.9101 51.5051 25.6288 50.8945 26.4477C50.284 27.2668 49.6251 28.0008 48.9182 28.6498C47.9863 29.5152 47.1266 30.0251 46.3394 30.1798C45.552 30.3343 44.8852 30.2183 44.3389 29.832C43.7926 29.4456 43.399 28.8353 43.158 28.0008C42.9168 27.1664 42.8768 26.1851 43.0374 25.057C43.1982 23.9289 43.5917 22.6927 44.2184 21.3482C44.8451 20.0038 45.7688 18.6363 46.9901 17.2455C47.6971 16.411 48.5566 15.7002 49.569 15.113C50.5812 14.5257 51.6095 14.1085 52.6539 13.8613C53.6984 13.6139 54.7106 13.583 55.6907 13.7686C56.6708 13.954 57.4982 14.4021 58.1731 15.113C58.5266 15.453 58.631 15.7774 58.4864 16.0865C58.3417 16.3955 58.0607 16.5191 57.6428 16.4573C57.3859 15.5919 56.8635 15.0666 56.0763 14.8812C55.289 14.6958 54.4454 14.8348 53.5457 15.2984C52.4531 15.8856 51.3283 16.7896 50.1715 18.0105C49.0145 19.2313 48.0023 20.537 47.1347 21.9277C47.0383 22.0823 46.8937 22.3295 46.7008 22.6695C46.5081 23.0095 46.3073 23.4036 46.0983 23.8517C45.8894 24.2998 45.6967 24.7634 45.5199 25.2424C45.3431 25.7214 45.2226 26.1774 45.1583 26.61C45.0299 27.4136 45.086 28.0008 45.327 28.3717C45.568 28.7425 45.9055 28.9281 46.3394 28.9281C46.7731 28.9281 47.2793 28.7503 47.8577 28.3948C48.4361 28.0395 49.0145 27.5372 49.593 26.8881C50.4285 25.8991 51.1918 24.8561 51.8826 23.759C52.5735 22.6618 53.2403 21.5414 53.8831 20.3979C54.4294 19.4089 54.9195 18.6518 55.3532 18.1263C55.7871 17.601 56.3896 17.3691 57.1609 17.4309C57.4822 17.4618 57.8116 17.5159 58.149 17.5932C58.4865 17.6704 58.8319 17.6782 59.1854 17.6164C58.9283 17.8636 58.5829 18.3195 58.149 18.9839C57.7151 19.6484 57.2653 20.4057 56.7993 21.2555C56.3334 22.1054 55.9076 22.9786 55.522 23.8748C55.1364 24.7712 54.8631 25.5747 54.7025 26.2856C54.3169 28.1399 54.4777 29.067 55.1845 29.067C55.6988 29.098 56.2611 28.8043 56.8716 28.1863C57.4822 27.5681 58.0848 26.8263 58.6793 25.9611C59.2737 25.0956 59.8121 24.2225 60.294 23.3417C60.776 22.4609 61.1456 21.7733 61.4026 21.2787C61.6276 20.877 61.8526 20.7224 62.0775 20.8152C62.3025 20.9079 62.3025 21.186 62.0775 21.6496ZM69.4043 24.1994C68.9866 24.9101 68.5287 25.6134 68.0307 26.3087C67.5324 27.0041 67.0023 27.6377 66.44 28.2094C65.8776 28.7812 65.291 29.2448 64.6804 29.6001C64.0699 29.9557 63.4754 30.1334 62.897 30.1334C62.64 30.1334 62.3588 30.1102 62.0534 30.0638C61.7482 30.0175 61.4509 29.9171 61.1616 29.7624C60.8725 29.6079 60.6073 29.3916 60.3663 29.1135C60.1253 28.8352 59.9566 28.4799 59.8603 28.0471C59.7638 27.5527 59.7478 27.0736 59.8121 26.61C59.8763 26.1465 59.9969 25.6906 60.1736 25.2424C60.3502 24.7943 60.5592 24.3617 60.8002 23.9444C61.0412 23.5271 61.2743 23.1022 61.4991 22.6695C61.3385 22.6695 61.1858 22.6231 61.0412 22.5304C60.8966 22.4377 60.9046 22.2368 61.0653 21.9277C61.226 21.6805 61.3706 21.4178 61.4991 21.1397C61.6276 20.8616 61.7722 20.5834 61.933 20.3052C62.415 19.4089 62.897 18.5126 63.3791 17.6164C63.8611 16.7201 64.2788 15.9165 64.6323 15.2057C64.8252 14.8348 65.0741 14.5798 65.3795 14.4408C65.6847 14.3017 66.0623 14.2321 66.5123 14.2321H69.4526C69.1633 14.4175 68.9064 14.6107 68.6814 14.8116C68.4564 15.0125 68.2234 15.252 67.9824 15.5301C67.7414 15.8083 67.4924 16.1483 67.2353 16.55C66.9781 16.9519 66.6889 17.4772 66.3675 18.1263C65.9177 18.9299 65.516 19.7025 65.1626 20.4442C64.8091 21.0933 64.4717 21.7577 64.1503 22.4377C63.8289 23.1177 63.5557 23.6739 63.3309 24.1067C62.7524 25.312 62.431 26.3165 62.3667 27.12C62.3025 27.9236 62.423 28.4875 62.7283 28.8121C63.0335 29.1366 63.4914 29.183 64.102 28.9512C64.7127 28.7194 65.4036 28.1709 66.1748 27.3055C66.8497 26.5637 67.5164 25.6828 68.1752 24.6629C68.834 23.643 69.4687 22.5846 70.0792 21.4874C70.6898 20.3902 71.2762 19.3007 71.8386 18.219C72.401 17.1373 72.9071 16.1329 73.357 15.2057C73.5498 14.8348 73.7989 14.5798 74.1042 14.4408C74.4094 14.3017 74.7871 14.2321 75.237 14.2321H77.8399C77.4864 14.5102 77.1812 14.7652 76.9241 14.997C76.6669 15.2289 76.4179 15.5147 76.1769 15.8393C75.9359 16.1638 75.6868 16.5655 75.4297 17.0446C75.1727 17.5236 74.8674 18.1263 74.5139 18.8372C74.1603 19.4861 73.815 20.1583 73.4776 20.8616C73.1401 21.5569 72.8187 22.2368 72.5134 22.909C72.2082 23.5736 71.9432 24.1916 71.718 24.7634C71.4931 25.3353 71.3486 25.8297 71.2843 26.2314C71.0593 27.2204 71.0674 27.9313 71.3083 28.3485C71.5495 28.7658 71.8467 28.9898 72.2002 29.0207C72.65 29.0207 73.1 28.8661 73.5498 28.5571C73.9997 28.2481 74.4496 27.8462 74.8995 27.3442C75.5743 26.6024 76.2411 25.7214 76.9 24.6938C77.5587 23.6739 78.1934 22.6077 78.8039 21.5105C79.4145 20.4057 80.0011 19.3162 80.5634 18.2345C81.1258 17.145 81.6319 16.1405 82.0817 15.2057C82.2746 14.8348 82.5236 14.5798 82.8288 14.4408C83.1341 14.3017 83.5118 14.2321 83.9617 14.2321H86.5646C86.2111 14.5102 85.9058 14.7652 85.6487 14.997C85.3916 15.2289 85.1427 15.5147 84.9015 15.8393C84.6606 16.1638 84.4115 16.5655 84.1544 17.0446C83.8974 17.5236 83.592 18.1263 83.2385 18.8372C82.8852 19.4861 82.5396 20.1583 82.2022 20.8616C81.8649 21.5569 81.5435 22.2368 81.2382 22.909C80.9329 23.5736 80.6677 24.1916 80.4429 24.7634C80.2179 25.3353 80.0732 25.8297 80.009 26.2314C79.7841 27.2204 79.7922 27.9313 80.0332 28.3485C80.2742 28.7658 80.5713 28.9898 80.9248 29.0207C81.5033 29.0207 82.0898 28.7734 82.6843 28.279C83.2789 27.7844 83.8491 27.1586 84.3955 26.4014C84.9418 25.6443 85.4639 24.8098 85.9621 23.898C86.4602 22.9863 86.9181 22.1132 87.3358 21.2787C87.5287 20.877 87.7456 20.7302 87.9866 20.8383C88.2276 20.9465 88.2357 21.2324 88.0107 21.6959C87.6251 22.4995 87.1752 23.3881 86.661 24.3617C86.1468 25.3352 85.5685 26.2547 84.9258 27.12C84.283 27.9854 83.576 28.704 82.8048 29.2757C82.0336 29.8475 81.2141 30.1334 80.3463 30.1334C79.8001 30.1334 79.3181 30.002 78.9004 29.7393C78.4826 29.4765 78.1692 29.0903 77.9605 28.5804C77.7515 28.0704 77.647 27.4445 77.647 26.7027C77.647 25.9611 77.8078 25.1265 78.1292 24.1994C77.8399 24.7247 77.4622 25.3275 76.9964 26.0074C76.5304 26.6873 76.0082 27.3287 75.4297 27.9313C74.8514 28.534 74.2408 29.0516 73.598 29.4843C72.9552 29.9171 72.2965 30.1334 71.6217 30.1334C71.0754 30.1334 70.5934 30.002 70.1757 29.7393C69.7578 29.4765 69.4445 29.0903 69.2356 28.5804C69.0268 28.0704 68.9224 27.4445 68.9224 26.7027C68.9224 25.9611 69.0831 25.1265 69.4043 24.1994ZM78.5629 32.1731C78.3059 32.544 77.9926 32.9227 77.623 33.3089C77.2533 33.6954 76.8277 34.0431 76.3456 34.3521C75.8636 34.6611 75.3253 34.9083 74.7308 35.0937C74.1363 35.2793 73.5016 35.3565 72.8268 35.3256C72.1842 35.2947 71.5655 35.2019 70.971 35.0475C70.3765 34.8929 69.7901 34.7307 69.2116 34.5606C68.6331 34.3906 68.0548 34.2361 67.4763 34.0971C66.8979 33.958 66.3194 33.873 65.7409 33.8421C65.0018 33.7803 64.3833 33.8808 63.8851 34.1434C63.387 34.4061 62.9935 34.7229 62.7042 35.0937C62.6721 35.1555 62.5756 35.1942 62.415 35.2097C62.2542 35.2251 62.0936 35.2251 61.933 35.2097C61.7722 35.1942 61.6276 35.171 61.4991 35.1401C61.3706 35.1092 61.3064 35.063 61.3064 35.001C61.8527 34.3212 62.6158 33.649 63.5959 32.9845C64.576 32.3199 65.7409 32.0186 67.0906 32.0805C67.7012 32.1114 68.3038 32.1885 68.8983 32.3123C69.4928 32.4359 70.0873 32.5826 70.6817 32.7527C71.2762 32.9227 71.8547 33.0772 72.4171 33.2162C72.9795 33.3553 73.5498 33.4402 74.1282 33.4712C74.9316 33.533 75.5904 33.4325 76.1046 33.1699C76.6188 32.9072 77.0525 32.5595 77.406 32.1269C77.406 32.096 77.4783 32.0727 77.623 32.0573C77.7676 32.0418 77.9122 32.034 78.0567 32.034C78.2015 32.034 78.33 32.0495 78.4424 32.0805C78.555 32.1114 78.595 32.1423 78.5629 32.1731ZM112.449 21.6496C112.096 22.3604 111.654 23.2104 111.124 24.1994C110.594 25.1884 109.991 26.1387 109.316 27.0504C108.642 27.9622 107.894 28.7425 107.075 29.3916C106.255 30.0406 105.396 30.3652 104.496 30.3652C104.046 30.3652 103.596 30.2879 103.146 30.1334C102.696 29.9788 102.319 29.693 102.014 29.2757C101.708 28.8585 101.524 28.3023 101.459 27.6068C101.395 26.9114 101.54 26.0229 101.893 24.9412C102.086 24.323 102.407 23.6199 102.857 22.8318C103.307 22.0436 103.869 21.1242 104.544 20.0734C104.833 19.6099 104.994 19.208 105.026 18.8681C105.058 18.528 104.938 18.3272 104.665 18.2654C104.392 18.2036 103.966 18.3272 103.387 18.6363C102.809 18.9454 102.054 19.517 101.122 20.3515C100.608 20.8152 99.9891 21.4565 99.266 22.2754C98.543 23.0944 97.8441 23.9753 97.1692 24.9179C96.4944 25.8606 95.8918 26.8032 95.3616 27.7459C94.8314 28.6884 94.4859 29.4998 94.3253 30.1798C93.779 30.1798 93.3532 29.9248 93.0479 29.4147C92.7427 28.9048 92.6542 28.3099 92.7827 27.6299C92.9435 26.61 93.2166 25.6906 93.6022 24.8716C93.9878 24.0525 94.3896 23.2104 94.8073 22.345C95.1929 21.5724 95.5464 20.8152 95.8678 20.0734C96.1891 19.3316 96.3417 18.7908 96.3257 18.4508C96.3096 18.1109 96.0445 18.0567 95.5303 18.2886C95.0162 18.5204 94.1324 19.208 92.8792 20.3515C92.0436 21.0624 91.0715 22.1132 89.9628 23.504C88.8543 24.8947 87.609 26.8572 86.2271 29.3916C86.0665 29.7315 85.8576 29.9402 85.6005 30.0175C85.3435 30.0947 84.9418 30.1334 84.3955 30.1334C84.042 30.1643 83.7528 30.1798 83.5278 30.1798C83.3029 30.1798 83.0619 30.2569 82.8048 30.4115C83.9617 28.1863 85.0462 26.0074 86.0584 23.8748C87.0708 21.7423 88.1713 19.6253 89.3604 17.5236C89.9709 16.411 90.5013 15.6384 90.951 15.2057C91.401 14.773 92.0115 14.572 92.7827 14.6029C93.1041 14.634 93.4335 14.688 93.7709 14.7652C94.1084 14.8426 94.4538 14.8503 94.8073 14.7885C94.4538 14.9739 94.028 15.3756 93.5299 15.9938C93.0319 16.612 92.5176 17.3382 91.9874 18.1727C91.4572 19.0072 90.927 19.8957 90.3967 20.8383C89.8665 21.781 89.3925 22.6695 88.9748 23.504C89.4568 22.9167 90.0594 22.229 90.7823 21.441C91.5054 20.6529 92.2365 19.9497 92.9756 19.3316C93.5541 18.8372 94.1726 18.3041 94.8314 17.7322C95.4902 17.1604 96.1328 16.6505 96.7594 16.2023C97.3862 15.7542 97.9807 15.4065 98.543 15.1593C99.1054 14.9121 99.5954 14.8503 100.013 14.9739C100.463 15.1284 100.752 15.3911 100.881 15.762C101.009 16.1329 100.961 16.55 100.736 17.0137C100.286 18.0027 99.732 19.0457 99.0732 20.1429C98.4145 21.2402 97.7958 22.3604 97.2175 23.504C97.6995 22.9167 98.302 22.229 99.025 21.441C99.7481 20.6529 100.479 19.9497 101.218 19.3316C101.797 18.8372 102.512 18.3041 103.363 17.7322C104.215 17.1604 105.074 16.6505 105.942 16.2023C106.81 15.7542 107.629 15.4065 108.4 15.1593C109.172 14.9121 109.75 14.8503 110.136 14.9739C109.172 16.6429 108.288 18.2345 107.485 19.7488C107.131 20.3979 106.794 21.0624 106.472 21.7423C106.151 22.4222 105.846 23.079 105.557 23.7126C105.267 24.3462 105.018 24.9412 104.809 25.4974C104.6 26.0538 104.448 26.5328 104.352 26.9346C104.191 27.8926 104.207 28.5186 104.4 28.8121C104.592 29.1057 104.849 29.2526 105.171 29.2526C105.781 29.2526 106.424 28.9357 107.099 28.3023C107.774 27.6685 108.417 26.9192 109.027 26.0538C109.638 25.1884 110.184 24.2998 110.666 23.3881C111.148 22.4764 111.518 21.7577 111.775 21.2324C111.967 20.8307 112.184 20.6838 112.425 20.792C112.666 20.9001 112.674 21.186 112.449 21.6496ZM110.762 9.59625C110.505 9.96708 110.192 10.3457 109.822 10.732C109.453 11.1184 109.027 11.4661 108.545 11.7751C108.063 12.0841 107.525 12.3314 106.93 12.5169C106.336 12.7023 105.701 12.7796 105.026 12.7487C104.384 12.7178 103.765 12.6249 103.17 12.4706C102.576 12.3159 101.989 12.1537 101.411 11.9836C100.833 11.8137 100.254 11.6592 99.6758 11.5201C99.0973 11.3811 98.519 11.2961 97.9405 11.2652C97.2013 11.2033 96.5827 11.3038 96.0847 11.5665C95.5866 11.8291 95.1929 12.146 94.9037 12.5169C94.8715 12.5786 94.7751 12.6173 94.6146 12.6327C94.4538 12.6482 94.2932 12.6482 94.1324 12.6327C93.9718 12.6173 93.8272 12.594 93.6987 12.5633C93.5701 12.5324 93.5058 12.486 93.5058 12.4241C94.0522 11.7442 94.8154 11.072 95.7954 10.4075C96.7756 9.74297 97.9405 9.44161 99.2902 9.50355C99.9007 9.53445 100.503 9.61171 101.098 9.73531C101.692 9.85892 102.287 10.0056 102.881 10.1757C103.476 10.3457 104.054 10.5002 104.617 10.6393C105.179 10.7783 105.749 10.8634 106.328 10.8943C107.131 10.9561 107.79 10.8556 108.304 10.5929C108.818 10.3302 109.252 9.98253 109.606 9.5499C109.606 9.519 109.678 9.49575 109.822 9.4803C109.967 9.46485 110.112 9.45706 110.256 9.45706C110.401 9.45706 110.529 9.47251 110.642 9.50355C110.754 9.53445 110.795 9.56535 110.762 9.59625ZM128.694 21.5105C128.501 21.9431 128.188 22.6231 127.754 23.5503C127.32 24.4775 126.782 25.4047 126.139 26.3319C125.496 27.2591 124.749 28.0704 123.898 28.7734C123.046 29.4765 122.122 29.8242 121.126 29.8242C120.387 29.8242 119.768 29.7084 119.27 29.4921C118.772 29.2679 118.362 28.9898 118.041 28.6498C117.366 29.1366 116.675 29.523 115.968 29.8011C115.261 30.0871 114.554 30.2107 113.847 30.1798C112.915 30.1489 112.184 29.8939 111.654 29.4147C110.386 28.2692 110.322 26.3722 110.57 24.8252C110.73 23.8208 111.036 22.8087 111.486 21.7888C111.967 20.7378 112.562 19.7334 113.269 18.7753C113.976 17.8173 114.739 16.9828 115.559 16.2719C116.378 15.561 117.222 14.997 118.089 14.5798C118.957 14.1627 119.808 13.9694 120.644 14.0003C121.544 14.0003 122.267 14.2476 122.813 14.7421C123.36 15.2366 123.721 15.8856 123.898 16.6892C124.074 17.4927 124.082 18.3968 123.922 19.4012C123.761 20.4057 123.456 21.4178 123.006 22.4377C122.653 23.2413 122.122 24.1454 121.415 25.1497C120.708 26.1542 119.889 27.0736 118.957 27.9082C119.375 28.6807 120.13 29.067 121.222 29.067C121.994 29.067 122.725 28.758 123.416 28.14C124.107 27.5218 124.741 26.78 125.32 25.9146C125.898 25.0493 126.412 24.1685 126.862 23.2722C127.312 22.3759 127.682 21.6496 127.971 21.0933C128.099 20.8461 128.292 20.7687 128.549 20.8616C128.806 20.9541 128.855 21.1706 128.694 21.5105ZM121.656 15.4838C121.142 15.3602 120.58 15.4298 119.969 15.6924C119.359 15.9551 118.748 16.3724 118.137 16.9441C117.527 17.5159 116.932 18.1959 116.354 18.9839C115.776 19.7721 115.261 20.6297 114.811 21.5569C114.329 22.515 113.952 23.419 113.679 24.2689C113.406 25.1188 113.237 25.8837 113.173 26.5637C113.108 27.2437 113.156 27.8077 113.317 28.2558C113.478 28.704 113.783 28.9898 114.233 29.1135C114.683 29.2371 115.197 29.1908 115.776 28.9743C116.354 28.758 116.932 28.4181 117.511 27.9545C117.254 27.5836 117.061 27.1973 116.932 26.7954C116.804 26.3937 116.74 26.0229 116.74 25.6828C116.772 25.1575 116.908 24.6938 117.149 24.2921C117.39 23.8902 117.816 23.6894 118.427 23.6894C118.844 23.6894 119.19 23.8284 119.463 24.1067C119.736 24.3848 119.873 24.7093 119.873 25.0802C119.873 25.1729 119.865 25.2579 119.849 25.3352C119.833 25.4125 119.808 25.4974 119.776 25.5901C120.323 24.8174 120.821 23.9831 121.271 23.0868C121.753 22.1287 122.122 21.2169 122.379 20.3515C122.636 19.4861 122.781 18.7135 122.813 18.0336C122.845 17.3536 122.765 16.7896 122.572 16.3415C122.379 15.8933 122.074 15.6074 121.656 15.4838ZM123.44 40.3323C122.958 41.3213 122.5 41.9859 122.066 42.3258C121.632 42.6658 121.014 42.8049 120.21 42.743C119.889 42.7122 119.56 42.6504 119.222 42.5575C118.885 42.4648 118.539 42.4495 118.186 42.5112C118.378 42.3258 118.748 41.7928 119.294 40.9118C119.841 40.0311 120.467 38.9492 121.174 37.6667C121.881 36.3841 122.636 34.9856 123.44 33.4712C124.243 31.9568 124.99 30.4733 125.681 29.0207C126.372 27.5681 126.967 26.2314 127.465 25.0106C127.963 23.7899 128.292 22.8241 128.453 22.1132C128.196 22.515 127.907 22.77 127.585 22.8781C127.264 22.9863 127.184 22.8703 127.344 22.5304C127.473 22.2832 127.633 21.9431 127.826 21.5105C128.019 21.0779 128.18 20.7224 128.308 20.4442C128.533 19.9497 128.734 19.378 128.911 18.7289C129.088 18.08 129.2 17.4618 129.248 16.8746C129.296 16.2874 129.272 15.7851 129.176 15.368C129.079 14.9507 128.887 14.7112 128.598 14.6494C128.951 14.5875 129.288 14.5257 129.61 14.464C129.867 14.4021 130.132 14.3635 130.405 14.3481C130.678 14.3326 130.863 14.3094 130.959 14.2785C131.313 14.2476 131.602 14.2243 131.827 14.2089C132.052 14.1934 132.229 14.2321 132.357 14.3248C132.486 14.4175 132.574 14.6107 132.622 14.9043C132.671 15.1979 132.695 15.623 132.695 16.1792C132.695 16.6429 132.622 17.1913 132.478 17.825C132.333 18.4586 132.165 19.1153 131.972 19.7953C131.779 20.4751 131.57 21.1397 131.345 21.7888C130.38 24.5717 131.018 23.0746 132.55 21.441C133.289 20.6529 134.028 19.9497 134.767 19.3316C135.346 18.8372 136.061 18.3041 136.912 17.7322C137.764 17.1604 138.624 16.6505 139.491 16.2023C140.359 15.7542 141.17 15.4065 141.926 15.1593C142.681 14.9121 143.267 14.8503 143.685 14.9739C142.721 16.6429 141.837 18.2345 141.034 19.7488C140.68 20.3979 140.335 21.0624 139.997 21.7423C139.66 22.4222 139.347 23.079 139.057 23.7126C138.768 24.3462 138.519 24.9412 138.31 25.4974C138.101 26.0538 137.965 26.5328 137.901 26.9346C137.708 27.8926 137.708 28.5186 137.901 28.8121C138.093 29.1057 138.351 29.2526 138.672 29.2526C139.282 29.2526 139.925 28.9281 140.6 28.279C141.275 27.6299 141.917 26.865 142.528 25.9842C143.139 25.1033 143.685 24.2148 144.167 23.3185C144.649 22.4222 145.019 21.7268 145.276 21.2324C145.469 20.8307 145.685 20.6838 145.926 20.792C146.167 20.9001 146.175 21.186 145.95 21.6496C145.597 22.3604 145.155 23.2104 144.625 24.1994C144.095 25.1884 143.492 26.1387 142.817 27.0504C142.142 27.9622 141.403 28.7425 140.6 29.3916C139.797 30.0406 138.929 30.3652 137.997 30.3652C137.579 30.3652 137.145 30.2879 136.696 30.1334C136.246 29.9788 135.868 29.693 135.563 29.2757C135.258 28.8585 135.073 28.3023 135.008 27.6068C134.944 26.9114 135.089 26.0229 135.442 24.9412C135.635 24.323 135.956 23.6199 136.406 22.8318C136.856 22.0436 137.419 21.1242 138.093 20.0734C138.383 19.6099 138.543 19.208 138.576 18.8681C138.608 18.528 138.487 18.3272 138.214 18.2654C137.941 18.2036 137.515 18.3272 136.937 18.6363C136.358 18.9454 135.603 19.517 134.671 20.3515C134.253 20.7224 133.779 21.1551 133.249 21.6496C132.719 22.1441 132.156 22.7545 131.562 23.4808C130.967 24.207 130.365 25.0648 129.754 26.0538C129.144 27.0427 128.549 28.2018 127.971 29.5307L123.44 40.3323ZM163.062 21.6959C162.677 22.4995 162.227 23.3881 161.713 24.3617C161.199 25.3352 160.62 26.2547 159.977 27.12C159.335 27.9854 158.628 28.704 157.857 29.2757C157.085 29.8475 156.266 30.1334 155.398 30.1334C154.852 30.1334 154.37 30.002 153.952 29.7393C153.534 29.4765 153.221 29.0903 153.012 28.5804C152.803 28.0704 152.699 27.4445 152.699 26.7027C152.699 25.9611 152.86 25.1265 153.181 24.1994C152.763 24.9101 152.305 25.6134 151.807 26.3087C151.309 27.0041 150.779 27.6377 150.216 28.2094C149.654 28.7812 149.068 29.2448 148.457 29.6001C147.846 29.9557 147.252 30.1334 146.674 30.1334C146.416 30.1334 146.135 30.1102 145.83 30.0638C145.525 30.0175 145.228 29.9171 144.938 29.7624C144.649 29.6079 144.384 29.3916 144.143 29.1135C143.902 28.8352 143.733 28.4799 143.637 28.0471C143.54 27.5527 143.524 27.0736 143.589 26.61C143.653 26.1465 143.773 25.6906 143.95 25.2424C144.127 24.7943 144.336 24.3617 144.577 23.9444C144.818 23.5271 145.051 23.1022 145.276 22.6695C145.115 22.6695 144.962 22.6231 144.818 22.5304C144.673 22.4377 144.681 22.2368 144.842 21.9277C145.002 21.6805 145.147 21.4178 145.276 21.1397C145.404 20.8616 145.549 20.5834 145.71 20.3052C146.191 19.4089 146.674 18.5126 147.156 17.6164C147.638 16.7201 148.055 15.9165 148.409 15.2057C148.602 14.8348 148.851 14.5798 149.156 14.4408C149.461 14.3017 149.839 14.2321 150.289 14.2321H153.229C152.94 14.4175 152.683 14.6107 152.458 14.8116C152.233 15.0125 152 15.252 151.759 15.5301C151.518 15.8083 151.269 16.1483 151.012 16.55C150.755 16.9519 150.466 17.4772 150.144 18.1263C149.694 18.9299 149.293 19.7025 148.939 20.4442C148.586 21.0933 148.248 21.7577 147.927 22.4377C147.605 23.1177 147.332 23.6739 147.107 24.1067C146.529 25.312 146.208 26.3165 146.143 27.12C146.079 27.9236 146.2 28.4875 146.505 28.8121C146.81 29.1366 147.268 29.183 147.879 28.9512C148.489 28.7194 149.18 28.1709 149.951 27.3055C150.626 26.5637 151.293 25.6828 151.952 24.6629C152.611 23.643 153.245 22.5846 153.856 21.4874C154.466 20.3902 155.053 19.3007 155.615 18.219C156.177 17.1373 156.684 16.1329 157.133 15.2057C157.326 14.8348 157.575 14.5798 157.881 14.4408C158.186 14.3017 158.564 14.2321 159.014 14.2321H161.616C161.263 14.5102 160.958 14.7652 160.701 14.997C160.443 15.2289 160.194 15.5147 159.953 15.8393C159.712 16.1638 159.463 16.5655 159.206 17.0446C158.949 17.5236 158.644 18.1263 158.29 18.8372C157.937 19.4861 157.591 20.1583 157.254 20.8616C156.917 21.5569 156.595 22.2368 156.29 22.909C155.985 23.5736 155.72 24.1916 155.495 24.7634C155.27 25.3353 155.125 25.8297 155.061 26.2314C154.836 27.2204 154.844 27.9313 155.085 28.3485C155.326 28.7658 155.623 28.9898 155.977 29.0207C156.555 29.0207 157.142 28.7734 157.736 28.279C158.331 27.7844 158.901 27.1586 159.447 26.4014C159.994 25.6443 160.516 24.8098 161.014 23.898C161.512 22.9863 161.97 22.1132 162.388 21.2787C162.581 20.877 162.797 20.7302 163.038 20.8383C163.279 20.9465 163.287 21.2324 163.062 21.6959Z" fill="white"/>
</svg>
