<svg width="351" height="279" viewBox="0 0 351 279" fill="none" xmlns="http://www.w3.org/2000/svg">
<g clip-path="url(#clip0_2982_35372)">
<path d="M350.496 205.599H0.496094V205.755H350.496V205.599Z" fill="#EBEBEB"/>
<path d="M315.426 215.641H292.242V215.797H315.426V215.641Z" fill="#EBEBEB"/>
<path d="M232.353 217.339H226.27V217.495H232.353V217.339Z" fill="#EBEBEB"/>
<path d="M291.542 209.849H278.109V210.005H291.542V209.849Z" fill="#EBEBEB"/>
<path d="M67.4518 210.898H37.2188V211.054H67.4518V210.898Z" fill="#EBEBEB"/>
<path d="M78.1185 210.898H73.6875V211.054H78.1185V210.898Z" fill="#EBEBEB"/>
<path d="M158.099 213.532H92.5234V213.688H158.099V213.532Z" fill="#EBEBEB"/>
<path d="M178.547 28.0122H59.8828V146.553H178.547V28.0122Z" fill="#EBEBEB"/>
<path d="M178.548 29.9224H62.2148V144.45H178.548V29.9224Z" fill="#FAFAFA"/>
<path d="M66.5128 90.7092V82.6638H69.0888V77.3022H72.5258V69.2505H73.3868V77.3022H76.8238V82.6638H79.4068V90.7092H84.1318V93.0123H86.2808V101.825H86.7078V89.18H87.9958V97.2254H89.2838V78.0637H90.1448V86.1154H93.5888V83.4315H94.8768V72.3214H97.4528V61.2051H98.3138V62.7405H115.933V58.1405H118.943V40.5142H120.231V58.1405H124.529V62.7405H126.244V85.7284H135.267V78.8314H132.264V77.6829H135.267V75.7668H143.863V58.1405H146.012V55.4566H156.33V58.1405H157.618V82.6638H162.343V93.7801H164.919V84.9669H167.068V82.6638H171.8V74.6183H174.376V69.2505H177.386V61.2051H178.548V144.449H62.2148V90.7092H66.5128Z" fill="#F0F0F0"/>
<path d="M109.351 63.939H108.133V65.025H109.351V63.939Z" fill="#FAFAFA"/>
<path d="M109.351 65.7615H108.133V66.8475H109.351V65.7615Z" fill="#FAFAFA"/>
<path d="M109.351 73.0393H108.133V74.1253H109.351V73.0393Z" fill="#FAFAFA"/>
<path d="M109.351 74.8618H108.133V75.9479H109.351V74.8618Z" fill="#FAFAFA"/>
<path d="M109.351 76.6843H108.133V77.7704H109.351V76.6843Z" fill="#FAFAFA"/>
<path d="M109.351 82.1396H108.133V83.2257H109.351V82.1396Z" fill="#FAFAFA"/>
<path d="M109.351 83.9622H108.133V85.0482H109.351V83.9622Z" fill="#FAFAFA"/>
<path d="M111.284 71.2229H110.066V72.3089H111.284V71.2229Z" fill="#FAFAFA"/>
<path d="M111.284 73.0393H110.066V74.1253H111.284V73.0393Z" fill="#FAFAFA"/>
<path d="M111.284 74.8618H110.066V75.9479H111.284V74.8618Z" fill="#FAFAFA"/>
<path d="M111.284 76.6843H110.066V77.7704H111.284V76.6843Z" fill="#FAFAFA"/>
<path d="M111.284 78.5007H110.066V79.5868H111.284V78.5007Z" fill="#FAFAFA"/>
<path d="M111.284 82.1396H110.066V83.2257H111.284V82.1396Z" fill="#FAFAFA"/>
<path d="M111.284 83.9622H110.066V85.0482H111.284V83.9622Z" fill="#FAFAFA"/>
<path d="M113.218 63.939H112V65.025H113.218V63.939Z" fill="#FAFAFA"/>
<path d="M113.218 65.7615H112V66.8475H113.218V65.7615Z" fill="#FAFAFA"/>
<path d="M113.218 67.5842H112V68.6703H113.218V67.5842Z" fill="#FAFAFA"/>
<path d="M113.218 69.4004H112V70.4864H113.218V69.4004Z" fill="#FAFAFA"/>
<path d="M113.218 71.2229H112V72.3089H113.218V71.2229Z" fill="#FAFAFA"/>
<path d="M113.218 73.0393H112V74.1253H113.218V73.0393Z" fill="#FAFAFA"/>
<path d="M113.218 74.8618H112V75.9479H113.218V74.8618Z" fill="#FAFAFA"/>
<path d="M113.218 76.6843H112V77.7704H113.218V76.6843Z" fill="#FAFAFA"/>
<path d="M113.218 78.5007H112V79.5868H113.218V78.5007Z" fill="#FAFAFA"/>
<path d="M113.218 80.3232H112V81.4093H113.218V80.3232Z" fill="#FAFAFA"/>
<path d="M113.218 83.9622H112V85.0482H113.218V83.9622Z" fill="#FAFAFA"/>
<path d="M115.156 63.939H113.938V65.025H115.156V63.939Z" fill="#FAFAFA"/>
<path d="M115.156 65.7615H113.938V66.8475H115.156V65.7615Z" fill="#FAFAFA"/>
<path d="M115.156 67.5842H113.938V68.6703H115.156V67.5842Z" fill="#FAFAFA"/>
<path d="M115.156 69.4004H113.938V70.4864H115.156V69.4004Z" fill="#FAFAFA"/>
<path d="M115.156 71.2229H113.938V72.3089H115.156V71.2229Z" fill="#FAFAFA"/>
<path d="M115.156 73.0393H113.938V74.1253H115.156V73.0393Z" fill="#FAFAFA"/>
<path d="M115.156 74.8618H113.938V75.9479H115.156V74.8618Z" fill="#FAFAFA"/>
<path d="M115.156 91.2397H113.938V92.3258H115.156V91.2397Z" fill="#FAFAFA"/>
<path d="M117.089 63.939H115.871V65.025H117.089V63.939Z" fill="#FAFAFA"/>
<path d="M117.089 65.7615H115.871V66.8475H117.089V65.7615Z" fill="#FAFAFA"/>
<path d="M117.089 67.5842H115.871V68.6703H117.089V67.5842Z" fill="#FAFAFA"/>
<path d="M117.089 69.4004H115.871V70.4864H117.089V69.4004Z" fill="#FAFAFA"/>
<path d="M117.089 71.2229H115.871V72.3089H117.089V71.2229Z" fill="#FAFAFA"/>
<path d="M117.089 73.0393H115.871V74.1253H117.089V73.0393Z" fill="#FAFAFA"/>
<path d="M117.089 74.8618H115.871V75.9479H117.089V74.8618Z" fill="#FAFAFA"/>
<path d="M117.089 76.6843H115.871V77.7704H117.089V76.6843Z" fill="#FAFAFA"/>
<path d="M117.089 87.6011H115.871V88.6871H117.089V87.6011Z" fill="#FAFAFA"/>
<path d="M117.089 89.4236H115.871V90.5096H117.089V89.4236Z" fill="#FAFAFA"/>
<path d="M117.089 91.2397H115.871V92.3258H117.089V91.2397Z" fill="#FAFAFA"/>
<path d="M117.089 93.0625H115.871V94.1485H117.089V93.0625Z" fill="#FAFAFA"/>
<path d="M117.089 100.34H115.871V101.426H117.089V100.34Z" fill="#FAFAFA"/>
<path d="M119.019 63.939H117.801V65.025H119.019V63.939Z" fill="#FAFAFA"/>
<path d="M119.019 65.7615H117.801V66.8475H119.019V65.7615Z" fill="#FAFAFA"/>
<path d="M119.019 67.5842H117.801V68.6703H119.019V67.5842Z" fill="#FAFAFA"/>
<path d="M119.019 69.4004H117.801V70.4864H119.019V69.4004Z" fill="#FAFAFA"/>
<path d="M119.019 71.2229H117.801V72.3089H119.019V71.2229Z" fill="#FAFAFA"/>
<path d="M119.019 73.0393H117.801V74.1253H119.019V73.0393Z" fill="#FAFAFA"/>
<path d="M119.019 74.8618H117.801V75.9479H119.019V74.8618Z" fill="#FAFAFA"/>
<path d="M119.019 76.6843H117.801V77.7704H119.019V76.6843Z" fill="#FAFAFA"/>
<path d="M119.019 78.5007H117.801V79.5868H119.019V78.5007Z" fill="#FAFAFA"/>
<path d="M119.019 80.3232H117.801V81.4093H119.019V80.3232Z" fill="#FAFAFA"/>
<path d="M119.019 85.7847H117.801V86.8707H119.019V85.7847Z" fill="#FAFAFA"/>
<path d="M119.019 87.6011H117.801V88.6871H119.019V87.6011Z" fill="#FAFAFA"/>
<path d="M119.019 89.4236H117.801V90.5096H119.019V89.4236Z" fill="#FAFAFA"/>
<path d="M119.019 91.2397H117.801V92.3258H119.019V91.2397Z" fill="#FAFAFA"/>
<path d="M119.019 93.0623H117.801V94.1483H119.019V93.0623Z" fill="#FAFAFA"/>
<path d="M119.019 100.34H117.801V101.426H119.019V100.34Z" fill="#FAFAFA"/>
<path d="M120.952 63.939H119.734V65.025H120.952V63.939Z" fill="#FAFAFA"/>
<path d="M120.952 65.7617H119.734V66.8478H120.952V65.7617Z" fill="#FAFAFA"/>
<path d="M120.952 67.5842H119.734V68.6703H120.952V67.5842Z" fill="#FAFAFA"/>
<path d="M120.952 69.4004H119.734V70.4864H120.952V69.4004Z" fill="#FAFAFA"/>
<path d="M120.952 71.2229H119.734V72.3089H120.952V71.2229Z" fill="#FAFAFA"/>
<path d="M120.952 73.0393H119.734V74.1253H120.952V73.0393Z" fill="#FAFAFA"/>
<path d="M120.952 74.8618H119.734V75.9479H120.952V74.8618Z" fill="#FAFAFA"/>
<path d="M120.952 76.6843H119.734V77.7704H120.952V76.6843Z" fill="#FAFAFA"/>
<path d="M120.952 78.5007H119.734V79.5868H120.952V78.5007Z" fill="#FAFAFA"/>
<path d="M120.952 80.3232H119.734V81.4093H120.952V80.3232Z" fill="#FAFAFA"/>
<path d="M120.952 82.1396H119.734V83.2257H120.952V82.1396Z" fill="#FAFAFA"/>
<path d="M120.952 83.9622H119.734V85.0482H120.952V83.9622Z" fill="#FAFAFA"/>
<path d="M120.952 85.7847H119.734V86.8707H120.952V85.7847Z" fill="#FAFAFA"/>
<path d="M120.952 87.6011H119.734V88.6871H120.952V87.6011Z" fill="#FAFAFA"/>
<path d="M120.952 89.4236H119.734V90.5096H120.952V89.4236Z" fill="#FAFAFA"/>
<path d="M120.952 91.2397H119.734V92.3258H120.952V91.2397Z" fill="#FAFAFA"/>
<path d="M120.952 93.0625H119.734V94.1485H120.952V93.0625Z" fill="#FAFAFA"/>
<path d="M120.952 94.885H119.734V95.971H120.952V94.885Z" fill="#FAFAFA"/>
<path d="M122.89 63.939H121.672V65.025H122.89V63.939Z" fill="#FAFAFA"/>
<path d="M122.89 65.7615H121.672V66.8475H122.89V65.7615Z" fill="#FAFAFA"/>
<path d="M122.89 67.5842H121.672V68.6703H122.89V67.5842Z" fill="#FAFAFA"/>
<path d="M122.89 69.4004H121.672V70.4864H122.89V69.4004Z" fill="#FAFAFA"/>
<path d="M122.89 71.2229H121.672V72.3089H122.89V71.2229Z" fill="#FAFAFA"/>
<path d="M122.89 73.0393H121.672V74.1253H122.89V73.0393Z" fill="#FAFAFA"/>
<path d="M122.89 74.8618H121.672V75.9479H122.89V74.8618Z" fill="#FAFAFA"/>
<path d="M122.89 76.6843H121.672V77.7704H122.89V76.6843Z" fill="#FAFAFA"/>
<path d="M122.89 78.5007H121.672V79.5868H122.89V78.5007Z" fill="#FAFAFA"/>
<path d="M122.89 80.3232H121.672V81.4093H122.89V80.3232Z" fill="#FAFAFA"/>
<path d="M122.89 85.7847H121.672V86.8707H122.89V85.7847Z" fill="#FAFAFA"/>
<path d="M122.89 87.6011H121.672V88.6871H122.89V87.6011Z" fill="#FAFAFA"/>
<path d="M122.89 89.4236H121.672V90.5096H122.89V89.4236Z" fill="#FAFAFA"/>
<path d="M122.89 91.2397H121.672V92.3258H122.89V91.2397Z" fill="#FAFAFA"/>
<path d="M124.823 63.939H123.605V65.025H124.823V63.939Z" fill="#FAFAFA"/>
<path d="M124.823 65.7615H123.605V66.8475H124.823V65.7615Z" fill="#FAFAFA"/>
<path d="M124.823 67.5842H123.605V68.6703H124.823V67.5842Z" fill="#FAFAFA"/>
<path d="M124.823 69.4004H123.605V70.4864H124.823V69.4004Z" fill="#FAFAFA"/>
<path d="M124.823 71.2229H123.605V72.3089H124.823V71.2229Z" fill="#FAFAFA"/>
<path d="M124.823 73.0393H123.605V74.1253H124.823V73.0393Z" fill="#FAFAFA"/>
<path d="M124.823 74.8618H123.605V75.9479H124.823V74.8618Z" fill="#FAFAFA"/>
<path d="M124.823 76.6843H123.605V77.7704H124.823V76.6843Z" fill="#FAFAFA"/>
<path d="M124.823 78.5007H123.605V79.5868H124.823V78.5007Z" fill="#FAFAFA"/>
<path d="M124.823 80.3232H123.605V81.4093H124.823V80.3232Z" fill="#FAFAFA"/>
<path d="M124.823 85.7847H123.605V86.8707H124.823V85.7847Z" fill="#FAFAFA"/>
<path d="M124.823 87.6011H123.605V88.6871H124.823V87.6011Z" fill="#FAFAFA"/>
<path d="M124.823 89.4236H123.605V90.5096H124.823V89.4236Z" fill="#FAFAFA"/>
<path d="M146.593 59.2141H145.375V60.3002H146.593V59.2141Z" fill="#FAFAFA"/>
<path d="M146.593 61.0366H145.375V62.1227H146.593V61.0366Z" fill="#FAFAFA"/>
<path d="M146.593 62.853H145.375V63.9391H146.593V62.853Z" fill="#FAFAFA"/>
<path d="M146.593 64.6755H145.375V65.7616H146.593V64.6755Z" fill="#FAFAFA"/>
<path d="M146.593 66.498H145.375V67.5841H146.593V66.498Z" fill="#FAFAFA"/>
<path d="M146.593 68.3145H145.375V69.4005H146.593V68.3145Z" fill="#FAFAFA"/>
<path d="M146.593 70.137H145.375V71.223H146.593V70.137Z" fill="#FAFAFA"/>
<path d="M146.593 71.9534H145.375V73.0394H146.593V71.9534Z" fill="#FAFAFA"/>
<path d="M146.593 77.4148H145.375V78.5008H146.593V77.4148Z" fill="#FAFAFA"/>
<path d="M146.593 79.2373H145.375V80.3233H146.593V79.2373Z" fill="#FAFAFA"/>
<path d="M148.53 59.2141H147.312V60.3002H148.53V59.2141Z" fill="#FAFAFA"/>
<path d="M148.53 61.0366H147.312V62.1227H148.53V61.0366Z" fill="#FAFAFA"/>
<path d="M148.53 62.853H147.312V63.9391H148.53V62.853Z" fill="#FAFAFA"/>
<path d="M148.53 64.6755H147.312V65.7616H148.53V64.6755Z" fill="#FAFAFA"/>
<path d="M148.53 66.498H147.312V67.5841H148.53V66.498Z" fill="#FAFAFA"/>
<path d="M148.53 68.3145H147.312V69.4005H148.53V68.3145Z" fill="#FAFAFA"/>
<path d="M148.53 70.137H147.312V71.223H148.53V70.137Z" fill="#FAFAFA"/>
<path d="M148.53 71.9534H147.312V73.0394H148.53V71.9534Z" fill="#FAFAFA"/>
<path d="M148.53 79.2373H147.312V80.3233H148.53V79.2373Z" fill="#FAFAFA"/>
<path d="M150.464 59.2141H149.246V60.3002H150.464V59.2141Z" fill="#FAFAFA"/>
<path d="M150.464 61.0366H149.246V62.1227H150.464V61.0366Z" fill="#FAFAFA"/>
<path d="M150.464 62.853H149.246V63.9391H150.464V62.853Z" fill="#FAFAFA"/>
<path d="M150.464 64.6755H149.246V65.7616H150.464V64.6755Z" fill="#FAFAFA"/>
<path d="M150.464 66.498H149.246V67.5841H150.464V66.498Z" fill="#FAFAFA"/>
<path d="M150.464 68.3145H149.246V69.4005H150.464V68.3145Z" fill="#FAFAFA"/>
<path d="M150.464 70.137H149.246V71.223H150.464V70.137Z" fill="#FAFAFA"/>
<path d="M150.464 71.9534H149.246V73.0394H150.464V71.9534Z" fill="#FAFAFA"/>
<path d="M152.398 59.2141H151.18V60.3002H152.398V59.2141Z" fill="#FAFAFA"/>
<path d="M152.398 61.0366H151.18V62.1227H152.398V61.0366Z" fill="#FAFAFA"/>
<path d="M152.398 62.853H151.18V63.9391H152.398V62.853Z" fill="#FAFAFA"/>
<path d="M152.398 64.6755H151.18V65.7616H152.398V64.6755Z" fill="#FAFAFA"/>
<path d="M152.398 66.498H151.18V67.5841H152.398V66.498Z" fill="#FAFAFA"/>
<path d="M152.398 68.3145H151.18V69.4005H152.398V68.3145Z" fill="#FAFAFA"/>
<path d="M152.398 71.9534H151.18V73.0394H152.398V71.9534Z" fill="#FAFAFA"/>
<path d="M152.398 73.7759H151.18V74.8619H152.398V73.7759Z" fill="#FAFAFA"/>
<path d="M152.398 79.2373H151.18V80.3233H152.398V79.2373Z" fill="#FAFAFA"/>
<path d="M152.398 81.0535H151.18V82.1395H152.398V81.0535Z" fill="#FAFAFA"/>
<path d="M152.398 82.876H151.18V83.962H152.398V82.876Z" fill="#FAFAFA"/>
<path d="M152.398 84.6987H151.18V85.7848H152.398V84.6987Z" fill="#FAFAFA"/>
<path d="M152.398 86.5149H151.18V87.6009H152.398V86.5149Z" fill="#FAFAFA"/>
<path d="M152.398 88.3374H151.18V89.4234H152.398V88.3374Z" fill="#FAFAFA"/>
<path d="M152.398 90.1538H151.18V91.2398H152.398V90.1538Z" fill="#FAFAFA"/>
<path d="M154.327 59.2141H153.109V60.3002H154.327V59.2141Z" fill="#FAFAFA"/>
<path d="M154.327 61.0366H153.109V62.1227H154.327V61.0366Z" fill="#FAFAFA"/>
<path d="M154.327 62.853H153.109V63.9391H154.327V62.853Z" fill="#FAFAFA"/>
<path d="M154.327 64.6755H153.109V65.7616H154.327V64.6755Z" fill="#FAFAFA"/>
<path d="M154.327 66.498H153.109V67.5841H154.327V66.498Z" fill="#FAFAFA"/>
<path d="M154.327 68.3145H153.109V69.4005H154.327V68.3145Z" fill="#FAFAFA"/>
<path d="M154.327 73.7759H153.109V74.8619H154.327V73.7759Z" fill="#FAFAFA"/>
<path d="M154.327 75.5984H153.109V76.6844H154.327V75.5984Z" fill="#FAFAFA"/>
<path d="M154.327 77.4148H153.109V78.5008H154.327V77.4148Z" fill="#FAFAFA"/>
<path d="M154.327 79.2373H153.109V80.3233H154.327V79.2373Z" fill="#FAFAFA"/>
<path d="M154.327 81.0535H153.109V82.1395H154.327V81.0535Z" fill="#FAFAFA"/>
<path d="M154.327 82.876H153.109V83.962H154.327V82.876Z" fill="#FAFAFA"/>
<path d="M154.327 84.6987H153.109V85.7848H154.327V84.6987Z" fill="#FAFAFA"/>
<path d="M154.327 86.5149H153.109V87.6009H154.327V86.5149Z" fill="#FAFAFA"/>
<path d="M154.327 88.3374H153.109V89.4234H154.327V88.3374Z" fill="#FAFAFA"/>
<path d="M154.327 90.1538H153.109V91.2398H154.327V90.1538Z" fill="#FAFAFA"/>
<path d="M154.327 91.9763H153.109V93.0624H154.327V91.9763Z" fill="#FAFAFA"/>
<path d="M154.327 95.6152H153.109V96.7013H154.327V95.6152Z" fill="#FAFAFA"/>
<path d="M156.265 59.2141H155.047V60.3002H156.265V59.2141Z" fill="#FAFAFA"/>
<path d="M156.265 61.0366H155.047V62.1227H156.265V61.0366Z" fill="#FAFAFA"/>
<path d="M156.265 62.853H155.047V63.9391H156.265V62.853Z" fill="#FAFAFA"/>
<path d="M156.265 64.6755H155.047V65.7616H156.265V64.6755Z" fill="#FAFAFA"/>
<path d="M156.265 66.498H155.047V67.5841H156.265V66.498Z" fill="#FAFAFA"/>
<path d="M156.265 68.3145H155.047V69.4005H156.265V68.3145Z" fill="#FAFAFA"/>
<path d="M156.265 73.7759H155.047V74.8619H156.265V73.7759Z" fill="#FAFAFA"/>
<path d="M156.265 75.5984H155.047V76.6844H156.265V75.5984Z" fill="#FAFAFA"/>
<path d="M156.265 77.4148H155.047V78.5008H156.265V77.4148Z" fill="#FAFAFA"/>
<path d="M156.265 79.2373H155.047V80.3233H156.265V79.2373Z" fill="#FAFAFA"/>
<path d="M156.265 84.6987H155.047V85.7848H156.265V84.6987Z" fill="#FAFAFA"/>
<path d="M156.265 86.5149H155.047V87.6009H156.265V86.5149Z" fill="#FAFAFA"/>
<path d="M156.265 88.3374H155.047V89.4234H156.265V88.3374Z" fill="#FAFAFA"/>
<path d="M156.265 90.1538H155.047V91.2398H156.265V90.1538Z" fill="#FAFAFA"/>
<path d="M156.265 91.9763H155.047V93.0624H156.265V91.9763Z" fill="#FAFAFA"/>
<path d="M156.265 95.6152H155.047V96.7013H156.265V95.6152Z" fill="#FAFAFA"/>
<path d="M156.265 97.4377H155.047V98.5238H156.265V97.4377Z" fill="#FAFAFA"/>
<path d="M173.812 76.1414H172.594V77.2274H173.812V76.1414Z" fill="#FAFAFA"/>
<path d="M173.812 77.9578H172.594V79.0438H173.812V77.9578Z" fill="#FAFAFA"/>
<path d="M173.812 79.7803H172.594V80.8663H173.812V79.7803Z" fill="#FAFAFA"/>
<path d="M173.812 81.5964H172.594V82.6825H173.812V81.5964Z" fill="#FAFAFA"/>
<path d="M173.812 83.4192H172.594V84.5052H173.812V83.4192Z" fill="#FAFAFA"/>
<path d="M173.812 85.2417H172.594V86.3277H173.812V85.2417Z" fill="#FAFAFA"/>
<path d="M173.812 87.0579H172.594V88.1439H173.812V87.0579Z" fill="#FAFAFA"/>
<path d="M173.812 92.5193H172.594V93.6053H173.812V92.5193Z" fill="#FAFAFA"/>
<path d="M173.812 94.342H172.594V95.4281H173.812V94.342Z" fill="#FAFAFA"/>
<path d="M173.812 96.1582H172.594V97.2442H173.812V96.1582Z" fill="#FAFAFA"/>
<path d="M175.749 76.1414H174.531V77.2274H175.749V76.1414Z" fill="#FAFAFA"/>
<path d="M175.749 77.9578H174.531V79.0438H175.749V77.9578Z" fill="#FAFAFA"/>
<path d="M175.749 79.7803H174.531V80.8663H175.749V79.7803Z" fill="#FAFAFA"/>
<path d="M175.749 81.5964H174.531V82.6825H175.749V81.5964Z" fill="#FAFAFA"/>
<path d="M175.749 83.4192H174.531V84.5052H175.749V83.4192Z" fill="#FAFAFA"/>
<path d="M175.749 85.2417H174.531V86.3277H175.749V85.2417Z" fill="#FAFAFA"/>
<path d="M175.749 87.0579H174.531V88.1439H175.749V87.0579Z" fill="#FAFAFA"/>
<path d="M178.211 76.1414H176.461V77.2274H178.211V76.1414Z" fill="#FAFAFA"/>
<path d="M178.211 77.9578H176.461V79.0438H178.211V77.9578Z" fill="#FAFAFA"/>
<path d="M178.211 79.7803H176.461V80.8663H178.211V79.7803Z" fill="#FAFAFA"/>
<path d="M178.211 81.5964H176.461V82.6825H178.211V81.5964Z" fill="#FAFAFA"/>
<path d="M178.211 83.4192H176.461V84.5052H178.211V83.4192Z" fill="#FAFAFA"/>
<path d="M178.211 85.2417H176.461V86.3277H178.211V85.2417Z" fill="#FAFAFA"/>
<path d="M178.211 87.0579H176.461V88.1439H178.211V87.0579Z" fill="#FAFAFA"/>
<path d="M71.3235 78.5007H70.1055V79.5868H71.3235V78.5007Z" fill="#FAFAFA"/>
<path d="M71.3235 80.3232H70.1055V81.4093H71.3235V80.3232Z" fill="#FAFAFA"/>
<path d="M71.3235 82.1396H70.1055V83.2257H71.3235V82.1396Z" fill="#FAFAFA"/>
<path d="M71.3235 83.9622H70.1055V85.0482H71.3235V83.9622Z" fill="#FAFAFA"/>
<path d="M71.3235 85.7847H70.1055V86.8707H71.3235V85.7847Z" fill="#FAFAFA"/>
<path d="M71.3235 87.6011H70.1055V88.6871H71.3235V87.6011Z" fill="#FAFAFA"/>
<path d="M71.3235 89.4236H70.1055V90.5096H71.3235V89.4236Z" fill="#FAFAFA"/>
<path d="M71.3235 91.2397H70.1055V92.3258H71.3235V91.2397Z" fill="#FAFAFA"/>
<path d="M71.3235 93.0625H70.1055V94.1485H71.3235V93.0625Z" fill="#FAFAFA"/>
<path d="M71.3235 94.885H70.1055V95.971H71.3235V94.885Z" fill="#FAFAFA"/>
<path d="M71.3235 96.7012H70.1055V97.7872H71.3235V96.7012Z" fill="#FAFAFA"/>
<path d="M71.3235 98.5237H70.1055V99.6097H71.3235V98.5237Z" fill="#FAFAFA"/>
<path d="M71.3235 100.34H70.1055V101.426H71.3235V100.34Z" fill="#FAFAFA"/>
<path d="M71.3235 102.163H70.1055V103.249H71.3235V102.163Z" fill="#FAFAFA"/>
<path d="M71.3235 103.985H70.1055V105.071H71.3235V103.985Z" fill="#FAFAFA"/>
<path d="M71.3235 105.802H70.1055V106.888H71.3235V105.802Z" fill="#FAFAFA"/>
<path d="M71.3235 107.624H70.1055V108.71H71.3235V107.624Z" fill="#FAFAFA"/>
<path d="M71.3235 109.44H70.1055V110.526H71.3235V109.44Z" fill="#FAFAFA"/>
<path d="M71.3235 111.263H70.1055V112.349H71.3235V111.263Z" fill="#FAFAFA"/>
<path d="M71.3235 113.085H70.1055V114.171H71.3235V113.085Z" fill="#FAFAFA"/>
<path d="M73.2532 78.5007H72.0352V79.5868H73.2532V78.5007Z" fill="#FAFAFA"/>
<path d="M73.2532 80.3232H72.0352V81.4093H73.2532V80.3232Z" fill="#FAFAFA"/>
<path d="M73.2532 82.1396H72.0352V83.2257H73.2532V82.1396Z" fill="#FAFAFA"/>
<path d="M73.2532 83.9622H72.0352V85.0482H73.2532V83.9622Z" fill="#FAFAFA"/>
<path d="M73.2532 85.7847H72.0352V86.8707H73.2532V85.7847Z" fill="#FAFAFA"/>
<path d="M73.2532 87.6011H72.0352V88.6871H73.2532V87.6011Z" fill="#FAFAFA"/>
<path d="M73.2532 89.4236H72.0352V90.5096H73.2532V89.4236Z" fill="#FAFAFA"/>
<path d="M73.2532 91.2397H72.0352V92.3258H73.2532V91.2397Z" fill="#FAFAFA"/>
<path d="M73.2532 93.0625H72.0352V94.1485H73.2532V93.0625Z" fill="#FAFAFA"/>
<path d="M73.2532 94.885H72.0352V95.971H73.2532V94.885Z" fill="#FAFAFA"/>
<path d="M73.2532 96.7012H72.0352V97.7872H73.2532V96.7012Z" fill="#FAFAFA"/>
<path d="M73.2532 98.5237H72.0352V99.6097H73.2532V98.5237Z" fill="#FAFAFA"/>
<path d="M73.2532 100.34H72.0352V101.426H73.2532V100.34Z" fill="#FAFAFA"/>
<path d="M73.2532 102.163H72.0352V103.249H73.2532V102.163Z" fill="#FAFAFA"/>
<path d="M73.2532 103.985H72.0352V105.071H73.2532V103.985Z" fill="#FAFAFA"/>
<path d="M73.2532 105.802H72.0352V106.888H73.2532V105.802Z" fill="#FAFAFA"/>
<path d="M73.2532 107.624H72.0352V108.71H73.2532V107.624Z" fill="#FAFAFA"/>
<path d="M73.2532 109.44H72.0352V110.526H73.2532V109.44Z" fill="#FAFAFA"/>
<path d="M75.1867 78.5007H73.9688V79.5868H75.1867V78.5007Z" fill="#FAFAFA"/>
<path d="M75.1867 80.3232H73.9688V81.4093H75.1867V80.3232Z" fill="#FAFAFA"/>
<path d="M75.1867 82.1396H73.9688V83.2257H75.1867V82.1396Z" fill="#FAFAFA"/>
<path d="M75.1867 83.9622H73.9688V85.0482H75.1867V83.9622Z" fill="#FAFAFA"/>
<path d="M75.1867 85.7847H73.9688V86.8707H75.1867V85.7847Z" fill="#FAFAFA"/>
<path d="M75.1867 87.6011H73.9688V88.6871H75.1867V87.6011Z" fill="#FAFAFA"/>
<path d="M75.1867 89.4236H73.9688V90.5096H75.1867V89.4236Z" fill="#FAFAFA"/>
<path d="M75.1867 91.2397H73.9688V92.3258H75.1867V91.2397Z" fill="#FAFAFA"/>
<path d="M75.1867 93.0623H73.9688V94.1483H75.1867V93.0623Z" fill="#FAFAFA"/>
<path d="M75.1867 94.885H73.9688V95.971H75.1867V94.885Z" fill="#FAFAFA"/>
<path d="M75.1867 96.7012H73.9688V97.7872H75.1867V96.7012Z" fill="#FAFAFA"/>
<path d="M75.1867 98.5237H73.9688V99.6097H75.1867V98.5237Z" fill="#FAFAFA"/>
<path d="M75.1867 100.34H73.9688V101.426H75.1867V100.34Z" fill="#FAFAFA"/>
<path d="M75.1867 102.163H73.9688V103.249H75.1867V102.163Z" fill="#FAFAFA"/>
<path d="M75.1867 103.985H73.9688V105.071H75.1867V103.985Z" fill="#FAFAFA"/>
<path d="M75.1867 105.802H73.9688V106.888H75.1867V105.802Z" fill="#FAFAFA"/>
<path d="M75.1867 107.624H73.9688V108.71H75.1867V107.624Z" fill="#FAFAFA"/>
<path d="M75.1867 109.44H73.9688V110.526H75.1867V109.44Z" fill="#FAFAFA"/>
<path d="M64.0852 91.783H62.8672V92.869H64.0852V91.783Z" fill="#FAFAFA"/>
<path d="M64.0852 93.6055H62.8672V94.6915H64.0852V93.6055Z" fill="#FAFAFA"/>
<path d="M64.0852 95.428H62.8672V96.514H64.0852V95.428Z" fill="#FAFAFA"/>
<path d="M64.0852 97.2441H62.8672V98.3302H64.0852V97.2441Z" fill="#FAFAFA"/>
<path d="M64.0852 99.0669H62.8672V100.153H64.0852V99.0669Z" fill="#FAFAFA"/>
<path d="M64.0852 100.883H62.8672V101.969H64.0852V100.883Z" fill="#FAFAFA"/>
<path d="M64.0852 102.706H62.8672V103.792H64.0852V102.706Z" fill="#FAFAFA"/>
<path d="M64.0852 104.528H62.8672V105.614H64.0852V104.528Z" fill="#FAFAFA"/>
<path d="M64.0852 106.344H62.8672V107.431H64.0852V106.344Z" fill="#FAFAFA"/>
<path d="M64.0852 108.167H62.8672V109.253H64.0852V108.167Z" fill="#FAFAFA"/>
<path d="M64.0852 109.983H62.8672V111.069H64.0852V109.983Z" fill="#FAFAFA"/>
<path d="M64.0852 111.806H62.8672V112.892H64.0852V111.806Z" fill="#FAFAFA"/>
<path d="M64.0852 113.628H62.8672V114.714H64.0852V113.628Z" fill="#FAFAFA"/>
<path d="M66.0227 91.783H64.8047V92.869H66.0227V91.783Z" fill="#FAFAFA"/>
<path d="M66.0227 93.6055H64.8047V94.6915H66.0227V93.6055Z" fill="#FAFAFA"/>
<path d="M66.0227 95.428H64.8047V96.514H66.0227V95.428Z" fill="#FAFAFA"/>
<path d="M66.0227 97.2441H64.8047V98.3302H66.0227V97.2441Z" fill="#FAFAFA"/>
<path d="M66.0227 99.0669H64.8047V100.153H66.0227V99.0669Z" fill="#FAFAFA"/>
<path d="M66.0227 100.883H64.8047V101.969H66.0227V100.883Z" fill="#FAFAFA"/>
<path d="M66.0227 102.706H64.8047V103.792H66.0227V102.706Z" fill="#FAFAFA"/>
<path d="M66.0227 104.528H64.8047V105.614H66.0227V104.528Z" fill="#FAFAFA"/>
<path d="M66.0227 106.344H64.8047V107.431H66.0227V106.344Z" fill="#FAFAFA"/>
<path d="M66.0227 108.167H64.8047V109.253H66.0227V108.167Z" fill="#FAFAFA"/>
<path d="M66.0227 109.983H64.8047V111.069H66.0227V109.983Z" fill="#FAFAFA"/>
<path d="M66.0227 111.806H64.8047V112.892H66.0227V111.806Z" fill="#FAFAFA"/>
<path d="M66.0227 113.628H64.8047V114.714H66.0227V113.628Z" fill="#FAFAFA"/>
<path d="M67.9524 91.783H66.7344V92.869H67.9524V91.783Z" fill="#FAFAFA"/>
<path d="M67.9524 93.6055H66.7344V94.6915H67.9524V93.6055Z" fill="#FAFAFA"/>
<path d="M67.9524 95.428H66.7344V96.514H67.9524V95.428Z" fill="#FAFAFA"/>
<path d="M67.9524 97.2441H66.7344V98.3302H67.9524V97.2441Z" fill="#FAFAFA"/>
<path d="M67.9524 99.0669H66.7344V100.153H67.9524V99.0669Z" fill="#FAFAFA"/>
<path d="M67.9524 100.883H66.7344V101.969H67.9524V100.883Z" fill="#FAFAFA"/>
<path d="M67.9524 102.706H66.7344V103.792H67.9524V102.706Z" fill="#FAFAFA"/>
<path d="M67.9524 104.528H66.7344V105.614H67.9524V104.528Z" fill="#FAFAFA"/>
<path d="M67.9524 106.344H66.7344V107.431H67.9524V106.344Z" fill="#FAFAFA"/>
<path d="M67.9524 108.167H66.7344V109.253H67.9524V108.167Z" fill="#FAFAFA"/>
<path d="M67.9524 109.983H66.7344V111.069H67.9524V109.983Z" fill="#FAFAFA"/>
<path d="M67.9524 111.806H66.7344V112.892H67.9524V111.806Z" fill="#FAFAFA"/>
<path d="M67.9524 113.628H66.7344V114.714H67.9524V113.628Z" fill="#FAFAFA"/>
<path d="M67.9524 115.445H66.7344V116.531H67.9524V115.445Z" fill="#FAFAFA"/>
<path d="M78.7024 92.3259H77.4844V93.412H78.7024V92.3259Z" fill="#FAFAFA"/>
<path d="M78.7024 94.1484H77.4844V95.2345H78.7024V94.1484Z" fill="#FAFAFA"/>
<path d="M78.7024 95.9709H77.4844V97.057H78.7024V95.9709Z" fill="#FAFAFA"/>
<path d="M78.7024 97.7874H77.4844V98.8734H78.7024V97.7874Z" fill="#FAFAFA"/>
<path d="M78.7024 99.6099H77.4844V100.696H78.7024V99.6099Z" fill="#FAFAFA"/>
<path d="M78.7024 101.426H77.4844V102.512H78.7024V101.426Z" fill="#FAFAFA"/>
<path d="M78.7024 103.249H77.4844V104.335H78.7024V103.249Z" fill="#FAFAFA"/>
<path d="M78.7024 105.071H77.4844V106.157H78.7024V105.071Z" fill="#FAFAFA"/>
<path d="M78.7024 106.887H77.4844V107.973H78.7024V106.887Z" fill="#FAFAFA"/>
<path d="M78.7024 108.71H77.4844V109.796H78.7024V108.71Z" fill="#FAFAFA"/>
<path d="M78.7024 114.171H77.4844V115.257H78.7024V114.171Z" fill="#FAFAFA"/>
<path d="M80.6321 92.3259H79.4141V93.412H80.6321V92.3259Z" fill="#FAFAFA"/>
<path d="M80.6321 94.1484H79.4141V95.2345H80.6321V94.1484Z" fill="#FAFAFA"/>
<path d="M80.6321 95.9709H79.4141V97.057H80.6321V95.9709Z" fill="#FAFAFA"/>
<path d="M80.6321 97.7874H79.4141V98.8734H80.6321V97.7874Z" fill="#FAFAFA"/>
<path d="M80.6321 99.6099H79.4141V100.696H80.6321V99.6099Z" fill="#FAFAFA"/>
<path d="M80.6321 101.426H79.4141V102.512H80.6321V101.426Z" fill="#FAFAFA"/>
<path d="M80.6321 103.249H79.4141V104.335H80.6321V103.249Z" fill="#FAFAFA"/>
<path d="M80.6321 105.071H79.4141V106.157H80.6321V105.071Z" fill="#FAFAFA"/>
<path d="M80.6321 106.887H79.4141V107.973H80.6321V106.887Z" fill="#FAFAFA"/>
<path d="M80.6321 112.349H79.4141V113.435H80.6321V112.349Z" fill="#FAFAFA"/>
<path d="M80.6321 114.171H79.4141V115.257H80.6321V114.171Z" fill="#FAFAFA"/>
<path d="M82.5657 92.3259H81.3477V93.412H82.5657V92.3259Z" fill="#FAFAFA"/>
<path d="M82.5657 94.1484H81.3477V95.2345H82.5657V94.1484Z" fill="#FAFAFA"/>
<path d="M82.5657 95.9709H81.3477V97.057H82.5657V95.9709Z" fill="#FAFAFA"/>
<path d="M82.5657 97.7874H81.3477V98.8734H82.5657V97.7874Z" fill="#FAFAFA"/>
<path d="M82.5657 99.6099H81.3477V100.696H82.5657V99.6099Z" fill="#FAFAFA"/>
<path d="M82.5657 101.426H81.3477V102.512H82.5657V101.426Z" fill="#FAFAFA"/>
<path d="M82.5657 103.249H81.3477V104.335H82.5657V103.249Z" fill="#FAFAFA"/>
<path d="M82.5657 105.071H81.3477V106.157H82.5657V105.071Z" fill="#FAFAFA"/>
<path d="M82.5657 110.526H81.3477V111.612H82.5657V110.526Z" fill="#FAFAFA"/>
<path d="M82.5657 112.349H81.3477V113.435H82.5657V112.349Z" fill="#FAFAFA"/>
<path d="M82.5657 114.171H81.3477V115.257H82.5657V114.171Z" fill="#FAFAFA"/>
<path d="M100.538 64.6755H99.3203V65.7616H100.538V64.6755Z" fill="#FAFAFA"/>
<path d="M100.538 66.498H99.3203V67.5841H100.538V66.498Z" fill="#FAFAFA"/>
<path d="M100.538 68.3145H99.3203V69.4005H100.538V68.3145Z" fill="#FAFAFA"/>
<path d="M100.538 70.137H99.3203V71.223H100.538V70.137Z" fill="#FAFAFA"/>
<path d="M100.538 71.9534H99.3203V73.0394H100.538V71.9534Z" fill="#FAFAFA"/>
<path d="M100.538 73.7759H99.3203V74.8619H100.538V73.7759Z" fill="#FAFAFA"/>
<path d="M100.538 75.5984H99.3203V76.6844H100.538V75.5984Z" fill="#FAFAFA"/>
<path d="M100.538 77.4148H99.3203V78.5008H100.538V77.4148Z" fill="#FAFAFA"/>
<path d="M100.538 79.2373H99.3203V80.3233H100.538V79.2373Z" fill="#FAFAFA"/>
<path d="M100.538 81.0535H99.3203V82.1395H100.538V81.0535Z" fill="#FAFAFA"/>
<path d="M100.538 82.876H99.3203V83.962H100.538V82.876Z" fill="#FAFAFA"/>
<path d="M100.538 84.6987H99.3203V85.7848H100.538V84.6987Z" fill="#FAFAFA"/>
<path d="M100.538 86.5149H99.3203V87.6009H100.538V86.5149Z" fill="#FAFAFA"/>
<path d="M100.538 88.3374H99.3203V89.4234H100.538V88.3374Z" fill="#FAFAFA"/>
<path d="M100.538 90.1538H99.3203V91.2398H100.538V90.1538Z" fill="#FAFAFA"/>
<path d="M100.538 91.9763H99.3203V93.0624H100.538V91.9763Z" fill="#FAFAFA"/>
<path d="M100.538 93.7988H99.3203V94.8849H100.538V93.7988Z" fill="#FAFAFA"/>
<path d="M100.538 97.4377H99.3203V98.5238H100.538V97.4377Z" fill="#FAFAFA"/>
<path d="M100.538 99.2542H99.3203V100.34H100.538V99.2542Z" fill="#FAFAFA"/>
<path d="M100.538 101.077H99.3203V102.163H100.538V101.077Z" fill="#FAFAFA"/>
<path d="M100.538 102.899H99.3203V103.985H100.538V102.899Z" fill="#FAFAFA"/>
<path d="M100.538 104.716H99.3203V105.802H100.538V104.716Z" fill="#FAFAFA"/>
<path d="M102.48 64.6755H101.262V65.7616H102.48V64.6755Z" fill="#FAFAFA"/>
<path d="M102.48 66.498H101.262V67.5841H102.48V66.498Z" fill="#FAFAFA"/>
<path d="M102.48 68.3145H101.262V69.4005H102.48V68.3145Z" fill="#FAFAFA"/>
<path d="M102.48 70.137H101.262V71.223H102.48V70.137Z" fill="#FAFAFA"/>
<path d="M102.48 71.9534H101.262V73.0394H102.48V71.9534Z" fill="#FAFAFA"/>
<path d="M102.48 73.7759H101.262V74.8619H102.48V73.7759Z" fill="#FAFAFA"/>
<path d="M102.48 75.5984H101.262V76.6844H102.48V75.5984Z" fill="#FAFAFA"/>
<path d="M102.48 77.4148H101.262V78.5008H102.48V77.4148Z" fill="#FAFAFA"/>
<path d="M102.48 79.2373H101.262V80.3233H102.48V79.2373Z" fill="#FAFAFA"/>
<path d="M102.48 81.0535H101.262V82.1395H102.48V81.0535Z" fill="#FAFAFA"/>
<path d="M102.48 82.876H101.262V83.962H102.48V82.876Z" fill="#FAFAFA"/>
<path d="M102.48 84.6987H101.262V85.7848H102.48V84.6987Z" fill="#FAFAFA"/>
<path d="M102.48 86.5149H101.262V87.6009H102.48V86.5149Z" fill="#FAFAFA"/>
<path d="M102.48 88.3374H101.262V89.4234H102.48V88.3374Z" fill="#FAFAFA"/>
<path d="M102.48 90.1538H101.262V91.2398H102.48V90.1538Z" fill="#FAFAFA"/>
<path d="M102.48 91.9763H101.262V93.0624H102.48V91.9763Z" fill="#FAFAFA"/>
<path d="M102.48 102.899H101.262V103.985H102.48V102.899Z" fill="#FAFAFA"/>
<path d="M102.48 104.716H101.262V105.802H102.48V104.716Z" fill="#FAFAFA"/>
<path d="M104.413 64.6755H103.195V65.7616H104.413V64.6755Z" fill="#FAFAFA"/>
<path d="M104.413 66.498H103.195V67.5841H104.413V66.498Z" fill="#FAFAFA"/>
<path d="M104.413 68.3145H103.195V69.4005H104.413V68.3145Z" fill="#FAFAFA"/>
<path d="M104.413 70.137H103.195V71.223H104.413V70.137Z" fill="#FAFAFA"/>
<path d="M104.413 71.9534H103.195V73.0394H104.413V71.9534Z" fill="#FAFAFA"/>
<path d="M104.413 73.7759H103.195V74.8619H104.413V73.7759Z" fill="#FAFAFA"/>
<path d="M104.413 75.5984H103.195V76.6844H104.413V75.5984Z" fill="#FAFAFA"/>
<path d="M104.413 77.4148H103.195V78.5008H104.413V77.4148Z" fill="#FAFAFA"/>
<path d="M104.413 79.2373H103.195V80.3233H104.413V79.2373Z" fill="#FAFAFA"/>
<path d="M104.413 81.0535H103.195V82.1395H104.413V81.0535Z" fill="#FAFAFA"/>
<path d="M104.413 82.876H103.195V83.962H104.413V82.876Z" fill="#FAFAFA"/>
<path d="M104.413 84.6987H103.195V85.7848H104.413V84.6987Z" fill="#FAFAFA"/>
<path d="M104.413 86.5149H103.195V87.6009H104.413V86.5149Z" fill="#FAFAFA"/>
<path d="M104.413 88.3374H103.195V89.4234H104.413V88.3374Z" fill="#FAFAFA"/>
<path d="M104.413 90.1538H103.195V91.2398H104.413V90.1538Z" fill="#FAFAFA"/>
<path d="M104.413 91.9763H103.195V93.0624H104.413V91.9763Z" fill="#FAFAFA"/>
<path d="M104.413 95.6152H103.195V96.7013H104.413V95.6152Z" fill="#FAFAFA"/>
<path d="M104.413 97.4377H103.195V98.5238H104.413V97.4377Z" fill="#FAFAFA"/>
<path d="M104.413 99.2542H103.195V100.34H104.413V99.2542Z" fill="#FAFAFA"/>
<path d="M104.413 101.077H103.195V102.163H104.413V101.077Z" fill="#FAFAFA"/>
<path d="M104.413 104.716H103.195V105.802H104.413V104.716Z" fill="#FAFAFA"/>
<path d="M93.5266 87.6011H92.3086V88.6871H93.5266V87.6011Z" fill="#FAFAFA"/>
<path d="M93.5266 89.4236H92.3086V90.5096H93.5266V89.4236Z" fill="#FAFAFA"/>
<path d="M93.5266 91.2397H92.3086V92.3258H93.5266V91.2397Z" fill="#FAFAFA"/>
<path d="M93.5266 93.0625H92.3086V94.1485H93.5266V93.0625Z" fill="#FAFAFA"/>
<path d="M93.5266 94.885H92.3086V95.971H93.5266V94.885Z" fill="#FAFAFA"/>
<path d="M93.5266 96.7012H92.3086V97.7872H93.5266V96.7012Z" fill="#FAFAFA"/>
<path d="M93.5266 98.5239H92.3086V99.61H93.5266V98.5239Z" fill="#FAFAFA"/>
<path d="M93.5266 102.163H92.3086V103.249H93.5266V102.163Z" fill="#FAFAFA"/>
<path d="M93.5266 103.985H92.3086V105.071H93.5266V103.985Z" fill="#FAFAFA"/>
<path d="M93.5266 105.802H92.3086V106.888H93.5266V105.802Z" fill="#FAFAFA"/>
<path d="M93.5266 107.624H92.3086V108.71H93.5266V107.624Z" fill="#FAFAFA"/>
<path d="M93.5266 109.44H92.3086V110.526H93.5266V109.44Z" fill="#FAFAFA"/>
<path d="M93.5266 111.263H92.3086V112.349H93.5266V111.263Z" fill="#FAFAFA"/>
<path d="M93.5266 113.085H92.3086V114.171H93.5266V113.085Z" fill="#FAFAFA"/>
<path d="M93.5266 114.902H92.3086V115.988H93.5266V114.902Z" fill="#FAFAFA"/>
<path d="M95.4602 87.6011H94.2422V88.6871H95.4602V87.6011Z" fill="#FAFAFA"/>
<path d="M95.4602 89.4236H94.2422V90.5096H95.4602V89.4236Z" fill="#FAFAFA"/>
<path d="M95.4602 91.2397H94.2422V92.3258H95.4602V91.2397Z" fill="#FAFAFA"/>
<path d="M95.4602 93.0625H94.2422V94.1485H95.4602V93.0625Z" fill="#FAFAFA"/>
<path d="M95.4602 94.885H94.2422V95.971H95.4602V94.885Z" fill="#FAFAFA"/>
<path d="M95.4602 96.7012H94.2422V97.7872H95.4602V96.7012Z" fill="#FAFAFA"/>
<path d="M95.4602 102.163H94.2422V103.249H95.4602V102.163Z" fill="#FAFAFA"/>
<path d="M95.4602 103.985H94.2422V105.071H95.4602V103.985Z" fill="#FAFAFA"/>
<path d="M95.4602 105.802H94.2422V106.888H95.4602V105.802Z" fill="#FAFAFA"/>
<path d="M95.4602 107.624H94.2422V108.71H95.4602V107.624Z" fill="#FAFAFA"/>
<path d="M95.4602 109.44H94.2422V110.526H95.4602V109.44Z" fill="#FAFAFA"/>
<path d="M95.4602 111.263H94.2422V112.349H95.4602V111.263Z" fill="#FAFAFA"/>
<path d="M95.4602 113.085H94.2422V114.171H95.4602V113.085Z" fill="#FAFAFA"/>
<path d="M95.4602 114.902H94.2422V115.988H95.4602V114.902Z" fill="#FAFAFA"/>
<path d="M97.3899 87.6011H96.1719V88.6871H97.3899V87.6011Z" fill="#FAFAFA"/>
<path d="M97.3899 89.4236H96.1719V90.5096H97.3899V89.4236Z" fill="#FAFAFA"/>
<path d="M97.3899 91.2397H96.1719V92.3258H97.3899V91.2397Z" fill="#FAFAFA"/>
<path d="M97.3899 93.0623H96.1719V94.1483H97.3899V93.0623Z" fill="#FAFAFA"/>
<path d="M97.3899 94.885H96.1719V95.971H97.3899V94.885Z" fill="#FAFAFA"/>
<path d="M97.3899 96.7012H96.1719V97.7872H97.3899V96.7012Z" fill="#FAFAFA"/>
<path d="M97.3899 100.34H96.1719V101.426H97.3899V100.34Z" fill="#FAFAFA"/>
<path d="M97.3899 102.163H96.1719V103.249H97.3899V102.163Z" fill="#FAFAFA"/>
<path d="M97.3899 103.985H96.1719V105.071H97.3899V103.985Z" fill="#FAFAFA"/>
<path d="M97.3899 105.802H96.1719V106.888H97.3899V105.802Z" fill="#FAFAFA"/>
<path d="M97.3899 107.624H96.1719V108.71H97.3899V107.624Z" fill="#FAFAFA"/>
<path d="M97.3899 109.44H96.1719V110.526H97.3899V109.44Z" fill="#FAFAFA"/>
<path d="M97.3899 111.263H96.1719V112.349H97.3899V111.263Z" fill="#FAFAFA"/>
<path d="M97.3899 113.085H96.1719V114.171H97.3899V113.085Z" fill="#FAFAFA"/>
<path d="M97.3899 114.902H96.1719V115.988H97.3899V114.902Z" fill="#FAFAFA"/>
<path d="M138.144 77.4148H136.926V78.5008H138.144V77.4148Z" fill="#FAFAFA"/>
<path d="M138.144 79.2373H136.926V80.3233H138.144V79.2373Z" fill="#FAFAFA"/>
<path d="M138.144 81.0535H136.926V82.1395H138.144V81.0535Z" fill="#FAFAFA"/>
<path d="M138.144 82.876H136.926V83.962H138.144V82.876Z" fill="#FAFAFA"/>
<path d="M138.144 84.6987H136.926V85.7848H138.144V84.6987Z" fill="#FAFAFA"/>
<path d="M138.144 86.5149H136.926V87.6009H138.144V86.5149Z" fill="#FAFAFA"/>
<path d="M138.144 88.3374H136.926V89.4234H138.144V88.3374Z" fill="#FAFAFA"/>
<path d="M138.144 90.1538H136.926V91.2398H138.144V90.1538Z" fill="#FAFAFA"/>
<path d="M138.144 91.9763H136.926V93.0624H138.144V91.9763Z" fill="#FAFAFA"/>
<path d="M138.144 93.7988H136.926V94.8849H138.144V93.7988Z" fill="#FAFAFA"/>
<path d="M138.144 95.6152H136.926V96.7013H138.144V95.6152Z" fill="#FAFAFA"/>
<path d="M138.144 97.4377H136.926V98.5238H138.144V97.4377Z" fill="#FAFAFA"/>
<path d="M138.144 99.2542H136.926V100.34H138.144V99.2542Z" fill="#FAFAFA"/>
<path d="M138.144 102.899H136.926V103.985H138.144V102.899Z" fill="#FAFAFA"/>
<path d="M138.144 104.716H136.926V105.802H138.144V104.716Z" fill="#FAFAFA"/>
<path d="M138.144 106.538H136.926V107.624H138.144V106.538Z" fill="#FAFAFA"/>
<path d="M138.144 108.354H136.926V109.44H138.144V108.354Z" fill="#FAFAFA"/>
<path d="M138.144 112H136.926V113.086H138.144V112Z" fill="#FAFAFA"/>
<path d="M138.144 113.816H136.926V114.902H138.144V113.816Z" fill="#FAFAFA"/>
<path d="M138.144 115.638H136.926V116.724H138.144V115.638Z" fill="#FAFAFA"/>
<path d="M140.077 77.4146H138.859V78.5006H140.077V77.4146Z" fill="#FAFAFA"/>
<path d="M140.077 79.2373H138.859V80.3233H140.077V79.2373Z" fill="#FAFAFA"/>
<path d="M140.077 81.0535H138.859V82.1395H140.077V81.0535Z" fill="#FAFAFA"/>
<path d="M140.077 82.876H138.859V83.962H140.077V82.876Z" fill="#FAFAFA"/>
<path d="M140.077 84.6987H138.859V85.7848H140.077V84.6987Z" fill="#FAFAFA"/>
<path d="M140.077 86.5149H138.859V87.6009H140.077V86.5149Z" fill="#FAFAFA"/>
<path d="M140.077 88.3374H138.859V89.4234H140.077V88.3374Z" fill="#FAFAFA"/>
<path d="M140.077 90.1538H138.859V91.2398H140.077V90.1538Z" fill="#FAFAFA"/>
<path d="M140.077 91.9763H138.859V93.0624H140.077V91.9763Z" fill="#FAFAFA"/>
<path d="M140.077 93.7988H138.859V94.8849H140.077V93.7988Z" fill="#FAFAFA"/>
<path d="M140.077 95.6152H138.859V96.7013H140.077V95.6152Z" fill="#FAFAFA"/>
<path d="M140.077 97.4377H138.859V98.5238H140.077V97.4377Z" fill="#FAFAFA"/>
<path d="M140.077 99.2542H138.859V100.34H140.077V99.2542Z" fill="#FAFAFA"/>
<path d="M140.077 104.716H138.859V105.802H140.077V104.716Z" fill="#FAFAFA"/>
<path d="M140.077 106.538H138.859V107.624H140.077V106.538Z" fill="#FAFAFA"/>
<path d="M140.077 110.177H138.859V111.263H140.077V110.177Z" fill="#FAFAFA"/>
<path d="M140.077 112H138.859V113.086H140.077V112Z" fill="#FAFAFA"/>
<path d="M140.077 113.816H138.859V114.902H140.077V113.816Z" fill="#FAFAFA"/>
<path d="M140.077 115.638H138.859V116.724H140.077V115.638Z" fill="#FAFAFA"/>
<path d="M142.015 77.4148H140.797V78.5008H142.015V77.4148Z" fill="#FAFAFA"/>
<path d="M142.015 79.2373H140.797V80.3233H142.015V79.2373Z" fill="#FAFAFA"/>
<path d="M142.015 81.0535H140.797V82.1395H142.015V81.0535Z" fill="#FAFAFA"/>
<path d="M142.015 82.876H140.797V83.962H142.015V82.876Z" fill="#FAFAFA"/>
<path d="M142.015 84.6987H140.797V85.7848H142.015V84.6987Z" fill="#FAFAFA"/>
<path d="M142.015 86.5149H140.797V87.6009H142.015V86.5149Z" fill="#FAFAFA"/>
<path d="M142.015 88.3374H140.797V89.4234H142.015V88.3374Z" fill="#FAFAFA"/>
<path d="M142.015 90.1538H140.797V91.2398H142.015V90.1538Z" fill="#FAFAFA"/>
<path d="M142.015 91.9763H140.797V93.0624H142.015V91.9763Z" fill="#FAFAFA"/>
<path d="M142.015 93.7988H140.797V94.8849H142.015V93.7988Z" fill="#FAFAFA"/>
<path d="M142.015 95.6152H140.797V96.7013H142.015V95.6152Z" fill="#FAFAFA"/>
<path d="M142.015 97.4377H140.797V98.5238H142.015V97.4377Z" fill="#FAFAFA"/>
<path d="M142.015 99.2542H140.797V100.34H142.015V99.2542Z" fill="#FAFAFA"/>
<path d="M142.015 101.077H140.797V102.163H142.015V101.077Z" fill="#FAFAFA"/>
<path d="M142.015 104.716H140.797V105.802H142.015V104.716Z" fill="#FAFAFA"/>
<path d="M142.015 108.354H140.797V109.44H142.015V108.354Z" fill="#FAFAFA"/>
<path d="M142.015 110.177H140.797V111.263H142.015V110.177Z" fill="#FAFAFA"/>
<path d="M142.015 112H140.797V113.086H142.015V112Z" fill="#FAFAFA"/>
<path d="M142.015 113.816H140.797V114.902H142.015V113.816Z" fill="#FAFAFA"/>
<path d="M142.015 115.638H140.797V116.724H142.015V115.638Z" fill="#FAFAFA"/>
<path d="M130.269 87.7944H129.051V88.8805H130.269V87.7944Z" fill="#FAFAFA"/>
<path d="M130.269 89.6108H129.051V90.6969H130.269V89.6108Z" fill="#FAFAFA"/>
<path d="M130.269 91.4333H129.051V92.5194H130.269V91.4333Z" fill="#FAFAFA"/>
<path d="M130.269 93.2559H129.051V94.3419H130.269V93.2559Z" fill="#FAFAFA"/>
<path d="M130.269 95.0723H129.051V96.1583H130.269V95.0723Z" fill="#FAFAFA"/>
<path d="M130.269 96.8948H129.051V97.9808H130.269V96.8948Z" fill="#FAFAFA"/>
<path d="M130.269 102.356H129.051V103.442H130.269V102.356Z" fill="#FAFAFA"/>
<path d="M130.269 104.172H129.051V105.258H130.269V104.172Z" fill="#FAFAFA"/>
<path d="M130.269 105.995H129.051V107.081H130.269V105.995Z" fill="#FAFAFA"/>
<path d="M130.269 107.818H129.051V108.904H130.269V107.818Z" fill="#FAFAFA"/>
<path d="M130.269 109.634H129.051V110.72H130.269V109.634Z" fill="#FAFAFA"/>
<path d="M130.269 111.457H129.051V112.543H130.269V111.457Z" fill="#FAFAFA"/>
<path d="M130.269 113.273H129.051V114.359H130.269V113.273Z" fill="#FAFAFA"/>
<path d="M132.202 87.7944H130.984V88.8805H132.202V87.7944Z" fill="#FAFAFA"/>
<path d="M132.202 89.6108H130.984V90.6969H132.202V89.6108Z" fill="#FAFAFA"/>
<path d="M132.202 91.4333H130.984V92.5194H132.202V91.4333Z" fill="#FAFAFA"/>
<path d="M132.202 93.2559H130.984V94.3419H132.202V93.2559Z" fill="#FAFAFA"/>
<path d="M132.202 95.0723H130.984V96.1583H132.202V95.0723Z" fill="#FAFAFA"/>
<path d="M132.202 96.8948H130.984V97.9808H132.202V96.8948Z" fill="#FAFAFA"/>
<path d="M132.202 102.356H130.984V103.442H132.202V102.356Z" fill="#FAFAFA"/>
<path d="M132.202 104.172H130.984V105.258H132.202V104.172Z" fill="#FAFAFA"/>
<path d="M132.202 105.995H130.984V107.081H132.202V105.995Z" fill="#FAFAFA"/>
<path d="M132.202 107.818H130.984V108.904H132.202V107.818Z" fill="#FAFAFA"/>
<path d="M132.202 109.634H130.984V110.72H132.202V109.634Z" fill="#FAFAFA"/>
<path d="M132.202 111.457H130.984V112.543H132.202V111.457Z" fill="#FAFAFA"/>
<path d="M132.202 115.095H130.984V116.181H132.202V115.095Z" fill="#FAFAFA"/>
<path d="M178.54 28.2808H176.125V146.553H178.54V28.2808Z" fill="#EBEBEB"/>
<path d="M139.728 28.2808H137.684V146.553H139.728V28.2808Z" fill="#EBEBEB"/>
<path d="M101.282 28.2808H99.2383V146.553H101.282V28.2808Z" fill="#EBEBEB"/>
<path d="M301.449 190.294C301.449 190.294 304.571 184.221 301.001 178.229C297.431 172.237 296.402 170.833 298.677 169.603C300.952 168.374 301.995 174.397 301.995 174.397C303.122 171.677 303.24 168.705 302.331 165.921C300.742 161.589 299.755 154.53 301.918 153.775C304.081 153.019 302.324 162.575 304.2 165.84C305.159 163.552 305.777 161.162 306.041 158.73C306.3 155.248 305.894 149.693 307.602 148.263C309.31 146.834 310.402 147.826 308.722 155.504C307.712 160.093 307.155 164.752 307.056 169.429C307.056 169.429 310.766 159.355 313.251 159.061C315.736 158.768 315.736 162.032 313.608 164.86C311.48 167.687 307.371 172.762 306.699 175.371C306.699 175.371 310.766 167.787 314.399 170.109C318.032 172.431 311.214 177.012 308.162 178.666C305.11 180.32 302.996 190.7 302.996 190.7L301.449 190.294Z" fill="#E0E0E0"/>
<path d="M303.91 192.791C303.91 192.791 300.872 186.674 304.519 180.732C308.166 174.79 309.223 173.392 306.962 172.131C304.701 170.87 303.581 176.881 303.581 176.881C302.49 174.15 302.412 171.179 303.357 168.405C305.002 164.092 306.087 157.045 303.938 156.259C301.789 155.472 303.406 165.059 301.488 168.292C300.563 165.992 299.977 163.594 299.745 161.158C299.535 157.676 300.018 152.127 298.345 150.679C296.672 149.231 295.545 150.204 297.127 157.906C298.074 162.507 298.568 167.173 298.604 171.85C298.604 171.85 295.034 161.726 292.549 161.395C290.064 161.065 290.029 164.335 292.122 167.194C294.215 170.053 298.247 175.177 298.884 177.805C298.884 177.805 294.922 170.171 291.226 172.443C287.53 174.715 294.32 179.39 297.351 181.088C300.382 182.786 302.356 193.184 302.356 193.184L303.91 192.791Z" fill="#EBEBEB"/>
<path d="M289.883 188.428H315.006L312.976 204.456H291.92L289.883 188.428Z" fill="#EBEBEB"/>
<path d="M245.778 32.9619C251.256 32.9619 255.697 29.0022 255.697 24.1176C255.697 19.2329 251.256 15.2732 245.778 15.2732C240.3 15.2732 235.859 19.2329 235.859 24.1176C235.859 29.0022 240.3 32.9619 245.778 32.9619Z" fill="#E0E0E0"/>
<path d="M245.779 31.6387C250.437 31.6387 254.214 28.2714 254.214 24.1176C254.214 19.9638 250.437 16.5964 245.779 16.5964C241.12 16.5964 237.344 19.9638 237.344 24.1176C237.344 28.2714 241.12 31.6387 245.779 31.6387Z" fill="#F0F0F0"/>
<path d="M245.379 18.9619V24.2174L241.473 22.245" fill="#F0F0F0"/>
<path d="M245.379 24.8417C245.259 24.84 245.141 24.8121 245.036 24.7605L241.13 22.7882C240.968 22.7054 240.85 22.5688 240.802 22.4084C240.753 22.2481 240.778 22.0771 240.871 21.9331C240.964 21.789 241.117 21.6838 241.297 21.6405C241.476 21.5972 241.668 21.6193 241.83 21.7021L244.693 23.1439V18.9621C244.693 18.7965 244.766 18.6378 244.898 18.5207C245.029 18.4036 245.207 18.3379 245.393 18.3379C245.578 18.3379 245.756 18.4036 245.888 18.5207C246.019 18.6378 246.093 18.7965 246.093 18.9621V24.2175C246.093 24.383 246.019 24.5418 245.888 24.6588C245.756 24.7759 245.578 24.8417 245.393 24.8417H245.379Z" fill="#E0E0E0"/>
<path d="M295.282 44.6338H251.434V96.2394H295.282V44.6338Z" fill="#F5F5F5"/>
<path d="M266.348 50.1265V72.8147L276.484 72.3092L277.646 50.1265H266.348Z" fill="#EBEBEB"/>
<path d="M274.555 54.5142H290.151L290.018 74.375L281.94 74.4873L274.555 54.5142Z" fill="#E0E0E0"/>
<path d="M259.37 51.5933H263.472L262.037 69.3069L256.906 70.4429L259.37 51.5933Z" fill="#E6E6E6"/>
<path d="M201.3 110.027H245.008V62.6033L201.3 62.6033V110.027Z" fill="#E6E6E6"/>
<path d="M211.301 98.2865L234.268 78.1573L209.418 74.4998L211.301 98.2865Z" fill="#E0E0E0"/>
<path d="M233.713 93.5117L234.847 78.0762L217.557 81.8648L216.297 93.674L233.713 93.5117Z" fill="#F0F0F0"/>
<path d="M216.027 76.1881C218.753 73.7579 218.753 69.8178 216.027 67.3876C213.302 64.9574 208.883 64.9574 206.158 67.3876C203.432 69.8178 203.432 73.7579 206.158 76.1881C208.883 78.6183 213.302 78.6183 216.027 76.1881Z" fill="#FAFAFA"/>
<path d="M231.453 99.0168C231.453 98.4193 231.652 97.8352 232.024 97.3384C232.396 96.8416 232.926 96.4545 233.545 96.2258C234.164 95.9972 234.845 95.9373 235.502 96.0539C236.159 96.1705 236.763 96.4582 237.237 96.8807C237.711 97.3031 238.033 97.8414 238.164 98.4274C238.295 99.0134 238.228 99.6208 237.971 100.173C237.715 100.725 237.281 101.197 236.723 101.529C236.166 101.861 235.511 102.038 234.841 102.038C233.943 102.038 233.081 101.719 232.445 101.153C231.81 100.586 231.453 99.818 231.453 99.0168Z" fill="#E0E0E0"/>
<path d="M234.037 104.322L224.258 99.0168L232.476 92.9812L234.037 104.322Z" fill="#F5F5F5"/>
<path d="M222.495 68.6389H220.57V106.507H222.495V68.6389Z" fill="#E0E0E0"/>
<path d="M240.903 68.6389H238.418V104.834H240.903V68.6389Z" fill="#EBEBEB"/>
<path d="M218.392 93.6741H205.688V105.003H218.392V93.6741Z" fill="#EBEBEB"/>
<path d="M175.496 233.786C250.454 233.786 311.219 230.622 311.219 226.72C311.219 222.818 250.454 219.655 175.496 219.655C100.539 219.655 39.7734 222.818 39.7734 226.72C39.7734 230.622 100.539 233.786 175.496 233.786Z" fill="#F5F5F5"/>
</g>
<defs>
<clipPath id="clip0_2982_35372">
<rect width="350" height="279" fill="white" transform="translate(0.496094)"/>
</clipPath>
</defs>
</svg>
