<svg width="24" height="24" viewBox="0 0 24 24" fill="none" xmlns="http://www.w3.org/2000/svg">
<path d="M5 23C4.45 23 3.979 22.795 3.587 22.385C3.19567 21.9744 3 21.481 3 20.9048V8.33333C3 7.75714 3.19567 7.26406 3.587 6.8541C3.979 6.44343 4.45 6.2381 5 6.2381H7C7 4.78889 7.48767 3.5534 8.463 2.53162C9.43767 1.51054 10.6167 1 12 1C13.3833 1 14.5627 1.51054 15.538 2.53162C16.5127 3.5534 17 4.78889 17 6.2381H19C19.55 6.2381 20.021 6.44343 20.413 6.8541C20.8043 7.26406 21 7.75714 21 8.33333V20.9048C21 21.481 20.8043 21.9744 20.413 22.385C20.021 22.795 19.55 23 19 23H5ZM5 20.9048H19V8.33333H5V20.9048ZM12 14.619C13.3833 14.619 14.5627 14.1082 15.538 13.0864C16.5127 12.0653 17 10.8302 17 9.38095H15C15 10.254 14.7083 10.996 14.125 11.6071C13.5417 12.2183 12.8333 12.5238 12 12.5238C11.1667 12.5238 10.4583 12.2183 9.875 11.6071C9.29167 10.996 9 10.254 9 9.38095H7C7 10.8302 7.48767 12.0653 8.463 13.0864C9.43767 14.1082 10.6167 14.619 12 14.619ZM9 6.2381H15C15 5.36508 14.7083 4.62302 14.125 4.0119C13.5417 3.40079 12.8333 3.09524 12 3.09524C11.1667 3.09524 10.4583 3.40079 9.875 4.0119C9.29167 4.62302 9 5.36508 9 6.2381Z" fill="white"/>
<circle cx="18.5" cy="5.5" r="4.5" fill="#59A70B" stroke="#726158" stroke-width="2"/>
</svg>
