<svg width="34" height="34" viewBox="0 0 34 34" fill="none" xmlns="http://www.w3.org/2000/svg">
<path d="M14.6693 24.6668L26.4193 12.9168L24.0859 10.5835L14.6693 20.0002L9.91927 15.2502L7.58594 17.5835L14.6693 24.6668ZM17.0026 33.6668C14.697 33.6668 12.5304 33.2291 10.5026 32.3535C8.47483 31.4791 6.71094 30.2918 5.21094 28.7918C3.71094 27.2918 2.52372 25.5279 1.64927 23.5002C0.773715 21.4724 0.335938 19.3057 0.335938 17.0002C0.335938 14.6946 0.773715 12.5279 1.64927 10.5002C2.52372 8.47239 3.71094 6.7085 5.21094 5.2085C6.71094 3.7085 8.47483 2.52072 10.5026 1.64516C12.5304 0.770718 14.697 0.333496 17.0026 0.333496C19.3082 0.333496 21.4748 0.770718 23.5026 1.64516C25.5304 2.52072 27.2943 3.7085 28.7943 5.2085C30.2943 6.7085 31.4815 8.47239 32.3559 10.5002C33.2315 12.5279 33.6693 14.6946 33.6693 17.0002C33.6693 19.3057 33.2315 21.4724 32.3559 23.5002C31.4815 25.5279 30.2943 27.2918 28.7943 28.7918C27.2943 30.2918 25.5304 31.4791 23.5026 32.3535C21.4748 33.2291 19.3082 33.6668 17.0026 33.6668ZM17.0026 30.3335C20.7248 30.3335 23.8776 29.0418 26.4609 26.4585C29.0443 23.8752 30.3359 20.7224 30.3359 17.0002C30.3359 13.2779 29.0443 10.1252 26.4609 7.54183C23.8776 4.9585 20.7248 3.66683 17.0026 3.66683C13.2804 3.66683 10.1276 4.9585 7.54427 7.54183C4.96094 10.1252 3.66927 13.2779 3.66927 17.0002C3.66927 20.7224 4.96094 23.8752 7.54427 26.4585C10.1276 29.0418 13.2804 30.3335 17.0026 30.3335Z" fill="#59A70B"/>
</svg>
