<svg width="32" height="32" viewBox="0 0 32 32" fill="none" xmlns="http://www.w3.org/2000/svg">
<path d="M14.3041 1.0248C15.0258 -0.341599 16.9742 -0.341599 17.6959 1.0248C18.2561 2.08535 19.634 2.37964 20.5751 1.63973C21.7875 0.686453 23.5675 1.48276 23.6737 3.026C23.7562 4.22382 24.8958 5.05581 26.055 4.76449C27.5485 4.38915 28.8523 5.84407 28.3247 7.29733C27.9152 8.4253 28.6195 9.65112 29.7964 9.85876C31.3127 10.1263 31.9148 11.9882 30.8446 13.1002C30.0139 13.9633 30.1611 15.371 31.1522 16.0417C32.4292 16.9058 32.2255 18.8529 30.7977 19.4313C29.6895 19.8803 29.2542 21.2265 29.8881 22.2442C30.7049 23.5555 29.7307 25.251 28.1922 25.1959C26.998 25.1531 26.0554 26.205 26.2226 27.3939C26.438 28.9256 24.8617 30.0763 23.4785 29.3972C22.4049 28.8701 21.118 29.4458 20.7895 30.6002C20.3662 32.0875 18.4604 32.4946 17.4717 31.3088C16.7043 30.3885 15.2957 30.3885 14.5283 31.3088C13.5396 32.4946 11.6338 32.0875 11.2105 30.6002C10.882 29.4458 9.5951 28.8701 8.52151 29.3972C7.13831 30.0763 5.56204 28.9256 5.77741 27.3939C5.94458 26.205 5.002 25.1531 3.80785 25.1959C2.26933 25.251 1.29514 23.5555 2.1119 22.2442C2.74585 21.2265 2.31055 19.8803 1.20232 19.4313C-0.225499 18.8529 -0.42916 16.9058 0.847774 16.0417C1.83888 15.371 1.98613 13.9633 1.15545 13.1002C0.085213 11.9882 0.687293 10.1263 2.2036 9.85876C3.38051 9.65112 4.08484 8.4253 3.67533 7.29733C3.14774 5.84407 4.45145 4.38915 5.94495 4.76449C7.10416 5.05581 8.24378 4.22382 8.32626 3.026C8.43253 1.48276 10.2125 0.686453 11.4249 1.63973C12.366 2.37964 13.7439 2.08535 14.3041 1.0248Z" fill="#867368"/>
<path d="M12.3034 10.2016C13.1334 10.2016 13.7584 10.5053 14.1786 11.1128C14.609 11.71 14.8241 12.5544 14.8241 13.6458C14.8241 14.7373 14.6192 15.5919 14.2093 16.2097C13.8097 16.8172 13.1744 17.1209 12.3034 17.1209C11.7808 17.1209 11.335 16.9819 10.9661 16.7039C10.5972 16.4259 10.3205 16.0295 10.1361 15.5146C9.95164 14.9895 9.85942 14.3666 9.85942 13.6458C9.85942 12.5544 10.0541 11.71 10.4435 11.1128C10.8329 10.5053 11.4528 10.2016 12.3034 10.2016ZM12.3187 11.5453C12.0216 11.5453 11.8012 11.7203 11.6578 12.0704C11.5246 12.4205 11.458 12.9456 11.458 13.6458C11.458 14.3563 11.5246 14.8917 11.6578 15.2521C11.8012 15.6022 12.0216 15.7772 12.3187 15.7772C12.6261 15.7772 12.8516 15.6022 12.995 15.2521C13.1385 14.8917 13.2102 14.3614 13.2102 13.6613C13.2102 12.9508 13.1385 12.4205 12.995 12.0704C12.8516 11.7203 12.6261 11.5453 12.3187 11.5453ZM19.8196 10.356L13.7328 21.3837H12.165L18.2518 10.356H19.8196ZM19.6352 14.6034C20.1783 14.6034 20.6343 14.7424 21.0032 15.0204C21.3721 15.2881 21.6538 15.6794 21.8485 16.1942C22.0432 16.6988 22.1406 17.3166 22.1406 18.0476C22.1406 19.1391 21.9356 19.9937 21.5258 20.6115C21.1261 21.219 20.4908 21.5227 19.6198 21.5227C19.0972 21.5227 18.6514 21.3837 18.2825 21.1057C17.9137 20.8277 17.637 20.4313 17.4525 19.9165C17.2681 19.3913 17.1759 18.7684 17.1759 18.0476C17.1759 16.9562 17.3706 16.1119 17.7599 15.5146C18.1596 14.9071 18.7847 14.6034 19.6352 14.6034ZM19.6352 15.9626C19.338 15.9626 19.1177 16.1376 18.9742 16.4877C18.841 16.8275 18.7744 17.3526 18.7744 18.0631C18.7744 18.7735 18.841 19.309 18.9742 19.6693C19.1177 20.0194 19.338 20.1945 19.6352 20.1945C19.9426 20.1945 20.168 20.0194 20.3115 19.6693C20.4652 19.3192 20.542 18.7838 20.542 18.0631C20.542 17.3526 20.4652 16.8275 20.3115 16.4877C20.168 16.1376 19.9426 15.9626 19.6352 15.9626Z" fill="white"/>
</svg>
