<svg width="32" height="32" viewBox="0 0 32 32" fill="none" xmlns="http://www.w3.org/2000/svg">
<path d="M14.3041 1.0248C15.0258 -0.341599 16.9742 -0.341599 17.6959 1.0248C18.2562 2.08535 19.634 2.37964 20.5751 1.63973C21.7875 0.686453 23.5675 1.48276 23.6737 3.026C23.7562 4.22382 24.8958 5.05581 26.055 4.76449C27.5485 4.38915 28.8523 5.84407 28.3247 7.29733C27.9152 8.4253 28.6195 9.65112 29.7964 9.85876C31.3127 10.1263 31.9148 11.9882 30.8445 13.1002C30.0139 13.9633 30.1611 15.371 31.1522 16.0417C32.4292 16.9058 32.2255 18.8529 30.7977 19.4313C29.6895 19.8803 29.2542 21.2265 29.8881 22.2442C30.7049 23.5555 29.7307 25.251 28.1922 25.1959C26.998 25.1531 26.0554 26.205 26.2226 27.3939C26.438 28.9256 24.8617 30.0763 23.4785 29.3972C22.4049 28.8701 21.118 29.4458 20.7895 30.6002C20.3662 32.0875 18.4604 32.4946 17.4717 31.3088C16.7043 30.3885 15.2957 30.3885 14.5283 31.3088C13.5396 32.4946 11.6338 32.0875 11.2105 30.6002C10.882 29.4458 9.5951 28.8701 8.52151 29.3972C7.13831 30.0763 5.56204 28.9256 5.77741 27.3939C5.94458 26.205 5.002 25.1531 3.80785 25.1959C2.26933 25.251 1.29514 23.5555 2.1119 22.2442C2.74585 21.2265 2.31055 19.8803 1.20232 19.4313C-0.225499 18.8529 -0.42916 16.9058 0.847774 16.0417C1.83888 15.371 1.98613 13.9633 1.15545 13.1002C0.085213 11.9882 0.687293 10.1263 2.2036 9.85876C3.38051 9.65112 4.08484 8.4253 3.67533 7.29733C3.14774 5.84407 4.45145 4.38915 5.94495 4.76449C7.10416 5.05581 8.24378 4.22382 8.32626 3.02601C8.43253 1.48276 10.2125 0.686452 11.4249 1.63973C12.366 2.37964 13.7439 2.08535 14.3041 1.0248Z" fill="#867368"/>
<path d="M12.4845 19.5758H10.8685L7.43328 13.8568H7.39263C7.3994 14.0066 7.40618 14.1666 7.41295 14.3368C7.42651 14.5002 7.43667 14.6704 7.44344 14.8474C7.45022 15.0176 7.457 15.1912 7.46377 15.3683C7.47055 15.5453 7.47732 15.7223 7.4841 15.8993V19.5758H6.3153V12.2841H7.92112L11.3462 17.9622H11.3767C11.3699 17.8261 11.3631 17.6797 11.3564 17.5231C11.3496 17.3597 11.3428 17.1929 11.336 17.0227C11.336 16.8525 11.3326 16.6789 11.3259 16.5018C11.3191 16.3248 11.3123 16.1546 11.3055 15.9912V12.2841H12.4845V19.5758Z" fill="white"/>
<path d="M16.4682 13.9385C16.9629 13.9385 17.3863 14.0406 17.7387 14.2449C18.0978 14.4423 18.3756 14.7283 18.5721 15.1027C18.7686 15.4704 18.8668 15.9197 18.8668 16.4508V17.1044H15.2283C15.2419 17.6082 15.3808 17.9997 15.645 18.2788C15.9093 18.5512 16.2751 18.6873 16.7427 18.6873C17.1018 18.6873 17.4202 18.6533 17.698 18.5852C17.9826 18.5103 18.274 18.4048 18.5721 18.2686V19.3001C18.3011 19.4294 18.0199 19.5247 17.7285 19.586C17.4372 19.6473 17.0882 19.6779 16.6817 19.6779C16.1464 19.6779 15.6687 19.5758 15.2486 19.3716C14.8353 19.1605 14.5101 18.8439 14.2729 18.4218C14.0426 17.9997 13.9274 17.4754 13.9274 16.8491C13.9274 16.2159 14.0324 15.6848 14.2425 15.2559C14.4593 14.8202 14.7574 14.4934 15.1368 14.2755C15.5163 14.0508 15.9601 13.9385 16.4682 13.9385ZM16.4682 14.8883C16.1295 14.8883 15.8517 15.0006 15.6348 15.2253C15.4248 15.4431 15.2995 15.7699 15.2588 16.2057H17.6269C17.6269 15.947 17.5828 15.7189 17.4948 15.5214C17.4134 15.324 17.2881 15.1708 17.1187 15.0619C16.9493 14.9461 16.7325 14.8883 16.4682 14.8883Z" fill="white"/>
<path d="M23.8624 17.1963C23.8285 17.0669 23.7878 16.9069 23.7404 16.7163C23.693 16.5189 23.6422 16.3146 23.588 16.1036C23.5405 15.8925 23.4931 15.6985 23.4457 15.5214C23.405 15.3444 23.3779 15.2083 23.3644 15.1129H23.3237C23.3034 15.2083 23.2729 15.3444 23.2322 15.5214C23.1916 15.6985 23.1475 15.8925 23.1001 16.1036C23.0527 16.3146 23.0019 16.5189 22.9477 16.7163C22.9002 16.9137 22.8596 17.0771 22.8257 17.2065L22.1854 19.5758H20.7829L19.238 14.0304H20.5288L21.2097 16.6755C21.2572 16.8525 21.3012 17.0533 21.3418 17.278C21.3893 17.5027 21.4299 17.7205 21.4638 17.9316C21.4977 18.1358 21.5214 18.3026 21.535 18.432H21.5756C21.5892 18.3435 21.6061 18.2278 21.6264 18.0848C21.6467 17.935 21.6705 17.7818 21.6976 17.6252C21.7314 17.4618 21.7619 17.312 21.789 17.1759C21.8229 17.0397 21.85 16.9342 21.8703 16.8593L22.6631 14.0304H24.0656L24.8279 16.8593C24.8618 16.9818 24.899 17.1418 24.9397 17.3393C24.9804 17.5367 25.0176 17.7342 25.0515 17.9316C25.0854 18.129 25.1057 18.2924 25.1125 18.4218H25.1531C25.1667 18.3061 25.1904 18.1495 25.2243 17.952C25.2582 17.7478 25.2988 17.5299 25.3462 17.2984C25.3937 17.0669 25.4445 16.8593 25.4987 16.6755L26.1898 14.0304H27.4602L25.8951 19.5758H24.4722L23.8624 17.1963Z" fill="white"/>
</svg>
