<svg width="32" height="32" viewBox="0 0 32 32" fill="none" xmlns="http://www.w3.org/2000/svg">
<path d="M14.3041 1.0248C15.0258 -0.341599 16.9742 -0.341599 17.6959 1.0248C18.2562 2.08535 19.634 2.37964 20.5751 1.63973C21.7875 0.686453 23.5675 1.48276 23.6737 3.026C23.7562 4.22382 24.8958 5.05581 26.055 4.76449C27.5485 4.38915 28.8523 5.84407 28.3247 7.29733C27.9152 8.4253 28.6195 9.65112 29.7964 9.85876C31.3127 10.1263 31.9148 11.9882 30.8445 13.1002C30.0139 13.9633 30.1611 15.371 31.1522 16.0417C32.4292 16.9058 32.2255 18.8529 30.7977 19.4313C29.6895 19.8803 29.2542 21.2265 29.8881 22.2442C30.7049 23.5555 29.7307 25.251 28.1922 25.1959C26.998 25.1531 26.0554 26.205 26.2226 27.3939C26.438 28.9256 24.8617 30.0763 23.4785 29.3972C22.4049 28.8701 21.118 29.4458 20.7895 30.6002C20.3662 32.0875 18.4604 32.4946 17.4717 31.3088C16.7043 30.3885 15.2957 30.3885 14.5283 31.3088C13.5396 32.4946 11.6338 32.0875 11.2105 30.6002C10.882 29.4458 9.5951 28.8701 8.52151 29.3972C7.13831 30.0763 5.56204 28.9256 5.77741 27.3939C5.94458 26.205 5.002 25.1531 3.80785 25.1959C2.26933 25.251 1.29514 23.5555 2.1119 22.2442C2.74585 21.2265 2.31055 19.8803 1.20232 19.4313C-0.225499 18.8529 -0.42916 16.9058 0.847774 16.0417C1.83888 15.371 1.98613 13.9633 1.15545 13.1002C0.085213 11.9882 0.687293 10.1263 2.2036 9.85876C3.38051 9.65112 4.08484 8.4253 3.67533 7.29733C3.14774 5.84407 4.45145 4.38915 5.94495 4.76449C7.10416 5.05581 8.24378 4.22382 8.32626 3.02601C8.43253 1.48276 10.2125 0.686452 11.4249 1.63973C12.366 2.37964 13.7439 2.08535 14.3041 1.0248Z" fill="#867368"/>
<path d="M10.9892 20.8812H9.61715V14.6924H7.72676V13.5895H12.8694V14.6924H10.9892V20.8812Z" fill="white"/>
<path d="M19.8668 17.2251C19.8668 17.7902 19.8024 18.3043 19.6737 18.7672C19.545 19.2234 19.3451 19.6183 19.0741 19.9519C18.8098 20.2855 18.4744 20.5408 18.0679 20.7178C17.6613 20.8948 17.1837 20.9834 16.6348 20.9834C16.0792 20.9834 15.5982 20.8948 15.1916 20.7178C14.7851 20.534 14.4497 20.2787 14.1855 19.9519C13.9212 19.6183 13.7213 19.22 13.5858 18.757C13.4571 18.2941 13.3927 17.78 13.3927 17.2149C13.3927 16.4592 13.5079 15.8022 13.7383 15.2439C13.9754 14.6856 14.3345 14.2533 14.8156 13.9469C15.2967 13.6337 15.9065 13.4772 16.645 13.4772C17.3768 13.4772 17.9798 13.6337 18.4541 13.9469C18.9284 14.2533 19.2807 14.689 19.5111 15.2541C19.7482 15.8124 19.8668 16.4694 19.8668 17.2251ZM14.8359 17.2251C14.8359 17.7766 14.8969 18.2498 15.0189 18.6447C15.1408 19.0396 15.3339 19.3425 15.5982 19.5536C15.8692 19.7647 16.2148 19.8702 16.6348 19.8702C17.0549 19.8702 17.3971 19.7647 17.6613 19.5536C17.9256 19.3425 18.1187 19.0396 18.2407 18.6447C18.3626 18.2498 18.4236 17.7766 18.4236 17.2251C18.4236 16.4013 18.2813 15.7545 17.9967 15.2848C17.7189 14.815 17.265 14.5801 16.6348 14.5801C16.2148 14.5801 15.8692 14.6856 15.5982 14.8967C15.3339 15.1078 15.1408 15.4107 15.0189 15.8056C14.8969 16.2005 14.8359 16.6737 14.8359 17.2251Z" fill="white"/>
<path d="M23.3645 13.5895C24.2453 13.5895 24.8924 13.7869 25.3057 14.1818C25.719 14.5767 25.9256 15.1214 25.9256 15.8158C25.9256 16.129 25.8816 16.4286 25.7935 16.7145C25.7054 16.9937 25.5564 17.2456 25.3463 17.4702C25.1431 17.6949 24.872 17.8719 24.5332 18.0013C24.1945 18.1307 23.7778 18.1953 23.2831 18.1953H22.6327V20.8812H21.2708V13.5895H23.3645ZM23.3136 14.672H22.6327V17.1128H23.1409C23.439 17.1128 23.6931 17.072 23.9031 16.9903C24.1132 16.9018 24.2724 16.7656 24.3808 16.5818C24.496 16.3979 24.5536 16.1596 24.5536 15.8669C24.5536 15.4652 24.4519 15.1656 24.2487 14.9682C24.0454 14.7707 23.7337 14.672 23.3136 14.672Z" fill="white"/>
</svg>
