<svg width="767" height="512" viewBox="0 0 767 512" fill="none" xmlns="http://www.w3.org/2000/svg">
<path d="M529.021 297.404C529.021 297.404 579.153 327.08 610.257 330.743C616.36 331.462 623.43 331.84 623.43 331.84C623.43 331.84 622.818 331.66 620.868 340.633C618.783 350.23 617.107 369.722 614.648 404.749C612.626 433.564 607.695 455.673 607.695 478.388C607.695 481.728 614.648 482.784 614.648 482.784V499.271C614.648 503.301 627.456 505.133 627.456 505.133L643.556 506.232L656.73 508.064H668.805C668.805 508.064 678.966 510.957 685.638 510.995C691.115 511.026 700.641 510.995 701.373 508.796C701.734 507.71 701.739 506.232 701.739 506.232C701.739 506.232 722.815 507.793 735.77 504.766C741.44 503.442 748.943 501.253 755.529 500.004C761.692 498.834 767.19 498.642 765.776 496.34C764.633 494.48 763.214 493.409 763.214 493.409C763.214 493.409 762.604 490.734 759.92 490.478C736.867 488.28 731.024 488.646 709.056 488.646C687.467 488.646 681.612 434.058 676.855 395.956C672.543 361.424 673.171 320.484 669.031 301.339C669.165 301.503 669.331 301.66 669.536 301.798C670.515 302.457 672.314 302.63 673.196 302.531C674.466 302.389 675.749 302.441 676.855 301.798C678.364 300.922 679.146 300.127 679.782 298.501C680.306 297.162 680.479 296.641 680.514 295.204C680.542 294.062 680.173 293.016 679.794 291.939L679.782 291.907C679.307 290.557 678.067 289.368 676.855 288.609C675.5 287.762 674.776 288.108 673.196 287.877C671.915 287.689 669.902 288.243 669.902 288.243C669.902 288.243 671.129 268.824 671.733 256.371H477.047C498.885 277.179 529.021 297.404 529.021 297.404Z"  />
<path d="M323.002 1.01317C422.534 0.982645 665.51 1.01475 665.51 1.01475C665.51 1.01475 667.42 7.86353 667.705 12.3721C668.031 17.5302 666.607 25.5612 666.607 25.5612L665.51 25.9276V29.2248H666.973L671.731 83.4468C671.731 83.4468 675 188.919 671.731 256.371H477.045C473.182 252.689 469.577 248.989 466.446 245.38C422.9 195.186 402.104 166.395 370.939 110.558C350.081 73.1867 315.683 1.01541 323.002 1.01317Z"  />
<path d="M237.979 297.404C237.979 297.404 187.847 327.08 156.743 330.743C150.64 331.462 143.57 331.84 143.57 331.84C143.57 331.84 144.182 331.66 146.132 340.633C148.217 350.23 149.893 369.722 152.352 404.749C154.374 433.564 159.305 455.673 159.305 478.388C159.305 481.728 152.352 482.784 152.352 482.784V499.271C152.352 503.301 139.544 505.133 139.544 505.133L123.444 506.232L110.27 508.064H98.1948C98.1948 508.064 88.0343 510.957 81.3622 510.995C75.8852 511.026 66.3592 510.995 65.6274 508.796C65.2658 507.71 65.2614 506.232 65.2614 506.232C65.2614 506.232 44.1846 507.793 31.2303 504.766C25.5597 503.442 18.0574 501.253 11.4711 500.004C5.30751 498.834 -0.190395 498.642 1.22437 496.34C2.36736 494.48 3.78583 493.409 3.78583 493.409C3.78583 493.409 4.39554 490.734 7.07994 490.478C30.1333 488.28 35.9759 488.646 57.9437 488.646C79.5333 488.646 85.3882 434.058 90.1452 395.956C94.4565 361.424 93.8285 320.484 97.9689 301.339C97.8355 301.503 97.6691 301.66 97.4637 301.798C96.4846 302.457 94.6859 302.63 93.8045 302.531C92.5343 302.389 91.2507 302.441 90.1452 301.798C88.6365 300.922 87.8543 300.127 87.2178 298.501C86.6938 297.162 86.5214 296.641 86.486 295.204C86.4578 294.062 86.8269 293.016 87.2063 291.939L87.2178 291.907C87.6934 290.557 88.9334 289.368 90.1452 288.609C91.5001 287.762 92.2236 288.108 93.8045 287.877C95.085 287.689 97.0978 288.243 97.0978 288.243C97.0978 288.243 95.8709 268.824 95.2674 256.371H289.953C268.115 277.179 237.979 297.404 237.979 297.404Z"  />
<path d="M443.998 1.01317C344.466 0.982645 101.49 1.01475 101.49 1.01475C101.49 1.01475 99.5805 7.86353 99.2952 12.3721C98.9689 17.5302 100.393 25.5612 100.393 25.5612L101.49 25.9276V29.2248H100.027L95.2693 83.4468C95.2693 83.4468 92.0003 188.919 95.2693 256.371H289.955C293.818 252.689 297.423 248.989 300.554 245.38C344.1 195.186 364.896 166.395 396.061 110.558C416.919 73.1867 451.317 1.01541 443.998 1.01317Z"  />
</svg>
