<svg width="767" height="512" viewBox="0 0 767 512" fill="none" xmlns="http://www.w3.org/2000/svg">
<path d="M665.512 1.01475C665.512 1.01475 422.535 0.982645 323.004 1.01317C315.685 1.01541 350.083 73.1867 370.941 110.558C402.106 166.395 422.902 195.186 466.448 245.38C487.277 269.389 529.021 297.404 529.021 297.404C529.021 297.404 579.153 327.079 610.257 330.743C616.36 331.462 623.43 331.84 623.43 331.84C623.43 331.84 622.818 331.66 620.868 340.633C618.783 350.23 617.107 369.722 614.648 404.748C612.626 433.564 607.696 455.673 607.696 478.388C607.696 481.728 614.648 482.784 614.648 482.784V499.271C614.648 503.301 627.456 505.132 627.456 505.132L643.556 506.231L656.73 508.063H668.805C668.805 508.063 678.966 510.956 685.638 510.994C691.115 511.025 700.641 510.994 701.373 508.796C701.734 507.71 701.739 506.231 701.739 506.231C701.739 506.231 722.815 507.792 735.77 504.766C741.44 503.441 748.943 501.253 755.529 500.003C761.692 498.834 767.19 498.642 765.776 496.34C764.633 494.479 763.214 493.409 763.214 493.409C763.214 493.409 762.604 490.734 759.92 490.478C736.867 488.28 731.024 488.646 709.056 488.646C687.467 488.646 681.612 434.058 676.855 395.956C672.543 361.424 673.171 320.483 669.031 301.339C669.165 301.502 669.331 301.66 669.536 301.798C670.515 302.457 672.314 302.63 673.196 302.531C674.466 302.388 675.749 302.44 676.855 301.798C678.364 300.922 679.146 300.127 679.782 298.501C680.306 297.162 680.479 296.641 680.514 295.204C680.542 294.062 680.173 293.015 679.794 291.939L679.782 291.906C679.307 290.557 678.067 289.367 676.855 288.609C675.5 287.761 674.776 288.108 673.196 287.876C671.915 287.689 669.902 288.243 669.902 288.243C669.902 288.243 671.129 268.824 671.733 256.371C675.002 188.919 671.733 83.4468 671.733 83.4468L666.975 29.2248H665.512V25.9276L666.609 25.5612C666.609 25.5612 668.033 17.5302 667.707 12.3721C667.421 7.86353 665.512 1.01475 665.512 1.01475Z"  />
<path d="M101.488 1.01475C101.488 1.01475 344.465 0.982645 443.996 1.01317C451.315 1.01541 416.917 73.1867 396.059 110.558C364.894 166.395 344.098 195.186 300.552 245.38C279.723 269.389 237.979 297.404 237.979 297.404C237.979 297.404 187.847 327.079 156.743 330.743C150.64 331.462 143.57 331.84 143.57 331.84C143.57 331.84 144.182 331.66 146.132 340.633C148.217 350.23 149.894 369.722 152.352 404.748C154.374 433.564 159.305 455.673 159.305 478.388C159.305 481.728 152.352 482.784 152.352 482.784V499.271C152.352 503.301 139.544 505.132 139.544 505.132L123.444 506.231L110.27 508.063H98.1948C98.1948 508.063 88.0343 510.956 81.3622 510.994C75.8852 511.025 66.3592 510.994 65.6274 508.796C65.2658 507.71 65.2614 506.231 65.2614 506.231C65.2614 506.231 44.1846 507.792 31.2303 504.766C25.5597 503.441 18.0574 501.253 11.4711 500.003C5.30751 498.834 -0.190395 498.642 1.22437 496.34C2.36736 494.479 3.78583 493.409 3.78583 493.409C3.78583 493.409 4.39554 490.734 7.07994 490.478C30.1333 488.28 35.9759 488.646 57.9437 488.646C79.5333 488.646 85.3882 434.058 90.1452 395.956C94.4565 361.424 93.8285 320.483 97.9689 301.339C97.8355 301.502 97.6691 301.66 97.4637 301.798C96.4846 302.457 94.6859 302.63 93.8045 302.531C92.5343 302.388 91.2507 302.44 90.1452 301.798C88.6365 300.922 87.8543 300.127 87.2178 298.501C86.6938 297.162 86.5214 296.641 86.486 295.204C86.4578 294.062 86.8269 293.015 87.2063 291.939L87.2178 291.906C87.6934 290.557 88.9334 289.367 90.1452 288.609C91.5001 287.761 92.2236 288.108 93.8045 287.876C95.085 287.689 97.0978 288.243 97.0978 288.243C97.0978 288.243 95.8709 268.824 95.2674 256.371C91.9984 188.919 95.2674 83.4468 95.2674 83.4468L100.025 29.2248H101.488V25.9276L100.391 25.5612C100.391 25.5612 98.967 17.5302 99.2934 12.3721C99.5786 7.86353 101.488 1.01475 101.488 1.01475Z"  />
</svg>
