<svg width="350" height="503" viewBox="0 0 350 503" fill="none" xmlns="http://www.w3.org/2000/svg">
<symbol id="left-1" width="350" height="503" viewBox="0 0 350 503">
<path d="M134.782 253.94L134.782 253.941L140.95 485.924L140.95 485.927L140.531 498.87C140.478 500.488 139.179 501.784 137.561 501.813C134.573 501.866 129.894 501.908 126.44 501.747C123.736 501.621 121.471 500.939 119.31 500.289C118.664 500.095 118.028 499.903 117.391 499.73C114.627 498.978 111.878 498.578 108.431 499.83C107.421 500.197 106.654 500.69 105.903 501.172L105.772 501.255C104.978 501.763 104.187 502.252 103.123 502.57C100.791 503.265 98.9521 502.904 97.0977 502.308C96.6785 502.174 96.258 502.027 95.8306 501.878C94.369 501.368 92.8269 500.83 90.978 500.653C87.268 500.298 84.3673 500.364 81.4669 500.485C81.0637 500.502 80.6605 500.52 80.2552 500.538C77.745 500.65 75.1522 500.766 71.958 500.653C69.1367 500.552 66.7678 500.015 64.5119 499.503C63.774 499.336 63.0482 499.171 62.3226 499.025C59.3795 498.434 56.448 498.157 52.7533 499.287C52.06 499.499 51.5236 499.731 50.9935 499.961L50.95 499.98C50.4056 500.216 49.8632 500.448 49.1561 500.654C46.3042 501.487 44.0379 501.063 41.7543 500.539C41.5848 500.5 41.4152 500.46 41.2452 500.421C39.1256 499.927 36.9514 499.421 34.2573 499.832C33.5236 499.944 32.9463 500.09 32.3792 500.233L32.2832 500.257C31.6849 500.408 31.0883 500.554 30.318 500.653C28.29 500.914 26.7044 500.633 25.1118 500.324L24.8985 500.283C23.3754 499.986 21.8269 499.684 19.8699 499.832C18.826 499.911 18.0157 500.066 17.2078 500.226L17.087 500.25C16.3191 500.402 15.5432 500.556 14.5577 500.653C11.7227 500.93 8.08604 500.724 5.15597 500.448C3.69139 500.31 2.40418 500.155 1.48315 500.035C1.04471 499.977 0.689274 499.927 0.437197 499.891C0.465404 499.888 0.49472 499.884 0.525064 499.88C0.84266 499.837 1.27374 499.753 1.72703 499.595C2.63249 499.278 3.63571 498.655 3.9885 497.434C4.86056 494.415 4.952 491.197 4.86605 487.711C4.8422 486.743 4.80471 485.755 4.76636 484.745C4.66643 482.112 4.56072 479.326 4.67572 476.357C4.95117 469.245 5.23141 463.918 5.52443 458.348C5.74696 454.118 5.97686 449.748 6.21763 444.35C7.33177 419.369 7.94603 405.356 8.6162 380.334C8.94652 368.001 9.20351 352.202 9.37792 339.487C9.46512 333.129 9.53169 327.542 9.57645 323.544C9.59883 321.546 9.61576 319.944 9.62709 318.842L9.63988 317.577L9.64309 317.25L9.6439 317.167L9.6441 317.146L9.64415 317.14L9.64416 317.139C9.64416 317.139 9.64417 317.139 9.59417 317.138C9.64417 317.139 9.64417 317.138 9.64417 317.138L9.64418 317.137L9.64423 317.132L9.6444 317.111L9.6451 317.027L9.64784 316.7L9.65842 315.435L9.69762 310.735C9.73088 306.739 9.77723 301.153 9.82954 294.796C9.93416 282.082 10.0626 266.284 10.1581 253.944C10.8802 160.636 11.6334 17.2217 11.6959 5.24713C11.6984 4.76246 12.0519 4.44104 12.5446 4.38928C14.0271 4.23354 17.042 4.00463 19.1572 4.42572C19.7738 4.54849 20.0353 4.83553 20.3335 5.163C20.3878 5.22267 20.4434 5.28369 20.5026 5.3453C20.6947 5.54533 20.9226 5.74821 21.2662 5.92208C21.6094 6.09572 22.0657 6.23925 22.7139 6.32426C23.364 6.40953 23.7817 6.33354 24.0817 6.16306C24.3807 5.99314 24.5551 5.73305 24.7249 5.47103C24.7312 5.46129 24.7375 5.45155 24.7439 5.44181C24.9086 5.18738 25.0737 4.93225 25.348 4.73231C25.6313 4.52571 26.0359 4.37518 26.6851 4.35827C27.3384 4.34126 27.7457 4.40982 28.0251 4.51908C28.3029 4.62771 28.4581 4.77796 28.606 4.93481C28.6192 4.94873 28.6323 4.96273 28.6454 4.97679C28.7807 5.12143 28.9209 5.27126 29.15 5.38601C29.4013 5.51192 29.7555 5.594 30.3244 5.594C30.8938 5.594 31.2523 5.5075 31.5126 5.37519C31.7415 5.25883 31.8916 5.10804 32.0382 4.96075C32.0578 4.94101 32.0774 4.92134 32.0971 4.90182C32.2638 4.73661 32.4434 4.57709 32.7517 4.46164C33.0615 4.34565 33.5047 4.27287 34.1994 4.28988C34.8954 4.30693 35.306 4.38445 35.5716 4.49128C35.8343 4.59695 35.9578 4.73223 36.0784 4.87607C36.0865 4.88568 36.0945 4.89535 36.1026 4.90506C36.2173 5.0427 36.3391 5.18879 36.5778 5.31146C36.8317 5.44195 37.2143 5.54452 37.8589 5.59386C38.5034 5.64318 38.9091 5.59947 39.1952 5.498C39.4833 5.39582 39.6456 5.23653 39.8044 5.06832C39.8161 5.05591 39.8278 5.04346 39.8395 5.03098C39.986 4.87489 40.1372 4.71395 40.3928 4.57276C40.6691 4.42014 41.0707 4.28918 41.7227 4.22124C42.3771 4.15303 42.8089 4.15042 43.1247 4.18399C43.4394 4.21743 43.6406 4.2869 43.8348 4.36545C43.8676 4.37871 43.9003 4.39229 43.9334 4.40605C44.0972 4.47403 44.2709 4.54612 44.5117 4.60383C44.8015 4.67327 45.1875 4.72186 45.7749 4.72186C46.9517 4.72186 47.4664 4.52815 47.866 4.35867C47.8868 4.34986 47.9072 4.34114 47.9274 4.33255C48.0995 4.25905 48.2495 4.19497 48.431 4.15671C48.6325 4.1142 48.875 4.10334 49.2274 4.15263C49.8456 4.23908 50.2034 4.50549 50.5867 4.79094C50.6539 4.841 50.722 4.89164 50.7923 4.94201C51.2658 5.28104 51.8312 5.594 52.9392 5.594C53.4926 5.594 53.8601 5.50242 54.1378 5.36108C54.4023 5.22646 54.5819 5.04813 54.7593 4.87204C54.7676 4.86373 54.776 4.85543 54.7844 4.84713C54.9705 4.66263 55.1601 4.48107 55.4529 4.34067C55.7458 4.20024 56.1456 4.09943 56.7524 4.08471C57.3609 4.06995 57.7246 4.13564 57.9705 4.23882C58.2077 4.33837 58.3393 4.47414 58.4801 4.61942L58.4932 4.63298C58.64 4.78435 58.7987 4.94261 59.092 5.06111C59.3837 5.17893 59.8048 5.25613 60.4763 5.25613C61.1492 5.25613 61.5753 5.15532 61.8735 5.00608C62.1664 4.85953 62.3316 4.66816 62.4825 4.49336L62.4917 4.48278C62.6451 4.30518 62.7846 4.14797 63.0334 4.05365C63.2836 3.95881 63.6506 3.92557 64.2608 4.01579C64.8707 4.10597 65.1941 4.24802 65.3832 4.40452C65.5532 4.54511 65.6191 4.70006 65.6868 4.85928C65.6941 4.87654 65.7015 4.89384 65.709 4.91118C65.7864 5.0899 65.8791 5.2661 66.1376 5.39339C66.391 5.51821 66.7995 5.594 67.5018 5.594C68.2062 5.594 68.6674 5.50567 69.0037 5.36671C69.3408 5.22739 69.5484 5.03863 69.746 4.8467C69.7621 4.83102 69.7782 4.81533 69.7943 4.79965C69.9746 4.62351 70.1537 4.44865 70.4277 4.30019C70.7257 4.13871 71.1389 4.00721 71.7895 3.94773C72.443 3.88799 72.8279 3.90692 73.0805 3.96303C73.327 4.01778 73.4496 4.10813 73.5786 4.20327L73.5836 4.20693C73.718 4.30605 73.86 4.40881 74.142 4.47041C74.4211 4.53136 74.8354 4.55175 75.516 4.4949C76.8772 4.38121 77.2578 4.24366 77.5851 4.12492C77.7455 4.0667 77.89 4.01438 78.1358 3.97196C78.3828 3.92934 78.7329 3.89659 79.3033 3.87952C79.8725 3.86249 80.2364 3.89241 80.5007 3.94588C80.7622 3.9988 80.928 4.07507 81.1027 4.15546L81.1062 4.15708C81.2835 4.23868 81.4699 4.32392 81.7681 4.38816C82.0654 4.45221 82.4723 4.49507 83.0923 4.49507C83.7121 4.49507 84.1148 4.45652 84.4061 4.39681C84.6985 4.33686 84.8769 4.25584 85.0471 4.1738C85.059 4.16805 85.0709 4.16229 85.0828 4.15655C85.2388 4.08102 85.3926 4.00657 85.6322 3.94531C85.8908 3.87921 86.2509 3.82817 86.8201 3.81113C87.3898 3.79408 87.7247 3.82843 87.9423 3.88742C88.1569 3.94559 88.2591 4.028 88.3643 4.11585L88.3729 4.123C88.4789 4.21158 88.5915 4.30564 88.8151 4.37627C89.0422 4.44799 89.3815 4.49507 89.9453 4.49507C91.0288 4.49507 91.5255 4.30021 92.0153 4.10805C92.0375 4.09933 92.0597 4.09063 92.0819 4.08195C92.587 3.88468 93.1159 3.69829 94.3337 3.74273C94.9449 3.76503 95.3017 3.823 95.5317 3.89572C95.7546 3.96621 95.8596 4.05081 95.9657 4.13633L95.972 4.14141C96.0843 4.23177 96.1997 4.32221 96.4428 4.38835C96.6828 4.45364 97.0461 4.49507 97.6549 4.49507C98.2652 4.49507 98.6721 4.44224 98.9803 4.36227C99.2746 4.28591 99.4771 4.18519 99.6765 4.08597L99.7054 4.0716C99.9136 3.96819 100.125 3.86703 100.445 3.79242C100.767 3.71764 101.2 3.66912 101.852 3.67437C102.505 3.67962 102.895 3.71429 103.149 3.76101C103.4 3.80735 103.517 3.86552 103.626 3.92062L103.631 3.9234C103.742 3.97976 103.849 4.0338 104.069 4.06642C104.289 4.09915 104.624 4.11042 105.195 4.08467C106.283 4.03568 106.73 3.93544 107.161 3.83874C107.184 3.83359 107.207 3.82845 107.23 3.82333C107.679 3.72315 108.149 3.62957 109.37 3.60597C110.452 3.58507 111.025 3.61757 111.455 3.64196C111.511 3.64514 111.564 3.64818 111.616 3.65094C112.07 3.6751 112.4 3.67829 113.135 3.57126C113.69 3.49033 113.944 3.31692 114.199 3.1418C114.272 3.09221 114.344 3.04249 114.424 2.99469C114.783 2.77984 115.309 2.58475 116.672 2.58475C117.353 2.58475 117.788 2.65554 118.094 2.75872C118.4 2.86148 118.58 2.99723 118.753 3.13391L118.783 3.15717C118.947 3.28698 119.112 3.41772 119.372 3.51219C119.647 3.6121 120.025 3.67048 120.62 3.65328C121.217 3.63602 121.624 3.52609 121.936 3.36861C122.244 3.21332 122.455 3.01317 122.66 2.8196L122.667 2.81242C122.875 2.61613 123.076 2.42727 123.369 2.28606C123.662 2.14507 124.049 2.05007 124.628 2.05C125.209 2.04993 125.507 2.14995 125.676 2.29319C125.838 2.43011 125.89 2.61252 125.95 2.82268L125.958 2.85229C126.021 3.07212 126.098 3.31312 126.335 3.51523C126.57 3.71633 126.958 3.87358 127.631 3.94764C129.007 4.09899 130.251 3.99617 131.138 3.85997C131.798 3.75857 132.447 4.25393 132.453 4.91414L134.782 253.94Z" fill="white" stroke="#D9D9D9" stroke-width="0.1"/>
</symbol>
<symbol id="right-1" width="350" height="503" viewBox="0 0 350 503">
<path d="M349.715 497.067L335.93 498.639L335.896 498.643L335.887 498.675L335.887 498.676L335.887 498.677L335.886 498.681L335.881 498.699C335.876 498.714 335.87 498.737 335.861 498.766C335.844 498.824 335.818 498.908 335.785 499.007C335.72 499.207 335.626 499.473 335.512 499.738C335.398 500.004 335.265 500.267 335.122 500.463C335.05 500.561 334.977 500.64 334.904 500.695C334.831 500.749 334.761 500.777 334.695 500.777C333.388 500.777 332.572 500.666 331.82 500.544C331.724 500.528 331.629 500.512 331.534 500.496C330.884 500.388 330.239 500.281 329.319 500.242C327.704 500.174 326.398 500.393 325.135 500.606C324.961 500.635 324.788 500.664 324.616 500.692C323.187 500.925 321.765 501.096 319.949 500.778C317.442 500.338 315.839 500.242 313.322 500.242C312.689 500.242 312.082 500.328 311.507 500.426C311.36 500.451 311.216 500.476 311.073 500.502C310.657 500.576 310.259 500.647 309.879 500.685C309.371 500.736 308.901 500.728 308.47 500.592C308.041 500.457 307.648 500.193 307.295 499.728C307.017 499.361 306.468 498.298 306.091 496.992C305.715 495.686 305.515 494.147 305.924 492.824L305.933 492.795L305.911 492.773C305.767 492.634 305.62 492.562 305.481 492.535C305.341 492.508 305.212 492.526 305.103 492.561C304.993 492.597 304.903 492.649 304.84 492.693C304.834 492.697 304.828 492.701 304.823 492.705V484.257V484.23L304.8 484.215L303.169 483.161V478.912V478.874L303.131 478.864L297.102 477.27V471.429V471.394L297.068 471.382L297.067 471.382L297.065 471.381L297.057 471.378L297.025 471.367C296.996 471.356 296.954 471.341 296.899 471.32C296.79 471.279 296.631 471.217 296.434 471.135C296.039 470.971 295.491 470.728 294.877 470.411C293.652 469.778 292.169 468.851 291.113 467.669C291.114 462.059 291.569 453.955 292.096 444.83L292.169 443.569C292.679 434.766 293.239 425.095 293.516 415.843C293.708 409.462 294.14 402.862 294.588 396.28C294.622 395.774 294.657 395.269 294.691 394.763C295.105 388.691 295.517 382.649 295.748 376.826C296.027 369.807 295.861 362.814 295.701 356.113L295.688 355.57C295.524 348.703 295.381 342.153 295.748 336.205C296.63 321.932 297.63 310.355 298.756 303.606L298.761 303.575L298.736 303.557C294.331 300.356 290.268 295.152 286.788 289.075C283.308 282.998 280.414 276.053 278.347 269.375C277.496 266.626 276.598 263.797 275.68 260.904C271.326 247.178 266.513 232.005 264.008 217.001C263.145 211.831 262.384 207.39 261.68 203.285C259.845 192.581 258.402 184.159 256.562 171.035C255.231 161.532 253.783 149.239 252.668 139.322C252.111 134.363 251.636 129.999 251.302 126.874C251.134 125.311 251.002 124.059 250.911 123.197C250.866 122.766 250.831 122.432 250.807 122.207L250.78 121.951L250.774 121.885L250.772 121.869L250.772 121.865L250.771 121.864C250.771 121.864 250.771 121.864 250.767 121.864L250.771 121.864L250.771 121.862L247.152 93.0015L247.152 93.0009L247.152 92.9996L247.152 92.9985L247.151 92.9887L247.148 92.9501L247.135 92.7982L247.087 92.2111C247.045 91.6998 246.985 90.9565 246.91 90.0285C246.76 88.1725 246.553 85.5779 246.325 82.6233C245.869 76.714 245.326 69.365 244.98 63.6055C244.258 51.559 243.775 36.0593 243.473 23.5709C243.322 17.3268 243.216 11.8356 243.148 7.90546C243.114 5.94039 243.09 4.36558 243.074 3.28205C243.066 2.74028 243.06 2.32133 243.056 2.03783L243.051 1.71574L243.051 1.67279L243.068 1.67761C243.121 1.69195 243.198 1.71242 243.294 1.73701C243.486 1.7862 243.755 1.85192 244.06 1.91807C244.67 2.05015 245.433 2.18473 246.033 2.19142C246.64 2.1982 247.119 2.05151 247.584 1.90931C247.612 1.90065 247.641 1.89201 247.669 1.88342C248.161 1.73365 248.645 1.59913 249.269 1.65672C249.847 1.71 250.292 1.95026 250.741 2.19256C250.761 2.20326 250.781 2.21396 250.801 2.22465C251.269 2.47664 251.747 2.72135 252.376 2.72592C253.001 2.73046 253.482 2.44869 253.945 2.17688C253.959 2.16853 253.973 2.16019 253.988 2.15188C254.467 1.87102 254.933 1.60996 255.544 1.65678C256.15 1.70323 256.603 2.0774 257.066 2.46032C257.078 2.46989 257.09 2.47947 257.101 2.48906C257.572 2.87779 258.059 3.26736 258.72 3.26042C259.359 3.2537 259.831 2.84237 260.284 2.44738L260.303 2.43091C260.768 2.0257 261.216 1.64339 261.82 1.65692C262.4 1.66989 262.828 2.04059 263.271 2.43249L263.288 2.44797C263.721 2.83032 264.171 3.22807 264.783 3.26035C265.47 3.29651 265.979 2.92685 266.473 2.53971C266.503 2.51615 266.533 2.49254 266.563 2.46893C267.029 2.10122 267.493 1.73641 268.102 1.6565C268.683 1.58022 269.135 1.71302 269.595 1.86692C269.63 1.8786 269.665 1.8904 269.7 1.90224C270.127 2.0463 270.571 2.19607 271.129 2.19142C271.668 2.18694 272.094 2.04561 272.506 1.90921C272.535 1.89957 272.564 1.88995 272.593 1.88042C273.032 1.73573 273.464 1.60742 274.02 1.65673C274.564 1.70492 274.981 1.94628 275.404 2.1911C275.418 2.19937 275.433 2.20765 275.447 2.21592C275.883 2.46795 276.329 2.71635 276.919 2.72592C277.537 2.73594 278.006 2.46086 278.462 2.19182L278.467 2.18877C278.924 1.91932 279.369 1.65693 279.954 1.65693C280.524 1.65693 280.962 1.92364 281.409 2.19608C281.421 2.20341 281.433 2.21075 281.445 2.21809C281.901 2.49616 282.371 2.77241 282.991 2.72578C283.5 2.68746 283.882 2.43256 284.252 2.18566L284.256 2.18301C284.63 1.93358 284.992 1.693 285.473 1.65679C286.057 1.61285 286.501 1.8711 286.959 2.15017C286.974 2.15888 286.988 2.16761 287.002 2.17635C287.444 2.44587 287.904 2.72592 288.503 2.72592C289.118 2.72592 289.586 2.45275 290.041 2.18693L290.045 2.1846C290.503 1.91666 290.949 1.65693 291.536 1.65693C292.123 1.65693 292.569 1.91666 293.028 2.1846L293.032 2.18693C293.487 2.45275 293.954 2.72592 294.57 2.72592C295.185 2.72592 295.653 2.45275 296.108 2.18693L296.112 2.1846C296.57 1.91666 297.016 1.65693 297.603 1.65693C298.19 1.65693 298.636 1.91448 299.095 2.18122L299.103 2.18606C299.557 2.44994 300.023 2.72127 300.636 2.72592C301.263 2.73068 301.74 2.45454 302.204 2.18604L302.213 2.18104C302.682 1.90959 303.139 1.64762 303.738 1.65692C304.312 1.66583 304.748 1.91914 305.196 2.18136L305.204 2.18607C305.647 2.44552 306.103 2.71225 306.702 2.72591C307.346 2.74058 307.836 2.46599 308.314 2.19568L308.324 2.18984C308.801 1.92027 309.266 1.65693 309.875 1.65693C310.484 1.65693 310.949 1.92027 311.426 2.18984L311.436 2.19568C311.914 2.46599 312.404 2.74058 313.048 2.72591C313.647 2.71225 314.103 2.44551 314.546 2.18606L314.554 2.18136C315.002 1.91914 315.438 1.66583 316.012 1.65692C316.611 1.64762 317.068 1.90959 317.537 2.18104L317.546 2.18603C318.01 2.45453 318.487 2.73068 319.114 2.72592C319.73 2.72125 320.197 2.4791 320.655 2.22845C320.677 2.21649 320.698 2.20453 320.72 2.19256C321.157 1.95272 321.591 1.71468 322.152 1.65666C322.788 1.59092 323.283 1.73998 323.786 1.89949L323.831 1.91385C324.319 2.06888 324.82 2.22792 325.459 2.19134C326.169 2.15071 326.714 1.89901 327.25 1.6521L327.27 1.64288C327.812 1.39262 328.346 1.14989 329.043 1.12239C329.597 1.10056 330.033 1.25135 330.471 1.40299C330.495 1.41125 330.519 1.41951 330.543 1.42775C331.005 1.58697 331.475 1.73598 332.081 1.6565C332.721 1.57263 333.205 1.19252 333.669 0.828955C333.699 0.805415 333.729 0.781945 333.759 0.758629C334.255 0.371981 334.736 0.0267762 335.382 0.0533973C335.978 0.0779912 336.421 0.388102 336.874 0.742071C336.916 0.774512 336.957 0.807333 336.999 0.840316C337.41 1.16491 337.842 1.50528 338.405 1.65525C339.053 1.82792 339.887 1.82738 340.555 1.78469C340.89 1.7633 341.185 1.73122 341.396 1.70448C341.502 1.69111 341.586 1.67907 341.645 1.67037C341.656 1.66861 341.667 1.66699 341.677 1.66552L341.676 1.71714L341.675 2.04527L341.67 3.33573C341.665 4.4716 341.659 6.1502 341.651 8.32112C341.636 12.663 341.616 18.9741 341.597 26.8514C341.559 42.6059 341.523 64.6247 341.534 89.6821C341.555 139.797 341.762 202.066 342.504 250.683C342.872 274.8 343.44 293.609 344.011 312.419L344.027 312.932C344.593 331.57 345.16 350.256 345.538 374.152C345.747 387.403 345.996 399.327 346.232 410.589C346.812 438.346 347.309 462.078 346.917 491.733C346.839 491.988 346.723 492.227 346.598 492.457C346.545 492.554 346.49 492.65 346.435 492.745C346.361 492.875 346.288 493.002 346.224 493.125C345.999 493.557 345.861 493.982 346.095 494.436C346.653 495.518 347.629 496.193 348.461 496.596C348.878 496.798 349.26 496.932 349.537 497.016C349.603 497.036 349.662 497.053 349.715 497.067Z" fill="white" stroke="#D9D9D9" stroke-width="0.1"/>
</symbol>
</svg>
