<svg width="350" height="503" viewBox="0 0 350 503" fill="none" xmlns="http://www.w3.org/2000/svg">
<symbol id="left-2" width="350" height="503" viewBox="0 0 350 503">
<path d="M134.782 253.94L134.782 253.941L136.461 317.088H9.64417L9.64468 317.027L9.64742 316.7L9.658 315.435L9.6972 310.735C9.73047 306.739 9.77681 301.153 9.82912 294.796C9.93374 282.082 10.0622 266.284 10.1577 253.944C10.375 225.868 10.5951 193.254 10.7983 161.05H133.913L134.782 253.94Z"  />
</symbol>
<symbol id="left-3" width="350" height="503" viewBox="0 0 350 503">
<path d="M0.437238 499.89C0.465433 499.886 0.494735 499.883 0.525064 499.878C0.84266 499.835 1.27374 499.752 1.72703 499.593C2.63249 499.276 3.63571 498.653 3.9885 497.432C4.86056 494.413 4.952 491.196 4.86605 487.709C4.8422 486.742 4.80471 485.754 4.76636 484.743C4.66643 482.11 4.56072 479.325 4.67572 476.355C4.95117 469.243 5.23141 463.916 5.52443 458.346C5.74696 454.117 5.97686 449.747 6.21763 444.348C7.33177 419.367 7.94603 405.354 8.6162 380.332C8.94652 368 9.20351 352.201 9.37792 339.485C9.46512 333.127 9.53169 327.54 9.57645 323.543C9.59883 321.544 9.61576 319.943 9.62709 318.841L9.63988 317.576L9.64309 317.248L9.64369 317.187L135.951 317.187L140.95 485.922V485.925L140.531 498.869C140.478 500.486 139.179 501.783 137.561 501.811C134.573 501.865 129.894 501.907 126.44 501.745C123.736 501.619 121.471 500.938 119.31 500.287C118.664 500.093 118.028 499.901 117.391 499.728C114.627 498.976 111.878 498.576 108.431 499.829C107.421 500.196 106.654 500.688 105.903 501.17C105.859 501.198 105.816 501.226 105.772 501.254C104.978 501.762 104.187 502.251 103.123 502.568C100.791 503.264 98.9521 502.902 97.0977 502.307C96.6784 502.172 96.2579 502.025 95.8304 501.876C94.3689 501.366 92.8269 500.828 90.978 500.651C87.268 500.296 84.3673 500.362 81.467 500.484C81.0638 500.501 80.6608 500.519 80.2555 500.537C77.7452 500.649 75.1524 500.764 71.958 500.651C69.1367 500.551 66.7678 500.014 64.5119 499.502C63.774 499.334 63.0482 499.17 62.3226 499.024C59.3795 498.433 56.448 498.156 52.7533 499.285C52.0599 499.497 51.5235 499.73 50.9933 499.96L50.95 499.978C50.4056 500.214 49.8632 500.447 49.1561 500.653C46.3042 501.485 44.0379 501.062 41.7543 500.537C41.5849 500.498 41.4153 500.459 41.2454 500.419C39.1258 499.926 36.9515 499.42 34.2573 499.831C33.5236 499.943 32.9462 500.088 32.3791 500.232L32.2832 500.256C31.6849 500.406 31.0883 500.552 30.318 500.651C28.29 500.913 26.7044 500.632 25.1118 500.323C25.0408 500.309 24.9697 500.295 24.8986 500.281C23.3755 499.984 21.827 499.682 19.8699 499.83C18.826 499.909 18.0157 500.064 17.2078 500.224L17.0876 500.248C16.3195 500.401 15.5434 500.555 14.5577 500.651C11.7227 500.928 8.08604 500.722 5.15597 500.447C3.69139 500.309 2.40418 500.154 1.48315 500.033C1.04474 499.976 0.689313 499.926 0.437238 499.89Z"  />
</symbol>
<symbol id="left-1" width="350" height="503" viewBox="0 0 350 503">
<path d="M133.61 160.95H10.5504C11.2513 70.3787 11.6414 12.9224 11.6926 5.30846C11.6959 4.82014 12.054 4.43871 12.5416 4.38747C14.0236 4.23173 17.0397 4.00254 19.1555 4.42377C19.7722 4.54654 20.0336 4.83358 20.3319 5.16105C20.3862 5.22072 20.4418 5.28174 20.501 5.34335C20.6931 5.54337 20.9209 5.74626 21.2646 5.92013C21.6078 6.09377 22.0641 6.2373 22.7123 6.32231C23.3624 6.40758 23.7801 6.33158 24.0801 6.16111C24.379 5.99118 24.5535 5.7311 24.7233 5.46908C24.7296 5.45934 24.7359 5.4496 24.7422 5.43986C24.9069 5.18543 25.0721 4.93029 25.3463 4.73035C25.6297 4.52375 26.0343 4.37322 26.6835 4.35632C27.3367 4.33931 27.7441 4.40787 28.0235 4.51713C28.3012 4.62575 28.4564 4.776 28.6044 4.93286C28.6176 4.94678 28.6307 4.96078 28.6438 4.97483C28.7791 5.11947 28.9193 5.26931 29.1483 5.38405C29.3997 5.50997 29.7539 5.59205 30.3228 5.59205C30.8922 5.59205 31.2507 5.50555 31.511 5.37324C31.7399 5.25688 31.89 5.10609 32.0366 4.9588C32.0562 4.93906 32.0758 4.91939 32.0955 4.89987C32.2622 4.73466 32.4418 4.57513 32.7501 4.45968C33.0598 4.3437 33.5031 4.27092 34.1978 4.28793C34.8938 4.30497 35.3044 4.3825 35.57 4.48933C35.8327 4.59499 35.9562 4.73028 36.0768 4.87412C36.0849 4.88373 36.0929 4.89341 36.101 4.90312C36.2157 5.04075 36.3375 5.18684 36.5762 5.30951C36.8301 5.44 37.2127 5.54257 37.8573 5.5919C38.5018 5.64123 38.9075 5.59752 39.1936 5.49605C39.4817 5.39386 39.644 5.23457 39.8028 5.06636C39.8145 5.05396 39.8262 5.04151 39.8379 5.02903C39.9844 4.87294 40.1355 4.71199 40.3912 4.5708C40.6675 4.41819 41.0691 4.28723 41.7211 4.21928C42.3755 4.15108 42.8072 4.14847 43.1231 4.18204C43.4377 4.21548 43.6389 4.28495 43.8331 4.36349C43.8659 4.37676 43.8987 4.39034 43.9318 4.40409C44.0956 4.47208 44.2693 4.54416 44.5101 4.60188C44.7999 4.67132 45.1858 4.7199 45.7733 4.7199C46.9501 4.7199 47.4648 4.5262 47.8644 4.35672C47.8852 4.3479 47.9056 4.33918 47.9258 4.33059C48.0979 4.25709 48.2479 4.19302 48.4293 4.15475C48.6309 4.11225 48.8733 4.10139 49.2258 4.15068C49.844 4.23713 50.2017 4.50353 50.5851 4.78898C50.6523 4.83904 50.7203 4.88969 50.7907 4.94005C51.2642 5.27909 51.8296 5.59205 52.9376 5.59205C53.491 5.59205 53.8585 5.50047 54.1361 5.35913C54.4006 5.22451 54.5803 5.04618 54.7576 4.87009C54.766 4.86178 54.7744 4.85347 54.7827 4.84518C54.9689 4.66068 55.1585 4.47911 55.4513 4.33872C55.7442 4.19829 56.144 4.09747 56.7508 4.08275C57.3592 4.068 57.7229 4.13369 57.9688 4.23687C58.2061 4.33642 58.3377 4.47219 58.4785 4.61747L58.4916 4.63103C58.6384 4.7824 58.7971 4.94066 59.0904 5.05916C59.382 5.17698 59.8032 5.25418 60.4747 5.25418C61.1476 5.25418 61.5737 5.15336 61.8719 5.00412C62.1648 4.85757 62.33 4.6662 62.4809 4.49141L62.49 4.48083C62.6435 4.30322 62.783 4.14601 63.0318 4.0517C63.282 3.95686 63.6489 3.92362 64.2591 4.01384C64.8691 4.10402 65.1925 4.24606 65.3816 4.40256C65.5515 4.54316 65.6174 4.6981 65.6852 4.85732C65.6925 4.87458 65.6998 4.89188 65.7074 4.90923C65.7848 5.08795 65.8775 5.26415 66.1359 5.39144C66.3893 5.51626 66.7979 5.59205 67.5002 5.59205C68.2046 5.59205 68.6658 5.50372 69.0021 5.36476C69.3392 5.22544 69.5468 5.03668 69.7444 4.84475C69.7605 4.82907 69.7766 4.81339 69.7926 4.79771C69.973 4.62157 70.1521 4.4467 70.426 4.29824C70.724 4.13676 71.1373 4.00525 71.7879 3.94578C72.4414 3.88603 72.8262 3.90497 73.0789 3.96108C73.3254 4.01582 73.4479 4.10618 73.577 4.20132L73.5819 4.20498C73.7164 4.3041 73.8584 4.40685 74.1404 4.46845C74.4194 4.52941 74.8337 4.5498 75.5144 4.49295C76.8756 4.37926 77.2562 4.24171 77.5835 4.12296C77.7439 4.06475 77.8883 4.01243 78.1342 3.97C78.3811 3.92739 78.7313 3.89464 79.3017 3.87757C79.8709 3.86054 80.2348 3.89046 80.499 3.94392C80.7606 3.99685 80.9264 4.07313 81.1011 4.15352L81.1046 4.15513C81.2819 4.23673 81.4683 4.32197 81.7665 4.38621C82.0638 4.45025 82.4707 4.49312 83.0907 4.49312C83.7105 4.49312 84.1132 4.45457 84.4044 4.39486C84.6968 4.3349 84.8753 4.25389 85.0455 4.17185C85.0574 4.16609 85.0693 4.16034 85.0812 4.15459C85.2372 4.07907 85.391 4.00462 85.6306 3.94336C85.8892 3.87726 86.2493 3.82621 86.8185 3.80918C87.3882 3.79213 87.723 3.82647 87.9407 3.88547C88.1553 3.94364 88.2574 4.02604 88.3627 4.1139L88.3713 4.12105C88.4773 4.20963 88.5899 4.30369 88.8135 4.37432C89.0405 4.44603 89.3799 4.49312 89.9437 4.49312C91.0272 4.49312 91.5238 4.29826 92.0137 4.1061C92.0359 4.09738 92.0581 4.08868 92.0803 4.07999C92.5854 3.88273 93.1143 3.69634 94.3321 3.74077C94.9433 3.76308 95.3001 3.82105 95.5301 3.89377C95.753 3.96426 95.858 4.04885 95.9641 4.13436L95.9704 4.13945C96.0826 4.22981 96.1981 4.32026 96.4412 4.3864C96.6812 4.45169 97.0444 4.49312 97.6533 4.49312C98.2635 4.49312 98.6705 4.44029 98.9787 4.36032C99.273 4.28396 99.4754 4.18324 99.6749 4.08404L99.7038 4.06965C99.912 3.96624 100.123 3.86508 100.444 3.79046C100.765 3.71568 101.198 3.66717 101.85 3.67241C102.504 3.67767 102.894 3.71234 103.147 3.75906C103.398 3.8054 103.515 3.86357 103.624 3.91866L103.629 3.92144C103.741 3.97781 103.847 4.03184 104.067 4.06447C104.288 4.09719 104.622 4.10847 105.194 4.08272C106.281 4.03372 106.728 3.93349 107.159 3.83679C107.182 3.83164 107.205 3.8265 107.228 3.82137C107.677 3.7212 108.147 3.62761 109.369 3.60401C110.451 3.58311 111.023 3.61562 111.453 3.64001C111.509 3.64319 111.563 3.64623 111.615 3.64899C112.068 3.67315 112.399 3.67633 113.133 3.56931C113.689 3.48837 113.942 3.31497 114.198 3.13985C114.27 3.09026 114.343 3.04054 114.423 2.99274C114.781 2.77789 115.307 2.5828 116.67 2.5828C117.351 2.5828 117.786 2.65358 118.093 2.75676C118.398 2.85953 118.579 2.99528 118.752 3.13196L118.781 3.15522C118.945 3.28503 119.11 3.41577 119.37 3.51024C119.645 3.61015 120.024 3.66853 120.618 3.65133C121.215 3.63407 121.623 3.52413 121.935 3.36665C122.242 3.21137 122.454 3.01122 122.658 2.81765L122.666 2.81047C122.873 2.61417 123.074 2.42532 123.367 2.2841C123.66 2.14312 124.047 2.04812 124.626 2.04805C125.207 2.04798 125.506 2.14799 125.675 2.29124C125.836 2.42815 125.888 2.61055 125.948 2.82069L125.957 2.85033C126.02 3.07017 126.096 3.31117 126.333 3.51328C126.569 3.71438 126.956 3.87162 127.63 3.94568C129.005 4.09703 130.25 3.99422 131.136 3.85801C131.796 3.75661 132.445 4.25198 132.451 4.91218L133.61 128.729L133.61 128.729L133.61 160.95Z"  />
</symbol>
<symbol id="right-2" width="350" height="503" viewBox="0 0 350 503">
<path d="M298.755 303.606L298.76 303.575L298.735 303.557C294.331 300.356 290.267 295.152 286.787 289.075C283.308 282.998 280.414 276.053 278.346 269.375C277.495 266.626 276.598 263.797 275.68 260.904C271.326 247.178 266.512 232.005 264.007 217.001C263.144 211.831 262.383 207.39 261.68 203.285C259.845 192.581 258.401 184.159 256.562 171.035C256.128 167.943 255.683 164.555 255.24 161.05H341.7C341.842 192.189 342.089 223.56 342.504 250.683C342.875 275.019 343.45 293.951 344.026 312.932C344.067 314.27 344.107 315.609 344.148 316.95H297.172C297.67 311.487 298.197 306.953 298.755 303.606Z"  />
</symbol>
<symbol id="right-3" width="350" height="503" viewBox="0 0 350 503">
<path d="M349.715 497.065L335.93 498.637L335.896 498.641L335.887 498.673L335.887 498.674L335.887 498.675L335.886 498.679L335.881 498.697C335.876 498.712 335.87 498.735 335.861 498.764C335.843 498.822 335.818 498.905 335.785 499.005C335.72 499.205 335.626 499.47 335.512 499.736C335.398 500.002 335.265 500.265 335.122 500.461C335.05 500.559 334.977 500.638 334.904 500.693C334.831 500.747 334.761 500.775 334.695 500.775C333.388 500.775 332.572 500.664 331.82 500.541C331.723 500.526 331.628 500.51 331.533 500.494C330.884 500.386 330.239 500.279 329.319 500.24C327.704 500.172 326.397 500.391 325.135 500.603C324.961 500.633 324.788 500.662 324.615 500.69C323.187 500.922 321.765 501.094 319.949 500.775C317.442 500.336 315.838 500.24 313.322 500.24C312.689 500.24 312.082 500.326 311.507 500.423C311.36 500.448 311.215 500.474 311.073 500.5C310.656 500.574 310.259 500.645 309.879 500.683C309.371 500.734 308.901 500.726 308.47 500.59C308.041 500.454 307.648 500.191 307.295 499.725C307.017 499.359 306.468 498.296 306.091 496.99C305.715 495.684 305.515 494.145 305.924 492.822L305.933 492.793L305.911 492.771C305.767 492.631 305.62 492.56 305.481 492.533C305.341 492.506 305.212 492.524 305.102 492.559C304.993 492.594 304.902 492.647 304.839 492.691C304.834 492.695 304.828 492.699 304.823 492.702V484.255V484.228L304.8 484.213L303.168 483.159V478.91V478.872L303.131 478.862L297.101 477.268V471.427V471.392L297.068 471.38L297.051 471.427L297.068 471.38L297.068 471.38L297.067 471.38L297.065 471.379L297.057 471.376L297.025 471.365C296.996 471.354 296.954 471.339 296.899 471.318C296.79 471.276 296.631 471.214 296.434 471.133C296.039 470.969 295.491 470.726 294.877 470.409C293.652 469.776 292.168 468.848 291.113 467.667C291.114 462.057 291.569 453.952 292.096 444.827C292.12 444.409 292.145 443.989 292.169 443.567C292.679 434.764 293.239 425.093 293.516 415.841C293.708 409.46 294.14 402.86 294.588 396.278C294.622 395.772 294.656 395.266 294.691 394.761C295.105 388.689 295.517 382.647 295.748 376.823C296.027 369.805 295.86 362.812 295.701 356.111C295.696 355.93 295.692 355.748 295.688 355.567C295.524 348.701 295.381 342.151 295.748 336.203C296.19 329.053 296.661 322.579 297.163 317.05H344.152C344.675 334.348 345.188 352.013 345.538 374.15C345.747 387.401 345.996 399.325 346.232 410.587C346.812 438.343 347.309 462.076 346.917 491.73C346.839 491.986 346.723 492.225 346.598 492.455C346.545 492.551 346.489 492.648 346.435 492.743C346.361 492.873 346.288 493 346.224 493.123C345.999 493.555 345.861 493.98 346.095 494.434C346.653 495.516 347.629 496.19 348.461 496.594C348.878 496.795 349.26 496.93 349.537 497.014C349.603 497.034 349.662 497.051 349.715 497.065Z"  />
</symbol>
<symbol id="right-1" width="350" height="503" viewBox="0 0 350 503">
<path d="M341.677 1.66357L341.676 1.83361L341.673 2.51069C341.671 3.10834 341.667 3.99537 341.663 5.1529C341.654 7.46795 341.642 10.865 341.629 15.1929C341.603 23.8488 341.572 36.2283 341.552 51.1228C341.512 80.8993 341.518 120.727 341.7 160.95H255.229C254.093 151.949 252.98 142.185 252.15 134.667C251.734 130.903 251.389 127.701 251.149 125.441C251.028 124.311 250.934 123.416 250.87 122.804L250.797 122.103L250.778 121.923L250.773 121.877L250.772 121.865L250.771 121.863L250.771 121.862C250.771 121.862 250.771 121.862 250.724 121.866L250.771 121.862L250.771 121.86L247.152 92.9996L247.152 92.9989L247.152 92.9977L247.152 92.9965L247.151 92.9868L247.148 92.9481L247.135 92.7962L247.087 92.2091C247.045 91.6978 246.985 90.9545 246.91 90.0265C246.76 88.1706 246.553 85.576 246.325 82.6213C245.869 76.7121 245.326 69.3631 244.98 63.6036C244.258 51.557 243.775 36.0574 243.473 23.569C243.322 17.3248 243.216 11.8337 243.148 7.90351C243.114 5.93844 243.09 4.36363 243.074 3.2801C243.066 2.73833 243.06 2.31938 243.056 2.03588L243.051 1.71379L243.051 1.67084L243.068 1.67566C243.121 1.68999 243.198 1.71046 243.294 1.73506C243.486 1.78425 243.755 1.84997 244.06 1.91611C244.67 2.04819 245.433 2.18277 246.033 2.18947C246.64 2.19624 247.119 2.04956 247.584 1.90735C247.612 1.89869 247.641 1.89005 247.669 1.88146C248.161 1.73169 248.645 1.59717 249.269 1.65476C249.847 1.70805 250.292 1.9483 250.741 2.19061C250.761 2.20131 250.781 2.21201 250.801 2.22269C251.269 2.47469 251.747 2.7194 252.376 2.72397C253.001 2.72851 253.482 2.44674 253.945 2.17492C253.959 2.16658 253.973 2.15824 253.988 2.14992C254.467 1.86906 254.933 1.608 255.544 1.65483C256.15 1.70127 256.603 2.07544 257.066 2.45836C257.078 2.46794 257.09 2.47752 257.101 2.4871C257.572 2.87584 258.059 3.2654 258.72 3.25846C259.359 3.25174 259.831 2.84042 260.284 2.44543L260.303 2.42896C260.768 2.02375 261.216 1.64144 261.82 1.65496C262.4 1.66794 262.828 2.03864 263.271 2.43054L263.288 2.44602C263.721 2.82836 264.171 3.22612 264.783 3.2584C265.47 3.29456 265.979 2.9249 266.473 2.53775C266.503 2.5142 266.533 2.49058 266.563 2.46698C267.029 2.09927 267.493 1.73446 268.102 1.65455C268.683 1.57827 269.135 1.71106 269.595 1.86497C269.63 1.87664 269.665 1.88845 269.7 1.90029C270.127 2.04435 270.571 2.19412 271.129 2.18947C271.668 2.18499 272.094 2.04365 272.506 1.90725C272.535 1.89761 272.564 1.888 272.593 1.87846C273.032 1.73378 273.464 1.60546 274.02 1.65478C274.564 1.70297 274.981 1.94433 275.404 2.18915C275.418 2.19742 275.433 2.2057 275.447 2.21397C275.883 2.466 276.329 2.7144 276.919 2.72396C277.537 2.73399 278.006 2.45891 278.462 2.18987L278.467 2.18682C278.924 1.91737 279.369 1.65498 279.954 1.65498C280.524 1.65498 280.962 1.92169 281.409 2.19412C281.421 2.20146 281.433 2.2088 281.445 2.21614C281.901 2.49421 282.371 2.77045 282.991 2.72383C283.5 2.6855 283.882 2.43061 284.252 2.18372L284.256 2.18106C284.63 1.93163 284.992 1.69105 285.473 1.65484C286.057 1.6109 286.501 1.86915 286.959 2.14822C286.974 2.15693 286.988 2.16565 287.002 2.17439C287.444 2.44392 287.904 2.72397 288.503 2.72397C289.118 2.72397 289.586 2.4508 290.041 2.18497L290.045 2.18264C290.503 1.9147 290.949 1.65498 291.536 1.65498C292.123 1.65498 292.569 1.9147 293.028 2.18264L293.032 2.18497C293.487 2.4508 293.954 2.72397 294.57 2.72397C295.185 2.72397 295.653 2.4508 296.108 2.18497L296.112 2.18264C296.57 1.9147 297.016 1.65498 297.603 1.65498C298.19 1.65498 298.636 1.91253 299.095 2.17927L299.103 2.1841C299.557 2.44799 300.023 2.71932 300.636 2.72397C301.263 2.72872 301.74 2.45258 302.204 2.18408L302.213 2.17909C302.682 1.90764 303.139 1.64567 303.738 1.65497C304.312 1.66387 304.748 1.91719 305.196 2.17941L305.204 2.18412C305.647 2.44357 306.103 2.71029 306.702 2.72396C307.346 2.73863 307.836 2.46404 308.314 2.19373L308.324 2.18789C308.801 1.91832 309.266 1.65498 309.875 1.65498C310.484 1.65498 310.949 1.91832 311.426 2.18789L311.436 2.19373C311.914 2.46404 312.404 2.73863 313.048 2.72396C313.647 2.71029 314.103 2.44357 314.546 2.18412L314.554 2.17941C315.002 1.91719 315.438 1.66387 316.012 1.65497C316.611 1.64567 317.068 1.90764 317.537 2.17909L317.546 2.18407C318.01 2.45258 318.487 2.72872 319.114 2.72397C319.73 2.7193 320.197 2.47715 320.655 2.22649C320.677 2.21454 320.698 2.20257 320.72 2.19061C321.157 1.95077 321.591 1.71272 322.152 1.65471C322.788 1.58896 323.283 1.73802 323.786 1.89754L323.831 1.91188C324.319 2.06692 324.82 2.22597 325.459 2.18939C326.169 2.14875 326.714 1.89706 327.25 1.65015L327.27 1.64093C327.812 1.39067 328.346 1.14793 329.043 1.12044C329.597 1.09861 330.033 1.2494 330.471 1.40104C330.495 1.4093 330.519 1.41756 330.543 1.4258C331.005 1.58502 331.475 1.73402 332.081 1.65455C332.721 1.57068 333.205 1.19056 333.669 0.827001C333.699 0.803462 333.729 0.779992 333.759 0.756676C334.255 0.370028 334.736 0.0248231 335.382 0.0514441C335.978 0.0760381 336.421 0.386149 336.874 0.740118C336.916 0.772564 336.957 0.805389 336.999 0.838377C337.41 1.16297 337.842 1.50333 338.405 1.65329C339.053 1.82597 339.887 1.82543 340.555 1.78274C340.89 1.76135 341.185 1.72926 341.396 1.70253C341.502 1.68916 341.586 1.67712 341.645 1.66841C341.656 1.66666 341.667 1.66503 341.677 1.66357Z"  />
</symbol>
</svg>
