<svg width="351" height="503" viewBox="0 0 351 503" fill="none" xmlns="http://www.w3.org/2000/svg">
<symbol id="left-2" width="350" height="503" viewBox="0 0 350 503">
<path d="M90.9249 500.648C87.2411 500.299 84.3548 500.364 81.4687 500.485C81.0655 500.502 80.6623 500.52 80.257 500.538C77.7467 500.65 75.154 500.766 71.9598 500.653C69.1385 500.553 66.7696 500.015 64.5136 499.503C63.7758 499.336 63.05 499.171 62.3244 499.025C59.3812 498.434 56.4498 498.158 52.7551 499.287C52.0618 499.499 51.5254 499.731 50.9953 499.961L50.9517 499.98C50.4239 500.209 49.898 500.434 49.2219 500.636L49.2861 4.16129C49.8696 4.25575 50.2171 4.51444 50.5885 4.79102C50.6557 4.84108 50.7237 4.89172 50.7941 4.94208C51.2676 5.28112 51.833 5.59408 52.941 5.59408C53.4944 5.59408 53.8618 5.5025 54.1395 5.36116C54.404 5.22654 54.5836 5.04821 54.761 4.87213C54.7694 4.86382 54.7778 4.85551 54.7861 4.84721C54.9723 4.66271 55.1618 4.48114 55.4547 4.34075C55.7475 4.20032 56.1474 4.0995 56.7542 4.08479C57.3626 4.07003 57.7263 4.13572 57.9722 4.2389C58.2095 4.33845 58.3411 4.47423 58.4819 4.61952C58.4862 4.62402 58.4906 4.62853 58.495 4.63306C58.6418 4.78443 58.8004 4.94269 59.0938 5.06119C59.3854 5.17901 59.8066 5.25621 60.4781 5.25621C61.151 5.25621 61.5771 5.15539 61.8753 5.00616C62.1682 4.8596 62.3334 4.66823 62.4843 4.49343L62.4934 4.48286C62.6468 4.30525 62.7863 4.14804 63.0352 4.05373C63.2854 3.95889 63.6523 3.92565 64.2625 4.01587C64.8725 4.10605 65.1958 4.2481 65.385 4.40459C65.5549 4.54519 65.6208 4.70013 65.6885 4.85935C65.6959 4.87661 65.7032 4.89391 65.7107 4.91126C65.7882 5.08998 65.8809 5.26618 66.1393 5.39347C66.3927 5.51829 66.8013 5.59408 67.5036 5.59408C68.208 5.59408 68.6692 5.50575 69.0055 5.36679C69.3426 5.22747 69.5502 5.03871 69.7478 4.84678C69.7639 4.8311 69.78 4.81542 69.796 4.79975C69.9764 4.6236 70.1555 4.44873 70.4294 4.30027C70.7274 4.13879 71.1406 4.00728 71.7913 3.94781C72.4448 3.88807 72.8296 3.907 73.0823 3.96311C73.3288 4.01785 73.4513 4.10821 73.5804 4.20335L73.5853 4.20701C73.7198 4.30613 73.8618 4.40888 74.1438 4.47049C74.4228 4.53144 74.8371 4.55183 75.5178 4.49498C76.879 4.38129 77.2596 4.24374 77.5869 4.12499C77.7473 4.06678 77.8917 4.01446 78.1376 3.97203C78.3845 3.92942 78.7347 3.89667 79.3051 3.8796C79.8743 3.86257 80.2382 3.89249 80.5024 3.94595C80.764 3.99888 80.9298 4.07515 81.1045 4.15555L81.108 4.15716C81.2853 4.23876 81.4717 4.324 81.7699 4.38824C82.0672 4.45229 82.474 4.49515 83.0941 4.49515C83.7139 4.49515 84.1166 4.4566 84.4078 4.39689C84.7002 4.33694 84.8787 4.25592 85.0489 4.17388C85.0608 4.16813 85.0727 4.16238 85.0845 4.15663C85.2405 4.08111 85.3943 4.00665 85.634 3.94539C85.8925 3.87929 86.2527 3.82824 86.8219 3.81121C87.3916 3.79416 87.7264 3.82851 87.9441 3.8875C88.1586 3.94567 88.2608 4.02808 88.3661 4.11593L88.3746 4.12308C88.4807 4.21166 88.5933 4.30572 88.8169 4.37635C89.0371 4.44593 89.3631 4.49232 89.8972 4.49503L90.9249 500.648Z" fill="white" stroke="#D9D9D9" stroke-width="0.1"/>
</symbol>
<symbol id="left-3" width="350" height="503" viewBox="0 0 350 503">
<path d="M134.782 253.938L134.782 253.939L140.95 485.923L140.95 485.925L140.531 498.868C140.478 500.486 139.179 501.782 137.561 501.811C134.573 501.864 129.894 501.906 126.44 501.745C123.736 501.619 121.471 500.937 119.31 500.287C118.664 500.093 118.028 499.901 117.391 499.728C114.627 498.976 111.878 498.576 108.431 499.828C107.421 500.195 106.654 500.687 105.903 501.169L105.772 501.253C104.978 501.762 104.187 502.25 103.123 502.568C100.791 503.263 98.9521 502.902 97.0977 502.306C96.6784 502.172 96.2578 502.025 95.8304 501.876C94.3718 501.367 92.8331 500.83 90.9893 500.652L89.9953 500.055V251.763L90.05 4.49298C90.5889 4.48995 90.9773 4.43786 91.2924 4.36159C91.5886 4.28991 91.8189 4.19705 92.045 4.10587C92.0666 4.09717 92.0881 4.08848 92.1097 4.07982C92.6008 3.88272 93.116 3.69634 94.3337 3.74077C94.9449 3.76308 95.3017 3.82105 95.5317 3.89377C95.7546 3.96426 95.8596 4.04886 95.9657 4.13438L95.972 4.13945C96.0842 4.22981 96.1997 4.32026 96.4428 4.3864C96.6828 4.45169 97.046 4.49312 97.6549 4.49312C98.2651 4.49312 98.6721 4.44029 98.9803 4.36032C99.2746 4.28396 99.4771 4.18324 99.6765 4.08403C99.6861 4.07923 99.6958 4.07444 99.7054 4.06965C99.9136 3.96624 100.125 3.86508 100.445 3.79046C100.767 3.71568 101.2 3.66717 101.852 3.67241C102.505 3.67767 102.895 3.71234 103.149 3.75906C103.4 3.8054 103.517 3.86357 103.626 3.91866L103.631 3.92145C103.742 3.97781 103.849 4.03184 104.069 4.06447C104.289 4.09719 104.624 4.10847 105.195 4.08272C106.283 4.03372 106.73 3.93348 107.161 3.83679C107.184 3.83164 107.207 3.8265 107.23 3.82137C107.679 3.7212 108.149 3.62761 109.37 3.60401C110.452 3.58311 111.025 3.61562 111.455 3.64001C111.511 3.64319 111.564 3.64623 111.616 3.64899C112.07 3.67315 112.4 3.67633 113.135 3.56931C113.69 3.48837 113.944 3.31497 114.199 3.13984C114.272 3.09026 114.344 3.04054 114.424 2.99274C114.783 2.77789 115.309 2.5828 116.672 2.5828C117.353 2.5828 117.788 2.65358 118.094 2.75676C118.4 2.85953 118.58 2.99528 118.753 3.13196C118.763 3.1397 118.773 3.14745 118.783 3.1552C118.947 3.28502 119.112 3.41576 119.372 3.51024C119.647 3.61015 120.025 3.66853 120.62 3.65133C121.217 3.63407 121.624 3.52413 121.936 3.36665C122.244 3.21137 122.455 3.01123 122.66 2.81767L122.667 2.81047C122.875 2.61417 123.076 2.42532 123.369 2.2841C123.662 2.14312 124.049 2.04812 124.628 2.04805C125.209 2.04798 125.507 2.14799 125.676 2.29124C125.838 2.42815 125.89 2.61055 125.95 2.82069C125.953 2.83051 125.956 2.8404 125.958 2.85034C126.021 3.07017 126.098 3.31117 126.335 3.51328C126.57 3.71438 126.958 3.87162 127.631 3.94568C129.007 4.09703 130.251 3.99422 131.138 3.85801C131.798 3.75662 132.447 4.25198 132.453 4.91219L134.782 253.938Z" fill="white" stroke="#D9D9D9" stroke-width="0.1"/>
</symbol>
<symbol id="left-1" width="350" height="503" viewBox="0 0 350 503">
<path d="M9.63336 317.137L9.63769 317.137C9.64417 317.137 9.64417 317.137 9.64417 317.137L9.64418 317.135L9.64423 317.13L9.6444 317.109L9.6451 317.026L9.64784 316.698L9.65842 315.434L9.69762 310.733C9.73088 306.737 9.77723 301.151 9.82954 294.794C9.93416 282.081 10.0626 266.282 10.1581 253.943C10.8802 160.634 11.6334 17.22 11.6959 5.24547C11.6984 4.7608 12.0519 4.43938 12.5446 4.38762C14.0271 4.23188 17.042 4.00297 19.1572 4.42406C19.7738 4.54683 20.0353 4.83387 20.3335 5.16134C20.3878 5.22101 20.4434 5.28203 20.5026 5.34364C20.6947 5.54367 20.9226 5.74655 21.2662 5.92042C21.6094 6.09406 22.0657 6.23759 22.7139 6.3226C23.364 6.40787 23.7817 6.33188 24.0817 6.1614C24.3807 5.99148 24.5551 5.73139 24.7249 5.46937C24.7312 5.45963 24.7375 5.44989 24.7439 5.44015C24.9086 5.18572 25.0737 4.93059 25.348 4.73065C25.6313 4.52405 26.0359 4.37352 26.6851 4.35661C27.3384 4.3396 27.7457 4.40816 28.0251 4.51742C28.3029 4.62605 28.4581 4.7763 28.606 4.93315C28.6192 4.94707 28.6323 4.96107 28.6454 4.97513C28.7807 5.11977 28.9209 5.2696 29.15 5.38435C29.4013 5.51026 29.7555 5.59234 30.3244 5.59234C30.8938 5.59234 31.2523 5.50584 31.5126 5.37353C31.7415 5.25717 31.8916 5.10638 32.0382 4.95909C32.0578 4.93935 32.0774 4.91968 32.0971 4.90016C32.2638 4.73495 32.4434 4.57543 32.7517 4.45998C33.0615 4.34399 33.5047 4.27121 34.1994 4.28822C34.8954 4.30527 35.306 4.38279 35.5716 4.48962C35.8343 4.59529 35.9578 4.73057 36.0784 4.87441C36.0865 4.88402 36.0945 4.89369 36.1026 4.9034C36.2173 5.04104 36.3391 5.18713 36.5778 5.3098C36.8317 5.44029 37.2143 5.54286 37.8589 5.59219C38.5034 5.64152 38.9091 5.59781 39.1952 5.49634C39.4833 5.39416 39.6456 5.23487 39.8044 5.06666C39.8161 5.05425 39.8278 5.04181 39.8395 5.02933C39.986 4.87324 40.1371 4.71229 40.3928 4.5711C40.6691 4.41848 41.0707 4.28752 41.7227 4.21958C42.3771 4.15137 42.8089 4.14876 43.1247 4.18233C43.4394 4.21577 43.6406 4.28524 43.8348 4.36379C43.8676 4.37705 43.9003 4.39063 43.9334 4.40439C44.0972 4.47237 44.2709 4.54446 44.5117 4.60217C44.8015 4.67161 45.1875 4.7202 45.7749 4.7202C46.9517 4.7202 47.4664 4.52649 47.866 4.35701C47.8869 4.34819 47.9073 4.33947 47.9274 4.33088C48.0995 4.25738 48.2495 4.19331 48.431 4.15505C48.6242 4.1143 48.855 4.10263 49.1844 4.14517L49.1201 500.663C46.2851 501.482 44.0283 501.059 41.7543 500.537C41.5849 500.498 41.4154 500.459 41.2455 500.419C39.1258 499.926 36.9515 499.42 34.2573 499.831C33.5239 499.943 32.9466 500.088 32.3797 500.231L32.2832 500.256C31.6849 500.406 31.0883 500.552 30.318 500.651C28.29 500.913 26.7044 500.632 25.1118 500.323L24.8985 500.281C23.3754 499.984 21.8269 499.682 19.8699 499.83C18.826 499.909 18.0157 500.064 17.2078 500.224L17.0882 500.248C16.3199 500.401 15.5437 500.555 14.5577 500.651C11.7227 500.928 8.08604 500.722 5.15597 500.447C3.69139 500.309 2.40418 500.154 1.48315 500.033C1.04471 499.975 0.689274 499.926 0.437197 499.89C0.465404 499.886 0.49472 499.882 0.525064 499.878C0.84266 499.835 1.27374 499.752 1.72703 499.593C2.6325 499.276 3.63571 498.653 3.9885 497.432C4.86056 494.413 4.952 491.196 4.86605 487.709C4.8422 486.742 4.80471 485.754 4.76636 484.743C4.66643 482.11 4.56072 479.325 4.67572 476.355C4.95117 469.243 5.23141 463.916 5.52443 458.346C5.74696 454.116 5.97686 449.746 6.21763 444.348C7.33177 419.367 7.94603 405.354 8.6162 380.332C8.94652 367.999 9.20351 352.201 9.37792 339.485C9.46512 333.127 9.53169 327.54 9.57645 323.543C9.59883 321.544 9.61576 319.943 9.62709 318.841L9.63988 317.576L9.64309 317.248L9.6439 317.165L9.6441 317.144L9.64415 317.139L9.64416 317.137C9.64416 317.137 9.64416 317.137 9.63336 317.137Z" fill="white" stroke="#D9D9D9" stroke-width="0.1"/>
</symbol>
<symbol id="right-2" width="350" height="503" viewBox="0 0 350 503">
<path d="M278.125 2.54856C278.365 2.53872 278.537 2.48785 278.67 2.41218C278.826 2.32436 278.926 2.20531 279.021 2.09287L279.021 2.09285C279.117 1.97936 279.207 1.87249 279.345 1.79217C279.482 1.71235 279.671 1.6566 279.966 1.6566C280.536 1.6566 280.974 1.92332 281.421 2.19575C281.433 2.20309 281.445 2.21043 281.457 2.21777C281.914 2.49584 282.384 2.77208 283.004 2.72546C283.513 2.68713 283.895 2.43225 284.266 2.18534L284.27 2.18269C284.643 1.93326 285.006 1.69268 285.487 1.65646C286.071 1.61252 286.516 1.87078 286.974 2.14985C286.988 2.15856 287.003 2.16729 287.017 2.17603C287.459 2.44555 287.919 2.7256 288.518 2.7256C289.133 2.7256 289.601 2.45243 290.056 2.18661L290.06 2.18427C290.519 1.91633 290.965 1.6566 291.552 1.6566C292.139 1.6566 292.586 1.91633 293.044 2.18427L293.048 2.18661C293.503 2.45243 293.971 2.7256 294.587 2.7256C295.202 2.7256 295.67 2.45243 296.125 2.1866L296.129 2.18427C296.588 1.91633 297.034 1.6566 297.621 1.6566C298.208 1.6566 298.655 1.91416 299.113 2.1809L299.122 2.18574C299.575 2.44962 300.042 2.72094 300.655 2.7256C301.282 2.73035 301.76 2.45422 302.224 2.18571L302.232 2.18072C302.702 1.90927 303.159 1.6473 303.758 1.6566C304.333 1.6655 304.769 1.91882 305.217 2.18104L305.225 2.18575C305.656 2.43811 306.099 2.69735 306.675 2.7239L306.675 146L306.675 146.003L308.45 175.503L308.45 175.503L308.451 175.509L315.451 215.509L315.451 215.51L316.451 220.51L316.451 220.512L327.451 265.512L327.452 265.513L331.95 282.507L331.952 282.513L334.45 300.503V336.5L334.675 500.776C333.397 500.774 332.592 500.664 331.849 500.543C331.753 500.528 331.658 500.512 331.563 500.496C330.913 500.388 330.268 500.281 329.348 500.242C327.732 500.174 326.425 500.393 325.162 500.605C324.988 500.634 324.815 500.663 324.643 500.692C323.214 500.924 321.791 501.096 319.975 500.777C317.467 500.338 315.863 500.242 313.345 500.242C312.712 500.242 312.105 500.327 311.53 500.425C311.383 500.45 311.238 500.476 311.096 500.501C310.679 500.576 310.281 500.647 309.901 500.685C309.393 500.736 308.923 500.728 308.492 500.592C308.067 500.458 307.677 500.198 307.326 499.74L306.55 472.999L306.55 472.999L306.05 443.001L306.55 397.501V397.5L306.55 356L306.55 355.999L306.05 328.001L306.05 327.999L306.55 317.002L306.55 316.999L306.05 298.499L306.05 298.494L304.05 282.494L304.05 282.494L304.049 282.488L298.049 257.988L298 258L298.049 257.988L291.049 229.988L291.048 229.987L288.549 220.49L288.548 220.487L288.049 217.99L288.049 217.99L288.047 217.984L287.549 216.488L286.049 207.492L286.049 207.491L284.549 199.492L284.549 199.491L283.049 190.492L283.049 190.492L282.049 183.992L282.049 183.992L281.049 177.992L281.05 177.992L281.048 177.986L280.051 174.498L280.549 172.01L280.551 172.001L280.549 171.992L280.05 168.838L280.05 166L280.05 165.996L278.237 143.5V143.498V35V12.5V2.6756V2.65393L278.222 2.63911L278.125 2.54856Z" fill="white" stroke="#D9D9D9" stroke-width="0.1"/>
</symbol>
<symbol id="right-3" width="350" height="503" viewBox="0 0 350 503">
<path d="M298.774 303.603L298.779 303.573L298.754 303.555C294.348 300.354 290.283 295.149 286.802 289.072C283.322 282.996 280.426 276.051 278.358 269.373C277.507 266.623 276.609 263.795 275.691 260.902C271.335 247.175 266.521 232.003 264.015 216.999C263.152 211.828 262.39 207.388 261.686 203.282C259.851 192.579 258.407 184.156 256.567 171.033C255.235 161.529 253.786 149.237 252.671 139.319C252.114 134.361 251.639 129.996 251.304 126.871C251.137 125.309 251.004 124.056 250.914 123.194C250.868 122.763 250.833 122.43 250.81 122.205L250.783 121.948L250.776 121.883L250.775 121.867L250.774 121.863L250.774 121.862C250.774 121.861 250.774 121.861 250.772 121.862C250.768 121.862 250.758 121.863 250.731 121.866L250.774 121.861L250.774 121.86L247.153 92.9992L247.153 92.9986L247.153 92.9973L247.153 92.9962L247.152 92.9864L247.149 92.9478L247.137 92.7959L247.088 92.2088C247.046 91.6975 246.986 90.9542 246.911 90.0262C246.761 88.1702 246.555 85.5756 246.326 82.621C245.87 76.7117 245.326 69.3627 244.981 63.6032C244.258 51.5567 243.776 36.057 243.473 23.5686C243.322 17.3245 243.217 11.8333 243.148 7.90316C243.114 5.93809 243.09 4.36328 243.074 3.27975C243.066 2.73798 243.06 2.31904 243.056 2.03553L243.051 1.71344L243.051 1.67049L243.069 1.67532C243.121 1.68965 243.198 1.71012 243.294 1.73471C243.486 1.7839 243.755 1.84963 244.06 1.91577C244.671 2.04785 245.434 2.18243 246.034 2.18912C246.641 2.1959 247.121 2.04921 247.586 1.90701C247.614 1.89835 247.642 1.88971 247.67 1.88112C248.162 1.73135 248.647 1.59683 249.271 1.65442C249.849 1.7077 250.294 1.94796 250.744 2.19027C250.764 2.20096 250.784 2.21166 250.803 2.22235C251.272 2.47434 251.75 2.71905 252.379 2.72362C253.005 2.72817 253.485 2.44639 253.949 2.17458C253.963 2.16623 253.977 2.1579 253.991 2.14958C254.471 1.86872 254.937 1.60766 255.548 1.65448C256.154 1.70093 256.607 2.0751 257.071 2.45802C257.083 2.4676 257.094 2.47718 257.106 2.48676C257.577 2.8755 258.064 3.26506 258.725 3.25812C259.365 3.2514 259.837 2.84008 260.29 2.44508L260.309 2.42862C260.774 2.02341 261.222 1.64109 261.827 1.65462C262.407 1.66759 262.834 2.0383 263.278 2.4302L263.295 2.44568C263.728 2.82802 264.178 3.22577 264.791 3.25805C265.477 3.29421 265.986 2.92456 266.48 2.53741C266.51 2.51386 266.54 2.49024 266.57 2.46664C267.037 2.09892 267.501 1.73411 268.11 1.65421C268.692 1.57793 269.144 1.71072 269.604 1.86462C269.639 1.8763 269.674 1.8881 269.709 1.89994C270.136 2.044 270.58 2.19377 271.139 2.18913C271.678 2.18464 272.104 2.04331 272.516 1.90691C272.545 1.89727 272.574 1.88766 272.603 1.87812C273.042 1.73343 273.474 1.60512 274.03 1.65444C274.571 1.70233 275.002 1.90125 275.437 2.10177C275.457 2.11083 275.476 2.11989 275.496 2.12895C275.95 2.33777 276.412 2.54047 276.999 2.54999L276.999 2.55057L277.007 2.54955L278.226 2.38447V3.43097V6.43097V13.2882V127.431V131.931V138.711V143.931H278.226L278.227 143.936L278.727 148.935L278.727 148.936L279.226 155.434L279.227 155.435L279.726 163.934L279.726 163.934L280.226 171.931V171.933V174.431H280.226L280.227 174.44L281.727 182.439L281.727 182.44L282.727 188.939L282.727 188.94L284.227 197.44L285.727 205.94L287.227 214.438L287.227 214.44L287.727 217.938L287.726 217.938L287.728 217.945L288.728 221.443L288.728 221.445L290.228 227.443L291.728 233.443L292.728 237.443L293.728 241.443L295.228 247.443L295.228 247.444L298.228 258.942L298.228 258.944L301.728 273.942L301.728 273.943L303.727 281.941L303.728 281.943L304.727 286.937L304.727 286.941L306.226 298.931V298.934V399.431L306.226 449.431L306.226 449.432L307.223 499.592C306.928 499.14 306.45 498.163 306.112 496.99C305.736 495.684 305.535 494.144 305.945 492.822L305.954 492.793L305.932 492.771C305.788 492.631 305.641 492.56 305.501 492.533C305.362 492.505 305.233 492.524 305.123 492.559C305.014 492.594 304.923 492.647 304.86 492.691C304.854 492.695 304.849 492.699 304.844 492.702V484.255V484.228L304.821 484.213L303.188 483.159V478.91V478.872L303.151 478.862L297.119 477.268V471.427V471.392L297.086 471.38L297.085 471.38L297.083 471.379L297.075 471.376L297.043 471.364C297.014 471.354 296.972 471.338 296.917 471.318C296.808 471.276 296.649 471.214 296.451 471.133C296.057 470.969 295.509 470.726 294.894 470.408C293.669 469.775 292.185 468.848 291.128 467.667C291.13 462.057 291.585 453.952 292.113 444.827L292.186 443.567C292.695 434.764 293.256 425.093 293.533 415.841C293.725 409.46 294.157 402.86 294.605 396.278C294.639 395.772 294.674 395.266 294.708 394.76C295.122 388.688 295.534 382.647 295.766 376.823C296.045 369.805 295.878 362.812 295.718 356.111L295.705 355.567C295.541 348.701 295.398 342.151 295.766 336.203C296.648 321.929 297.648 310.353 298.774 303.603Z" fill="white" stroke="#D9D9D9" stroke-width="0.1"/>
</symbol>
<symbol id="right-1" width="350" height="503" viewBox="0 0 350 503">
<path d="M349.75 497.065L335.96 498.637L335.927 498.641L335.918 498.673L335.966 498.687L335.918 498.673L335.918 498.674L335.917 498.675L335.916 498.679L335.911 498.697L335.899 498.738L335.891 498.764C335.874 498.822 335.848 498.906 335.816 499.005C335.75 499.205 335.656 499.471 335.542 499.736C335.428 500.002 335.295 500.265 335.152 500.461C335.08 500.559 335.007 500.638 334.934 500.693C334.879 500.734 334.826 500.76 334.774 500.77L334.464 463.5V417V370.5V335.25V300H334.465L334.464 299.993L331.964 282.993L331.963 282.988L323.463 248.488L323.463 248.488L315.963 218.992L315.963 218.988L308.464 175.494L306.464 145V144.998V119.5V2.72397H307.186V2.7251L307.197 2.72286L308.01 2.54889L308.011 2.5505L308.022 2.54472L309.02 2.0457L310 1.65874L310.979 2.04557L312.28 2.71838L312.291 2.72397H312.303H313.264V2.72446L313.271 2.72348L314.507 2.54951L314.517 2.54814L314.525 2.54319L316.048 1.65481C316.642 1.64947 317.096 1.90961 317.561 2.1791L317.57 2.18409C318.034 2.45259 318.511 2.72872 319.139 2.72397C319.754 2.7193 320.222 2.47715 320.68 2.2265C320.702 2.21455 320.724 2.20258 320.745 2.19062C321.182 1.95078 321.616 1.71272 322.178 1.65471C322.814 1.58896 323.309 1.73802 323.812 1.89754C323.827 1.90232 323.842 1.9071 323.857 1.91189C324.346 2.06692 324.847 2.22596 325.486 2.18939C326.196 2.14876 326.742 1.89707 327.277 1.65016L327.297 1.64093C327.84 1.39067 328.374 1.14793 329.071 1.12044C329.625 1.09861 330.061 1.2494 330.499 1.40104C330.523 1.4093 330.547 1.41756 330.571 1.4258C331.033 1.58502 331.504 1.73402 332.11 1.65455C332.75 1.57068 333.235 1.19056 333.699 0.826997C333.729 0.80346 333.759 0.779993 333.789 0.756681C334.284 0.370034 334.766 0.0248226 335.412 0.0514442C336.009 0.0760385 336.452 0.386155 336.905 0.740123C336.946 0.772565 336.988 0.805386 337.03 0.83837C337.441 1.16297 337.872 1.50333 338.436 1.65329C339.084 1.82597 339.919 1.82543 340.587 1.78274C340.922 1.76135 341.217 1.72926 341.428 1.70253C341.534 1.68916 341.618 1.67712 341.677 1.66841C341.688 1.66665 341.699 1.66503 341.709 1.66356L341.709 1.71519L341.707 2.04332L341.702 3.33378C341.698 4.46964 341.691 6.14824 341.684 8.31917C341.669 12.661 341.649 18.9722 341.629 26.8494C341.591 42.6039 341.555 64.6227 341.566 89.6801C341.587 139.795 341.794 202.064 342.537 250.681C342.905 274.798 343.473 293.607 344.044 312.417L344.06 312.931C344.626 331.569 345.193 350.255 345.571 374.15C345.781 387.401 346.03 399.325 346.266 410.587C346.846 438.344 347.343 462.076 346.951 491.731C346.873 491.986 346.757 492.225 346.632 492.455C346.579 492.552 346.523 492.648 346.469 492.744C346.394 492.873 346.321 493 346.257 493.123C346.033 493.555 345.894 493.98 346.128 494.434C346.687 495.516 347.663 496.191 348.496 496.594C348.913 496.796 349.294 496.93 349.572 497.014C349.638 497.034 349.697 497.051 349.75 497.065Z" fill="white" stroke="#D9D9D9" stroke-width="0.1"/>
</symbol>
</svg>
