<svg width="351" height="503" viewBox="0 0 351 503" fill="none" xmlns="http://www.w3.org/2000/svg">
<symbol id="left-2" width="350" height="503" viewBox="0 0 350 503">
<path d="M134.783 253.938L134.783 253.939L140.95 485.922L140.95 485.925L140.531 498.868C140.479 500.486 139.179 501.782 137.562 501.811C134.573 501.864 129.895 501.906 126.44 501.745C123.736 501.619 121.472 500.937 119.311 500.287C118.665 500.093 118.028 499.901 117.392 499.728C114.627 498.976 111.878 498.576 108.431 499.828C107.421 500.195 106.654 500.687 105.903 501.169L105.773 501.253C104.979 501.762 104.187 502.25 103.123 502.568C100.791 503.263 98.9523 502.902 97.098 502.306C96.6786 502.172 96.2581 502.025 95.8306 501.876C94.3691 501.366 92.8271 500.828 90.9782 500.651C87.2682 500.296 84.3675 500.362 81.4672 500.483C81.0639 500.5 80.6608 500.518 80.2554 500.536C77.7454 500.648 75.1529 500.764 71.9591 500.651C71.9588 500.651 71.9585 500.651 71.9583 500.651L71.05 500.594V4.04381L71.7907 3.94568C72.4436 3.88605 72.8282 3.90499 73.0807 3.96108C73.3272 4.01582 73.4498 4.10618 73.5788 4.20132L73.5838 4.20498C73.7182 4.3041 73.8602 4.40685 74.1422 4.46845C74.4213 4.52941 74.8356 4.5498 75.5162 4.49295C76.8774 4.37926 77.258 4.24171 77.5853 4.12296C77.7457 4.06475 77.8902 4.01243 78.136 3.97C78.383 3.92739 78.7332 3.89464 79.3035 3.87757C79.8727 3.86054 80.2366 3.89046 80.5009 3.94392C80.7625 3.99685 80.9282 4.07312 81.1029 4.15352L81.1064 4.15513C81.2838 4.23673 81.4701 4.32197 81.7683 4.38621C82.0656 4.45025 82.4725 4.49312 83.0926 4.49312C83.7123 4.49312 84.115 4.45457 84.4063 4.39486C84.6987 4.3349 84.8772 4.25389 85.0473 4.17185C85.0593 4.1661 85.0711 4.16035 85.083 4.1546C85.239 4.07908 85.3928 4.00462 85.6324 3.94336C85.891 3.87726 86.2511 3.82621 86.8204 3.80918C87.39 3.79213 87.7249 3.82647 87.9425 3.88547C88.1571 3.94364 88.2593 4.02604 88.3645 4.1139L88.3731 4.12105C88.4791 4.20963 88.5917 4.30369 88.8153 4.37432C89.0424 4.44603 89.3817 4.49312 89.9455 4.49312C91.029 4.49312 91.5257 4.29826 92.0155 4.10609C92.0377 4.09738 92.0599 4.08867 92.0821 4.07999C92.5872 3.88273 93.1162 3.69634 94.3339 3.74077C94.9451 3.76308 95.3019 3.82105 95.5319 3.89377C95.7548 3.96426 95.8598 4.04886 95.966 4.13438L95.9723 4.13945C96.0845 4.22981 96.1999 4.32026 96.443 4.3864C96.683 4.45169 97.0463 4.49312 97.6551 4.49312C98.2654 4.49312 98.6723 4.44029 98.9805 4.36032C99.2748 4.28396 99.4773 4.18324 99.6767 4.08403C99.6863 4.07923 99.696 4.07444 99.7056 4.06965C99.9138 3.96624 100.125 3.86508 100.445 3.79046C100.767 3.71568 101.2 3.66717 101.852 3.67241C102.506 3.67767 102.895 3.71234 103.149 3.75906C103.4 3.8054 103.517 3.86357 103.626 3.91866L103.631 3.92145C103.743 3.97781 103.849 4.03184 104.069 4.06447C104.29 4.09719 104.624 4.10847 105.196 4.08272C106.283 4.03372 106.73 3.93348 107.161 3.83679C107.184 3.83164 107.207 3.8265 107.23 3.82137C107.679 3.7212 108.149 3.62761 109.37 3.60401C110.452 3.58311 111.025 3.61562 111.455 3.64001C111.511 3.64319 111.565 3.64623 111.617 3.64899C112.07 3.67315 112.401 3.67633 113.135 3.56931C113.69 3.48837 113.944 3.31497 114.2 3.13984C114.272 3.09026 114.345 3.04054 114.424 2.99274C114.783 2.77789 115.309 2.5828 116.672 2.5828C117.353 2.5828 117.788 2.65358 118.094 2.75676C118.4 2.85953 118.581 2.99528 118.754 3.13196C118.763 3.1397 118.773 3.14745 118.783 3.15521C118.947 3.28502 119.112 3.41577 119.372 3.51024C119.647 3.61015 120.025 3.66853 120.62 3.65133C121.217 3.63407 121.625 3.52413 121.937 3.36665C122.244 3.21137 122.456 3.01123 122.66 2.81767L122.668 2.81047C122.875 2.61417 123.076 2.42532 123.369 2.2841C123.662 2.14312 124.049 2.04812 124.628 2.04805C125.209 2.04798 125.508 2.14799 125.677 2.29124C125.838 2.42815 125.89 2.61055 125.95 2.82069C125.953 2.83051 125.956 2.8404 125.959 2.85034C126.022 3.07017 126.098 3.31117 126.335 3.51328C126.571 3.71438 126.958 3.87162 127.631 3.94568C129.007 4.09703 130.251 3.99422 131.138 3.85801C131.798 3.75662 132.447 4.25198 132.453 4.91219L134.783 253.938Z" fill="white" stroke="#D9D9D9" stroke-width="0.1"/>
</symbol>
<symbol id="left-1" width="350" height="503" viewBox="0 0 350 503">
<path d="M70.95 4.08144V500.596C68.5625 500.421 66.4944 499.951 64.513 499.502C63.6454 499.305 62.7945 499.112 61.9406 498.949C59.1242 498.411 56.288 498.205 52.7533 499.285C52.06 499.497 51.5236 499.729 50.9935 499.959L50.95 499.978C50.4056 500.214 49.8632 500.446 49.1561 500.653C46.3042 501.485 44.0379 501.061 41.7543 500.537C41.5849 500.498 41.4154 500.459 41.2455 500.419C39.1258 499.926 36.9515 499.42 34.2573 499.831C33.5239 499.943 32.9466 500.088 32.3797 500.231L32.2832 500.256C31.6849 500.406 31.0883 500.552 30.318 500.651C28.29 500.913 26.7044 500.632 25.1118 500.322L24.8985 500.281C23.3754 499.984 21.8269 499.682 19.8699 499.83C18.826 499.909 18.0157 500.064 17.2078 500.224L17.0882 500.248C16.3199 500.4 15.5437 500.555 14.5577 500.651C11.7227 500.928 8.08604 500.722 5.15597 500.447C3.69139 500.309 2.40418 500.154 1.48315 500.033C1.04471 499.975 0.689274 499.926 0.437197 499.89C0.465404 499.886 0.49472 499.882 0.525064 499.878C0.84266 499.835 1.27374 499.752 1.72703 499.593C2.6325 499.276 3.63571 498.653 3.9885 497.432C4.86056 494.413 4.952 491.196 4.86605 487.709C4.8422 486.742 4.80471 485.754 4.76636 484.743C4.66643 482.11 4.56072 479.325 4.67572 476.355C4.95117 469.243 5.23141 463.916 5.52443 458.346C5.74696 454.116 5.97686 449.746 6.21763 444.348C7.33177 419.367 7.94603 405.354 8.6162 380.332C8.94652 367.999 9.20351 352.201 9.37792 339.485C9.46512 333.127 9.53169 327.54 9.57645 323.543C9.59883 321.544 9.61576 319.943 9.62709 318.841L9.63988 317.576L9.64309 317.248L9.6439 317.165L9.6441 317.144L9.64415 317.139L9.64416 317.137C9.64416 317.137 9.64417 317.137 9.59417 317.137C9.64417 317.137 9.64417 317.137 9.64417 317.137L9.64418 317.135L9.64423 317.13L9.6444 317.109L9.6451 317.026L9.64784 316.698L9.65842 315.434L9.69762 310.733C9.73088 306.737 9.77723 301.151 9.82954 294.794C9.93416 282.081 10.0626 266.282 10.1581 253.943C10.8802 160.634 11.6334 17.22 11.6959 5.24544C11.6984 4.76078 12.0519 4.43936 12.5446 4.3876C14.0271 4.23186 17.042 4.00294 19.1572 4.42404C19.7738 4.54681 20.0353 4.83385 20.3335 5.16132C20.3878 5.22099 20.4434 5.28201 20.5026 5.34362C20.6947 5.54365 20.9226 5.74653 21.2662 5.9204C21.6094 6.09404 22.0657 6.23757 22.7139 6.32258C23.364 6.40785 23.7817 6.33185 24.0817 6.16138C24.3807 5.99146 24.5551 5.73137 24.7249 5.46935C24.7312 5.45961 24.7375 5.44987 24.7439 5.44013C24.9086 5.1857 25.0737 4.93057 25.348 4.73063C25.6313 4.52403 26.0359 4.37349 26.6851 4.35659C27.3384 4.33958 27.7457 4.40814 28.0251 4.5174C28.3029 4.62603 28.4581 4.77628 28.606 4.93313C28.6192 4.94705 28.6323 4.96105 28.6454 4.9751C28.7807 5.11974 28.9209 5.26958 29.15 5.38433C29.4013 5.51024 29.7555 5.59232 30.3244 5.59232C30.8938 5.59232 31.2523 5.50582 31.5126 5.37351C31.7415 5.25715 31.8916 5.10636 32.0382 4.95907C32.0578 4.93933 32.0774 4.91966 32.0971 4.90014C32.2638 4.73493 32.4434 4.57541 32.7517 4.45995C33.0615 4.34397 33.5047 4.27119 34.1994 4.2882C34.8954 4.30524 35.306 4.38277 35.5716 4.4896C35.8343 4.59526 35.9578 4.73055 36.0784 4.87439C36.0865 4.884 36.0945 4.89367 36.1026 4.90338C36.2173 5.04101 36.3391 5.18711 36.5778 5.30978C36.8317 5.44027 37.2143 5.54284 37.8589 5.59217C38.5034 5.6415 38.9091 5.59779 39.1952 5.49632C39.4833 5.39414 39.6456 5.23485 39.8044 5.06663C39.8161 5.05423 39.8278 5.04179 39.8395 5.02931C39.986 4.87322 40.1371 4.71227 40.3928 4.57108C40.6691 4.41846 41.0707 4.2875 41.7227 4.21956C42.3771 4.15135 42.8089 4.14874 43.1247 4.18231C43.4394 4.21575 43.6406 4.28522 43.8348 4.36376C43.8676 4.37703 43.9003 4.39061 43.9334 4.40437C44.0972 4.47235 44.2709 4.54444 44.5117 4.60215C44.8015 4.67159 45.1875 4.72017 45.7749 4.72017C46.9517 4.72017 47.4664 4.52647 47.866 4.35699C47.8869 4.34817 47.9073 4.33945 47.9274 4.33086C48.0995 4.25736 48.2495 4.19329 48.431 4.15502C48.6325 4.11252 48.875 4.10166 49.2274 4.15095C49.8456 4.2374 50.2034 4.50381 50.5867 4.78925C50.6539 4.83931 50.722 4.88996 50.7923 4.94032C51.2658 5.27936 51.8312 5.59232 52.9392 5.59232C53.4926 5.59232 53.8601 5.50074 54.1378 5.3594C54.4022 5.22479 54.5819 5.04647 54.7592 4.87039L54.7844 4.84545C54.9705 4.66095 55.1601 4.47939 55.4529 4.33899C55.7458 4.19856 56.1456 4.09774 56.7524 4.08303C57.3609 4.06827 57.7246 4.13396 57.9705 4.23714C58.2077 4.33669 58.3393 4.47246 58.4801 4.61774L58.4932 4.6313C58.64 4.78267 58.7987 4.94093 59.092 5.05943C59.3837 5.17725 59.8048 5.25445 60.4763 5.25445C61.1492 5.25445 61.5753 5.15363 61.8735 5.0044C62.1664 4.85785 62.3316 4.66647 62.4825 4.49168L62.4917 4.4811C62.6451 4.30349 62.7846 4.14628 63.0334 4.05197C63.2836 3.95713 63.6506 3.92389 64.2608 4.01411C64.8707 4.10429 65.1941 4.24634 65.3832 4.40283C65.5532 4.54343 65.6191 4.69837 65.6868 4.8576C65.6941 4.87485 65.7015 4.89216 65.709 4.9095C65.7864 5.08822 65.8791 5.26442 66.1376 5.39171C66.391 5.51653 66.7995 5.59232 67.5018 5.59232C68.9016 5.59232 69.2959 5.45823 69.5862 5.18241C69.6493 5.1224 69.7073 5.05602 69.7687 4.98562C69.776 4.97726 69.7833 4.96884 69.7907 4.96037C69.861 4.88006 69.9384 4.79327 70.038 4.69922C70.227 4.52084 70.4977 4.31445 70.95 4.08144Z" fill="white" stroke="#D9D9D9" stroke-width="0.1"/>
</symbol>
<symbol id="right-2" width="350" height="503" viewBox="0 0 350 503">
<path d="M298.774 303.603L298.779 303.573L298.754 303.555C294.348 300.354 290.283 295.149 286.802 289.072C283.322 282.996 280.426 276.051 278.358 269.373C277.507 266.623 276.609 263.795 275.691 260.902C271.335 247.175 266.521 232.003 264.015 216.999C263.152 211.828 262.39 207.388 261.686 203.282C259.851 192.579 258.407 184.156 256.567 171.033C255.235 161.529 253.786 149.237 252.671 139.319C252.114 134.361 251.639 129.996 251.304 126.871C251.137 125.309 251.004 124.056 250.914 123.194C250.868 122.763 250.833 122.43 250.81 122.205L250.783 121.948L250.776 121.883L250.775 121.867L250.774 121.863L250.774 121.862C250.774 121.861 250.774 121.861 250.772 121.862C250.768 121.862 250.758 121.863 250.731 121.866L250.774 121.861L250.774 121.86L247.153 92.9992L247.153 92.9986L247.153 92.9973L247.153 92.9962L247.152 92.9864L247.149 92.9478L247.137 92.7959L247.088 92.2088C247.046 91.6975 246.986 90.9542 246.911 90.0262C246.761 88.1702 246.555 85.5756 246.326 82.621C245.87 76.7117 245.326 69.3627 244.981 63.6032C244.258 51.5567 243.776 36.057 243.473 23.5686C243.322 17.3245 243.217 11.8333 243.148 7.90316C243.114 5.93809 243.09 4.36328 243.074 3.27975C243.066 2.73798 243.06 2.31904 243.056 2.03553L243.051 1.71344L243.051 1.67049L243.069 1.67532C243.121 1.68965 243.198 1.71012 243.294 1.73471C243.486 1.7839 243.755 1.84963 244.06 1.91577C244.671 2.04785 245.434 2.18243 246.034 2.18912C246.641 2.1959 247.121 2.04921 247.586 1.90701C247.614 1.89835 247.642 1.88971 247.67 1.88112C248.162 1.73135 248.647 1.59683 249.271 1.65442C249.849 1.7077 250.294 1.94796 250.744 2.19027C250.764 2.20096 250.784 2.21166 250.803 2.22235C251.272 2.47434 251.75 2.71905 252.379 2.72362C253.005 2.72817 253.485 2.44639 253.949 2.17458C253.963 2.16623 253.977 2.1579 253.991 2.14958C254.471 1.86872 254.937 1.60766 255.548 1.65448C256.154 1.70093 256.607 2.0751 257.071 2.45802C257.083 2.4676 257.094 2.47718 257.106 2.48676C257.577 2.8755 258.064 3.26506 258.725 3.25812C259.365 3.2514 259.837 2.84008 260.29 2.44508L260.309 2.42862C260.774 2.02341 261.222 1.64109 261.827 1.65462C262.407 1.66759 262.834 2.0383 263.278 2.4302L263.295 2.44568C263.728 2.82802 264.178 3.22577 264.791 3.25805C265.477 3.29421 265.986 2.92456 266.48 2.53741C266.51 2.51386 266.54 2.49024 266.57 2.46664C267.037 2.09892 267.501 1.73411 268.11 1.65421C268.692 1.57793 269.144 1.71072 269.604 1.86462C269.639 1.8763 269.674 1.8881 269.709 1.89994C270.136 2.044 270.58 2.19377 271.139 2.18913C271.678 2.18464 272.104 2.04331 272.516 1.90691C272.545 1.89727 272.574 1.88766 272.603 1.87812C273.042 1.73343 273.474 1.60512 274.03 1.65444C274.574 1.70262 274.991 1.94399 275.415 2.18881C275.429 2.19708 275.443 2.20536 275.458 2.21363C275.894 2.46566 276.34 2.71405 276.931 2.72362C277.549 2.73364 278.018 2.45857 278.474 2.18952L278.479 2.18648C278.936 1.91703 279.381 1.65463 279.966 1.65463C280.536 1.65463 280.974 1.92134 281.421 2.19377L281.457 2.2158C281.914 2.49387 282.384 2.77011 283.004 2.72348C283.513 2.68516 283.895 2.43028 284.265 2.18338L284.269 2.18072C284.643 1.93129 285.006 1.69071 285.487 1.65449C286.071 1.61055 286.516 1.86881 286.974 2.14788C286.988 2.15658 287.003 2.16531 287.017 2.17406C287.459 2.44358 287.919 2.72362 288.518 2.72362C289.133 2.72362 289.601 2.45046 290.056 2.18463L290.06 2.1823C290.516 1.91588 290.96 1.65757 291.542 1.65466L292.481 2.04615L292.481 2.04627L292.484 2.04743L293.95 2.53604V3V4.5V7.5V14.3573V128.5V133V139.78V145H293.95L293.95 145.005L294.45 150.004L294.45 150.005L294.95 156.503L294.95 156.504L295.45 165.003L295.45 165.003L295.95 173V173.002V175.5H295.949L295.951 175.509L297.451 183.508L297.451 183.509L298.451 190.008L298.451 190.009L299.951 198.509L301.451 207.009L302.951 215.507L302.951 215.509L303.451 219.007L303.45 219.007L303.452 219.014L304.451 222.512L304.452 222.514L305.951 228.512L307.451 234.512L308.451 238.512L309.451 242.512L310.951 248.512L310.952 248.513L313.951 260.011L313.952 260.013L317.451 275.011L317.451 275.012L319.451 283.01L319.451 283.012L320.45 288.006L320.451 288.01L321.95 300V300.003V400.5L321.95 450.5L321.95 450.501L322.949 500.78L321.5 500.95L319.975 500.775C319.974 500.775 319.974 500.775 319.973 500.775C317.466 500.336 315.862 500.24 313.345 500.24C312.712 500.24 312.105 500.325 311.53 500.423C311.383 500.448 311.238 500.474 311.096 500.499C310.679 500.574 310.281 500.645 309.901 500.683C309.393 500.734 308.923 500.726 308.492 500.59C308.063 500.454 307.669 500.191 307.316 499.725C307.038 499.359 306.489 498.296 306.112 496.99C305.736 495.684 305.535 494.144 305.945 492.822L305.954 492.792L305.932 492.771C305.788 492.631 305.641 492.56 305.501 492.532C305.362 492.505 305.233 492.524 305.123 492.559C305.014 492.594 304.923 492.647 304.86 492.691C304.854 492.695 304.849 492.699 304.844 492.702V484.255V484.228L304.821 484.213L303.188 483.159V478.91V478.872L303.151 478.862L297.119 477.268V471.427V471.392L297.086 471.38L297.085 471.38L297.083 471.379L297.075 471.376L297.043 471.364C297.014 471.354 296.972 471.338 296.917 471.318C296.808 471.276 296.649 471.214 296.451 471.133C296.057 470.969 295.509 470.726 294.894 470.408C293.669 469.775 292.185 468.848 291.128 467.667C291.13 462.057 291.585 453.952 292.113 444.827L292.186 443.567C292.695 434.764 293.256 425.093 293.533 415.841C293.725 409.46 294.157 402.86 294.605 396.278C294.639 395.772 294.674 395.266 294.708 394.76C295.122 388.688 295.534 382.647 295.766 376.823C296.045 369.805 295.878 362.812 295.718 356.111L295.705 355.567C295.541 348.701 295.398 342.15 295.766 336.203C296.648 321.929 297.648 310.353 298.774 303.603Z" fill="white" stroke="#D9D9D9" stroke-width="0.1"/>
</symbol>
<symbol id="right-1" width="350" height="503" viewBox="0 0 350 503">
<path d="M341.676 1.66841C341.688 1.66665 341.699 1.66503 341.708 1.66356L341.708 1.71519L341.707 2.04332L341.702 3.33378C341.697 4.46964 341.691 6.14824 341.683 8.31917C341.668 12.661 341.648 18.9722 341.629 26.8494C341.591 42.6039 341.555 64.6227 341.566 89.6801C341.587 139.795 341.794 202.064 342.536 250.681C342.905 274.798 343.473 293.607 344.044 312.417L344.059 312.931C344.625 331.569 345.193 350.255 345.571 374.15C345.78 387.401 346.03 399.325 346.265 410.587C346.846 438.344 347.343 462.076 346.95 491.731C346.873 491.986 346.757 492.225 346.631 492.455C346.578 492.552 346.523 492.648 346.468 492.744C346.394 492.873 346.321 493 346.257 493.123C346.033 493.555 345.894 493.98 346.128 494.434C346.687 495.516 347.663 496.191 348.496 496.594C348.912 496.796 349.294 496.93 349.572 497.014C349.611 497.026 349.648 497.037 349.683 497.047C349.706 497.054 349.729 497.06 349.75 497.065L335.96 498.637L335.926 498.641L335.917 498.673L335.917 498.674L335.917 498.675L335.916 498.679L335.911 498.697C335.906 498.713 335.9 498.735 335.891 498.764C335.874 498.822 335.848 498.906 335.815 499.005C335.75 499.205 335.656 499.471 335.542 499.736C335.428 500.002 335.295 500.265 335.151 500.461C335.08 500.559 335.007 500.638 334.934 500.693C334.861 500.747 334.791 500.775 334.724 500.775C333.417 500.775 332.601 500.664 331.848 500.542C331.752 500.526 331.657 500.51 331.562 500.494C330.912 500.386 330.267 500.279 329.347 500.24C328.079 500.187 327.002 500.31 325.986 500.468C325.707 500.512 325.432 500.558 325.16 500.604C324.458 500.722 323.771 500.837 323.049 500.9L322.05 463.5V370.5V300H322.051L322.049 299.993L319.55 282.993L319.549 282.988L311.049 248.488L311.048 248.488L303.549 218.992L303.548 218.988L296.05 175.494L294.05 145V144.998V119.5V2.72397H294.586C295.202 2.72397 295.669 2.4508 296.124 2.18498L296.128 2.18265C296.587 1.91471 297.034 1.65498 297.62 1.65498C298.207 1.65498 298.654 1.91253 299.113 2.17927L299.121 2.18411C299.575 2.44799 300.041 2.71932 300.655 2.72397C301.282 2.72872 301.759 2.45259 302.223 2.18409L302.232 2.1791C302.701 1.90764 303.158 1.64567 303.758 1.65497C304.332 1.66387 304.768 1.91719 305.216 2.17941L305.224 2.18412C305.667 2.44357 306.123 2.71029 306.723 2.72396C307.367 2.73863 307.857 2.46404 308.335 2.19373L308.345 2.18789C308.822 1.91832 309.287 1.65498 309.896 1.65498C310.506 1.65498 310.971 1.91832 311.448 2.18789L311.458 2.19373C311.936 2.46404 312.426 2.73863 313.07 2.72396C313.67 2.71029 314.126 2.44357 314.569 2.18412L314.577 2.17941C315.025 1.91719 315.461 1.66387 316.035 1.65497C316.635 1.64567 317.092 1.90764 317.561 2.1791L317.57 2.18408C318.034 2.45259 318.511 2.72872 319.138 2.72397C319.754 2.7193 320.222 2.47715 320.68 2.2265C320.702 2.21455 320.723 2.20258 320.745 2.19062C321.182 1.95078 321.616 1.71272 322.178 1.65471C322.814 1.58896 323.309 1.73802 323.812 1.89754C323.827 1.90232 323.842 1.9071 323.857 1.91189C324.346 2.06692 324.847 2.22596 325.486 2.18939C326.196 2.14876 326.741 1.89707 327.277 1.65016L327.297 1.64093C327.839 1.39067 328.374 1.14793 329.071 1.12044C329.625 1.09861 330.061 1.2494 330.499 1.40104C330.523 1.4093 330.547 1.41756 330.571 1.4258C331.033 1.58502 331.504 1.73402 332.11 1.65455C332.75 1.57068 333.235 1.19056 333.699 0.826999C333.729 0.803462 333.758 0.779994 333.788 0.756681C334.284 0.370034 334.766 0.0248226 335.412 0.0514442C336.008 0.0760386 336.452 0.386155 336.905 0.740123C336.946 0.772567 336.988 0.80539 337.029 0.838376C337.441 1.16297 337.872 1.50333 338.435 1.65329C339.084 1.82597 339.918 1.82543 340.587 1.78274C340.922 1.76135 341.217 1.72926 341.428 1.70253C341.533 1.68916 341.618 1.67712 341.676 1.66841Z" fill="white" stroke="#D9D9D9" stroke-width="0.1"/>
</symbol>
</svg>
