<svg width="350" height="503" viewBox="0 0 350 503" fill="none" xmlns="http://www.w3.org/2000/svg">
<symbol id="left-2" width="350" height="503" viewBox="0 0 350 503">
<path d="M9.64417 317.137L9.64417 317.137L9.59677 317.136C9.61726 317.137 9.62889 317.137 9.6355 317.137C9.64417 317.137 9.64417 317.137 9.64417 317.136L9.64418 317.135L9.64423 317.13L9.6444 317.109L9.6451 317.026L9.64784 316.698L9.65842 315.434L9.69762 310.733C9.73088 306.737 9.77723 301.151 9.82954 294.794C9.93402 282.098 10.0623 266.324 10.1578 253.992L134.784 253.988L140.95 485.922L140.95 485.925L140.531 498.869C140.478 500.486 139.179 501.782 137.561 501.811C134.573 501.864 129.894 501.906 126.44 501.745C123.736 501.619 121.471 500.937 119.31 500.287C118.664 500.093 118.028 499.901 117.391 499.728C114.627 498.976 111.878 498.576 108.431 499.828C107.421 500.195 106.654 500.688 105.903 501.17L105.772 501.253C104.978 501.762 104.187 502.25 103.123 502.568C100.791 503.264 98.9521 502.902 97.0977 502.306C96.6784 502.172 96.2579 502.025 95.8304 501.876C94.3689 501.366 92.8269 500.828 90.978 500.651C87.268 500.296 84.3673 500.362 81.467 500.484C81.0638 500.5 80.6608 500.518 80.2555 500.536C77.7452 500.648 75.1524 500.764 71.958 500.651C69.1367 500.551 66.7678 500.013 64.5119 499.501C63.774 499.334 63.0482 499.169 62.3226 499.024C59.3795 498.432 56.448 498.156 52.7533 499.285C52.0599 499.497 51.5235 499.729 50.9933 499.959L50.95 499.978C50.4056 500.214 49.8632 500.446 49.1561 500.653C46.3042 501.485 44.0379 501.061 41.7543 500.537C41.5849 500.498 41.4153 500.459 41.2454 500.419C39.1258 499.926 36.9515 499.42 34.2573 499.831C33.5236 499.942 32.9462 500.088 32.3791 500.231L32.2832 500.255C31.6849 500.406 31.0883 500.552 30.318 500.651C28.29 500.913 26.7044 500.632 25.1118 500.322C25.0408 500.309 24.9697 500.295 24.8986 500.281C23.3755 499.984 21.827 499.682 19.8699 499.83C18.826 499.909 18.0157 500.064 17.2078 500.224L17.0876 500.248C16.3195 500.4 15.5434 500.555 14.5577 500.651C11.7227 500.928 8.08604 500.722 5.15597 500.446C3.69139 500.309 2.40418 500.154 1.48315 500.033C1.04474 499.975 0.689313 499.926 0.437238 499.89C0.465433 499.886 0.494735 499.882 0.525064 499.878C0.84266 499.835 1.27374 499.752 1.72703 499.593C2.63249 499.276 3.63571 498.653 3.9885 497.432C4.86056 494.413 4.952 491.196 4.86605 487.709C4.8422 486.742 4.80471 485.754 4.76636 484.743C4.66643 482.11 4.56072 479.324 4.67572 476.355C4.95117 469.243 5.23141 463.916 5.52443 458.346C5.74696 454.116 5.97686 449.746 6.21763 444.348C7.33177 419.367 7.94603 405.354 8.6162 380.332C8.94652 367.999 9.20351 352.201 9.37792 339.485C9.46512 333.127 9.53169 327.54 9.57645 323.543C9.59883 321.544 9.61576 319.942 9.62709 318.841L9.63988 317.576L9.64309 317.248L9.6439 317.165L9.6441 317.144L9.64415 317.139L9.64416 317.137C9.64416 317.137 9.64417 317.137 9.59417 317.136L9.64417 317.137Z" fill="#FFFDFD" stroke="#D9D9D9" stroke-width="0.1"/>
</symbol>
<symbol id="left-1" width="350" height="503" viewBox="0 0 350 503">
<path d="M10.1598 253.892C10.8817 160.582 11.6347 17.2176 11.6971 5.24517C11.6996 4.7605 12.0531 4.43909 12.5458 4.38732C14.0283 4.23159 17.0432 4.00267 19.1584 4.42377C19.7751 4.54654 20.0365 4.83358 20.3347 5.16105C20.3891 5.22072 20.4447 5.28174 20.5038 5.34335C20.6959 5.54337 20.9238 5.74626 21.2675 5.92013C21.6107 6.09377 22.067 6.2373 22.7151 6.32231C23.3652 6.40758 23.783 6.33158 24.0829 6.16111C24.3819 5.99118 24.5563 5.7311 24.7262 5.46908C24.7325 5.45934 24.7388 5.4496 24.7451 5.43986C24.9098 5.18543 25.075 4.93029 25.3492 4.73035C25.6326 4.52375 26.0371 4.37322 26.6863 4.35632C27.3396 4.33931 27.7469 4.40787 28.0263 4.51713C28.3041 4.62575 28.4593 4.776 28.6073 4.93286C28.6204 4.94678 28.6335 4.96078 28.6467 4.97483C28.782 5.11947 28.9221 5.26931 29.1512 5.38405C29.4026 5.50997 29.7567 5.59205 30.3257 5.59205C30.8951 5.59205 31.2535 5.50555 31.5138 5.37324C31.7427 5.25688 31.8928 5.10609 32.0394 4.9588C32.0591 4.93906 32.0786 4.91939 32.0983 4.89987C32.2651 4.73466 32.4447 4.57513 32.753 4.45968C33.0627 4.3437 33.5059 4.27092 34.2006 4.28793C34.8966 4.30497 35.3073 4.3825 35.5729 4.48933C35.8355 4.59499 35.9591 4.73028 36.0797 4.87412C36.0877 4.88373 36.0958 4.89341 36.1039 4.90312C36.2186 5.04075 36.3404 5.18684 36.579 5.30951C36.8329 5.44 37.2156 5.54257 37.8601 5.5919C38.5046 5.64123 38.9103 5.59752 39.1964 5.49605C39.4846 5.39386 39.6468 5.23457 39.8056 5.06636C39.8173 5.05396 39.829 5.04151 39.8407 5.02903C39.9873 4.87294 40.1384 4.71199 40.394 4.5708C40.6703 4.41819 41.0719 4.28723 41.7239 4.21928C42.3784 4.15108 42.8101 4.14847 43.126 4.18204C43.4406 4.21548 43.6418 4.28495 43.836 4.36349C43.8688 4.37676 43.9015 4.39034 43.9347 4.40409C44.0984 4.47208 44.2721 4.54416 44.5129 4.60188C44.8027 4.67132 45.1887 4.7199 45.7761 4.7199C46.9529 4.7199 47.4676 4.5262 47.8673 4.35672C47.8881 4.3479 47.9085 4.33918 47.9286 4.33059C48.1007 4.25709 48.2507 4.19302 48.4322 4.15475C48.6338 4.11225 48.8762 4.10139 49.2287 4.15068C49.8468 4.23713 50.2046 4.50353 50.5879 4.78898C50.6552 4.83904 50.7232 4.88969 50.7935 4.94005C51.2671 5.27909 51.8324 5.59205 52.9405 5.59205C53.4939 5.59205 53.8613 5.50047 54.139 5.35913C54.4035 5.22451 54.5831 5.04618 54.7605 4.87009C54.7689 4.86178 54.7772 4.85347 54.7856 4.84518C54.9717 4.66068 55.1613 4.47911 55.4541 4.33872C55.747 4.19829 56.1468 4.09747 56.7537 4.08275C57.3621 4.068 57.7258 4.13369 57.9717 4.23687C58.209 4.33642 58.3405 4.47219 58.4813 4.61747L58.4945 4.63103C58.6413 4.7824 58.7999 4.94066 59.0932 5.05916C59.3849 5.17698 59.8061 5.25418 60.4775 5.25418C61.1504 5.25418 61.5765 5.15336 61.8748 5.00412C62.1676 4.85757 62.3329 4.6662 62.4838 4.49141L62.4929 4.48083C62.6463 4.30322 62.7858 4.14601 63.0346 4.0517C63.2848 3.95686 63.6518 3.92362 64.262 4.01384C64.8719 4.10402 65.1953 4.24606 65.3845 4.40256C65.5544 4.54316 65.6203 4.6981 65.688 4.85732C65.6953 4.87458 65.7027 4.89188 65.7102 4.90923C65.7877 5.08795 65.8804 5.26415 66.1388 5.39144C66.3922 5.51626 66.8007 5.59205 67.5031 5.59205C68.2074 5.59205 68.6687 5.50372 69.0049 5.36476C69.342 5.22544 69.5496 5.03668 69.7472 4.84475C69.7634 4.82907 69.7794 4.81339 69.7955 4.79771C69.9759 4.62157 70.1549 4.4467 70.4289 4.29824C70.7269 4.13676 71.1401 4.00525 71.7907 3.94578C72.4442 3.88603 72.8291 3.90497 73.0817 3.96108C73.3283 4.01582 73.4508 4.10618 73.5798 4.20133L73.5848 4.20498C73.7193 4.3041 73.8612 4.40685 74.1432 4.46845C74.4223 4.52941 74.8366 4.5498 75.5172 4.49295C76.8785 4.37926 77.2591 4.24171 77.5863 4.12296C77.7468 4.06475 77.8912 4.01243 78.1371 3.97C78.384 3.92739 78.7342 3.89464 79.3045 3.87757C79.8737 3.86054 80.2377 3.89046 80.5019 3.94392C80.7635 3.99684 80.9292 4.07312 81.1039 4.15351L81.1074 4.15513C81.2848 4.23673 81.4711 4.32197 81.7693 4.38621C82.0667 4.45025 82.4735 4.49312 83.0936 4.49312C83.7133 4.49312 84.1161 4.45457 84.4073 4.39486C84.6997 4.3349 84.8782 4.25389 85.0483 4.17185C85.0603 4.16609 85.0722 4.16034 85.084 4.15459C85.24 4.07907 85.3938 4.00462 85.6335 3.94336C85.892 3.87726 86.2521 3.82621 86.8214 3.80918C87.391 3.79213 87.7259 3.82647 87.9435 3.88547C88.1581 3.94364 88.2603 4.02604 88.3656 4.1139L88.3741 4.12105C88.4801 4.20963 88.5927 4.30369 88.8163 4.37432C89.0434 4.44603 89.3828 4.49312 89.9466 4.49312C91.0301 4.49312 91.5267 4.29826 92.0165 4.10609C92.0387 4.09738 92.0609 4.08868 92.0832 4.07999C92.5882 3.88273 93.1172 3.69634 94.3349 3.74077C94.9461 3.76308 95.303 3.82105 95.5329 3.89377C95.7558 3.96426 95.8608 4.04885 95.967 4.13436L95.9733 4.13945C96.0855 4.22981 96.2009 4.32026 96.4441 4.3864C96.6841 4.45169 97.0473 4.49312 97.6562 4.49312C98.2664 4.49312 98.6733 4.44029 98.9815 4.36032C99.2758 4.28396 99.4783 4.18324 99.6777 4.08404L99.7066 4.06965C99.9149 3.96624 100.126 3.86508 100.446 3.79046C100.768 3.71568 101.201 3.66717 101.853 3.67241C102.507 3.67767 102.896 3.71234 103.15 3.75906C103.401 3.8054 103.518 3.86357 103.627 3.91866L103.632 3.92144C103.744 3.97781 103.85 4.03184 104.07 4.06447C104.291 4.09719 104.625 4.10847 105.197 4.08272C106.284 4.03372 106.731 3.93348 107.162 3.83679C107.185 3.83164 107.208 3.8265 107.231 3.82137C107.68 3.7212 108.15 3.62761 109.371 3.60401C110.453 3.58311 111.026 3.61562 111.456 3.64001C111.512 3.64319 111.566 3.64623 111.618 3.64899C112.071 3.67315 112.402 3.67633 113.136 3.56931C113.691 3.48837 113.945 3.31497 114.201 3.13985C114.273 3.09026 114.346 3.04054 114.425 2.99274C114.784 2.77789 115.31 2.5828 116.673 2.5828C117.354 2.5828 117.789 2.65358 118.096 2.75676C118.401 2.85953 118.582 2.99528 118.755 3.13196L118.784 3.1552C118.948 3.28502 119.113 3.41577 119.373 3.51024C119.648 3.61015 120.026 3.66853 120.621 3.65133C121.218 3.63407 121.626 3.52413 121.938 3.36665C122.245 3.21137 122.457 3.01122 122.661 2.81765L122.669 2.81047C122.876 2.61417 123.077 2.42532 123.37 2.2841C123.663 2.14312 124.05 2.04812 124.629 2.04805C125.21 2.04798 125.509 2.14799 125.678 2.29124C125.839 2.42815 125.891 2.61055 125.951 2.82069L125.96 2.85034C126.023 3.07017 126.099 3.31117 126.336 3.51328C126.572 3.71438 126.959 3.87162 127.632 3.94568C129.008 4.09703 130.252 3.99422 131.139 3.85801C131.799 3.75661 132.448 4.25198 132.454 4.91218L133.612 128.729L134.783 253.887L10.1598 253.892Z" fill="white" stroke="#D9D9D9" stroke-width="0.1"/>
</symbol>
<symbol id="right-2" width="350" height="503" viewBox="0 0 350 503">
<path d="M298.756 303.604L298.761 303.573L298.736 303.555C294.332 300.354 290.268 295.149 286.788 289.072C283.309 282.996 280.414 276.051 278.347 269.373C277.496 266.622 276.599 263.794 275.681 260.902C274.63 257.589 273.552 254.191 272.486 250.73H342.505C342.874 274.823 343.441 293.62 344.011 312.416L344.027 312.932C344.593 331.57 345.16 350.255 345.538 374.15C345.747 387.401 345.997 399.325 346.232 410.587C346.813 438.343 347.309 462.076 346.917 491.73C346.839 491.986 346.723 492.225 346.598 492.455C346.545 492.552 346.49 492.648 346.435 492.743C346.361 492.873 346.288 493 346.224 493.123C346 493.555 345.861 493.98 346.095 494.434C346.654 495.516 347.63 496.19 348.462 496.594C348.878 496.795 349.26 496.93 349.538 497.014C349.603 497.034 349.663 497.051 349.716 497.065L335.93 498.637L335.897 498.641L335.888 498.673L335.888 498.674L335.887 498.675L335.886 498.679L335.881 498.697C335.877 498.712 335.87 498.735 335.861 498.764C335.844 498.822 335.818 498.905 335.786 499.005C335.72 499.205 335.626 499.47 335.513 499.736C335.399 500.002 335.265 500.265 335.122 500.461C335.05 500.559 334.977 500.638 334.905 500.693C334.832 500.747 334.762 500.775 334.695 500.775C333.388 500.775 332.572 500.664 331.82 500.541C331.724 500.526 331.629 500.51 331.534 500.494C330.884 500.386 330.24 500.279 329.319 500.24C327.704 500.172 326.398 500.391 325.135 500.603C324.961 500.633 324.789 500.662 324.616 500.69C323.188 500.922 321.766 501.094 319.95 500.775C317.442 500.336 315.839 500.24 313.323 500.24C312.69 500.24 312.083 500.326 311.507 500.423C311.361 500.448 311.216 500.474 311.073 500.5C310.657 500.574 310.259 500.645 309.88 500.683C309.371 500.734 308.901 500.726 308.471 500.59C308.042 500.454 307.648 500.191 307.295 499.725C307.017 499.359 306.468 498.296 306.092 496.99C305.715 495.684 305.515 494.145 305.924 492.822L305.933 492.793L305.911 492.771C305.767 492.631 305.621 492.56 305.481 492.533C305.342 492.506 305.212 492.524 305.103 492.559C304.994 492.594 304.903 492.647 304.84 492.691C304.834 492.695 304.829 492.699 304.824 492.702V484.255V484.228L304.801 484.213L303.169 483.159V478.91V478.872L303.132 478.862L297.102 477.268V471.427V471.392L297.068 471.38L297.052 471.427L297.068 471.38L297.068 471.38L297.068 471.38L297.066 471.379L297.058 471.376L297.025 471.365C296.996 471.354 296.954 471.339 296.899 471.318C296.79 471.276 296.631 471.214 296.434 471.133C296.04 470.969 295.492 470.726 294.877 470.409C293.653 469.776 292.169 468.848 291.113 467.667C291.114 462.057 291.569 453.952 292.097 444.827L292.17 443.567C292.679 434.764 293.239 425.093 293.517 415.841C293.708 409.46 294.141 402.86 294.588 396.278C294.622 395.772 294.657 395.266 294.691 394.761C295.105 388.689 295.517 382.647 295.749 376.823C296.028 369.805 295.861 362.812 295.701 356.111L295.688 355.567C295.524 348.701 295.381 342.151 295.749 336.203C296.63 321.929 297.631 310.353 298.756 303.604Z" fill="white" stroke="#D9D9D9" stroke-width="0.1"/>
</symbol>
<symbol id="right-1" width="350" height="503" viewBox="0 0 350 503">
<path d="M250.767 121.862L250.771 121.862L250.771 121.86L247.152 92.9996L247.152 92.9989L247.152 92.9977L247.152 92.9965L247.151 92.9868L247.148 92.9481L247.135 92.7962L247.087 92.2091C247.045 91.6978 246.985 90.9545 246.91 90.0265C246.76 88.1706 246.553 85.576 246.325 82.6213C245.869 76.7121 245.326 69.3631 244.98 63.6036C244.258 51.557 243.775 36.0574 243.473 23.569C243.322 17.3248 243.216 11.8337 243.148 7.90351C243.114 5.93844 243.09 4.36363 243.074 3.2801C243.066 2.73833 243.06 2.31938 243.056 2.03588L243.051 1.71379L243.051 1.67084L243.068 1.67566C243.121 1.68999 243.198 1.71046 243.294 1.73506C243.486 1.78425 243.755 1.84997 244.06 1.91611C244.67 2.04819 245.433 2.18277 246.033 2.18947C246.64 2.19624 247.119 2.04956 247.584 1.90735C247.612 1.89869 247.641 1.89005 247.669 1.88146C248.161 1.73169 248.645 1.59717 249.269 1.65476C249.847 1.70805 250.292 1.9483 250.741 2.19061C250.761 2.20131 250.781 2.21201 250.801 2.22269C251.269 2.47469 251.747 2.7194 252.376 2.72397C253.001 2.72851 253.482 2.44674 253.945 2.17492C253.959 2.16658 253.973 2.15824 253.988 2.14992C254.467 1.86906 254.933 1.608 255.544 1.65483C256.15 1.70127 256.603 2.07544 257.066 2.45836C257.078 2.46794 257.09 2.47752 257.101 2.4871C257.572 2.87584 258.059 3.2654 258.72 3.25846C259.359 3.25174 259.831 2.84042 260.284 2.44543L260.303 2.42896C260.768 2.02375 261.216 1.64144 261.82 1.65496C262.4 1.66794 262.828 2.03864 263.271 2.43054L263.288 2.44602C263.721 2.82836 264.171 3.22612 264.783 3.2584C265.47 3.29456 265.979 2.9249 266.473 2.53775C266.503 2.5142 266.533 2.49058 266.563 2.46698C267.029 2.09927 267.493 1.73446 268.102 1.65455C268.683 1.57827 269.135 1.71106 269.595 1.86497C269.63 1.87664 269.665 1.88845 269.7 1.90029C270.127 2.04435 270.571 2.19412 271.129 2.18947C271.668 2.18499 272.094 2.04365 272.506 1.90725C272.535 1.89761 272.564 1.888 272.593 1.87846C273.032 1.73378 273.464 1.60546 274.02 1.65478C274.564 1.70297 274.981 1.94433 275.404 2.18915C275.418 2.19742 275.433 2.2057 275.447 2.21397C275.883 2.466 276.329 2.7144 276.919 2.72396C277.537 2.73399 278.006 2.45891 278.462 2.18987L278.467 2.18682C278.924 1.91737 279.369 1.65498 279.954 1.65498C280.524 1.65498 280.962 1.92169 281.409 2.19412C281.421 2.20146 281.433 2.2088 281.445 2.21614C281.901 2.49421 282.371 2.77045 282.991 2.72383C283.5 2.6855 283.882 2.43061 284.252 2.18372L284.256 2.18106C284.63 1.93163 284.992 1.69105 285.473 1.65484C286.057 1.6109 286.501 1.86915 286.959 2.14822C286.974 2.15693 286.988 2.16565 287.002 2.17439C287.444 2.44392 287.904 2.72397 288.503 2.72397C289.118 2.72397 289.586 2.4508 290.041 2.18497L290.045 2.18264C290.503 1.9147 290.949 1.65498 291.536 1.65498C292.123 1.65498 292.569 1.9147 293.028 2.18264L293.032 2.18497C293.487 2.4508 293.954 2.72397 294.57 2.72397C295.185 2.72397 295.653 2.4508 296.108 2.18497L296.112 2.18264C296.57 1.9147 297.016 1.65498 297.603 1.65498C298.19 1.65498 298.636 1.91253 299.095 2.17927L299.103 2.1841C299.557 2.44799 300.023 2.71932 300.636 2.72397C301.263 2.72872 301.74 2.45258 302.204 2.18408L302.213 2.17909C302.682 1.90764 303.139 1.64567 303.738 1.65497C304.312 1.66387 304.748 1.91719 305.196 2.17941L305.204 2.18412C305.647 2.44357 306.103 2.71029 306.702 2.72396C307.346 2.73863 307.836 2.46404 308.314 2.19373L308.324 2.18789C308.801 1.91832 309.266 1.65498 309.875 1.65498C310.484 1.65498 310.949 1.91832 311.426 2.18789L311.436 2.19373C311.914 2.46404 312.404 2.73863 313.048 2.72396C313.647 2.71029 314.103 2.44357 314.546 2.18412L314.554 2.17941C315.002 1.91719 315.438 1.66387 316.012 1.65497C316.611 1.64567 317.068 1.90764 317.537 2.17909L317.546 2.18407C318.01 2.45258 318.487 2.72872 319.114 2.72397C319.73 2.7193 320.197 2.47715 320.655 2.22649C320.677 2.21454 320.698 2.20257 320.72 2.19061C321.157 1.95077 321.591 1.71272 322.152 1.65471C322.788 1.58896 323.283 1.73802 323.786 1.89754L323.831 1.91188C324.319 2.06692 324.82 2.22597 325.459 2.18939C326.169 2.14875 326.714 1.89706 327.25 1.65015L327.27 1.64093C327.812 1.39067 328.346 1.14793 329.043 1.12044C329.597 1.09861 330.033 1.2494 330.471 1.40104C330.495 1.4093 330.519 1.41756 330.543 1.4258C331.005 1.58502 331.475 1.73402 332.081 1.65455C332.721 1.57068 333.205 1.19056 333.669 0.827001C333.699 0.803462 333.729 0.779992 333.759 0.756676C334.255 0.370028 334.736 0.0248231 335.382 0.0514441C335.978 0.0760381 336.421 0.386149 336.874 0.740118C336.916 0.772564 336.957 0.805389 336.999 0.838377C337.41 1.16297 337.842 1.50333 338.405 1.65329C339.053 1.82597 339.887 1.82543 340.555 1.78274C340.89 1.76135 341.185 1.72926 341.396 1.70253C341.502 1.68916 341.586 1.67712 341.645 1.66841C341.656 1.66666 341.667 1.66503 341.677 1.66356L341.676 1.71519L341.675 2.04332L341.67 3.33378C341.665 4.46964 341.659 6.14824 341.651 8.31917C341.636 12.661 341.616 18.9722 341.597 26.8494C341.559 42.6039 341.523 64.6227 341.534 89.6801C341.555 139.777 341.762 202.02 342.503 250.63H272.455C269.117 239.788 265.902 228.345 264.008 216.999C263.145 211.829 262.384 207.388 261.68 203.283C259.845 192.579 258.402 184.157 256.562 171.033C255.231 161.53 253.783 149.237 252.668 139.32C252.111 134.361 251.636 129.997 251.302 126.872C251.134 125.309 251.002 124.057 250.911 123.195C250.866 122.764 250.831 122.43 250.807 122.205L250.78 121.949L250.774 121.883L250.772 121.867L250.772 121.863L250.771 121.862C250.771 121.862 250.771 121.862 250.767 121.862Z" fill="white" stroke="#D9D9D9" stroke-width="0.1"/>
</symbol>
</svg>
