<svg width="297" height="503" viewBox="0 0 297 503" fill="none" xmlns="http://www.w3.org/2000/svg">
<path d="M134.783 253.938L134.783 253.939L140.95 485.922L140.95 485.925L140.531 498.868C140.479 500.486 139.179 501.782 137.562 501.811C134.573 501.864 129.895 501.906 126.44 501.745C123.736 501.619 121.472 500.937 119.311 500.287C118.665 500.093 118.028 499.901 117.392 499.728C114.627 498.976 111.878 498.576 108.431 499.828C107.421 500.195 106.654 500.687 105.903 501.169L105.773 501.253C104.979 501.762 104.187 502.25 103.123 502.568C100.791 503.263 98.9523 502.902 97.098 502.306C96.6786 502.172 96.2581 502.025 95.8306 501.876C94.3691 501.366 92.8271 500.828 90.9782 500.651C87.2682 500.296 84.3675 500.362 81.4672 500.483C81.0639 500.5 80.6608 500.518 80.2554 500.536C77.7454 500.648 75.1529 500.764 71.9591 500.651C71.9588 500.651 71.9585 500.651 71.9583 500.651L71.05 500.594V4.04381L71.7907 3.94568C72.4436 3.88605 72.8282 3.90499 73.0807 3.96108C73.3272 4.01582 73.4498 4.10618 73.5788 4.20132L73.5838 4.20498C73.7182 4.3041 73.8602 4.40685 74.1422 4.46845C74.4213 4.52941 74.8356 4.5498 75.5162 4.49295C76.8774 4.37926 77.258 4.24171 77.5853 4.12296C77.7457 4.06475 77.8902 4.01243 78.136 3.97C78.383 3.92739 78.7332 3.89464 79.3035 3.87757C79.8727 3.86054 80.2366 3.89046 80.5009 3.94392C80.7625 3.99685 80.9282 4.07312 81.1029 4.15352L81.1064 4.15513C81.2838 4.23673 81.4701 4.32197 81.7683 4.38621C82.0656 4.45025 82.4725 4.49312 83.0926 4.49312C83.7123 4.49312 84.115 4.45457 84.4063 4.39486C84.6987 4.3349 84.8772 4.25389 85.0473 4.17185C85.0593 4.1661 85.0711 4.16035 85.083 4.1546C85.239 4.07908 85.3928 4.00462 85.6324 3.94336C85.891 3.87726 86.2511 3.82621 86.8204 3.80918C87.39 3.79213 87.7249 3.82647 87.9425 3.88547C88.1571 3.94364 88.2593 4.02604 88.3645 4.1139L88.3731 4.12105C88.4791 4.20963 88.5917 4.30369 88.8153 4.37432C89.0424 4.44603 89.3817 4.49312 89.9455 4.49312C91.029 4.49312 91.5257 4.29826 92.0155 4.10609C92.0377 4.09738 92.0599 4.08867 92.0821 4.07999C92.5872 3.88273 93.1162 3.69634 94.3339 3.74077C94.9451 3.76308 95.3019 3.82105 95.5319 3.89377C95.7548 3.96426 95.8598 4.04886 95.966 4.13438L95.9723 4.13945C96.0845 4.22981 96.1999 4.32026 96.443 4.3864C96.683 4.45169 97.0463 4.49312 97.6551 4.49312C98.2654 4.49312 98.6723 4.44029 98.9805 4.36032C99.2748 4.28396 99.4773 4.18324 99.6767 4.08403C99.6863 4.07923 99.696 4.07444 99.7056 4.06965C99.9138 3.96624 100.125 3.86508 100.445 3.79046C100.767 3.71568 101.2 3.66717 101.852 3.67241C102.506 3.67767 102.895 3.71234 103.149 3.75906C103.4 3.8054 103.517 3.86357 103.626 3.91866L103.631 3.92145C103.743 3.97781 103.849 4.03184 104.069 4.06447C104.29 4.09719 104.624 4.10847 105.196 4.08272C106.283 4.03372 106.73 3.93348 107.161 3.83679C107.184 3.83164 107.207 3.8265 107.23 3.82137C107.679 3.7212 108.149 3.62761 109.37 3.60401C110.452 3.58311 111.025 3.61562 111.455 3.64001C111.511 3.64319 111.565 3.64623 111.617 3.64899C112.07 3.67315 112.401 3.67633 113.135 3.56931C113.69 3.48837 113.944 3.31497 114.2 3.13984C114.272 3.09026 114.345 3.04054 114.424 2.99274C114.783 2.77789 115.309 2.5828 116.672 2.5828C117.353 2.5828 117.788 2.65358 118.094 2.75676C118.4 2.85953 118.581 2.99528 118.754 3.13196C118.763 3.1397 118.773 3.14745 118.783 3.15521C118.947 3.28502 119.112 3.41577 119.372 3.51024C119.647 3.61015 120.025 3.66853 120.62 3.65133C121.217 3.63407 121.625 3.52413 121.937 3.36665C122.244 3.21137 122.456 3.01123 122.66 2.81767L122.668 2.81047C122.875 2.61417 123.076 2.42532 123.369 2.2841C123.662 2.14312 124.049 2.04812 124.628 2.04805C125.209 2.04798 125.508 2.14799 125.677 2.29124C125.838 2.42815 125.89 2.61055 125.95 2.82069C125.953 2.83051 125.956 2.8404 125.959 2.85034C126.022 3.07017 126.098 3.31117 126.335 3.51328C126.571 3.71438 126.958 3.87162 127.631 3.94568C129.007 4.09703 130.251 3.99422 131.138 3.85801C131.798 3.75662 132.447 4.25198 132.453 4.91219L134.783 253.938Z"  />
<path d="M70.95 4.08144V500.596C68.5625 500.421 66.4944 499.951 64.513 499.502C63.6454 499.305 62.7945 499.112 61.9406 498.949C59.1242 498.411 56.288 498.205 52.7533 499.285C52.06 499.497 51.5236 499.729 50.9935 499.959L50.95 499.978C50.4056 500.214 49.8632 500.446 49.1561 500.653C46.3042 501.485 44.0379 501.061 41.7543 500.537C41.5849 500.498 41.4154 500.459 41.2455 500.419C39.1258 499.926 36.9515 499.42 34.2573 499.831C33.5239 499.943 32.9466 500.088 32.3797 500.231L32.2832 500.256C31.6849 500.406 31.0883 500.552 30.318 500.651C28.29 500.913 26.7044 500.632 25.1118 500.322L24.8985 500.281C23.3754 499.984 21.8269 499.682 19.8699 499.83C18.826 499.909 18.0157 500.064 17.2078 500.224L17.0882 500.248C16.3199 500.4 15.5437 500.555 14.5577 500.651C11.7227 500.928 8.08604 500.722 5.15597 500.447C3.69139 500.309 2.40418 500.154 1.48315 500.033C1.04471 499.975 0.689274 499.926 0.437197 499.89C0.465404 499.886 0.49472 499.882 0.525064 499.878C0.84266 499.835 1.27374 499.752 1.72703 499.593C2.6325 499.276 3.63571 498.653 3.9885 497.432C4.86056 494.413 4.952 491.196 4.86605 487.709C4.8422 486.742 4.80471 485.754 4.76636 484.743C4.66643 482.11 4.56072 479.325 4.67572 476.355C4.95117 469.243 5.23141 463.916 5.52443 458.346C5.74696 454.116 5.97686 449.746 6.21763 444.348C7.33177 419.367 7.94603 405.354 8.6162 380.332C8.94652 367.999 9.20351 352.201 9.37792 339.485C9.46512 333.127 9.53169 327.54 9.57645 323.543C9.59883 321.544 9.61576 319.943 9.62709 318.841L9.63988 317.576L9.64309 317.248L9.6439 317.165L9.6441 317.144L9.64415 317.139L9.64416 317.137C9.64416 317.137 9.64417 317.137 9.59417 317.137C9.64417 317.137 9.64417 317.137 9.64417 317.137L9.64418 317.135L9.64423 317.13L9.6444 317.109L9.6451 317.026L9.64784 316.698L9.65842 315.434L9.69762 310.733C9.73088 306.737 9.77723 301.151 9.82954 294.794C9.93416 282.081 10.0626 266.282 10.1581 253.943C10.8802 160.634 11.6334 17.22 11.6959 5.24544C11.6984 4.76078 12.0519 4.43936 12.5446 4.3876C14.0271 4.23186 17.042 4.00294 19.1572 4.42404C19.7738 4.54681 20.0353 4.83385 20.3335 5.16132C20.3878 5.22099 20.4434 5.28201 20.5026 5.34362C20.6947 5.54365 20.9226 5.74653 21.2662 5.9204C21.6094 6.09404 22.0657 6.23757 22.7139 6.32258C23.364 6.40785 23.7817 6.33185 24.0817 6.16138C24.3807 5.99146 24.5551 5.73137 24.7249 5.46935C24.7312 5.45961 24.7375 5.44987 24.7439 5.44013C24.9086 5.1857 25.0737 4.93057 25.348 4.73063C25.6313 4.52403 26.0359 4.37349 26.6851 4.35659C27.3384 4.33958 27.7457 4.40814 28.0251 4.5174C28.3029 4.62603 28.4581 4.77628 28.606 4.93313C28.6192 4.94705 28.6323 4.96105 28.6454 4.9751C28.7807 5.11974 28.9209 5.26958 29.15 5.38433C29.4013 5.51024 29.7555 5.59232 30.3244 5.59232C30.8938 5.59232 31.2523 5.50582 31.5126 5.37351C31.7415 5.25715 31.8916 5.10636 32.0382 4.95907C32.0578 4.93933 32.0774 4.91966 32.0971 4.90014C32.2638 4.73493 32.4434 4.57541 32.7517 4.45995C33.0615 4.34397 33.5047 4.27119 34.1994 4.2882C34.8954 4.30524 35.306 4.38277 35.5716 4.4896C35.8343 4.59526 35.9578 4.73055 36.0784 4.87439C36.0865 4.884 36.0945 4.89367 36.1026 4.90338C36.2173 5.04101 36.3391 5.18711 36.5778 5.30978C36.8317 5.44027 37.2143 5.54284 37.8589 5.59217C38.5034 5.6415 38.9091 5.59779 39.1952 5.49632C39.4833 5.39414 39.6456 5.23485 39.8044 5.06663C39.8161 5.05423 39.8278 5.04179 39.8395 5.02931C39.986 4.87322 40.1371 4.71227 40.3928 4.57108C40.6691 4.41846 41.0707 4.2875 41.7227 4.21956C42.3771 4.15135 42.8089 4.14874 43.1247 4.18231C43.4394 4.21575 43.6406 4.28522 43.8348 4.36376C43.8676 4.37703 43.9003 4.39061 43.9334 4.40437C44.0972 4.47235 44.2709 4.54444 44.5117 4.60215C44.8015 4.67159 45.1875 4.72017 45.7749 4.72017C46.9517 4.72017 47.4664 4.52647 47.866 4.35699C47.8869 4.34817 47.9073 4.33945 47.9274 4.33086C48.0995 4.25736 48.2495 4.19329 48.431 4.15502C48.6325 4.11252 48.875 4.10166 49.2274 4.15095C49.8456 4.2374 50.2034 4.50381 50.5867 4.78925C50.6539 4.83931 50.722 4.88996 50.7923 4.94032C51.2658 5.27936 51.8312 5.59232 52.9392 5.59232C53.4926 5.59232 53.8601 5.50074 54.1378 5.3594C54.4022 5.22479 54.5819 5.04647 54.7592 4.87039L54.7844 4.84545C54.9705 4.66095 55.1601 4.47939 55.4529 4.33899C55.7458 4.19856 56.1456 4.09774 56.7524 4.08303C57.3609 4.06827 57.7246 4.13396 57.9705 4.23714C58.2077 4.33669 58.3393 4.47246 58.4801 4.61774L58.4932 4.6313C58.64 4.78267 58.7987 4.94093 59.092 5.05943C59.3837 5.17725 59.8048 5.25445 60.4763 5.25445C61.1492 5.25445 61.5753 5.15363 61.8735 5.0044C62.1664 4.85785 62.3316 4.66647 62.4825 4.49168L62.4917 4.4811C62.6451 4.30349 62.7846 4.14628 63.0334 4.05197C63.2836 3.95713 63.6506 3.92389 64.2608 4.01411C64.8707 4.10429 65.1941 4.24634 65.3832 4.40283C65.5532 4.54343 65.6191 4.69837 65.6868 4.8576C65.6941 4.87485 65.7015 4.89216 65.709 4.9095C65.7864 5.08822 65.8791 5.26442 66.1376 5.39171C66.391 5.51653 66.7995 5.59232 67.5018 5.59232C68.9016 5.59232 69.2959 5.45823 69.5862 5.18241C69.6493 5.1224 69.7073 5.05602 69.7687 4.98562C69.776 4.97726 69.7833 4.96884 69.7907 4.96037C69.861 4.88006 69.9384 4.79327 70.038 4.69922C70.227 4.52084 70.4977 4.31445 70.95 4.08144Z"  />
<path d="M244.774 303.603L244.779 303.573L244.754 303.555C240.348 300.354 236.283 295.149 232.802 289.072C229.322 282.996 226.426 276.051 224.358 269.373C223.507 266.623 222.609 263.795 221.691 260.902C217.335 247.175 212.521 232.003 210.015 216.999C209.152 211.828 208.39 207.388 207.686 203.282C205.851 192.579 204.407 184.156 202.567 171.033C201.235 161.529 199.786 149.237 198.671 139.319C198.114 134.361 197.639 129.996 197.304 126.871C197.137 125.309 197.004 124.056 196.914 123.194C196.868 122.763 196.833 122.43 196.81 122.205L196.783 121.948L196.776 121.883L196.775 121.867L196.774 121.863L196.774 121.862C196.774 121.861 196.774 121.861 196.772 121.862C196.768 121.862 196.758 121.863 196.731 121.866L196.774 121.861L196.774 121.86L193.153 92.9992L193.153 92.9986L193.153 92.9973L193.153 92.9962L193.152 92.9864L193.149 92.9478L193.137 92.7959L193.088 92.2088C193.046 91.6975 192.986 90.9542 192.911 90.0262C192.761 88.1702 192.555 85.5756 192.326 82.621C191.87 76.7117 191.326 69.3627 190.981 63.6032C190.258 51.5567 189.776 36.057 189.473 23.5686C189.322 17.3245 189.217 11.8333 189.148 7.90316C189.114 5.93809 189.09 4.36328 189.074 3.27975C189.066 2.73798 189.06 2.31904 189.056 2.03553L189.051 1.71344L189.051 1.67049L189.069 1.67532C189.121 1.68965 189.198 1.71012 189.294 1.73471C189.486 1.7839 189.755 1.84963 190.06 1.91577C190.671 2.04785 191.434 2.18243 192.034 2.18912C192.641 2.1959 193.121 2.04921 193.586 1.90701C193.614 1.89835 193.642 1.88971 193.67 1.88112C194.162 1.73135 194.647 1.59683 195.271 1.65442C195.849 1.7077 196.294 1.94796 196.744 2.19027C196.764 2.20096 196.784 2.21166 196.803 2.22235C197.272 2.47434 197.75 2.71905 198.379 2.72362C199.005 2.72817 199.485 2.44639 199.949 2.17458C199.963 2.16623 199.977 2.1579 199.991 2.14958C200.471 1.86872 200.937 1.60766 201.548 1.65448C202.154 1.70093 202.607 2.0751 203.071 2.45802C203.083 2.4676 203.094 2.47718 203.106 2.48676C203.577 2.8755 204.064 3.26506 204.725 3.25812C205.365 3.2514 205.837 2.84008 206.29 2.44508L206.309 2.42862C206.774 2.02341 207.222 1.64109 207.827 1.65462C208.407 1.66759 208.834 2.0383 209.278 2.4302L209.295 2.44568C209.728 2.82802 210.178 3.22577 210.791 3.25805C211.477 3.29421 211.986 2.92456 212.48 2.53741C212.51 2.51386 212.54 2.49024 212.57 2.46664C213.037 2.09892 213.501 1.73411 214.11 1.65421C214.692 1.57793 215.144 1.71072 215.604 1.86462C215.639 1.8763 215.674 1.8881 215.709 1.89994C216.136 2.044 216.58 2.19377 217.139 2.18913C217.678 2.18464 218.104 2.04331 218.516 1.90691C218.545 1.89727 218.574 1.88766 218.603 1.87812C219.042 1.73343 219.474 1.60512 220.03 1.65444C220.574 1.70262 220.991 1.94399 221.415 2.18881C221.429 2.19708 221.443 2.20536 221.458 2.21363C221.894 2.46566 222.34 2.71405 222.931 2.72362C223.549 2.73364 224.018 2.45857 224.474 2.18952L224.479 2.18648C224.936 1.91703 225.381 1.65463 225.966 1.65463C226.536 1.65463 226.974 1.92134 227.421 2.19377L227.457 2.2158C227.914 2.49387 228.384 2.77011 229.004 2.72348C229.513 2.68516 229.895 2.43028 230.265 2.18338L230.269 2.18072C230.643 1.93129 231.006 1.69071 231.487 1.65449C232.071 1.61055 232.516 1.86881 232.974 2.14788C232.988 2.15658 233.003 2.16531 233.017 2.17406C233.459 2.44358 233.919 2.72362 234.518 2.72362C235.133 2.72362 235.601 2.45046 236.056 2.18463L236.06 2.1823C236.516 1.91588 236.96 1.65757 237.542 1.65466L238.481 2.04615L238.481 2.04627L238.484 2.04743L239.95 2.53604V3V4.5V7.5V14.3573V128.5V133V139.78V145H239.95L239.95 145.005L240.45 150.004L240.45 150.005L240.95 156.503L240.95 156.504L241.45 165.003L241.45 165.003L241.95 173V173.002V175.5H241.949L241.951 175.509L243.451 183.508L243.451 183.509L244.451 190.008L244.451 190.009L245.951 198.509L247.451 207.009L248.951 215.507L248.951 215.509L249.451 219.007L249.45 219.007L249.452 219.014L250.451 222.512L250.452 222.514L251.951 228.512L253.451 234.512L254.451 238.512L255.451 242.512L256.951 248.512L256.952 248.513L259.951 260.011L259.952 260.013L263.451 275.011L263.451 275.012L265.451 283.01L265.451 283.012L266.45 288.006L266.451 288.01L267.95 300V300.003V400.5L267.95 450.5L267.95 450.501L268.949 500.78L267.5 500.95L265.975 500.775C265.974 500.775 265.974 500.775 265.973 500.775C263.466 500.336 261.862 500.24 259.345 500.24C258.712 500.24 258.105 500.325 257.53 500.423C257.383 500.448 257.238 500.474 257.096 500.499C256.679 500.574 256.281 500.645 255.901 500.683C255.393 500.734 254.923 500.726 254.492 500.59C254.063 500.454 253.669 500.191 253.316 499.725C253.038 499.359 252.489 498.296 252.112 496.99C251.736 495.684 251.535 494.144 251.945 492.822L251.954 492.792L251.932 492.771C251.788 492.631 251.641 492.56 251.501 492.532C251.362 492.505 251.233 492.524 251.123 492.559C251.014 492.594 250.923 492.647 250.86 492.691C250.854 492.695 250.849 492.699 250.844 492.702V484.255V484.228L250.821 484.213L249.188 483.159V478.91V478.872L249.151 478.862L243.119 477.268V471.427V471.392L243.086 471.38L243.085 471.38L243.083 471.379L243.075 471.376L243.043 471.364C243.014 471.354 242.972 471.338 242.917 471.318C242.808 471.276 242.649 471.214 242.451 471.133C242.057 470.969 241.509 470.726 240.894 470.408C239.669 469.775 238.185 468.848 237.128 467.667C237.13 462.057 237.585 453.952 238.113 444.827L238.186 443.567C238.695 434.764 239.256 425.093 239.533 415.841C239.725 409.46 240.157 402.86 240.605 396.278C240.639 395.772 240.674 395.266 240.708 394.76C241.122 388.688 241.534 382.647 241.766 376.823C242.045 369.805 241.878 362.812 241.718 356.111L241.705 355.567C241.541 348.701 241.398 342.15 241.766 336.203C242.648 321.929 243.648 310.353 244.774 303.603Z"  />
<path d="M287.676 1.66841C287.688 1.66665 287.699 1.66503 287.708 1.66356L287.708 1.71519L287.707 2.04332L287.702 3.33378C287.697 4.46964 287.691 6.14824 287.683 8.31917C287.668 12.661 287.648 18.9722 287.629 26.8494C287.591 42.6039 287.555 64.6227 287.566 89.6801C287.587 139.795 287.794 202.064 288.536 250.681C288.905 274.798 289.473 293.607 290.044 312.417L290.059 312.931C290.625 331.569 291.193 350.255 291.571 374.15C291.78 387.401 292.03 399.325 292.265 410.587C292.846 438.344 293.343 462.076 292.95 491.731C292.873 491.986 292.757 492.225 292.631 492.455C292.578 492.552 292.523 492.648 292.468 492.744C292.394 492.873 292.321 493 292.257 493.123C292.033 493.555 291.894 493.98 292.128 494.434C292.687 495.516 293.663 496.191 294.496 496.594C294.912 496.796 295.294 496.93 295.572 497.014C295.611 497.026 295.648 497.037 295.683 497.047C295.706 497.054 295.729 497.06 295.75 497.065L281.96 498.637L281.926 498.641L281.917 498.673L281.917 498.674L281.917 498.675L281.916 498.679L281.911 498.697C281.906 498.713 281.9 498.735 281.891 498.764C281.874 498.822 281.848 498.906 281.815 499.005C281.75 499.205 281.656 499.471 281.542 499.736C281.428 500.002 281.295 500.265 281.151 500.461C281.08 500.559 281.007 500.638 280.934 500.693C280.861 500.747 280.791 500.775 280.724 500.775C279.417 500.775 278.601 500.664 277.848 500.542C277.752 500.526 277.657 500.51 277.562 500.494C276.912 500.386 276.267 500.279 275.347 500.24C274.079 500.187 273.002 500.31 271.986 500.468C271.707 500.512 271.432 500.558 271.16 500.604C270.458 500.722 269.771 500.837 269.049 500.9L268.05 463.5V370.5V300H268.051L268.049 299.993L265.55 282.993L265.549 282.988L257.049 248.488L257.048 248.488L249.549 218.992L249.548 218.988L242.05 175.494L240.05 145V144.998V119.5V2.72397H240.586C241.202 2.72397 241.669 2.4508 242.124 2.18498L242.128 2.18265C242.587 1.91471 243.034 1.65498 243.62 1.65498C244.207 1.65498 244.654 1.91253 245.113 2.17927L245.121 2.18411C245.575 2.44799 246.041 2.71932 246.655 2.72397C247.282 2.72872 247.759 2.45259 248.223 2.18409L248.232 2.1791C248.701 1.90764 249.158 1.64567 249.758 1.65497C250.332 1.66387 250.768 1.91719 251.216 2.17941L251.224 2.18412C251.667 2.44357 252.123 2.71029 252.723 2.72396C253.367 2.73863 253.857 2.46404 254.335 2.19373L254.345 2.18789C254.822 1.91832 255.287 1.65498 255.896 1.65498C256.506 1.65498 256.971 1.91832 257.448 2.18789L257.458 2.19373C257.936 2.46404 258.426 2.73863 259.07 2.72396C259.67 2.71029 260.126 2.44357 260.569 2.18412L260.577 2.17941C261.025 1.91719 261.461 1.66387 262.035 1.65497C262.635 1.64567 263.092 1.90764 263.561 2.1791L263.57 2.18408C264.034 2.45259 264.511 2.72872 265.138 2.72397C265.754 2.7193 266.222 2.47715 266.68 2.2265C266.702 2.21455 266.723 2.20258 266.745 2.19062C267.182 1.95078 267.616 1.71272 268.178 1.65471C268.814 1.58896 269.309 1.73802 269.812 1.89754C269.827 1.90232 269.842 1.9071 269.857 1.91189C270.346 2.06692 270.847 2.22596 271.486 2.18939C272.196 2.14876 272.741 1.89707 273.277 1.65016L273.297 1.64093C273.839 1.39067 274.374 1.14793 275.071 1.12044C275.625 1.09861 276.061 1.2494 276.499 1.40104C276.523 1.4093 276.547 1.41756 276.571 1.4258C277.033 1.58502 277.504 1.73402 278.11 1.65455C278.75 1.57068 279.235 1.19056 279.699 0.826999C279.729 0.803462 279.758 0.779994 279.788 0.756681C280.284 0.370034 280.766 0.0248226 281.412 0.0514442C282.008 0.0760386 282.452 0.386155 282.905 0.740123C282.946 0.772567 282.988 0.80539 283.029 0.838376C283.441 1.16297 283.872 1.50333 284.435 1.65329C285.084 1.82597 285.918 1.82543 286.587 1.78274C286.922 1.76135 287.217 1.72926 287.428 1.70253C287.533 1.68916 287.618 1.67712 287.676 1.66841Z"  />
</svg>
