<svg width="178" height="231" viewBox="0 0 178 231" fill="none" xmlns="http://www.w3.org/2000/svg">
<symbol id="left-1" width="178" height="231" viewBox="0 0 178 231">
<path d="M3.60548 101.83L3.60532 101.833L3.29202 108.774L2.51983 125.88V125.881L2.52011 138.1L2.52003 138.102L1.92768 152.766L1.92763 152.767C1.73426 156.269 1.44651 159.993 1.15105 163.817C0.700238 169.65 0.231472 175.717 0.0525946 181.585C0.043755 181.875 0.0551908 182.191 0.123377 182.481C0.191567 182.771 0.31554 183.03 0.528659 183.21C0.637967 183.302 0.793409 183.368 0.96939 183.415C1.1447 183.462 1.33645 183.488 1.515 183.502C1.69337 183.516 1.85741 183.517 1.97691 183.516C2.03662 183.515 2.08512 183.513 2.11862 183.511L2.15711 183.509L2.16701 183.509L2.16947 183.508L2.17006 183.508L2.17021 183.508L2.2216 183.505L2.22372 183.556C2.33585 186.282 2.19528 190.055 2.05591 193.795C2.01036 195.017 1.96494 196.236 1.92851 197.414C1.85453 199.806 1.8176 202.028 1.89158 203.769C1.92858 204.639 1.99327 205.387 2.09457 205.976C2.19634 206.566 2.33373 206.986 2.51023 207.208C2.63297 207.362 2.81754 207.464 3.03071 207.527C3.24366 207.591 3.48126 207.616 3.70478 207.621C3.92802 207.625 4.13536 207.61 4.28703 207.593C4.3628 207.584 4.42453 207.576 4.46721 207.569C4.48855 207.566 4.50513 207.563 4.5163 207.561L4.52895 207.559L4.53208 207.558L4.53283 207.558L4.533 207.558L4.53302 207.558L4.59108 207.547L4.59229 207.606C4.73288 214.442 4.16095 219.636 3.74811 223.385C3.72235 223.619 3.69721 223.848 3.6729 224.07C3.46583 225.968 3.31956 227.457 3.36325 228.571C3.40702 229.688 3.64108 230.412 4.17674 230.798C4.18179 230.802 4.19718 230.809 4.22964 230.818C4.26042 230.826 4.30163 230.834 4.35371 230.841C4.45776 230.856 4.6014 230.87 4.78399 230.882C5.14897 230.905 5.66596 230.922 6.3254 230.934C7.6441 230.956 9.52986 230.954 11.9028 230.935C16.6485 230.896 23.3411 230.785 31.3391 230.649C31.9554 230.638 32.5794 230.627 33.2109 230.617C48.97 230.348 69.3726 230 89.8556 229.907C104.749 229.84 119.686 229.911 132.826 229.973C138.329 229.999 143.518 230.023 148.256 230.036C156.282 230.056 163.016 230.042 167.801 229.94C170.194 229.889 172.099 229.817 173.435 229.715C174.103 229.665 174.627 229.607 174.999 229.542C175.184 229.509 175.33 229.475 175.436 229.44C175.489 229.422 175.531 229.404 175.562 229.386C175.594 229.369 175.611 229.353 175.62 229.341C176.08 228.693 176.284 227.673 176.322 226.415C176.36 225.158 176.232 223.673 176.036 222.1C175.894 220.964 175.717 219.782 175.54 218.61C175.229 216.54 174.922 214.5 174.825 212.791C174.753 211.532 174.682 209.918 174.629 208.62C174.603 207.971 174.581 207.4 174.565 206.992C174.558 206.788 174.552 206.624 174.548 206.512L174.543 206.383L174.542 206.349L174.542 206.341L174.541 206.339L174.541 206.338L174.541 206.338L174.539 206.281L174.596 206.286L174.596 206.286L174.597 206.286L174.6 206.287L174.611 206.288L174.656 206.291C174.694 206.294 174.75 206.298 174.819 206.301C174.955 206.308 175.143 206.315 175.344 206.312C175.546 206.309 175.761 206.297 175.955 206.267C176.149 206.237 176.315 206.189 176.423 206.12C176.516 206.06 176.599 205.949 176.669 205.783C176.739 205.617 176.795 205.402 176.837 205.14C176.922 204.617 176.953 203.917 176.944 203.081C176.925 201.409 176.746 199.202 176.524 196.79C176.462 196.114 176.396 195.421 176.329 194.719C175.922 190.424 175.483 185.805 175.611 182.56L175.613 182.506L175.666 182.513L175.667 182.513L175.667 182.513L175.67 182.513L175.681 182.514C175.69 182.515 175.705 182.517 175.723 182.518C175.76 182.521 175.813 182.526 175.879 182.529C176.011 182.537 176.192 182.542 176.39 182.533C176.588 182.524 176.802 182.502 176.999 182.454C177.198 182.407 177.376 182.335 177.505 182.23C177.562 182.183 177.618 182.094 177.669 181.955C177.719 181.818 177.762 181.638 177.798 181.419C177.871 180.98 177.915 180.388 177.936 179.668C177.977 178.227 177.925 176.279 177.82 174.033C177.696 171.373 177.498 168.298 177.296 165.154C177.157 162.988 177.015 160.789 176.894 158.672V158.669C176.896 154.884 176.776 150.823 176.663 146.968C176.599 144.766 176.536 142.63 176.499 140.652C176.449 137.972 176.46 135.257 176.471 132.608C176.473 132.345 176.474 132.082 176.475 131.82C176.486 128.922 176.49 126.117 176.404 123.535L176.404 123.534C176.375 120.374 176.355 117.498 176.336 114.845C176.29 108.192 176.254 102.941 176.107 98.1175V98.116L176.107 0.0500031H2.71778L3.30955 89.3166L3.30956 89.3174L3.60548 101.83Z" fill="white" stroke="#D9D9D9" stroke-width="0.1"/>
</symbol>
</svg>
