<svg width="427" height="512" viewBox="0 0 427 512" fill="none" xmlns="http://www.w3.org/2000/svg">
<path d="M118.139 110.558C101.884 73.1867 75.0786 1.01541 80.7823 1.01317C114.704 0.999819 170.006 0.998448 221.5 1.00113L227.5 42L238.5 98L255 160.5L283 245.38L312.901 291.906L334.5 331.84L340.848 508.063L330.582 506.231L318.035 505.132C318.035 505.132 308.054 503.301 308.054 499.271V482.784C308.054 482.784 302.636 481.728 302.636 478.388C302.636 455.673 306.478 433.564 308.054 404.748C309.97 369.722 311.277 350.23 312.901 340.633C314.421 331.66 314.898 331.84 314.898 331.84C314.898 331.84 309.388 331.462 304.632 330.743C280.394 327.079 241.327 297.404 241.327 297.404C241.327 297.404 208.797 269.389 192.565 245.38C158.631 195.186 142.425 166.395 118.139 110.558Z"  />
<path d="M340.848 508.064H350.258C350.258 508.064 358.176 510.957 363.375 510.995C367.644 511.026 375.067 510.995 375.637 508.797C375.919 507.711 375.922 506.232 375.922 506.232C375.922 506.232 392.347 507.793 402.442 504.767C406.861 503.442 412.708 501.254 417.84 500.004C422.643 498.835 426.928 498.643 425.825 496.34C424.934 494.48 423.829 493.41 423.829 493.41C423.829 493.41 423.354 490.735 421.262 490.479C403.297 488.28 398.744 488.647 381.625 488.647C364.801 488.647 360.238 434.058 356.531 395.957C353.171 361.425 353.661 320.484 350.434 301.339C350.538 301.503 350.668 301.661 350.828 301.799C351.591 302.458 352.993 302.631 353.679 302.532C354.669 302.389 355.669 302.441 356.531 301.799C357.707 300.922 358.316 300.128 358.812 298.502C359.221 297.163 359.355 296.642 359.383 295.204C359.405 294.063 359.117 293.016 358.821 291.94L358.812 291.907C358.442 290.558 357.475 289.368 356.531 288.61C355.475 287.762 354.911 288.109 353.679 287.877C352.682 287.69 351.113 288.243 351.113 288.243C351.113 288.243 352.069 268.825 352.539 256.372C355.087 188.92 352.539 83.4476 352.539 83.4476L348.832 29.2257H347.692V25.9284L348.547 25.562C348.547 25.562 349.656 17.5311 349.402 12.3729C349.18 7.86435 347.692 1.01557 347.692 1.01557C347.692 1.01557 287.748 1.00541 221.5 1.00195L227.5 42.0008L238.5 98.0008L255 160.501L283 245.381L312.902 291.907L334.5 331.841L340.848 508.064Z"  />
<path d="M308.861 110.558C325.116 73.1867 351.921 1.01541 346.218 1.01317C312.296 0.999819 256.994 0.998448 205.5 1.00113L199.5 42L188.5 98L172 160.5L144 245.38L114.099 291.906L92.5002 331.84L86.1523 508.063L96.4181 506.231L108.965 505.132C108.965 505.132 118.946 503.301 118.946 499.271V482.784C118.946 482.784 124.364 481.728 124.364 478.388C124.364 455.673 120.522 433.564 118.946 404.748C117.03 369.722 115.723 350.23 114.099 340.633C112.579 331.66 112.102 331.84 112.102 331.84C112.102 331.84 117.612 331.462 122.368 330.743C146.606 327.079 185.673 297.404 185.673 297.404C185.673 297.404 218.203 269.389 234.435 245.38C268.369 195.186 284.575 166.395 308.861 110.558Z"  />
<path d="M86.1521 508.064H76.7419C76.7419 508.064 68.824 510.957 63.6246 510.995C59.3565 511.026 51.9331 510.995 51.3628 508.797C51.081 507.711 51.0776 506.232 51.0776 506.232C51.0776 506.232 34.6528 507.793 24.5578 504.767C20.1389 503.442 14.2925 501.254 9.15988 500.004C4.35675 498.835 0.0723498 498.643 1.17485 496.34C2.06555 494.48 3.17094 493.41 3.17094 493.41C3.17094 493.41 3.64608 490.735 5.73797 490.479C23.703 488.28 28.256 488.647 45.375 488.647C62.1994 488.647 66.7619 434.058 70.469 395.957C73.8287 361.425 73.3393 320.484 76.5658 301.339C76.4619 301.503 76.3323 301.661 76.1722 301.799C75.4092 302.458 74.0075 302.631 73.3206 302.532C72.3307 302.389 71.3305 302.441 70.469 301.799C69.2933 300.922 68.6837 300.128 68.1877 298.502C67.7794 297.163 67.6451 296.642 67.6174 295.204C67.5955 294.063 67.8831 293.016 68.1788 291.94L68.1877 291.907C68.5584 290.558 69.5247 289.368 70.469 288.61C71.5248 287.762 72.0886 288.109 73.3206 287.877C74.3185 287.69 75.887 288.243 75.887 288.243C75.887 288.243 74.931 268.825 74.4606 256.372C71.9132 188.92 74.4606 83.4476 74.4606 83.4476L78.1683 29.2257H79.3083V25.9284L78.4535 25.562C78.4535 25.562 77.3436 17.5311 77.598 12.3729C77.8203 7.86435 79.3083 1.01557 79.3083 1.01557C79.3083 1.01557 139.252 1.00541 205.5 1.00195L199.5 42.0008L188.5 98.0008L172 160.501L144 245.381L114.098 291.907L92.5 331.841L86.1521 508.064Z"  />
</svg>
