<svg width="427" height="512" viewBox="0 0 427 512" fill="none" xmlns="http://www.w3.org/2000/svg">
<path d="M118.139 110.558C101.884 73.1865 75.0787 1.01526 80.7824 1.01301C102.696 1.00439 133.532 1.00076 166.5 1L173 51.4998L198 125L241.327 206L300 288.609L330 331.84L330.582 506.231L318.035 505.132C318.035 505.132 308.054 503.3 308.054 499.27V482.784C308.054 482.784 302.636 481.728 302.636 478.388C302.636 455.673 306.478 433.563 308.054 404.748C309.97 369.721 311.277 350.229 312.902 340.633C314.421 331.659 314.898 331.84 314.898 331.84C314.898 331.84 309.388 331.462 304.633 330.743C280.394 327.079 241.327 297.403 241.327 297.403C241.327 297.403 208.797 269.389 192.565 245.38C158.631 195.186 142.425 166.395 118.139 110.558Z"  />
<path d="M340.848 508.063L330.582 506.231L330 331.84L300 288.609L241.327 206L198 125L173 51.5L166.5 1.00016C196.789 0.999457 228.878 1.00117 257.5 1.00365L262 51.5L276 125L300 206L326.5 284.5L341.5 331.84L345.553 508.063H340.848Z"  />
<path d="M350.258 508.064C350.258 508.064 358.176 510.957 363.375 510.994C367.644 511.026 375.067 510.994 375.637 508.796C375.919 507.71 375.922 506.232 375.922 506.232C375.922 506.232 392.347 507.793 402.442 504.766C406.861 503.441 412.708 501.253 417.84 500.004C422.643 498.834 426.928 498.642 425.825 496.34C424.934 494.48 423.829 493.409 423.829 493.409C423.829 493.409 423.354 490.734 421.262 490.478C403.297 488.28 398.744 488.646 381.625 488.646C364.801 488.646 360.238 434.058 356.531 395.956C353.171 361.424 353.661 320.484 350.434 301.339C350.538 301.503 350.668 301.66 350.828 301.798C351.591 302.457 352.993 302.63 353.679 302.531C354.669 302.389 355.669 302.441 356.531 301.798C357.707 300.922 358.316 300.127 358.812 298.501C359.221 297.162 359.355 296.641 359.383 295.204C359.405 294.062 359.117 293.015 358.821 291.939L358.812 291.907C358.442 290.557 357.475 289.368 356.531 288.609C355.475 287.761 354.911 288.108 353.679 287.877C352.682 287.689 351.113 288.243 351.113 288.243C351.113 288.243 352.069 268.824 352.539 256.371C355.087 188.919 352.539 83.447 352.539 83.447L348.832 29.2251H347.692V25.9278L348.547 25.5615C348.547 25.5615 349.656 17.5305 349.402 12.3723C349.18 7.86379 347.692 1.015 347.692 1.015C347.692 1.015 307.991 1.00827 257.5 1.00391L262 51.5003L276 125L300 206L326.5 284.5L341.5 331.84L345.553 508.064H350.258Z"  />
<path d="M308.861 110.558C325.116 73.1865 351.921 1.01526 346.218 1.01301C324.304 1.00439 293.468 1.00076 260.5 1L254 51.4998L229 125L185.673 206L127 288.609L97.0001 331.84L96.418 506.231L108.965 505.132C108.965 505.132 118.946 503.3 118.946 499.27V482.784C118.946 482.784 124.364 481.728 124.364 478.388C124.364 455.673 120.522 433.563 118.946 404.748C117.03 369.721 115.723 350.229 114.098 340.633C112.579 331.659 112.102 331.84 112.102 331.84C112.102 331.84 117.612 331.462 122.367 330.743C146.606 327.079 185.673 297.403 185.673 297.403C185.673 297.403 218.203 269.389 234.435 245.38C268.369 195.186 284.575 166.395 308.861 110.558Z" />
<path d="M86.1524 508.063L96.4181 506.231L97.0002 331.84L127 288.609L185.673 206L229 125L254 51.5L260.5 1.00016C230.211 0.999457 198.122 1.00117 169.5 1.00365L165 51.5L151 125L127 206L100.5 284.5L85.5002 331.84L81.4473 508.063H86.1524Z" />
<path d="M76.7419 508.064C76.7419 508.064 68.824 510.957 63.6246 510.994C59.3565 511.026 51.9331 510.994 51.3628 508.796C51.081 507.71 51.0776 506.232 51.0776 506.232C51.0776 506.232 34.6528 507.793 24.5578 504.766C20.1389 503.441 14.2925 501.253 9.15988 500.004C4.35675 498.834 0.0723498 498.642 1.17485 496.34C2.06555 494.48 3.17094 493.409 3.17094 493.409C3.17094 493.409 3.64608 490.734 5.73797 490.478C23.703 488.28 28.256 488.646 45.375 488.646C62.1994 488.646 66.7619 434.058 70.469 395.956C73.8287 361.424 73.3393 320.484 76.5658 301.339C76.4619 301.503 76.3323 301.66 76.1722 301.798C75.4092 302.457 74.0075 302.63 73.3206 302.531C72.3307 302.389 71.3305 302.441 70.469 301.798C69.2933 300.922 68.6837 300.127 68.1877 298.501C67.7794 297.162 67.6451 296.641 67.6174 295.204C67.5955 294.062 67.8831 293.015 68.1788 291.939L68.1877 291.907C68.5584 290.557 69.5247 289.368 70.469 288.609C71.5248 287.761 72.0886 288.108 73.3206 287.877C74.3185 287.689 75.887 288.243 75.887 288.243C75.887 288.243 74.931 268.824 74.4606 256.371C71.9132 188.919 74.4606 83.447 74.4606 83.447L78.1683 29.2251H79.3083V25.9278L78.4535 25.5615C78.4535 25.5615 77.3436 17.5305 77.598 12.3723C77.8203 7.86379 79.3083 1.015 79.3083 1.015C79.3083 1.015 119.009 1.00827 169.5 1.00391L165 51.5003L151 125L127 206L100.5 284.5L85.5 331.84L81.447 508.064H76.7419Z"  />
</svg>
