<svg width="427" height="513" viewBox="0 0 427 513" fill="none" xmlns="http://www.w3.org/2000/svg">
<path d="M347.692 2.01475C347.692 2.01475 158.345 1.98264 80.7825 2.01317C75.0788 2.01541 101.884 74.1867 118.139 111.558C142.425 167.395 158.631 196.186 192.565 246.38C208.797 270.389 241.327 298.404 241.327 298.404C241.327 298.404 280.394 328.079 304.633 331.743C309.388 332.462 314.898 332.84 314.898 332.84C314.898 332.84 314.421 332.66 312.902 341.633C311.277 351.23 309.97 370.722 308.055 405.748C306.479 434.564 302.637 456.673 302.637 479.388C302.637 482.728 308.055 483.784 308.055 483.784V500.271C308.055 504.301 318.035 506.132 318.035 506.132L330.582 507.231L340.848 509.063H350.258C350.258 509.063 358.176 511.956 363.375 511.994C367.644 512.025 375.067 511.994 375.637 509.796C375.919 508.71 375.922 507.231 375.922 507.231C375.922 507.231 392.347 508.792 402.442 505.766C406.861 504.441 412.707 502.253 417.84 501.003C422.643 499.834 426.928 499.642 425.825 497.34C424.934 495.479 423.829 494.409 423.829 494.409C423.829 494.409 423.354 491.734 421.262 491.478C403.297 489.28 398.744 489.646 381.625 489.646C364.801 489.646 360.238 435.058 356.531 396.956C353.171 362.424 353.661 321.483 350.434 302.339C350.538 302.502 350.668 302.66 350.828 302.798C351.591 303.457 352.993 303.63 353.679 303.531C354.669 303.388 355.669 303.44 356.531 302.798C357.707 301.922 358.316 301.127 358.812 299.501C359.221 298.162 359.355 297.641 359.383 296.204C359.405 295.062 359.117 294.015 358.821 292.939L358.812 292.906C358.442 291.557 357.475 290.367 356.531 289.609C355.475 288.761 354.911 289.108 353.679 288.876C352.682 288.689 351.113 289.243 351.113 289.243C351.113 289.243 352.069 269.824 352.539 257.371C355.087 189.919 352.539 84.4468 352.539 84.4468L348.832 30.2248H347.692V26.9276L348.547 26.5612C348.547 26.5612 349.656 18.5302 349.402 13.3721C349.18 8.86353 347.692 2.01475 347.692 2.01475Z"  />
<path d="M79.3083 1.01475C79.3083 1.01475 268.655 0.982645 346.218 1.01317C351.921 1.01541 325.116 73.1867 308.861 110.558C284.575 166.395 268.369 195.186 234.435 245.38C218.203 269.389 185.673 297.404 185.673 297.404C185.673 297.404 146.606 327.079 122.367 330.743C117.612 331.462 112.102 331.84 112.102 331.84C112.102 331.84 112.579 331.66 114.098 340.633C115.723 350.23 117.03 369.722 118.945 404.748C120.521 433.564 124.363 455.673 124.363 478.388C124.363 481.728 118.945 482.784 118.945 482.784V499.271C118.945 503.301 108.965 505.132 108.965 505.132L96.4179 506.231L86.1521 508.063H76.7419C76.7419 508.063 68.824 510.956 63.6246 510.994C59.3565 511.025 51.9331 510.994 51.3628 508.796C51.081 507.71 51.0776 506.231 51.0776 506.231C51.0776 506.231 34.6528 507.792 24.5578 504.766C20.1389 503.441 14.2925 501.253 9.15988 500.003C4.35675 498.834 0.0723498 498.642 1.17485 496.34C2.06555 494.479 3.17094 493.409 3.17094 493.409C3.17094 493.409 3.64608 490.734 5.73797 490.478C23.703 488.28 28.256 488.646 45.375 488.646C62.1994 488.646 66.7619 434.058 70.469 395.956C73.8287 361.424 73.3393 320.483 76.5658 301.339C76.4619 301.502 76.3323 301.66 76.1722 301.798C75.4092 302.457 74.0075 302.63 73.3206 302.531C72.3307 302.388 71.3305 302.44 70.469 301.798C69.2933 300.922 68.6837 300.127 68.1877 298.501C67.7794 297.162 67.6451 296.641 67.6174 295.204C67.5955 294.062 67.8831 293.015 68.1788 291.939L68.1877 291.906C68.5584 290.557 69.5247 289.367 70.469 288.609C71.5248 287.761 72.0886 288.108 73.3206 287.876C74.3185 287.689 75.887 288.243 75.887 288.243C75.887 288.243 74.931 268.824 74.4606 256.371C71.9132 188.919 74.4606 83.4468 74.4606 83.4468L78.1683 29.2248H79.3083V25.9276L78.4535 25.5612C78.4535 25.5612 77.3436 17.5302 77.598 12.3721C77.8203 7.86353 79.3083 1.01475 79.3083 1.01475Z"  />
</svg>
