<svg width="427" height="512" viewBox="0 0 427 512" fill="none" xmlns="http://www.w3.org/2000/svg">
<path d="M308.055 482.784C308.055 482.784 302.637 481.728 302.637 478.388C302.637 455.673 306.479 433.564 308.055 404.748C309.69 374.848 310.881 356.268 312.206 345.5H353.541L353.553 345.808C354.219 361.979 354.947 379.679 356.531 395.956C360.238 434.058 364.801 488.646 381.625 488.646C398.744 488.646 403.297 488.28 421.262 490.478C423.354 490.734 423.829 493.409 423.829 493.409C423.829 493.409 424.934 494.479 425.825 496.34C426.928 498.642 422.643 498.834 417.84 500.003C412.708 501.253 406.861 503.441 402.442 504.766C392.347 507.792 375.922 506.231 375.922 506.231C375.922 506.231 375.919 507.71 375.637 508.796C375.067 510.994 367.644 511.025 363.375 510.994C358.176 510.956 350.258 508.063 350.258 508.063H340.848L330.582 506.231L318.035 505.132C318.035 505.132 308.055 503.301 308.055 499.271V482.784Z"  />
<path d="M192.564 245.38C208.796 269.389 241.327 297.404 241.327 297.404C241.327 297.404 280.393 327.079 304.632 330.743C309.387 331.462 314.897 331.84 314.897 331.84C314.897 331.84 314.42 331.66 312.901 340.633C312.663 342.037 312.432 343.654 312.205 345.5H353.54C352.799 327.488 352.129 311.402 350.433 301.339C350.537 301.502 350.667 301.66 350.827 301.798C351.59 302.457 352.992 302.63 353.678 302.531C354.668 302.388 355.669 302.44 356.53 301.798C357.706 300.922 358.315 300.127 358.811 298.501C359.22 297.162 359.354 296.641 359.382 295.204C359.404 294.062 359.116 293.015 358.82 291.939L358.811 291.906C358.441 290.557 357.474 289.367 356.53 288.609C355.474 287.761 354.91 288.108 353.678 287.876C352.681 287.689 351.112 288.243 351.112 288.243C351.112 288.243 352.068 268.824 352.538 256.371C353.765 223.889 353.81 182.591 353.528 148.5H135.423C151.75 182.318 167.208 207.874 192.564 245.38Z"  />
<path d="M80.7832 1.01317C158.346 0.982645 347.692 1.01475 347.692 1.01475C347.692 1.01475 349.18 7.86353 349.403 12.3721C349.657 17.5302 348.547 25.5612 348.547 25.5612L347.692 25.9276V29.2248H348.832L352.54 83.4468C352.54 83.4468 353.225 111.797 353.529 148.5H135.425C129.902 137.059 124.279 124.673 118.14 110.558C101.885 73.1867 75.0795 1.01541 80.7832 1.01317Z"  />
<path d="M118.945 482.784C118.945 482.784 124.363 481.728 124.363 478.388C124.363 455.673 120.521 433.564 118.945 404.748C117.31 374.848 116.119 356.268 114.794 345.5H73.4592L73.4465 345.808C72.7811 361.979 72.0526 379.679 70.469 395.956C66.7619 434.058 62.1994 488.646 45.375 488.646C28.256 488.646 23.703 488.28 5.73797 490.478C3.64608 490.734 3.17094 493.409 3.17094 493.409C3.17094 493.409 2.06555 494.479 1.17485 496.34C0.0723498 498.642 4.35675 498.834 9.15988 500.003C14.2925 501.253 20.1389 503.441 24.5578 504.766C34.6528 507.792 51.0776 506.231 51.0776 506.231C51.0776 506.231 51.081 507.71 51.3628 508.796C51.9331 510.994 59.3565 511.025 63.6246 510.994C68.824 510.956 76.7419 508.063 76.7419 508.063H86.1521L96.4179 506.231L108.965 505.132C108.965 505.132 118.945 503.301 118.945 499.271V482.784Z"  />
<path d="M234.436 245.38C218.204 269.389 185.673 297.404 185.673 297.404C185.673 297.404 146.607 327.079 122.368 330.743C117.613 331.462 112.103 331.84 112.103 331.84C112.103 331.84 112.58 331.66 114.099 340.633C114.337 342.037 114.568 343.654 114.795 345.5H73.4602C74.2015 327.488 74.8707 311.402 76.5668 301.339C76.4628 301.502 76.3332 301.66 76.1731 301.798C75.4101 302.457 74.0084 302.63 73.3215 302.531C72.3317 302.388 71.3314 302.44 70.47 301.798C69.2942 300.922 68.6847 300.127 68.1887 298.501C67.7803 297.162 67.646 296.641 67.6184 295.204C67.5964 294.062 67.884 293.015 68.1797 291.939L68.1887 291.906C68.5593 290.557 69.5256 289.367 70.47 288.609C71.5258 287.761 72.0896 288.108 73.3215 287.876C74.3194 287.689 75.888 288.243 75.888 288.243C75.888 288.243 74.9319 268.824 74.4616 256.371C73.2349 223.889 73.1896 182.591 73.4724 148.5H291.577C275.25 182.318 259.792 207.874 234.436 245.38Z"  />
<path d="M346.217 1.01317C268.654 0.982645 79.3076 1.01475 79.3076 1.01475C79.3076 1.01475 77.8195 7.86353 77.5972 12.3721C77.3429 17.5302 78.4527 25.5612 78.4527 25.5612L79.3076 25.9276V29.2248H78.1675L74.4599 83.4468C74.4599 83.4468 73.7752 111.797 73.4707 148.5H291.575C297.098 137.059 302.721 124.673 308.86 110.558C325.115 73.1867 351.921 1.01541 346.217 1.01317Z"  />
</svg>
