<svg width="427" height="512" viewBox="0 0 427 512" fill="none" xmlns="http://www.w3.org/2000/svg">
<path d="M80.7828 1.01317C158.345 0.982645 347.692 1.01475 347.692 1.01475C347.692 1.01475 349.18 7.86353 349.402 12.3721C349.657 17.5302 348.547 25.5612 348.547 25.5612L347.692 25.9276V29.2248H348.832L352.54 83.4468C352.54 83.4468 355.087 188.919 352.54 256.371H200.825C197.814 252.689 195.006 248.989 192.566 245.38C158.631 195.186 142.426 166.395 118.139 110.558C101.885 73.1867 75.0791 1.01541 80.7828 1.01317Z"  />
<path d="M241.327 297.404C241.327 297.404 280.394 327.08 304.633 330.743C309.388 331.462 314.898 331.84 314.898 331.84C314.898 331.84 314.421 331.66 312.902 340.633C311.277 350.23 309.97 369.722 308.055 404.749C306.479 433.564 302.637 455.673 302.637 478.388C302.637 481.728 308.055 482.784 308.055 482.784V499.271C308.055 503.301 318.035 505.133 318.035 505.133L330.582 506.232L340.848 508.064H350.258C350.258 508.064 358.176 510.957 363.375 510.995C367.644 511.026 375.067 510.995 375.637 508.796C375.919 507.71 375.922 506.232 375.922 506.232C375.922 506.232 392.347 507.793 402.442 504.766C406.861 503.442 412.708 501.253 417.84 500.004C422.643 498.834 426.928 498.642 425.825 496.34C424.934 494.48 423.829 493.409 423.829 493.409C423.829 493.409 423.354 490.734 421.262 490.478C403.297 488.28 398.744 488.646 381.625 488.646C364.801 488.646 360.238 434.058 356.531 395.956C353.171 361.424 353.661 320.484 350.434 301.339C350.538 301.503 350.668 301.66 350.828 301.798C351.591 302.457 352.993 302.63 353.679 302.531C354.669 302.389 355.669 302.441 356.531 301.798C357.707 300.922 358.316 300.127 358.812 298.501C359.221 297.162 359.355 296.641 359.383 295.204C359.405 294.062 359.117 293.016 358.821 291.939L358.812 291.907C358.442 290.557 357.475 289.368 356.531 288.609C355.475 287.762 354.911 288.108 353.679 287.877C352.682 287.689 351.113 288.243 351.113 288.243C351.113 288.243 352.069 268.824 352.539 256.371H200.825C217.843 277.179 241.327 297.404 241.327 297.404Z"  />
<path d="M346.217 1.01317C268.655 0.982645 79.308 1.01475 79.308 1.01475C79.308 1.01475 77.82 7.86353 77.5977 12.3721C77.3433 17.5302 78.4531 25.5612 78.4531 25.5612L79.308 25.9276V29.2248H78.168L74.4603 83.4468C74.4603 83.4468 71.9129 188.919 74.4603 256.371H226.175C229.186 252.689 231.994 248.989 234.434 245.38C268.369 195.186 284.574 166.395 308.861 110.558C325.115 73.1867 351.921 1.01541 346.217 1.01317Z"  />
<path d="M185.673 297.404C185.673 297.404 146.606 327.08 122.367 330.743C117.612 331.462 112.102 331.84 112.102 331.84C112.102 331.84 112.579 331.66 114.098 340.633C115.723 350.23 117.03 369.722 118.945 404.749C120.521 433.564 124.363 455.673 124.363 478.388C124.363 481.728 118.945 482.784 118.945 482.784V499.271C118.945 503.301 108.965 505.133 108.965 505.133L96.4179 506.232L86.1521 508.064H76.7419C76.7419 508.064 68.824 510.957 63.6246 510.995C59.3565 511.026 51.9331 510.995 51.3628 508.796C51.081 507.71 51.0776 506.232 51.0776 506.232C51.0776 506.232 34.6528 507.793 24.5578 504.766C20.1389 503.442 14.2925 501.253 9.15988 500.004C4.35675 498.834 0.0723498 498.642 1.17485 496.34C2.06555 494.48 3.17094 493.409 3.17094 493.409C3.17094 493.409 3.64608 490.734 5.73797 490.478C23.703 488.28 28.256 488.646 45.375 488.646C62.1994 488.646 66.7619 434.058 70.469 395.956C73.8287 361.424 73.3393 320.484 76.5658 301.339C76.4619 301.503 76.3323 301.66 76.1722 301.798C75.4092 302.457 74.0075 302.63 73.3206 302.531C72.3307 302.389 71.3305 302.441 70.469 301.798C69.2933 300.922 68.6837 300.127 68.1877 298.501C67.7794 297.162 67.6451 296.641 67.6174 295.204C67.5955 294.062 67.8831 293.016 68.1788 291.939L68.1877 291.907C68.5584 290.557 69.5247 289.368 70.469 288.609C71.5248 287.762 72.0886 288.108 73.3206 287.877C74.3185 287.689 75.887 288.243 75.887 288.243C75.887 288.243 74.931 268.824 74.4606 256.371H226.175C209.157 277.179 185.673 297.404 185.673 297.404Z"  />
</svg>
