<svg width="496" height="506" viewBox="0 0 496 506" fill="none" xmlns="http://www.w3.org/2000/svg">
<g clip-path="url(#clip0_2_32627)">
<path d="M247.93 1.0692L247.95 1.06434L247.949 1.21106C247.948 1.3496 247.946 1.55436 247.943 1.81914C247.938 2.34871 247.929 3.11839 247.913 4.07877C247.881 5.99954 247.822 8.68305 247.714 11.734C247.499 17.8363 247.089 25.4069 246.309 31.2843C244.65 43.794 243.174 54.6995 241.809 64.7877C237.773 94.6163 234.703 117.3 230.717 153.186C224.161 212.203 216.356 245.529 201.585 303.153C195.691 326.146 185.177 345.992 176.972 358.548C167.738 372.68 149.9 389.567 138.412 398.8C135.828 400.877 131.529 402.445 127.869 403.494C126.04 404.018 124.373 404.412 123.163 404.675C122.558 404.806 122.068 404.905 121.729 404.971C121.559 405.004 121.427 405.029 121.338 405.045L121.236 405.064L121.21 405.068L121.204 405.069L121.202 405.07L121.202 405.07C121.202 405.07 121.202 405.07 121.21 405.119L121.202 405.07L121.16 405.077V405.119V410.66V410.688L121.184 410.702L121.21 410.66L121.184 410.702L121.184 410.702L121.185 410.703L121.189 410.705L121.203 410.714L121.26 410.751C121.311 410.783 121.385 410.831 121.479 410.893C121.669 411.018 121.942 411.201 122.275 411.436C122.942 411.905 123.85 412.579 124.813 413.397C126.742 415.035 128.888 417.245 129.78 419.543C130.68 421.861 130.477 425.174 130.046 427.915C129.831 429.284 129.559 430.508 129.341 431.389C129.232 431.83 129.136 432.185 129.068 432.43C129.034 432.552 129.006 432.647 128.987 432.711L128.966 432.784L128.96 432.803L128.959 432.807L128.959 432.809L128.959 432.809L128.958 432.809L128.957 432.817L128.546 436.142L128.544 436.164L128.558 436.181L128.596 436.148L128.558 436.181L128.559 436.181L128.559 436.182L128.562 436.185L128.574 436.199L128.621 436.253C128.661 436.3 128.721 436.37 128.798 436.461C128.953 436.644 129.175 436.909 129.448 437.242C129.994 437.909 130.741 438.848 131.546 439.935C133.158 442.11 135.001 444.876 135.935 447.248C136.642 449.042 136.831 450.528 137.005 452.024L137.023 452.18C137.19 453.625 137.36 455.089 137.986 456.851C139.629 461.471 141.271 464.89 142.964 468.216C143.286 468.849 143.611 469.479 143.937 470.113C145.325 472.808 146.751 475.58 148.246 479.018C148.682 480.022 149.238 480.818 149.977 481.431C150.716 482.043 151.635 482.471 152.794 482.741C153.389 482.879 153.897 482.79 154.384 482.705L154.474 482.689C154.99 482.599 155.489 482.529 156.071 482.739C156.688 482.961 157.018 483.331 157.335 483.738C157.371 483.785 157.407 483.832 157.443 483.879C157.724 484.247 158.021 484.635 158.523 484.951C159.963 485.857 161.602 485.838 163.211 485.821L163.321 485.819C164.97 485.802 166.584 485.806 167.958 486.796C168.995 487.543 169.821 487.648 170.647 487.608C170.882 487.596 171.114 487.573 171.351 487.55C171.95 487.49 172.574 487.428 173.314 487.543C175.308 487.854 176.891 488.225 178.431 488.585C178.635 488.633 178.838 488.681 179.042 488.728C180.78 489.132 182.524 489.511 184.805 489.76C185.847 489.874 186.963 489.738 188.086 489.52C188.647 489.41 189.212 489.28 189.769 489.151L189.901 489.12C190.414 489 190.921 488.882 191.417 488.781C193.575 488.341 195.485 488.237 196.67 489.741C197.538 490.841 197.524 492.028 196.945 493.122C196.365 494.22 195.216 495.225 193.815 495.946C190.956 497.416 187.275 497.51 183.843 497.003C180.412 496.496 177.237 495.389 175.395 494.468C174.64 494.09 174.058 494.108 173.572 494.376C173.091 494.642 172.712 495.148 172.348 495.726C172.229 495.914 172.111 496.111 171.992 496.31C171.744 496.724 171.489 497.15 171.199 497.543C170.77 498.124 170.268 498.625 169.609 498.899C167.085 499.948 164.284 499.834 161.013 499.701C160.843 499.694 160.673 499.687 160.501 499.68C157.012 499.542 153.005 499.449 148.278 500.744C146.667 501.185 145.279 501.274 143.903 501.362C143.791 501.37 143.679 501.377 143.567 501.384C142.08 501.482 140.588 501.612 138.838 502.223C138.083 502.486 137.523 502.799 136.982 503.102C136.921 503.137 136.86 503.171 136.799 503.205C136.198 503.539 135.595 503.852 134.739 504.068C132.957 504.518 131.739 504.447 130.502 504.253C130.207 504.207 129.911 504.153 129.605 504.098C128.627 503.922 127.554 503.729 126.135 503.697C122.068 503.606 118.592 504.219 115.137 504.828L114.838 504.881C111.285 505.506 107.737 506.106 103.569 505.914C100.455 505.77 97.6544 505.646 95.05 505.538V407.514L140.543 327.525L140.545 327.526L140.548 327.513L168.548 217.513L168.549 217.513L168.55 217.506L183.331 88.5061L183.331 88.5052L191.658 1.55136C193.089 1.57828 194.248 1.40867 195.371 1.24446C195.513 1.2237 195.654 1.20302 195.795 1.18284C197.065 1.00132 198.328 0.859382 199.937 1.05008C200.37 1.10127 200.72 1.21403 201.06 1.32309C201.146 1.35094 201.232 1.37855 201.319 1.40483C201.742 1.53384 202.171 1.62854 202.727 1.54994C203.215 1.48104 203.538 1.25845 203.851 1.04269L203.859 1.03715C204.174 0.819517 204.481 0.610074 204.948 0.55002C205.611 0.464845 206.089 0.694372 206.58 0.958836C206.614 0.977412 206.649 0.996169 206.683 1.015C207.141 1.26365 207.623 1.52496 208.272 1.55039C209.072 1.58168 209.661 1.3768 210.242 1.14244C210.308 1.11568 210.374 1.08855 210.441 1.06135C210.956 0.850302 211.482 0.634799 212.168 0.550051C213.678 0.363436 214.849 0.599556 216.027 0.89C216.161 0.922932 216.295 0.956575 216.429 0.99038C217.481 1.25468 218.571 1.52885 219.937 1.55042C221.606 1.57678 222.913 1.2989 224.196 1.02608C224.262 1.01199 224.328 0.997912 224.394 0.983892C225.742 0.69842 227.084 0.435916 228.821 0.55032C229.843 0.617688 230.635 0.838178 231.415 1.05577C231.472 1.07158 231.529 1.08738 231.585 1.1031C232.423 1.3352 233.265 1.55043 234.378 1.55043C235.475 1.55043 236.308 1.2958 237.13 1.04442L237.17 1.03236C238.005 0.777152 238.834 0.529405 239.931 0.550419C240.889 0.568778 241.616 0.81306 242.342 1.05704L242.416 1.08181C243.166 1.33376 243.923 1.57682 244.932 1.55041C245.545 1.53436 246.316 1.40865 246.932 1.28753C247.24 1.2269 247.51 1.16727 247.703 1.12279C247.799 1.10055 247.877 1.0821 247.93 1.0692Z"  />
<path d="M94.9503 505.534C84.2368 505.092 76.8367 504.926 64.6388 504.806L70.0497 407.512L104.047 324.019L104.048 324.02L104.05 324.007L117.239 217.507L117.239 217.504L126.55 86.504L126.55 86.5028L130.567 2.04939C131.407 2.02684 131.837 1.83839 132.305 1.63294C132.381 1.5996 132.458 1.5658 132.538 1.5322C133.114 1.28977 133.857 1.05047 135.517 1.05047C136.938 1.05047 138.026 1.27103 139.118 1.50667C139.174 1.51877 139.23 1.53091 139.286 1.54306C140.323 1.7676 141.379 1.99627 142.736 2.05043C144.8 2.13285 146.25 1.97679 147.913 1.79782C148.704 1.71279 149.542 1.62259 150.517 1.55033C151.398 1.48501 152.136 1.38687 152.835 1.29394C153.084 1.26084 153.328 1.22841 153.572 1.19835C154.5 1.08386 155.428 1.00339 156.621 1.05043C157.756 1.0952 158.635 1.32889 159.504 1.56C159.557 1.57415 159.611 1.58829 159.664 1.60237C160.586 1.84657 161.513 2.07426 162.733 2.05046C164.083 2.02412 165.086 1.67817 166.082 1.32537L166.146 1.30276C167.121 0.95738 168.096 0.611876 169.399 0.550415C170.815 0.483605 171.901 0.756932 172.994 1.03627L173.028 1.0449C174.109 1.32146 175.2 1.60053 176.619 1.55044C177.317 1.52577 177.87 1.40436 178.404 1.28695C178.46 1.27466 178.516 1.26241 178.572 1.25032C179.16 1.12277 179.743 1.01245 180.502 1.05041C181.004 1.07552 181.394 1.19193 181.78 1.30735C181.813 1.31722 181.846 1.32708 181.879 1.33688C182.298 1.46126 182.723 1.57447 183.284 1.55042C183.737 1.531 184.076 1.43538 184.411 1.33022C184.448 1.31853 184.485 1.30673 184.522 1.29491C184.82 1.2004 185.122 1.10436 185.51 1.04999C186.686 0.885273 187.609 0.996375 188.539 1.15595C188.698 1.18321 188.857 1.21191 189.018 1.2409C189.784 1.379 190.585 1.52352 191.558 1.54917L183.232 88.4948L183.232 88.4957L168.451 217.495L140.453 327.482L94.9568 407.476L94.9503 407.487V407.5V505.534Z"  />
<path d="M62.2046 324.05H62.2532L62.2546 324.001C62.9187 300.482 62.9397 286.524 62.9704 266.13C62.9764 262.139 62.9827 257.901 62.9944 253.297C63.1189 204.031 63.837 140.957 64.5239 90.1993C64.8674 64.8205 65.2031 42.5209 65.4529 26.566C65.5778 18.5885 65.6812 12.1972 65.7534 7.80033C65.7895 5.60187 65.8178 3.902 65.8371 2.75175L65.8591 1.44496L65.8647 1.11269L65.866 1.03895L65.9103 1.02768C65.9628 1.01447 66.0393 0.995555 66.1348 0.972803C66.3259 0.927294 66.5933 0.866444 66.8985 0.805096C67.5097 0.682227 68.2691 0.558028 68.87 0.55001C69.5225 0.541305 70.0202 0.664752 70.5233 0.791891L70.5439 0.797109C71.0404 0.922618 71.5443 1.05001 72.2018 1.05001C72.8326 1.05001 73.3233 0.917055 73.7999 0.787898C73.8274 0.780444 73.8549 0.773002 73.8823 0.765599C74.3851 0.62994 74.8817 0.506896 75.5308 0.549905C76.1634 0.591811 76.6272 0.827003 77.0901 1.06169C77.1192 1.07643 77.1482 1.09116 77.1773 1.10584C77.6693 1.35414 78.1705 1.58694 78.8692 1.54994C79.4366 1.5199 79.8384 1.26646 80.2207 1.02532C80.2413 1.01232 80.2619 0.999346 80.2824 0.98645C80.6847 0.73369 81.0753 0.507524 81.6398 0.549875C82.0952 0.584042 82.3936 0.813704 82.7004 1.04981L82.7226 1.06685C83.0359 1.3078 83.3617 1.55001 83.8651 1.55001C84.366 1.55001 84.6975 1.34778 85.0165 1.12391C85.0511 1.09965 85.0855 1.07517 85.1199 1.05066C85.4037 0.848636 85.6899 0.644938 86.0982 0.54868C86.9317 0.35216 87.5957 0.488474 88.2744 0.669739C88.355 0.69125 88.4358 0.713414 88.5171 0.735724C89.1205 0.901265 89.7535 1.0749 90.5315 1.04999C91.5132 1.01855 92.2562 0.779107 92.9873 0.543504L93.044 0.525212C93.7935 0.283887 94.5371 0.0521348 95.5286 0.0500147C96.7546 0.0473929 97.6565 0.396172 98.5653 0.760247L98.637 0.788957C99.5226 1.14402 100.423 1.50523 101.636 1.54998C102.855 1.59499 103.783 1.36557 104.706 1.11526C104.768 1.09835 104.83 1.08133 104.893 1.06431C105.753 0.829426 106.626 0.591347 107.749 0.549981C109.576 0.482699 110.978 0.897455 112.378 1.3118L112.456 1.3351C113.882 1.75701 115.315 2.16892 117.192 2.04991C118.471 1.96883 119.439 1.62398 120.386 1.28658C120.436 1.26886 120.486 1.25115 120.536 1.23351C121.531 0.880016 122.521 0.550015 123.854 0.550015C125.17 0.550015 126.15 0.925663 127.134 1.30283L127.169 1.31597C128.151 1.69242 129.141 2.06589 130.466 2.05082L126.45 86.4965L126.45 86.4976L117.139 217.494L117.139 217.496L103.951 323.987L69.9537 407.481L69.9505 407.489L69.9501 407.497L64.5384 504.805C61.5782 504.777 59.0861 504.91 56.7206 505.036C55.9018 505.08 55.0981 505.123 54.2955 505.158C51.1609 505.295 48.0379 505.315 44.0759 504.806C41.3848 504.46 39.6551 504.083 37.9244 503.704L37.8786 503.694C36.1624 503.318 34.4368 502.941 31.7664 502.589C27.5609 502.036 24.1728 502.036 20.6579 502.082C20.3605 502.086 20.0621 502.09 19.7623 502.094C16.5191 502.14 13.1027 502.188 8.78566 501.85C4.38759 501.506 1.18344 499.106 0.213474 495.239C-0.120566 493.907 0.0762331 492.816 0.631533 491.874C1.18807 490.929 2.10672 490.13 3.22233 489.389C4.22934 488.72 5.39275 488.101 6.58899 487.464C6.71788 487.395 6.84716 487.326 6.97667 487.257C8.30692 486.547 9.66025 485.807 10.8624 484.949C15.4715 481.657 22.1696 480.088 28.0584 478.708L28.1815 478.679C31.1382 477.986 33.8855 477.339 36.0474 476.54C38.2063 475.743 39.7971 474.791 40.4219 473.478C41.8502 470.478 43.3672 467.477 44.8568 464.542L45.1787 463.908C46.5565 461.194 47.9036 458.541 49.1266 456.002C51.7619 450.53 53.8245 445.583 54.3772 441.696C60.4066 399.291 61.1005 375.526 62.2373 336.594L62.2546 336.001L62.2561 335.95H62.2046C61.4324 335.95 59.9158 335.702 58.5937 334.772C57.2746 333.843 56.1452 332.234 56.1452 329.5C56.1452 327.524 57.379 326.163 58.76 325.292C59.4502 324.857 60.1752 324.547 60.7968 324.344C61.4197 324.142 61.9346 324.05 62.2046 324.05Z"  />
<path d="M248.07 1.0692L248.05 1.06434L248.051 1.21106C248.052 1.3496 248.054 1.55436 248.057 1.81914C248.062 2.34871 248.071 3.11839 248.087 4.07877C248.119 5.99954 248.178 8.68305 248.286 11.734C248.501 17.8363 248.911 25.4069 249.691 31.2843C251.35 43.794 252.826 54.6995 254.191 64.7877C258.227 94.6163 261.297 117.3 265.283 153.186C271.839 212.203 279.644 245.529 294.415 303.153C300.309 326.146 310.823 345.992 319.028 358.548C328.262 372.68 346.1 389.567 357.588 398.8C360.172 400.877 364.471 402.445 368.131 403.494C369.96 404.018 371.627 404.412 372.837 404.675C373.442 404.806 373.932 404.905 374.271 404.971C374.441 405.004 374.573 405.029 374.662 405.045L374.764 405.064L374.79 405.068L374.796 405.069L374.798 405.07L374.798 405.07C374.798 405.07 374.798 405.07 374.79 405.119L374.798 405.07L374.84 405.077V405.119V410.66V410.688L374.816 410.702L374.79 410.66L374.816 410.702L374.816 410.702L374.815 410.703L374.811 410.705L374.797 410.714L374.74 410.751C374.689 410.783 374.615 410.831 374.521 410.893C374.331 411.018 374.058 411.201 373.725 411.436C373.058 411.905 372.15 412.579 371.187 413.397C369.258 415.035 367.112 417.245 366.22 419.543C365.32 421.861 365.523 425.174 365.954 427.915C366.169 429.284 366.441 430.508 366.659 431.389C366.768 431.83 366.864 432.185 366.932 432.43C366.948 432.486 366.962 432.536 366.975 432.581C366.99 432.633 367.002 432.677 367.013 432.711L367.034 432.784L367.04 432.803L367.041 432.807L367.041 432.809L367.041 432.809L367.042 432.809L367.043 432.817L367.454 436.142L367.456 436.164L367.442 436.181L367.404 436.148L367.442 436.181L367.441 436.181L367.441 436.182L367.438 436.185L367.426 436.199L367.379 436.253C367.339 436.3 367.279 436.37 367.202 436.461C367.047 436.644 366.825 436.909 366.552 437.242C366.006 437.909 365.259 438.848 364.454 439.935C362.842 442.11 360.999 444.876 360.065 447.248C359.358 449.042 359.169 450.528 358.995 452.024L358.977 452.18C358.81 453.625 358.64 455.089 358.014 456.851C356.371 461.471 354.729 464.89 353.036 468.216C352.714 468.849 352.389 469.479 352.063 470.113C350.675 472.808 349.249 475.58 347.754 479.018C347.318 480.022 346.762 480.818 346.023 481.431C345.284 482.043 344.365 482.471 343.206 482.741C342.611 482.879 342.103 482.79 341.616 482.705L341.526 482.689C341.01 482.599 340.511 482.529 339.929 482.739C339.312 482.961 338.982 483.331 338.665 483.738C338.629 483.785 338.593 483.832 338.557 483.879C338.276 484.247 337.979 484.635 337.477 484.951C336.037 485.857 334.398 485.838 332.789 485.821L332.679 485.819C331.03 485.802 329.416 485.806 328.042 486.796C327.005 487.543 326.179 487.648 325.353 487.608C325.118 487.596 324.886 487.573 324.649 487.55C324.05 487.49 323.426 487.428 322.686 487.543C320.692 487.854 319.109 488.225 317.569 488.585C317.365 488.633 317.162 488.681 316.958 488.728C315.22 489.132 313.476 489.511 311.195 489.76C310.153 489.874 309.037 489.738 307.914 489.52C307.353 489.41 306.788 489.28 306.231 489.151L306.099 489.12C305.586 489 305.079 488.882 304.583 488.781C302.425 488.341 300.515 488.237 299.33 489.741C298.462 490.841 298.476 492.028 299.055 493.122C299.635 494.22 300.784 495.225 302.185 495.946C305.044 497.416 308.725 497.51 312.157 497.003C315.588 496.496 318.763 495.389 320.605 494.468C321.36 494.09 321.942 494.108 322.428 494.376C322.909 494.642 323.288 495.148 323.652 495.726C323.771 495.914 323.889 496.111 324.008 496.31C324.256 496.724 324.511 497.15 324.801 497.543C325.23 498.124 325.732 498.625 326.391 498.899C328.915 499.948 331.716 499.834 334.987 499.701C335.157 499.694 335.327 499.687 335.499 499.68C338.988 499.542 342.995 499.449 347.722 500.744C349.333 501.185 350.721 501.274 352.097 501.362C352.209 501.37 352.321 501.377 352.433 501.384C353.92 501.482 355.412 501.612 357.162 502.223C357.917 502.486 358.477 502.799 359.018 503.102C359.079 503.137 359.14 503.171 359.201 503.205C359.802 503.539 360.405 503.852 361.261 504.068C363.043 504.518 364.261 504.447 365.498 504.253C365.793 504.207 366.089 504.153 366.395 504.098C367.373 503.922 368.446 503.729 369.865 503.697C373.932 503.606 377.408 504.219 380.863 504.828L381.162 504.881C384.715 505.506 388.263 506.106 392.431 505.914C394.763 505.806 396.919 505.71 398.948 505.623L394.951 405.134L366.457 358.601L366.453 358.594L366.451 358.587L331.451 211.512L331.451 211.512L331.45 211.507L315.446 92.5071L315.446 92.5065L304.343 1.55133C302.911 1.57837 301.752 1.40871 300.629 1.24446C300.487 1.2237 300.346 1.20302 300.205 1.18284C298.935 1.00132 297.672 0.859382 296.063 1.05008C295.63 1.10127 295.28 1.21403 294.94 1.32309C294.854 1.35094 294.768 1.37855 294.681 1.40483C294.258 1.53384 293.829 1.62854 293.273 1.54994C292.785 1.48104 292.462 1.25845 292.149 1.04269L292.141 1.03715C291.826 0.819517 291.519 0.610074 291.052 0.55002C290.389 0.464845 289.911 0.694372 289.42 0.958836C289.386 0.977412 289.351 0.996169 289.317 1.015C288.859 1.26365 288.377 1.52496 287.728 1.55039C286.928 1.58168 286.339 1.3768 285.758 1.14244C285.692 1.11568 285.626 1.08855 285.559 1.06135C285.044 0.850302 284.518 0.634799 283.832 0.550051C282.322 0.363436 281.151 0.599556 279.973 0.89C279.839 0.922932 279.705 0.956575 279.571 0.99038C278.519 1.25468 277.429 1.52885 276.063 1.55042C274.394 1.57678 273.087 1.29889 271.804 1.02607C271.738 1.01199 271.672 0.997911 271.606 0.983892C270.258 0.69842 268.916 0.435916 267.179 0.55032C266.157 0.617688 265.365 0.838178 264.585 1.05577C264.528 1.07158 264.471 1.08738 264.415 1.1031C263.577 1.3352 262.735 1.55043 261.622 1.55043C260.525 1.55043 259.692 1.2958 258.87 1.04442L258.83 1.03236C257.995 0.777152 257.166 0.529405 256.069 0.550419C255.111 0.568778 254.384 0.81306 253.658 1.05704L253.584 1.08181C252.834 1.33376 252.077 1.57682 251.068 1.55041C250.455 1.53436 249.684 1.40865 249.068 1.28753C248.76 1.2269 248.49 1.16727 248.297 1.12279C248.201 1.10055 248.123 1.0821 248.07 1.0692Z"  />
<path d="M399.048 505.618C410.877 505.112 418.417 504.933 431.359 504.806L422.451 405.13L402.953 355.019L402.952 355.019L402.95 355.007L382.95 211.507L382.95 211.505L372.096 92.505L372.096 92.5041L365.435 2.04942C364.593 2.02702 364.163 1.83848 363.695 1.63294C363.619 1.5996 363.542 1.5658 363.462 1.5322C362.886 1.28977 362.143 1.05047 360.483 1.05047C359.062 1.05047 357.974 1.27103 356.882 1.50667C356.826 1.51877 356.77 1.53091 356.714 1.54306C355.677 1.7676 354.621 1.99627 353.264 2.05043C351.2 2.13285 349.75 1.97679 348.087 1.79782C347.296 1.71279 346.458 1.62259 345.483 1.55033C344.602 1.48501 343.864 1.38687 343.165 1.29394C342.916 1.26084 342.672 1.22841 342.428 1.19835C341.5 1.08386 340.572 1.00339 339.379 1.05043C338.244 1.0952 337.365 1.32889 336.496 1.56C336.443 1.57415 336.389 1.58829 336.336 1.60237C335.414 1.84657 334.487 2.07426 333.267 2.05046C331.917 2.02412 330.914 1.67817 329.918 1.32537L329.854 1.30276C328.879 0.95738 327.904 0.611876 326.601 0.550415C325.185 0.483605 324.099 0.756932 323.006 1.03627L322.972 1.0449C321.891 1.32146 320.8 1.60053 319.381 1.55044C318.683 1.52577 318.13 1.40436 317.596 1.28695C317.54 1.27466 317.484 1.26241 317.428 1.25032C316.84 1.12277 316.257 1.01245 315.498 1.05041C314.996 1.07552 314.606 1.19193 314.22 1.30735C314.187 1.31722 314.154 1.32708 314.121 1.33688C313.702 1.46126 313.277 1.57447 312.716 1.55042C312.263 1.531 311.924 1.43538 311.589 1.33022C311.552 1.31853 311.515 1.30673 311.478 1.29491C311.18 1.2004 310.878 1.10436 310.49 1.04999C309.314 0.885273 308.391 0.996375 307.461 1.15595C307.302 1.18321 307.143 1.21191 306.982 1.2409C306.217 1.37893 305.416 1.52338 304.444 1.54913L315.545 92.4938L315.545 92.4944L331.549 211.494L366.547 358.556L395.042 405.093L395.049 405.104L395.05 405.117L399.048 505.618Z"  />
<path d="M433.795 324.05H433.747L433.745 324.001C433.081 300.482 433.06 286.524 433.03 266.13C433.024 262.139 433.017 257.901 433.006 253.297C432.881 204.031 432.163 140.957 431.476 90.1993C431.133 64.8205 430.797 42.5209 430.547 26.566C430.422 18.5885 430.319 12.1972 430.247 7.80033C430.21 5.60187 430.182 3.902 430.163 2.75175L430.141 1.44496L430.135 1.11269L430.134 1.03895L430.09 1.02768C430.037 1.01447 429.961 0.995555 429.865 0.972803C429.674 0.927294 429.407 0.866444 429.101 0.805096C428.49 0.682227 427.731 0.558028 427.13 0.55001C426.478 0.541305 425.98 0.664752 425.477 0.791891L425.456 0.797109C424.96 0.922618 424.456 1.05001 423.798 1.05001C423.167 1.05001 422.677 0.917055 422.2 0.787898C422.173 0.780444 422.145 0.773002 422.118 0.765599C421.615 0.62994 421.118 0.506896 420.469 0.549905C419.837 0.591811 419.373 0.827003 418.91 1.06169C418.881 1.07643 418.852 1.09116 418.823 1.10584C418.331 1.35414 417.829 1.58694 417.131 1.54994C416.563 1.5199 416.162 1.26646 415.779 1.02532C415.759 1.01232 415.738 0.999346 415.718 0.98645C415.315 0.73369 414.925 0.507524 414.36 0.549875C413.905 0.584042 413.606 0.813704 413.3 1.04981L413.277 1.06685C412.964 1.3078 412.638 1.55001 412.135 1.55001C411.634 1.55001 411.303 1.34778 410.983 1.12391C410.949 1.09965 410.915 1.07517 410.88 1.05066C410.596 0.848636 410.31 0.644938 409.902 0.54868C409.068 0.35216 408.404 0.488474 407.726 0.669739C407.645 0.69125 407.564 0.713414 407.483 0.735724C406.879 0.901265 406.246 1.0749 405.469 1.04999C404.487 1.01855 403.744 0.779107 403.013 0.543504L402.956 0.525212C402.207 0.283887 401.463 0.0521348 400.471 0.0500147C399.245 0.0473929 398.344 0.396172 397.435 0.760247L397.363 0.788957C396.477 1.14402 395.577 1.50523 394.364 1.54998C393.145 1.59499 392.217 1.36557 391.294 1.11526C391.232 1.09835 391.17 1.08133 391.107 1.06431C390.247 0.829426 389.374 0.591347 388.251 0.549981C386.424 0.482699 385.022 0.897455 383.622 1.3118L383.544 1.3351C382.118 1.75701 380.685 2.16892 378.808 2.04991C377.529 1.96883 376.561 1.62398 375.614 1.28658C375.564 1.26886 375.514 1.25115 375.464 1.23351C374.469 0.880016 373.479 0.550015 372.146 0.550015C370.83 0.550015 369.85 0.925663 368.866 1.30283L368.831 1.31597C367.849 1.69229 366.859 2.06563 365.535 2.05084L372.196 92.4955L372.196 92.4963L383.05 211.493L383.05 211.495L403.049 354.987L422.547 405.1L422.549 405.1L422.55 405.114L431.46 504.805C434.421 504.777 436.913 504.91 439.279 505.036C440.098 505.08 440.902 505.123 441.705 505.158C444.839 505.295 447.962 505.315 451.924 504.806C454.615 504.46 456.345 504.083 458.076 503.704L458.121 503.694C459.838 503.318 461.563 502.941 464.234 502.589C468.439 502.036 471.827 502.036 475.342 502.082C475.64 502.086 475.938 502.09 476.238 502.094C479.481 502.14 482.897 502.188 487.214 501.85C491.612 501.506 494.817 499.106 495.787 495.239C496.121 493.907 495.924 492.816 495.368 491.874C494.812 490.929 493.893 490.13 492.778 489.389C491.771 488.72 490.607 488.101 489.411 487.464C489.282 487.395 489.153 487.326 489.023 487.257C487.693 486.547 486.34 485.807 485.138 484.949C480.528 481.657 473.83 480.088 467.942 478.708L467.819 478.679C464.862 477.986 462.115 477.339 459.953 476.54C457.794 475.743 456.203 474.791 455.578 473.478C454.15 470.478 452.633 467.477 451.143 464.542L450.821 463.908C449.443 461.194 448.096 458.541 446.873 456.002C444.238 450.53 442.175 445.583 441.623 441.696C435.593 399.291 434.9 375.526 433.763 336.594L433.745 336.001L433.744 335.95H433.795C434.568 335.95 436.084 335.702 437.406 334.772C438.725 333.843 439.855 332.234 439.855 329.5C439.855 327.524 438.621 326.163 437.24 325.292C436.55 324.857 435.825 324.547 435.203 324.344C434.58 324.142 434.065 324.05 433.795 324.05Z"  />
</g>
<defs>
<clipPath id="clip0_2_32627">
<rect width="496" height="506" />
</clipPath>
</defs>
</svg>
