<svg width="496" height="506" viewBox="0 0 496 506" fill="none" xmlns="http://www.w3.org/2000/svg">
<g clip-path="url(#clip0_2_32574)">
<path d="M121.202 405.069L121.16 405.076V405.118V410.659V410.687L121.184 410.702L121.21 410.659L121.184 410.702L121.184 410.702L121.185 410.703L121.189 410.705L121.203 410.714L121.26 410.75C121.311 410.782 121.385 410.83 121.479 410.893C121.669 411.017 121.942 411.201 122.275 411.436C122.942 411.905 123.85 412.579 124.813 413.397C126.742 415.035 128.888 417.244 129.78 419.543C130.68 421.861 130.477 425.173 130.046 427.915C129.831 429.284 129.559 430.507 129.341 431.389C129.232 431.83 129.136 432.185 129.068 432.43C129.034 432.552 129.006 432.647 128.987 432.711L128.966 432.784L128.96 432.802L128.959 432.807L128.959 432.808L128.959 432.808L128.958 432.808L128.957 432.817L128.546 436.142L128.544 436.164L128.558 436.181L128.596 436.148L128.558 436.181L128.559 436.181L128.559 436.182L128.562 436.185L128.574 436.199L128.621 436.252C128.661 436.3 128.721 436.37 128.798 436.461C128.953 436.643 129.175 436.909 129.448 437.242C129.994 437.909 130.741 438.847 131.546 439.935C133.158 442.11 135.001 444.876 135.935 447.248C136.642 449.041 136.831 450.527 137.005 452.023L137.023 452.179C137.19 453.624 137.36 455.089 137.986 456.851C139.629 461.471 141.271 464.89 142.964 468.215C143.286 468.849 143.611 469.478 143.937 470.112C145.325 472.808 146.751 475.58 148.246 479.017C148.682 480.022 149.238 480.818 149.977 481.43C150.716 482.043 151.635 482.47 152.794 482.74C153.389 482.879 153.897 482.79 154.384 482.704L154.474 482.689C154.99 482.599 155.489 482.529 156.071 482.739C156.688 482.961 157.018 483.331 157.335 483.738C157.371 483.784 157.407 483.832 157.443 483.879C157.724 484.246 158.021 484.635 158.523 484.95C159.963 485.856 161.602 485.838 163.211 485.82L163.321 485.819C164.97 485.801 166.584 485.806 167.958 486.795C168.995 487.542 169.821 487.648 170.647 487.607C170.882 487.596 171.114 487.573 171.351 487.549C171.95 487.49 172.574 487.428 173.314 487.543C175.308 487.853 176.891 488.224 178.431 488.585C178.635 488.633 178.838 488.68 179.042 488.728C180.78 489.132 182.524 489.511 184.805 489.76C185.847 489.873 186.963 489.737 188.086 489.519C188.647 489.41 189.212 489.28 189.769 489.15C190.327 489.02 190.879 488.89 191.417 488.781C193.575 488.341 195.485 488.237 196.67 489.741C197.538 490.841 197.524 492.027 196.945 493.122C196.365 494.22 195.216 495.224 193.815 495.945C190.956 497.416 187.275 497.51 183.843 497.002C180.412 496.495 177.237 495.388 175.395 494.467C174.64 494.09 174.058 494.107 173.572 494.376C173.091 494.641 172.712 495.148 172.348 495.725C172.229 495.914 172.111 496.11 171.992 496.309C171.744 496.723 171.489 497.149 171.199 497.543C170.77 498.124 170.268 498.625 169.609 498.899C167.085 499.947 164.284 499.833 161.013 499.701C160.843 499.694 160.673 499.687 160.501 499.68C157.012 499.541 153.005 499.449 148.278 500.744C146.667 501.185 145.279 501.274 143.903 501.362C143.791 501.369 143.679 501.376 143.567 501.384C142.08 501.481 140.588 501.612 138.838 502.222C138.083 502.485 137.523 502.799 136.982 503.102C136.921 503.136 136.86 503.17 136.799 503.204C136.198 503.538 135.595 503.852 134.739 504.068C132.957 504.518 131.739 504.447 130.502 504.252C130.207 504.206 129.911 504.153 129.605 504.098C128.627 503.922 127.554 503.729 126.135 503.697C122.068 503.606 118.592 504.218 115.137 504.827L114.838 504.88C111.285 505.506 107.737 506.106 103.569 505.913C87.5655 505.175 79.8164 504.954 64.5862 504.805C61.6049 504.776 59.0989 504.91 56.7206 505.036C55.9018 505.08 55.0981 505.123 54.2955 505.158C51.1609 505.295 48.0379 505.315 44.0759 504.806C41.3848 504.46 39.6551 504.083 37.9244 503.704L37.8786 503.694C36.1624 503.318 34.4368 502.941 31.7664 502.589C27.5609 502.036 24.1728 502.036 20.6579 502.082C20.3605 502.086 20.0621 502.09 19.7623 502.094C16.5191 502.14 13.1027 502.188 8.78566 501.85C4.38759 501.506 1.18344 499.106 0.213474 495.239C-0.120566 493.907 0.0762331 492.816 0.631533 491.874C1.18807 490.929 2.10672 490.13 3.22233 489.389C4.22934 488.72 5.39275 488.101 6.58899 487.464C6.71788 487.395 6.84716 487.326 6.97667 487.257C8.30692 486.547 9.66025 485.807 10.8624 484.949C15.4715 481.657 22.1696 480.088 28.0584 478.708L28.1815 478.679C31.1382 477.986 33.8855 477.339 36.0474 476.54C38.2063 475.743 39.7971 474.791 40.4219 473.478C41.8502 470.478 43.3672 467.477 44.8568 464.542L45.1787 463.908C46.5565 461.194 47.9036 458.541 49.1266 456.002C51.7619 450.53 53.8245 445.583 54.3772 441.696C60.4065 399.291 61.1005 375.526 62.2373 336.594L62.2546 336.001L62.2561 335.95H62.2046C61.4324 335.95 59.9158 335.702 58.5937 334.772C57.2746 333.843 56.1452 332.234 56.1452 329.5C56.1452 327.524 57.379 326.163 58.76 325.292C59.4502 324.857 60.1752 324.547 60.7968 324.344C61.4197 324.142 61.9346 324.05 62.2046 324.05H62.2532L62.2546 324.001C62.9187 300.482 62.9397 286.524 62.9704 266.13C62.9764 262.139 62.9827 257.901 62.9944 253.297C63.1189 204.031 63.837 140.957 64.5239 90.1993C64.8674 64.8205 65.2031 42.5209 65.4529 26.566C65.5778 18.5885 65.6812 12.1972 65.7534 7.80031C65.7895 5.60185 65.8178 3.90199 65.8371 2.75174L65.8591 1.44495L65.8647 1.11267L65.866 1.03894L65.9103 1.02767C65.9628 1.01445 66.0393 0.99554 66.1348 0.972788C66.3259 0.927279 66.5933 0.866429 66.8985 0.805081C67.5097 0.682212 68.2691 0.558013 68.87 0.549996C69.5225 0.541291 70.0202 0.664737 70.5233 0.791876L70.5439 0.797095C71.0404 0.922604 71.5443 1.05 72.2018 1.05C72.8326 1.05 73.3233 0.91704 73.7999 0.787884C73.8274 0.780429 73.8549 0.772987 73.8823 0.765584C74.3851 0.629926 74.8817 0.506882 75.5308 0.549891C76.1634 0.591796 76.6272 0.826989 77.0901 1.06168C77.1192 1.07641 77.1482 1.09114 77.1773 1.10582C77.6693 1.35413 78.1705 1.58693 78.8692 1.54993C79.4366 1.51988 79.8384 1.26643 80.2207 1.0253C80.2413 1.01229 80.2619 0.999328 80.2824 0.986436C80.6847 0.733676 81.0753 0.507509 81.6398 0.54986C82.0952 0.584027 82.3936 0.813689 82.7004 1.04979L82.7226 1.06683C83.0359 1.30778 83.3617 1.55 83.8651 1.55C84.366 1.55 84.6975 1.34777 85.0165 1.12389C85.0511 1.09963 85.0855 1.07514 85.1199 1.05063C85.4038 0.848607 85.6899 0.64492 86.0982 0.548666C86.9317 0.352146 87.5957 0.488459 88.2744 0.669724C88.355 0.691236 88.4358 0.713401 88.5171 0.735713C89.1205 0.901253 89.7535 1.07489 90.5315 1.04997C91.5132 1.01854 92.2562 0.779093 92.9873 0.543489L93.044 0.525197C93.7935 0.283873 94.5371 0.05212 95.5286 0.0499999C96.7546 0.0473781 97.6565 0.396157 98.5653 0.760232L98.637 0.788942C99.5226 1.144 100.423 1.50521 101.636 1.54997C102.855 1.59497 103.783 1.36555 104.706 1.11525C104.768 1.09833 104.83 1.08132 104.893 1.06429C105.753 0.829408 106.626 0.591332 107.749 0.549966C109.576 0.482685 110.978 0.897437 112.377 1.31178L112.456 1.33508C113.882 1.757 115.315 2.1689 117.192 2.0499C118.471 1.96882 119.439 1.62397 120.386 1.28657C120.436 1.26884 120.486 1.25114 120.536 1.23349C121.531 0.880002 122.521 0.55 123.854 0.55C125.17 0.55 126.15 0.925648 127.134 1.30282L127.169 1.31596C128.164 1.69745 129.168 2.07588 130.52 2.04999C131.391 2.03329 131.828 1.84169 132.304 1.63247C132.38 1.59912 132.457 1.56533 132.537 1.53173C133.114 1.2893 133.857 1.05 135.517 1.05C136.938 1.05 138.026 1.27056 139.118 1.5062C139.174 1.5183 139.23 1.53044 139.286 1.54259C140.323 1.76713 141.379 1.9958 142.735 2.04996C144.8 2.13238 146.25 1.97632 147.913 1.79735C148.703 1.71232 149.542 1.62212 150.517 1.54986C151.398 1.48454 152.136 1.38639 152.835 1.29347C153.084 1.26037 153.328 1.22793 153.572 1.19788C154.5 1.08339 155.427 1.00292 156.62 1.04996C157.756 1.09473 158.635 1.32841 159.504 1.55953C159.557 1.57368 159.61 1.58781 159.663 1.6019C160.586 1.8461 161.513 2.07379 162.733 2.04999C164.082 2.02365 165.085 1.6777 166.082 1.3249L166.146 1.30227C167.121 0.956901 168.096 0.611404 169.399 0.549944C170.815 0.483135 171.901 0.756461 172.993 1.0358L173.027 1.04443C174.109 1.32099 175.2 1.60006 176.618 1.54997C177.317 1.5253 177.87 1.40389 178.404 1.28648C178.46 1.27419 178.516 1.26194 178.572 1.24985C179.159 1.1223 179.743 1.01198 180.502 1.04994C181.004 1.07505 181.393 1.19146 181.779 1.30688C181.812 1.31675 181.845 1.32661 181.878 1.33641C182.298 1.46079 182.723 1.574 183.284 1.54995C183.737 1.53053 184.076 1.43491 184.411 1.32974C184.448 1.31805 184.485 1.30626 184.522 1.29443C184.82 1.19992 185.122 1.10389 185.51 1.04952C186.686 0.884802 187.609 0.995904 188.539 1.15548C188.698 1.18274 188.857 1.21144 189.018 1.24043C189.798 1.38107 190.614 1.52836 191.611 1.54999C193.064 1.58151 194.236 1.41001 195.371 1.24403C195.513 1.22327 195.654 1.20259 195.795 1.18241C197.065 1.0009 198.328 0.858954 199.937 1.04965C200.37 1.10084 200.72 1.2136 201.06 1.32266C201.146 1.35051 201.232 1.37812 201.319 1.4044C201.742 1.53341 202.171 1.62811 202.727 1.54951C203.215 1.48061 203.538 1.258 203.851 1.04224L203.859 1.03672C204.174 0.819089 204.481 0.609646 204.948 0.549592C205.611 0.464417 206.089 0.693944 206.58 0.958408C206.614 0.976979 206.649 0.99573 206.683 1.01455C207.141 1.26321 207.623 1.52453 208.272 1.54996C209.072 1.58126 209.661 1.37637 210.242 1.14201C210.308 1.11526 210.374 1.08813 210.441 1.06094C210.956 0.849883 211.482 0.634372 212.168 0.549623C213.678 0.363008 214.849 0.599128 216.027 0.889572C216.161 0.922506 216.295 0.95615 216.429 0.989956C217.481 1.25425 218.571 1.52842 219.937 1.54999C221.606 1.57635 222.913 1.29847 224.196 1.02565C224.262 1.01156 224.328 0.997483 224.394 0.983464C225.742 0.697992 227.084 0.435488 228.821 0.549892C229.843 0.617261 230.635 0.837757 231.415 1.05535C231.472 1.07116 231.529 1.08696 231.585 1.10268C232.423 1.33477 233.265 1.55 234.378 1.55C235.475 1.55 236.308 1.29537 237.13 1.044L237.17 1.03193C238.005 0.776724 238.834 0.528977 239.931 0.549991C240.89 0.56835 241.616 0.812639 242.342 1.05662L242.415 1.08138C243.166 1.33333 243.923 1.57639 244.932 1.54998C245.545 1.53393 246.316 1.40822 246.932 1.28711C247.24 1.22647 247.51 1.16684 247.703 1.12237C247.799 1.10013 247.877 1.08167 247.93 1.06877L247.95 1.06391L247.949 1.21063C247.948 1.34918 247.946 1.55393 247.943 1.81871C247.938 2.34828 247.929 3.11796 247.913 4.07834C247.881 5.99911 247.822 8.68262 247.714 11.7336C247.499 17.8359 247.089 25.4065 246.309 31.2838C244.65 43.7936 243.174 54.6991 241.809 64.7873C237.773 94.6159 234.703 117.3 230.717 153.185C224.161 212.203 216.356 245.528 201.585 303.153C195.691 326.146 185.177 345.991 176.972 358.547C167.738 372.68 149.9 389.566 138.412 398.8C135.828 400.877 131.529 402.445 127.869 403.494C126.04 404.018 124.373 404.412 123.163 404.675C122.558 404.806 122.068 404.905 121.729 404.971C121.559 405.003 121.427 405.028 121.338 405.045L121.236 405.063L121.21 405.068L121.204 405.069L121.202 405.069L121.202 405.069C121.202 405.069 121.202 405.069 121.21 405.118L121.202 405.069Z"  />
<path d="M374.798 405.069L374.84 405.076V405.118V410.659V410.687L374.816 410.702L374.79 410.659L374.816 410.702L374.816 410.702L374.815 410.703L374.811 410.705L374.797 410.714L374.74 410.75C374.689 410.782 374.615 410.83 374.521 410.893C374.331 411.017 374.058 411.201 373.725 411.436C373.058 411.905 372.15 412.579 371.187 413.397C369.258 415.035 367.112 417.244 366.22 419.543C365.32 421.861 365.523 425.173 365.954 427.915C366.169 429.284 366.441 430.507 366.659 431.389C366.768 431.83 366.864 432.185 366.932 432.43C366.966 432.552 366.994 432.647 367.013 432.711L367.034 432.784L367.04 432.802L367.041 432.807L367.041 432.808L367.041 432.808L367.042 432.808L367.043 432.817L367.454 436.142L367.456 436.164L367.442 436.181L367.404 436.148L367.442 436.181L367.441 436.181L367.441 436.182L367.438 436.185L367.426 436.199L367.379 436.252C367.339 436.3 367.279 436.37 367.202 436.461C367.047 436.643 366.825 436.909 366.552 437.242C366.006 437.909 365.259 438.847 364.454 439.935C362.842 442.11 360.999 444.876 360.065 447.248C359.358 449.041 359.169 450.527 358.995 452.023L358.977 452.179C358.81 453.624 358.64 455.089 358.014 456.851C356.371 461.471 354.729 464.89 353.036 468.215C352.714 468.849 352.389 469.478 352.063 470.112C350.675 472.808 349.249 475.58 347.754 479.017C347.318 480.022 346.762 480.818 346.023 481.43C345.284 482.043 344.365 482.47 343.206 482.74C342.611 482.879 342.103 482.79 341.616 482.704L341.526 482.689C341.01 482.599 340.511 482.529 339.929 482.739C339.312 482.961 338.982 483.331 338.665 483.738C338.629 483.784 338.593 483.832 338.557 483.879C338.276 484.246 337.979 484.635 337.477 484.95C336.037 485.856 334.398 485.838 332.789 485.82L332.679 485.819C331.03 485.801 329.416 485.806 328.042 486.795C327.005 487.542 326.179 487.648 325.353 487.607C325.118 487.596 324.886 487.573 324.649 487.549C324.05 487.49 323.426 487.428 322.686 487.543C320.692 487.853 319.109 488.224 317.569 488.585C317.365 488.633 317.162 488.68 316.958 488.728C315.22 489.132 313.476 489.511 311.195 489.76C310.153 489.873 309.037 489.737 307.914 489.519C307.353 489.41 306.788 489.28 306.231 489.15C305.673 489.02 305.121 488.89 304.583 488.781C302.425 488.341 300.515 488.237 299.33 489.741C298.462 490.841 298.476 492.027 299.055 493.122C299.635 494.22 300.784 495.224 302.185 495.945C305.044 497.416 308.725 497.51 312.157 497.002C315.588 496.495 318.763 495.388 320.605 494.467C321.36 494.09 321.942 494.107 322.428 494.376C322.909 494.641 323.288 495.148 323.652 495.725C323.771 495.914 323.889 496.11 324.008 496.309C324.256 496.723 324.511 497.149 324.801 497.543C325.23 498.124 325.732 498.625 326.391 498.899C328.915 499.947 331.716 499.833 334.987 499.701C335.157 499.694 335.327 499.687 335.499 499.68C338.988 499.541 342.995 499.449 347.722 500.744C349.333 501.185 350.721 501.274 352.097 501.362C352.209 501.369 352.321 501.376 352.433 501.384C353.92 501.481 355.412 501.612 357.162 502.222C357.917 502.485 358.477 502.799 359.018 503.102C359.079 503.136 359.14 503.17 359.201 503.204C359.802 503.538 360.405 503.852 361.261 504.068C363.043 504.518 364.261 504.447 365.498 504.252C365.793 504.206 366.089 504.153 366.395 504.098C367.373 503.922 368.446 503.729 369.865 503.697C373.932 503.606 377.408 504.218 380.863 504.827L381.162 504.88C384.715 505.506 388.263 506.106 392.431 505.913C408.435 505.175 416.184 504.954 431.414 504.805C434.395 504.776 436.901 504.91 439.279 505.036C440.098 505.08 440.902 505.123 441.705 505.158C444.839 505.295 447.962 505.315 451.924 504.806C454.615 504.46 456.345 504.083 458.076 503.704L458.121 503.694C459.838 503.318 461.563 502.941 464.234 502.589C468.439 502.036 471.827 502.036 475.342 502.082C475.64 502.086 475.938 502.09 476.238 502.094C479.481 502.14 482.897 502.188 487.214 501.85C491.612 501.506 494.817 499.106 495.787 495.239C496.121 493.907 495.924 492.816 495.368 491.874C494.812 490.929 493.893 490.13 492.778 489.389C491.771 488.72 490.607 488.101 489.411 487.464C489.282 487.395 489.153 487.326 489.023 487.257C487.693 486.547 486.34 485.807 485.138 484.949C480.528 481.657 473.83 480.088 467.942 478.708L467.819 478.679C464.862 477.986 462.115 477.339 459.953 476.54C457.794 475.743 456.203 474.791 455.578 473.478C454.15 470.478 452.633 467.477 451.143 464.542L450.821 463.908C449.443 461.194 448.096 458.541 446.873 456.002C444.238 450.53 442.175 445.583 441.623 441.696C435.593 399.291 434.9 375.526 433.763 336.594L433.745 336.001L433.744 335.95H433.795C434.568 335.95 436.084 335.702 437.406 334.772C438.725 333.843 439.855 332.234 439.855 329.5C439.855 327.524 438.621 326.163 437.24 325.292C436.55 324.857 435.825 324.547 435.203 324.344C434.58 324.142 434.065 324.05 433.795 324.05H433.747L433.745 324.001C433.081 300.482 433.06 286.524 433.03 266.13C433.024 262.139 433.017 257.901 433.006 253.297C432.881 204.031 432.163 140.957 431.476 90.1993C431.133 64.8205 430.797 42.5209 430.547 26.566C430.422 18.5885 430.319 12.1972 430.247 7.80031C430.21 5.60185 430.182 3.90199 430.163 2.75174L430.141 1.44495L430.135 1.11267L430.134 1.03894L430.09 1.02767C430.037 1.01445 429.961 0.99554 429.865 0.972788C429.674 0.927279 429.407 0.866429 429.101 0.805081C428.49 0.682212 427.731 0.558013 427.13 0.549996C426.477 0.541291 425.98 0.664737 425.477 0.791876L425.456 0.797095C424.96 0.922604 424.456 1.05 423.798 1.05C423.167 1.05 422.677 0.91704 422.2 0.787884C422.173 0.780429 422.145 0.772987 422.118 0.765584C421.615 0.629926 421.118 0.506882 420.469 0.549891C419.837 0.591796 419.373 0.826989 418.91 1.06168C418.881 1.07641 418.852 1.09114 418.823 1.10582C418.331 1.35413 417.829 1.58693 417.131 1.54993C416.563 1.51988 416.162 1.26643 415.779 1.0253C415.759 1.01229 415.738 0.999328 415.718 0.986436C415.315 0.733676 414.925 0.507509 414.36 0.54986C413.905 0.584027 413.606 0.813689 413.3 1.04979L413.277 1.06683C412.964 1.30778 412.638 1.55 412.135 1.55C411.634 1.55 411.303 1.34777 410.984 1.12389C410.949 1.09963 410.915 1.07514 410.88 1.05063C410.596 0.848607 410.31 0.64492 409.902 0.548666C409.068 0.352146 408.404 0.488459 407.726 0.669724C407.645 0.691236 407.564 0.713401 407.483 0.735713C406.879 0.901253 406.246 1.07489 405.469 1.04997C404.487 1.01854 403.744 0.779093 403.013 0.543489L402.956 0.525197C402.207 0.283873 401.463 0.05212 400.471 0.0499999C399.245 0.0473781 398.344 0.396157 397.435 0.760232L397.363 0.788942C396.477 1.144 395.577 1.50521 394.364 1.54997C393.145 1.59497 392.217 1.36555 391.294 1.11525C391.232 1.09833 391.17 1.08132 391.107 1.06429C390.247 0.829408 389.374 0.591332 388.251 0.549966C386.424 0.482685 385.022 0.897437 383.623 1.31178L383.544 1.33508C382.118 1.757 380.685 2.1689 378.808 2.0499C377.529 1.96882 376.561 1.62397 375.614 1.28657C375.564 1.26884 375.514 1.25114 375.464 1.23349C374.469 0.880002 373.479 0.55 372.146 0.55C370.83 0.55 369.85 0.925648 368.866 1.30282L368.831 1.31596C367.836 1.69745 366.832 2.07588 365.48 2.04999C364.609 2.03329 364.172 1.84169 363.696 1.63247C363.62 1.59912 363.543 1.56533 363.463 1.53173C362.886 1.2893 362.143 1.05 360.483 1.05C359.062 1.05 357.974 1.27056 356.882 1.5062C356.826 1.5183 356.77 1.53044 356.714 1.54259C355.677 1.76713 354.621 1.9958 353.265 2.04996C351.2 2.13238 349.75 1.97632 348.087 1.79735C347.297 1.71232 346.458 1.62212 345.483 1.54986C344.602 1.48454 343.864 1.38639 343.165 1.29347C342.916 1.26037 342.672 1.22793 342.428 1.19788C341.5 1.08339 340.573 1.00292 339.38 1.04996C338.244 1.09473 337.365 1.32841 336.496 1.55953C336.443 1.57368 336.39 1.58781 336.337 1.6019C335.414 1.8461 334.487 2.07379 333.267 2.04999C331.918 2.02365 330.915 1.6777 329.918 1.3249L329.854 1.30227C328.879 0.956901 327.904 0.611404 326.601 0.549944C325.185 0.483135 324.099 0.756461 323.007 1.0358L322.973 1.04443C321.891 1.32099 320.8 1.60006 319.382 1.54997C318.683 1.5253 318.13 1.40389 317.596 1.28648C317.54 1.27419 317.484 1.26194 317.428 1.24985C316.841 1.1223 316.257 1.01198 315.498 1.04994C314.996 1.07505 314.607 1.19146 314.221 1.30688C314.188 1.31675 314.155 1.32661 314.122 1.33641C313.702 1.46079 313.277 1.574 312.716 1.54995C312.263 1.53053 311.924 1.43491 311.589 1.32974C311.552 1.31805 311.515 1.30626 311.478 1.29443C311.18 1.19992 310.878 1.10389 310.49 1.04952C309.314 0.884802 308.391 0.995904 307.461 1.15548C307.302 1.18274 307.143 1.21144 306.982 1.24043C306.202 1.38107 305.386 1.52836 304.389 1.54999C302.936 1.58151 301.764 1.41001 300.629 1.24403C300.487 1.22327 300.346 1.20259 300.205 1.18241C298.935 1.0009 297.672 0.858954 296.063 1.04965C295.63 1.10084 295.28 1.2136 294.94 1.32266C294.854 1.35051 294.768 1.37812 294.681 1.4044C294.258 1.53341 293.829 1.62811 293.273 1.54951C292.785 1.48061 292.462 1.258 292.149 1.04224L292.141 1.03672C291.826 0.819089 291.519 0.609646 291.052 0.549592C290.389 0.464417 289.911 0.693944 289.42 0.958408C289.386 0.976979 289.351 0.99573 289.317 1.01455C288.859 1.26321 288.377 1.52453 287.728 1.54996C286.928 1.58126 286.339 1.37637 285.758 1.14201C285.692 1.11526 285.626 1.08813 285.559 1.06094C285.044 0.849883 284.518 0.634372 283.832 0.549623C282.322 0.363008 281.151 0.599128 279.973 0.889572C279.839 0.922506 279.705 0.95615 279.571 0.989956C278.519 1.25425 277.429 1.52842 276.063 1.54999C274.394 1.57635 273.087 1.29847 271.804 1.02565C271.738 1.01156 271.672 0.997483 271.606 0.983464C270.258 0.697992 268.916 0.435488 267.179 0.549892C266.157 0.617261 265.365 0.837757 264.585 1.05535C264.528 1.07116 264.471 1.08696 264.415 1.10268C263.577 1.33477 262.735 1.55 261.622 1.55C260.525 1.55 259.692 1.29537 258.87 1.044L258.83 1.03193C257.995 0.776724 257.166 0.528977 256.069 0.549991C255.11 0.56835 254.384 0.812639 253.658 1.05662L253.585 1.08138C252.834 1.33333 252.077 1.57639 251.068 1.54998C250.455 1.53393 249.684 1.40822 249.068 1.28711C248.76 1.22647 248.49 1.16684 248.297 1.12237C248.201 1.10013 248.123 1.08167 248.07 1.06877L248.05 1.06391L248.051 1.21063C248.052 1.34918 248.054 1.55393 248.057 1.81871C248.062 2.34828 248.071 3.11796 248.087 4.07834C248.119 5.99911 248.178 8.68262 248.286 11.7336C248.501 17.8359 248.911 25.4065 249.691 31.2838C251.35 43.7936 252.826 54.6991 254.191 64.7873C258.227 94.6159 261.297 117.3 265.283 153.185C271.839 212.203 279.644 245.528 294.415 303.153C300.309 326.146 310.823 345.991 319.028 358.547C328.262 372.68 346.1 389.566 357.588 398.8C360.172 400.877 364.471 402.445 368.131 403.494C369.96 404.018 371.627 404.412 372.837 404.675C373.442 404.806 373.932 404.905 374.271 404.971C374.441 405.003 374.573 405.028 374.662 405.045L374.764 405.063L374.79 405.068L374.796 405.069L374.798 405.069L374.798 405.069C374.798 405.069 374.798 405.069 374.79 405.118L374.798 405.069Z"  />
</g>
<defs>
<clipPath id="clip0_2_32574">
<rect width="496" height="506" />
</clipPath>
</defs>
</svg>
