<svg width="496" height="506" viewBox="0 0 496 506" fill="none" xmlns="http://www.w3.org/2000/svg">
<g clip-path="url(#clip0_2_32577)">
<path d="M191.833 331.05C186.974 342.043 181.605 351.457 176.972 358.547C167.738 372.68 149.9 389.566 138.412 398.8C135.828 400.877 131.529 402.445 127.869 403.494C126.04 404.018 124.373 404.412 123.163 404.675C122.558 404.806 122.068 404.905 121.729 404.971C121.675 404.981 121.624 404.991 121.578 404.999C121.479 405.018 121.399 405.033 121.338 405.045L121.236 405.063L121.21 405.068L121.204 405.069L121.202 405.069L121.202 405.069C121.202 405.069 121.202 405.069 121.202 405.07L121.202 405.069L121.16 405.076V405.118V410.659V410.687L121.184 410.702L121.21 410.659L121.184 410.702L121.184 410.702L121.185 410.703L121.189 410.705L121.203 410.714L121.26 410.75C121.311 410.782 121.385 410.83 121.479 410.893C121.669 411.017 121.942 411.201 122.275 411.436C122.942 411.905 123.85 412.579 124.813 413.397C126.742 415.035 128.888 417.244 129.78 419.543C130.68 421.86 130.477 425.173 130.046 427.915C129.831 429.284 129.559 430.507 129.341 431.389C129.232 431.83 129.136 432.185 129.068 432.429C129.034 432.552 129.006 432.647 128.987 432.711L128.966 432.784L128.96 432.802L128.959 432.807L128.959 432.808L128.959 432.808L128.958 432.808L128.957 432.817L128.546 436.142L128.544 436.164L128.558 436.181L128.596 436.148L128.558 436.181L128.559 436.181L128.559 436.182L128.562 436.185L128.574 436.199L128.621 436.252C128.661 436.3 128.721 436.37 128.798 436.461C128.953 436.643 129.175 436.909 129.448 437.242C129.994 437.909 130.741 438.847 131.546 439.935C133.158 442.11 135.001 444.876 135.935 447.248C136.642 449.041 136.831 450.528 137.005 452.023L137.023 452.179C137.19 453.624 137.36 455.089 137.986 456.851C139.629 461.471 141.271 464.89 142.964 468.215C143.286 468.849 143.611 469.478 143.937 470.113C145.325 472.808 146.751 475.58 148.246 479.017C148.682 480.022 149.238 480.818 149.977 481.43C150.716 482.043 151.635 482.47 152.794 482.74C153.389 482.879 153.897 482.79 154.384 482.704C154.414 482.699 154.444 482.694 154.474 482.689C154.99 482.599 155.489 482.529 156.071 482.739C156.688 482.961 157.018 483.331 157.335 483.738C157.371 483.784 157.407 483.831 157.443 483.879C157.724 484.246 158.021 484.635 158.523 484.95C159.963 485.856 161.602 485.838 163.211 485.82L163.321 485.819C164.971 485.801 166.584 485.806 167.958 486.795C168.995 487.542 169.821 487.648 170.647 487.607C170.882 487.596 171.114 487.573 171.351 487.549C171.95 487.49 172.574 487.428 173.314 487.543C175.308 487.853 176.891 488.224 178.431 488.585C178.635 488.633 178.838 488.68 179.042 488.728C180.78 489.132 182.524 489.511 184.805 489.76C185.847 489.873 186.963 489.737 188.086 489.519C188.647 489.41 189.212 489.28 189.769 489.15L189.899 489.12C190.413 489 190.921 488.882 191.417 488.781C193.575 488.341 195.485 488.237 196.67 489.741C197.538 490.841 197.524 492.027 196.945 493.122C196.365 494.22 195.216 495.224 193.815 495.945C190.956 497.416 187.275 497.51 183.843 497.002C180.412 496.495 177.237 495.388 175.395 494.467C174.64 494.089 174.058 494.107 173.572 494.376C173.091 494.641 172.712 495.148 172.348 495.725C172.229 495.914 172.111 496.11 171.992 496.309C171.744 496.723 171.489 497.149 171.199 497.543C170.77 498.124 170.268 498.625 169.609 498.899C167.085 499.947 164.284 499.834 161.013 499.701C160.843 499.694 160.673 499.687 160.501 499.68C157.012 499.541 153.005 499.449 148.278 500.744C146.668 501.185 145.279 501.274 143.903 501.362C143.791 501.369 143.679 501.376 143.567 501.384C142.08 501.481 140.588 501.612 138.838 502.222C138.083 502.485 137.523 502.799 136.982 503.102C136.921 503.136 136.86 503.17 136.799 503.204C136.198 503.538 135.595 503.852 134.739 504.068C132.957 504.518 131.739 504.447 130.502 504.252C130.207 504.206 129.911 504.153 129.605 504.098C128.627 503.922 127.554 503.729 126.135 503.697C122.068 503.606 118.591 504.219 115.137 504.827L114.838 504.88C111.285 505.506 107.737 506.106 103.569 505.913C87.5655 505.175 79.8164 504.954 64.5862 504.805C61.6048 504.776 59.0986 504.91 56.7202 505.036C55.9016 505.08 55.098 505.123 54.2955 505.158C51.1609 505.295 48.0379 505.315 44.0759 504.806C41.3848 504.46 39.6551 504.083 37.9244 503.704L37.8793 503.694C36.1628 503.318 34.4371 502.941 31.7664 502.589C27.5609 502.036 24.1728 502.036 20.6579 502.082C20.3606 502.086 20.0623 502.09 19.7626 502.094C16.5193 502.14 13.1028 502.188 8.78566 501.85C4.38759 501.506 1.18344 499.106 0.213474 495.239C-0.120566 493.907 0.0762331 492.816 0.631533 491.874C1.18807 490.929 2.10672 490.13 3.22233 489.389C4.22933 488.72 5.39273 488.101 6.58895 487.464C6.71786 487.395 6.84715 487.326 6.97667 487.257C8.30692 486.547 9.66025 485.807 10.8624 484.949C15.4715 481.657 22.1695 480.088 28.0583 478.708L28.1815 478.679C31.1382 477.986 33.8855 477.339 36.0474 476.54C38.2063 475.743 39.7971 474.791 40.4219 473.478C41.8502 470.478 43.3672 467.477 44.8568 464.542C44.9639 464.331 45.0707 464.121 45.1774 463.911C46.5557 461.196 47.9032 458.542 49.1266 456.002C51.7619 450.53 53.8245 445.583 54.3772 441.696C60.4065 399.291 61.1005 375.526 62.2373 336.594V336.594L62.2546 336.001L62.2561 335.95H62.2046C61.5089 335.95 60.2079 335.749 58.9896 335.027C57.7847 334.314 56.6602 333.092 56.2807 331.05H191.833Z"  />
<path d="M62.2031 324.05H62.2517L62.2531 324.001C62.9172 300.482 62.9382 286.524 62.9689 266.13C62.9749 262.139 62.9813 257.901 62.9929 253.297C63.0642 225.105 63.3298 192.39 63.6728 160.05H229.934C223.533 214.869 215.773 247.8 201.584 303.153C199.028 313.123 195.604 322.501 191.875 330.95H56.2614C56.1852 330.506 56.1438 330.024 56.1438 329.5C56.1438 327.524 57.3775 326.163 58.7586 325.292C59.4487 324.857 60.1738 324.547 60.7954 324.344C61.4182 324.142 61.9331 324.05 62.2031 324.05Z"  />
<path d="M65.8659 1.05794L65.8662 1.03895L65.9106 1.02768C65.9631 1.01447 66.0395 0.995555 66.1351 0.972803C66.3262 0.927294 66.5936 0.866444 66.8988 0.805096C67.5099 0.682227 68.2693 0.558028 68.8703 0.55001C69.5227 0.541305 70.0205 0.664752 70.5235 0.791891L70.5441 0.797108C71.0406 0.922617 71.5445 1.05001 72.202 1.05001C72.8329 1.05001 73.3235 0.917057 73.8001 0.787902C73.8276 0.780446 73.8551 0.773003 73.8826 0.765599C74.3854 0.62994 74.8819 0.506896 75.5311 0.549905C76.1636 0.591811 76.6275 0.826998 77.0903 1.06168C77.1194 1.07642 77.1485 1.09115 77.1776 1.10584C77.6696 1.35414 78.1708 1.58694 78.8694 1.54994C79.4369 1.51989 79.8387 1.26645 80.221 1.0253C80.2416 1.0123 80.2621 0.999341 80.2826 0.98645C80.6849 0.73369 81.0755 0.507524 81.64 0.549875C82.0955 0.584042 82.3939 0.813702 82.7007 1.0498C82.7081 1.05548 82.7154 1.06116 82.7228 1.06685C83.0362 1.3078 83.3619 1.55001 83.8654 1.55001C84.3663 1.55001 84.6977 1.34778 85.0167 1.12391C85.0513 1.09965 85.0857 1.07517 85.1202 1.05066C85.404 0.848633 85.6902 0.644937 86.0984 0.54868C86.9319 0.35216 87.596 0.488474 88.2747 0.669739C88.3552 0.691251 88.436 0.713416 88.5173 0.735728C89.1208 0.901268 89.7538 1.0749 90.5317 1.04999C91.5134 1.01855 92.2564 0.779104 92.9875 0.5435L93.0443 0.525212C93.7937 0.283887 94.5374 0.0521348 95.5288 0.0500147C96.7549 0.0473929 97.6567 0.396172 98.5656 0.760247C98.5895 0.76981 98.6133 0.779385 98.6372 0.788963C99.5228 1.14402 100.424 1.50523 101.636 1.54998C102.856 1.59499 103.783 1.36557 104.706 1.11526C104.768 1.09834 104.831 1.08133 104.893 1.0643C105.754 0.829424 106.626 0.591347 107.749 0.549981C109.576 0.482699 110.978 0.897453 112.378 1.3118L112.456 1.3351C113.883 1.75701 115.315 2.16892 117.192 2.04991C118.471 1.96883 119.439 1.62398 120.387 1.28659C120.436 1.26886 120.486 1.25115 120.536 1.23351C121.531 0.880016 122.522 0.550015 123.854 0.550015C125.17 0.550015 126.15 0.925661 127.134 1.30283L127.169 1.31597C128.164 1.69747 129.168 2.0759 130.52 2.05001C131.392 2.0333 131.828 1.8417 132.305 1.63248C132.381 1.59914 132.458 1.56535 132.538 1.53175C133.114 1.28931 133.857 1.05001 135.517 1.05001C136.938 1.05001 138.026 1.27057 139.118 1.50622C139.174 1.51832 139.23 1.53045 139.286 1.54261C140.323 1.76715 141.379 1.99581 142.736 2.04997C144.8 2.13239 146.25 1.97634 147.913 1.79736C148.704 1.71234 149.542 1.62214 150.517 1.54988C151.398 1.48455 152.136 1.38641 152.835 1.29348C153.084 1.26039 153.328 1.22795 153.572 1.19789C154.5 1.08341 155.427 1.00293 156.621 1.04998C157.756 1.09475 158.635 1.32843 159.504 1.55955C159.557 1.57369 159.611 1.58783 159.664 1.60191C160.586 1.84611 161.513 2.0738 162.733 2.05001C164.083 2.02366 165.086 1.67771 166.082 1.32491L166.146 1.3023C167.121 0.956924 168.096 0.61142 169.399 0.549959C170.815 0.483149 171.901 0.756476 172.994 1.03581L173.028 1.04445C174.109 1.32101 175.2 1.60008 176.619 1.54998C177.317 1.52532 177.87 1.40391 178.404 1.28649C178.46 1.2742 178.516 1.26195 178.572 1.24986C179.16 1.12231 179.743 1.01199 180.502 1.04995C181.004 1.07507 181.394 1.19147 181.78 1.3069C181.813 1.31676 181.846 1.32662 181.879 1.33642C182.298 1.4608 182.723 1.57402 183.284 1.54997C183.737 1.53054 184.076 1.43493 184.411 1.32976C184.448 1.31807 184.485 1.30628 184.522 1.29446C184.82 1.19994 185.122 1.10391 185.51 1.04953C186.686 0.884817 187.609 0.995918 188.539 1.1555C188.698 1.18276 188.857 1.21146 189.018 1.24044C189.798 1.38108 190.615 1.52838 191.612 1.55C193.065 1.58152 194.237 1.41003 195.371 1.24405C195.513 1.22328 195.654 1.20261 195.795 1.18243C197.065 1.00091 198.328 0.858968 199.938 1.04967C200.37 1.10085 200.721 1.21362 201.06 1.32268C201.147 1.35053 201.233 1.37814 201.319 1.40441C201.743 1.53343 202.171 1.62813 202.728 1.54952C203.215 1.48063 203.538 1.25805 203.851 1.0423L203.859 1.03674C204.175 0.819104 204.482 0.609661 204.949 0.549606C205.611 0.464432 206.089 0.693958 206.58 0.958423C206.614 0.976993 206.649 0.995745 206.684 1.01457C207.142 1.26322 207.623 1.52455 208.273 1.54998C209.072 1.58127 209.661 1.37639 210.242 1.14203C210.308 1.11527 210.375 1.08815 210.441 1.06095C210.956 0.849898 211.483 0.634387 212.168 0.549637C213.679 0.363022 214.849 0.599143 216.028 0.889587C216.161 0.922518 216.295 0.95616 216.43 0.989964C217.481 1.25426 218.571 1.52844 219.937 1.55001C221.606 1.57636 222.913 1.29848 224.196 1.02566C224.262 1.01157 224.329 0.997497 224.395 0.983479C225.743 0.698007 227.084 0.435503 228.821 0.549907C229.844 0.617275 230.635 0.837765 231.416 1.05535C231.472 1.07117 231.529 1.08697 231.586 1.10269C232.423 1.33479 233.265 1.55001 234.378 1.55001C235.475 1.55001 236.308 1.29539 237.131 1.04401L237.17 1.03195C238.005 0.776739 238.834 0.528992 239.931 0.550006C240.89 0.568364 241.616 0.812647 242.342 1.05662L242.416 1.0814C243.166 1.33335 243.923 1.57641 244.932 1.55C245.545 1.53394 246.316 1.40824 246.932 1.28712C247.24 1.22649 247.51 1.16686 247.703 1.12238C247.8 1.10014 247.877 1.08169 247.93 1.06878L247.95 1.06393L247.949 1.21064C247.948 1.34919 247.946 1.55394 247.944 1.81873C247.938 2.3483 247.929 3.11798 247.913 4.07835C247.881 5.99912 247.822 8.68264 247.715 11.7336C247.499 17.8359 247.089 25.4065 246.309 31.2839C244.65 43.7936 243.174 54.6991 241.809 64.7873C237.773 94.6159 234.703 117.3 230.717 153.185C230.462 155.478 230.206 157.732 229.947 159.95H63.6755C64.1033 119.632 64.651 79.9027 65.0918 50.2491C65.3123 35.416 65.5061 23.104 65.6447 14.5002C65.714 10.1983 65.7696 6.82345 65.8078 4.5241C65.8269 3.37442 65.8417 2.49361 65.8517 1.90022L65.863 1.22802L65.8659 1.05794Z"  />
<path d="M304.167 331.05C309.026 342.043 314.395 351.457 319.028 358.547C328.262 372.68 346.1 389.566 357.588 398.8C360.172 400.877 364.471 402.445 368.131 403.494C369.96 404.018 371.627 404.412 372.837 404.675C373.442 404.806 373.932 404.905 374.271 404.971C374.325 404.981 374.376 404.991 374.422 404.999C374.521 405.018 374.601 405.033 374.662 405.045L374.764 405.063L374.79 405.068L374.796 405.069L374.798 405.069L374.798 405.069C374.798 405.069 374.798 405.069 374.798 405.07L374.798 405.069L374.84 405.076V405.118V410.659V410.687L374.816 410.702L374.79 410.659L374.816 410.702L374.816 410.702L374.815 410.703L374.811 410.705L374.797 410.714L374.74 410.75C374.689 410.782 374.615 410.83 374.521 410.893C374.331 411.017 374.058 411.201 373.725 411.436C373.058 411.905 372.15 412.579 371.187 413.397C369.258 415.035 367.112 417.244 366.22 419.543C365.32 421.86 365.523 425.173 365.954 427.915C366.169 429.284 366.441 430.507 366.659 431.389C366.768 431.83 366.864 432.185 366.932 432.429C366.966 432.552 366.994 432.647 367.013 432.711L367.034 432.784L367.04 432.802L367.041 432.807L367.041 432.808L367.041 432.808L367.042 432.808L367.043 432.817L367.454 436.142L367.456 436.164L367.442 436.181L367.404 436.148L367.442 436.181L367.441 436.181L367.441 436.182L367.438 436.185L367.426 436.199L367.379 436.252C367.339 436.3 367.279 436.37 367.202 436.461C367.047 436.643 366.825 436.909 366.552 437.242C366.006 437.909 365.259 438.847 364.454 439.935C362.842 442.11 360.999 444.876 360.065 447.248C359.358 449.041 359.169 450.528 358.995 452.023L358.977 452.179C358.81 453.624 358.64 455.089 358.014 456.851C356.371 461.471 354.729 464.89 353.036 468.215C352.714 468.849 352.389 469.478 352.063 470.113C350.675 472.808 349.249 475.58 347.754 479.017C347.318 480.022 346.762 480.818 346.023 481.43C345.284 482.043 344.365 482.47 343.206 482.74C342.611 482.879 342.103 482.79 341.616 482.704C341.586 482.699 341.556 482.694 341.526 482.689C341.01 482.599 340.511 482.529 339.929 482.739C339.312 482.961 338.982 483.331 338.665 483.738C338.629 483.784 338.593 483.831 338.557 483.879C338.276 484.246 337.979 484.635 337.477 484.95C336.037 485.856 334.398 485.838 332.789 485.82L332.679 485.819C331.029 485.801 329.416 485.806 328.042 486.795C327.005 487.542 326.179 487.648 325.353 487.607C325.118 487.596 324.886 487.573 324.649 487.549C324.05 487.49 323.426 487.428 322.686 487.543C320.692 487.853 319.109 488.224 317.569 488.585C317.365 488.633 317.162 488.68 316.958 488.728C315.22 489.132 313.476 489.511 311.195 489.76C310.153 489.873 309.037 489.737 307.914 489.519C307.353 489.41 306.788 489.28 306.231 489.15L306.101 489.12C305.587 489 305.079 488.882 304.583 488.781C302.425 488.341 300.515 488.237 299.33 489.741C298.462 490.841 298.476 492.027 299.055 493.122C299.635 494.22 300.784 495.224 302.185 495.945C305.044 497.416 308.725 497.51 312.157 497.002C315.588 496.495 318.763 495.388 320.605 494.467C321.36 494.089 321.942 494.107 322.428 494.376C322.909 494.641 323.288 495.148 323.652 495.725C323.771 495.914 323.889 496.11 324.008 496.309C324.256 496.723 324.511 497.149 324.801 497.543C325.23 498.124 325.732 498.625 326.391 498.899C328.915 499.947 331.716 499.834 334.987 499.701C335.157 499.694 335.327 499.687 335.499 499.68C338.988 499.541 342.995 499.449 347.722 500.744C349.332 501.185 350.721 501.274 352.097 501.362C352.209 501.369 352.321 501.376 352.433 501.384C353.92 501.481 355.412 501.612 357.162 502.222C357.917 502.485 358.477 502.799 359.018 503.102C359.079 503.136 359.14 503.17 359.201 503.204C359.802 503.538 360.405 503.852 361.261 504.068C363.043 504.518 364.261 504.447 365.498 504.252C365.793 504.206 366.089 504.153 366.395 504.098C367.373 503.922 368.446 503.729 369.865 503.697C373.932 503.606 377.409 504.219 380.863 504.827L381.162 504.88C384.715 505.506 388.263 506.106 392.431 505.913C408.435 505.175 416.184 504.954 431.414 504.805C434.395 504.776 436.901 504.91 439.28 505.036C440.098 505.08 440.902 505.123 441.705 505.158C444.839 505.295 447.962 505.315 451.924 504.806C454.615 504.46 456.345 504.083 458.076 503.704L458.121 503.694C459.837 503.318 461.563 502.941 464.234 502.589C468.439 502.036 471.827 502.036 475.342 502.082C475.639 502.086 475.938 502.09 476.237 502.094C479.481 502.14 482.897 502.188 487.214 501.85C491.612 501.506 494.817 499.106 495.787 495.239C496.121 493.907 495.924 492.816 495.368 491.874C494.812 490.929 493.893 490.13 492.778 489.389C491.771 488.72 490.607 488.101 489.411 487.464C489.282 487.395 489.153 487.326 489.023 487.257C487.693 486.547 486.34 485.807 485.138 484.949C480.529 481.657 473.83 480.088 467.942 478.708L467.819 478.679C464.862 477.986 462.115 477.339 459.953 476.54C457.794 475.743 456.203 474.791 455.578 473.478C454.15 470.478 452.633 467.477 451.143 464.542C451.036 464.331 450.929 464.121 450.823 463.911C449.444 461.196 448.097 458.542 446.873 456.002C444.238 450.53 442.175 445.583 441.623 441.696C435.593 399.291 434.9 375.526 433.763 336.594V336.594L433.745 336.001L433.744 335.95H433.795C434.491 335.95 435.792 335.749 437.01 335.027C438.215 334.314 439.34 333.092 439.719 331.05H304.167Z"  />
<path d="M433.797 324.05H433.748L433.747 324.001C433.083 300.482 433.062 286.524 433.031 266.13C433.025 262.139 433.019 257.901 433.007 253.297C432.936 225.25 432.673 192.727 432.333 160.55H266.125C272.514 215.07 280.271 247.969 294.416 303.153C296.972 313.123 300.396 322.501 304.125 330.95H439.739C439.815 330.506 439.856 330.024 439.856 329.5C439.856 327.524 438.622 326.163 437.241 325.292C436.551 324.857 435.826 324.547 435.205 324.344C434.582 324.142 434.067 324.05 433.797 324.05Z"  />
<path d="M430.133 1.05818L430.132 1.03895L430.088 1.02768C430.036 1.01447 429.959 0.995555 429.864 0.972803C429.672 0.927294 429.405 0.866444 429.1 0.805096C428.489 0.682227 427.729 0.558028 427.128 0.55001C426.476 0.541305 425.978 0.664752 425.475 0.791891L425.454 0.797108C424.958 0.922617 424.454 1.05001 423.797 1.05001C423.166 1.05001 422.675 0.917057 422.198 0.787902C422.171 0.780446 422.144 0.773003 422.116 0.765599C421.613 0.62994 421.117 0.506896 420.468 0.549905C419.835 0.591811 419.371 0.826998 418.908 1.06168C418.879 1.07642 418.85 1.09115 418.821 1.10584C418.329 1.35414 417.828 1.58694 417.129 1.54994C416.562 1.51989 416.16 1.26645 415.778 1.0253C415.757 1.0123 415.736 0.999341 415.716 0.98645C415.314 0.73369 414.923 0.507524 414.359 0.549875C413.903 0.584042 413.605 0.813702 413.298 1.0498C413.291 1.05548 413.283 1.06116 413.276 1.06685C412.962 1.3078 412.637 1.55001 412.133 1.55001C411.632 1.55001 411.301 1.34778 410.982 1.12391C410.947 1.09965 410.913 1.07517 410.878 1.05066C410.595 0.848633 410.308 0.644937 409.9 0.54868C409.067 0.35216 408.403 0.488474 407.724 0.669739C407.643 0.691251 407.563 0.713416 407.481 0.735728C406.878 0.901268 406.245 1.0749 405.467 1.04999C404.485 1.01855 403.742 0.779104 403.011 0.5435L402.954 0.525212C402.205 0.283887 401.461 0.0521348 400.47 0.0500147C399.244 0.0473929 398.342 0.396172 397.433 0.760247C397.409 0.76981 397.385 0.779385 397.361 0.788963C396.476 1.14402 395.575 1.50523 394.362 1.54998C393.143 1.59499 392.215 1.36557 391.293 1.11526C391.23 1.09834 391.168 1.08133 391.106 1.0643C390.245 0.829424 389.373 0.591347 388.249 0.549981C386.422 0.482699 385.021 0.897453 383.621 1.3118L383.542 1.3351C382.116 1.75701 380.683 2.16892 378.806 2.04991C377.527 1.96883 376.559 1.62398 375.612 1.28659C375.562 1.26886 375.512 1.25115 375.463 1.23351C374.467 0.880016 373.477 0.550015 372.145 0.550015C370.829 0.550015 369.848 0.925661 368.864 1.30283L368.83 1.31597C367.834 1.69747 366.831 2.0759 365.479 2.05001C364.607 2.0333 364.17 1.8417 363.694 1.63248C363.618 1.59914 363.541 1.56535 363.461 1.53175C362.884 1.28931 362.141 1.05001 360.481 1.05001C359.06 1.05001 357.972 1.27057 356.881 1.50622C356.825 1.51832 356.769 1.53045 356.712 1.54261C355.676 1.76715 354.62 1.99581 353.263 2.04997C351.199 2.13239 349.749 1.97634 348.085 1.79736C347.295 1.71234 346.457 1.62214 345.482 1.54988C344.6 1.48455 343.862 1.38641 343.163 1.29348C342.914 1.26039 342.671 1.22795 342.427 1.19789C341.499 1.08341 340.571 1.00293 339.378 1.04998C338.243 1.09475 337.364 1.32843 336.494 1.55955C336.441 1.57369 336.388 1.58783 336.335 1.60191C335.413 1.84611 334.485 2.0738 333.266 2.05001C331.916 2.02366 330.913 1.67771 329.917 1.32491L329.853 1.3023C328.878 0.956924 327.902 0.61142 326.6 0.549959C325.183 0.483149 324.097 0.756476 323.005 1.03581L322.971 1.04445C321.89 1.32101 320.799 1.60008 319.38 1.54998C318.682 1.52532 318.129 1.40391 317.594 1.28649C317.538 1.2742 317.483 1.26195 317.427 1.24986C316.839 1.12231 316.255 1.01199 315.496 1.04995C314.994 1.07507 314.605 1.19147 314.219 1.3069C314.186 1.31676 314.153 1.32662 314.12 1.33642C313.701 1.4608 313.276 1.57402 312.715 1.54997C312.262 1.53054 311.922 1.43493 311.588 1.32976C311.55 1.31807 311.513 1.30628 311.476 1.29446C311.179 1.19994 310.877 1.10391 310.488 1.04953C309.312 0.884817 308.39 0.995918 307.46 1.1555C307.301 1.18276 307.142 1.21146 306.981 1.24044C306.201 1.38108 305.384 1.52838 304.387 1.55C302.934 1.58152 301.762 1.41003 300.628 1.24405C300.486 1.22328 300.345 1.20261 300.203 1.18243C298.934 1.00091 297.671 0.858968 296.061 1.04967C295.629 1.10085 295.278 1.21362 294.939 1.32268C294.852 1.35053 294.766 1.37814 294.68 1.40441C294.256 1.53343 293.828 1.62813 293.271 1.54952C292.783 1.48063 292.46 1.25805 292.148 1.0423L292.14 1.03674C291.824 0.819104 291.517 0.609661 291.05 0.549606C290.388 0.464432 289.909 0.693958 289.419 0.958423C289.384 0.976993 289.35 0.995745 289.315 1.01457C288.857 1.26322 288.376 1.52455 287.726 1.54998C286.927 1.58127 286.338 1.37639 285.757 1.14203C285.69 1.11527 285.624 1.08815 285.558 1.06095C285.042 0.849898 284.516 0.634387 283.83 0.549637C282.32 0.363022 281.15 0.599143 279.971 0.889587C279.837 0.922518 279.703 0.95616 279.569 0.989964C278.518 1.25426 277.427 1.52844 276.062 1.55001C274.393 1.57636 273.086 1.29848 271.803 1.02566C271.736 1.01157 271.67 0.997497 271.604 0.983479C270.256 0.698007 268.914 0.435503 267.178 0.549907C266.155 0.617275 265.364 0.837765 264.583 1.05535C264.526 1.07117 264.47 1.08697 264.413 1.10269C263.576 1.33479 262.733 1.55001 261.62 1.55001C260.524 1.55001 259.691 1.29539 258.868 1.04401L258.829 1.03195C257.993 0.776739 257.164 0.528992 256.067 0.550006C255.109 0.568364 254.382 0.812647 253.657 1.05662L253.583 1.0814C252.832 1.33335 252.075 1.57641 251.066 1.55C250.453 1.53394 249.682 1.40824 249.067 1.28712C248.759 1.22649 248.489 1.16686 248.296 1.12238C248.199 1.10014 248.122 1.08169 248.069 1.06878L248.049 1.06393L248.05 1.21064C248.051 1.34919 248.052 1.55394 248.055 1.81873C248.06 2.3483 248.069 3.11798 248.085 4.07835C248.117 5.99912 248.176 8.68264 248.284 11.7336C248.499 17.8359 248.91 25.4065 249.689 31.2839C251.348 43.7936 252.824 54.6991 254.189 64.7873C258.226 94.6159 261.295 117.3 265.282 153.185C265.555 155.651 265.831 158.071 266.11 160.45H432.328C431.901 120.044 431.352 80.1897 430.91 50.4331C430.688 35.5485 430.494 23.1905 430.355 14.5536C430.285 10.2351 430.229 6.84692 430.191 4.53836C430.172 3.38408 430.157 2.49971 430.147 1.9039L430.136 1.22896L430.133 1.05818Z"  />
</g>
<defs>
<clipPath id="clip0_2_32577">
<rect width="496" height="506" />
</clipPath>
</defs>
</svg>
