<svg width="496" height="506" viewBox="0 0 496 506" fill="none" xmlns="http://www.w3.org/2000/svg">
<g clip-path="url(#clip0_2_32605)">
<path d="M65.8657 1.11269L65.8669 1.03895L65.9113 1.02768C65.9638 1.01447 66.0402 0.995555 66.1358 0.972803C66.3269 0.927294 66.5943 0.866444 66.8994 0.805096C67.5106 0.682227 68.27 0.558028 68.871 0.55001C69.5234 0.541305 70.0211 0.664752 70.5242 0.791891L70.5448 0.797108C71.0413 0.922617 71.5452 1.05001 72.2027 1.05001C72.8336 1.05001 73.3242 0.917057 73.8008 0.787902C73.8283 0.780446 73.8558 0.773003 73.8832 0.765599C74.3861 0.62994 74.8826 0.506896 75.5318 0.549905C76.1643 0.591811 76.6281 0.826998 77.091 1.06168C77.1201 1.07642 77.1491 1.09115 77.1782 1.10584C77.6703 1.35414 78.1715 1.58694 78.8701 1.54994C79.4376 1.51989 79.8394 1.26645 80.2216 1.0253C80.2422 1.0123 80.2628 0.999341 80.2833 0.98645C80.6856 0.73369 81.0762 0.507524 81.6407 0.549875C82.0961 0.584042 82.3946 0.813702 82.7014 1.0498L82.7235 1.06685C83.0369 1.3078 83.3626 1.55001 83.866 1.55001C84.3669 1.55001 84.6984 1.34778 85.0174 1.12391C85.052 1.09965 85.0864 1.07517 85.1208 1.05066C85.4047 0.848633 85.6909 0.644937 86.0991 0.54868C86.9326 0.35216 87.5966 0.488474 88.2753 0.669739C88.3559 0.691251 88.4367 0.713416 88.518 0.735728C89.1215 0.901268 89.7544 1.0749 90.5324 1.04999C91.5141 1.01855 92.2571 0.779104 92.9882 0.5435L93.045 0.525212C93.7944 0.283887 94.5381 0.0521348 95.5295 0.0500147C96.7556 0.0473929 97.6574 0.396172 98.5663 0.760247C98.5902 0.76981 98.614 0.779385 98.6379 0.788963C99.5235 1.14402 100.424 1.50523 101.637 1.54998C102.856 1.59499 103.784 1.36557 104.707 1.11526C104.769 1.09834 104.831 1.08133 104.894 1.0643C105.754 0.829424 106.627 0.591347 107.75 0.549981C109.577 0.482699 110.978 0.897453 112.378 1.3118L112.457 1.3351C113.883 1.75701 115.316 2.16892 117.193 2.04991C118.472 1.96883 119.44 1.62398 120.387 1.28659C120.437 1.26886 120.487 1.25115 120.537 1.23351C121.532 0.880016 122.522 0.550015 123.855 0.550015C125.171 0.550015 126.151 0.925665 127.135 1.30283L127.169 1.31597C128.165 1.69747 129.169 2.0759 130.52 2.05001C131.392 2.0333 131.829 1.8417 132.305 1.63248C132.381 1.59914 132.458 1.56535 132.538 1.53175C133.115 1.28931 133.858 1.05001 135.518 1.05001C136.939 1.05001 138.027 1.27057 139.119 1.50622C139.175 1.51832 139.231 1.53045 139.287 1.54261C140.324 1.76715 141.38 1.99581 142.736 2.04997C144.8 2.13239 146.251 1.97634 147.914 1.79736C148.704 1.71234 149.543 1.62214 150.518 1.54988C151.399 1.48455 152.137 1.38641 152.836 1.29348C153.085 1.26039 153.329 1.22795 153.572 1.19789C154.501 1.08341 155.428 1.00293 156.621 1.04998C157.757 1.09475 158.636 1.32843 159.505 1.55955C159.558 1.57369 159.611 1.58783 159.664 1.60191C160.587 1.84611 161.514 2.0738 162.734 2.05001C164.083 2.02366 165.086 1.67771 166.083 1.32491L166.147 1.3023C167.122 0.956924 168.097 0.61142 169.4 0.549959C170.816 0.483149 171.902 0.756476 172.994 1.03581L173.028 1.04445C174.11 1.32101 175.201 1.60008 176.619 1.54998C177.318 1.52532 177.87 1.40391 178.405 1.28649C178.461 1.2742 178.517 1.26195 178.572 1.24986C179.16 1.12231 179.744 1.01199 180.503 1.04995C181.005 1.07507 181.394 1.19147 181.78 1.3069C181.813 1.31676 181.846 1.32662 181.879 1.33642C182.299 1.4608 182.724 1.57402 183.284 1.54997C183.738 1.53054 184.077 1.43493 184.412 1.32976C184.449 1.31807 184.486 1.30628 184.523 1.29446C184.82 1.19994 185.123 1.10391 185.511 1.04953C186.687 0.884817 187.61 0.995918 188.54 1.1555C188.699 1.18276 188.858 1.21146 189.018 1.24044C189.798 1.38108 190.615 1.52838 191.612 1.55C193.065 1.58152 194.237 1.41003 195.372 1.24405C195.513 1.22328 195.655 1.20261 195.796 1.18243C197.066 1.00091 198.328 0.858968 199.938 1.04967C200.37 1.10085 200.721 1.21362 201.061 1.32268C201.147 1.35053 201.233 1.37814 201.32 1.40441C201.743 1.53343 202.172 1.62813 202.728 1.54952C203.216 1.48063 203.539 1.25805 203.852 1.0423L203.86 1.03674C204.175 0.819104 204.482 0.609661 204.949 0.549606C205.611 0.464432 206.09 0.693958 206.581 0.958423C206.615 0.976993 206.65 0.995745 206.684 1.01457C207.142 1.26322 207.624 1.52455 208.273 1.54998C209.073 1.58127 209.662 1.37639 210.243 1.14203C210.309 1.11527 210.375 1.08815 210.442 1.06095C210.957 0.849898 211.483 0.634387 212.169 0.549637C213.679 0.363022 214.849 0.599143 216.028 0.889587C216.162 0.922518 216.296 0.95616 216.43 0.989964C217.482 1.25426 218.572 1.52844 219.938 1.55001C221.606 1.57636 222.914 1.29848 224.197 1.02566C224.263 1.01157 224.329 0.997497 224.395 0.983479C225.743 0.698007 227.085 0.435503 228.822 0.549907C229.844 0.617275 230.636 0.837765 231.416 1.05535C231.473 1.07117 231.53 1.08697 231.586 1.10269C232.424 1.33479 233.266 1.55001 234.379 1.55001C235.476 1.55001 236.309 1.29539 237.131 1.04401L237.171 1.03195C238.006 0.776739 238.835 0.528992 239.932 0.550006C240.89 0.568364 241.617 0.812647 242.343 1.05662L242.416 1.0814C243.167 1.33335 243.924 1.57641 244.933 1.55C245.546 1.53394 246.317 1.40824 246.932 1.28712C247.241 1.22649 247.511 1.16686 247.704 1.12238C247.8 1.10014 247.878 1.08169 247.931 1.06878L247.951 1.06393L247.95 1.21064C247.949 1.34919 247.947 1.55394 247.944 1.81873C247.939 2.3483 247.93 3.11798 247.914 4.07835C247.882 5.99912 247.823 8.68264 247.715 11.7336C247.5 17.8359 247.09 25.4065 246.31 31.2839C244.651 43.7936 243.175 54.6991 241.81 64.7873C237.773 94.6159 234.704 117.3 230.718 153.185C226.279 193.146 221.268 221.327 213.909 253.247H62.9954C63.1204 203.988 63.8382 140.94 64.5249 90.1993C64.8683 64.8205 65.204 42.5209 65.4538 26.566C65.5787 18.5885 65.6822 12.1972 65.7544 7.80033C65.7905 5.60187 65.8188 3.902 65.838 2.75175L65.86 1.44496L65.8657 1.11269Z"  />
<path d="M213.885 253.347C210.381 268.541 206.345 284.586 201.585 303.153C195.691 326.146 185.177 345.991 176.972 358.547C167.738 372.68 149.9 389.566 138.412 398.8C135.828 400.877 131.529 402.445 127.869 403.494C126.04 404.018 124.373 404.412 123.163 404.675C122.558 404.806 122.068 404.905 121.729 404.971C121.559 405.004 121.427 405.028 121.338 405.045L121.236 405.063L121.21 405.068L121.204 405.069L121.202 405.069L121.202 405.069L121.16 405.077V405.119V410.66V410.687L121.184 410.702L121.21 410.66L121.184 410.702L121.184 410.702L121.185 410.703L121.189 410.705L121.203 410.714L121.26 410.75C121.311 410.783 121.385 410.83 121.479 410.893C121.669 411.017 121.942 411.201 122.275 411.436C122.942 411.905 123.85 412.579 124.813 413.397C126.742 415.035 128.888 417.244 129.78 419.543C130.68 421.861 130.477 425.173 130.046 427.915C129.831 429.284 129.559 430.507 129.341 431.389C129.232 431.83 129.136 432.185 129.068 432.43C129.06 432.457 129.053 432.484 129.046 432.509C129.022 432.593 129.002 432.661 128.987 432.711L128.966 432.784L128.96 432.803L128.959 432.807L128.959 432.808L128.959 432.809L128.958 432.808L128.957 432.817L128.546 436.142L128.544 436.164L128.558 436.181L128.596 436.148L128.558 436.181L128.559 436.181L128.559 436.182L128.562 436.185L128.574 436.199L128.621 436.253C128.661 436.3 128.721 436.37 128.798 436.461C128.953 436.643 129.175 436.909 129.448 437.242C129.994 437.909 130.741 438.848 131.546 439.935C133.158 442.11 135.001 444.876 135.935 447.248C136.642 449.041 136.831 450.528 137.005 452.023L137.023 452.179C137.19 453.624 137.36 455.089 137.986 456.851C139.629 461.471 141.271 464.89 142.964 468.216C143.286 468.849 143.611 469.479 143.937 470.113C145.325 472.808 146.751 475.58 148.246 479.018C148.682 480.022 149.238 480.818 149.977 481.43C150.716 482.043 151.635 482.47 152.794 482.74C153.389 482.879 153.897 482.79 154.384 482.704C154.414 482.699 154.444 482.694 154.474 482.689C154.99 482.599 155.489 482.529 156.071 482.739C156.688 482.961 157.018 483.331 157.335 483.738C157.371 483.785 157.407 483.832 157.443 483.879C157.724 484.247 158.021 484.635 158.523 484.95C159.963 485.856 161.602 485.838 163.211 485.82L163.321 485.819C164.971 485.801 166.584 485.806 167.958 486.796C168.995 487.542 169.821 487.648 170.647 487.607C170.882 487.596 171.114 487.573 171.351 487.549C171.95 487.49 172.574 487.428 173.314 487.543C175.308 487.853 176.891 488.224 178.431 488.585C178.635 488.633 178.838 488.681 179.042 488.728C180.78 489.132 182.524 489.511 184.805 489.76C185.847 489.874 186.963 489.738 188.086 489.519C188.647 489.41 189.212 489.28 189.769 489.15L189.899 489.12C190.413 489 190.921 488.882 191.417 488.781C193.575 488.341 195.485 488.237 196.67 489.741C197.538 490.841 197.524 492.027 196.945 493.122C196.365 494.22 195.216 495.225 193.815 495.945C190.956 497.416 187.275 497.51 183.843 497.002C180.412 496.495 177.237 495.389 175.395 494.468C174.64 494.09 174.058 494.108 173.572 494.376C173.091 494.641 172.712 495.148 172.348 495.725C172.229 495.914 172.111 496.11 171.992 496.309C171.744 496.724 171.489 497.149 171.199 497.543C170.77 498.124 170.268 498.625 169.609 498.899C167.085 499.948 164.284 499.834 161.013 499.701C160.843 499.694 160.673 499.687 160.501 499.68C157.012 499.541 153.005 499.449 148.278 500.744C146.668 501.185 145.279 501.274 143.903 501.362C143.791 501.369 143.679 501.376 143.567 501.384C142.08 501.482 140.588 501.612 138.838 502.222C138.083 502.486 137.523 502.799 136.982 503.102C136.921 503.136 136.86 503.171 136.799 503.205C136.198 503.538 135.595 503.852 134.739 504.068C132.957 504.518 131.739 504.447 130.502 504.253C130.207 504.206 129.911 504.153 129.605 504.098C128.627 503.922 127.554 503.729 126.135 503.697C122.068 503.606 118.591 504.219 115.137 504.828L114.838 504.88C111.285 505.506 107.737 506.106 103.569 505.914C87.5655 505.175 79.8164 504.955 64.5862 504.805C61.6048 504.776 59.0986 504.91 56.7202 505.036C55.9016 505.08 55.098 505.123 54.2955 505.158C51.1609 505.295 48.0379 505.315 44.0759 504.806C41.3848 504.46 39.6551 504.083 37.9244 503.704L37.8793 503.694C36.1628 503.319 34.4371 502.941 31.7664 502.589C27.5609 502.036 24.1728 502.036 20.6579 502.082C20.3606 502.086 20.0623 502.09 19.7626 502.094C16.5193 502.14 13.1028 502.188 8.78566 501.85C4.38759 501.506 1.18344 499.106 0.213474 495.239C-0.120566 493.907 0.0762331 492.816 0.631533 491.874C1.18807 490.929 2.10672 490.131 3.22233 489.389C4.22933 488.72 5.39273 488.101 6.58895 487.464C6.71786 487.395 6.84715 487.326 6.97667 487.257C8.30692 486.547 9.66025 485.807 10.8624 484.949C15.4715 481.657 22.1695 480.088 28.0583 478.708L28.1815 478.679C31.1382 477.987 33.8855 477.339 36.0474 476.54C38.2063 475.743 39.7971 474.791 40.4219 473.478C41.8502 470.478 43.3672 467.477 44.8568 464.542L45.1776 463.91C46.5558 461.196 47.9033 458.542 49.1266 456.002C51.7619 450.53 53.8245 445.583 54.3772 441.696C60.4065 399.291 61.1005 375.526 62.2373 336.594V336.594L62.2546 336.002L62.2561 335.95H62.2046C61.4324 335.95 59.9158 335.702 58.5937 334.772C57.2746 333.844 56.1452 332.234 56.1452 329.5C56.1452 327.524 57.379 326.163 58.76 325.292C59.4502 324.857 60.1752 324.547 60.7968 324.345C61.4197 324.142 61.9346 324.05 62.2046 324.05H62.2532L62.2546 324.002C62.9187 300.482 62.9397 286.524 62.9704 266.13C62.9763 262.154 62.9827 257.932 62.9943 253.347H213.885Z"  />
<path d="M430.134 1.11269L430.133 1.03895L430.089 1.02768C430.036 1.01447 429.96 0.995555 429.864 0.972803C429.673 0.927294 429.406 0.866444 429.101 0.805096C428.489 0.682227 427.73 0.558028 427.129 0.55001C426.477 0.541305 425.979 0.664752 425.476 0.791891L425.455 0.797108C424.959 0.922617 424.455 1.05001 423.797 1.05001C423.166 1.05001 422.676 0.917057 422.199 0.787902C422.172 0.780446 422.144 0.773003 422.117 0.765599C421.614 0.62994 421.117 0.506896 420.468 0.549905C419.836 0.591811 419.372 0.826998 418.909 1.06168C418.88 1.07642 418.851 1.09115 418.822 1.10584C418.33 1.35414 417.829 1.58694 417.13 1.54994C416.562 1.51989 416.161 1.26645 415.778 1.0253C415.758 1.0123 415.737 0.999341 415.717 0.98645C415.314 0.73369 414.924 0.507524 414.359 0.549875C413.904 0.584042 413.605 0.813702 413.299 1.0498L413.276 1.06685C412.963 1.3078 412.637 1.55001 412.134 1.55001C411.633 1.55001 411.302 1.34778 410.983 1.12391C410.948 1.09965 410.914 1.07517 410.879 1.05066C410.595 0.848633 410.309 0.644937 409.901 0.54868C409.067 0.35216 408.403 0.488474 407.725 0.669739C407.644 0.691251 407.563 0.713416 407.482 0.735728C406.879 0.901268 406.246 1.0749 405.468 1.04999C404.486 1.01855 403.743 0.779104 403.012 0.5435L402.955 0.525212C402.206 0.283887 401.462 0.0521348 400.47 0.0500147C399.244 0.0473929 398.343 0.396172 397.434 0.760247C397.41 0.76981 397.386 0.779385 397.362 0.788963C396.476 1.14402 395.576 1.50523 394.363 1.54998C393.144 1.59499 392.216 1.36557 391.293 1.11526C391.231 1.09834 391.169 1.08133 391.106 1.0643C390.246 0.829424 389.373 0.591347 388.25 0.549981C386.423 0.482699 385.022 0.897453 383.622 1.3118L383.543 1.3351C382.117 1.75701 380.684 2.16892 378.807 2.04991C377.528 1.96883 376.56 1.62398 375.613 1.28659C375.563 1.26886 375.513 1.25115 375.463 1.23351C374.468 0.880016 373.478 0.550015 372.145 0.550015C370.829 0.550015 369.849 0.925665 368.865 1.30283L368.831 1.31597C367.835 1.69747 366.831 2.0759 365.48 2.05001C364.608 2.0333 364.171 1.8417 363.695 1.63248C363.619 1.59914 363.542 1.56535 363.462 1.53175C362.885 1.28931 362.142 1.05001 360.482 1.05001C359.061 1.05001 357.973 1.27057 356.881 1.50622C356.825 1.51832 356.769 1.53045 356.713 1.54261C355.676 1.76715 354.62 1.99581 353.264 2.04997C351.2 2.13239 349.749 1.97634 348.086 1.79736C347.296 1.71234 346.457 1.62214 345.482 1.54988C344.601 1.48455 343.863 1.38641 343.164 1.29348C342.915 1.26039 342.671 1.22795 342.428 1.19789C341.499 1.08341 340.572 1.00293 339.379 1.04998C338.243 1.09475 337.364 1.32843 336.495 1.55955C336.442 1.57369 336.389 1.58783 336.336 1.60191C335.413 1.84611 334.486 2.0738 333.266 2.05001C331.917 2.02366 330.914 1.67771 329.917 1.32491L329.853 1.3023C328.878 0.956924 327.903 0.61142 326.6 0.549959C325.184 0.483149 324.098 0.756476 323.006 1.03581L322.972 1.04445C321.89 1.32101 320.799 1.60008 319.381 1.54998C318.682 1.52532 318.13 1.40391 317.595 1.28649C317.539 1.2742 317.483 1.26195 317.428 1.24986C316.84 1.12231 316.256 1.01199 315.497 1.04995C314.995 1.07507 314.606 1.19147 314.22 1.3069C314.187 1.31676 314.154 1.32662 314.121 1.33642C313.701 1.4608 313.276 1.57402 312.716 1.54997C312.262 1.53054 311.923 1.43493 311.588 1.32976C311.551 1.31807 311.514 1.30628 311.477 1.29446C311.18 1.19994 310.877 1.10391 310.489 1.04953C309.313 0.884817 308.39 0.995918 307.46 1.1555C307.301 1.18276 307.142 1.21146 306.982 1.24044C306.202 1.38108 305.385 1.52838 304.388 1.55C302.935 1.58152 301.763 1.41003 300.628 1.24405C300.487 1.22328 300.345 1.20261 300.204 1.18243C298.934 1.00091 297.672 0.858968 296.062 1.04967C295.63 1.10085 295.279 1.21362 294.939 1.32268C294.853 1.35053 294.767 1.37814 294.68 1.40441C294.257 1.53343 293.828 1.62813 293.272 1.54952C292.784 1.48063 292.461 1.25805 292.148 1.0423L292.14 1.03674C291.825 0.819104 291.518 0.609661 291.051 0.549606C290.389 0.464432 289.91 0.693958 289.419 0.958423C289.385 0.976993 289.35 0.995745 289.316 1.01457C288.858 1.26322 288.376 1.52455 287.727 1.54998C286.927 1.58127 286.338 1.37639 285.757 1.14203C285.691 1.11527 285.625 1.08815 285.558 1.06095C285.043 0.849898 284.517 0.634387 283.831 0.549637C282.321 0.363022 281.151 0.599143 279.972 0.889587C279.838 0.922518 279.704 0.95616 279.57 0.989964C278.518 1.25426 277.428 1.52844 276.062 1.55001C274.394 1.57636 273.086 1.29848 271.803 1.02566C271.737 1.01157 271.671 0.997497 271.605 0.983479C270.257 0.698007 268.915 0.435503 267.178 0.549907C266.156 0.617275 265.364 0.837765 264.584 1.05535C264.527 1.07117 264.47 1.08697 264.414 1.10269C263.576 1.33479 262.734 1.55001 261.621 1.55001C260.524 1.55001 259.691 1.29539 258.869 1.04401L258.829 1.03195C257.994 0.776739 257.165 0.528992 256.068 0.550006C255.11 0.568364 254.383 0.812647 253.657 1.05662L253.584 1.0814C252.833 1.33335 252.076 1.57641 251.067 1.55C250.454 1.53394 249.683 1.40824 249.068 1.28712C248.759 1.22649 248.489 1.16686 248.296 1.12238C248.2 1.10014 248.122 1.08169 248.069 1.06878L248.049 1.06393L248.05 1.21064C248.051 1.34919 248.053 1.55394 248.056 1.81873C248.061 2.3483 248.07 3.11798 248.086 4.07835C248.118 5.99912 248.177 8.68264 248.285 11.7336C248.5 17.8359 248.91 25.4065 249.69 31.2839C251.349 43.7936 252.825 54.6991 254.19 64.7873C258.227 94.6159 261.296 117.3 265.282 153.185C269.721 193.146 274.732 221.327 282.091 253.247H433.005C432.88 203.988 432.162 140.94 431.475 90.1993C431.132 64.8205 430.796 42.5209 430.546 26.566C430.421 18.5885 430.318 12.1972 430.246 7.80033C430.21 5.60187 430.181 3.902 430.162 2.75175L430.14 1.44496L430.134 1.11269Z"  />
<path d="M282.115 253.347C285.619 268.541 289.655 284.586 294.415 303.153C300.309 326.146 310.823 345.991 319.028 358.547C328.262 372.68 346.1 389.566 357.588 398.8C360.172 400.877 364.471 402.445 368.131 403.494C369.96 404.018 371.627 404.412 372.837 404.675C373.442 404.806 373.932 404.905 374.271 404.971C374.441 405.004 374.573 405.028 374.662 405.045L374.764 405.063L374.79 405.068L374.796 405.069L374.798 405.069L374.798 405.069L374.84 405.077V405.119V410.66V410.687L374.816 410.702L374.79 410.66L374.816 410.702L374.816 410.702L374.815 410.703L374.811 410.705L374.797 410.714L374.74 410.75C374.689 410.783 374.615 410.83 374.521 410.893C374.331 411.017 374.058 411.201 373.725 411.436C373.058 411.905 372.15 412.579 371.187 413.397C369.258 415.035 367.112 417.244 366.22 419.543C365.32 421.861 365.523 425.173 365.954 427.915C366.169 429.284 366.441 430.507 366.659 431.389C366.768 431.83 366.864 432.185 366.932 432.43C366.94 432.457 366.947 432.484 366.954 432.509C366.978 432.593 366.998 432.661 367.013 432.711L367.034 432.784L367.04 432.803L367.041 432.807L367.041 432.808L367.041 432.809L367.042 432.808L367.043 432.817L367.454 436.142L367.456 436.164L367.442 436.181L367.404 436.148L367.442 436.181L367.441 436.181L367.441 436.182L367.438 436.185L367.426 436.199L367.379 436.253C367.339 436.3 367.279 436.37 367.202 436.461C367.047 436.643 366.825 436.909 366.552 437.242C366.006 437.909 365.259 438.848 364.454 439.935C362.842 442.11 360.999 444.876 360.065 447.248C359.358 449.041 359.169 450.528 358.995 452.023L358.977 452.179C358.81 453.624 358.64 455.089 358.014 456.851C356.371 461.471 354.729 464.89 353.036 468.216C352.714 468.849 352.389 469.479 352.063 470.113C350.675 472.808 349.249 475.58 347.754 479.018C347.318 480.022 346.762 480.818 346.023 481.43C345.284 482.043 344.365 482.47 343.206 482.74C342.611 482.879 342.103 482.79 341.616 482.704C341.586 482.699 341.556 482.694 341.526 482.689C341.01 482.599 340.511 482.529 339.929 482.739C339.312 482.961 338.982 483.331 338.665 483.738C338.629 483.785 338.593 483.832 338.557 483.879C338.276 484.247 337.979 484.635 337.477 484.95C336.037 485.856 334.398 485.838 332.789 485.82L332.679 485.819C331.029 485.801 329.416 485.806 328.042 486.796C327.005 487.542 326.179 487.648 325.353 487.607C325.118 487.596 324.886 487.573 324.649 487.549C324.05 487.49 323.426 487.428 322.686 487.543C320.692 487.853 319.109 488.224 317.569 488.585C317.365 488.633 317.162 488.681 316.958 488.728C315.22 489.132 313.476 489.511 311.195 489.76C310.153 489.874 309.037 489.738 307.914 489.519C307.353 489.41 306.788 489.28 306.231 489.15L306.101 489.12C305.587 489 305.079 488.882 304.583 488.781C302.425 488.341 300.515 488.237 299.33 489.741C298.462 490.841 298.476 492.027 299.055 493.122C299.635 494.22 300.784 495.225 302.185 495.945C305.044 497.416 308.725 497.51 312.157 497.002C315.588 496.495 318.763 495.389 320.605 494.468C321.36 494.09 321.942 494.108 322.428 494.376C322.909 494.641 323.288 495.148 323.652 495.725C323.771 495.914 323.889 496.11 324.008 496.309C324.256 496.724 324.511 497.149 324.801 497.543C325.23 498.124 325.732 498.625 326.391 498.899C328.915 499.948 331.716 499.834 334.987 499.701C335.157 499.694 335.327 499.687 335.499 499.68C338.988 499.541 342.995 499.449 347.722 500.744C349.332 501.185 350.721 501.274 352.097 501.362C352.209 501.369 352.321 501.376 352.433 501.384C353.92 501.482 355.412 501.612 357.162 502.222C357.917 502.486 358.477 502.799 359.018 503.102C359.079 503.136 359.14 503.171 359.201 503.205C359.802 503.538 360.405 503.852 361.261 504.068C363.043 504.518 364.261 504.447 365.498 504.253C365.793 504.206 366.089 504.153 366.395 504.098C367.373 503.922 368.446 503.729 369.865 503.697C373.932 503.606 377.409 504.219 380.863 504.828L381.162 504.88C384.715 505.506 388.263 506.106 392.431 505.914C408.435 505.175 416.184 504.955 431.414 504.805C434.395 504.776 436.901 504.91 439.28 505.036C440.098 505.08 440.902 505.123 441.705 505.158C444.839 505.295 447.962 505.315 451.924 504.806C454.615 504.46 456.345 504.083 458.076 503.704L458.121 503.694C459.837 503.319 461.563 502.941 464.234 502.589C468.439 502.036 471.827 502.036 475.342 502.082C475.639 502.086 475.938 502.09 476.237 502.094C479.481 502.14 482.897 502.188 487.214 501.85C491.612 501.506 494.817 499.106 495.787 495.239C496.121 493.907 495.924 492.816 495.368 491.874C494.812 490.929 493.893 490.131 492.778 489.389C491.771 488.72 490.607 488.101 489.411 487.464C489.282 487.395 489.153 487.326 489.023 487.257C487.693 486.547 486.34 485.807 485.138 484.949C480.529 481.657 473.83 480.088 467.942 478.708L467.819 478.679C464.862 477.987 462.115 477.339 459.953 476.54C457.794 475.743 456.203 474.791 455.578 473.478C454.15 470.478 452.633 467.477 451.143 464.542L450.822 463.91C449.444 461.196 448.097 458.542 446.873 456.002C444.238 450.53 442.175 445.583 441.623 441.696C435.593 399.291 434.9 375.526 433.763 336.594V336.594L433.745 336.002L433.744 335.95H433.795C434.568 335.95 436.084 335.702 437.406 334.772C438.725 333.844 439.855 332.234 439.855 329.5C439.855 327.524 438.621 326.163 437.24 325.292C436.55 324.857 435.825 324.547 435.203 324.345C434.58 324.142 434.065 324.05 433.795 324.05H433.747L433.745 324.002C433.081 300.482 433.06 286.524 433.03 266.13C433.024 262.154 433.017 257.932 433.006 253.347H282.115Z"  />
</g>
<defs>
<clipPath id="clip0_2_32605">
<rect width="496" height="506" />
</clipPath>
</defs>
</svg>
