<svg width="409" height="231" viewBox="0 0 409 231" fill="none" xmlns="http://www.w3.org/2000/svg">
<symbol id="left-1" width="409" height="231" viewBox="0 0 409 231">
<path d="M8.2193 101.828L8.21993 101.828L8.21911 101.836L7.4992 108.777L5.72505 125.883L5.72561 138.1H5.72583L5.7254 138.105L4.36433 152.769L4.36412 152.77C3.91994 156.272 3.25866 159.996 2.57979 163.82C2.40122 164.826 2.22142 165.838 2.04405 166.855C1.19221 171.74 0.395889 176.733 0.0558929 181.587C0.0358005 181.873 0.0619005 182.184 0.21564 182.469C0.368807 182.752 0.651996 183.015 1.15785 183.201C1.42181 183.298 1.79276 183.366 2.20363 183.414C2.61369 183.461 3.06028 183.488 3.47388 183.502C3.88737 183.516 4.26731 183.517 4.5439 183.516C4.68218 183.515 4.79458 183.513 4.87238 183.511C4.91128 183.51 4.94153 183.51 4.96203 183.509L4.98534 183.509L4.99125 183.508L4.99273 183.508L4.9931 183.508L4.99321 183.508L5.04012 183.507L5.04454 183.554C5.21577 185.365 5.13088 187.636 4.96106 190.05C4.87614 191.258 4.76991 192.501 4.66369 193.742L4.65913 193.795C4.55442 195.018 4.45003 196.237 4.36628 197.416C4.19629 199.808 4.11162 202.028 4.28137 203.766C4.36625 204.635 4.51452 205.381 4.74607 205.966C4.97769 206.551 5.29067 206.97 5.70199 207.195C5.99532 207.356 6.43599 207.46 6.93737 207.526C7.43738 207.591 7.99235 207.616 8.51072 207.621C9.02892 207.625 9.50963 207.61 9.86083 207.593C10.0364 207.584 10.1796 207.575 10.2788 207.569C10.3284 207.565 10.367 207.562 10.3932 207.56L10.4229 207.558L10.4305 207.558L10.4324 207.557L10.4329 207.557L10.433 207.557L10.4371 207.607L10.433 207.557L10.4846 207.553L10.487 207.605C10.8103 214.445 9.49522 219.642 8.54657 223.392C8.48736 223.626 8.42957 223.854 8.37371 224.077C7.89753 225.976 7.56304 227.46 7.66292 228.569C7.71269 229.121 7.87013 229.577 8.16916 229.944C8.4683 230.311 8.91283 230.593 9.54486 230.791C9.57 230.799 9.61911 230.808 9.69553 230.816C9.77074 230.825 9.86906 230.833 9.99041 230.841C10.233 230.856 10.5659 230.87 10.9864 230.881C11.8273 230.905 13.017 230.922 14.5326 230.934C17.5639 230.956 21.8979 230.954 27.3504 230.935C38.2554 230.896 53.6337 230.785 72.0111 230.649C73.4271 230.638 74.8609 230.627 76.3119 230.617C112.522 230.348 159.402 230 206.466 229.907C240.687 229.84 275.007 229.911 305.201 229.973C317.846 229.999 329.767 230.023 340.654 230.036C359.096 230.056 374.57 230.042 385.568 229.94C391.067 229.889 395.446 229.817 398.518 229.715C400.054 229.665 401.262 229.607 402.12 229.542C402.549 229.509 402.889 229.474 403.138 229.437C403.263 229.419 403.365 229.4 403.442 229.381C403.522 229.362 403.572 229.344 403.598 229.327C404.659 228.677 405.123 227.662 405.21 226.413C405.297 225.161 405.005 223.68 404.554 222.108C404.227 220.97 403.819 219.789 403.414 218.616C403.259 218.168 403.105 217.723 402.956 217.281C402.417 215.682 401.945 214.138 401.769 212.795C401.603 211.535 401.441 209.921 401.319 208.623C401.259 207.973 401.208 207.403 401.173 206.995C401.156 206.79 401.142 206.627 401.132 206.514L401.122 206.385L401.119 206.352L401.118 206.343L401.118 206.341L401.118 206.34L401.113 206.284L401.17 206.286L401.17 206.286L401.172 206.286L401.179 206.287L401.206 206.288L401.309 206.291C401.398 206.294 401.527 206.298 401.685 206.301C402.001 206.308 402.433 206.315 402.899 206.312C403.365 206.309 403.865 206.297 404.314 206.266C404.765 206.236 405.162 206.188 405.426 206.114C405.889 205.985 406.202 205.647 406.394 205.131C406.588 204.612 406.659 203.916 406.638 203.082C406.595 201.413 406.185 199.208 405.674 196.796C405.531 196.12 405.38 195.427 405.227 194.725C404.835 192.928 404.431 191.074 404.114 189.288C403.675 186.806 403.404 184.45 403.575 182.558L403.579 182.51L403.627 182.512L403.628 182.512L403.629 182.512L403.636 182.513L403.661 182.514C403.684 182.515 403.717 182.516 403.76 182.518C403.788 182.519 403.82 182.52 403.856 182.522C403.929 182.524 404.019 182.527 404.121 182.529C404.426 182.537 404.845 182.542 405.304 182.533C406.225 182.516 407.295 182.442 407.919 182.221C408.211 182.118 408.437 181.845 408.603 181.409C408.768 180.974 408.87 180.385 408.917 179.666C409.013 178.227 408.893 176.282 408.652 174.036C408.366 171.376 407.912 168.302 407.447 165.158C407.127 162.992 406.802 160.794 406.524 158.675L406.524 158.675L406.524 158.669C406.527 154.884 406.254 150.826 405.994 146.972C405.846 144.769 405.702 142.633 405.617 140.653C405.501 137.972 405.527 135.257 405.553 132.608C405.555 132.344 405.558 132.081 405.56 131.819C405.586 128.922 405.595 126.118 405.397 123.537L405.397 123.535C405.33 120.373 405.284 117.497 405.242 114.843C405.137 108.192 405.053 102.942 404.716 98.1195V98.116L404.716 0.0500031H6.17989L7.53959 89.315L7.53966 89.317L8.2193 101.828Z"  />
</symbol>
</svg>
