<svg width="813" height="503" viewBox="0 0 813 503" fill="none" xmlns="http://www.w3.org/2000/svg">
<symbol id="left-1" width="813" height="503" viewBox="0 0 813 503">
<path d="M191.202 253.938L191.202 253.939L199.95 485.921L199.95 485.925L199.355 498.883C199.281 500.494 197.975 501.771 196.362 501.794C192.283 501.853 184.756 501.923 179.346 501.745C175.506 501.618 172.288 500.936 169.222 500.285C168.306 500.091 167.404 499.9 166.504 499.727C162.586 498.976 158.694 498.577 153.815 499.827C152.386 500.193 151.3 500.684 150.234 501.166L150.049 501.25C148.923 501.758 147.798 502.248 146.284 502.567C142.966 503.264 140.35 502.901 137.717 502.305C137.12 502.17 136.523 502.023 135.916 501.874C133.844 501.364 131.661 500.827 129.043 500.651C123.783 500.296 119.671 500.362 115.557 500.483C114.986 500.5 114.414 500.518 113.84 500.536C110.279 500.648 106.599 500.764 102.067 500.651C98.0614 500.55 94.697 500.012 91.4965 499.5C90.4503 499.333 89.4217 499.168 88.3939 499.023C84.2223 498.432 80.0707 498.156 74.8376 499.284C73.8558 499.495 73.0963 499.727 72.344 499.957L72.283 499.976C71.5108 500.212 70.7399 500.445 69.7348 500.652C65.6805 501.486 62.4584 501.061 59.2181 500.536C58.9779 500.497 58.7377 500.458 58.497 500.418C55.4898 499.925 52.4119 499.42 48.5973 499.83C47.5586 499.942 46.7412 500.087 45.9369 500.23L45.8003 500.255C44.9514 500.405 44.1037 500.551 43.0088 500.651C40.1262 500.913 37.8724 500.631 35.6128 500.322L35.3107 500.28C33.15 499.983 30.9579 499.682 28.1869 499.83C26.7084 499.909 25.5609 500.063 24.4151 500.223L24.2452 500.247C23.1555 500.4 22.053 500.554 20.6527 500.651C16.6279 500.928 11.4666 500.722 7.3101 500.446C5.23215 500.308 3.40589 500.153 2.09914 500.032C1.47872 499.975 0.975417 499.926 0.6179 499.889C0.65711 499.886 0.697839 499.882 0.739967 499.878C1.18882 499.835 1.79792 499.752 2.43823 499.594C3.07825 499.436 3.75143 499.202 4.32728 498.856C4.90321 498.51 5.38462 498.049 5.63557 497.437C6.87358 494.415 7.00321 491.195 6.88127 487.708C6.84742 486.74 6.79422 485.752 6.73982 484.741C6.59808 482.108 6.44821 479.324 6.61129 476.356C7.00199 469.244 7.39947 463.917 7.81509 458.347C8.13074 454.117 8.45684 449.747 8.79838 444.349C10.3787 419.368 11.25 405.354 12.2006 380.332C12.6692 368 13.0337 352.201 13.2811 339.485C13.4048 333.127 13.4992 327.54 13.5627 323.543C13.5944 321.544 13.6184 319.942 13.6345 318.841C13.6426 318.29 13.6486 317.864 13.6527 317.576L13.6572 317.248L13.6584 317.165L13.6586 317.144L13.6587 317.139L13.6587 317.137C13.6587 317.137 13.6587 317.137 13.6087 317.136C13.6587 317.137 13.6587 317.137 13.6587 317.136L13.6588 317.135L13.6588 317.13L13.6591 317.109L13.6601 317.026L13.664 316.698L13.679 315.434L13.7346 310.733C13.7817 306.737 13.8475 301.151 13.9217 294.794C14.0701 282.081 14.2523 266.282 14.3878 253.943C15.4111 160.718 16.4784 17.4787 16.5687 5.27803C16.5724 4.77896 16.9464 4.45301 17.4556 4.41298C19.4048 4.25976 24.0042 3.97848 27.1802 4.42424C27.7049 4.49789 28.0505 4.63071 28.331 4.79272C28.527 4.90589 28.6902 5.03237 28.8627 5.16604C28.9398 5.22578 29.0187 5.28696 29.1032 5.34902C29.6498 5.75022 30.3884 6.15288 32.2229 6.32252C33.1404 6.40736 33.7245 6.33133 34.142 6.16405C34.5604 5.99638 34.8061 5.7389 35.0481 5.47572C35.0573 5.4657 35.0665 5.45567 35.0758 5.44563C35.3085 5.19215 35.5439 4.93579 35.9356 4.73442C36.343 4.52504 36.9236 4.37334 37.8503 4.35633C38.7795 4.33927 39.3624 4.40792 39.7645 4.51877C40.1646 4.62909 40.3877 4.78173 40.5976 4.9386C40.6162 4.95249 40.6347 4.96645 40.6533 4.98043C40.8457 5.12542 41.042 5.27327 41.3626 5.3865C41.7132 5.51032 42.2097 5.59205 43.0134 5.59205C43.8173 5.59205 44.32 5.50597 44.6834 5.37573C45.0042 5.26079 45.2145 5.11189 45.4227 4.9644C45.4506 4.94466 45.4785 4.92495 45.5065 4.90534C45.7433 4.73992 46.0011 4.57821 46.4443 4.4612C46.889 4.34377 47.5226 4.27088 48.5107 4.28794C49.4996 4.30501 50.0869 4.38269 50.469 4.49105C50.8482 4.59858 51.0262 4.73648 51.1972 4.88026C51.2086 4.88979 51.2199 4.89935 51.2312 4.90895C51.3945 5.047 51.5648 5.19104 51.8988 5.31205C52.2536 5.44062 52.7913 5.54277 53.7033 5.59198C54.6153 5.64119 55.185 5.59729 55.5844 5.49743C55.9861 5.397 56.213 5.24049 56.4385 5.0721C56.4551 5.05965 56.4718 5.04714 56.4885 5.03458C56.696 4.87875 56.9125 4.7162 57.2786 4.57363C57.6751 4.41922 58.2494 4.2876 59.1774 4.21942C61.0353 4.08292 61.6385 4.20802 62.1899 4.36522C62.2367 4.37859 62.2834 4.39224 62.3305 4.40604C62.5628 4.47398 62.8065 4.54531 63.1454 4.60255C63.553 4.67143 64.0976 4.7199 64.9289 4.7199C66.5928 4.7199 67.3183 4.52703 67.8817 4.35859C67.9112 4.34978 67.9402 4.34105 67.9688 4.33244C68.2125 4.25904 68.4283 4.19406 68.6891 4.15529C68.9799 4.11206 69.328 4.10133 69.8311 4.15092C70.7168 4.23825 71.2307 4.50813 71.7744 4.79366C71.8695 4.8436 71.9655 4.89402 72.0646 4.94403C72.7331 5.28147 73.5285 5.59205 75.0911 5.59205C75.8719 5.59205 76.3875 5.50101 76.7759 5.36163C77.1473 5.22835 77.3998 5.05163 77.6521 4.87505L77.687 4.85065C77.9508 4.66633 78.2221 4.48292 78.6419 4.341C79.0624 4.19887 79.6346 4.09754 80.499 4.08276C81.3646 4.06796 81.886 4.13374 82.2409 4.23871C82.5827 4.3398 82.7722 4.47773 82.971 4.62239L82.9906 4.63666C83.199 4.78814 83.4212 4.94407 83.8313 5.06089C84.2395 5.17715 84.832 5.25418 85.782 5.25418C86.7329 5.25418 87.3316 5.15374 87.7488 5.00656C88.1597 4.8616 88.3917 4.67212 88.6066 4.49668L88.6186 4.48688C88.8352 4.31005 89.0364 4.14958 89.3968 4.05325C89.7595 3.95633 90.287 3.92361 91.1552 4.01411C92.0237 4.10464 92.4887 4.24772 92.7622 4.40723C93.0058 4.5493 93.0997 4.70515 93.1951 4.86339C93.2055 4.88075 93.216 4.89813 93.2267 4.91553C93.2811 5.00409 93.3417 5.09347 93.4343 5.17593C93.5271 5.25855 93.6498 5.33226 93.8271 5.39382C94.1797 5.51626 94.7526 5.59205 95.7473 5.59205C96.7435 5.59205 97.3929 5.50396 97.8645 5.36655C98.3373 5.22878 98.629 5.04208 98.9093 4.85014C98.9323 4.83442 98.9551 4.81868 98.978 4.80294C99.2335 4.62704 99.4896 4.45069 99.8814 4.30099C100.309 4.13777 100.899 4.00558 101.826 3.94588C102.754 3.88605 103.304 3.90473 103.668 3.96166C104.024 4.01744 104.202 4.10994 104.385 4.20519L104.393 4.2091C104.583 4.30787 104.78 4.40847 105.173 4.46902C105.564 4.5292 106.148 4.54981 107.112 4.49304C109.04 4.3795 109.577 4.24233 110.038 4.1244L110.039 4.12404C110.491 4.00839 110.87 3.91168 112.486 3.87758C113.295 3.86051 113.814 3.89044 114.192 3.94441C114.567 3.99789 114.805 4.07509 115.053 4.1555L115.058 4.15727C115.565 4.32144 116.104 4.49312 117.861 4.49312C119.619 4.49312 120.135 4.33875 120.619 4.17415C120.636 4.16839 120.653 4.16262 120.67 4.15685C120.892 4.0813 121.112 4.00598 121.455 3.94412C121.826 3.87743 122.339 3.82626 123.148 3.80919C123.957 3.79212 124.436 3.82639 124.75 3.88632C125.061 3.94575 125.21 4.0304 125.36 4.11861L125.371 4.12552C125.522 4.21405 125.678 4.30609 125.989 4.37545C126.307 4.44608 126.784 4.49312 127.582 4.49312C129.112 4.49312 129.812 4.2995 130.505 4.10782C130.537 4.09908 130.568 4.09034 130.6 4.08162C131.32 3.88346 132.075 3.69621 133.808 3.74079C134.676 3.76313 135.186 3.82122 135.516 3.8949C135.838 3.96661 135.99 4.05306 136.141 4.13879L136.15 4.14399C136.309 4.23394 136.469 4.32232 136.808 4.38726C137.144 4.4517 137.655 4.49312 138.518 4.49312C139.381 4.49312 139.955 4.4404 140.389 4.36111C140.803 4.28537 141.087 4.18556 141.37 4.08632L141.411 4.07206C141.999 3.86621 142.62 3.66191 144.471 3.67242C146.326 3.68294 146.694 3.81112 147.002 3.92115L147.01 3.92398C147.166 3.97995 147.314 4.03268 147.62 4.06474C147.93 4.0971 148.402 4.10848 149.212 4.08274C150.751 4.03384 151.383 3.93392 151.993 3.83743C152.026 3.83226 152.058 3.8271 152.091 3.82196C152.73 3.72143 153.399 3.62765 155.134 3.60402C156.67 3.5831 157.484 3.61565 158.094 3.64005C158.173 3.64322 158.249 3.64626 158.323 3.64903C158.964 3.6731 159.431 3.67634 160.47 3.56957C161.249 3.48947 161.602 3.31918 161.965 3.14452C162.068 3.09467 162.172 3.04447 162.287 2.99591C162.802 2.77834 163.555 2.5828 165.492 2.5828C166.46 2.5828 167.081 2.65374 167.521 2.75803C167.959 2.86201 168.218 2.99952 168.464 3.1364L168.505 3.15932C168.738 3.28939 168.969 3.41839 169.334 3.51168C169.718 3.6102 170.25 3.66849 171.091 3.65134C171.934 3.63416 172.507 3.52487 172.944 3.36913C173.377 3.21506 173.675 3.0163 173.966 2.82223L173.975 2.81575C174.269 2.61976 174.557 2.42909 174.977 2.2864C175.397 2.14365 175.952 2.04812 176.777 2.04805C177.605 2.04798 178.038 2.14843 178.285 2.29602C178.516 2.43425 178.589 2.61627 178.673 2.8239L178.686 2.85539C178.777 3.07761 178.886 3.31795 179.218 3.51809C179.547 3.71588 180.09 3.87207 181.041 3.94583C183.37 4.12652 185.435 3.94424 186.684 3.77601C187.307 3.69217 187.888 4.16613 187.896 4.79054L191.202 253.938Z" fill="white" stroke="#D9D9D9" stroke-width="0.1"/>
</symbol>
<symbol id="right-1" width="813" height="503" viewBox="0 0 813 503">
<path d="M812.051 497.016C812.182 497.035 812.303 497.051 812.41 497.065L783.423 498.637L783.396 498.638L783.382 498.662L783.382 498.662L783.381 498.663L783.379 498.667L783.368 498.685C783.359 498.7 783.345 498.723 783.327 498.752C783.29 498.81 783.237 498.893 783.168 498.993C783.031 499.192 782.834 499.457 782.595 499.722C782.355 499.988 782.075 500.252 781.771 500.449C781.468 500.646 781.144 500.775 780.816 500.775C778.063 500.775 776.342 500.664 774.757 500.541C774.555 500.525 774.354 500.51 774.154 500.494C772.789 500.386 771.438 500.279 769.509 500.24C766.121 500.172 763.382 500.391 760.727 500.603C760.362 500.632 759.998 500.661 759.635 500.689C756.628 500.922 753.627 501.094 749.795 500.775C744.528 500.336 741.162 500.24 735.874 500.24C734.55 500.24 733.279 500.325 732.07 500.423C731.763 500.448 731.46 500.474 731.161 500.499C730.284 500.573 729.444 500.645 728.642 500.683C726.492 500.786 724.638 500.651 723.143 499.713C722.555 499.345 721.4 498.282 720.611 496.978C719.82 495.673 719.405 494.146 720.258 492.835L720.29 492.786L720.237 492.762C719.646 492.489 719.055 492.49 718.614 492.558C718.393 492.591 718.21 492.642 718.081 492.685C718.026 492.703 717.981 492.719 717.947 492.733V484.255V484.218L717.912 484.208L714.468 483.15V478.91V478.866L714.424 478.861L701.71 477.263V471.428V471.385L701.668 471.378L701.66 471.428L701.668 471.378L701.667 471.378L701.662 471.377L701.645 471.374L701.576 471.362C701.547 471.357 701.511 471.351 701.469 471.344C701.423 471.336 701.371 471.326 701.311 471.316C701.08 471.274 700.746 471.212 700.33 471.13C699.499 470.966 698.345 470.723 697.051 470.405C694.472 469.771 691.343 468.841 689.116 467.656C689.12 462.049 690.076 453.951 691.185 444.831L691.338 443.57C692.41 434.768 693.588 425.096 694.171 415.843C694.573 409.463 695.483 402.864 696.423 396.282C696.496 395.776 696.568 395.27 696.641 394.765C697.511 388.693 698.377 382.65 698.864 376.826C699.451 369.806 699.1 362.811 698.764 356.111L698.737 355.566C698.393 348.699 698.092 342.151 698.864 336.206C700.718 321.933 702.821 310.359 705.186 303.612L705.203 303.565L705.156 303.548C686.611 297.139 670.962 282.716 662.269 269.361C660.479 266.611 658.591 263.782 656.661 260.888C647.505 247.162 637.386 231.992 632.119 216.991C630.304 211.82 628.704 207.379 627.224 203.274C623.366 192.57 620.33 184.149 616.463 171.026C613.662 161.523 610.618 149.231 608.274 139.314C607.102 134.355 606.105 129.991 605.401 126.866C605.049 125.304 604.77 124.051 604.579 123.189C604.484 122.758 604.411 122.425 604.361 122.199L604.305 121.943L604.291 121.878L604.287 121.862L604.286 121.857L604.286 121.856C604.286 121.856 604.286 121.856 604.24 121.866L604.286 121.856L604.285 121.854L596.675 92.9945L596.675 92.9921L596.673 92.9823L596.666 92.9437L596.64 92.7918C596.617 92.658 596.583 92.4604 596.539 92.2047C596.451 91.6934 596.323 90.9501 596.166 90.0222C595.851 88.1663 595.417 85.5717 594.937 82.6172C593.977 76.7079 592.835 69.3593 592.109 63.6003C590.59 51.5548 589.575 36.0559 588.94 23.5676C588.623 17.3237 588.4 11.8326 588.257 7.90255C588.185 5.93753 588.134 4.36277 588.1 3.27928C588.083 2.73753 588.07 2.3186 588.062 2.03512L588.053 1.71306L588.052 1.66222L588.165 1.67699C588.276 1.69128 588.437 1.71171 588.639 1.73626C589.042 1.78536 589.605 1.85096 590.246 1.91698C591.529 2.04898 593.125 2.18282 594.379 2.18947C595.642 2.19618 596.639 2.0511 597.618 1.90876C597.676 1.90019 597.735 1.89163 597.794 1.88311C598.83 1.73317 599.862 1.5966 601.19 1.65493C602.421 1.70894 603.37 1.95249 604.313 2.19416C604.355 2.20515 604.398 2.21614 604.441 2.2271C605.426 2.47921 606.416 2.71948 607.716 2.72397C609.009 2.72844 610.002 2.45138 610.981 2.17841C611.009 2.17058 611.037 2.16276 611.065 2.15495C612.071 1.87465 613.071 1.60709 614.383 1.65494C615.682 1.7023 616.652 2.08305 617.62 2.46324C617.647 2.47386 617.674 2.48447 617.701 2.49508C618.696 2.88557 619.698 3.26524 621.054 3.25847C622.37 3.25189 623.344 2.84832 624.306 2.44962L624.335 2.43745C625.307 2.03476 626.27 1.64107 627.577 1.65497C628.83 1.66831 629.749 2.04962 630.676 2.43917L630.703 2.45055C631.621 2.83638 632.549 3.22686 633.811 3.25845C635.221 3.29377 636.269 2.9335 637.311 2.54525C637.375 2.52125 637.439 2.49715 637.504 2.47302C638.481 2.10688 639.471 1.73616 640.774 1.65488C642.016 1.57739 642.981 1.71274 643.95 1.86693C644.023 1.87856 644.096 1.8903 644.17 1.90207C645.068 2.04626 645.989 2.19406 647.15 2.18947C648.27 2.18504 649.155 2.04548 650.021 1.90893C650.082 1.89938 650.142 1.88985 650.203 1.88037C651.127 1.73547 652.048 1.60487 653.236 1.65493C654.398 1.70387 655.288 1.94895 656.174 2.19291C656.206 2.20158 656.237 2.21024 656.269 2.21889C657.187 2.47122 658.11 2.71458 659.327 2.72397C660.601 2.73379 661.568 2.46467 662.53 2.19494L662.548 2.18988C663.504 1.92186 664.456 1.65498 665.706 1.65498C666.928 1.65498 667.865 1.92662 668.8 2.19766L668.882 2.22146C669.845 2.50017 670.813 2.76953 672.087 2.72394C673.137 2.68635 673.925 2.43605 674.708 2.1876L674.71 2.18713C675.493 1.93857 676.27 1.69202 677.306 1.65494C678.562 1.60997 679.517 1.87511 680.479 2.15354L680.564 2.17809C681.498 2.44887 682.446 2.72397 683.683 2.72397C684.956 2.72397 685.923 2.45519 686.884 2.18807L686.886 2.18765C687.847 1.92041 688.803 1.65498 690.062 1.65498C691.32 1.65498 692.276 1.92041 693.238 2.18765L693.239 2.18807C694.201 2.45519 695.168 2.72397 696.441 2.72397C697.714 2.72397 698.681 2.45519 699.642 2.18807L699.644 2.18765C700.605 1.92041 701.561 1.65498 702.82 1.65498C704.078 1.65498 705.034 1.91816 705.996 2.18424L706.007 2.18726C706.965 2.45238 707.93 2.71939 709.198 2.72397C710.495 2.72865 711.482 2.45693 712.462 2.18715L712.474 2.18402C713.458 1.91325 714.436 1.64549 715.722 1.65498C716.953 1.66406 717.887 1.92285 718.826 2.18443L718.836 2.18735C719.772 2.44801 720.715 2.71053 721.956 2.72397C723.285 2.73837 724.297 2.46937 725.304 2.19849L725.332 2.19086C726.329 1.92254 727.323 1.65498 728.625 1.65498C729.927 1.65498 730.921 1.92255 731.918 2.19087L731.946 2.19849C732.953 2.46937 733.965 2.73837 735.294 2.72397C736.535 2.71053 737.478 2.44801 738.414 2.18735L738.424 2.18443C739.363 1.92285 740.297 1.66406 741.528 1.65498C742.814 1.64549 743.792 1.91325 744.776 2.18402L744.788 2.18715C745.768 2.45693 746.755 2.72865 748.052 2.72397C749.324 2.71938 750.292 2.48178 751.255 2.23102C751.302 2.21882 751.349 2.20658 751.396 2.19434C752.312 1.95512 753.236 1.71373 754.433 1.65492C755.789 1.58827 756.843 1.73975 757.901 1.89932L757.993 1.91321C759.022 2.06846 760.062 2.22562 761.391 2.18945C762.868 2.14923 764.003 1.90012 765.131 1.65271L765.169 1.64436C766.309 1.39427 767.445 1.1483 768.929 1.12047C770.108 1.09834 771.038 1.25131 771.958 1.4027C772.009 1.41111 772.06 1.4195 772.111 1.42786C773.082 1.58692 774.056 1.73309 775.31 1.65488C776.632 1.57238 777.637 1.19809 778.616 0.833064C778.678 0.810024 778.74 0.787021 778.801 0.764131C779.841 0.378567 780.874 0.0242108 782.264 0.051477C783.547 0.0766204 784.495 0.394065 785.446 0.747593C785.533 0.780007 785.621 0.812733 785.708 0.845566C786.575 1.17084 787.47 1.50666 788.638 1.65458C789.988 1.82558 791.731 1.82545 793.135 1.78282C793.837 1.76149 794.455 1.7295 794.897 1.70283C795.119 1.6895 795.296 1.6775 795.418 1.66884C795.476 1.66475 795.521 1.66141 795.553 1.65901L795.552 1.71496L795.549 2.04309C795.547 2.33336 795.543 2.76562 795.538 3.33356C795.529 4.46944 795.516 6.14804 795.5 8.31898C795.468 12.6608 795.426 18.972 795.386 26.8493C795.305 42.6038 795.23 64.6227 795.252 89.6801C795.297 139.795 795.732 202.064 797.293 250.682C798.067 274.799 799.261 293.609 800.462 312.418L800.495 312.933C801.684 331.571 802.877 350.256 803.672 374.151C804.112 387.402 804.637 399.327 805.132 410.589C806.352 438.343 807.396 462.073 806.572 491.723C806.41 491.975 806.168 492.213 805.905 492.441C805.794 492.538 805.677 492.635 805.562 492.73C805.406 492.859 805.253 492.986 805.118 493.11C804.884 493.324 804.69 493.54 804.618 493.763C804.582 493.876 804.577 493.991 804.613 494.107C804.65 494.223 804.726 494.336 804.848 494.448C806.018 495.526 808.059 496.197 809.799 496.598C810.671 496.798 811.47 496.932 812.051 497.016Z" fill="white" stroke="#D9D9D9" stroke-width="0.1"/>
</symbol>
</svg>
