<svg width="813" height="503" viewBox="0 0 813 503" fill="none" xmlns="http://www.w3.org/2000/svg">

<symbol id="left-2" width="813" height="503" viewBox="0 0 813 503">
<path d="M191.139 253.938L191.139 253.939L199.95 485.923L199.95 485.925L199.35 498.884C199.276 500.495 197.97 501.771 196.358 501.794C192.255 501.853 184.657 501.923 179.198 501.745C175.331 501.618 172.09 500.936 169.002 500.285C168.08 500.091 167.172 499.9 166.264 499.727C162.319 498.976 158.399 498.577 153.485 499.827C152.046 500.193 150.952 500.684 149.879 501.166L149.693 501.25C148.559 501.758 147.425 502.248 145.9 502.567C142.559 503.264 139.924 502.901 137.272 502.305C136.671 502.17 136.069 502.023 135.458 501.874C133.371 501.364 131.173 500.827 128.537 500.651C123.239 500.296 119.097 500.362 114.955 500.483C114.379 500.5 113.803 500.518 113.224 500.536C109.638 500.648 105.933 500.764 101.368 500.651C101.368 500.651 101.368 500.651 101.368 500.651L100.05 500.593V4.04558L101.126 3.94584C102.06 3.88606 102.614 3.90474 102.98 3.96167C103.339 4.01747 103.518 4.11 103.703 4.20525L103.711 4.20916C103.902 4.30792 104.101 4.40849 104.497 4.46903C104.89 4.5292 105.478 4.54981 106.449 4.49304C108.391 4.3795 108.931 4.24234 109.395 4.12442L109.397 4.12407C109.852 4.0084 110.233 3.91168 111.861 3.87758C112.676 3.86051 113.199 3.89044 113.58 3.94442C113.957 3.9979 114.197 4.07511 114.447 4.15552L114.452 4.1573C114.962 4.32145 115.505 4.49312 117.275 4.49312C119.045 4.49312 119.565 4.33876 120.053 4.17418C120.07 4.16842 120.087 4.16265 120.104 4.15688C120.327 4.08134 120.549 4.006 120.895 3.94413C121.267 3.87743 121.785 3.82626 122.599 3.80919C123.414 3.79212 123.897 3.82639 124.213 3.88633C124.526 3.94578 124.676 4.03047 124.827 4.11869L124.839 4.12558C124.99 4.21412 125.147 4.30612 125.461 4.37546C125.78 4.44608 126.261 4.49312 127.065 4.49312C128.606 4.49312 129.311 4.29952 130.009 4.10784C130.041 4.0991 130.073 4.09036 130.104 4.08165C130.829 3.88347 131.59 3.69621 133.335 3.74079C134.21 3.76313 134.723 3.82122 135.056 3.89492C135.38 3.96664 135.534 4.05312 135.686 4.13885L135.695 4.14407C135.854 4.23401 136.016 4.32235 136.356 4.38727C136.695 4.4517 137.21 4.49312 138.079 4.49312C138.948 4.49312 139.526 4.44041 139.963 4.36112C140.38 4.28539 140.667 4.18558 140.952 4.08634C140.965 4.08159 140.979 4.07684 140.993 4.0721C141.585 3.86622 142.21 3.66191 144.075 3.67242C145.942 3.68294 146.314 3.81113 146.624 3.92119L146.632 3.92402C146.789 3.97998 146.938 4.03269 147.247 4.06474C147.558 4.0971 148.033 4.10848 148.849 4.08274C150.4 4.03385 151.036 3.93392 151.65 3.83744C151.683 3.83227 151.716 3.82711 151.749 3.82197C152.393 3.72143 153.066 3.62765 154.814 3.60402C156.361 3.5831 157.181 3.61565 157.795 3.64005C157.875 3.64322 157.951 3.64626 158.025 3.64903C158.671 3.6731 159.141 3.67634 160.188 3.56957C160.973 3.48949 161.328 3.31925 161.693 3.1446C161.797 3.09474 161.902 3.04453 162.017 2.99596C162.536 2.77835 163.295 2.5828 165.246 2.5828C166.221 2.5828 166.846 2.65374 167.289 2.75804C167.73 2.86205 167.992 2.99959 168.239 3.13648C168.253 3.14412 168.267 3.15176 168.281 3.1594C168.515 3.28947 168.748 3.41843 169.115 3.5117C169.502 3.6102 170.038 3.66849 170.885 3.65134C171.733 3.63416 172.31 3.52488 172.751 3.36916C173.187 3.21513 173.486 3.01641 173.779 2.82234L173.789 2.81584C174.085 2.61986 174.375 2.42915 174.798 2.28644C175.221 2.14366 175.78 2.04812 176.611 2.04805C177.445 2.04798 177.881 2.14843 178.13 2.2961C178.363 2.43437 178.437 2.6164 178.522 2.82396C178.526 2.83441 178.53 2.84493 178.534 2.85551C178.625 3.07778 178.735 3.31808 179.07 3.51817C179.401 3.7159 179.948 3.87208 180.906 3.94584C183.258 4.12703 185.343 3.94321 186.6 3.77459C187.222 3.69116 187.802 4.16474 187.81 4.78851L191.139 253.938Z"  />
</symbol>
<symbol id="left-1" width="813" height="503" viewBox="0 0 813 503">
<path d="M99.95 4.07104V500.597C96.5749 500.423 93.651 499.951 90.8529 499.501C89.6316 499.304 88.4342 499.111 87.2338 498.948C83.2704 498.411 79.2819 498.205 74.3104 499.284C73.3357 499.496 72.5817 499.728 71.8349 499.957L71.7738 499.976C71.007 500.212 70.2416 500.445 69.2435 500.652C65.2179 501.486 62.0187 501.061 58.8012 500.536C58.5627 500.498 58.3241 500.458 58.0851 500.419C55.0991 499.925 52.0428 499.42 48.255 499.83C47.2235 499.942 46.4118 500.087 45.6132 500.231L45.4777 500.255C44.6348 500.406 43.793 500.552 42.7059 500.651C39.8436 500.913 37.6057 500.631 35.3621 500.322L35.0626 500.281C32.917 499.984 30.7401 499.682 27.9883 499.83C26.5203 499.909 25.3808 500.064 24.2431 500.224L24.0742 500.248C22.9923 500.4 21.8975 500.554 20.5072 500.651C16.5108 500.928 11.3859 500.722 7.25866 500.446C5.19536 500.309 3.38197 500.153 2.08442 500.033C1.46837 499.975 0.968619 499.926 0.613621 499.89C0.652556 499.886 0.692992 499.883 0.734823 499.878C1.18054 499.835 1.78538 499.753 2.42122 499.594C3.05677 499.436 3.72527 499.203 4.29712 498.856C4.86907 498.51 5.34709 498.049 5.59626 497.437C6.82552 494.415 6.95424 491.196 6.83316 487.709C6.79955 486.741 6.74673 485.752 6.69271 484.742C6.55197 482.109 6.40315 479.324 6.56508 476.356C6.95303 469.244 7.34772 463.917 7.76041 458.348C8.07383 454.118 8.39764 449.748 8.73677 444.349C10.306 419.368 11.1712 405.355 12.1151 380.333C12.5803 368 12.9423 352.201 13.1879 339.485C13.3107 333.128 13.4045 327.541 13.4675 323.543C13.4991 321.544 13.5229 319.943 13.5389 318.841C13.5468 318.29 13.5529 317.864 13.5569 317.576L13.5614 317.249L13.5625 317.165L13.5628 317.144L13.5629 317.139L13.5629 317.138C13.5629 317.137 13.5629 317.137 13.5129 317.137C13.5629 317.137 13.5629 317.137 13.5629 317.137L13.5629 317.135L13.563 317.13L13.5632 317.109L13.5642 317.026L13.5681 316.699L13.583 315.434L13.6382 310.734C13.685 306.737 13.7503 301.151 13.824 294.795C13.9713 282.081 14.1523 266.282 14.2868 253.943C15.3029 160.717 16.3628 17.4747 16.4524 5.27775C16.4561 4.77891 16.8296 4.45304 17.3386 4.41279C19.2774 4.25947 23.8383 3.9792 26.9887 4.42451C27.5096 4.49814 27.8527 4.63094 28.1312 4.79291C28.3257 4.90606 28.4878 5.03253 28.659 5.16619C28.7356 5.22593 28.814 5.28711 28.898 5.34919C29.4407 5.75044 30.1742 6.15314 31.9959 6.32279C32.907 6.40763 33.4871 6.33161 33.9018 6.16428C34.3174 5.99656 34.5614 5.73903 34.8017 5.47587C34.8108 5.46585 34.82 5.45582 34.8291 5.44579C35.0602 5.19229 35.2939 4.93596 35.6829 4.73463C36.0873 4.52529 36.6637 4.37361 37.5837 4.3566C38.5063 4.33955 39.0851 4.40819 39.4842 4.51901C39.8815 4.62931 40.1029 4.78191 40.3114 4.93877C40.3298 4.95266 40.3482 4.96662 40.3667 4.9806C40.5577 5.12559 40.7527 5.27348 41.0711 5.38673C41.4193 5.51058 41.9124 5.59232 42.7105 5.59232C43.5088 5.59232 44.008 5.50624 44.369 5.37597C44.6876 5.261 44.8964 5.11206 45.1032 4.96457C45.1309 4.94483 45.1585 4.92512 45.1864 4.90552C45.4215 4.74011 45.6774 4.57843 46.1174 4.46145C46.5589 4.34405 47.188 4.27115 48.169 4.28821C49.151 4.30528 49.7341 4.38296 50.1134 4.49129C50.4898 4.59879 50.6665 4.73665 50.8363 4.88042C50.8476 4.88995 50.8588 4.89951 50.8701 4.9091C51.0322 5.04715 51.2014 5.19124 51.5331 5.31228C51.8855 5.44088 52.4195 5.54304 53.325 5.59225C54.2306 5.64146 54.7965 5.59757 55.1932 5.49768C55.5921 5.39723 55.8175 5.24067 56.0414 5.07227C56.0579 5.05982 56.0745 5.04731 56.0911 5.03475C56.2971 4.87892 56.512 4.7164 56.8754 4.57386C57.2691 4.41948 57.8393 4.28787 58.7607 4.21969C60.6055 4.08319 61.2043 4.20829 61.7517 4.36547C61.7983 4.37884 61.8446 4.39249 61.8914 4.40628C62.122 4.47423 62.3641 4.54557 62.7006 4.60282C63.1054 4.6717 63.6462 4.72017 64.4717 4.72017C66.1239 4.72017 66.8444 4.52729 67.4039 4.35884C67.4332 4.35002 67.462 4.34129 67.4903 4.33268C67.7324 4.25928 67.9466 4.19431 68.2055 4.15555C68.4942 4.11233 68.8398 4.1016 69.3392 4.15119C70.2186 4.2385 70.7287 4.50833 71.2686 4.79385C71.363 4.8438 71.4584 4.89423 71.5568 4.94424C72.2207 5.28171 73.0106 5.59232 74.5623 5.59232C75.3376 5.59232 75.8497 5.50127 76.2354 5.36187C76.6043 5.22855 76.8551 5.05179 77.1057 4.8752L77.1403 4.85083C77.4022 4.66651 77.6715 4.48313 78.0883 4.34124C78.5058 4.19913 79.0738 4.09781 79.9322 4.08303C80.7916 4.06823 81.3092 4.13401 81.6615 4.23895C82.0008 4.34002 82.189 4.47792 82.3864 4.62259L82.4058 4.63683C82.6128 4.78832 82.8334 4.94429 83.2408 5.06113C83.6462 5.17742 84.2345 5.25445 85.1779 5.25445C86.1222 5.25445 86.7167 5.15401 87.1311 5.0068C87.5391 4.86181 87.7696 4.6723 87.9829 4.49686L87.9949 4.48704C88.21 4.31021 88.4097 4.14979 88.7675 4.0535C89.1275 3.95661 89.6512 3.92388 90.5132 4.01437C91.3755 4.1049 91.8372 4.24797 92.1086 4.40742C92.3504 4.54946 92.4437 4.70527 92.5384 4.86353C92.5488 4.88088 92.5592 4.89827 92.5698 4.91567C92.6239 5.00422 92.684 5.09361 92.7759 5.17608C92.8681 5.25873 92.99 5.33248 93.1661 5.39406C93.5163 5.51653 94.0853 5.59232 95.073 5.59232C97.0441 5.59232 97.5873 5.458 97.9881 5.18761C98.0766 5.12797 98.1577 5.06195 98.2444 4.99145L98.2753 4.96627C98.3743 4.88594 98.4837 4.79884 98.6246 4.70439C98.897 4.52177 99.2894 4.31012 99.95 4.07104Z"  />
</symbol>
<symbol id="right-2" width="813" height="503" viewBox="0 0 813 503">
<path d="M705.186 303.612L705.203 303.564L705.156 303.548C686.611 297.138 670.962 282.716 662.269 269.36C660.479 266.61 658.592 263.781 656.662 260.888C647.505 247.162 637.386 231.992 632.119 216.99C630.304 211.82 628.704 207.379 627.224 203.274C623.366 192.57 620.33 184.149 616.463 171.026C613.662 161.523 610.618 149.231 608.274 139.313C607.102 134.355 606.105 129.991 605.401 126.866C605.049 125.303 604.77 124.051 604.579 123.189C604.484 122.758 604.411 122.425 604.361 122.199L604.305 121.943L604.291 121.878L604.287 121.861L604.286 121.857L604.286 121.856C604.286 121.856 604.286 121.856 604.24 121.866L604.286 121.856L604.285 121.854L596.675 92.9942L596.675 92.9917L596.673 92.982L596.666 92.9434L596.64 92.7914C596.617 92.6577 596.583 92.46 596.539 92.2044C596.451 91.6931 596.323 90.9498 596.166 90.0218C595.851 88.1659 595.417 85.5714 594.937 82.6168C593.977 76.7076 592.835 69.359 592.109 63.6C590.59 51.5544 589.575 36.0556 588.94 23.5673C588.623 17.3233 588.4 11.8323 588.257 7.90221C588.185 5.93719 588.134 4.36242 588.1 3.27893C588.083 2.73719 588.07 2.31826 588.062 2.03477L588.053 1.71271L588.052 1.66188L588.165 1.67664C588.276 1.69094 588.437 1.71136 588.639 1.73591C589.042 1.78501 589.605 1.85062 590.246 1.91664C591.529 2.04863 593.125 2.18248 594.379 2.18913C595.642 2.19583 596.639 2.05075 597.618 1.90841C597.676 1.89984 597.735 1.89128 597.794 1.88277C598.83 1.73282 599.862 1.59625 601.19 1.65458C602.421 1.70859 603.37 1.95214 604.313 2.19381C604.355 2.20481 604.398 2.21579 604.441 2.22676C605.426 2.47886 606.416 2.71913 607.716 2.72362C609.009 2.72809 610.002 2.45103 610.981 2.17806C611.009 2.17024 611.037 2.16241 611.065 2.1546C612.071 1.8743 613.071 1.60674 614.383 1.6546C615.682 1.70196 616.652 2.0827 617.62 2.46289C617.647 2.47351 617.674 2.48413 617.701 2.49474C618.696 2.88522 619.698 3.26489 621.054 3.25812C622.37 3.25155 623.344 2.84797 624.306 2.44927L624.335 2.43711C625.307 2.03441 626.27 1.64072 627.577 1.65463C628.83 1.66796 629.749 2.04927 630.676 2.43882L630.703 2.4502C631.621 2.83604 632.549 3.22651 633.811 3.25811C635.221 3.29343 636.269 2.93316 637.311 2.54491C637.375 2.52091 637.439 2.49681 637.504 2.47268C638.481 2.10653 639.471 1.73582 640.774 1.65453C642.016 1.57704 642.981 1.7124 643.95 1.86658C644.023 1.87822 644.096 1.88996 644.17 1.90172C645.068 2.04592 645.989 2.19372 647.15 2.18913C648.27 2.1847 649.155 2.04513 650.021 1.90859C650.082 1.89904 650.142 1.8895 650.203 1.88003C651.127 1.73512 652.048 1.60453 653.236 1.65459C654.398 1.70353 655.288 1.9486 656.174 2.19256L656.269 2.21855C657.187 2.47087 658.11 2.71423 659.327 2.72362C660.601 2.73345 661.568 2.46433 662.53 2.19459L662.548 2.18953C663.504 1.92152 664.456 1.65463 665.706 1.65463C666.928 1.65463 667.865 1.92627 668.8 2.19731L668.882 2.22112C669.845 2.49983 670.813 2.76918 672.087 2.72359C673.137 2.68601 673.925 2.4357 674.708 2.18726L674.71 2.18678C675.493 1.93823 676.27 1.69167 677.306 1.6546C678.562 1.60963 679.517 1.87477 680.479 2.15319L680.564 2.17774C681.498 2.44852 682.446 2.72362 683.683 2.72362C684.956 2.72362 685.923 2.45485 686.884 2.18773L686.886 2.1873C687.847 1.92007 688.803 1.65463 690.062 1.65463C691.32 1.65463 692.276 1.92007 693.238 2.1873L693.239 2.18773C694.188 2.45134 695.143 2.71656 696.391 2.72349L696.391 135.5L696.391 135.504L698.95 166.004L698.95 166.004L698.951 166.011L709.451 211.511L709.451 211.511L709.454 211.519L741.454 291.019L741.457 291.028L741.464 291.034L753.451 303.616L756.95 405.501L756.95 405.502L757.95 447L757.95 447.001L758.432 500.778C755.814 500.959 753.117 501.052 749.795 500.775C744.528 500.336 741.162 500.24 735.874 500.24C734.55 500.24 733.279 500.325 732.07 500.423C731.763 500.448 731.46 500.473 731.161 500.499C730.284 500.573 729.444 500.644 728.642 500.683C726.492 500.786 724.638 500.651 723.143 499.713C722.555 499.345 721.4 498.281 720.611 496.978C719.82 495.673 719.405 494.146 720.258 492.834L720.29 492.786L720.237 492.762C719.646 492.489 719.055 492.489 718.614 492.557C718.393 492.591 718.21 492.642 718.081 492.684C718.054 492.693 718.029 492.702 718.007 492.71C717.984 492.718 717.964 492.725 717.947 492.732V484.255V484.218L717.912 484.207L714.468 483.149V478.91V478.866L714.424 478.861L701.71 477.263V471.427V471.385L701.668 471.378L701.66 471.427L701.668 471.378L701.667 471.378L701.662 471.377L701.645 471.374L701.576 471.362C701.515 471.352 701.426 471.336 701.311 471.315C701.08 471.274 700.746 471.212 700.33 471.13C699.499 470.966 698.345 470.722 697.051 470.404C694.472 469.77 691.343 468.841 689.116 467.656C689.12 462.048 690.076 453.95 691.185 444.83L691.338 443.57C692.41 434.767 693.588 425.095 694.171 415.843C694.573 409.463 695.483 402.864 696.423 396.281C696.496 395.776 696.568 395.27 696.641 394.764C697.511 388.692 698.377 382.65 698.864 376.825C699.451 369.806 699.1 362.811 698.764 356.11L698.737 355.566C698.393 348.699 698.092 342.151 698.864 336.206C700.718 321.933 702.821 310.359 705.186 303.612Z"  />
</symbol>
<symbol id="right-1" width="813" height="503" viewBox="0 0 813 503">
<path d="M795.495 1.66336C795.518 1.66169 795.537 1.66023 795.553 1.65901L795.553 1.71496L795.55 2.04309C795.547 2.33336 795.544 2.76562 795.539 3.33356C795.53 4.46944 795.516 6.14804 795.5 8.31898C795.469 12.6608 795.427 18.972 795.387 26.8493C795.306 42.6038 795.23 64.6227 795.253 89.6801C795.297 139.795 795.732 202.064 797.293 250.682C798.068 274.799 799.262 293.609 800.462 312.418L800.495 312.933C801.685 331.571 802.878 350.256 803.672 374.151C804.113 387.402 804.637 399.327 805.133 410.589C806.353 438.343 807.397 462.073 806.572 491.723C806.41 491.975 806.168 492.213 805.906 492.441C805.794 492.538 805.678 492.635 805.563 492.73C805.407 492.859 805.254 492.986 805.119 493.11C804.885 493.324 804.691 493.54 804.619 493.763C804.583 493.876 804.577 493.991 804.614 494.107C804.65 494.223 804.727 494.336 804.848 494.448C806.019 495.526 808.06 496.197 809.8 496.598C810.672 496.798 811.47 496.932 812.051 497.016C812.183 497.035 812.303 497.051 812.411 497.065L783.423 498.637L783.396 498.638L783.383 498.662L783.383 498.662L783.382 498.663L783.379 498.667L783.369 498.685C783.359 498.7 783.346 498.723 783.327 498.752C783.291 498.81 783.237 498.893 783.169 498.993C783.031 499.192 782.834 499.457 782.595 499.722C782.356 499.988 782.076 500.252 781.772 500.449C781.468 500.646 781.144 500.775 780.816 500.775C778.064 500.775 776.343 500.664 774.758 500.541C774.556 500.525 774.355 500.51 774.155 500.494C772.789 500.386 771.439 500.279 769.509 500.24C766.122 500.172 763.382 500.391 760.727 500.603C759.993 500.662 759.265 500.72 758.532 500.771L757.551 425.999L757.551 425.998L753.551 303.594L753.551 303.574L753.537 303.56L741.571 291.472L709.247 211.485L698.865 166.492L696.491 134.5V134.498V2.72383C697.74 2.71691 698.694 2.45168 699.643 2.18807L699.644 2.18765C700.606 1.92041 701.562 1.65498 702.82 1.65498C704.079 1.65498 705.035 1.91816 705.996 2.18424L706.007 2.18726C706.965 2.45238 707.93 2.71939 709.199 2.72397C710.495 2.72865 711.483 2.45693 712.463 2.18716L712.474 2.18402C713.458 1.91325 714.436 1.64549 715.723 1.65498C716.953 1.66406 717.887 1.92285 718.827 2.18443L718.837 2.18735C719.773 2.44801 720.716 2.71053 721.956 2.72397C723.285 2.73837 724.298 2.46937 725.304 2.19849L725.333 2.19087C726.329 1.92255 727.324 1.65498 728.626 1.65498C729.928 1.65498 730.922 1.92255 731.919 2.19087L731.947 2.19849C732.954 2.46937 733.966 2.73837 735.295 2.72397C736.536 2.71053 737.478 2.44801 738.414 2.18735L738.425 2.18443C739.364 1.92285 740.298 1.66406 741.529 1.65498C742.815 1.64549 743.793 1.91325 744.777 2.18402L744.788 2.18716C745.769 2.45693 746.756 2.72865 748.052 2.72397C749.325 2.71938 750.293 2.48178 751.256 2.23102C751.302 2.21882 751.349 2.20658 751.396 2.19434C752.312 1.95512 753.237 1.71374 754.434 1.65492C755.79 1.58827 756.844 1.73975 757.902 1.89932L757.994 1.91322C759.022 2.06847 760.063 2.22562 761.391 2.18945C762.869 2.14923 764.004 1.90012 765.132 1.65271L765.17 1.64436C766.31 1.39427 767.446 1.1483 768.929 1.12047C770.109 1.09834 771.039 1.25131 771.959 1.40271C772.01 1.41111 772.061 1.4195 772.112 1.42786C773.083 1.58692 774.057 1.73309 775.31 1.65488C776.633 1.57238 777.637 1.1981 778.617 0.83307C778.679 0.810029 778.74 0.787024 778.802 0.764131C779.841 0.378567 780.875 0.0242108 782.265 0.051477C783.547 0.0766204 784.496 0.394065 785.447 0.747593C785.534 0.780002 785.621 0.812723 785.709 0.845552C786.576 1.17083 787.471 1.50666 788.639 1.65458C789.989 1.82558 791.732 1.82545 793.136 1.78282C793.838 1.76149 794.456 1.7295 794.898 1.70283C795.119 1.6895 795.297 1.6775 795.419 1.66884C795.447 1.66682 795.472 1.66499 795.495 1.66336Z"  />
</symbol>
</svg>
