<svg width="813" height="503" viewBox="0 0 813 503" fill="none" xmlns="http://www.w3.org/2000/svg">
<symbol id="left-2" width="813" height="503" viewBox="0 0 813 503">
<path d="M191.203 255.938L191.203 255.939L192.712 295.95H13.9334C14.08 283.387 14.2572 268.01 14.3897 255.943C14.7716 221.142 15.1598 179.372 15.5009 140.05H189.666L191.203 255.938Z" fill="white" stroke="#D9D9D9" stroke-width="0.1"/>
</symbol>
<symbol id="left-3" width="813" height="503" viewBox="0 0 813 503">
<path d="M13.6087 317.136C13.6587 317.137 13.6587 317.137 13.6587 317.138L13.6587 317.139L13.6586 317.144L13.6584 317.165L13.6572 317.248L13.6527 317.576C13.6486 317.864 13.6426 318.29 13.6345 318.841C13.6184 319.943 13.5944 321.544 13.5627 323.543C13.4992 327.54 13.4048 333.128 13.2811 339.485C13.0337 352.201 12.6692 368 12.2006 380.333C11.25 405.355 10.3787 419.368 8.79838 444.349C8.45684 449.748 8.13074 454.118 7.81509 458.348C7.39947 463.917 7.00199 469.244 6.61129 476.356C6.44821 479.324 6.59809 482.109 6.73982 484.742C6.79422 485.752 6.84742 486.741 6.88127 487.708C7.00321 491.196 6.87358 494.415 5.63557 497.437C5.38462 498.049 4.90321 498.51 4.32728 498.856C3.75143 499.203 3.07825 499.436 2.43823 499.594C1.79792 499.752 1.18882 499.835 0.739967 499.878C0.697794 499.882 0.657031 499.886 0.617782 499.89C0.975307 499.926 1.47865 499.975 2.09914 500.033C3.40589 500.153 5.23215 500.309 7.3101 500.446C11.4666 500.722 16.6279 500.928 20.6527 500.651C22.0526 500.554 23.1549 500.4 24.2443 500.248L24.4151 500.224C25.5609 500.064 26.7084 499.909 28.1869 499.83C30.9581 499.682 33.1503 499.984 35.3112 500.281C35.4118 500.294 35.5123 500.308 35.6128 500.322C37.8724 500.631 40.1262 500.913 43.0088 500.651C44.1037 500.551 44.9514 500.405 45.8003 500.255L45.9365 500.231C46.7409 500.087 47.5584 499.942 48.5973 499.83C52.4119 499.42 55.4897 499.925 58.4969 500.419C58.7376 500.458 58.9779 500.498 59.2181 500.536C62.4584 501.061 65.6805 501.486 69.7348 500.652C70.7399 500.445 71.5108 500.212 72.283 499.976L72.344 499.957C73.0962 499.728 73.8558 499.496 74.8376 499.284C80.0707 498.156 84.2223 498.432 88.3939 499.023C89.4216 499.169 90.4502 499.333 91.4963 499.501C94.6969 500.012 98.0613 500.551 102.067 500.651C106.6 500.764 110.279 500.648 113.84 500.536C114.414 500.518 114.986 500.5 115.557 500.484C119.671 500.362 123.783 500.296 129.043 500.651C131.661 500.827 133.844 501.364 135.916 501.874C136.523 502.023 137.12 502.17 137.717 502.305C140.35 502.901 142.966 503.265 146.284 502.567C147.798 502.248 148.923 501.758 150.049 501.25L150.234 501.166C151.3 500.684 152.386 500.193 153.815 499.827C158.694 498.577 162.586 498.976 166.504 499.727C167.404 499.9 168.306 500.091 169.222 500.286C172.288 500.936 175.506 501.619 179.346 501.745C184.756 501.923 192.283 501.853 196.362 501.794C197.975 501.771 199.281 500.494 199.355 498.883L199.95 485.925L199.95 485.921L192.771 295.55H13.9129C13.8409 301.711 13.7775 307.101 13.7319 310.955L13.6782 315.495L13.6638 316.714L13.66 317.03L13.6591 317.11L13.6588 317.13L13.6588 317.135L13.6587 317.137L13.6587 317.137C13.6587 317.137 13.6587 317.137 13.6087 317.136ZM13.6087 317.136L13.6587 317.137L13.6587 317.137L13.6087 317.136Z" fill="white" stroke="#D9D9D9" stroke-width="0.1"/>
</symbol>
<symbol id="left-1" width="813" height="503" viewBox="0 0 813 503">
<path d="M17.4571 4.41298C19.4063 4.25976 24.0056 3.97848 27.1816 4.42424C27.7063 4.49789 28.052 4.63071 28.3325 4.79272C28.5284 4.90588 28.6916 5.03237 28.8641 5.16604C28.9412 5.22578 29.0202 5.28696 29.1047 5.34902C29.6512 5.75022 30.3898 6.15288 32.2243 6.32252C33.1418 6.40736 33.726 6.33133 34.1434 6.16405C34.5619 5.99638 34.8076 5.7389 35.0496 5.47572C35.0588 5.4657 35.068 5.45568 35.0772 5.44564C35.31 5.19215 35.5453 4.93579 35.9371 4.73442C36.3445 4.52504 36.9251 4.37334 37.8517 4.35633C38.7809 4.33927 39.3639 4.40792 39.7659 4.51877C40.1661 4.62909 40.3891 4.78173 40.5991 4.9386C40.6177 4.95249 40.6362 4.96645 40.6547 4.98043C40.8472 5.12542 41.0434 5.27327 41.364 5.3865C41.7146 5.51032 42.2112 5.59205 43.0148 5.59205C43.8188 5.59205 44.3215 5.50597 44.6849 5.37573C45.0057 5.26079 45.2159 5.11188 45.4242 4.9644C45.4521 4.94466 45.4799 4.92494 45.508 4.90534C45.7448 4.73992 46.0025 4.57821 46.4457 4.4612C46.8905 4.34377 47.5241 4.27088 48.5121 4.28794C49.5011 4.30501 50.0884 4.38269 50.4705 4.49105C50.8497 4.59858 51.0277 4.73648 51.1987 4.88026C51.21 4.88979 51.2213 4.89935 51.2327 4.90895C51.3959 5.047 51.5663 5.19104 51.9002 5.31205C52.2551 5.44062 52.7928 5.54277 53.7047 5.59198C54.6167 5.64119 55.1865 5.59729 55.5859 5.49743C55.9876 5.397 56.2145 5.24049 56.4399 5.0721C56.4566 5.05964 56.4733 5.04713 56.49 5.03457C56.6975 4.87874 56.9139 4.71619 57.28 4.57363C57.6766 4.41922 58.2509 4.2876 59.1789 4.21942C61.0368 4.08292 61.64 4.20802 62.1913 4.36522C62.2382 4.37859 62.2849 4.39224 62.332 4.40604C62.5642 4.47398 62.808 4.54531 63.1468 4.60255C63.5545 4.67143 64.0991 4.7199 64.9304 4.7199C66.5943 4.7199 67.3198 4.52703 67.8832 4.35859C67.9127 4.34978 67.9417 4.34105 67.9703 4.33244C68.214 4.25904 68.4298 4.19406 68.6906 4.15529C68.9814 4.11206 69.3295 4.10133 69.8325 4.15092C70.7182 4.23825 71.2321 4.50813 71.7758 4.79365C71.8709 4.8436 71.9669 4.89402 72.066 4.94403C72.7346 5.28147 73.53 5.59205 75.0926 5.59205C75.8733 5.59205 76.3889 5.50101 76.7773 5.36163C77.1488 5.22835 77.4013 5.05162 77.6536 4.87503L77.6885 4.85065C77.9523 4.66633 78.2235 4.48292 78.6434 4.341C79.0639 4.19887 79.636 4.09754 80.5005 4.08276C81.3661 4.06796 81.8875 4.13374 82.2423 4.23871C82.5841 4.3398 82.7737 4.47773 82.9725 4.62239L82.9921 4.63666C83.2005 4.78814 83.4226 4.94407 83.8328 5.06089C84.241 5.17715 84.8334 5.25418 85.7835 5.25418C86.7344 5.25418 87.333 5.15374 87.7502 5.00656C88.1611 4.8616 88.3932 4.67213 88.6081 4.49669L88.6201 4.48688C88.8367 4.31005 89.0378 4.14958 89.3983 4.05325C89.761 3.95633 90.2885 3.92361 91.1567 4.01411C92.0252 4.10464 92.4902 4.24772 92.7637 4.40723C93.0072 4.54931 93.1012 4.70516 93.1966 4.8634C93.207 4.88075 93.2175 4.89814 93.2282 4.91553C93.2826 5.00409 93.3431 5.09347 93.4357 5.17593C93.5285 5.25855 93.6513 5.33226 93.8285 5.39382C94.1811 5.51626 94.754 5.59205 95.7487 5.59205C96.745 5.59205 97.3943 5.50396 97.8659 5.36655C98.3388 5.22878 98.6305 5.04208 98.9108 4.85014C98.9337 4.83442 98.9566 4.81868 98.9795 4.80294C99.2349 4.62704 99.4911 4.45069 99.8829 4.30099C100.31 4.13777 100.901 4.00558 101.827 3.94588C102.756 3.88605 103.306 3.90473 103.669 3.96166C104.026 4.01744 104.204 4.10994 104.387 4.20519L104.394 4.2091C104.584 4.30787 104.782 4.40847 105.175 4.46902C105.566 4.5292 106.149 4.54981 107.113 4.49304C109.042 4.3795 109.578 4.24233 110.039 4.1244L110.041 4.12404C110.493 4.00839 110.871 3.91168 112.487 3.87758C113.296 3.86051 113.815 3.89044 114.194 3.94441C114.569 3.99788 114.807 4.07508 115.054 4.15549L115.06 4.15727C115.566 4.32144 116.105 4.49312 117.863 4.49312C119.62 4.49312 120.137 4.33875 120.621 4.17415C120.638 4.16839 120.655 4.16262 120.672 4.15685C120.893 4.0813 121.114 4.00598 121.457 3.94412C121.827 3.87743 122.341 3.82626 123.15 3.80919C123.959 3.79212 124.438 3.82639 124.751 3.88632C125.062 3.94575 125.211 4.0304 125.361 4.11861L125.373 4.12552C125.523 4.21405 125.679 4.30609 125.991 4.37545C126.308 4.44608 126.785 4.49312 127.583 4.49312C129.114 4.49312 129.814 4.2995 130.507 4.10782C130.538 4.09908 130.57 4.09034 130.602 4.08162C131.321 3.88346 132.076 3.69621 133.809 3.74079C134.678 3.76313 135.187 3.82122 135.518 3.8949C135.84 3.9666 135.992 4.05306 136.143 4.13878L136.152 4.14399C136.31 4.23394 136.47 4.32232 136.809 4.38726C137.145 4.4517 137.657 4.49312 138.519 4.49312C139.383 4.49312 139.957 4.4404 140.39 4.36111C140.804 4.28537 141.089 4.18555 141.372 4.08631L141.413 4.07206C142 3.86621 142.622 3.66191 144.473 3.67242C146.327 3.68294 146.695 3.81112 147.003 3.92115L147.011 3.92398C147.168 3.97995 147.315 4.03268 147.622 4.06474C147.931 4.0971 148.403 4.10848 149.213 4.08274C150.753 4.03384 151.385 3.93392 151.995 3.83743C152.027 3.83226 152.06 3.8271 152.093 3.82196C152.732 3.72143 153.401 3.62765 155.136 3.60402C156.672 3.5831 157.485 3.61565 158.095 3.64005C158.175 3.64322 158.251 3.64626 158.324 3.64903C158.966 3.6731 159.432 3.67634 160.471 3.56957C161.251 3.48947 161.604 3.31918 161.966 3.14452C162.069 3.09467 162.173 3.04447 162.288 2.99591C162.803 2.77834 163.556 2.5828 165.494 2.5828C166.462 2.5828 167.083 2.65374 167.522 2.75803C167.96 2.86201 168.22 2.99952 168.466 3.1364L168.507 3.15932C168.74 3.28939 168.971 3.41839 169.335 3.51168C169.72 3.6102 170.252 3.66849 171.093 3.65134C171.935 3.63416 172.508 3.52487 172.946 3.36913C173.378 3.21506 173.676 3.0163 173.967 2.82223L173.977 2.81575C174.27 2.61976 174.558 2.42909 174.978 2.2864C175.398 2.14365 175.953 2.04812 176.779 2.04805C177.606 2.04798 178.039 2.14843 178.286 2.29602C178.517 2.43426 178.591 2.6163 178.675 2.82394L178.688 2.85539C178.778 3.07761 178.887 3.31795 179.22 3.51809C179.549 3.71588 180.092 3.87207 181.043 3.94583C183.372 4.12652 185.436 3.94424 186.686 3.77601C187.309 3.69217 187.889 4.16613 187.898 4.79053L189.691 139.95H15.484C16.0631 73.3689 16.5105 13.3484 16.5697 5.34688C16.5734 4.84334 16.9527 4.45263 17.4571 4.41298Z" fill="white" stroke="#D9D9D9" stroke-width="0.1"/>
</symbol>
<symbol id="right-2" width="813" height="503" viewBox="0 0 813 503">
<path d="M705.187 303.612L705.203 303.564L705.156 303.548C699.548 301.61 694.205 298.938 689.238 295.785H799.421C799.771 301.594 800.133 307.261 800.495 312.933C801.685 331.571 802.877 350.255 803.672 374.15C804.112 387.402 804.637 399.327 805.132 410.589C806.353 438.343 807.396 462.073 806.572 491.723C806.41 491.975 806.168 492.212 805.905 492.441C805.794 492.538 805.677 492.634 805.562 492.73C805.406 492.859 805.253 492.986 805.119 493.109C804.884 493.324 804.691 493.54 804.619 493.762C804.582 493.875 804.577 493.99 804.613 494.107C804.65 494.222 804.727 494.335 804.848 494.447C806.018 495.526 808.06 496.196 809.8 496.597C810.671 496.798 811.47 496.932 812.051 497.015C812.182 497.034 812.303 497.051 812.41 497.065L783.423 498.636L783.396 498.638L783.382 498.661L783.382 498.661L783.381 498.663L783.379 498.667L783.368 498.685C783.359 498.7 783.345 498.723 783.327 498.752C783.312 498.776 783.294 498.804 783.273 498.837C783.243 498.882 783.208 498.934 783.168 498.992C783.031 499.191 782.834 499.457 782.595 499.722C782.356 499.987 782.075 500.251 781.772 500.448C781.468 500.646 781.144 500.774 780.816 500.774C778.063 500.774 776.343 500.663 774.758 500.541C774.555 500.525 774.355 500.509 774.155 500.493C772.789 500.385 771.439 500.279 769.509 500.24C766.121 500.172 763.383 500.39 760.727 500.603C760.362 500.632 759.998 500.661 759.635 500.689C756.628 500.922 753.628 501.094 749.796 500.775C744.529 500.335 741.162 500.24 735.874 500.24C734.55 500.24 733.279 500.325 732.071 500.423C731.763 500.448 731.46 500.473 731.161 500.499C730.284 500.573 729.444 500.644 728.642 500.683C726.493 500.785 724.639 500.651 723.143 499.713C722.555 499.345 721.401 498.281 720.611 496.978C719.82 495.673 719.405 494.146 720.259 492.834L720.29 492.786L720.238 492.762C719.646 492.489 719.055 492.489 718.614 492.557C718.394 492.591 718.21 492.642 718.081 492.684C718.026 492.702 717.981 492.719 717.947 492.732V484.255V484.218L717.912 484.207L714.468 483.149V478.91V478.866L714.424 478.86L701.71 477.262V471.427V471.385L701.668 471.378L701.66 471.427L701.668 471.378L701.668 471.378L701.667 471.378L701.662 471.377L701.645 471.374L701.576 471.362C701.516 471.352 701.426 471.336 701.311 471.315C701.08 471.274 700.746 471.212 700.33 471.13C699.5 470.966 698.345 470.722 697.051 470.404C694.472 469.77 691.344 468.841 689.116 467.656C689.12 462.048 690.076 453.95 691.185 444.83C691.236 444.412 691.287 443.992 691.338 443.57C692.41 434.767 693.588 425.095 694.171 415.843C694.574 409.462 695.483 402.864 696.424 396.281C696.496 395.775 696.568 395.27 696.641 394.764C697.511 388.692 698.377 382.65 698.864 376.825C699.451 369.805 699.1 362.811 698.764 356.11C698.755 355.929 698.746 355.747 698.737 355.566C698.393 348.699 698.092 342.151 698.864 336.206C700.718 321.932 702.822 310.359 705.187 303.612Z" fill="white" stroke="#D9D9D9" stroke-width="0.1"/>
</symbol>
<symbol id="right-3" width="813" height="503" viewBox="0 0 813 503">
<path d="M795.553 1.65901L795.551 1.79619L795.546 2.36394C795.542 2.86539 795.536 3.61033 795.528 4.58431C795.513 6.53227 795.491 9.39638 795.467 13.061C795.418 20.3902 795.358 30.9215 795.313 43.7297C795.224 69.3342 795.195 104.038 795.437 140.45H608.543C607.301 135.221 606.238 130.577 605.485 127.238C605.107 125.565 604.808 124.219 604.602 123.292C604.5 122.829 604.42 122.469 604.367 122.226L604.307 121.95L604.291 121.88L604.287 121.862L604.286 121.858L604.286 121.856L604.286 121.856L604.285 121.854L596.675 92.9945L596.675 92.9921L596.673 92.9823L596.666 92.9437L596.64 92.7918C596.617 92.658 596.583 92.4604 596.539 92.2047C596.451 91.6934 596.323 90.9501 596.166 90.0222C595.851 88.1663 595.417 85.5717 594.937 82.6172C593.977 76.7079 592.835 69.3593 592.109 63.6003C590.59 51.5548 589.575 36.0559 588.94 23.5676C588.623 17.3237 588.4 11.8326 588.257 7.90255C588.185 5.93753 588.134 4.36277 588.1 3.27928C588.083 2.73753 588.07 2.3186 588.062 2.03512L588.053 1.71306L588.052 1.66222L588.165 1.67699C588.276 1.69128 588.437 1.71171 588.639 1.73626C589.042 1.78536 589.605 1.85096 590.246 1.91698C591.529 2.04898 593.125 2.18282 594.379 2.18947C595.642 2.19618 596.639 2.0511 597.618 1.90876C597.676 1.90019 597.735 1.89163 597.794 1.88311C598.83 1.73317 599.862 1.5966 601.19 1.65493C602.421 1.70894 603.37 1.95249 604.313 2.19416C604.355 2.20515 604.398 2.21614 604.441 2.2271C605.426 2.47921 606.416 2.71948 607.716 2.72397C609.009 2.72844 610.002 2.45138 610.981 2.17841C611.009 2.17058 611.037 2.16276 611.065 2.15495C612.071 1.87465 613.071 1.60709 614.383 1.65494C615.682 1.7023 616.652 2.08305 617.62 2.46324C617.647 2.47386 617.674 2.48447 617.701 2.49508C618.696 2.88557 619.698 3.26524 621.054 3.25847C622.37 3.25189 623.344 2.84832 624.306 2.44962L624.335 2.43745C625.307 2.03476 626.27 1.64107 627.577 1.65497C628.83 1.66831 629.749 2.04962 630.676 2.43917L630.703 2.45055C631.621 2.83638 632.549 3.22686 633.811 3.25845C635.221 3.29377 636.269 2.9335 637.311 2.54525C637.375 2.52125 637.439 2.49715 637.504 2.47303C638.481 2.10688 639.471 1.73616 640.774 1.65488C642.016 1.57739 642.981 1.71274 643.95 1.86693C644.023 1.87856 644.096 1.8903 644.17 1.90207C645.068 2.04626 645.989 2.19406 647.15 2.18947C648.27 2.18504 649.155 2.04548 650.021 1.90894C650.082 1.89938 650.142 1.88985 650.203 1.88037C651.127 1.73547 652.048 1.60487 653.236 1.65493C654.398 1.70387 655.288 1.94895 656.174 2.19291C656.206 2.20158 656.237 2.21024 656.269 2.21889C657.187 2.47122 658.11 2.71458 659.327 2.72397C660.601 2.73379 661.568 2.46467 662.53 2.19494L662.548 2.18988C663.504 1.92186 664.456 1.65498 665.706 1.65498C666.928 1.65498 667.865 1.92662 668.8 2.19766L668.882 2.22146C669.845 2.50017 670.813 2.76953 672.087 2.72394C673.137 2.68635 673.925 2.43605 674.708 2.1876L674.71 2.18713C675.493 1.93857 676.27 1.69202 677.306 1.65494C678.562 1.60997 679.517 1.87511 680.479 2.15354L680.564 2.17809C681.498 2.44887 682.446 2.72397 683.683 2.72397C684.956 2.72397 685.923 2.45519 686.884 2.18807L686.886 2.18765C687.847 1.92041 688.803 1.65498 690.062 1.65498C691.32 1.65498 692.276 1.92041 693.238 2.18765L693.239 2.18807C694.201 2.45519 695.168 2.72397 696.441 2.72397C697.714 2.72397 698.681 2.45519 699.642 2.18807L699.644 2.18765C700.605 1.92041 701.561 1.65498 702.82 1.65498C704.078 1.65498 705.034 1.91816 705.996 2.18424L706.007 2.18726C706.965 2.45238 707.93 2.71939 709.198 2.72397C710.495 2.72865 711.482 2.45693 712.462 2.18716L712.474 2.18402C713.458 1.91325 714.436 1.64549 715.722 1.65498C716.953 1.66406 717.887 1.92285 718.826 2.18443L718.836 2.18735C719.772 2.44801 720.715 2.71053 721.956 2.72397C723.285 2.73837 724.297 2.46937 725.304 2.19849L725.332 2.19086C726.329 1.92254 727.323 1.65498 728.625 1.65498C729.927 1.65498 730.921 1.92255 731.918 2.19087L731.946 2.19849C732.953 2.46937 733.965 2.73837 735.294 2.72397C736.535 2.71053 737.478 2.44801 738.414 2.18735L738.424 2.18443C739.363 1.92285 740.297 1.66406 741.528 1.65498C742.814 1.64549 743.792 1.91325 744.776 2.18402L744.788 2.18715C745.768 2.45693 746.755 2.72865 748.052 2.72397C749.324 2.71938 750.292 2.48178 751.255 2.23102C751.302 2.21882 751.349 2.20658 751.396 2.19434C752.312 1.95512 753.236 1.71373 754.433 1.65492C755.789 1.58827 756.843 1.73975 757.901 1.89932L757.993 1.91322C759.022 2.06847 760.062 2.22562 761.391 2.18945C762.868 2.14923 764.003 1.90012 765.131 1.65271L765.169 1.64436C766.309 1.39427 767.445 1.1483 768.929 1.12047C770.109 1.09834 771.038 1.25131 771.958 1.40271C772.009 1.41111 772.06 1.4195 772.111 1.42786C773.082 1.58692 774.056 1.73309 775.31 1.65488C776.632 1.57238 777.637 1.19809 778.616 0.833064C778.678 0.810024 778.74 0.787021 778.801 0.764131C779.841 0.378567 780.874 0.0242108 782.264 0.051477C783.547 0.0766204 784.495 0.394065 785.446 0.747593C785.533 0.780007 785.621 0.812733 785.708 0.845566C786.575 1.17084 787.47 1.50666 788.638 1.65458C789.988 1.82558 791.731 1.82545 793.135 1.78282C793.837 1.76149 794.455 1.7295 794.897 1.70283C795.119 1.6895 795.296 1.6775 795.418 1.66884C795.476 1.66475 795.521 1.66141 795.553 1.65901Z" fill="#FFFEFE" stroke="#D9D9D9" stroke-width="0.1"/>
</symbol>
<symbol id="right-1" width="813" height="503" viewBox="0 0 813 503">
<path d="M632.12 216.991C630.305 211.82 628.704 207.379 627.224 203.274C623.366 192.57 620.33 184.149 616.463 171.026C613.778 161.914 610.869 150.238 608.567 140.55H795.438C795.689 178.159 796.23 217.584 797.293 250.682C797.84 267.705 798.595 282.085 799.415 295.686H689.081C677.696 288.423 668.305 278.634 662.269 269.361C660.479 266.611 658.592 263.782 656.662 260.888C647.505 247.162 637.386 231.992 632.12 216.991Z" fill="white" stroke="#D9D9D9" stroke-width="0.1"/>
</symbol>
</svg>
