<svg width="767" height="512" viewBox="0 0 767 512" fill="none" xmlns="http://www.w3.org/2000/svg">
<path d="M614.648 482.784C614.648 482.784 607.695 481.728 607.695 478.388C607.695 455.673 612.626 433.564 614.648 404.748C616.069 384.507 617.228 369.454 618.356 358.5H673.724C674.439 370.963 675.344 383.853 676.855 395.956C681.612 434.058 687.467 488.646 709.056 488.646C731.024 488.646 736.867 488.28 759.92 490.478C762.604 490.734 763.214 493.409 763.214 493.409C763.214 493.409 764.633 494.479 765.776 496.34C767.19 498.642 761.692 498.834 755.529 500.003C748.943 501.253 741.44 503.441 735.77 504.766C722.815 507.792 701.739 506.231 701.739 506.231C701.739 506.231 701.734 507.71 701.373 508.796C700.641 510.994 691.115 511.025 685.638 510.994C678.966 510.956 668.805 508.063 668.805 508.063H656.73L643.556 506.231L627.456 505.132C627.456 505.132 614.648 503.301 614.648 499.271V482.784Z"  />
<path d="M466.448 245.38C487.277 269.389 529.021 297.404 529.021 297.404C529.021 297.404 579.153 327.079 610.257 330.743C616.36 331.462 623.43 331.84 623.43 331.84C623.43 331.84 622.818 331.66 620.868 340.633C619.988 344.684 619.181 350.498 618.356 358.5H673.724C672.398 335.403 671.72 313.773 669.031 301.339C669.165 301.502 669.331 301.66 669.536 301.798C670.515 302.457 672.314 302.63 673.196 302.531C674.466 302.388 675.749 302.44 676.855 301.798C678.364 300.922 679.146 300.127 679.782 298.501C680.306 297.162 680.479 296.641 680.514 295.204C680.542 294.062 680.173 293.015 679.794 291.939L679.782 291.906C679.307 290.557 678.067 289.367 676.855 288.609C675.5 287.761 674.776 288.108 673.196 287.876C671.915 287.689 669.902 288.243 669.902 288.243C669.902 288.243 671.129 268.824 671.733 256.371C672.995 230.329 673.282 198.619 673.16 169.5H406.708C423.254 193.939 440.951 215.991 466.448 245.38Z"  />
<path d="M323.005 1.01317C422.536 0.982645 665.512 1.01475 665.512 1.01475C665.512 1.01475 667.422 7.86353 667.707 12.3721C668.034 17.5302 666.609 25.5612 666.609 25.5612L665.512 25.9276V29.2248H666.975L671.733 83.4468C671.733 83.4468 672.965 123.198 673.16 169.5H406.709C394.996 152.199 383.859 133.702 370.942 110.558C350.083 73.1867 315.685 1.01541 323.005 1.01317Z"  />
<path d="M152.352 482.784C152.352 482.784 159.305 481.728 159.305 478.388C159.305 455.673 154.374 433.564 152.352 404.748C150.931 384.507 149.772 369.454 148.644 358.5H93.2761C92.5605 370.963 91.6562 383.853 90.1452 395.956C85.3882 434.058 79.5333 488.646 57.9437 488.646C35.9759 488.646 30.1333 488.28 7.07994 490.478C4.39554 490.734 3.78583 493.409 3.78583 493.409C3.78583 493.409 2.36736 494.479 1.22437 496.34C-0.190395 498.642 5.30751 498.834 11.4711 500.003C18.0574 501.253 25.5597 503.441 31.2303 504.766C44.1846 507.792 65.2614 506.231 65.2614 506.231C65.2614 506.231 65.2658 507.71 65.6274 508.796C66.3592 510.994 75.8852 511.025 81.3622 510.994C88.0343 510.956 98.1948 508.063 98.1948 508.063H110.27L123.444 506.231L139.544 505.132C139.544 505.132 152.352 503.301 152.352 499.271V482.784Z"  />
<path d="M300.552 245.38C279.723 269.389 237.979 297.404 237.979 297.404C237.979 297.404 187.847 327.079 156.743 330.743C150.64 331.462 143.57 331.84 143.57 331.84C143.57 331.84 144.182 331.66 146.132 340.633C147.012 344.684 147.819 350.498 148.644 358.5H93.276C94.602 335.403 95.2796 313.773 97.9688 301.339C97.8354 301.502 97.6691 301.66 97.4637 301.798C96.4845 302.457 94.6858 302.63 93.8044 302.531C92.5342 302.388 91.2506 302.44 90.1451 301.798C88.6364 300.922 87.8542 300.127 87.2177 298.501C86.6937 297.162 86.5213 296.641 86.4859 295.204C86.4577 294.062 86.8268 293.015 87.2063 291.939L87.2177 291.906C87.6933 290.557 88.9333 289.367 90.1451 288.609C91.5 287.761 92.2235 288.108 93.8044 287.876C95.0849 287.689 97.0977 288.243 97.0977 288.243C97.0977 288.243 95.8709 268.824 95.2673 256.371C94.0052 230.329 93.7177 198.619 93.8403 169.5H360.292C343.746 193.939 326.049 215.991 300.552 245.38Z"  />
<path d="M443.995 1.01317C344.464 0.982645 101.488 1.01475 101.488 1.01475C101.488 1.01475 99.5781 7.86353 99.2928 12.3721C98.9664 17.5302 100.391 25.5612 100.391 25.5612L101.488 25.9276V29.2248H100.025L95.2669 83.4468C95.2669 83.4468 94.0348 123.198 93.8398 169.5H360.291C372.004 152.199 383.141 133.702 396.058 110.558C416.917 73.1867 451.315 1.01541 443.995 1.01317Z"  />
</svg>
