<svg width="767" height="512" viewBox="0 0 767 512" fill="none" xmlns="http://www.w3.org/2000/svg">
<path d="M370.941 110.558C350.083 73.1866 315.685 1.01533 323.004 1.01308C352.119 1.00415 393.509 1.00058 437.5 1L456 83.4467L521.5 203.5L602.5 291.906L641 331.84L635.506 505.682L627.456 505.132C627.456 505.132 614.648 503.3 614.648 499.27V482.784C614.648 482.784 607.695 481.728 607.695 478.388C607.695 455.673 612.626 433.563 614.648 404.748C617.107 369.722 618.783 350.23 620.868 340.633C622.818 331.66 623.43 331.84 623.43 331.84C623.43 331.84 616.36 331.462 610.257 330.743C579.153 327.079 529.021 297.404 529.021 297.404C529.021 297.404 487.277 269.389 466.448 245.38C422.902 195.186 402.106 166.395 370.941 110.558Z"  />
<path d="M656.73 508.063L643.557 506.231L635.507 505.682L641.001 331.84L602.501 291.906L521.501 203.5L456.001 83.4468L437.501 1.00009C474.76 0.999594 513.885 1.00124 549.001 1.0036L562.001 83.4468L591.501 203.5L627.456 287.876L656.73 331.84V508.063Z"  />
<path d="M656.73 508.064H668.805C668.805 508.064 678.966 510.957 685.638 510.995C691.115 511.026 700.641 510.995 701.373 508.796C701.734 507.71 701.739 506.232 701.739 506.232C701.739 506.232 722.815 507.793 735.77 504.766C741.44 503.441 748.943 501.253 755.529 500.004C761.692 498.834 767.19 498.642 765.776 496.34C764.633 494.48 763.214 493.409 763.214 493.409C763.214 493.409 762.604 490.734 759.92 490.478C736.867 488.28 731.024 488.646 709.056 488.646C687.467 488.646 681.612 434.058 676.855 395.956C672.543 361.424 673.171 320.484 669.031 301.339C669.165 301.503 669.331 301.66 669.536 301.798C670.515 302.457 672.314 302.63 673.196 302.531C674.466 302.389 675.749 302.441 676.855 301.798C678.364 300.922 679.146 300.127 679.782 298.501C680.306 297.162 680.479 296.641 680.514 295.204C680.542 294.062 680.173 293.015 679.794 291.939L679.782 291.907C679.307 290.557 678.067 289.368 676.855 288.609C675.5 287.762 674.776 288.108 673.196 287.877C671.915 287.689 669.902 288.243 669.902 288.243C669.902 288.243 671.129 268.824 671.733 256.371C675.002 188.919 671.733 83.4471 671.733 83.4471L666.975 29.2251H665.512V25.9279L666.609 25.5615C666.609 25.5615 668.033 17.5305 667.707 12.3724C667.421 7.86384 665.512 1.01506 665.512 1.01506C665.512 1.01506 614.159 1.00827 549 1.00391L562 83.4471L591.5 203.5L627.456 287.877L656.73 331.84V508.064Z"  />
<path d="M396.059 110.558C416.917 73.1866 451.315 1.01533 443.996 1.01308C414.881 1.00415 373.491 1.00058 329.5 1L311 83.4467L245.5 203.5L164.5 291.906L126 331.84L131.494 505.682L139.544 505.132C139.544 505.132 152.352 503.3 152.352 499.27V482.784C152.352 482.784 159.305 481.728 159.305 478.388C159.305 455.673 154.374 433.563 152.352 404.748C149.893 369.722 148.217 350.23 146.132 340.633C144.182 331.66 143.57 331.84 143.57 331.84C143.57 331.84 150.64 331.462 156.743 330.743C187.847 327.079 237.979 297.404 237.979 297.404C237.979 297.404 279.723 269.389 300.552 245.38C344.098 195.186 364.894 166.395 396.059 110.558Z"  />
<path d="M110.27 508.063L123.443 506.231L131.493 505.682L125.999 331.84L164.499 291.906L245.499 203.5L310.999 83.4468L329.499 1.00009C292.24 0.999594 253.115 1.00124 217.999 1.0036L204.999 83.4468L175.499 203.5L139.544 287.876L110.27 331.84V508.063Z"  />
<path d="M110.27 508.064H98.1948C98.1948 508.064 88.0343 510.957 81.3622 510.995C75.8852 511.026 66.3592 510.995 65.6274 508.796C65.2658 507.71 65.2614 506.232 65.2614 506.232C65.2614 506.232 44.1846 507.793 31.2303 504.766C25.5597 503.441 18.0574 501.253 11.4711 500.004C5.30751 498.834 -0.190395 498.642 1.22437 496.34C2.36736 494.48 3.78583 493.409 3.78583 493.409C3.78583 493.409 4.39554 490.734 7.07994 490.478C30.1333 488.28 35.9759 488.646 57.9437 488.646C79.5333 488.646 85.3882 434.058 90.1452 395.956C94.4565 361.424 93.8285 320.484 97.9689 301.339C97.8355 301.503 97.6691 301.66 97.4637 301.798C96.4846 302.457 94.6859 302.63 93.8045 302.531C92.5343 302.389 91.2507 302.441 90.1452 301.798C88.6365 300.922 87.8543 300.127 87.2178 298.501C86.6938 297.162 86.5214 296.641 86.486 295.204C86.4578 294.062 86.8269 293.015 87.2063 291.939L87.2178 291.907C87.6934 290.557 88.9334 289.368 90.1452 288.609C91.5001 287.762 92.2236 288.108 93.8045 287.877C95.085 287.689 97.0978 288.243 97.0978 288.243C97.0978 288.243 95.8709 268.824 95.2674 256.371C91.9984 188.919 95.2674 83.4471 95.2674 83.4471L100.025 29.2251H101.488V25.9279L100.391 25.5615C100.391 25.5615 98.967 17.5305 99.2934 12.3724C99.5786 7.86384 101.488 1.01506 101.488 1.01506C101.488 1.01506 152.841 1.00827 218 1.00391L205 83.4471L175.5 203.5L139.544 287.877L110.27 331.84V508.064Z"  />
</svg>
