<svg width="767" height="512" viewBox="0 0 767 512" fill="none" xmlns="http://www.w3.org/2000/svg">
<path d="M370.943 110.558C350.084 73.1867 315.686 1.01541 323.006 1.01317C366.079 0.999959 436.018 0.998478 501.502 1.00105L511.002 60.5L544.502 146.5L587.002 230L627.457 291.906L648.502 331.84L650.145 507.147L643.558 506.231L627.457 505.132C627.457 505.132 614.65 503.301 614.65 499.271V482.784C614.65 482.784 607.697 481.728 607.697 478.388C607.697 455.673 612.627 433.564 614.65 404.748C617.108 369.722 618.784 350.23 620.87 340.633C622.819 331.66 623.431 331.84 623.431 331.84C623.431 331.84 616.361 331.462 610.259 330.743C579.155 327.079 529.023 297.404 529.023 297.404C529.023 297.404 487.279 269.389 466.45 245.38C422.904 195.186 402.108 166.395 370.943 110.558Z"  />
<path d="M656.73 508.064H668.805C668.805 508.064 678.966 510.957 685.638 510.995C691.115 511.026 700.641 510.995 701.373 508.797C701.734 507.711 701.739 506.232 701.739 506.232C701.739 506.232 722.815 507.793 735.77 504.767C741.44 503.442 748.943 501.254 755.529 500.004C761.692 498.835 767.19 498.643 765.776 496.341C764.633 494.48 763.214 493.41 763.214 493.41C763.214 493.41 762.604 490.735 759.92 490.479C736.867 488.281 731.024 488.647 709.056 488.647C687.467 488.647 681.612 434.059 676.855 395.957C672.543 361.425 673.171 320.484 669.031 301.339C669.165 301.503 669.331 301.661 669.536 301.799C670.515 302.458 672.314 302.631 673.196 302.532C674.466 302.389 675.749 302.441 676.855 301.799C678.364 300.922 679.146 300.128 679.782 298.502C680.306 297.163 680.479 296.642 680.514 295.205C680.542 294.063 680.173 293.016 679.794 291.94L679.782 291.907C679.307 290.558 678.067 289.368 676.855 288.61C675.5 287.762 674.776 288.109 673.196 287.877C671.915 287.69 669.902 288.244 669.902 288.244C669.902 288.244 671.129 268.825 671.733 256.372C675.002 188.92 671.733 83.4477 671.733 83.4477L666.975 29.2257H665.512V25.9285L666.609 25.5621C666.609 25.5621 668.033 17.5311 667.707 12.373C667.421 7.86444 665.512 1.01565 665.512 1.01565C665.512 1.01565 587.332 1.00532 501.5 1.00195L511 60.5009L544.5 146.501L587 230.001L627.456 291.907L648.5 331.841L650.143 507.148L656.73 508.064Z"  />
<path d="M396.057 110.558C416.916 73.1867 451.314 1.01541 443.994 1.01317C400.921 0.999959 330.982 0.998478 265.498 1.00105L255.998 60.5L222.498 146.5L179.998 230L139.543 291.906L118.498 331.84L116.855 507.147L123.442 506.231L139.543 505.132C139.543 505.132 152.35 503.301 152.35 499.271V482.784C152.35 482.784 159.303 481.728 159.303 478.388C159.303 455.673 154.373 433.564 152.35 404.748C149.892 369.722 148.216 350.23 146.13 340.633C144.181 331.66 143.569 331.84 143.569 331.84C143.569 331.84 150.639 331.462 156.741 330.743C187.845 327.079 237.977 297.404 237.977 297.404C237.977 297.404 279.721 269.389 300.55 245.38C344.096 195.186 364.892 166.395 396.057 110.558Z"  />
<path d="M110.27 508.064H98.1948C98.1948 508.064 88.0343 510.957 81.3622 510.995C75.8852 511.026 66.3592 510.995 65.6274 508.797C65.2658 507.711 65.2614 506.232 65.2614 506.232C65.2614 506.232 44.1846 507.793 31.2303 504.767C25.5597 503.442 18.0574 501.254 11.4711 500.004C5.30751 498.835 -0.190395 498.643 1.22437 496.341C2.36736 494.48 3.78583 493.41 3.78583 493.41C3.78583 493.41 4.39554 490.735 7.07994 490.479C30.1333 488.281 35.9759 488.647 57.9437 488.647C79.5333 488.647 85.3882 434.059 90.1452 395.957C94.4565 361.425 93.8285 320.484 97.9689 301.339C97.8355 301.503 97.6691 301.661 97.4637 301.799C96.4846 302.458 94.6859 302.631 93.8045 302.532C92.5343 302.389 91.2507 302.441 90.1452 301.799C88.6365 300.922 87.8543 300.128 87.2178 298.502C86.6938 297.163 86.5214 296.642 86.486 295.205C86.4578 294.063 86.8269 293.016 87.2063 291.94L87.2178 291.907C87.6934 290.558 88.9334 289.368 90.1452 288.61C91.5001 287.762 92.2236 288.109 93.8045 287.877C95.085 287.69 97.0978 288.244 97.0978 288.244C97.0978 288.244 95.8709 268.825 95.2674 256.372C91.9984 188.92 95.2674 83.4477 95.2674 83.4477L100.025 29.2257H101.488V25.9285L100.391 25.5621C100.391 25.5621 98.967 17.5311 99.2934 12.373C99.5786 7.86444 101.488 1.01565 101.488 1.01565C101.488 1.01565 179.668 1.00532 265.5 1.00195L256 60.5009L222.5 146.501L180 230.001L139.544 291.907L118.5 331.841L116.857 507.148L110.27 508.064Z"  />
</svg>
