<svg width="744" height="506" viewBox="0 0 744 506" fill="none" xmlns="http://www.w3.org/2000/svg">
<g clip-path="url(#clip0_2_30090)">
<path d="M193.375 436.148C193.345 436.188 193.345 436.188 193.345 436.188L193.345 436.188L193.346 436.189L193.351 436.192L193.369 436.206L193.438 436.26C193.499 436.307 193.589 436.377 193.704 436.468C193.935 436.651 194.268 436.916 194.676 437.249C195.493 437.916 196.61 438.855 197.816 439.942C200.227 442.118 202.984 444.884 204.381 447.255C205.437 449.047 205.719 450.531 205.98 452.026L206.007 452.182C206.257 453.628 206.512 455.094 207.449 456.858C209.907 461.479 212.364 464.898 214.896 468.223C215.379 468.857 215.864 469.486 216.352 470.12C218.428 472.816 220.562 475.588 222.797 479.025C224.106 481.038 226.125 482.202 229.584 482.741C230.466 482.879 231.218 482.791 231.947 482.705L232.081 482.689C232.853 482.6 233.609 482.528 234.49 482.741C235.424 482.965 235.921 483.339 236.394 483.746C236.448 483.792 236.502 483.839 236.556 483.887C236.977 484.255 237.419 484.641 238.166 484.954C240.311 485.856 242.751 485.838 245.161 485.821L245.322 485.819C247.789 485.802 250.216 485.806 252.281 486.8C253.825 487.544 255.052 487.648 256.28 487.608C256.628 487.596 256.974 487.573 257.327 487.55C258.224 487.491 259.166 487.428 260.278 487.544C263.263 487.854 265.633 488.225 267.937 488.586C268.242 488.634 268.546 488.682 268.85 488.729C271.45 489.133 274.057 489.512 277.467 489.76C279.855 489.935 282.513 489.52 285.078 489.12C285.845 489.001 286.604 488.882 287.346 488.782C288.957 488.562 290.485 488.425 291.834 488.532C293.182 488.64 294.347 488.993 295.239 489.749C295.891 490.302 296.206 490.872 296.254 491.435C296.302 491.999 296.084 492.566 295.651 493.115C294.782 494.213 293.059 495.22 290.958 495.943C286.671 497.417 281.156 497.51 276.017 497.002C270.88 496.495 266.126 495.387 263.368 494.465C262.246 494.09 261.391 494.11 260.677 494.373C259.965 494.636 259.399 495.139 258.853 495.718C258.676 495.906 258.5 496.103 258.322 496.302C257.4 497.33 256.412 498.434 254.745 498.897C250.961 499.948 246.761 499.834 241.872 499.701C241.617 499.694 241.36 499.687 241.102 499.68C235.884 499.542 229.895 499.449 222.83 500.743C220.416 501.185 218.335 501.274 216.277 501.362C216.109 501.37 215.942 501.377 215.774 501.384C213.55 501.482 211.324 501.612 208.71 502.221C207.584 502.484 206.749 502.796 205.939 503.099C205.848 503.134 205.757 503.168 205.665 503.202C204.767 503.536 203.86 503.851 202.575 504.068C199.903 504.518 198.075 504.447 196.22 504.253C195.778 504.206 195.333 504.153 194.876 504.098C193.413 503.922 191.812 503.729 189.693 503.697C183.613 503.606 178.416 504.219 173.248 504.828L172.802 504.88C167.486 505.506 162.174 506.106 155.933 505.914C148.491 505.684 142.242 505.505 136.48 505.362V405.132L176.354 336.025L176.355 336.026L176.358 336.016L203.777 253.313L203.777 253.313L203.779 253.305L219.549 153.199L219.549 153.198L231.549 64.5071L231.55 64.5071L231.55 64.5034L235.349 1.05174C237.029 1.09975 238.335 1.33187 239.622 1.56075C239.702 1.57494 239.782 1.58911 239.862 1.60323C241.241 1.84732 242.624 2.07414 244.442 2.05042C246.454 2.02417 247.949 1.67961 249.44 1.32685L249.536 1.30394C250.994 0.958691 252.458 0.612054 254.413 0.550403C256.539 0.483381 258.168 0.757722 259.803 1.03707L259.852 1.04548C261.47 1.32212 263.098 1.60037 265.214 1.55041C266.255 1.52584 267.078 1.40494 267.878 1.28751C267.962 1.27523 268.045 1.26299 268.128 1.2509C269.009 1.12321 269.886 1.01226 271.027 1.0504C271.783 1.07569 272.37 1.19298 272.947 1.30836C272.997 1.31825 273.046 1.32813 273.096 1.33794C273.722 1.46215 274.352 1.57425 275.184 1.55041C275.857 1.53113 276.361 1.43637 276.86 1.3314C276.916 1.31974 276.971 1.30795 277.027 1.29613C277.472 1.20163 277.927 1.10492 278.511 1.05021C280.277 0.884923 281.662 0.996529 283.055 1.1563C283.293 1.18363 283.531 1.21237 283.772 1.24138C284.939 1.38199 286.157 1.52885 287.645 1.55042C289.815 1.58189 291.565 1.41073 293.262 1.24475C293.474 1.22399 293.686 1.20331 293.897 1.18312C295.798 1.0015 297.691 0.859147 300.105 1.05027C300.755 1.10179 301.285 1.21552 301.793 1.32468C301.922 1.35245 302.05 1.37992 302.178 1.40599C302.81 1.53452 303.443 1.62801 304.268 1.55021C304.988 1.48216 305.465 1.26235 305.935 1.04596L305.944 1.0414C306.416 0.824073 306.882 0.611197 307.591 0.550244C308.595 0.46388 309.321 0.697319 310.055 0.961861C310.106 0.980339 310.158 0.998973 310.209 1.01766C310.895 1.26667 311.608 1.52523 312.57 1.55041C313.757 1.58147 314.632 1.37836 315.5 1.14435C315.599 1.11764 315.698 1.09053 315.797 1.06333C316.568 0.852321 317.36 0.635472 318.392 0.550258C320.659 0.363017 322.415 0.60012 324.18 0.890787C324.38 0.923749 324.58 0.957405 324.781 0.991209C326.354 1.25552 327.981 1.52891 330.019 1.55043C332.511 1.57673 334.462 1.29943 336.382 1.02657C336.481 1.01252 336.58 0.998474 336.678 0.984483C338.695 0.698937 340.707 0.435711 343.311 0.55038C344.845 0.61794 346.033 0.839123 347.2 1.05667C347.285 1.07252 347.37 1.08834 347.455 1.10408C348.707 1.33606 349.963 1.55043 351.622 1.55043C353.256 1.55043 354.498 1.29681 355.729 1.04532L355.786 1.03353C357.036 0.778304 358.281 0.529319 359.93 0.550424C361.37 0.568864 362.462 0.814309 363.547 1.05816L363.659 1.0832C364.781 1.33508 365.908 1.57669 367.409 1.55042C368.323 1.53443 369.473 1.40911 370.394 1.28805C370.854 1.22748 371.258 1.16792 371.546 1.12349C371.69 1.10127 371.806 1.08284 371.885 1.06996L371.949 1.05946L371.948 1.21088C371.946 1.34941 371.944 1.55414 371.94 1.81889C371.932 2.34841 371.918 3.11804 371.894 4.07836C371.846 5.99901 371.758 8.68236 371.597 11.7331C371.275 17.8353 370.661 25.4049 369.496 31.2811C367.013 43.7908 364.806 54.6962 362.764 64.7845C356.725 94.6131 352.133 117.297 346.17 153.183C336.363 212.199 324.688 245.523 302.59 303.148C293.774 326.139 278.045 345.983 265.772 358.54C251.957 372.674 225.27 389.561 208.084 398.795C204.213 400.875 197.774 402.444 192.299 403.493C189.562 404.017 187.067 404.411 185.257 404.674C184.352 404.806 183.617 404.905 183.11 404.97C182.856 405.003 182.658 405.028 182.525 405.045L182.372 405.063L182.334 405.068L182.324 405.069L182.321 405.069L182.321 405.069C182.321 405.069 182.321 405.069 182.326 405.119L182.321 405.069L182.276 405.074V405.119V410.66V410.693L182.307 410.706L182.308 410.706L182.309 410.707L182.315 410.709L182.336 410.718L182.422 410.755C182.497 410.787 182.608 410.835 182.75 410.897C183.034 411.022 183.443 411.206 183.942 411.44C184.94 411.91 186.298 412.584 187.74 413.403C189.183 414.221 190.708 415.184 192.039 416.229C193.372 417.276 194.507 418.403 195.174 419.55C195.845 420.706 196.106 422.11 196.117 423.57C196.129 425.03 195.892 426.543 195.57 427.911C195.248 429.28 194.841 430.503 194.515 431.384C194.352 431.824 194.209 432.179 194.107 432.424C194.056 432.546 194.015 432.641 193.987 432.705C193.973 432.737 193.962 432.762 193.955 432.778L193.947 432.797L193.944 432.801L193.944 432.802L193.942 432.802L193.94 432.814L193.326 436.139L193.321 436.169L193.345 436.188L193.375 436.148Z"  />
<path d="M94.0561 324.05H94.104L94.106 324.002C95.0995 300.482 95.1309 286.524 95.1768 266.13C95.1858 262.139 95.1954 257.901 95.2128 253.297C95.3991 204.031 96.4733 140.957 97.5009 90.1996C98.0147 64.8209 98.5169 42.5213 98.8906 26.5664C99.0775 18.5889 99.2322 12.1976 99.3402 7.80074C99.3942 5.60228 99.4366 3.90241 99.4654 2.75217L99.4983 1.44538L99.5067 1.11311L99.5085 1.04231L99.5898 1.0285C99.6685 1.01526 99.783 0.996322 99.9261 0.973541C100.212 0.927977 100.613 0.867055 101.07 0.805631C101.985 0.682706 103.124 0.558066 104.027 0.550013C105.009 0.541255 105.758 0.665557 106.511 0.792716L106.54 0.797755C107.283 0.923327 108.033 1.05001 109.011 1.05001C109.95 1.05001 110.679 0.917915 111.392 0.788698C111.433 0.781291 111.474 0.773894 111.515 0.766531C112.268 0.630764 113.016 0.506637 113.994 0.549966C114.949 0.592243 115.649 0.829653 116.341 1.06405C116.385 1.07892 116.429 1.09378 116.472 1.10858C117.208 1.35677 117.95 1.58657 118.984 1.54998C119.822 1.52031 120.415 1.27011 120.989 1.02838C121.019 1.01563 121.049 1.00289 121.079 0.990212C121.681 0.737627 122.275 0.506878 123.134 0.549952C123.827 0.584705 124.281 0.818307 124.737 1.05319L124.773 1.07168C125.243 1.31326 125.721 1.55001 126.46 1.55001C127.196 1.55001 127.684 1.35186 128.16 1.12825C128.212 1.10405 128.263 1.07959 128.315 1.05505C128.739 0.853257 129.172 0.646852 129.791 0.549405C131.048 0.351295 132.049 0.489093 133.066 0.670654C133.187 0.692218 133.308 0.714409 133.43 0.736726C134.333 0.902277 135.274 1.07478 136.431 1.05C137.894 1.01869 139.001 0.780246 140.095 0.544539L140.178 0.526499C141.3 0.285129 142.417 0.0521447 143.908 0.0500147C145.75 0.0473807 147.106 0.398026 148.465 0.762131L148.571 0.790465C149.897 1.14571 151.239 1.50542 153.046 1.55C154.863 1.59484 156.246 1.36638 157.626 1.11621C157.719 1.09926 157.812 1.08222 157.906 1.06516C159.193 0.830324 160.502 0.591485 162.188 0.55C164.928 0.482551 167.03 0.898397 169.123 1.31262L169.242 1.3362C171.376 1.75809 173.513 2.16864 176.313 2.04997C178.22 1.96913 179.664 1.62542 181.082 1.28792C181.156 1.27026 181.23 1.25262 181.304 1.23504C182.794 0.88143 184.281 0.550015 186.281 0.550015C188.257 0.550015 189.73 0.927177 191.201 1.30412L191.254 1.31772C192.744 1.69924 194.239 2.07579 196.252 2.05001C197.548 2.03342 198.195 1.84372 198.907 1.63477C199.021 1.60139 199.136 1.56752 199.256 1.53379C200.124 1.28996 201.241 1.05001 203.729 1.05001C205.859 1.05001 207.491 1.27112 209.124 1.50683C209.208 1.51891 209.292 1.53102 209.375 1.54315C210.927 1.76772 212.503 1.99593 214.529 2.05C217.614 2.13233 219.779 1.97658 222.266 1.79771C223.448 1.71265 224.703 1.62235 226.165 1.54995C227.485 1.48453 228.588 1.38651 229.633 1.29357C231.408 1.13579 233.017 0.99267 235.249 1.04867L231.45 64.4933L231.45 64.497L219.451 153.183L219.45 153.184L203.68 253.285L176.265 335.979L136.386 405.093L136.38 405.105V405.118V505.359C123.651 505.044 113.278 504.908 97.6184 504.805C93.1598 504.776 89.4124 504.91 85.8547 505.036C84.6298 505.08 83.4273 505.123 82.2261 505.158C77.5356 505.295 72.8611 505.315 66.9309 504.805C62.9033 504.46 60.3143 504.083 57.7249 503.704L57.6579 503.694C55.0902 503.318 52.5099 502.94 48.5161 502.589C42.2279 502.036 37.1618 502.036 31.9041 502.082C31.4592 502.086 31.013 502.09 30.5645 502.094C25.7127 502.14 20.6 502.188 14.1398 501.85C7.54026 501.505 2.74298 499.096 1.29361 495.233C1.04427 494.569 0.993894 493.966 1.10801 493.413C1.22218 492.86 1.50173 492.353 1.91782 491.881C2.7513 490.936 4.12804 490.136 5.7994 489.393C7.30748 488.724 9.04969 488.104 10.8393 487.466C11.0319 487.398 11.225 487.329 11.4185 487.26C13.4085 486.55 15.4313 485.811 17.2279 484.953C24.1284 481.659 34.1548 480.089 42.9617 478.709L43.1492 478.68C47.5731 477.987 51.6804 477.34 54.9118 476.542C56.5276 476.143 57.9263 475.706 59.0371 475.207C60.147 474.707 60.975 474.143 61.443 473.486C63.5797 470.485 65.8491 467.485 68.0775 464.55L68.5578 463.917C70.6194 461.203 72.635 458.549 74.4649 456.009C78.4068 450.539 81.4939 445.59 82.3214 441.699C91.3413 399.293 92.3795 375.527 94.0801 336.595L94.0801 336.595L94.106 336.002L94.1083 335.95H94.0561C92.894 335.95 90.6171 335.701 88.6326 334.767C86.6496 333.835 84.9666 332.224 84.9666 329.5C84.9666 328.517 85.4255 327.686 86.1457 326.989C86.8666 326.292 87.847 325.732 88.8826 325.296C90.9546 324.423 93.2328 324.05 94.0561 324.05Z"  />
<path d="M550.625 436.148C550.655 436.188 550.655 436.188 550.655 436.188L550.655 436.188L550.654 436.189L550.649 436.192L550.631 436.206L550.562 436.26C550.501 436.307 550.411 436.377 550.296 436.468C550.065 436.651 549.732 436.916 549.324 437.249C548.507 437.916 547.39 438.855 546.184 439.942C543.773 442.118 541.016 444.884 539.619 447.255C538.563 449.047 538.281 450.531 538.02 452.026L537.993 452.182C537.743 453.628 537.488 455.094 536.551 456.858C534.093 461.479 531.636 464.898 529.104 468.223C528.621 468.857 528.136 469.486 527.648 470.12C525.572 472.816 523.438 475.588 521.203 479.025C519.894 481.038 517.875 482.202 514.416 482.741C513.534 482.879 512.782 482.791 512.053 482.705L511.919 482.689C511.147 482.6 510.391 482.528 509.51 482.741C508.576 482.965 508.079 483.339 507.606 483.746C507.552 483.792 507.498 483.839 507.444 483.887C507.023 484.255 506.581 484.641 505.834 484.954C503.689 485.856 501.249 485.838 498.839 485.821L498.678 485.819C496.211 485.802 493.784 485.806 491.719 486.8C490.175 487.544 488.948 487.648 487.72 487.608C487.372 487.596 487.026 487.573 486.673 487.55C485.776 487.491 484.834 487.428 483.722 487.544C480.737 487.854 478.367 488.225 476.063 488.586C475.758 488.634 475.454 488.682 475.15 488.729C472.55 489.133 469.943 489.512 466.533 489.76C464.145 489.935 461.487 489.52 458.922 489.12C458.155 489.001 457.396 488.882 456.654 488.782C455.043 488.562 453.515 488.425 452.166 488.532C450.818 488.64 449.653 488.993 448.761 489.749C448.109 490.302 447.794 490.872 447.746 491.435C447.698 491.999 447.916 492.566 448.349 493.115C449.218 494.213 450.941 495.22 453.042 495.943C457.329 497.417 462.844 497.51 467.983 497.002C473.12 496.495 477.874 495.387 480.632 494.465C481.754 494.09 482.609 494.11 483.323 494.373C484.035 494.636 484.601 495.139 485.147 495.718C485.324 495.906 485.5 496.103 485.678 496.302C486.6 497.33 487.588 498.434 489.255 498.897C493.039 499.948 497.239 499.834 502.128 499.701C502.383 499.694 502.64 499.687 502.898 499.68C508.116 499.542 514.105 499.449 521.17 500.743C523.584 501.185 525.665 501.274 527.723 501.362C527.891 501.37 528.058 501.377 528.226 501.384C530.45 501.482 532.676 501.612 535.29 502.221C536.416 502.484 537.251 502.796 538.061 503.099C538.152 503.134 538.243 503.168 538.335 503.202C539.233 503.536 540.14 503.851 541.425 504.068C544.097 504.518 545.925 504.447 547.78 504.253C548.222 504.206 548.667 504.153 549.124 504.098C550.587 503.922 552.188 503.729 554.307 503.697C560.387 503.606 565.584 504.219 570.752 504.828L571.198 504.88C576.514 505.506 581.826 506.106 588.067 505.914C595.509 505.684 601.758 505.505 607.52 505.362V405.129L567.643 315.021L567.643 315.021L567.641 315.012L547.7 231.512L547.7 231.511L517.789 94.011L517.789 94.0111L517.788 94.0053L508.653 1.05169C506.972 1.09958 505.666 1.33179 504.378 1.56075C504.298 1.57494 504.218 1.58911 504.138 1.60323C502.759 1.84732 501.376 2.07414 499.558 2.05042C497.546 2.02417 496.051 1.67961 494.56 1.32685L494.464 1.30394C493.006 0.958691 491.542 0.612054 489.587 0.550403C487.461 0.483381 485.832 0.757722 484.197 1.03707L484.148 1.04548C482.53 1.32212 480.902 1.60037 478.786 1.55041C477.745 1.52584 476.922 1.40494 476.122 1.28751C476.038 1.27523 475.955 1.26299 475.872 1.2509C474.991 1.12321 474.114 1.01226 472.973 1.0504C472.217 1.07569 471.63 1.19298 471.053 1.30836C471.003 1.31825 470.954 1.32813 470.904 1.33794C470.278 1.46215 469.648 1.57425 468.816 1.55041C468.143 1.53113 467.639 1.43637 467.14 1.3314C467.084 1.31974 467.029 1.30795 466.973 1.29613C466.528 1.20163 466.073 1.10492 465.489 1.05021C463.723 0.884923 462.338 0.996529 460.945 1.1563C460.707 1.18363 460.469 1.21237 460.228 1.24138C459.061 1.38199 457.843 1.52885 456.355 1.55042C454.185 1.58189 452.435 1.41073 450.738 1.24475C450.526 1.22399 450.314 1.20331 450.103 1.18312C448.202 1.0015 446.309 0.859147 443.895 1.05027C443.245 1.10179 442.715 1.21552 442.207 1.32468C442.078 1.35245 441.95 1.37992 441.822 1.40599C441.19 1.53452 440.557 1.62801 439.732 1.55021C439.012 1.48216 438.535 1.26235 438.065 1.04596L438.056 1.0414C437.584 0.824073 437.118 0.611197 436.409 0.550244C435.405 0.46388 434.679 0.697319 433.945 0.961861C433.894 0.980339 433.842 0.998973 433.791 1.01766C433.105 1.26667 432.392 1.52523 431.43 1.55041C430.243 1.58147 429.368 1.37836 428.5 1.14435C428.401 1.11764 428.302 1.09053 428.203 1.06333C427.432 0.852321 426.64 0.635472 425.608 0.550258C423.341 0.363017 421.585 0.60012 419.82 0.890787C419.62 0.923749 419.42 0.957405 419.219 0.991209C417.646 1.25552 416.019 1.52891 413.981 1.55043C411.489 1.57673 409.538 1.29943 407.618 1.02657C407.519 1.01252 407.42 0.998474 407.322 0.984483C405.305 0.698937 403.293 0.435711 400.689 0.55038C399.155 0.61794 397.967 0.839123 396.8 1.05667C396.715 1.07252 396.63 1.08834 396.545 1.10408C395.293 1.33606 394.037 1.55043 392.378 1.55043C390.744 1.55043 389.502 1.29681 388.271 1.04532L388.214 1.03353C386.964 0.778304 385.719 0.529319 384.07 0.550424C382.63 0.568864 381.538 0.814309 380.453 1.05816L380.341 1.0832C379.219 1.33508 378.092 1.57669 376.591 1.55042C375.677 1.53443 374.527 1.40911 373.606 1.28805C373.146 1.22748 372.742 1.16792 372.454 1.12349C372.31 1.10127 372.194 1.08284 372.115 1.06996L372.051 1.05946L372.052 1.21088C372.054 1.34941 372.056 1.55414 372.06 1.81889C372.068 2.34841 372.082 3.11804 372.106 4.07836C372.154 5.99901 372.242 8.68236 372.403 11.7331C372.725 17.8353 373.339 25.4049 374.504 31.2811C376.987 43.7908 379.194 54.6962 381.236 64.7845C387.275 94.6131 391.867 117.297 397.83 153.183C407.637 212.199 419.312 245.523 441.41 303.148C450.226 326.139 465.955 345.983 478.228 358.54C492.043 372.674 518.73 389.561 535.916 398.795C539.787 400.875 546.226 402.444 551.701 403.493C554.438 404.017 556.933 404.411 558.743 404.674C559.648 404.806 560.383 404.905 560.89 404.97C561.144 405.003 561.342 405.028 561.475 405.045L561.628 405.063L561.666 405.068L561.676 405.069L561.679 405.069L561.679 405.069C561.679 405.069 561.679 405.069 561.674 405.119L561.679 405.069L561.724 405.074V405.119V410.66V410.693L561.693 410.706L561.692 410.706L561.691 410.707L561.685 410.709L561.664 410.718L561.578 410.755C561.503 410.787 561.392 410.835 561.25 410.897C560.966 411.022 560.557 411.206 560.058 411.44C559.06 411.91 557.702 412.584 556.26 413.403C554.817 414.221 553.292 415.184 551.961 416.229C550.628 417.276 549.493 418.403 548.826 419.55C548.155 420.706 547.894 422.11 547.883 423.57C547.871 425.03 548.108 426.543 548.43 427.911C548.752 429.28 549.159 430.503 549.485 431.384C549.648 431.824 549.791 432.179 549.893 432.424C549.944 432.546 549.985 432.641 550.013 432.705C550.027 432.737 550.038 432.762 550.045 432.778L550.053 432.797L550.056 432.801L550.056 432.802L550.058 432.802L550.06 432.814L550.674 436.139L550.679 436.169L550.655 436.188L550.625 436.148Z"  />
<path d="M649.944 324.05H649.896L649.894 324.002C648.9 300.482 648.869 286.524 648.823 266.13C648.814 262.139 648.805 257.901 648.787 253.297C648.601 204.031 647.527 140.957 646.499 90.1996C645.985 64.8209 645.483 42.5213 645.109 26.5664C644.923 18.5889 644.768 12.1976 644.66 7.80074C644.606 5.60228 644.563 3.90241 644.535 2.75217L644.502 1.44538L644.493 1.11311L644.491 1.04231L644.41 1.0285C644.332 1.01526 644.217 0.996322 644.074 0.973541C643.788 0.927977 643.387 0.867055 642.93 0.805631C642.015 0.682706 640.876 0.558066 639.973 0.550013C638.991 0.541255 638.242 0.665557 637.489 0.792716L637.46 0.797755C636.717 0.923327 635.967 1.05001 634.989 1.05001C634.05 1.05001 633.321 0.917915 632.608 0.788698C632.567 0.781291 632.526 0.773894 632.485 0.766531C631.732 0.630764 630.984 0.506637 630.006 0.549966C629.051 0.592243 628.351 0.829653 627.659 1.06405C627.615 1.07892 627.571 1.09378 627.528 1.10858C626.792 1.35677 626.05 1.58657 625.016 1.54998C624.178 1.52031 623.585 1.27011 623.011 1.02838C622.981 1.01563 622.951 1.00289 622.921 0.990212C622.319 0.737627 621.725 0.506878 620.866 0.549952C620.173 0.584705 619.719 0.818307 619.263 1.05319L619.227 1.07168C618.757 1.31326 618.279 1.55001 617.54 1.55001C616.804 1.55001 616.316 1.35186 615.84 1.12825C615.788 1.10405 615.737 1.07959 615.685 1.05505C615.261 0.853257 614.828 0.646852 614.209 0.549405C612.952 0.351295 611.951 0.489093 610.934 0.670654C610.813 0.692218 610.692 0.714409 610.57 0.736726C609.667 0.902277 608.726 1.07478 607.569 1.05C606.106 1.01869 604.999 0.780246 603.905 0.544539L603.822 0.526499C602.7 0.285129 601.583 0.0521447 600.092 0.0500147C598.25 0.0473807 596.894 0.398026 595.535 0.762131L595.429 0.790465C594.103 1.14571 592.761 1.50542 590.954 1.55C589.137 1.59484 587.754 1.36638 586.374 1.11621C586.281 1.09926 586.188 1.08222 586.094 1.06516C584.807 0.830324 583.498 0.591485 581.812 0.55C579.072 0.482551 576.97 0.898397 574.877 1.31262L574.758 1.3362C572.624 1.75809 570.487 2.16864 567.687 2.04997C565.78 1.96913 564.336 1.62542 562.918 1.28792C562.844 1.27026 562.77 1.25262 562.696 1.23504C561.206 0.88143 559.719 0.550015 557.719 0.550015C555.743 0.550015 554.27 0.927177 552.799 1.30412L552.746 1.31772C551.256 1.69924 549.761 2.07579 547.748 2.05001C546.452 2.03342 545.805 1.84372 545.093 1.63477C544.979 1.60139 544.864 1.56752 544.744 1.53379C543.876 1.28996 542.759 1.05001 540.271 1.05001C538.141 1.05001 536.509 1.27112 534.876 1.50683C534.792 1.51891 534.708 1.53102 534.625 1.54315C533.073 1.76772 531.497 1.99593 529.471 2.05C526.386 2.13233 524.221 1.97658 521.734 1.79771C520.552 1.71265 519.297 1.62235 517.835 1.54995C516.515 1.48453 515.412 1.38651 514.367 1.29357C512.593 1.13584 510.984 0.992756 508.753 1.04862L517.887 93.9922L547.797 231.488L547.797 231.489L567.737 314.984L607.616 405.098L607.62 405.108V405.118V505.359C620.349 505.044 630.722 504.908 646.382 504.805C650.84 504.776 654.588 504.91 658.145 505.036C659.37 505.08 660.573 505.123 661.774 505.158C666.464 505.295 671.139 505.315 677.069 504.805C681.097 504.46 683.686 504.083 686.275 503.704L686.342 503.694C688.91 503.318 691.49 502.94 695.484 502.589C701.772 502.036 706.838 502.036 712.096 502.082C712.541 502.086 712.987 502.09 713.435 502.094C718.287 502.14 723.4 502.188 729.86 501.85C736.46 501.505 741.257 499.096 742.706 495.233C742.956 494.569 743.006 493.966 742.892 493.413C742.778 492.86 742.498 492.353 742.082 491.881C741.249 490.936 739.872 490.136 738.201 489.393C736.693 488.724 734.95 488.104 733.161 487.466C732.968 487.398 732.775 487.329 732.582 487.26C730.592 486.55 728.569 485.811 726.772 484.953C719.872 481.659 709.845 480.089 701.038 478.709L700.851 478.68C696.427 477.987 692.32 477.34 689.088 476.542C687.472 476.143 686.074 475.706 684.963 475.207C683.853 474.707 683.025 474.143 682.557 473.486C680.42 470.485 678.151 467.485 675.923 464.55L675.442 463.917C673.381 461.203 671.365 458.549 669.535 456.009C665.593 450.539 662.506 445.59 661.679 441.699C652.659 399.293 651.621 375.527 649.92 336.595L649.92 336.595L649.894 336.002L649.892 335.95H649.944C651.106 335.95 653.383 335.701 655.367 334.767C657.35 333.835 659.033 332.224 659.033 329.5C659.033 328.517 658.575 327.686 657.854 326.989C657.133 326.292 656.153 325.732 655.117 325.296C653.045 324.423 650.767 324.05 649.944 324.05Z"  />
</g>
<defs>
<clipPath id="clip0_2_30090">
<rect width="744" height="506" />
</clipPath>
</defs>
</svg>
