<svg width="379" height="47" viewBox="0 0 379 47" fill="none" xmlns="http://www.w3.org/2000/svg">
<g clip-path="url(#clip0_2_14835)" filter="url(#filter0_d_2_14835)">
<rect width="359" height="27" transform="translate(10 6)" fill="url(#paint0_linear_2_14835)"/>
<g filter="url(#filter1_f_2_14835)">
<line x1="-27" y1="10.6918" x2="406" y2="10.6918" stroke="#BFBFBF" stroke-width="0.721875"/>
</g>
<g filter="url(#filter2_f_2_14835)">
<line x1="-27" y1="21.5199" x2="406" y2="21.5199" stroke="#BFBFBF" stroke-width="0.721875"/>
</g>
<g filter="url(#filter3_f_2_14835)">
<line x1="-27" y1="24.4086" x2="406" y2="24.3554" stroke="#BFBFBF" stroke-width="0.721875"/>
</g>
<g filter="url(#filter4_f_2_14835)">
<line x1="-27" y1="30.184" x2="406" y2="30.184" stroke="#BFBFBF" stroke-width="0.721875"/>
</g>
<path d="M-27.7188 33.432C189.181 33.432 76.5283 31.9883 292.782 31.9883M138.981 32.7102C355.881 32.7102 244.076 31.9883 460.33 31.9883M284.19 33.432C501.09 33.432 392.721 32.9575 608.975 32.9575" stroke="#BFBFBF" stroke-width="0.721875" stroke-linecap="round"/>
<path d="M-27.7188 30.5434C189.181 30.5434 76.5283 29.0996 292.782 29.0996M138.981 29.8215C355.881 29.8215 244.076 29.0996 460.33 29.0996M284.19 30.5434C501.09 30.5434 392.721 30.0688 608.975 30.0688" stroke="#BFBFBF" stroke-width="0.721875" stroke-linecap="round"/>
<path d="M609.695 24.0465C392.795 24.0465 505.448 25.4902 289.195 25.4902M442.995 24.7684C226.095 24.7684 337.9 25.4902 121.647 25.4902M297.787 24.0465C80.8869 24.0465 189.255 24.521 -26.9985 24.521" stroke="#BFBFBF" stroke-width="0.721875" stroke-linecap="round"/>
<path d="M-27 21.8813C189.9 21.8813 77.2471 20.4375 293.501 20.4375M139.7 21.1594C356.6 21.1594 244.795 20.4375 461.049 20.4375M284.908 21.8813C501.808 21.8813 393.44 21.4067 609.694 21.4067" stroke="#BFBFBF" stroke-width="0.721875" stroke-linecap="round"/>
<path d="M-27 11.7758C189.9 11.7758 77.2471 10.332 293.501 10.332M139.7 11.0539C356.6 11.0539 244.795 10.332 461.049 10.332M284.908 11.7758C501.808 11.7758 393.44 11.3013 609.694 11.3013" stroke="#BFBFBF" stroke-width="0.721875" stroke-linecap="round"/>
<path d="M-4.39896 8.16602C-3.66848 8.33597 -2.3076 10.4156 -1.62023 11.0423C0.649736 13.1122 2.68249 15.2512 4.80068 17.4689C7.41708 20.2081 10.0361 23.0897 12.2734 26.2129" stroke="#BFBFBF" stroke-width="0.721875" stroke-linecap="round"/>
<path d="M4.37447 8.16602C5.10496 8.33597 6.46584 10.4156 7.15321 11.0423C9.42317 13.1122 11.4559 15.2512 13.5741 17.4689C16.1905 20.2081 18.8096 23.0897 21.0469 26.2129" stroke="#BFBFBF" stroke-width="0.721875" stroke-linecap="round"/>
<path d="M13.1511 8.16602C14.0738 8.37676 15.7928 10.9554 16.661 11.7327C19.5284 14.2993 22.0961 16.9517 24.7717 19.7016C28.0766 23.0982 31.3849 26.6714 34.2109 30.5441" stroke="#BFBFBF" stroke-width="0.721875" stroke-linecap="round"/>
<path d="M21.9253 8.16602C22.6557 8.33597 24.0166 10.4156 24.704 11.0423C26.974 13.1122 29.0067 15.2512 31.1249 17.4689C33.7413 20.2081 36.3603 23.0897 38.5977 26.2129" stroke="#BFBFBF" stroke-width="0.721875" stroke-linecap="round"/>
<path d="M30.7026 8.16602C31.4331 8.33597 32.794 10.4156 33.4813 11.0423C35.7513 13.1122 37.7841 15.2512 39.9022 17.4689C42.5186 20.2081 45.1377 23.0897 47.375 26.2129" stroke="#BFBFBF" stroke-width="0.721875" stroke-linecap="round"/>
<path d="M39.476 8.16602C40.2065 8.33597 41.5674 10.4156 42.2548 11.0423C44.5247 13.1122 46.5575 15.2512 48.6757 17.4689C51.2921 20.2081 53.9111 23.0897 56.1484 26.2129" stroke="#BFBFBF" stroke-width="0.721875" stroke-linecap="round"/>
<path d="M48.2501 8.16602C49.2113 8.37676 51.0019 10.9554 51.9064 11.7327C54.8932 14.2993 57.5678 16.9517 60.3549 19.7016C63.7976 23.0982 67.2437 26.6714 70.1875 30.5441" stroke="#BFBFBF" stroke-width="0.721875" stroke-linecap="round"/>
<path d="M57.0268 8.16602C57.7573 8.33597 59.1182 10.4156 59.8056 11.0423C62.0755 13.1122 64.1083 15.2512 66.2265 17.4689C68.8429 20.2081 71.4619 23.0897 73.6992 26.2129" stroke="#BFBFBF" stroke-width="0.721875" stroke-linecap="round"/>
<path d="M65.8003 8.16602C66.5307 8.33597 67.8916 10.4156 68.579 11.0423C70.849 13.1122 72.8817 15.2512 74.9999 17.4689C77.6163 20.2081 80.2353 23.0897 82.4727 26.2129" stroke="#BFBFBF" stroke-width="0.721875" stroke-linecap="round"/>
<path d="M74.5737 8.16602C75.3042 8.33597 76.6651 10.4156 77.3524 11.0423C79.6224 13.1122 81.6551 15.2512 83.7733 17.4689C86.3897 20.2081 89.0088 23.0897 91.2461 26.2129" stroke="#BFBFBF" stroke-width="0.721875" stroke-linecap="round"/>
<path d="M83.351 8.16602C84.0815 8.33597 85.4424 10.4156 86.1298 11.0423C88.3997 13.1122 90.4325 15.2512 92.5507 17.4689C95.1671 20.2081 97.7861 23.0897 100.023 26.2129" stroke="#BFBFBF" stroke-width="0.721875" stroke-linecap="round"/>
<path d="M92.1237 8.16602C93.0464 8.37676 94.7654 10.9554 95.6337 11.7327C98.501 14.2993 101.069 16.9517 103.744 19.7016C107.049 23.0982 110.358 26.6714 113.184 30.5441" stroke="#BFBFBF" stroke-width="0.721875" stroke-linecap="round"/>
<path d="M100.902 8.16602C101.632 8.33597 102.993 10.4156 103.681 11.0423C105.951 13.1122 107.983 15.2512 110.101 17.4689C112.718 20.2081 115.337 23.0897 117.574 26.2129" stroke="#BFBFBF" stroke-width="0.721875" stroke-linecap="round"/>
<path d="M109.675 8.16602C110.406 8.33597 111.767 10.4156 112.454 11.0423C114.724 13.1122 116.757 15.2512 118.875 17.4689C121.491 20.2081 124.11 23.0897 126.348 26.2129" stroke="#BFBFBF" stroke-width="0.721875" stroke-linecap="round"/>
<path d="M118.453 8.16602C119.183 8.33597 120.544 10.4156 121.231 11.0423C123.501 13.1122 125.534 15.2512 127.652 17.4689C130.269 20.2081 132.888 23.0897 135.125 26.2129" stroke="#BFBFBF" stroke-width="0.721875" stroke-linecap="round"/>
<path d="M127.226 8.16602C128.264 8.40395 130.198 11.3154 131.174 12.1929C134.4 15.0907 137.289 18.0853 140.299 21.19C144.017 25.0249 147.739 29.0592 150.918 33.4316" stroke="#BFBFBF" stroke-width="0.721875" stroke-linecap="round"/>
<path d="M135.999 8.16602C136.73 8.33597 138.091 10.4156 138.778 11.0423C141.048 13.1122 143.081 15.2512 145.199 17.4689C147.816 20.2081 150.435 23.0897 152.672 26.2129" stroke="#BFBFBF" stroke-width="0.721875" stroke-linecap="round"/>
<path d="M144.773 8.16602C145.503 8.33597 146.864 10.4156 147.552 11.0423C149.822 13.1122 151.854 15.2512 153.973 17.4689C156.589 20.2081 159.208 23.0897 161.445 26.2129" stroke="#BFBFBF" stroke-width="0.721875" stroke-linecap="round"/>
<path d="M153.55 8.16602C154.281 8.33597 155.642 10.4156 156.329 11.0423C158.599 13.1122 160.632 15.2512 162.75 17.4689C165.366 20.2081 167.985 23.0897 170.223 26.2129" stroke="#BFBFBF" stroke-width="0.721875" stroke-linecap="round"/>
<path d="M162.328 8.16602C163.058 8.33597 164.419 10.4156 165.106 11.0423C167.376 13.1122 169.409 15.2512 171.527 17.4689C174.144 20.2081 176.763 23.0897 179 26.2129" stroke="#BFBFBF" stroke-width="0.721875" stroke-linecap="round"/>
<path d="M171.101 8.16602C171.832 8.33597 173.192 10.4156 173.88 11.0423C176.15 13.1122 178.182 15.2512 180.301 17.4689C182.917 20.2081 185.536 23.0897 187.773 26.2129" stroke="#BFBFBF" stroke-width="0.721875" stroke-linecap="round"/>
<path d="M179.874 8.16602C180.605 8.33597 181.966 10.4156 182.653 11.0423C184.923 13.1122 186.956 15.2512 189.074 17.4689C191.691 20.2081 194.31 23.0897 196.547 26.2129" stroke="#BFBFBF" stroke-width="0.721875" stroke-linecap="round"/>
<path d="M188.652 8.16602C189.382 8.33597 190.743 10.4156 191.431 11.0423C193.701 13.1122 195.733 15.2512 197.851 17.4689C200.468 20.2081 203.087 23.0897 205.324 26.2129" stroke="#BFBFBF" stroke-width="0.721875" stroke-linecap="round"/>
<path d="M197.424 8.16602C198.539 8.41754 200.616 11.4953 201.665 12.423C205.13 15.4864 208.232 18.6521 211.465 21.9342C215.459 25.9883 219.456 30.2531 222.871 34.8754" stroke="#BFBFBF" stroke-width="0.721875" stroke-linecap="round"/>
<path d="M206.199 8.16602C206.929 8.33597 208.29 10.4156 208.977 11.0423C211.247 13.1122 213.28 15.2512 215.398 17.4689C218.015 20.2081 220.634 23.0897 222.871 26.2129" stroke="#BFBFBF" stroke-width="0.721875" stroke-linecap="round"/>
<path d="M214.976 8.16602C215.707 8.33597 217.067 10.4156 217.755 11.0423C220.025 13.1122 222.057 15.2512 224.176 17.4689C226.792 20.2081 229.411 23.0897 231.648 26.2129" stroke="#BFBFBF" stroke-width="0.721875" stroke-linecap="round"/>
<path d="M223.749 8.16602C224.48 8.33597 225.841 10.4156 226.528 11.0423C228.798 13.1122 230.831 15.2512 232.949 17.4689C235.566 20.2081 238.185 23.0897 240.422 26.2129" stroke="#BFBFBF" stroke-width="0.721875" stroke-linecap="round"/>
<path d="M232.527 8.16602C233.257 8.33597 234.618 10.4156 235.306 11.0423C237.576 13.1122 239.608 15.2512 241.726 17.4689C244.343 20.2081 246.962 23.0897 249.199 26.2129" stroke="#BFBFBF" stroke-width="0.721875" stroke-linecap="round"/>
<path d="M241.298 8.16602C242.298 8.39715 244.16 11.2254 245.101 12.0778C248.207 14.8929 250.989 17.8019 253.887 20.8179C257.468 24.5433 261.052 28.4623 264.113 32.7098" stroke="#BFBFBF" stroke-width="0.721875" stroke-linecap="round"/>
<path d="M250.074 8.16602C250.804 8.33597 252.165 10.4156 252.852 11.0423C255.122 13.1122 257.155 15.2512 259.273 17.4689C261.89 20.2081 264.509 23.0897 266.746 26.2129" stroke="#BFBFBF" stroke-width="0.721875" stroke-linecap="round"/>
<path d="M258.847 8.16602C259.578 8.33597 260.938 10.4156 261.626 11.0423C263.896 13.1122 265.929 15.2512 268.047 17.4689C270.663 20.2081 273.282 23.0897 275.52 26.2129" stroke="#BFBFBF" stroke-width="0.721875" stroke-linecap="round"/>
<path d="M267.624 8.16602C268.355 8.33597 269.716 10.4156 270.403 11.0423C272.673 13.1122 274.706 15.2512 276.824 17.4689C279.441 20.2081 282.06 23.0897 284.297 26.2129" stroke="#BFBFBF" stroke-width="0.721875" stroke-linecap="round"/>
<path d="M276.402 8.16602C277.132 8.33597 278.493 10.4156 279.181 11.0423C281.451 13.1122 283.483 15.2512 285.601 17.4689C288.218 20.2081 290.837 23.0897 293.074 26.2129" stroke="#BFBFBF" stroke-width="0.721875" stroke-linecap="round"/>
<path d="M285.175 8.16602C285.906 8.33597 287.267 10.4156 287.954 11.0423C290.224 13.1122 292.257 15.2512 294.375 17.4689C296.991 20.2081 299.61 23.0897 301.848 26.2129" stroke="#BFBFBF" stroke-width="0.721875" stroke-linecap="round"/>
<path d="M293.949 8.16602C294.679 8.33597 296.04 10.4156 296.727 11.0423C298.997 13.1122 301.03 15.2512 303.148 17.4689C305.765 20.2081 308.384 23.0897 310.621 26.2129" stroke="#BFBFBF" stroke-width="0.721875" stroke-linecap="round"/>
<path d="M302.726 8.16602C303.457 8.33597 304.817 10.4156 305.505 11.0423C307.775 13.1122 309.807 15.2512 311.926 17.4689C314.542 20.2081 317.161 23.0897 319.398 26.2129" stroke="#BFBFBF" stroke-width="0.721875" stroke-linecap="round"/>
<path d="M311.499 8.16602C312.23 8.33597 313.591 10.4156 314.278 11.0423C316.548 13.1122 318.581 15.2512 320.699 17.4689C323.316 20.2081 325.935 23.0897 328.172 26.2129" stroke="#BFBFBF" stroke-width="0.721875" stroke-linecap="round"/>
<path d="M320.271 8.16602C321.386 8.41754 323.463 11.4953 324.513 12.423C327.977 15.4864 331.08 18.6521 334.313 21.9342C338.306 25.9883 342.304 30.2531 345.719 34.8754" stroke="#BFBFBF" stroke-width="0.721875" stroke-linecap="round"/>
<path d="M329.046 8.16602C329.777 8.33597 331.138 10.4156 331.825 11.0423C334.095 13.1122 336.128 15.2512 338.246 17.4689C340.862 20.2081 343.481 23.0897 345.719 26.2129" stroke="#BFBFBF" stroke-width="0.721875" stroke-linecap="round"/>
<path d="M337.824 8.16602C338.554 8.33597 339.915 10.4156 340.602 11.0423C342.872 13.1122 344.905 15.2512 347.023 17.4689C349.64 20.2081 352.259 23.0897 354.496 26.2129" stroke="#BFBFBF" stroke-width="0.721875" stroke-linecap="round"/>
<path d="M346.6 8.16602C347.714 8.41754 349.792 11.4953 350.841 12.423C354.305 15.4864 357.408 18.6521 360.641 21.9342C364.635 25.9883 368.632 30.2531 372.047 34.8754" stroke="#BFBFBF" stroke-width="0.721875" stroke-linecap="round"/>
<path d="M355.374 8.16602C356.105 8.33597 357.466 10.4156 358.153 11.0423C360.423 13.1122 362.456 15.2512 364.574 17.4689C367.191 20.2081 369.81 23.0897 372.047 26.2129" stroke="#BFBFBF" stroke-width="0.721875" stroke-linecap="round"/>
<path d="M364.148 8.16602C364.878 8.33597 366.239 10.4156 366.927 11.0423C369.197 13.1122 371.229 15.2512 373.348 17.4689C375.964 20.2081 378.583 23.0897 380.82 26.2129" stroke="#BFBFBF" stroke-width="0.721875" stroke-linecap="round"/>
</g>
<defs>
<filter id="filter0_d_2_14835" x="0" y="0" width="379" height="47" filterUnits="userSpaceOnUse" color-interpolation-filters="sRGB">
<feFlood flood-opacity="0" result="BackgroundImageFix"/>
<feColorMatrix in="SourceAlpha" type="matrix" values="0 0 0 0 0 0 0 0 0 0 0 0 0 0 0 0 0 0 127 0" result="hardAlpha"/>
<feOffset dy="4"/>
<feGaussianBlur stdDeviation="5"/>
<feComposite in2="hardAlpha" operator="out"/>
<feColorMatrix type="matrix" values="0 0 0 0 0 0 0 0 0 0 0 0 0 0 0 0 0 0 0.25 0"/>
<feBlend mode="normal" in2="BackgroundImageFix" result="effect1_dropShadow_2_14835"/>
<feBlend mode="normal" in="SourceGraphic" in2="effect1_dropShadow_2_14835" result="shape"/>
</filter>
<filter id="filter1_f_2_14835" x="-27.7219" y="9.60918" width="434.444" height="2.16543" filterUnits="userSpaceOnUse" color-interpolation-filters="sRGB">
<feFlood flood-opacity="0" result="BackgroundImageFix"/>
<feBlend mode="normal" in="SourceGraphic" in2="BackgroundImageFix" result="shape"/>
<feGaussianBlur stdDeviation="0.360938" result="effect1_foregroundBlur_2_14835"/>
</filter>
<filter id="filter2_f_2_14835" x="-27.7219" y="20.4373" width="434.444" height="2.16543" filterUnits="userSpaceOnUse" color-interpolation-filters="sRGB">
<feFlood flood-opacity="0" result="BackgroundImageFix"/>
<feBlend mode="normal" in="SourceGraphic" in2="BackgroundImageFix" result="shape"/>
<feGaussianBlur stdDeviation="0.360938" result="effect1_foregroundBlur_2_14835"/>
</filter>
<filter id="filter3_f_2_14835" x="-27.7219" y="23.2723" width="434.444" height="2.21914" filterUnits="userSpaceOnUse" color-interpolation-filters="sRGB">
<feFlood flood-opacity="0" result="BackgroundImageFix"/>
<feBlend mode="normal" in="SourceGraphic" in2="BackgroundImageFix" result="shape"/>
<feGaussianBlur stdDeviation="0.360938" result="effect1_foregroundBlur_2_14835"/>
</filter>
<filter id="filter4_f_2_14835" x="-27.7219" y="29.1014" width="434.444" height="2.16543" filterUnits="userSpaceOnUse" color-interpolation-filters="sRGB">
<feFlood flood-opacity="0" result="BackgroundImageFix"/>
<feBlend mode="normal" in="SourceGraphic" in2="BackgroundImageFix" result="shape"/>
<feGaussianBlur stdDeviation="0.360938" result="effect1_foregroundBlur_2_14835"/>
</filter>
<linearGradient id="paint0_linear_2_14835" x1="171.5" y1="27" x2="171.5" y2="0" gradientUnits="userSpaceOnUse">
<stop stop-color="#EFEFEF"/>
<stop offset="1" stop-color="white"/>
</linearGradient>
<clipPath id="clip0_2_14835">
<rect width="359" height="27" fill="white" transform="translate(10 6)"/>
</clipPath>
</defs>
</svg>
