<svg width="297" height="47" viewBox="0 0 297 47" fill="none" xmlns="http://www.w3.org/2000/svg">
<g clip-path="url(#clip0_2_19087)" filter="url(#filter0_d_2_19087)">
<rect width="277" height="27" transform="translate(10 6)" fill="url(#paint0_linear_2_19087)"/>
<g filter="url(#filter1_f_2_19087)">
<line x1="10" y1="10.6918" x2="287" y2="10.6918" stroke="#BFBFBF" stroke-width="0.721875"/>
</g>
<g filter="url(#filter2_f_2_19087)">
<line x1="10" y1="21.5199" x2="287" y2="21.5199" stroke="#BFBFBF" stroke-width="0.721875"/>
</g>
<g filter="url(#filter3_f_2_19087)">
<line x1="9.99996" y1="24.4086" x2="287" y2="24.3746" stroke="#BFBFBF" stroke-width="0.721875"/>
</g>
<g filter="url(#filter4_f_2_19087)">
<line x1="10" y1="30.184" x2="287" y2="30.184" stroke="#BFBFBF" stroke-width="0.721875"/>
</g>
<path d="M9.28125 33.432C226.181 33.432 113.528 31.9883 329.782 31.9883M175.981 32.7102C392.881 32.7102 281.076 31.9883 497.33 31.9883M321.19 33.432C538.09 33.432 429.721 32.9575 645.975 32.9575" stroke="#BFBFBF" stroke-width="0.721875" stroke-linecap="round"/>
<path d="M9.28125 30.5434C226.181 30.5434 113.528 29.0996 329.782 29.0996M175.981 29.8215C392.881 29.8215 281.076 29.0996 497.33 29.0996M321.19 30.5434C538.09 30.5434 429.721 30.0688 645.975 30.0688" stroke="#BFBFBF" stroke-width="0.721875" stroke-linecap="round"/>
<path d="M646.695 24.0465C429.795 24.0465 542.448 25.4902 326.195 25.4902M479.995 24.7684C263.095 24.7684 374.9 25.4902 158.647 25.4902M334.787 24.0465C117.887 24.0465 226.255 24.521 10.0015 24.521" stroke="#BFBFBF" stroke-width="0.721875" stroke-linecap="round"/>
<path d="M10 21.8813C226.9 21.8813 114.247 20.4375 330.501 20.4375M176.7 21.1594C393.6 21.1594 281.795 20.4375 498.049 20.4375M321.908 21.8813C538.808 21.8813 430.44 21.4067 646.694 21.4067" stroke="#BFBFBF" stroke-width="0.721875" stroke-linecap="round"/>
<path d="M10 11.7758C226.9 11.7758 114.247 10.332 330.501 10.332M176.7 11.0539C393.6 11.0539 281.795 10.332 498.049 10.332M321.908 11.7758C538.808 11.7758 430.44 11.3013 646.694 11.3013" stroke="#BFBFBF" stroke-width="0.721875" stroke-linecap="round"/>
<path d="M15.0503 8.16602C15.7807 8.33597 17.1416 10.4156 17.829 11.0423C20.099 13.1122 22.1317 15.2512 24.2499 17.4689C26.8663 20.2081 29.4853 23.0897 31.7227 26.2129" stroke="#BFBFBF" stroke-width="0.721875" stroke-linecap="round"/>
<path d="M23.8276 8.16602C24.5581 8.33597 25.919 10.4156 26.6063 11.0423C28.8763 13.1122 30.9091 15.2512 33.0272 17.4689C35.6436 20.2081 38.2627 23.0897 40.5 26.2129" stroke="#BFBFBF" stroke-width="0.721875" stroke-linecap="round"/>
<path d="M32.601 8.16602C33.3315 8.33597 34.6924 10.4156 35.3798 11.0423C37.6497 13.1122 39.6825 15.2512 41.8007 17.4689C44.4171 20.2081 47.0361 23.0897 49.2734 26.2129" stroke="#BFBFBF" stroke-width="0.721875" stroke-linecap="round"/>
<path d="M41.3745 8.16602C42.105 8.33597 43.4658 10.4156 44.1532 11.0423C46.4232 13.1122 48.4559 15.2512 50.5741 17.4689C53.1905 20.2081 55.8096 23.0897 58.0469 26.2129" stroke="#BFBFBF" stroke-width="0.721875" stroke-linecap="round"/>
<path d="M50.1511 8.16602C51.0738 8.37676 52.7928 10.9554 53.661 11.7327C56.5284 14.2993 59.0961 16.9517 61.7717 19.7016C65.0766 23.0982 68.3849 26.6714 71.2109 30.5441" stroke="#BFBFBF" stroke-width="0.721875" stroke-linecap="round"/>
<path d="M58.9253 8.16602C59.6557 8.33597 61.0166 10.4156 61.704 11.0423C63.974 13.1122 66.0067 15.2512 68.1249 17.4689C70.7413 20.2081 73.3603 23.0897 75.5977 26.2129" stroke="#BFBFBF" stroke-width="0.721875" stroke-linecap="round"/>
<path d="M67.7026 8.16602C68.4331 8.33597 69.794 10.4156 70.4813 11.0423C72.7513 13.1122 74.7841 15.2512 76.9022 17.4689C79.5186 20.2081 82.1377 23.0897 84.375 26.2129" stroke="#BFBFBF" stroke-width="0.721875" stroke-linecap="round"/>
<path d="M76.476 8.16602C77.2065 8.33597 78.5674 10.4156 79.2548 11.0423C81.5247 13.1122 83.5575 15.2512 85.6757 17.4689C88.2921 20.2081 90.9111 23.0897 93.1484 26.2129" stroke="#BFBFBF" stroke-width="0.721875" stroke-linecap="round"/>
<path d="M85.2501 8.16602C86.2113 8.37676 88.0019 10.9554 88.9064 11.7327C91.8932 14.2993 94.5678 16.9517 97.3549 19.7016C100.798 23.0982 104.244 26.6714 107.188 30.5441" stroke="#BFBFBF" stroke-width="0.721875" stroke-linecap="round"/>
<path d="M94.0268 8.16602C94.7573 8.33597 96.1182 10.4156 96.8056 11.0423C99.0755 13.1122 101.108 15.2512 103.226 17.4689C105.843 20.2081 108.462 23.0897 110.699 26.2129" stroke="#BFBFBF" stroke-width="0.721875" stroke-linecap="round"/>
<path d="M102.8 8.16602C103.531 8.33597 104.892 10.4156 105.579 11.0423C107.849 13.1122 109.882 15.2512 112 17.4689C114.616 20.2081 117.235 23.0897 119.473 26.2129" stroke="#BFBFBF" stroke-width="0.721875" stroke-linecap="round"/>
<path d="M111.574 8.16602C112.304 8.33597 113.665 10.4156 114.352 11.0423C116.622 13.1122 118.655 15.2512 120.773 17.4689C123.39 20.2081 126.009 23.0897 128.246 26.2129" stroke="#BFBFBF" stroke-width="0.721875" stroke-linecap="round"/>
<path d="M120.351 8.16602C121.082 8.33597 122.442 10.4156 123.13 11.0423C125.4 13.1122 127.432 15.2512 129.551 17.4689C132.167 20.2081 134.786 23.0897 137.023 26.2129" stroke="#BFBFBF" stroke-width="0.721875" stroke-linecap="round"/>
<path d="M129.124 8.16602C130.046 8.37676 131.765 10.9554 132.634 11.7327C135.501 14.2993 138.069 16.9517 140.744 19.7016C144.049 23.0982 147.358 26.6714 150.184 30.5441" stroke="#BFBFBF" stroke-width="0.721875" stroke-linecap="round"/>
<path d="M137.902 8.16602C138.632 8.33597 139.993 10.4156 140.681 11.0423C142.951 13.1122 144.983 15.2512 147.101 17.4689C149.718 20.2081 152.337 23.0897 154.574 26.2129" stroke="#BFBFBF" stroke-width="0.721875" stroke-linecap="round"/>
<path d="M146.675 8.16602C147.406 8.33597 148.767 10.4156 149.454 11.0423C151.724 13.1122 153.757 15.2512 155.875 17.4689C158.491 20.2081 161.11 23.0897 163.348 26.2129" stroke="#BFBFBF" stroke-width="0.721875" stroke-linecap="round"/>
<path d="M155.453 8.16602C156.183 8.33597 157.544 10.4156 158.231 11.0423C160.501 13.1122 162.534 15.2512 164.652 17.4689C167.269 20.2081 169.888 23.0897 172.125 26.2129" stroke="#BFBFBF" stroke-width="0.721875" stroke-linecap="round"/>
<path d="M164.226 8.16602C165.264 8.40395 167.198 11.3154 168.174 12.1929C171.4 15.0907 174.289 18.0853 177.299 21.19C181.017 25.0249 184.739 29.0592 187.918 33.4316" stroke="#BFBFBF" stroke-width="0.721875" stroke-linecap="round"/>
<path d="M172.999 8.16602C173.73 8.33597 175.091 10.4156 175.778 11.0423C178.048 13.1122 180.081 15.2512 182.199 17.4689C184.816 20.2081 187.435 23.0897 189.672 26.2129" stroke="#BFBFBF" stroke-width="0.721875" stroke-linecap="round"/>
<path d="M181.773 8.16602C182.503 8.33597 183.864 10.4156 184.552 11.0423C186.822 13.1122 188.854 15.2512 190.973 17.4689C193.589 20.2081 196.208 23.0897 198.445 26.2129" stroke="#BFBFBF" stroke-width="0.721875" stroke-linecap="round"/>
<path d="M190.55 8.16602C191.281 8.33597 192.642 10.4156 193.329 11.0423C195.599 13.1122 197.632 15.2512 199.75 17.4689C202.366 20.2081 204.985 23.0897 207.223 26.2129" stroke="#BFBFBF" stroke-width="0.721875" stroke-linecap="round"/>
<path d="M199.328 8.16602C200.058 8.33597 201.419 10.4156 202.106 11.0423C204.376 13.1122 206.409 15.2512 208.527 17.4689C211.144 20.2081 213.763 23.0897 216 26.2129" stroke="#BFBFBF" stroke-width="0.721875" stroke-linecap="round"/>
<path d="M208.101 8.16602C208.832 8.33597 210.192 10.4156 210.88 11.0423C213.15 13.1122 215.182 15.2512 217.301 17.4689C219.917 20.2081 222.536 23.0897 224.773 26.2129" stroke="#BFBFBF" stroke-width="0.721875" stroke-linecap="round"/>
<path d="M216.874 8.16602C217.605 8.33597 218.966 10.4156 219.653 11.0423C221.923 13.1122 223.956 15.2512 226.074 17.4689C228.691 20.2081 231.31 23.0897 233.547 26.2129" stroke="#BFBFBF" stroke-width="0.721875" stroke-linecap="round"/>
<path d="M225.652 8.16602C226.382 8.33597 227.743 10.4156 228.431 11.0423C230.701 13.1122 232.733 15.2512 234.851 17.4689C237.468 20.2081 240.087 23.0897 242.324 26.2129" stroke="#BFBFBF" stroke-width="0.721875" stroke-linecap="round"/>
<path d="M234.424 8.16602C235.539 8.41754 237.616 11.4953 238.665 12.423C242.13 15.4864 245.232 18.6521 248.465 21.9342C252.459 25.9883 256.456 30.2531 259.871 34.8754" stroke="#BFBFBF" stroke-width="0.721875" stroke-linecap="round"/>
<path d="M243.199 8.16602C243.929 8.33597 245.29 10.4156 245.977 11.0423C248.247 13.1122 250.28 15.2512 252.398 17.4689C255.015 20.2081 257.634 23.0897 259.871 26.2129" stroke="#BFBFBF" stroke-width="0.721875" stroke-linecap="round"/>
<path d="M251.976 8.16602C252.707 8.33597 254.067 10.4156 254.755 11.0423C257.025 13.1122 259.057 15.2512 261.176 17.4689C263.792 20.2081 266.411 23.0897 268.648 26.2129" stroke="#BFBFBF" stroke-width="0.721875" stroke-linecap="round"/>
<path d="M260.749 8.16602C261.48 8.33597 262.841 10.4156 263.528 11.0423C265.798 13.1122 267.831 15.2512 269.949 17.4689C272.566 20.2081 275.185 23.0897 277.422 26.2129" stroke="#BFBFBF" stroke-width="0.721875" stroke-linecap="round"/>
<path d="M269.527 8.16602C270.257 8.33597 271.618 10.4156 272.306 11.0423C274.576 13.1122 276.608 15.2512 278.726 17.4689C281.343 20.2081 283.962 23.0897 286.199 26.2129" stroke="#BFBFBF" stroke-width="0.721875" stroke-linecap="round"/>
<path d="M278.298 8.16602C279.298 8.39715 281.16 11.2254 282.101 12.0778C285.207 14.8929 287.989 17.8019 290.887 20.8179C294.468 24.5433 298.052 28.4623 301.113 32.7098" stroke="#BFBFBF" stroke-width="0.721875" stroke-linecap="round"/>
<path d="M287.074 8.16602C287.804 8.33597 289.165 10.4156 289.852 11.0423C292.122 13.1122 294.155 15.2512 296.273 17.4689C298.89 20.2081 301.509 23.0897 303.746 26.2129" stroke="#BFBFBF" stroke-width="0.721875" stroke-linecap="round"/>
</g>
<defs>
<filter id="filter0_d_2_19087" x="0" y="0" width="297" height="47" filterUnits="userSpaceOnUse" color-interpolation-filters="sRGB">
<feFlood flood-opacity="0" result="BackgroundImageFix"/>
<feColorMatrix in="SourceAlpha" type="matrix" values="0 0 0 0 0 0 0 0 0 0 0 0 0 0 0 0 0 0 127 0" result="hardAlpha"/>
<feOffset dy="4"/>
<feGaussianBlur stdDeviation="5"/>
<feComposite in2="hardAlpha" operator="out"/>
<feColorMatrix type="matrix" values="0 0 0 0 0 0 0 0 0 0 0 0 0 0 0 0 0 0 0.25 0"/>
<feBlend mode="normal" in2="BackgroundImageFix" result="effect1_dropShadow_2_19087"/>
<feBlend mode="normal" in="SourceGraphic" in2="effect1_dropShadow_2_19087" result="shape"/>
</filter>
<filter id="filter1_f_2_19087" x="9.27812" y="9.60918" width="278.444" height="2.16543" filterUnits="userSpaceOnUse" color-interpolation-filters="sRGB">
<feFlood flood-opacity="0" result="BackgroundImageFix"/>
<feBlend mode="normal" in="SourceGraphic" in2="BackgroundImageFix" result="shape"/>
<feGaussianBlur stdDeviation="0.360938" result="effect1_foregroundBlur_2_19087"/>
</filter>
<filter id="filter2_f_2_19087" x="9.27812" y="20.4373" width="278.444" height="2.16543" filterUnits="userSpaceOnUse" color-interpolation-filters="sRGB">
<feFlood flood-opacity="0" result="BackgroundImageFix"/>
<feBlend mode="normal" in="SourceGraphic" in2="BackgroundImageFix" result="shape"/>
<feGaussianBlur stdDeviation="0.360938" result="effect1_foregroundBlur_2_19087"/>
</filter>
<filter id="filter3_f_2_19087" x="9.27812" y="23.2918" width="278.444" height="2.19961" filterUnits="userSpaceOnUse" color-interpolation-filters="sRGB">
<feFlood flood-opacity="0" result="BackgroundImageFix"/>
<feBlend mode="normal" in="SourceGraphic" in2="BackgroundImageFix" result="shape"/>
<feGaussianBlur stdDeviation="0.360938" result="effect1_foregroundBlur_2_19087"/>
</filter>
<filter id="filter4_f_2_19087" x="9.27812" y="29.1014" width="278.444" height="2.16543" filterUnits="userSpaceOnUse" color-interpolation-filters="sRGB">
<feFlood flood-opacity="0" result="BackgroundImageFix"/>
<feBlend mode="normal" in="SourceGraphic" in2="BackgroundImageFix" result="shape"/>
<feGaussianBlur stdDeviation="0.360938" result="effect1_foregroundBlur_2_19087"/>
</filter>
<linearGradient id="paint0_linear_2_19087" x1="151" y1="27" x2="151" y2="-4.8136e-07" gradientUnits="userSpaceOnUse">
<stop stop-color="#E3E3E3"/>
<stop offset="1" stop-color="white" stop-opacity="0"/>
</linearGradient>
<clipPath id="clip0_2_19087">
<rect width="277" height="27" fill="white" transform="translate(10 6)"/>
</clipPath>
</defs>
</svg>
