<svg width="102" height="24" viewBox="0 0 102 24" fill="none" xmlns="http://www.w3.org/2000/svg">
<path fill-rule="evenodd" clip-rule="evenodd" d="M2.95412 13.1741C3.22597 13.0814 3.4538 13.0311 3.63768 13.0234C3.82162 13.0157 3.93348 13.035 3.97348 13.0814C4.01348 13.1277 3.97348 13.1895 3.85356 13.2668C3.73364 13.3441 3.50581 13.4136 3.17001 13.4754C2.78629 13.5527 2.46653 13.7034 2.21065 13.9274C1.95484 14.1515 1.76298 14.4142 1.635 14.7155C1.5071 15.0168 1.44717 15.3453 1.45516 15.7006C1.46314 16.0561 1.53911 16.4037 1.68305 16.7437C1.87491 17.1301 2.15468 17.5126 2.52243 17.8911C2.89024 18.2698 3.34985 18.6058 3.90154 18.8995C4.45316 19.1931 5.09269 19.4325 5.8202 19.618C6.5477 19.8034 7.37513 19.8962 8.30255 19.8962C9.67764 19.8962 10.9488 19.703 12.116 19.3167C13.2832 18.9304 14.3145 18.4359 15.2099 17.8332C16.1053 17.2305 16.8488 16.566 17.4404 15.8398C18.032 15.1134 18.4397 14.4103 18.6636 13.7304C19.064 12.5142 18.9065 11.235 17.5123 10.7634C16.9367 10.5625 16.2932 10.4543 15.5816 10.4389C14.8702 10.4234 14.2145 10.4234 13.6149 10.4389C13.0153 10.4543 12.5357 10.4504 12.176 10.4273C11.8162 10.4042 11.7003 10.2767 11.8282 10.0448C12.0041 9.7667 12.2798 9.55804 12.6556 9.41898C13.0314 9.27992 13.4671 9.15625 13.9628 9.04809C14.4584 8.93993 14.9941 8.83178 15.5696 8.72362C16.1453 8.61546 16.7249 8.45316 17.3085 8.23684C17.8921 8.02053 18.4517 7.73072 18.9874 7.36762C19.523 7.00445 19.9987 6.52157 20.4144 5.91891C20.9101 5.17713 21.1099 4.49332 21.0139 3.86748C20.9181 3.24165 20.6143 2.70852 20.1026 2.2681C19.5909 1.82767 18.9074 1.4993 18.052 1.28299C17.1966 1.06661 16.2572 1.0048 15.2339 1.09751C14.4504 1.17477 13.7669 1.3409 13.1832 1.59591C12.5997 1.85085 12.12 2.14832 11.7443 2.48831C11.3685 2.82823 11.0887 3.1914 10.9048 3.57774C10.7209 3.96409 10.625 4.32329 10.617 4.65562C10.609 4.98782 10.693 5.26984 10.8689 5.5016C11.0447 5.73343 11.3006 5.86477 11.6363 5.89567C11.8761 5.92664 12.0401 5.98065 12.128 6.05797C12.216 6.13523 12.2359 6.20476 12.1879 6.26656C12.14 6.32837 12.032 6.37089 11.8641 6.39407C11.6963 6.41724 11.4764 6.39017 11.2046 6.31292C10.2133 6.05025 9.60167 5.633 9.36982 5.06124C9.13803 4.48942 9.22997 3.89449 9.64569 3.27638C10.0614 2.65827 10.7809 2.08651 11.8042 1.56111C12.8275 1.03571 14.1066 0.695713 15.6416 0.541203C16.3291 0.479399 17.0287 0.487124 17.7402 0.564379C18.4517 0.641635 19.1193 0.792318 19.7429 1.01636C20.3664 1.24047 20.9141 1.52631 21.3857 1.87403C21.8574 2.22174 22.2012 2.62737 22.417 3.09097C22.6329 3.55456 22.6969 4.07224 22.6089 4.644C22.521 5.21576 22.2211 5.83387 21.7095 6.49833C21.4377 6.83832 21.0939 7.15896 20.6782 7.46033C20.2625 7.76162 19.8068 8.03591 19.3112 8.2832C18.8155 8.53041 18.3118 8.75062 17.8001 8.94383C17.2885 9.13697 16.8168 9.28765 16.3851 9.39581C17.1206 9.41126 17.8081 9.54259 18.4477 9.78988C19.423 10.1762 20.0706 10.7016 20.3904 11.3661C20.7102 12.0305 20.7502 12.7569 20.5104 13.545C20.2705 14.3331 19.7868 15.1328 19.0593 15.944C18.3318 16.7553 17.4164 17.4932 16.3132 18.1577C15.2099 18.8222 13.9507 19.363 12.5357 19.7803C11.1206 20.1975 9.6057 20.4061 7.99077 20.4061C6.99946 20.4061 6.07607 20.3327 5.22059 20.186C4.36518 20.0391 3.60171 19.8343 2.93017 19.5717C2.25863 19.3089 1.69104 18.9883 1.22733 18.6097C0.763619 18.2311 0.43587 17.8178 0.244011 17.3696C-0.123802 16.566 -0.0757553 15.7741 0.387887 14.9937C0.851596 14.2133 1.70701 13.6068 2.95412 13.1741Z" fill="white"/>
<path fill-rule="evenodd" clip-rule="evenodd" d="M62.8578 16.2886C62.7459 17.1231 62.8018 17.8611 63.0257 18.5023C63.2496 19.1436 63.5813 19.6883 64.021 20.1365C64.4608 20.5847 64.9884 20.9517 65.604 21.2376C66.2196 21.5235 66.8592 21.7321 67.5227 21.8634C68.1863 21.9948 68.8539 22.0566 69.5254 22.0488C70.1969 22.0411 70.8125 21.9755 71.3722 21.8518C73.0511 21.481 74.4861 20.971 75.6774 20.3219C76.8685 19.6729 77.8879 18.9273 78.7354 18.0851C79.5828 17.2428 80.2863 16.335 80.8459 15.3614C81.4056 14.3879 81.8932 13.3989 82.309 12.3944C82.7087 11.4362 83.1445 10.4743 83.6161 9.50848C84.0878 8.54272 84.6235 7.63091 85.2231 6.77324C85.8227 5.91557 86.4902 5.13906 87.2257 4.44369C87.9612 3.74826 88.8007 3.19196 89.7441 2.77471C90.1918 2.57385 90.7235 2.38447 91.3391 2.20678C91.9546 2.02909 92.6861 1.91704 93.5336 1.87069C93.5496 1.87069 93.5096 1.92087 93.4137 2.02137C93.3178 2.12187 93.2018 2.22996 93.0659 2.34591C92.93 2.46179 92.7941 2.57385 92.6582 2.682C92.5223 2.79016 92.4303 2.84424 92.3824 2.84424C92.1425 2.87521 91.9266 2.90221 91.7348 2.92539C91.5429 2.94857 91.3591 2.98337 91.1832 3.02972C91.0072 3.07607 90.8274 3.13781 90.6435 3.21513C90.4597 3.29245 90.2478 3.39282 90.0079 3.51649C89.1445 3.96464 88.369 4.55178 87.6815 5.27818C86.9939 6.00452 86.3863 6.78869 85.8586 7.63091C85.331 8.47313 84.8793 9.31924 84.5035 10.1691C84.1278 11.0191 83.812 11.7763 83.5562 12.4408C83.0605 13.8161 82.4489 15.1258 81.7214 16.3698C80.9938 17.6137 80.1384 18.7226 79.155 19.6961C78.1717 20.6697 77.0565 21.4848 75.8093 22.1416C74.5621 22.7983 73.163 23.2194 71.612 23.4049C70.2369 23.5749 68.9098 23.517 67.6306 23.231C66.3514 22.9451 65.2522 22.4507 64.3328 21.7475C63.4134 21.0444 62.7538 20.1481 62.3541 19.0586C61.6625 17.1736 63.3261 12.7795 62.8578 16.2886ZM96.4837 12.3481C96.4037 12.5798 96.2958 12.8928 96.1599 13.2868C96.024 13.6809 95.8801 14.1213 95.7282 14.6081C95.5763 15.0948 95.4323 15.5971 95.2964 16.1148C95.1606 16.6325 95.0605 17.1231 94.9967 17.5867C94.9327 18.0503 94.9127 18.4675 94.9367 18.8384C94.9607 19.2093 95.0605 19.4875 95.2365 19.6729C95.3963 19.843 95.5923 19.9317 95.8241 19.9395C96.0559 19.9472 96.3077 19.8583 96.5796 19.6729C96.8834 19.4566 97.1752 19.1862 97.4551 18.8616C97.7348 18.5371 97.9986 18.1855 98.2465 17.8069C98.4944 17.4283 98.7301 17.0381 98.954 16.6363C99.1779 16.2345 99.3858 15.8482 99.5776 15.4774C99.7056 15.2146 99.8295 15.1065 99.9494 15.1528C100.069 15.1992 100.065 15.3614 99.9374 15.6396C99.6176 16.2732 99.3378 16.8102 99.098 17.2506C98.8581 17.691 98.6302 18.0735 98.4144 18.398C98.1985 18.7226 97.9787 19.0085 97.7548 19.2557C97.531 19.5029 97.2832 19.7502 97.0113 19.9974C96.5955 20.3993 96.1439 20.658 95.6562 20.774C95.1685 20.8899 94.7169 20.8397 94.3011 20.6233C93.9333 20.4378 93.6855 20.1481 93.5576 19.754C93.4296 19.36 93.3777 18.9118 93.4017 18.4096C93.4257 17.9074 93.5096 17.3665 93.6535 16.787C93.7975 16.2075 93.9613 15.6396 94.1452 15.0833C94.3291 14.527 94.5089 14.0092 94.6849 13.5302C94.8608 13.0512 94.9967 12.6571 95.0925 12.3481C95.1405 12.1626 95.2685 11.8071 95.4763 11.2818C95.6842 10.7564 95.936 10.1459 96.2318 9.45058C96.5277 8.75514 96.8594 8.02115 97.2272 7.24846C97.595 6.47578 97.9707 5.75334 98.3544 5.08115C98.7382 4.40889 99.118 3.83714 99.4937 3.36581C99.8694 2.89442 100.217 2.60468 100.537 2.49652C100.777 2.41927 101.009 2.35363 101.233 2.29955C101.456 2.24541 101.64 2.21061 101.784 2.19523C101.928 2.17977 102 2.19523 102 2.24158C102 2.28793 101.888 2.36526 101.664 2.47335C101.552 2.53515 101.301 2.82489 100.909 3.34264C100.517 3.86031 100.065 4.55575 99.5536 5.4288C99.0419 6.30192 98.5103 7.32955 97.9587 8.51175C97.4071 9.69396 96.9154 10.9726 96.4837 12.3481ZM88.1372 12.0235C88.0572 12.2553 87.9493 12.5683 87.8134 12.9623C87.6775 13.3564 87.5336 13.7968 87.3816 14.2836C87.2297 14.7704 87.0858 15.2725 86.9499 15.7903C86.814 16.308 86.714 16.7986 86.6502 17.2622C86.5862 17.7258 86.5662 18.143 86.5902 18.5139C86.6142 18.8848 86.714 19.163 86.89 19.3484C87.2257 19.6883 87.6575 19.6729 88.1851 19.302C88.6807 18.9466 89.1645 18.3942 89.6361 17.6447C90.1078 16.8952 90.5356 16.0646 90.9193 15.1528C91.7028 13.2675 92.4624 11.6488 93.1979 10.2966C93.9333 8.94445 94.6249 7.81249 95.2725 6.90075C95.92 5.989 96.5277 5.25494 97.0953 4.69863C97.6629 4.14233 98.1706 3.7097 98.6183 3.40054C99.066 3.09146 99.4497 2.87904 99.7695 2.76315C100.089 2.6472 100.345 2.55833 100.537 2.49652C100.905 2.37291 101.129 2.3189 101.209 2.33429C101.289 2.34974 101.344 2.37291 101.376 2.40382C101.408 2.45017 101.388 2.50432 101.316 2.56612C101.245 2.62786 101.145 2.69356 101.017 2.76315C100.889 2.83268 100.737 2.90604 100.561 2.98337C100.385 3.06062 100.217 3.13015 100.057 3.19195C99.4497 3.42379 98.8621 3.78306 98.2945 4.26983C97.7269 4.75661 97.1752 5.32454 96.6396 5.97355C96.1038 6.62256 95.5923 7.33734 95.1046 8.11769C94.6168 8.89803 94.1612 9.69014 93.7374 10.4937C93.3138 11.2972 92.918 12.0892 92.5503 12.8696C92.1825 13.65 91.8628 14.3801 91.5909 15.0601C91.1271 16.1727 90.6636 17.0961 90.1998 17.8301C89.7361 18.5641 89.2244 19.1862 88.6648 19.6961C88.249 20.0979 87.7974 20.3529 87.3097 20.461C86.822 20.5692 86.3703 20.5151 85.9546 20.2988C85.5868 20.1134 85.339 19.8236 85.2111 19.4295C85.0831 19.0355 85.0312 18.5873 85.0552 18.0851C85.0792 17.5829 85.1631 17.042 85.307 16.4625C85.451 15.883 85.6148 15.3151 85.7987 14.7588C85.9825 14.2024 86.1624 13.6847 86.3383 13.2057C86.5143 12.7267 86.6502 12.3326 86.7461 12.0235C86.794 11.8381 86.922 11.4827 87.1298 10.9573C87.3377 10.4319 87.5895 9.8214 87.8853 9.12604C88.1811 8.4306 88.5128 7.69661 88.8807 6.92392C89.2485 6.15124 89.6242 5.4288 90.0079 4.75661C90.3916 4.08435 90.7715 3.51266 91.1472 3.04127C91.5229 2.56995 91.8707 2.28021 92.1905 2.17205C92.4304 2.09473 92.6621 2.02909 92.886 1.97501C93.1099 1.92087 93.2937 1.88614 93.4377 1.87069C93.5816 1.8553 93.6535 1.87069 93.6535 1.91704C93.6535 1.96339 93.5416 2.04071 93.3178 2.14887C93.2058 2.21061 92.954 2.50042 92.5622 3.0181C92.1704 3.53584 91.7188 4.23121 91.2071 5.10433C90.6954 5.97738 90.1638 7.00508 89.6122 8.18722C89.0606 9.36942 88.5689 10.6482 88.1372 12.0235Z" fill="white"/>
<path fill-rule="evenodd" clip-rule="evenodd" d="M30.8874 11.3248C30.7115 11.6802 30.4916 12.0975 30.2278 12.5765C29.964 13.0555 29.6722 13.5192 29.3524 13.9673C29.0326 14.4154 28.6928 14.7979 28.3331 15.1147C27.9733 15.4315 27.6176 15.6053 27.2658 15.6362C27.0739 15.6517 26.866 15.6169 26.6422 15.5319C26.4184 15.4469 26.2345 15.2924 26.0906 15.0683C25.9467 14.8442 25.8627 14.5352 25.8388 14.1411C25.8148 13.747 25.8907 13.2487 26.0666 12.646C25.8747 12.9551 25.6269 13.3144 25.3231 13.7239C25.0193 14.1334 24.6915 14.5004 24.3398 14.8249C23.8761 15.2576 23.4484 15.5126 23.0567 15.5899C22.6649 15.6671 22.3331 15.6092 22.0613 15.416C21.7895 15.2228 21.5937 14.9176 21.4737 14.5004C21.3537 14.0832 21.3338 13.5925 21.4137 13.0285C21.4937 12.4645 21.6895 11.8464 22.0013 11.1741C22.3132 10.5019 22.7728 9.81817 23.3804 9.12274C23.7322 8.70549 24.1599 8.35011 24.6636 8.05648C25.1672 7.76284 25.6789 7.55425 26.1985 7.43064C26.7182 7.30697 27.2218 7.29152 27.7095 7.38429C28.1972 7.477 28.6089 7.70104 28.9447 8.05648C29.1206 8.22651 29.1725 8.38868 29.1006 8.54325C29.0286 8.69776 28.8887 8.75957 28.6808 8.72867C28.553 8.29597 28.2931 8.0333 27.9014 7.9406C27.5097 7.84789 27.0899 7.91742 26.6422 8.14918C26.0986 8.44282 25.5389 8.8948 24.9634 9.50525C24.3877 10.1156 23.8841 10.7685 23.4524 11.4638C23.4044 11.5412 23.3325 11.6648 23.2365 11.8347C23.1406 12.0048 23.0407 12.2018 22.9367 12.4258C22.8328 12.6499 22.7369 12.8817 22.6489 13.1212C22.5609 13.3607 22.501 13.5887 22.469 13.805C22.4051 14.2068 22.433 14.5004 22.5529 14.6859C22.6729 14.8713 22.8408 14.964 23.0567 14.964C23.2725 14.964 23.5243 14.8752 23.8121 14.6974C24.0999 14.5197 24.3877 14.2686 24.6755 13.9441C25.0913 13.4496 25.471 12.9281 25.8147 12.3795C26.1585 11.8309 26.4903 11.2707 26.8101 10.6989C27.0819 10.2044 27.3258 9.82589 27.5416 9.56316C27.7575 9.30049 28.0573 9.18454 28.441 9.21544C28.6009 9.23089 28.7648 9.25797 28.9327 9.29659C29.1006 9.33522 29.2724 9.33912 29.4483 9.30822C29.3204 9.43182 29.1486 9.65976 28.9327 9.99196C28.7168 10.3242 28.493 10.7028 28.2611 11.1277C28.0293 11.5527 27.8174 11.9893 27.6256 12.4374C27.4337 12.8856 27.2977 13.2873 27.2178 13.6428C27.026 14.57 27.106 15.0335 27.4577 15.0335C27.7135 15.049 27.9933 14.9022 28.2971 14.5932C28.6009 14.2841 28.9007 13.9132 29.1965 13.4805C29.4923 13.0478 29.7602 12.6112 29.9999 12.1708C30.2398 11.7305 30.4237 11.3867 30.5516 11.1394C30.6635 10.9385 30.7754 10.8612 30.8874 10.9076C30.9993 10.954 30.9993 11.093 30.8874 11.3248ZM34.5329 12.5997C34.3251 12.9551 34.0972 13.3067 33.8494 13.6543C33.6015 14.002 33.3377 14.3189 33.0579 14.6047C32.7781 14.8906 32.4863 15.1224 32.1825 15.3001C31.8787 15.4778 31.5829 15.5667 31.2951 15.5667C31.1672 15.5667 31.0273 15.5551 30.8754 15.5319C30.7235 15.5087 30.5756 15.4585 30.4316 15.3812C30.2878 15.304 30.1558 15.1958 30.0359 15.0567C29.916 14.9176 29.832 14.7399 29.7841 14.5236C29.7361 14.2763 29.7282 14.0368 29.7602 13.805C29.7921 13.5732 29.8521 13.3453 29.94 13.1212C30.0279 12.8972 30.1319 12.6808 30.2518 12.4722C30.3717 12.2635 30.4877 12.0511 30.5995 11.8347C30.5196 11.8347 30.4437 11.8116 30.3717 11.7652C30.2998 11.7189 30.3037 11.6184 30.3837 11.4638C30.4636 11.3402 30.5356 11.2089 30.5995 11.0698C30.6635 10.9308 30.7354 10.7917 30.8154 10.6526C31.0553 10.2044 31.2951 9.7563 31.5349 9.30822C31.7748 8.86007 31.9826 8.45827 32.1585 8.10283C32.2545 7.91742 32.3783 7.78991 32.5303 7.72038C32.6821 7.65085 32.87 7.61606 33.0939 7.61606H34.5569C34.413 7.70876 34.2851 7.80537 34.1732 7.9058C34.0613 8.00623 33.9453 8.12601 33.8254 8.26507C33.7055 8.40413 33.5816 8.57416 33.4537 8.77502C33.3257 8.97595 33.1818 9.23862 33.0219 9.56316C32.7981 9.96495 32.5982 10.3512 32.4224 10.7221C32.2465 11.0467 32.0786 11.3789 31.9187 11.7189C31.7587 12.0588 31.6229 12.337 31.511 12.5533C31.2232 13.156 31.0632 13.6582 31.0312 14.06C30.9993 14.4618 31.0592 14.7438 31.2112 14.9061C31.363 15.0683 31.5909 15.0915 31.8946 14.9756C32.1985 14.8597 32.5423 14.5854 32.926 14.1527C33.2618 13.7818 33.5935 13.3414 33.9213 12.8315C34.2491 12.3215 34.5649 11.7923 34.8687 11.2437C35.1725 10.6951 35.4643 10.1504 35.7441 9.60951C36.0239 9.06866 36.2757 8.56643 36.4996 8.10283C36.5955 7.91742 36.7194 7.78991 36.8714 7.72038C37.0232 7.65085 37.2111 7.61606 37.435 7.61606H38.7301C38.5542 7.75512 38.4023 7.88262 38.2744 7.9985C38.1465 8.11445 38.0226 8.25734 37.9027 8.41964C37.7827 8.58188 37.6588 8.78275 37.5309 9.0223C37.403 9.2618 37.2511 9.56316 37.0752 9.9186C36.8993 10.2431 36.7275 10.5792 36.5596 10.9308C36.3917 11.2784 36.2318 11.6184 36.0798 11.9545C35.928 12.2868 35.7961 12.5958 35.6841 12.8817C35.5722 13.1676 35.5003 13.4148 35.4683 13.6157C35.3564 14.1102 35.3604 14.4656 35.4802 14.6742C35.6002 14.8829 35.7481 14.9949 35.924 15.0103C36.1478 15.0103 36.3717 14.9331 36.5955 14.7786C36.8194 14.6241 37.0432 14.4231 37.2671 14.1721C37.6028 13.8012 37.9346 13.3607 38.2624 12.8469C38.5902 12.337 38.906 11.8038 39.2098 11.2553C39.5136 10.7028 39.8054 10.1581 40.0852 9.61724C40.365 9.07249 40.6169 8.57026 40.8407 8.10283C40.9366 7.91742 41.0605 7.78991 41.2124 7.72038C41.3643 7.65085 41.5522 7.61606 41.7761 7.61606H43.0712C42.8953 7.75512 42.7434 7.88262 42.6154 7.9985C42.4875 8.11445 42.3637 8.25734 42.2437 8.41964C42.1238 8.58188 41.9999 8.78275 41.872 9.0223C41.7441 9.2618 41.5921 9.56316 41.4162 9.9186C41.2404 10.2431 41.0685 10.5792 40.9006 10.9308C40.7328 11.2784 40.5728 11.6184 40.421 11.9545C40.2691 12.2868 40.1371 12.5958 40.0253 12.8817C39.9133 13.1676 39.8413 13.4148 39.8094 13.6157C39.6974 14.1102 39.7015 14.4656 39.8214 14.6742C39.9413 14.8829 40.0891 14.9949 40.265 15.0103C40.5528 15.0103 40.8447 14.8867 41.1405 14.6395C41.4363 14.3922 41.72 14.0793 41.9919 13.7007C42.2637 13.3221 42.5235 12.9049 42.7714 12.449C43.0192 11.9931 43.2471 11.5566 43.4549 11.1394C43.5508 10.9385 43.6588 10.8651 43.7787 10.9192C43.8986 10.9732 43.9026 11.1162 43.7907 11.348C43.5988 11.7498 43.375 12.1941 43.1192 12.6808C42.8633 13.1676 42.5755 13.6273 42.2558 14.06C41.9359 14.4927 41.5841 14.852 41.2004 15.1378C40.8167 15.4237 40.409 15.5667 39.9772 15.5667C39.7054 15.5667 39.4656 15.501 39.2578 15.3697C39.0499 15.2383 38.894 15.0451 38.7901 14.7902C38.6861 14.5352 38.6341 14.2223 38.6341 13.8514C38.6341 13.4805 38.7141 13.0632 38.874 12.5997C38.7301 12.8624 38.5422 13.1637 38.3104 13.5037C38.0785 13.8436 37.8187 14.1644 37.5309 14.4656C37.2431 14.767 36.9393 15.0258 36.6195 15.2422C36.2997 15.4585 35.9719 15.5667 35.6362 15.5667C35.3643 15.5667 35.1245 15.501 34.9167 15.3697C34.7088 15.2383 34.5529 15.0451 34.4489 14.7902C34.3451 14.5352 34.2931 14.2223 34.2931 13.8514C34.2931 13.4805 34.373 13.0632 34.5329 12.5997ZM39.0899 16.5865C38.9619 16.772 38.806 16.9613 38.6222 17.1545C38.4382 17.3477 38.2265 17.5215 37.9866 17.676C37.7468 17.8306 37.479 17.9542 37.1831 18.0469C36.8873 18.1396 36.5715 18.1783 36.2358 18.1628C35.916 18.1474 35.6082 18.1009 35.3124 18.0238C35.0166 17.9464 34.7248 17.8653 34.437 17.7803C34.1492 17.6953 33.8614 17.6181 33.5736 17.5485C33.2858 17.479 32.9979 17.4365 32.7101 17.421C32.3424 17.3901 32.0346 17.4404 31.7867 17.5717C31.5389 17.703 31.3431 17.8615 31.1991 18.0469C31.1832 18.0778 31.1352 18.0971 31.0553 18.1048C30.9753 18.1126 30.8954 18.1126 30.8154 18.1048C30.7354 18.0971 30.6635 18.0855 30.5995 18.07C30.5356 18.0546 30.5037 18.0315 30.5037 18.0005C30.7755 17.6606 31.1552 17.3245 31.6429 16.9922C32.1305 16.66 32.7101 16.5093 33.3817 16.5403C33.6855 16.5557 33.9853 16.5943 34.2811 16.6561C34.5769 16.7179 34.8727 16.7913 35.1685 16.8763C35.4643 16.9613 35.7521 17.0386 36.0319 17.1081C36.3118 17.1776 36.5955 17.2201 36.8833 17.2356C37.2831 17.2665 37.6108 17.2163 37.8667 17.0849C38.1225 16.9536 38.3383 16.7797 38.5142 16.5634C38.5142 16.548 38.5502 16.5364 38.6222 16.5286C38.6941 16.5209 38.7661 16.517 38.838 16.517C38.91 16.517 38.974 16.5247 39.0299 16.5403C39.0859 16.5557 39.1058 16.5712 39.0899 16.5865ZM55.9505 11.3248C55.7747 11.6802 55.5547 12.1052 55.2909 12.5997C55.0271 13.0942 54.7273 13.5693 54.3915 14.0252C54.0558 14.4811 53.684 14.8713 53.2763 15.1958C52.8686 15.5203 52.4408 15.6826 51.9932 15.6826C51.7693 15.6826 51.5454 15.644 51.3216 15.5667C51.0978 15.4894 50.9099 15.3465 50.758 15.1378C50.6061 14.9292 50.5141 14.6511 50.4822 14.3034C50.4502 13.9557 50.5221 13.5114 50.698 12.9706C50.794 12.6615 50.9539 12.31 51.1777 11.9159C51.4016 11.5218 51.6814 11.0621 52.0171 10.5367C52.161 10.3049 52.241 10.104 52.257 9.93405C52.2729 9.76402 52.213 9.66359 52.0771 9.63269C51.9412 9.60179 51.7293 9.66359 51.4415 9.81817C51.1537 9.97268 50.778 10.2585 50.3143 10.6758C50.0585 10.9076 49.7507 11.2282 49.3909 11.6377C49.0311 12.0472 48.6834 12.4876 48.3476 12.959C48.0119 13.4303 47.712 13.9016 47.4482 14.3729C47.1844 14.8442 47.0125 15.2499 46.9326 15.5899C46.6608 15.5899 46.4489 15.4624 46.297 15.2074C46.1451 14.9524 46.1011 14.655 46.1651 14.315C46.2451 13.805 46.381 13.3453 46.5728 12.9358C46.7647 12.5263 46.9646 12.1052 47.1724 11.6725C47.3643 11.2862 47.5402 10.9076 47.7001 10.5367C47.8599 10.1658 47.9359 9.89542 47.9279 9.7254C47.9199 9.55543 47.788 9.52836 47.5322 9.64431C47.2764 9.76019 46.8366 10.104 46.213 10.6758C45.7973 11.0312 45.3136 11.5566 44.762 12.252C44.2104 12.9473 43.5908 13.9286 42.9033 15.1958C42.8233 15.3658 42.7194 15.4701 42.5915 15.5087C42.4636 15.5474 42.2637 15.5667 41.9919 15.5667C41.816 15.5822 41.6721 15.5899 41.5602 15.5899C41.4483 15.5899 41.3283 15.6284 41.2004 15.7058C41.7761 14.5932 42.3157 13.5037 42.8193 12.4374C43.323 11.3711 43.8706 10.3127 44.4622 9.2618C44.766 8.70549 45.0299 8.31921 45.2537 8.10283C45.4776 7.88652 45.7814 7.78602 46.1651 7.80147C46.325 7.81699 46.4889 7.84399 46.6568 7.88262C46.8247 7.92132 46.9965 7.92515 47.1724 7.89424C46.9965 7.98695 46.7847 8.18781 46.5368 8.4969C46.289 8.80599 46.0331 9.16909 45.7693 9.58634C45.5055 10.0036 45.2417 10.4478 44.9779 10.9192C44.7141 11.3905 44.4782 11.8347 44.2704 12.252C44.5102 11.9583 44.81 11.6145 45.1697 11.2205C45.5295 10.8264 45.8933 10.4748 46.261 10.1658C46.5489 9.9186 46.8566 9.65204 47.1844 9.36612C47.5122 9.08021 47.8319 8.82527 48.1437 8.60116C48.4556 8.37712 48.7514 8.20326 49.0311 8.07965C49.311 7.95605 49.5548 7.92515 49.7627 7.98695C49.9865 8.06421 50.1304 8.19554 50.1944 8.38102C50.2583 8.56643 50.2343 8.77502 50.1224 9.00685C49.8986 9.50136 49.6228 10.0229 49.2949 10.5714C48.9672 11.1201 48.6594 11.6802 48.3716 12.252C48.6115 11.9583 48.9112 11.6145 49.271 11.2205C49.6307 10.8264 49.9945 10.4748 50.3623 10.1658C50.6501 9.9186 51.0058 9.65204 51.4295 9.36612C51.8533 9.08021 52.2809 8.82527 52.7127 8.60116C53.1444 8.37712 53.5521 8.20326 53.9359 8.07965C54.3196 7.95605 54.6074 7.92515 54.7993 7.98695C54.3196 8.82144 53.8799 9.61724 53.4801 10.3744C53.3042 10.6989 53.1364 11.0312 52.9765 11.3711C52.8166 11.7111 52.6647 12.0395 52.5208 12.3563C52.3769 12.6731 52.2529 12.9706 52.1491 13.2487C52.0451 13.5269 51.9692 13.7664 51.9212 13.9673C51.8413 14.4463 51.8492 14.7593 51.9452 14.9061C52.0411 15.0529 52.169 15.1263 52.3289 15.1263C52.6327 15.1263 52.9525 14.9679 53.2883 14.6511C53.6241 14.3342 53.9438 13.9596 54.2476 13.5269C54.5514 13.0942 54.8232 12.6499 55.0631 12.1941C55.303 11.7382 55.4868 11.3789 55.6147 11.1162C55.7106 10.9153 55.8186 10.8419 55.9385 10.896C56.0584 10.9501 56.0624 11.093 55.9505 11.3248ZM55.111 5.29813C54.9831 5.48354 54.8272 5.67285 54.6434 5.86599C54.4595 6.05919 54.2476 6.23305 54.0078 6.38756C53.768 6.54207 53.5001 6.66568 53.2043 6.75845C52.9086 6.85116 52.5928 6.88979 52.257 6.87434C51.9372 6.85889 51.6294 6.81247 51.3336 6.73528C51.0378 6.65796 50.746 6.57687 50.4582 6.49182C50.1704 6.40684 49.8826 6.32959 49.5948 6.26006C49.3069 6.19053 49.0192 6.14807 48.7314 6.13262C48.3636 6.10165 48.0558 6.1519 47.808 6.28323C47.5602 6.41457 47.3643 6.57298 47.2204 6.75845C47.2044 6.78929 47.1564 6.80864 47.0765 6.81636C46.9965 6.82409 46.9166 6.82409 46.8366 6.81636C46.7567 6.80864 46.6847 6.79702 46.6208 6.78163C46.5568 6.76618 46.5248 6.743 46.5248 6.71203C46.7967 6.37211 47.1764 6.03602 47.664 5.70375C48.1518 5.37149 48.7314 5.2208 49.4029 5.25177C49.7067 5.26722 50.0065 5.30585 50.3023 5.36766C50.5981 5.42946 50.8939 5.50282 51.1897 5.58787C51.4855 5.67285 51.7733 5.75011 52.0531 5.81964C52.3329 5.88917 52.6167 5.93169 52.9046 5.94714C53.3042 5.97804 53.6321 5.92779 53.8879 5.79646C54.1437 5.66512 54.3596 5.49126 54.5355 5.27495C54.5355 5.2595 54.5714 5.24788 54.6434 5.24015C54.7153 5.23243 54.7873 5.22853 54.8592 5.22853C54.9312 5.22853 54.9951 5.23626 55.0511 5.25177C55.1071 5.26722 55.1271 5.28268 55.111 5.29813ZM64.033 11.2553C63.9371 11.4716 63.7813 11.8116 63.5654 12.2752C63.3496 12.7388 63.0817 13.2024 62.7619 13.666C62.4421 14.1296 62.0704 14.5352 61.6466 14.8867C61.2229 15.2383 60.7633 15.4121 60.2676 15.4121C59.8999 15.4121 59.592 15.3542 59.3442 15.2461C59.0964 15.1339 58.8925 14.9949 58.7327 14.8249C58.3969 15.0683 58.0531 15.2615 57.7014 15.4006C57.3496 15.5435 56.9978 15.6053 56.646 15.5899C56.1823 15.5744 55.8186 15.4469 55.5548 15.2074C54.9237 14.6346 54.8921 13.6861 55.0151 12.9126C55.0951 12.4104 55.247 11.9043 55.4709 11.3944C55.7106 10.8689 56.0064 10.3667 56.3583 9.88763C56.71 9.40865 57.0897 8.9914 57.4975 8.63596C57.9052 8.28052 58.3249 7.9985 58.7566 7.78991C59.1883 7.58133 59.612 7.48472 60.0278 7.50017C60.4755 7.50017 60.8352 7.62378 61.107 7.87107C61.3789 8.11828 61.5587 8.44282 61.6466 8.84462C61.7346 9.24634 61.7386 9.69839 61.6587 10.2006C61.5787 10.7028 61.4268 11.2089 61.203 11.7189C61.0271 12.1206 60.7633 12.5727 60.4115 13.0749C60.0598 13.5771 59.652 14.0368 59.1883 14.4541C59.3961 14.8404 59.7719 15.0335 60.3156 15.0335C60.6993 15.0335 61.0631 14.879 61.4069 14.57C61.7506 14.2609 62.0664 13.89 62.3542 13.4573C62.642 13.0247 62.8978 12.5842 63.1217 12.1361C63.3455 11.688 63.5294 11.3248 63.6733 11.0467C63.7373 10.9231 63.8332 10.8844 63.9611 10.9308C64.089 10.9771 64.113 11.0853 64.033 11.2553ZM60.5314 8.24189C60.2756 8.18009 59.9957 8.21488 59.6919 8.34622C59.3882 8.47755 59.0844 8.68621 58.7806 8.97205C58.4768 9.25797 58.181 9.59795 57.8932 9.99196C57.6054 10.386 57.3496 10.8148 57.1257 11.2784C56.8859 11.7575 56.698 12.2095 56.5621 12.6344C56.4262 13.0594 56.3422 13.4418 56.3102 13.7818C56.2783 14.1218 56.3022 14.4038 56.3822 14.6279C56.4622 14.852 56.614 14.9949 56.8379 15.0567C57.0618 15.1186 57.3176 15.0954 57.6054 14.9872C57.8932 14.879 58.181 14.709 58.4688 14.4773C58.3409 14.2918 58.245 14.0987 58.181 13.8977C58.1171 13.6969 58.0851 13.5114 58.0851 13.3414C58.101 13.0787 58.169 12.8469 58.2889 12.646C58.4089 12.4451 58.6207 12.3447 58.9245 12.3447C59.1323 12.3447 59.3042 12.4142 59.4402 12.5533C59.5761 12.6924 59.644 12.8546 59.644 13.0401C59.644 13.0865 59.64 13.1289 59.632 13.1676C59.624 13.2063 59.612 13.2487 59.5961 13.2951C59.8679 12.9087 60.1157 12.4915 60.3395 12.0434C60.5794 11.5643 60.7633 11.1085 60.8912 10.6758C61.0191 10.2431 61.0911 9.85673 61.107 9.51681C61.123 9.17682 61.0831 8.8948 60.9871 8.67076C60.8912 8.44665 60.7393 8.30369 60.5314 8.24189ZM61.4188 20.6662C61.179 21.1607 60.9512 21.4929 60.7353 21.6629C60.5195 21.8329 60.2116 21.9024 59.8119 21.8715C59.652 21.8561 59.4882 21.8252 59.3202 21.7788C59.1523 21.7324 58.9805 21.7248 58.8046 21.7556C58.9005 21.6629 59.0844 21.3964 59.3562 20.9559C59.628 20.5155 59.9398 19.9746 60.2916 19.3333C60.6433 18.6921 61.0191 17.9928 61.4188 17.2356C61.8185 16.4784 62.1903 15.7367 62.5341 15.0103C62.8779 14.2841 63.1737 13.6157 63.4214 13.0053C63.6693 12.3949 63.8332 11.9121 63.9131 11.5566C63.7852 11.7575 63.6413 11.885 63.4814 11.9391C63.3215 11.9931 63.2816 11.9352 63.3615 11.7652C63.4254 11.6416 63.5054 11.4716 63.6013 11.2553C63.6973 11.0389 63.7772 10.8612 63.8412 10.7221C63.9531 10.4748 64.053 10.189 64.1409 9.86446C64.2289 9.53998 64.2849 9.23089 64.3088 8.93732C64.3329 8.64369 64.3209 8.39257 64.2729 8.18398C64.2249 7.97533 64.129 7.85561 63.9851 7.82471C64.1609 7.79374 64.3289 7.76284 64.4888 7.73201C64.6167 7.70104 64.7485 7.68176 64.8845 7.67403C65.0204 7.66631 65.1123 7.65468 65.1603 7.63923C65.3362 7.62378 65.4801 7.61216 65.592 7.60443C65.7039 7.59671 65.7918 7.61606 65.8558 7.66241C65.9197 7.70876 65.9638 7.80536 65.9877 7.95215C66.0117 8.09893 66.0237 8.31149 66.0237 8.58961C66.0237 8.82144 65.9877 9.09566 65.9158 9.41248C65.8439 9.72929 65.7599 10.0577 65.6639 10.3976C65.568 10.7376 65.4641 11.0698 65.3522 11.3944C64.8722 12.7858 65.1895 12.0373 65.9518 11.2205C66.3195 10.8264 66.6873 10.4748 67.055 10.1658C67.3428 9.9186 67.6986 9.65204 68.1223 9.36612C68.546 9.08021 68.9737 8.82527 69.4054 8.60116C69.8371 8.37712 70.2409 8.20326 70.6166 8.07965C70.9924 7.95605 71.2841 7.92515 71.492 7.98695C71.0124 8.82144 70.5727 9.61724 70.1729 10.3744C69.997 10.6989 69.8252 11.0312 69.6573 11.3711C69.4894 11.7111 69.3335 12.0395 69.1895 12.3563C69.0457 12.6731 68.9218 12.9706 68.8178 13.2487C68.7139 13.5269 68.646 13.7664 68.614 13.9673C68.5181 14.4463 68.5181 14.7593 68.614 14.9061C68.7099 15.0529 68.8378 15.1263 68.9977 15.1263C69.3015 15.1263 69.6213 14.964 69.957 14.6395C70.2928 14.315 70.6126 13.9325 70.9164 13.4921C71.2202 13.0517 71.4921 12.6074 71.7319 12.1593C71.9717 11.7111 72.1556 11.3634 72.2835 11.1162C72.3795 10.9153 72.4874 10.8419 72.6073 10.896C72.7272 10.9501 72.7312 11.093 72.6192 11.3248C72.4434 11.6802 72.2235 12.1052 71.9597 12.5997C71.6959 13.0942 71.3961 13.5693 71.0603 14.0252C70.7245 14.4811 70.3568 14.8713 69.957 15.1958C69.5574 15.5203 69.1256 15.6826 68.6619 15.6826C68.454 15.6826 68.2382 15.644 68.0144 15.5667C67.7906 15.4894 67.6027 15.3465 67.4507 15.1378C67.2989 14.9292 67.2069 14.6511 67.1749 14.3034C67.1429 13.9557 67.2149 13.5114 67.3908 12.9706C67.4868 12.6615 67.6466 12.31 67.8705 11.9159C68.0943 11.5218 68.3741 11.0621 68.7099 10.5367C68.8538 10.3049 68.9337 10.104 68.9498 9.93405C68.9657 9.76402 68.9058 9.66359 68.7698 9.63269C68.6339 9.60179 68.4221 9.66359 68.1343 9.81817C67.8465 9.97268 67.4707 10.2585 67.007 10.6758C66.7992 10.8612 66.5634 11.0776 66.2995 11.3248C66.0357 11.5721 65.7559 11.8773 65.4601 12.2404C65.1643 12.6035 64.8645 13.0324 64.5607 13.5269C64.2569 14.0213 63.9611 14.6009 63.6733 15.2653L61.4188 20.6662ZM81.1335 11.348C80.9417 11.7498 80.7178 12.1941 80.462 12.6808C80.2062 13.1676 79.9183 13.6273 79.5986 14.06C79.2788 14.4927 78.927 14.852 78.5433 15.1378C78.1595 15.4237 77.7518 15.5667 77.3201 15.5667C77.0483 15.5667 76.8085 15.501 76.6006 15.3697C76.3927 15.2383 76.2368 15.0451 76.1329 14.7902C76.0289 14.5352 75.977 14.2223 75.977 13.8514C75.977 13.4805 76.057 13.0632 76.2169 12.5997C76.009 12.9551 75.7811 13.3067 75.5334 13.6543C75.2855 14.002 75.0217 14.3189 74.7418 14.6047C74.4621 14.8906 74.1702 15.1224 73.8664 15.3001C73.5626 15.4778 73.2668 15.5667 72.9791 15.5667C72.8511 15.5667 72.7113 15.5551 72.5593 15.5319C72.4075 15.5087 72.2595 15.4585 72.1156 15.3812C71.9717 15.304 71.8398 15.1958 71.7199 15.0567C71.6 14.9176 71.516 14.7399 71.4681 14.5236C71.42 14.2763 71.412 14.0368 71.4441 13.805C71.4761 13.5732 71.536 13.3453 71.6239 13.1212C71.7119 12.8972 71.8158 12.6808 71.9357 12.4722C72.0557 12.2635 72.1716 12.0511 72.2835 11.8347C72.2036 11.8347 72.1276 11.8116 72.0557 11.7652C71.9837 11.7189 71.9877 11.6184 72.0677 11.4638C72.1475 11.3402 72.2195 11.2089 72.2835 11.0698C72.3475 10.9308 72.4194 10.7917 72.4994 10.6526C72.7392 10.2044 72.9791 9.7563 73.2189 9.30822C73.4587 8.86007 73.6666 8.45827 73.8425 8.10283C73.9384 7.91742 74.0623 7.78991 74.2142 7.72038C74.3661 7.65085 74.554 7.61606 74.7778 7.61606H76.2408C76.0969 7.70876 75.969 7.80537 75.8571 7.9058C75.7452 8.00623 75.6293 8.12601 75.5093 8.26507C75.3894 8.40413 75.2655 8.57416 75.1376 8.77502C75.0097 8.97595 74.8658 9.23862 74.7059 9.56316C74.482 9.96495 74.2822 10.3512 74.1063 10.7221C73.9304 11.0467 73.7625 11.3789 73.6026 11.7189C73.4427 12.0588 73.3068 12.337 73.1949 12.5533C72.9071 13.156 72.7472 13.6582 72.7152 14.06C72.6833 14.4618 72.7432 14.7438 72.8951 14.9061C73.047 15.0683 73.2748 15.0915 73.5786 14.9756C73.8824 14.8597 74.2262 14.5854 74.61 14.1527C74.9457 13.7818 75.2775 13.3414 75.6052 12.8315C75.9331 12.3215 76.2488 11.7923 76.5526 11.2437C76.8564 10.6951 77.1482 10.1504 77.4281 9.60951C77.7078 9.06866 77.9597 8.56643 78.1835 8.10283C78.2794 7.91742 78.4034 7.78991 78.5553 7.72038C78.7072 7.65085 78.895 7.61606 79.119 7.61606H80.414C80.2381 7.75512 80.0862 7.88262 79.9583 7.9985C79.8304 8.11445 79.7065 8.25734 79.5865 8.41964C79.4667 8.58188 79.3428 8.78275 79.2149 9.0223C79.0869 9.2618 78.935 9.56316 78.7591 9.9186C78.5832 10.2431 78.4114 10.5792 78.2435 10.9308C78.0756 11.2784 77.9157 11.6184 77.7638 11.9545C77.6119 12.2868 77.48 12.5958 77.3681 12.8817C77.2561 13.1676 77.1842 13.4148 77.1522 13.6157C77.0403 14.1102 77.0443 14.4656 77.1642 14.6742C77.2842 14.8829 77.432 14.9949 77.6079 15.0103C77.8957 15.0103 78.1875 14.8867 78.4833 14.6395C78.7791 14.3922 79.0629 14.0793 79.3348 13.7007C79.6066 13.3221 79.8664 12.9049 80.1142 12.449C80.3621 11.9931 80.5899 11.5566 80.7978 11.1394C80.8937 10.9385 81.0016 10.8651 81.1216 10.9192C81.2415 10.9732 81.2454 11.1162 81.1335 11.348Z" fill="white"/>
</svg>
