<svg width="102" height="23" viewBox="0 0 102 23" fill="none" xmlns="http://www.w3.org/2000/svg">
<path fill-rule="evenodd" clip-rule="evenodd" d="M2.95412 12.6741C3.22597 12.5814 3.4538 12.5311 3.63768 12.5234C3.82162 12.5157 3.93348 12.535 3.97348 12.5814C4.01348 12.6277 3.97348 12.6895 3.85356 12.7668C3.73364 12.8441 3.50581 12.9136 3.17001 12.9754C2.78629 13.0527 2.46653 13.2034 2.21065 13.4274C1.95484 13.6515 1.76298 13.9142 1.635 14.2155C1.5071 14.5168 1.44717 14.8453 1.45516 15.2006C1.46314 15.5561 1.53911 15.9037 1.68305 16.2437C1.87491 16.6301 2.15468 17.0126 2.52243 17.3911C2.89024 17.7698 3.34985 18.1058 3.90154 18.3995C4.45316 18.6931 5.09269 18.9325 5.8202 19.118C6.5477 19.3034 7.37513 19.3962 8.30255 19.3962C9.67764 19.3962 10.9488 19.203 12.116 18.8167C13.2832 18.4304 14.3145 17.9359 15.2099 17.3332C16.1053 16.7305 16.8488 16.066 17.4404 15.3398C18.032 14.6134 18.4397 13.9103 18.6636 13.2304C19.064 12.0142 18.9065 10.735 17.5123 10.2634C16.9367 10.0625 16.2932 9.95434 15.5816 9.93889C14.8702 9.92344 14.2145 9.92344 13.6149 9.93889C13.0153 9.95434 12.5357 9.95044 12.176 9.92733C11.8162 9.90416 11.7003 9.77665 11.8282 9.54482C12.0041 9.2667 12.2798 9.05804 12.6556 8.91898C13.0314 8.77992 13.4671 8.65625 13.9628 8.54809C14.4584 8.43993 14.9941 8.33178 15.5696 8.22362C16.1453 8.11546 16.7249 7.95316 17.3085 7.73684C17.8921 7.52053 18.4517 7.23072 18.9874 6.86762C19.523 6.50445 19.9987 6.02157 20.4144 5.41891C20.9101 4.67713 21.1099 3.99332 21.0139 3.36748C20.9181 2.74165 20.6143 2.20852 20.1026 1.7681C19.5909 1.32767 18.9074 0.999305 18.052 0.78299C17.1966 0.566608 16.2572 0.504803 15.2339 0.59751C14.4504 0.674765 13.7669 0.840899 13.1832 1.09591C12.5997 1.35085 12.12 1.64832 11.7443 1.98831C11.3685 2.32823 11.0887 2.6914 10.9048 3.07774C10.7209 3.46409 10.625 3.82329 10.617 4.15562C10.609 4.48782 10.693 4.76984 10.8689 5.0016C11.0447 5.23343 11.3006 5.36477 11.6363 5.39567C11.8761 5.42664 12.0401 5.48065 12.128 5.55797C12.216 5.63523 12.2359 5.70476 12.1879 5.76656C12.14 5.82837 12.032 5.87089 11.8641 5.89407C11.6963 5.91724 11.4764 5.89017 11.2046 5.81292C10.2133 5.55025 9.60167 5.133 9.36982 4.56124C9.13803 3.98942 9.22997 3.39449 9.64569 2.77638C10.0614 2.15827 10.7809 1.58651 11.8042 1.06111C12.8275 0.535707 14.1066 0.195713 15.6416 0.0412028C16.3291 -0.0206015 17.0287 -0.0128758 17.7402 0.0643795C18.4517 0.141635 19.1193 0.292318 19.7429 0.516358C20.3664 0.740466 20.9141 1.02631 21.3857 1.37403C21.8574 1.72174 22.2012 2.12737 22.417 2.59097C22.6329 3.05456 22.6969 3.57224 22.6089 4.144C22.521 4.71576 22.2211 5.33387 21.7095 5.99833C21.4377 6.33832 21.0939 6.65896 20.6782 6.96033C20.2625 7.26162 19.8068 7.53591 19.3112 7.7832C18.8155 8.03041 18.3118 8.25062 17.8001 8.44383C17.2885 8.63697 16.8168 8.78765 16.3851 8.89581C17.1206 8.91126 17.8081 9.04259 18.4477 9.28988C19.423 9.67622 20.0706 10.2016 20.3904 10.8661C20.7102 11.5305 20.7502 12.2569 20.5104 13.045C20.2705 13.8331 19.7868 14.6328 19.0593 15.444C18.3318 16.2553 17.4164 16.9932 16.3132 17.6577C15.2099 18.3222 13.9507 18.863 12.5357 19.2803C11.1206 19.6975 9.6057 19.9061 7.99077 19.9061C6.99946 19.9061 6.07607 19.8327 5.22059 19.686C4.36518 19.5391 3.60171 19.3343 2.93017 19.0717C2.25863 18.8089 1.69104 18.4883 1.22733 18.1097C0.763619 17.7311 0.43587 17.3178 0.244011 16.8696C-0.123802 16.066 -0.0757553 15.2741 0.387887 14.4937C0.851596 13.7133 1.70701 13.1068 2.95412 12.6741Z" fill="#373B49"/>
<path fill-rule="evenodd" clip-rule="evenodd" d="M62.8578 15.7886C62.7459 16.6231 62.8018 17.3611 63.0257 18.0023C63.2496 18.6436 63.5813 19.1883 64.021 19.6365C64.4608 20.0847 64.9884 20.4517 65.604 20.7376C66.2196 21.0235 66.8592 21.2321 67.5227 21.3634C68.1863 21.4948 68.8539 21.5566 69.5254 21.5488C70.1969 21.5411 70.8125 21.4755 71.3722 21.3518C73.0511 20.981 74.4861 20.471 75.6774 19.8219C76.8685 19.1729 77.8879 18.4273 78.7354 17.5851C79.5828 16.7428 80.2863 15.835 80.8459 14.8614C81.4056 13.8879 81.8932 12.8989 82.309 11.8944C82.7087 10.9362 83.1445 9.97431 83.6161 9.00848C84.0878 8.04272 84.6235 7.13091 85.2231 6.27324C85.8227 5.41557 86.4902 4.63906 87.2257 3.94369C87.9612 3.24826 88.8007 2.69196 89.7441 2.27471C90.1918 2.07385 90.7235 1.88447 91.3391 1.70678C91.9546 1.52909 92.6861 1.41704 93.5336 1.37069C93.5496 1.37069 93.5096 1.42087 93.4137 1.52137C93.3178 1.62187 93.2018 1.72996 93.0659 1.84591C92.93 1.96179 92.7941 2.07385 92.6582 2.182C92.5223 2.29016 92.4303 2.34424 92.3824 2.34424C92.1425 2.37521 91.9266 2.40221 91.7348 2.42539C91.5429 2.44857 91.3591 2.48337 91.1832 2.52972C91.0072 2.57607 90.8274 2.63781 90.6435 2.71513C90.4597 2.79245 90.2478 2.89282 90.0079 3.01649C89.1445 3.46464 88.369 4.05178 87.6815 4.77818C86.9939 5.50452 86.3863 6.28869 85.8586 7.13091C85.331 7.97313 84.8793 8.81924 84.5035 9.66912C84.1278 10.5191 83.812 11.2763 83.5562 11.9408C83.0605 13.3161 82.4489 14.6258 81.7214 15.8698C80.9938 17.1137 80.1384 18.2226 79.155 19.1961C78.1717 20.1697 77.0565 20.9848 75.8093 21.6416C74.5621 22.2983 73.163 22.7194 71.612 22.9049C70.2369 23.0749 68.9098 23.017 67.6306 22.731C66.3514 22.4451 65.2522 21.9507 64.3328 21.2475C63.4134 20.5444 62.7538 19.6481 62.3541 18.5586C61.6625 16.6736 63.3261 12.2795 62.8578 15.7886ZM96.4837 11.8481C96.4037 12.0798 96.2958 12.3928 96.1599 12.7868C96.024 13.1809 95.8801 13.6213 95.7282 14.1081C95.5763 14.5948 95.4323 15.0971 95.2964 15.6148C95.1606 16.1325 95.0605 16.6231 94.9967 17.0867C94.9327 17.5503 94.9127 17.9675 94.9367 18.3384C94.9607 18.7093 95.0605 18.9875 95.2365 19.1729C95.3963 19.343 95.5923 19.4317 95.8241 19.4395C96.0559 19.4472 96.3077 19.3583 96.5796 19.1729C96.8834 18.9566 97.1752 18.6862 97.4551 18.3616C97.7348 18.0371 97.9986 17.6855 98.2465 17.3069C98.4944 16.9283 98.7301 16.5381 98.954 16.1363C99.1779 15.7345 99.3858 15.3482 99.5776 14.9774C99.7056 14.7146 99.8295 14.6065 99.9494 14.6528C100.069 14.6992 100.065 14.8614 99.9374 15.1396C99.6176 15.7732 99.3378 16.3102 99.098 16.7506C98.8581 17.191 98.6302 17.5735 98.4144 17.898C98.1985 18.2226 97.9787 18.5085 97.7548 18.7557C97.531 19.0029 97.2832 19.2502 97.0113 19.4974C96.5955 19.8993 96.1439 20.158 95.6562 20.274C95.1685 20.3899 94.7169 20.3397 94.3011 20.1233C93.9333 19.9378 93.6855 19.6481 93.5576 19.254C93.4296 18.86 93.3777 18.4118 93.4017 17.9096C93.4257 17.4074 93.5096 16.8665 93.6535 16.287C93.7975 15.7075 93.9613 15.1396 94.1452 14.5833C94.3291 14.027 94.5089 13.5092 94.6849 13.0302C94.8608 12.5512 94.9967 12.1571 95.0925 11.8481C95.1405 11.6626 95.2685 11.3071 95.4763 10.7818C95.6842 10.2564 95.936 9.64594 96.2318 8.95058C96.5277 8.25514 96.8594 7.52115 97.2272 6.74846C97.595 5.97578 97.9707 5.25334 98.3544 4.58115C98.7382 3.90889 99.118 3.33714 99.4937 2.86581C99.8694 2.39442 100.217 2.10468 100.537 1.99652C100.777 1.91927 101.009 1.85363 101.233 1.79955C101.456 1.74541 101.64 1.71061 101.784 1.69523C101.928 1.67977 102 1.69523 102 1.74158C102 1.78793 101.888 1.86526 101.664 1.97335C101.552 2.03515 101.301 2.32489 100.909 2.84264C100.517 3.36031 100.065 4.05575 99.5536 4.9288C99.0419 5.80192 98.5103 6.82955 97.9587 8.01175C97.4071 9.19396 96.9154 10.4726 96.4837 11.8481ZM88.1372 11.5235C88.0572 11.7553 87.9493 12.0683 87.8134 12.4623C87.6775 12.8564 87.5336 13.2968 87.3816 13.7836C87.2297 14.2704 87.0858 14.7725 86.9499 15.2903C86.814 15.808 86.714 16.2986 86.6502 16.7622C86.5862 17.2258 86.5662 17.643 86.5902 18.0139C86.6142 18.3848 86.714 18.663 86.89 18.8484C87.2257 19.1883 87.6575 19.1729 88.1851 18.802C88.6807 18.4466 89.1645 17.8942 89.6361 17.1447C90.1078 16.3952 90.5356 15.5646 90.9193 14.6528C91.7028 12.7675 92.4624 11.1488 93.1979 9.79662C93.9333 8.44445 94.6249 7.31249 95.2725 6.40075C95.92 5.489 96.5277 4.75494 97.0953 4.19863C97.6629 3.64233 98.1706 3.2097 98.6183 2.90054C99.066 2.59146 99.4497 2.37904 99.7695 2.26315C100.089 2.1472 100.345 2.05833 100.537 1.99652C100.905 1.87291 101.129 1.8189 101.209 1.83429C101.289 1.84974 101.344 1.87291 101.376 1.90382C101.408 1.95017 101.388 2.00432 101.316 2.06612C101.245 2.12786 101.145 2.19356 101.017 2.26315C100.889 2.33268 100.737 2.40604 100.561 2.48337C100.385 2.56062 100.217 2.63015 100.057 2.69195C99.4497 2.92379 98.8621 3.28306 98.2945 3.76983C97.7269 4.25661 97.1752 4.82454 96.6396 5.47355C96.1038 6.12256 95.5923 6.83734 95.1046 7.61769C94.6168 8.39803 94.1612 9.19014 93.7374 9.99366C93.3138 10.7972 92.918 11.5892 92.5503 12.3696C92.1825 13.15 91.8628 13.8801 91.5909 14.5601C91.1271 15.6727 90.6636 16.5961 90.1998 17.3301C89.7361 18.0641 89.2244 18.6862 88.6648 19.1961C88.249 19.5979 87.7974 19.8529 87.3097 19.961C86.822 20.0692 86.3703 20.0151 85.9546 19.7988C85.5868 19.6134 85.339 19.3236 85.2111 18.9295C85.0831 18.5355 85.0312 18.0873 85.0552 17.5851C85.0792 17.0829 85.1631 16.542 85.307 15.9625C85.451 15.383 85.6148 14.8151 85.7987 14.2588C85.9825 13.7024 86.1624 13.1847 86.3383 12.7057C86.5143 12.2267 86.6502 11.8326 86.7461 11.5235C86.794 11.3381 86.922 10.9827 87.1298 10.4573C87.3377 9.93185 87.5895 9.3214 87.8853 8.62604C88.1811 7.9306 88.5128 7.19661 88.8807 6.42392C89.2485 5.65124 89.6242 4.9288 90.0079 4.25661C90.3916 3.58435 90.7715 3.01266 91.1472 2.54127C91.5229 2.06995 91.8707 1.78021 92.1905 1.67205C92.4304 1.59473 92.6621 1.52909 92.886 1.47501C93.1099 1.42087 93.2937 1.38614 93.4377 1.37069C93.5816 1.3553 93.6535 1.37069 93.6535 1.41704C93.6535 1.46339 93.5416 1.54071 93.3178 1.64887C93.2058 1.71061 92.954 2.00042 92.5622 2.5181C92.1704 3.03584 91.7188 3.73121 91.2071 4.60433C90.6954 5.47738 90.1638 6.50508 89.6122 7.68722C89.0606 8.86942 88.5689 10.1482 88.1372 11.5235Z" fill="#373B49"/>
<path fill-rule="evenodd" clip-rule="evenodd" d="M30.8874 10.8248C30.7115 11.1802 30.4916 11.5975 30.2278 12.0765C29.964 12.5555 29.6722 13.0192 29.3524 13.4673C29.0326 13.9154 28.6928 14.2979 28.3331 14.6147C27.9733 14.9315 27.6176 15.1053 27.2658 15.1362C27.0739 15.1517 26.866 15.1169 26.6422 15.0319C26.4184 14.9469 26.2345 14.7924 26.0906 14.5683C25.9467 14.3442 25.8627 14.0352 25.8388 13.6411C25.8148 13.247 25.8907 12.7487 26.0666 12.146C25.8747 12.4551 25.6269 12.8144 25.3231 13.2239C25.0193 13.6334 24.6915 14.0004 24.3398 14.3249C23.8761 14.7576 23.4484 15.0126 23.0567 15.0899C22.6649 15.1671 22.3331 15.1092 22.0613 14.916C21.7895 14.7228 21.5937 14.4176 21.4737 14.0004C21.3537 13.5832 21.3338 13.0925 21.4137 12.5285C21.4937 11.9645 21.6895 11.3464 22.0013 10.6741C22.3132 10.0019 22.7728 9.31817 23.3804 8.62274C23.7322 8.20549 24.1599 7.85011 24.6636 7.55648C25.1672 7.26284 25.6789 7.05425 26.1985 6.93064C26.7182 6.80697 27.2218 6.79152 27.7095 6.88429C28.1972 6.977 28.6089 7.20104 28.9447 7.55648C29.1206 7.72651 29.1725 7.88868 29.1006 8.04325C29.0286 8.19776 28.8887 8.25957 28.6808 8.22867C28.553 7.79597 28.2931 7.5333 27.9014 7.4406C27.5097 7.34789 27.0899 7.41742 26.6422 7.64918C26.0986 7.94282 25.5389 8.3948 24.9634 9.00525C24.3877 9.61563 23.8841 10.2685 23.4524 10.9638C23.4044 11.0412 23.3325 11.1648 23.2365 11.3347C23.1406 11.5048 23.0407 11.7018 22.9367 11.9258C22.8328 12.1499 22.7369 12.3817 22.6489 12.6212C22.5609 12.8607 22.501 13.0887 22.469 13.305C22.4051 13.7068 22.433 14.0004 22.5529 14.1859C22.6729 14.3713 22.8408 14.464 23.0567 14.464C23.2725 14.464 23.5243 14.3752 23.8121 14.1974C24.0999 14.0197 24.3877 13.7686 24.6755 13.4441C25.0913 12.9496 25.471 12.4281 25.8147 11.8795C26.1585 11.3309 26.4903 10.7707 26.8101 10.1989C27.0819 9.70445 27.3258 9.32589 27.5416 9.06316C27.7575 8.80049 28.0573 8.68454 28.441 8.71544C28.6009 8.73089 28.7648 8.75797 28.9327 8.79659C29.1006 8.83522 29.2724 8.83912 29.4483 8.80822C29.3204 8.93182 29.1486 9.15976 28.9327 9.49196C28.7168 9.82422 28.493 10.2028 28.2611 10.6277C28.0293 11.0527 27.8174 11.4893 27.6256 11.9374C27.4337 12.3856 27.2977 12.7873 27.2178 13.1428C27.026 14.07 27.106 14.5335 27.4577 14.5335C27.7135 14.549 27.9933 14.4022 28.2971 14.0932C28.6009 13.7841 28.9007 13.4132 29.1965 12.9805C29.4923 12.5478 29.7602 12.1112 29.9999 11.6708C30.2398 11.2305 30.4237 10.8867 30.5516 10.6394C30.6635 10.4385 30.7754 10.3612 30.8874 10.4076C30.9993 10.454 30.9993 10.593 30.8874 10.8248ZM34.5329 12.0997C34.3251 12.4551 34.0972 12.8067 33.8494 13.1543C33.6015 13.502 33.3377 13.8189 33.0579 14.1047C32.7781 14.3906 32.4863 14.6224 32.1825 14.8001C31.8787 14.9778 31.5829 15.0667 31.2951 15.0667C31.1672 15.0667 31.0273 15.0551 30.8754 15.0319C30.7235 15.0087 30.5756 14.9585 30.4316 14.8812C30.2878 14.804 30.1558 14.6958 30.0359 14.5567C29.916 14.4176 29.832 14.2399 29.7841 14.0236C29.7361 13.7763 29.7282 13.5368 29.7602 13.305C29.7921 13.0732 29.8521 12.8453 29.94 12.6212C30.0279 12.3972 30.1319 12.1808 30.2518 11.9722C30.3717 11.7635 30.4877 11.5511 30.5995 11.3347C30.5196 11.3347 30.4437 11.3116 30.3717 11.2652C30.2998 11.2189 30.3037 11.1184 30.3837 10.9638C30.4636 10.8402 30.5356 10.7089 30.5995 10.5698C30.6635 10.4308 30.7354 10.2917 30.8154 10.1526C31.0553 9.70444 31.2951 9.2563 31.5349 8.80822C31.7748 8.36007 31.9826 7.95827 32.1585 7.60283C32.2545 7.41742 32.3783 7.28991 32.5303 7.22038C32.6821 7.15085 32.87 7.11606 33.0939 7.11606H34.5569C34.413 7.20876 34.2851 7.30537 34.1732 7.4058C34.0613 7.50623 33.9453 7.62601 33.8254 7.76507C33.7055 7.90413 33.5816 8.07416 33.4537 8.27502C33.3257 8.47595 33.1818 8.73862 33.0219 9.06316C32.7981 9.46495 32.5982 9.85123 32.4224 10.2221C32.2465 10.5467 32.0786 10.8789 31.9187 11.2189C31.7587 11.5588 31.6229 11.837 31.511 12.0533C31.2232 12.656 31.0632 13.1582 31.0312 13.56C30.9993 13.9618 31.0592 14.2438 31.2112 14.4061C31.363 14.5683 31.5909 14.5915 31.8946 14.4756C32.1985 14.3597 32.5423 14.0854 32.926 13.6527C33.2618 13.2818 33.5935 12.8414 33.9213 12.3315C34.2491 11.8215 34.5649 11.2923 34.8687 10.7437C35.1725 10.1951 35.4643 9.65037 35.7441 9.10951C36.0239 8.56866 36.2757 8.06643 36.4996 7.60283C36.5955 7.41742 36.7194 7.28991 36.8714 7.22038C37.0232 7.15085 37.2111 7.11606 37.435 7.11606H38.7301C38.5542 7.25512 38.4023 7.38262 38.2744 7.4985C38.1465 7.61445 38.0226 7.75734 37.9027 7.91964C37.7827 8.08188 37.6588 8.28275 37.5309 8.5223C37.403 8.7618 37.2511 9.06316 37.0752 9.4186C36.8993 9.74307 36.7275 10.0792 36.5596 10.4308C36.3917 10.7784 36.2318 11.1184 36.0798 11.4545C35.928 11.7868 35.7961 12.0958 35.6841 12.3817C35.5722 12.6676 35.5003 12.9148 35.4683 13.1157C35.3564 13.6102 35.3604 13.9656 35.4802 14.1742C35.6002 14.3829 35.7481 14.4949 35.924 14.5103C36.1478 14.5103 36.3717 14.4331 36.5955 14.2786C36.8194 14.1241 37.0432 13.9231 37.2671 13.6721C37.6028 13.3012 37.9346 12.8607 38.2624 12.3469C38.5902 11.837 38.906 11.3038 39.2098 10.7553C39.5136 10.2028 39.8054 9.65809 40.0852 9.11724C40.365 8.57249 40.6169 8.07026 40.8407 7.60283C40.9366 7.41742 41.0605 7.28991 41.2124 7.22038C41.3643 7.15085 41.5522 7.11606 41.7761 7.11606H43.0712C42.8953 7.25512 42.7434 7.38262 42.6154 7.4985C42.4875 7.61445 42.3637 7.75734 42.2437 7.91964C42.1238 8.08188 41.9999 8.28275 41.872 8.5223C41.7441 8.7618 41.5921 9.06316 41.4162 9.4186C41.2404 9.74307 41.0685 10.0792 40.9006 10.4308C40.7328 10.7784 40.5728 11.1184 40.421 11.4545C40.2691 11.7868 40.1371 12.0958 40.0253 12.3817C39.9133 12.6676 39.8413 12.9148 39.8094 13.1157C39.6974 13.6102 39.7015 13.9656 39.8214 14.1742C39.9413 14.3829 40.0891 14.4949 40.265 14.5103C40.5528 14.5103 40.8447 14.3867 41.1405 14.1395C41.4363 13.8922 41.72 13.5793 41.9919 13.2007C42.2637 12.8221 42.5235 12.4049 42.7714 11.949C43.0192 11.4931 43.2471 11.0566 43.4549 10.6394C43.5508 10.4385 43.6588 10.3651 43.7787 10.4192C43.8986 10.4732 43.9026 10.6162 43.7907 10.848C43.5988 11.2498 43.375 11.6941 43.1192 12.1808C42.8633 12.6676 42.5755 13.1273 42.2558 13.56C41.9359 13.9927 41.5841 14.352 41.2004 14.6378C40.8167 14.9237 40.409 15.0667 39.9772 15.0667C39.7054 15.0667 39.4656 15.001 39.2578 14.8697C39.0499 14.7383 38.894 14.5451 38.7901 14.2902C38.6861 14.0352 38.6341 13.7223 38.6341 13.3514C38.6341 12.9805 38.7141 12.5632 38.874 12.0997C38.7301 12.3624 38.5422 12.6637 38.3104 13.0037C38.0785 13.3436 37.8187 13.6644 37.5309 13.9656C37.2431 14.267 36.9393 14.5258 36.6195 14.7422C36.2997 14.9585 35.9719 15.0667 35.6362 15.0667C35.3643 15.0667 35.1245 15.001 34.9167 14.8697C34.7088 14.7383 34.5529 14.5451 34.4489 14.2902C34.3451 14.0352 34.2931 13.7223 34.2931 13.3514C34.2931 12.9805 34.373 12.5632 34.5329 12.0997ZM39.0899 16.0865C38.9619 16.272 38.806 16.4613 38.6222 16.6545C38.4382 16.8477 38.2265 17.0215 37.9866 17.176C37.7468 17.3306 37.479 17.4542 37.1831 17.5469C36.8873 17.6396 36.5715 17.6783 36.2358 17.6628C35.916 17.6474 35.6082 17.6009 35.3124 17.5238C35.0166 17.4464 34.7248 17.3653 34.437 17.2803C34.1492 17.1953 33.8614 17.1181 33.5736 17.0485C33.2858 16.979 32.9979 16.9365 32.7101 16.921C32.3424 16.8901 32.0346 16.9404 31.7867 17.0717C31.5389 17.203 31.3431 17.3615 31.1991 17.5469C31.1832 17.5778 31.1352 17.5971 31.0553 17.6048C30.9753 17.6126 30.8954 17.6126 30.8154 17.6048C30.7354 17.5971 30.6635 17.5855 30.5995 17.57C30.5356 17.5546 30.5037 17.5315 30.5037 17.5005C30.7755 17.1606 31.1552 16.8245 31.6429 16.4922C32.1305 16.16 32.7101 16.0093 33.3817 16.0403C33.6855 16.0557 33.9853 16.0943 34.2811 16.1561C34.5769 16.2179 34.8727 16.2913 35.1685 16.3763C35.4643 16.4613 35.7521 16.5386 36.0319 16.6081C36.3118 16.6776 36.5955 16.7201 36.8833 16.7356C37.2831 16.7665 37.6108 16.7163 37.8667 16.5849C38.1225 16.4536 38.3383 16.2797 38.5142 16.0634C38.5142 16.048 38.5502 16.0364 38.6222 16.0286C38.6941 16.0209 38.7661 16.017 38.838 16.017C38.91 16.017 38.974 16.0247 39.0299 16.0403C39.0859 16.0557 39.1058 16.0712 39.0899 16.0865ZM55.9505 10.8248C55.7747 11.1802 55.5547 11.6052 55.2909 12.0997C55.0271 12.5942 54.7273 13.0693 54.3915 13.5252C54.0558 13.9811 53.684 14.3713 53.2763 14.6958C52.8686 15.0203 52.4408 15.1826 51.9932 15.1826C51.7693 15.1826 51.5454 15.144 51.3216 15.0667C51.0978 14.9894 50.9099 14.8465 50.758 14.6378C50.6061 14.4292 50.5141 14.1511 50.4822 13.8034C50.4502 13.4557 50.5221 13.0114 50.698 12.4706C50.794 12.1615 50.9539 11.81 51.1777 11.4159C51.4016 11.0218 51.6814 10.5621 52.0171 10.0367C52.161 9.80494 52.241 9.60401 52.257 9.43405C52.2729 9.26402 52.213 9.16359 52.0771 9.13269C51.9412 9.10179 51.7293 9.16359 51.4415 9.31817C51.1537 9.47268 50.778 9.75852 50.3143 10.1758C50.0585 10.4076 49.7507 10.7282 49.3909 11.1377C49.0311 11.5472 48.6834 11.9876 48.3476 12.459C48.0119 12.9303 47.712 13.4016 47.4482 13.8729C47.1844 14.3442 47.0125 14.7499 46.9326 15.0899C46.6608 15.0899 46.4489 14.9624 46.297 14.7074C46.1451 14.4524 46.1011 14.155 46.1651 13.815C46.2451 13.305 46.381 12.8453 46.5728 12.4358C46.7647 12.0263 46.9646 11.6052 47.1724 11.1725C47.3643 10.7862 47.5402 10.4076 47.7001 10.0367C47.8599 9.66582 47.9359 9.39542 47.9279 9.2254C47.9199 9.05543 47.788 9.02836 47.5322 9.14431C47.2764 9.26019 46.8366 9.60401 46.213 10.1758C45.7973 10.5312 45.3136 11.0566 44.762 11.752C44.2104 12.4473 43.5908 13.4286 42.9033 14.6958C42.8233 14.8658 42.7194 14.9701 42.5915 15.0087C42.4636 15.0474 42.2637 15.0667 41.9919 15.0667C41.816 15.0822 41.6721 15.0899 41.5602 15.0899C41.4483 15.0899 41.3283 15.1284 41.2004 15.2058C41.7761 14.0932 42.3157 13.0037 42.8193 11.9374C43.323 10.8711 43.8706 9.81267 44.4622 8.7618C44.766 8.20549 45.0299 7.81921 45.2537 7.60283C45.4776 7.38652 45.7814 7.28602 46.1651 7.30147C46.325 7.31699 46.4889 7.34399 46.6568 7.38262C46.8247 7.42132 46.9965 7.42515 47.1724 7.39424C46.9965 7.48695 46.7847 7.68781 46.5368 7.9969C46.289 8.30599 46.0331 8.66909 45.7693 9.08634C45.5055 9.50358 45.2417 9.94783 44.9779 10.4192C44.7141 10.8905 44.4782 11.3347 44.2704 11.752C44.5102 11.4583 44.81 11.1145 45.1697 10.7205C45.5295 10.3264 45.8933 9.97484 46.261 9.66582C46.5489 9.4186 46.8566 9.15204 47.1844 8.86612C47.5122 8.58021 47.8319 8.32527 48.1437 8.10116C48.4556 7.87712 48.7514 7.70326 49.0311 7.57965C49.311 7.45605 49.5548 7.42515 49.7627 7.48695C49.9865 7.56421 50.1304 7.69554 50.1944 7.88102C50.2583 8.06643 50.2343 8.27502 50.1224 8.50685C49.8986 9.00136 49.6228 9.52286 49.2949 10.0714C48.9672 10.6201 48.6594 11.1802 48.3716 11.752C48.6115 11.4583 48.9112 11.1145 49.271 10.7205C49.6307 10.3264 49.9945 9.97484 50.3623 9.66582C50.6501 9.4186 51.0058 9.15204 51.4295 8.86612C51.8533 8.58021 52.2809 8.32527 52.7127 8.10116C53.1444 7.87712 53.5521 7.70326 53.9359 7.57965C54.3196 7.45605 54.6074 7.42515 54.7993 7.48695C54.3196 8.32144 53.8799 9.11724 53.4801 9.87441C53.3042 10.1989 53.1364 10.5312 52.9765 10.8711C52.8166 11.2111 52.6647 11.5395 52.5208 11.8563C52.3769 12.1731 52.2529 12.4706 52.1491 12.7487C52.0451 13.0269 51.9692 13.2664 51.9212 13.4673C51.8413 13.9463 51.8492 14.2593 51.9452 14.4061C52.0411 14.5529 52.169 14.6263 52.3289 14.6263C52.6327 14.6263 52.9525 14.4679 53.2883 14.1511C53.6241 13.8342 53.9438 13.4596 54.2476 13.0269C54.5514 12.5942 54.8232 12.1499 55.0631 11.6941C55.303 11.2382 55.4868 10.8789 55.6147 10.6162C55.7106 10.4153 55.8186 10.3419 55.9385 10.396C56.0584 10.4501 56.0624 10.593 55.9505 10.8248ZM55.111 4.79813C54.9831 4.98354 54.8272 5.17285 54.6434 5.36599C54.4595 5.55919 54.2476 5.73305 54.0078 5.88756C53.768 6.04207 53.5001 6.16568 53.2043 6.25845C52.9086 6.35116 52.5928 6.38979 52.257 6.37434C51.9372 6.35889 51.6294 6.31247 51.3336 6.23528C51.0378 6.15796 50.746 6.07687 50.4582 5.99182C50.1704 5.90684 49.8826 5.82959 49.5948 5.76006C49.3069 5.69053 49.0192 5.64807 48.7314 5.63262C48.3636 5.60165 48.0558 5.6519 47.808 5.78323C47.5602 5.91457 47.3643 6.07298 47.2204 6.25845C47.2044 6.28929 47.1564 6.30864 47.0765 6.31636C46.9965 6.32409 46.9166 6.32409 46.8366 6.31636C46.7567 6.30864 46.6847 6.29702 46.6208 6.28163C46.5568 6.26618 46.5248 6.243 46.5248 6.21203C46.7967 5.87211 47.1764 5.53602 47.664 5.20375C48.1518 4.87149 48.7314 4.7208 49.4029 4.75177C49.7067 4.76722 50.0065 4.80585 50.3023 4.86766C50.5981 4.92946 50.8939 5.00282 51.1897 5.08787C51.4855 5.17285 51.7733 5.25011 52.0531 5.31964C52.3329 5.38917 52.6167 5.43169 52.9046 5.44714C53.3042 5.47804 53.6321 5.42779 53.8879 5.29646C54.1437 5.16512 54.3596 4.99126 54.5355 4.77495C54.5355 4.7595 54.5714 4.74788 54.6434 4.74015C54.7153 4.73243 54.7873 4.72853 54.8592 4.72853C54.9312 4.72853 54.9951 4.73626 55.0511 4.75177C55.1071 4.76722 55.1271 4.78268 55.111 4.79813ZM64.033 10.7553C63.9371 10.9716 63.7813 11.3116 63.5654 11.7752C63.3496 12.2388 63.0817 12.7024 62.7619 13.166C62.4421 13.6296 62.0704 14.0352 61.6466 14.3867C61.2229 14.7383 60.7633 14.9121 60.2676 14.9121C59.8999 14.9121 59.592 14.8542 59.3442 14.7461C59.0964 14.6339 58.8925 14.4949 58.7327 14.3249C58.3969 14.5683 58.0531 14.7615 57.7014 14.9006C57.3496 15.0435 56.9978 15.1053 56.646 15.0899C56.1823 15.0744 55.8186 14.9469 55.5548 14.7074C54.9237 14.1346 54.8921 13.1861 55.0151 12.4126C55.0951 11.9104 55.247 11.4043 55.4709 10.8944C55.7106 10.3689 56.0064 9.86668 56.3583 9.38763C56.71 8.90865 57.0897 8.4914 57.4975 8.13596C57.9052 7.78052 58.3249 7.4985 58.7566 7.28991C59.1883 7.08133 59.612 6.98472 60.0278 7.00017C60.4755 7.00017 60.8352 7.12378 61.107 7.37107C61.3789 7.61828 61.5587 7.94282 61.6466 8.34462C61.7346 8.74634 61.7386 9.19839 61.6587 9.70061C61.5787 10.2028 61.4268 10.7089 61.203 11.2189C61.0271 11.6206 60.7633 12.0727 60.4115 12.5749C60.0598 13.0771 59.652 13.5368 59.1883 13.9541C59.3961 14.3404 59.7719 14.5335 60.3156 14.5335C60.6993 14.5335 61.0631 14.379 61.4069 14.07C61.7506 13.7609 62.0664 13.39 62.3542 12.9573C62.642 12.5247 62.8978 12.0842 63.1217 11.6361C63.3455 11.188 63.5294 10.8248 63.6733 10.5467C63.7373 10.4231 63.8332 10.3844 63.9611 10.4308C64.089 10.4771 64.113 10.5853 64.033 10.7553ZM60.5314 7.74189C60.2756 7.68009 59.9957 7.71488 59.6919 7.84622C59.3882 7.97755 59.0844 8.18621 58.7806 8.47205C58.4768 8.75797 58.181 9.09795 57.8932 9.49196C57.6054 9.88603 57.3496 10.3148 57.1257 10.7784C56.8859 11.2575 56.698 11.7095 56.5621 12.1344C56.4262 12.5594 56.3422 12.9418 56.3102 13.2818C56.2783 13.6218 56.3022 13.9038 56.3822 14.1279C56.4622 14.352 56.614 14.4949 56.8379 14.5567C57.0618 14.6186 57.3176 14.5954 57.6054 14.4872C57.8932 14.379 58.181 14.209 58.4688 13.9773C58.3409 13.7918 58.245 13.5987 58.181 13.3977C58.1171 13.1969 58.0851 13.0114 58.0851 12.8414C58.101 12.5787 58.169 12.3469 58.2889 12.146C58.4089 11.9451 58.6207 11.8447 58.9245 11.8447C59.1323 11.8447 59.3042 11.9142 59.4402 12.0533C59.5761 12.1924 59.644 12.3546 59.644 12.5401C59.644 12.5865 59.64 12.6289 59.632 12.6676C59.624 12.7063 59.612 12.7487 59.5961 12.7951C59.8679 12.4087 60.1157 11.9915 60.3395 11.5434C60.5794 11.0643 60.7633 10.6085 60.8912 10.1758C61.0191 9.74307 61.0911 9.35673 61.107 9.01681C61.123 8.67682 61.0831 8.3948 60.9871 8.17076C60.8912 7.94665 60.7393 7.80369 60.5314 7.74189ZM61.4188 20.1662C61.179 20.6607 60.9512 20.9929 60.7353 21.1629C60.5195 21.3329 60.2116 21.4024 59.8119 21.3715C59.652 21.3561 59.4882 21.3252 59.3202 21.2788C59.1523 21.2324 58.9805 21.2248 58.8046 21.2556C58.9005 21.1629 59.0844 20.8964 59.3562 20.4559C59.628 20.0155 59.9398 19.4746 60.2916 18.8333C60.6433 18.1921 61.0191 17.4928 61.4188 16.7356C61.8185 15.9784 62.1903 15.2367 62.5341 14.5103C62.8779 13.7841 63.1737 13.1157 63.4214 12.5053C63.6693 11.8949 63.8332 11.4121 63.9131 11.0566C63.7852 11.2575 63.6413 11.385 63.4814 11.4391C63.3215 11.4931 63.2816 11.4352 63.3615 11.2652C63.4254 11.1416 63.5054 10.9716 63.6013 10.7553C63.6973 10.5389 63.7772 10.3612 63.8412 10.2221C63.9531 9.97484 64.053 9.689 64.1409 9.36446C64.2289 9.03998 64.2849 8.73089 64.3088 8.43732C64.3329 8.14369 64.3209 7.89257 64.2729 7.68398C64.2249 7.47533 64.129 7.35561 63.9851 7.32471C64.1609 7.29374 64.3289 7.26284 64.4888 7.23201C64.6167 7.20104 64.7485 7.18176 64.8845 7.17403C65.0204 7.16631 65.1123 7.15468 65.1603 7.13923C65.3362 7.12378 65.4801 7.11216 65.592 7.10443C65.7039 7.09671 65.7918 7.11606 65.8558 7.16241C65.9197 7.20876 65.9638 7.30536 65.9877 7.45215C66.0117 7.59893 66.0237 7.81149 66.0237 8.08961C66.0237 8.32144 65.9877 8.59566 65.9158 8.91248C65.8439 9.22929 65.7599 9.55766 65.6639 9.89765C65.568 10.2376 65.4641 10.5698 65.3522 10.8944C64.8722 12.2858 65.1895 11.5373 65.9518 10.7205C66.3195 10.3264 66.6873 9.97484 67.055 9.66582C67.3428 9.4186 67.6986 9.15204 68.1223 8.86612C68.546 8.58021 68.9737 8.32527 69.4054 8.10116C69.8371 7.87712 70.2409 7.70326 70.6166 7.57965C70.9924 7.45605 71.2841 7.42515 71.492 7.48695C71.0124 8.32144 70.5727 9.11724 70.1729 9.87441C69.997 10.1989 69.8252 10.5312 69.6573 10.8711C69.4894 11.2111 69.3335 11.5395 69.1895 11.8563C69.0457 12.1731 68.9218 12.4706 68.8178 12.7487C68.7139 13.0269 68.646 13.2664 68.614 13.4673C68.5181 13.9463 68.5181 14.2593 68.614 14.4061C68.7099 14.5529 68.8378 14.6263 68.9977 14.6263C69.3015 14.6263 69.6213 14.464 69.957 14.1395C70.2928 13.815 70.6126 13.4325 70.9164 12.9921C71.2202 12.5517 71.4921 12.1074 71.7319 11.6593C71.9717 11.2111 72.1556 10.8634 72.2835 10.6162C72.3795 10.4153 72.4874 10.3419 72.6073 10.396C72.7272 10.4501 72.7312 10.593 72.6192 10.8248C72.4434 11.1802 72.2235 11.6052 71.9597 12.0997C71.6959 12.5942 71.3961 13.0693 71.0603 13.5252C70.7245 13.9811 70.3568 14.3713 69.957 14.6958C69.5574 15.0203 69.1256 15.1826 68.6619 15.1826C68.454 15.1826 68.2382 15.144 68.0144 15.0667C67.7906 14.9894 67.6027 14.8465 67.4507 14.6378C67.2989 14.4292 67.2069 14.1511 67.1749 13.8034C67.1429 13.4557 67.2149 13.0114 67.3908 12.4706C67.4868 12.1615 67.6466 11.81 67.8705 11.4159C68.0943 11.0218 68.3741 10.5621 68.7099 10.0367C68.8538 9.80494 68.9337 9.60401 68.9498 9.43405C68.9657 9.26402 68.9058 9.16359 68.7698 9.13269C68.6339 9.10179 68.4221 9.16359 68.1343 9.31817C67.8465 9.47268 67.4707 9.75852 67.007 10.1758C66.7992 10.3612 66.5634 10.5776 66.2995 10.8248C66.0357 11.0721 65.7559 11.3773 65.4601 11.7404C65.1643 12.1035 64.8645 12.5324 64.5607 13.0269C64.2569 13.5213 63.9611 14.1009 63.6733 14.7653L61.4188 20.1662ZM81.1335 10.848C80.9417 11.2498 80.7178 11.6941 80.462 12.1808C80.2062 12.6676 79.9183 13.1273 79.5986 13.56C79.2788 13.9927 78.927 14.352 78.5433 14.6378C78.1595 14.9237 77.7518 15.0667 77.3201 15.0667C77.0483 15.0667 76.8085 15.001 76.6006 14.8697C76.3927 14.7383 76.2368 14.5451 76.1329 14.2902C76.0289 14.0352 75.977 13.7223 75.977 13.3514C75.977 12.9805 76.057 12.5632 76.2169 12.0997C76.009 12.4551 75.7811 12.8067 75.5334 13.1543C75.2855 13.502 75.0217 13.8189 74.7418 14.1047C74.4621 14.3906 74.1702 14.6224 73.8664 14.8001C73.5626 14.9778 73.2668 15.0667 72.9791 15.0667C72.8511 15.0667 72.7113 15.0551 72.5593 15.0319C72.4075 15.0087 72.2595 14.9585 72.1156 14.8812C71.9717 14.804 71.8398 14.6958 71.7199 14.5567C71.6 14.4176 71.516 14.2399 71.4681 14.0236C71.42 13.7763 71.412 13.5368 71.4441 13.305C71.4761 13.0732 71.536 12.8453 71.6239 12.6212C71.7119 12.3972 71.8158 12.1808 71.9357 11.9722C72.0557 11.7635 72.1716 11.5511 72.2835 11.3347C72.2036 11.3347 72.1276 11.3116 72.0557 11.2652C71.9837 11.2189 71.9877 11.1184 72.0677 10.9638C72.1475 10.8402 72.2195 10.7089 72.2835 10.5698C72.3475 10.4308 72.4194 10.2917 72.4994 10.1526C72.7392 9.70444 72.9791 9.2563 73.2189 8.80822C73.4587 8.36007 73.6666 7.95827 73.8425 7.60283C73.9384 7.41742 74.0623 7.28991 74.2142 7.22038C74.3661 7.15085 74.554 7.11606 74.7778 7.11606H76.2408C76.0969 7.20876 75.969 7.30537 75.8571 7.4058C75.7452 7.50623 75.6293 7.62601 75.5093 7.76507C75.3894 7.90413 75.2655 8.07416 75.1376 8.27502C75.0097 8.47595 74.8658 8.73862 74.7059 9.06316C74.482 9.46495 74.2822 9.85123 74.1063 10.2221C73.9304 10.5467 73.7625 10.8789 73.6026 11.2189C73.4427 11.5588 73.3068 11.837 73.1949 12.0533C72.9071 12.656 72.7472 13.1582 72.7152 13.56C72.6833 13.9618 72.7432 14.2438 72.8951 14.4061C73.047 14.5683 73.2748 14.5915 73.5786 14.4756C73.8824 14.3597 74.2262 14.0854 74.61 13.6527C74.9457 13.2818 75.2775 12.8414 75.6052 12.3315C75.9331 11.8215 76.2488 11.2923 76.5526 10.7437C76.8564 10.1951 77.1482 9.65037 77.4281 9.10951C77.7078 8.56866 77.9597 8.06643 78.1835 7.60283C78.2794 7.41742 78.4034 7.28991 78.5553 7.22038C78.7072 7.15085 78.895 7.11606 79.119 7.11606H80.414C80.2381 7.25512 80.0862 7.38262 79.9583 7.4985C79.8304 7.61445 79.7065 7.75734 79.5865 7.91964C79.4667 8.08188 79.3428 8.28275 79.2149 8.5223C79.0869 8.7618 78.935 9.06316 78.7591 9.4186C78.5832 9.74307 78.4114 10.0792 78.2435 10.4308C78.0756 10.7784 77.9157 11.1184 77.7638 11.4545C77.6119 11.7868 77.48 12.0958 77.3681 12.3817C77.2561 12.6676 77.1842 12.9148 77.1522 13.1157C77.0403 13.6102 77.0443 13.9656 77.1642 14.1742C77.2842 14.3829 77.432 14.4949 77.6079 14.5103C77.8957 14.5103 78.1875 14.3867 78.4833 14.1395C78.7791 13.8922 79.0629 13.5793 79.3348 13.2007C79.6066 12.8221 79.8664 12.4049 80.1142 11.949C80.3621 11.4931 80.5899 11.0566 80.7978 10.6394C80.8937 10.4385 81.0016 10.3651 81.1216 10.4192C81.2415 10.4732 81.2454 10.6162 81.1335 10.848Z" fill="#373B49"/>
</svg>
