<svg width="21" height="20" viewBox="0 0 21 20" fill="none" xmlns="http://www.w3.org/2000/svg">
<path d="M18.86 13.1395C17.8011 13.0089 16.7497 12.8236 15.71 12.5845C15.4562 12.4997 15.1847 12.4818 14.9219 12.5326C14.6591 12.5834 14.4139 12.7012 14.21 12.8745C13.945 13.1445 13.18 13.8995 12.385 14.6795C9.53662 13.2793 7.23304 10.974 5.835 8.12454C6.61 7.32954 7.335 6.56954 7.63 6.30454C7.80334 6.10061 7.92111 5.8554 7.97192 5.59261C8.02272 5.32983 8.00484 5.05839 7.92 4.80454C7.68061 3.76317 7.49536 2.71009 7.365 1.64954C7.35103 1.51449 7.30971 1.3837 7.24355 1.26513C7.17739 1.14657 7.08778 1.04272 6.98018 0.959915C6.87258 0.87711 6.74925 0.817083 6.61769 0.783495C6.48614 0.749906 6.34913 0.743458 6.215 0.764544H1.955C1.77916 0.780419 1.61455 0.857821 1.49017 0.983122C1.36578 1.10842 1.28959 1.27359 1.275 1.44954C1 5.29454 3.145 9.40954 3.58 10.1995V10.2295L3.64 10.3445C5.19717 13.0453 7.43928 15.2874 10.14 16.8445V16.8445L10.36 16.9695C11.36 17.4995 15.335 19.4995 19.05 19.2245C19.2277 19.2122 19.3953 19.137 19.5226 19.0124C19.65 18.8878 19.7288 18.722 19.745 18.5445V14.2895C19.7661 14.1554 19.7596 14.0184 19.726 13.8869C19.6925 13.7553 19.6324 13.632 19.5496 13.5244C19.4668 13.4168 19.363 13.3272 19.2444 13.261C19.1258 13.1948 18.9951 13.1535 18.86 13.1395Z" stroke="#373B49" stroke-linecap="round" stroke-linejoin="round"/>
</svg>
