<svg width="62" height="58" viewBox="0 0 62 58" fill="none" xmlns="http://www.w3.org/2000/svg">
<path d="M27.5 40.4167L43.3333 24.5833L41.6666 22.9167L27.5 37.0833L20.3333 29.9167L18.6666 31.5833L27.5 40.4167ZM31 57.25C27.4444 57.25 24.1111 56.5833 21 55.25C17.8888 53.9167 15.1666 52.0833 12.8333 49.75C10.5 47.4167 8.66663 44.6944 7.33329 41.5833C5.99996 38.4722 5.33329 35.1389 5.33329 31.5833C5.33329 28.0278 5.99996 24.6944 7.33329 21.5833C8.66663 18.4722 10.5 15.75 12.8333 13.4167C15.1666 11.0833 17.8888 9.25 21 7.91667C24.1111 6.58333 27.4444 5.91667 31 5.91667C34.5555 5.91667 37.8889 6.58333 41 7.91667C44.1111 9.25 46.8333 11.0833 49.1666 13.4167C51.5 15.75 53.3333 18.4722 54.6666 21.5833C56 24.6944 56.6666 28.0278 56.6666 31.5833C56.6666 35.1389 56 38.4722 54.6666 41.5833C53.3333 44.6944 51.5 47.4167 49.1666 49.75C46.8333 52.0833 44.1111 53.9167 41 55.25C37.8889 56.5833 34.5555 57.25 31 57.25ZM11 0.75L12.6666 2.41667L1.83329 13.25L0.166626 11.5833L11 0.75ZM51 0.75L61.8333 11.5833L60.1666 13.25L49.3333 2.41667L51 0.75ZM31 54.9167C37.4444 54.9167 42.9444 52.6389 47.5 48.0833C52.0555 43.5278 54.3333 38.0278 54.3333 31.5833C54.3333 25.1389 52.0555 19.6389 47.5 15.0833C42.9444 10.5278 37.4444 8.25 31 8.25C24.5555 8.25 19.0555 10.5278 14.5 15.0833C9.9444 19.6389 7.66663 25.1389 7.66663 31.5833C7.66663 38.0278 9.9444 43.5278 14.5 48.0833C19.0555 52.6389 24.5555 54.9167 31 54.9167Z" fill="white"/>
</svg>
