<svg width="52" height="60" viewBox="0 0 52 60" fill="none" xmlns="http://www.w3.org/2000/svg">
<path d="M26 59.3333V57H46.6666C47.4444 57 48.0833 56.75 48.5833 56.25C49.0833 55.75 49.3333 55.1111 49.3333 54.3333V52H40V33.3333H49.3333V26.3333C49.3333 19.8888 47.0555 14.3888 42.5 9.83329C37.9444 5.27774 32.4444 2.99996 26 2.99996C19.5555 2.99996 14.0555 5.27774 9.49998 9.83329C4.94442 14.3888 2.66665 19.8888 2.66665 26.3333V33.3333H12V52H5.33331C3.88887 52 2.69442 51.5277 1.74998 50.5833C0.805534 49.6388 0.333313 48.4444 0.333313 47V26.3333C0.333313 22.7777 0.999979 19.4444 2.33331 16.3333C3.66665 13.2222 5.49998 10.5 7.83331 8.16663C10.1666 5.83329 12.8889 3.99996 16 2.66663C19.1111 1.33329 22.4444 0.666626 26 0.666626C29.5555 0.666626 32.8889 1.33329 36 2.66663C39.1111 3.99996 41.8333 5.83329 44.1666 8.16663C46.5 10.5 48.3333 13.2222 49.6666 16.3333C51 19.4444 51.6666 22.7777 51.6666 26.3333V54.3333C51.6666 55.7777 51.1944 56.9722 50.25 57.9166C49.3055 58.8611 48.1111 59.3333 46.6666 59.3333H26ZM5.33331 49.6666H9.66665V35.6666H2.66665V47C2.66665 47.7777 2.91665 48.4166 3.41665 48.9166C3.91665 49.4166 4.55554 49.6666 5.33331 49.6666ZM42.3333 49.6666H49.3333V35.6666H42.3333V49.6666Z" fill="white"/>
</svg>
