<svg width="60" height="60" viewBox="0 0 60 60" fill="none" xmlns="http://www.w3.org/2000/svg">
<path d="M24.5834 59.5833C21.0834 58.8611 17.8472 57.625 14.875 55.875C11.9028 54.125 9.33335 51.9444 7.16669 49.3333C5.00002 46.7222 3.33335 43.7777 2.16669 40.5C1.00002 37.2222 0.416687 33.7222 0.416687 30C0.416687 25.2777 1.51391 20.8194 3.70835 16.625C5.9028 12.4305 9.13891 8.6944 13.4167 5.41663H2.50002V2.83329H17.9167V18.25H15.4167V7.24996C11.3056 10.1388 8.19446 13.5694 6.08335 17.5416C3.97224 21.5138 2.91669 25.6666 2.91669 30C2.91669 36.6111 4.9028 42.4027 8.87502 47.375C12.8472 52.3472 18.0834 55.5277 24.5834 56.9166V59.5833ZM25.25 42.5L14 31.25L15.8334 29.4166L25.25 38.8333L44.1667 19.9166L46 21.75L25.25 42.5ZM42.0834 57.25V41.8333H44.5834V52.8333C48.6945 49.8889 51.8056 46.4305 53.9167 42.4583C56.0278 38.4861 57.0834 34.3333 57.0834 30C57.0834 23.3888 55.0972 17.5972 51.125 12.625C47.1528 7.65274 41.9167 4.47218 35.4167 3.08329V0.416626C42.5278 1.80551 48.3334 5.22218 52.8334 10.6666C57.3334 16.1111 59.5834 22.5555 59.5834 30C59.5834 34.7222 58.4861 39.1944 56.2917 43.4166C54.0972 47.6388 50.8611 51.3889 46.5834 54.6666H57.5V57.25H42.0834Z" fill="white"/>
</svg>
