<svg width="58" height="56" viewBox="0 0 58 56" fill="none" xmlns="http://www.w3.org/2000/svg">
<path d="M42.3333 25.3333C42.9444 25.3333 43.4867 25.0966 43.96 24.6233C44.4311 24.1522 44.6667 23.6111 44.6667 23C44.6667 22.3888 44.4311 21.8466 43.96 21.3733C43.4867 20.9022 42.9444 20.6666 42.3333 20.6666C41.7222 20.6666 41.1811 20.9022 40.71 21.3733C40.2367 21.8466 40 22.3888 40 23C40 23.6111 40.2367 24.1522 40.71 24.6233C41.1811 25.0966 41.7222 25.3333 42.3333 25.3333ZM15.6667 17.5H32.3333V15.1666H15.6667V17.5ZM7.25 55.3333C5.63889 49.5 4.36111 44.7644 3.41667 41.1266C2.47222 37.4866 1.75 34.4722 1.25 32.0833C0.75 29.6944 0.416667 27.7222 0.25 26.1666C0.0833335 24.6111 0 23 0 21.3333C0 17.4444 1.36111 14.1388 4.08333 11.4166C6.80556 8.6944 10.1111 7.33329 14 7.33329H32.8333C34.3333 5.33329 36.0556 3.72218 38 2.49996C39.9444 1.27774 41.9444 0.666626 44 0.666626C44.1667 0.666626 44.3189 0.735515 44.4567 0.873293C44.5967 1.01329 44.6667 1.16663 44.6667 1.33329C44.6667 1.38885 44.6533 1.42996 44.6267 1.45663C44.5978 1.48551 44.5833 1.55551 44.5833 1.66663C44.3055 2.38885 44.0278 3.24996 43.75 4.24996C43.4722 5.24996 43.1667 6.6944 42.8333 8.58329L53.25 19H58V34.75L49.4167 37.5833L44.0833 55.3333H33.3333V48.6666H18V55.3333H7.25ZM9 53H15.6667V46.3333H35.6667V53H42.3333L47.5 35.8333L55.6667 33.0833V21.3333H52.3333L40.6667 9.66663C40.6667 8.72218 40.75 7.66663 40.9167 6.49996C41.0833 5.33329 41.3333 4.30552 41.6667 3.41663C40.2222 3.80552 38.8467 4.61107 37.54 5.83329C36.2356 7.05551 35.25 8.33329 34.5833 9.66663H14C10.7778 9.66663 8.02778 10.8055 5.75 13.0833C3.47222 15.3611 2.33333 18.1111 2.33333 21.3333C2.33333 23.6111 2.91667 27.5133 4.08333 33.04C5.25 38.5688 6.88889 45.2222 9 53Z" fill="white"/>
</svg>
