<svg width="297" height="503" viewBox="0 0 297 503" fill="none" xmlns="http://www.w3.org/2000/svg">
<symbol id="left-2" width="296" height="503" viewBox="0 0 296 503">
<path d="M224.125 2.54856C224.365 2.53872 224.537 2.48785 224.67 2.41218C224.826 2.32436 224.926 2.20531 225.021 2.09287L225.021 2.09285C225.117 1.97936 225.207 1.87249 225.345 1.79217C225.482 1.71235 225.671 1.6566 225.966 1.6566C226.536 1.6566 226.974 1.92332 227.421 2.19575C227.433 2.20309 227.445 2.21043 227.457 2.21777C227.914 2.49584 228.384 2.77208 229.004 2.72546C229.513 2.68713 229.895 2.43225 230.266 2.18534L230.27 2.18269C230.643 1.93326 231.006 1.69268 231.487 1.65646C232.071 1.61252 232.516 1.87078 232.974 2.14985C232.988 2.15856 233.003 2.16729 233.017 2.17603C233.459 2.44555 233.919 2.7256 234.518 2.7256C235.133 2.7256 235.601 2.45243 236.056 2.18661L236.06 2.18427C236.519 1.91633 236.965 1.6566 237.552 1.6566C238.139 1.6566 238.586 1.91633 239.044 2.18427L239.048 2.18661C239.503 2.45243 239.971 2.7256 240.587 2.7256C241.202 2.7256 241.67 2.45243 242.125 2.1866L242.129 2.18427C242.588 1.91633 243.034 1.6566 243.621 1.6566C244.208 1.6566 244.655 1.91416 245.113 2.1809L245.122 2.18574C245.575 2.44962 246.042 2.72094 246.655 2.7256C247.282 2.73035 247.76 2.45422 248.224 2.18571L248.232 2.18072C248.702 1.90927 249.159 1.6473 249.758 1.6566C250.333 1.6655 250.769 1.91882 251.217 2.18104L251.225 2.18575C251.656 2.43811 252.099 2.69735 252.675 2.7239L252.675 146L252.675 146.003L254.45 175.503L254.45 175.503L254.451 175.509L261.451 215.509L261.451 215.51L262.451 220.51L262.451 220.512L273.451 265.512L273.452 265.513L277.95 282.507L277.952 282.513L280.45 300.503V336.5L280.675 500.776C279.397 500.774 278.592 500.664 277.849 500.543C277.753 500.528 277.658 500.512 277.563 500.496C276.913 500.388 276.268 500.281 275.348 500.242C273.732 500.174 272.425 500.393 271.162 500.605C270.988 500.634 270.815 500.663 270.643 500.692C269.214 500.924 267.791 501.096 265.975 500.777C263.467 500.338 261.863 500.242 259.345 500.242C258.712 500.242 258.105 500.327 257.53 500.425C257.383 500.45 257.238 500.476 257.096 500.501C256.679 500.576 256.281 500.647 255.901 500.685C255.393 500.736 254.923 500.728 254.492 500.592C254.067 500.458 253.677 500.198 253.326 499.74L252.55 472.999L252.55 472.999L252.05 443.001L252.55 397.501V397.5L252.55 356L252.55 355.999L252.05 328.001L252.05 327.999L252.55 317.002L252.55 316.999L252.05 298.499L252.05 298.494L250.05 282.494L250.05 282.494L250.049 282.488L244.049 257.988L244 258L244.049 257.988L237.049 229.988L237.048 229.987L234.549 220.49L234.548 220.487L234.049 217.99L234.049 217.99L234.047 217.984L233.549 216.488L232.049 207.492L232.049 207.491L230.549 199.492L230.549 199.491L229.049 190.492L229.049 190.492L228.049 183.992L228.049 183.992L227.049 177.992L227.05 177.992L227.048 177.986L226.051 174.498L226.549 172.01L226.551 172.001L226.549 171.992L226.05 168.838L226.05 166L226.05 165.996L224.237 143.5V143.498V35V12.5V2.6756V2.65393L224.222 2.63911L224.125 2.54856Z"  />
</symbol>
<symbol id="left-3" width="296" height="503" viewBox="0 0 296 503">
<path d="M244.774 303.603L244.779 303.573L244.754 303.555C240.348 300.354 236.283 295.149 232.802 289.072C229.322 282.996 226.426 276.051 224.358 269.373C223.507 266.623 222.609 263.795 221.691 260.902C217.335 247.175 212.521 232.003 210.015 216.999C209.152 211.828 208.39 207.388 207.686 203.282C205.851 192.579 204.407 184.156 202.567 171.033C201.235 161.529 199.786 149.237 198.671 139.319C198.114 134.361 197.639 129.996 197.304 126.871C197.137 125.309 197.004 124.056 196.914 123.194C196.868 122.763 196.833 122.43 196.81 122.205L196.783 121.948L196.776 121.883L196.775 121.867L196.774 121.863L196.774 121.862C196.774 121.861 196.774 121.861 196.772 121.862C196.768 121.862 196.758 121.863 196.731 121.866L196.774 121.861L196.774 121.86L193.153 92.9992L193.153 92.9986L193.153 92.9973L193.153 92.9962L193.152 92.9864L193.149 92.9478L193.137 92.7959L193.088 92.2088C193.046 91.6975 192.986 90.9542 192.911 90.0262C192.761 88.1702 192.555 85.5756 192.326 82.621C191.87 76.7117 191.326 69.3627 190.981 63.6032C190.258 51.5567 189.776 36.057 189.473 23.5686C189.322 17.3245 189.217 11.8333 189.148 7.90316C189.114 5.93809 189.09 4.36328 189.074 3.27975C189.066 2.73798 189.06 2.31904 189.056 2.03553L189.051 1.71344L189.051 1.67049L189.069 1.67532C189.121 1.68965 189.198 1.71012 189.294 1.73471C189.486 1.7839 189.755 1.84963 190.06 1.91577C190.671 2.04785 191.434 2.18243 192.034 2.18912C192.641 2.1959 193.121 2.04921 193.586 1.90701C193.614 1.89835 193.642 1.88971 193.67 1.88112C194.162 1.73135 194.647 1.59683 195.271 1.65442C195.849 1.7077 196.294 1.94796 196.744 2.19027C196.764 2.20096 196.784 2.21166 196.803 2.22235C197.272 2.47434 197.75 2.71905 198.379 2.72362C199.005 2.72817 199.485 2.44639 199.949 2.17458C199.963 2.16623 199.977 2.1579 199.991 2.14958C200.471 1.86872 200.937 1.60766 201.548 1.65448C202.154 1.70093 202.607 2.0751 203.071 2.45802C203.083 2.4676 203.094 2.47718 203.106 2.48676C203.577 2.8755 204.064 3.26506 204.725 3.25812C205.365 3.2514 205.837 2.84008 206.29 2.44508L206.309 2.42862C206.774 2.02341 207.222 1.64109 207.827 1.65462C208.407 1.66759 208.834 2.0383 209.278 2.4302L209.295 2.44568C209.728 2.82802 210.178 3.22577 210.791 3.25805C211.477 3.29421 211.986 2.92456 212.48 2.53741C212.51 2.51386 212.54 2.49024 212.57 2.46664C213.037 2.09892 213.501 1.73411 214.11 1.65421C214.692 1.57793 215.144 1.71072 215.604 1.86462C215.639 1.8763 215.674 1.8881 215.709 1.89994C216.136 2.044 216.58 2.19377 217.139 2.18913C217.678 2.18464 218.104 2.04331 218.516 1.90691C218.545 1.89727 218.574 1.88766 218.603 1.87812C219.042 1.73343 219.474 1.60512 220.03 1.65444C220.571 1.70233 221.002 1.90125 221.437 2.10177C221.457 2.11083 221.476 2.11989 221.496 2.12895C221.95 2.33777 222.412 2.54047 222.999 2.54999L222.999 2.55057L223.007 2.54955L224.226 2.38447V3.43097V6.43097V13.2882V127.431V131.931V138.711V143.931H224.226L224.227 143.936L224.727 148.935L224.727 148.936L225.226 155.434L225.227 155.435L225.726 163.934L225.726 163.934L226.226 171.931V171.933V174.431H226.226L226.227 174.44L227.727 182.439L227.727 182.44L228.727 188.939L228.727 188.94L230.227 197.44L231.727 205.94L233.227 214.438L233.227 214.44L233.727 217.938L233.726 217.938L233.728 217.945L234.728 221.443L234.728 221.445L236.228 227.443L237.728 233.443L238.728 237.443L239.728 241.443L241.228 247.443L241.228 247.444L244.228 258.942L244.228 258.944L247.728 273.942L247.728 273.943L249.727 281.941L249.728 281.943L250.727 286.937L250.727 286.941L252.226 298.931V298.934V399.431L252.226 449.431L252.226 449.432L253.223 499.592C252.928 499.14 252.45 498.163 252.112 496.99C251.736 495.684 251.535 494.144 251.945 492.822L251.954 492.793L251.932 492.771C251.788 492.631 251.641 492.56 251.501 492.533C251.362 492.505 251.233 492.524 251.123 492.559C251.014 492.594 250.923 492.647 250.86 492.691C250.854 492.695 250.849 492.699 250.844 492.702V484.255V484.228L250.821 484.213L249.188 483.159V478.91V478.872L249.151 478.862L243.119 477.268V471.427V471.392L243.086 471.38L243.085 471.38L243.083 471.379L243.075 471.376L243.043 471.364C243.014 471.354 242.972 471.338 242.917 471.318C242.808 471.276 242.649 471.214 242.451 471.133C242.057 470.969 241.509 470.726 240.894 470.408C239.669 469.775 238.185 468.848 237.128 467.667C237.13 462.057 237.585 453.952 238.113 444.827L238.186 443.567C238.695 434.764 239.256 425.093 239.533 415.841C239.725 409.46 240.157 402.86 240.605 396.278C240.639 395.772 240.674 395.266 240.708 394.76C241.122 388.688 241.534 382.647 241.766 376.823C242.045 369.805 241.878 362.812 241.718 356.111L241.705 355.567C241.541 348.701 241.398 342.151 241.766 336.203C242.648 321.929 243.648 310.353 244.774 303.603Z"  />
</symbol>
<symbol id="left-1" width="296" height="503" viewBox="0 0 296 503">
<path d="M295.75 497.065L281.96 498.637L281.927 498.641L281.918 498.673L281.966 498.687L281.918 498.673L281.918 498.674L281.917 498.675L281.916 498.679L281.911 498.697L281.899 498.738L281.891 498.764C281.874 498.822 281.848 498.906 281.816 499.005C281.75 499.205 281.656 499.471 281.542 499.736C281.428 500.002 281.295 500.265 281.152 500.461C281.08 500.559 281.007 500.638 280.934 500.693C280.879 500.734 280.826 500.76 280.774 500.77L280.464 463.5V417V370.5V335.25V300H280.465L280.464 299.993L277.964 282.993L277.963 282.988L269.463 248.488L269.463 248.488L261.963 218.992L261.963 218.988L254.464 175.494L252.464 145V144.998V119.5V2.72397H253.186V2.7251L253.197 2.72286L254.01 2.54889L254.011 2.5505L254.022 2.54472L255.02 2.0457L256 1.65874L256.979 2.04557L258.28 2.71838L258.291 2.72397H258.303H259.264V2.72446L259.271 2.72348L260.507 2.54951L260.517 2.54814L260.525 2.54319L262.048 1.65481C262.642 1.64947 263.096 1.90961 263.561 2.1791L263.57 2.18409C264.034 2.45259 264.511 2.72872 265.139 2.72397C265.754 2.7193 266.222 2.47715 266.68 2.2265C266.702 2.21455 266.724 2.20258 266.745 2.19062C267.182 1.95078 267.616 1.71272 268.178 1.65471C268.814 1.58896 269.309 1.73802 269.812 1.89754C269.827 1.90232 269.842 1.9071 269.857 1.91189C270.346 2.06692 270.847 2.22596 271.486 2.18939C272.196 2.14876 272.742 1.89707 273.277 1.65016L273.297 1.64093C273.84 1.39067 274.374 1.14793 275.071 1.12044C275.625 1.09861 276.061 1.2494 276.499 1.40104C276.523 1.4093 276.547 1.41756 276.571 1.4258C277.033 1.58502 277.504 1.73402 278.11 1.65455C278.75 1.57068 279.235 1.19056 279.699 0.826997C279.729 0.80346 279.759 0.779993 279.789 0.756681C280.284 0.370034 280.766 0.0248226 281.412 0.0514442C282.009 0.0760385 282.452 0.386155 282.905 0.740123C282.946 0.772565 282.988 0.805386 283.03 0.83837C283.441 1.16297 283.872 1.50333 284.436 1.65329C285.084 1.82597 285.919 1.82543 286.587 1.78274C286.922 1.76135 287.217 1.72926 287.428 1.70253C287.534 1.68916 287.618 1.67712 287.677 1.66841C287.688 1.66665 287.699 1.66503 287.709 1.66356L287.709 1.71519L287.707 2.04332L287.702 3.33378C287.698 4.46964 287.691 6.14824 287.684 8.31917C287.669 12.661 287.649 18.9722 287.629 26.8494C287.591 42.6039 287.555 64.6227 287.566 89.6801C287.587 139.795 287.794 202.064 288.537 250.681C288.905 274.798 289.473 293.607 290.044 312.417L290.06 312.931C290.626 331.569 291.193 350.255 291.571 374.15C291.781 387.401 292.03 399.325 292.266 410.587C292.846 438.344 293.343 462.076 292.951 491.731C292.873 491.986 292.757 492.225 292.632 492.455C292.579 492.552 292.523 492.648 292.469 492.744C292.394 492.873 292.321 493 292.257 493.123C292.033 493.555 291.894 493.98 292.128 494.434C292.687 495.516 293.663 496.191 294.496 496.594C294.913 496.796 295.294 496.93 295.572 497.014C295.638 497.034 295.697 497.051 295.75 497.065Z"  />
</symbol>
<symbol id="right-2" width="296" height="503" viewBox="0 0 296 503">
<path d="M90.923 500.648C87.2392 500.299 84.3528 500.364 81.4668 500.485C81.0635 500.502 80.6603 500.52 80.255 500.538C77.7448 500.65 75.152 500.766 71.9578 500.653C69.1365 500.553 66.7677 500.015 64.5117 499.503C63.7738 499.336 63.048 499.171 62.3224 499.025C59.3793 498.434 56.4478 498.158 52.7531 499.287C52.0598 499.499 51.5234 499.731 50.9933 499.961L50.9498 499.98C50.4219 500.209 49.896 500.434 49.2199 500.636L49.2842 4.16129C49.8677 4.25575 50.2151 4.51444 50.5865 4.79102C50.6538 4.84108 50.7218 4.89172 50.7921 4.94208C51.2657 5.28112 51.831 5.59408 52.9391 5.59408C53.4924 5.59408 53.8599 5.5025 54.1376 5.36116C54.4021 5.22654 54.5817 5.04821 54.7591 4.87213C54.7674 4.86382 54.7758 4.85551 54.7842 4.84721C54.9703 4.66271 55.1599 4.48114 55.4527 4.34075C55.7456 4.20032 56.1454 4.0995 56.7522 4.08479C57.3607 4.07003 57.7244 4.13572 57.9703 4.2389C58.2076 4.33845 58.3391 4.47423 58.4799 4.61952C58.4843 4.62402 58.4886 4.62853 58.493 4.63306C58.6399 4.78443 58.7985 4.94269 59.0918 5.06119C59.3835 5.17901 59.8046 5.25621 60.4761 5.25621C61.149 5.25621 61.5751 5.15539 61.8733 5.00616C62.1662 4.8596 62.3314 4.66823 62.4823 4.49343L62.4915 4.48286C62.6449 4.30525 62.7844 4.14804 63.0332 4.05373C63.2834 3.95889 63.6504 3.92565 64.2606 4.01587C64.8705 4.10605 65.1939 4.2481 65.383 4.40459C65.553 4.54519 65.6189 4.70013 65.6866 4.85935C65.6939 4.87661 65.7013 4.89391 65.7088 4.91126C65.7862 5.08998 65.8789 5.26618 66.1374 5.39347C66.3908 5.51829 66.7993 5.59408 67.5016 5.59408C68.206 5.59408 68.6673 5.50575 69.0035 5.36679C69.3406 5.22747 69.5482 5.03871 69.7458 4.84678C69.7619 4.8311 69.778 4.81542 69.7941 4.79975C69.9744 4.6236 70.1535 4.44873 70.4275 4.30027C70.7255 4.13879 71.1387 4.00728 71.7893 3.94781C72.4428 3.88807 72.8277 3.907 73.0803 3.96311C73.3268 4.01785 73.4494 4.10821 73.5784 4.20335L73.5834 4.20701C73.7178 4.30613 73.8598 4.40888 74.1418 4.47049C74.4209 4.53144 74.8352 4.55183 75.5158 4.49498C76.877 4.38129 77.2576 4.24374 77.5849 4.12499C77.7453 4.06678 77.8898 4.01446 78.1356 3.97203C78.3826 3.92942 78.7328 3.89667 79.3031 3.8796C79.8723 3.86257 80.2362 3.89249 80.5005 3.94595C80.7621 3.99888 80.9278 4.07515 81.1025 4.15555L81.106 4.15716C81.2833 4.23876 81.4697 4.324 81.7679 4.38824C82.0652 4.45229 82.4721 4.49515 83.0922 4.49515C83.7119 4.49515 84.1146 4.4566 84.4059 4.39689C84.6983 4.33694 84.8768 4.25592 85.0469 4.17388C85.0589 4.16813 85.0707 4.16238 85.0826 4.15663C85.2386 4.08111 85.3924 4.00665 85.632 3.94539C85.8906 3.87929 86.2507 3.82824 86.82 3.81121C87.3896 3.79416 87.7245 3.82851 87.9421 3.8875C88.1567 3.94567 88.2589 4.02808 88.3641 4.11593L88.3727 4.12308C88.4787 4.21166 88.5913 4.30572 88.8149 4.37635C89.0352 4.44593 89.3612 4.49232 89.8952 4.49503L90.923 500.648Z"  />
</symbol>
<symbol id="right-3" width="296" height="503" viewBox="0 0 296 503">
<path d="M134.782 253.938L134.782 253.939L140.95 485.923L140.95 485.925L140.531 498.868C140.478 500.486 139.179 501.782 137.561 501.811C134.573 501.864 129.894 501.906 126.44 501.745C123.736 501.619 121.471 500.937 119.31 500.287C118.664 500.093 118.028 499.901 117.391 499.728C114.627 498.976 111.878 498.576 108.431 499.828C107.421 500.195 106.654 500.687 105.903 501.169L105.772 501.253C104.978 501.762 104.187 502.25 103.123 502.568C100.791 503.263 98.9521 502.902 97.0977 502.306C96.6784 502.172 96.2578 502.025 95.8304 501.876C94.3718 501.367 92.8331 500.83 90.9893 500.652L89.9953 500.055V251.763L90.05 4.49298C90.5889 4.48995 90.9773 4.43786 91.2924 4.36159C91.5886 4.28991 91.8189 4.19705 92.045 4.10587C92.0666 4.09717 92.0881 4.08848 92.1097 4.07982C92.6008 3.88272 93.116 3.69634 94.3337 3.74077C94.9449 3.76308 95.3017 3.82105 95.5317 3.89377C95.7546 3.96426 95.8596 4.04886 95.9657 4.13438L95.972 4.13945C96.0842 4.22981 96.1997 4.32026 96.4428 4.3864C96.6828 4.45169 97.046 4.49312 97.6549 4.49312C98.2651 4.49312 98.6721 4.44029 98.9803 4.36032C99.2746 4.28396 99.4771 4.18324 99.6765 4.08403C99.6861 4.07923 99.6958 4.07444 99.7054 4.06965C99.9136 3.96624 100.125 3.86508 100.445 3.79046C100.767 3.71568 101.2 3.66717 101.852 3.67241C102.505 3.67767 102.895 3.71234 103.149 3.75906C103.4 3.8054 103.517 3.86357 103.626 3.91866L103.631 3.92145C103.742 3.97781 103.849 4.03184 104.069 4.06447C104.289 4.09719 104.624 4.10847 105.195 4.08272C106.283 4.03372 106.73 3.93348 107.161 3.83679C107.184 3.83164 107.207 3.8265 107.23 3.82137C107.679 3.7212 108.149 3.62761 109.37 3.60401C110.452 3.58311 111.025 3.61562 111.455 3.64001C111.511 3.64319 111.564 3.64623 111.616 3.64899C112.07 3.67315 112.4 3.67633 113.135 3.56931C113.69 3.48837 113.944 3.31497 114.199 3.13984C114.272 3.09026 114.344 3.04054 114.424 2.99274C114.783 2.77789 115.309 2.5828 116.672 2.5828C117.353 2.5828 117.788 2.65358 118.094 2.75676C118.4 2.85953 118.58 2.99528 118.753 3.13196C118.763 3.1397 118.773 3.14745 118.783 3.1552C118.947 3.28502 119.112 3.41576 119.372 3.51024C119.647 3.61015 120.025 3.66853 120.62 3.65133C121.217 3.63407 121.624 3.52413 121.936 3.36665C122.244 3.21137 122.455 3.01123 122.66 2.81767L122.667 2.81047C122.875 2.61417 123.076 2.42532 123.369 2.2841C123.662 2.14312 124.049 2.04812 124.628 2.04805C125.209 2.04798 125.507 2.14799 125.676 2.29124C125.838 2.42815 125.89 2.61055 125.95 2.82069C125.953 2.83051 125.956 2.8404 125.958 2.85034C126.021 3.07017 126.098 3.31117 126.335 3.51328C126.57 3.71438 126.958 3.87162 127.631 3.94568C129.007 4.09703 130.251 3.99422 131.138 3.85801C131.798 3.75662 132.447 4.25198 132.453 4.91219L134.782 253.938Z"  />
</symbol>
<symbol id="right-1" width="296" height="503" viewBox="0 0 296 503">
<path d="M9.63336 317.137L9.63769 317.137C9.64417 317.137 9.64417 317.137 9.64417 317.137L9.64418 317.135L9.64423 317.13L9.6444 317.109L9.6451 317.026L9.64784 316.698L9.65842 315.434L9.69762 310.733C9.73088 306.737 9.77723 301.151 9.82954 294.794C9.93416 282.081 10.0626 266.282 10.1581 253.943C10.8802 160.634 11.6334 17.22 11.6959 5.24547C11.6984 4.7608 12.0519 4.43938 12.5446 4.38762C14.0271 4.23188 17.042 4.00297 19.1572 4.42406C19.7738 4.54683 20.0353 4.83387 20.3335 5.16134C20.3878 5.22101 20.4434 5.28203 20.5026 5.34364C20.6947 5.54367 20.9226 5.74655 21.2662 5.92042C21.6094 6.09406 22.0657 6.23759 22.7139 6.3226C23.364 6.40787 23.7817 6.33188 24.0817 6.1614C24.3807 5.99148 24.5551 5.73139 24.7249 5.46937C24.7312 5.45963 24.7375 5.44989 24.7439 5.44015C24.9086 5.18572 25.0737 4.93059 25.348 4.73065C25.6313 4.52405 26.0359 4.37352 26.6851 4.35661C27.3384 4.3396 27.7457 4.40816 28.0251 4.51742C28.3029 4.62605 28.4581 4.7763 28.606 4.93315C28.6192 4.94707 28.6323 4.96107 28.6454 4.97513C28.7807 5.11977 28.9209 5.2696 29.15 5.38435C29.4013 5.51026 29.7555 5.59234 30.3244 5.59234C30.8938 5.59234 31.2523 5.50584 31.5126 5.37353C31.7415 5.25717 31.8916 5.10638 32.0382 4.95909C32.0578 4.93935 32.0774 4.91968 32.0971 4.90016C32.2638 4.73495 32.4434 4.57543 32.7517 4.45998C33.0615 4.34399 33.5047 4.27121 34.1994 4.28822C34.8954 4.30527 35.306 4.38279 35.5716 4.48962C35.8343 4.59529 35.9578 4.73057 36.0784 4.87441C36.0865 4.88402 36.0945 4.89369 36.1026 4.9034C36.2173 5.04104 36.3391 5.18713 36.5778 5.3098C36.8317 5.44029 37.2143 5.54286 37.8589 5.59219C38.5034 5.64152 38.9091 5.59781 39.1952 5.49634C39.4833 5.39416 39.6456 5.23487 39.8044 5.06666C39.8161 5.05425 39.8278 5.04181 39.8395 5.02933C39.986 4.87324 40.1371 4.71229 40.3928 4.5711C40.6691 4.41848 41.0707 4.28752 41.7227 4.21958C42.3771 4.15137 42.8089 4.14876 43.1247 4.18233C43.4394 4.21577 43.6406 4.28524 43.8348 4.36379C43.8676 4.37705 43.9003 4.39063 43.9334 4.40439C44.0972 4.47237 44.2709 4.54446 44.5117 4.60217C44.8015 4.67161 45.1875 4.7202 45.7749 4.7202C46.9517 4.7202 47.4664 4.52649 47.866 4.35701C47.8869 4.34819 47.9073 4.33947 47.9274 4.33088C48.0995 4.25738 48.2495 4.19331 48.431 4.15505C48.6242 4.1143 48.855 4.10263 49.1844 4.14517L49.1201 500.663C46.2851 501.482 44.0283 501.059 41.7543 500.537C41.5849 500.498 41.4154 500.459 41.2455 500.419C39.1258 499.926 36.9515 499.42 34.2573 499.831C33.5239 499.943 32.9466 500.088 32.3797 500.231L32.2832 500.256C31.6849 500.406 31.0883 500.552 30.318 500.651C28.29 500.913 26.7044 500.632 25.1118 500.323L24.8985 500.281C23.3754 499.984 21.8269 499.682 19.8699 499.83C18.826 499.909 18.0157 500.064 17.2078 500.224L17.0882 500.248C16.3199 500.401 15.5437 500.555 14.5577 500.651C11.7227 500.928 8.08604 500.722 5.15597 500.447C3.69139 500.309 2.40418 500.154 1.48315 500.033C1.04471 499.975 0.689274 499.926 0.437197 499.89C0.465404 499.886 0.49472 499.882 0.525064 499.878C0.84266 499.835 1.27374 499.752 1.72703 499.593C2.6325 499.276 3.63571 498.653 3.9885 497.432C4.86056 494.413 4.952 491.196 4.86605 487.709C4.8422 486.742 4.80471 485.754 4.76636 484.743C4.66643 482.11 4.56072 479.325 4.67572 476.355C4.95117 469.243 5.23141 463.916 5.52443 458.346C5.74696 454.116 5.97686 449.746 6.21763 444.348C7.33177 419.367 7.94603 405.354 8.6162 380.332C8.94652 367.999 9.20351 352.201 9.37792 339.485C9.46512 333.127 9.53169 327.54 9.57645 323.543C9.59883 321.544 9.61576 319.943 9.62709 318.841L9.63988 317.576L9.64309 317.248L9.6439 317.165L9.6441 317.144L9.64415 317.139L9.64416 317.137C9.64416 317.137 9.64416 317.137 9.63336 317.137Z"  />
</symbol>
</svg>
