<svg width="296" height="503" viewBox="0 0 296 503" fill="none" xmlns="http://www.w3.org/2000/svg">
<symbol id="left-1" width="296" height="503" viewBox="0 0 296 503">
<path d="M9.64417 317.137L9.64417 317.137L9.59677 317.136C9.61726 317.137 9.62889 317.137 9.6355 317.137C9.64417 317.137 9.64417 317.137 9.64417 317.136L9.64418 317.135L9.64423 317.13L9.6444 317.109L9.6451 317.026L9.64784 316.698L9.65842 315.434L9.69762 310.733C9.73088 306.737 9.77723 301.151 9.82954 294.794C9.93402 282.098 10.0623 266.324 10.1578 253.992L134.784 253.988L140.95 485.922L140.95 485.925L140.531 498.869C140.478 500.486 139.179 501.782 137.561 501.811C134.573 501.864 129.894 501.906 126.44 501.745C123.736 501.619 121.471 500.937 119.31 500.287C118.664 500.093 118.028 499.901 117.391 499.728C114.627 498.976 111.878 498.576 108.431 499.828C107.421 500.195 106.654 500.688 105.903 501.17L105.772 501.253C104.978 501.762 104.187 502.25 103.123 502.568C100.791 503.264 98.9521 502.902 97.0977 502.306C96.6784 502.172 96.2579 502.025 95.8304 501.876C94.3689 501.366 92.8269 500.828 90.978 500.651C87.268 500.296 84.3673 500.362 81.467 500.484C81.0638 500.5 80.6608 500.518 80.2555 500.536C77.7452 500.648 75.1524 500.764 71.958 500.651C69.1367 500.551 66.7678 500.013 64.5119 499.501C63.774 499.334 63.0482 499.169 62.3226 499.024C59.3795 498.432 56.448 498.156 52.7533 499.285C52.0599 499.497 51.5235 499.729 50.9933 499.959L50.95 499.978C50.4056 500.214 49.8632 500.446 49.1561 500.653C46.3042 501.485 44.0379 501.061 41.7543 500.537C41.5849 500.498 41.4153 500.459 41.2454 500.419C39.1258 499.926 36.9515 499.42 34.2573 499.831C33.5236 499.942 32.9462 500.088 32.3791 500.231L32.2832 500.255C31.6849 500.406 31.0883 500.552 30.318 500.651C28.29 500.913 26.7044 500.632 25.1118 500.322C25.0408 500.309 24.9697 500.295 24.8986 500.281C23.3755 499.984 21.827 499.682 19.8699 499.83C18.826 499.909 18.0157 500.064 17.2078 500.224L17.0876 500.248C16.3195 500.4 15.5434 500.555 14.5577 500.651C11.7227 500.928 8.08604 500.722 5.15597 500.446C3.69139 500.309 2.40418 500.154 1.48315 500.033C1.04474 499.975 0.689313 499.926 0.437238 499.89C0.465433 499.886 0.494735 499.882 0.525064 499.878C0.84266 499.835 1.27374 499.752 1.72703 499.593C2.63249 499.276 3.63571 498.653 3.9885 497.432C4.86056 494.413 4.952 491.196 4.86605 487.709C4.8422 486.742 4.80471 485.754 4.76636 484.743C4.66643 482.11 4.56072 479.324 4.67572 476.355C4.95117 469.243 5.23141 463.916 5.52443 458.346C5.74696 454.116 5.97686 449.746 6.21763 444.348C7.33177 419.367 7.94603 405.354 8.6162 380.332C8.94652 367.999 9.20351 352.201 9.37792 339.485C9.46512 333.127 9.53169 327.54 9.57645 323.543C9.59883 321.544 9.61576 319.942 9.62709 318.841L9.63988 317.576L9.64309 317.248L9.6439 317.165L9.6441 317.144L9.64415 317.139L9.64416 317.137C9.64416 317.137 9.64417 317.137 9.59417 317.136L9.64417 317.137Z" fill="#FFFDFD"  />
</symbol>
<symbol id="left-2" width="296" height="503" viewBox="0 0 296 503">
<path d="M10.1578 253.892C10.8798 160.582 11.6327 17.2176 11.6952 5.24517C11.6977 4.7605 12.0512 4.43909 12.5439 4.38732C14.0264 4.23159 17.0413 4.00267 19.1564 4.42377C19.7731 4.54654 20.0345 4.83358 20.3328 5.16105C20.3871 5.22072 20.4427 5.28174 20.5019 5.34335C20.694 5.54337 20.9218 5.74626 21.2655 5.92013C21.6087 6.09377 22.065 6.2373 22.7132 6.32231C23.3633 6.40758 23.781 6.33158 24.081 6.16111C24.3799 5.99118 24.5544 5.7311 24.7242 5.46908C24.7305 5.45934 24.7368 5.4496 24.7431 5.43986C24.9078 5.18543 25.073 4.93029 25.3473 4.73035C25.6306 4.52375 26.0352 4.37322 26.6844 4.35632C27.3376 4.33931 27.745 4.40787 28.0244 4.51713C28.3021 4.62575 28.4573 4.776 28.6053 4.93286C28.6185 4.94678 28.6316 4.96078 28.6447 4.97483C28.78 5.11947 28.9202 5.26931 29.1492 5.38405C29.4006 5.50997 29.7548 5.59205 30.3237 5.59205C30.8931 5.59205 31.2516 5.50555 31.5119 5.37324C31.7408 5.25688 31.8909 5.10609 32.0375 4.9588C32.0571 4.93906 32.0767 4.91939 32.0964 4.89987C32.2631 4.73466 32.4427 4.57513 32.751 4.45968C33.0607 4.3437 33.504 4.27092 34.1987 4.28793C34.8947 4.30497 35.3053 4.3825 35.5709 4.48933C35.8336 4.59499 35.9571 4.73028 36.0777 4.87412C36.0858 4.88373 36.0938 4.89341 36.1019 4.90312C36.2166 5.04075 36.3384 5.18684 36.5771 5.30951C36.831 5.44 37.2136 5.54257 37.8582 5.5919C38.5027 5.64123 38.9084 5.59752 39.1945 5.49605C39.4826 5.39386 39.6449 5.23457 39.8037 5.06636C39.8154 5.05396 39.8271 5.04151 39.8388 5.02903C39.9853 4.87294 40.1364 4.71199 40.3921 4.5708C40.6684 4.41819 41.07 4.28723 41.722 4.21928C42.3764 4.15108 42.8081 4.14847 43.124 4.18204C43.4386 4.21548 43.6398 4.28495 43.8341 4.36349C43.8669 4.37676 43.8996 4.39034 43.9327 4.40409C44.0965 4.47208 44.2702 4.54416 44.511 4.60188C44.8008 4.67132 45.1867 4.7199 45.7742 4.7199C46.951 4.7199 47.4657 4.5262 47.8653 4.35672C47.8861 4.3479 47.9065 4.33918 47.9267 4.33059C48.0988 4.25709 48.2488 4.19302 48.4302 4.15475C48.6318 4.11225 48.8742 4.10139 49.2267 4.15068C49.8449 4.23713 50.2026 4.50353 50.586 4.78898C50.6532 4.83904 50.7212 4.88969 50.7916 4.94005C51.2651 5.27909 51.8305 5.59205 52.9385 5.59205C53.4919 5.59205 53.8594 5.50047 54.137 5.35913C54.4015 5.22451 54.5812 5.04618 54.7585 4.87009C54.7669 4.86178 54.7753 4.85347 54.7836 4.84518C54.9698 4.66068 55.1594 4.47911 55.4522 4.33872C55.7451 4.19829 56.1449 4.09747 56.7517 4.08275C57.3601 4.068 57.7238 4.13369 57.9697 4.23687C58.207 4.33642 58.3386 4.47219 58.4794 4.61747L58.4925 4.63103C58.6393 4.7824 58.798 4.94066 59.0913 5.05916C59.3829 5.17698 59.8041 5.25418 60.4756 5.25418C61.1485 5.25418 61.5746 5.15336 61.8728 5.00412C62.1657 4.85757 62.3309 4.6662 62.4818 4.49141L62.491 4.48083C62.6444 4.30322 62.7839 4.14601 63.0327 4.0517C63.2829 3.95686 63.6498 3.92362 64.26 4.01384C64.87 4.10402 65.1934 4.24606 65.3825 4.40256C65.5524 4.54316 65.6183 4.6981 65.6861 4.85732C65.6934 4.87458 65.7008 4.89188 65.7083 4.90923C65.7857 5.08795 65.8784 5.26415 66.1368 5.39144C66.3902 5.51626 66.7988 5.59205 67.5011 5.59205C68.2055 5.59205 68.6667 5.50372 69.003 5.36476C69.3401 5.22544 69.5477 5.03668 69.7453 4.84475C69.7614 4.82907 69.7775 4.81339 69.7935 4.79771C69.9739 4.62157 70.153 4.4467 70.4269 4.29824C70.7249 4.13676 71.1382 4.00525 71.7888 3.94578C72.4423 3.88603 72.8271 3.90497 73.0798 3.96108C73.3263 4.01582 73.4488 4.10618 73.5779 4.20133L73.5828 4.20498C73.7173 4.3041 73.8593 4.40685 74.1413 4.46845C74.4204 4.52941 74.8346 4.5498 75.5153 4.49295C76.8765 4.37926 77.2571 4.24171 77.5844 4.12296C77.7448 4.06475 77.8893 4.01243 78.1351 3.97C78.3821 3.92739 78.7322 3.89464 79.3026 3.87757C79.8718 3.86054 80.2357 3.89046 80.4999 3.94392C80.7615 3.99684 80.9273 4.07312 81.102 4.15351L81.1055 4.15513C81.2828 4.23673 81.4692 4.32197 81.7674 4.38621C82.0647 4.45025 82.4716 4.49312 83.0916 4.49312C83.7114 4.49312 84.1141 4.45457 84.4053 4.39486C84.6977 4.3349 84.8762 4.25389 85.0464 4.17185C85.0583 4.16609 85.0702 4.16034 85.0821 4.15459C85.2381 4.07907 85.3919 4.00462 85.6315 3.94336C85.8901 3.87726 86.2502 3.82621 86.8194 3.80918C87.3891 3.79213 87.7239 3.82647 87.9416 3.88547C88.1562 3.94364 88.2583 4.02604 88.3636 4.1139L88.3722 4.12105C88.4782 4.20963 88.5908 4.30369 88.8144 4.37432C89.0414 4.44603 89.3808 4.49312 89.9446 4.49312C91.0281 4.49312 91.5248 4.29826 92.0146 4.10609C92.0368 4.09738 92.059 4.08868 92.0812 4.07999C92.5863 3.88273 93.1152 3.69634 94.333 3.74077C94.9442 3.76308 95.301 3.82105 95.531 3.89377C95.7539 3.96426 95.8589 4.04885 95.965 4.13436L95.9713 4.13945C96.0835 4.22981 96.199 4.32026 96.4421 4.3864C96.6821 4.45169 97.0453 4.49312 97.6542 4.49312C98.2644 4.49312 98.6714 4.44029 98.9796 4.36032C99.2739 4.28396 99.4763 4.18324 99.6758 4.08404L99.7047 4.06965C99.9129 3.96624 100.124 3.86508 100.444 3.79046C100.766 3.71568 101.199 3.66717 101.851 3.67241C102.505 3.67767 102.895 3.71234 103.148 3.75906C103.399 3.8054 103.516 3.86357 103.625 3.91866L103.63 3.92144C103.742 3.97781 103.848 4.03184 104.068 4.06447C104.289 4.09719 104.623 4.10847 105.195 4.08272C106.282 4.03372 106.729 3.93348 107.16 3.83679C107.183 3.83164 107.206 3.8265 107.229 3.82137C107.678 3.7212 108.148 3.62761 109.369 3.60401C110.451 3.58311 111.024 3.61562 111.454 3.64001C111.51 3.64319 111.564 3.64623 111.616 3.64899C112.069 3.67315 112.4 3.67633 113.134 3.56931C113.69 3.48837 113.943 3.31497 114.199 3.13985C114.271 3.09026 114.344 3.04054 114.424 2.99274C114.782 2.77789 115.308 2.5828 116.671 2.5828C117.352 2.5828 117.787 2.65358 118.094 2.75676C118.399 2.85953 118.58 2.99528 118.753 3.13196L118.782 3.1552C118.946 3.28502 119.111 3.41577 119.371 3.51024C119.646 3.61015 120.024 3.66853 120.619 3.65133C121.216 3.63407 121.624 3.52413 121.936 3.36665C122.243 3.21137 122.455 3.01122 122.659 2.81765L122.667 2.81047C122.874 2.61417 123.075 2.42532 123.368 2.2841C123.661 2.14312 124.048 2.04812 124.627 2.04805C125.208 2.04798 125.507 2.14799 125.676 2.29124C125.837 2.42815 125.889 2.61055 125.949 2.82069L125.958 2.85034C126.021 3.07017 126.097 3.31117 126.334 3.51328C126.57 3.71438 126.957 3.87162 127.631 3.94568C129.006 4.09703 130.251 3.99422 131.137 3.85801C131.797 3.75661 132.446 4.25198 132.452 4.91218L133.61 128.729L134.781 253.887L10.1578 253.892Z"  />
</symbol>
<symbol id="right-1" width="296" height="503" viewBox="0 0 296 503">
<path d="M244.756 303.604L244.761 303.573L244.736 303.555C240.332 300.354 236.268 295.149 232.788 289.072C229.309 282.996 226.414 276.051 224.347 269.373C223.496 266.622 222.599 263.794 221.681 260.902C220.63 257.589 219.552 254.191 218.486 250.73H288.505C288.874 274.823 289.441 293.62 290.011 312.416L290.027 312.932C290.593 331.57 291.16 350.255 291.538 374.15C291.747 387.401 291.997 399.325 292.232 410.587C292.813 438.343 293.309 462.076 292.917 491.73C292.839 491.986 292.723 492.225 292.598 492.455C292.545 492.552 292.49 492.648 292.435 492.743C292.361 492.873 292.288 493 292.224 493.123C292 493.555 291.861 493.98 292.095 494.434C292.654 495.516 293.63 496.19 294.462 496.594C294.878 496.795 295.26 496.93 295.538 497.014C295.603 497.034 295.663 497.051 295.716 497.065L281.93 498.637L281.897 498.641L281.888 498.673L281.888 498.674L281.887 498.675L281.886 498.679L281.881 498.697C281.877 498.712 281.87 498.735 281.861 498.764C281.844 498.822 281.818 498.905 281.786 499.005C281.72 499.205 281.626 499.47 281.513 499.736C281.399 500.002 281.265 500.265 281.122 500.461C281.05 500.559 280.977 500.638 280.905 500.693C280.832 500.747 280.762 500.775 280.695 500.775C279.388 500.775 278.572 500.664 277.82 500.541C277.724 500.526 277.629 500.51 277.534 500.494C276.884 500.386 276.24 500.279 275.319 500.24C273.704 500.172 272.398 500.391 271.135 500.603C270.961 500.633 270.789 500.662 270.616 500.69C269.188 500.922 267.766 501.094 265.95 500.775C263.442 500.336 261.839 500.24 259.323 500.24C258.69 500.24 258.083 500.326 257.507 500.423C257.361 500.448 257.216 500.474 257.073 500.5C256.657 500.574 256.259 500.645 255.88 500.683C255.371 500.734 254.901 500.726 254.471 500.59C254.042 500.454 253.648 500.191 253.295 499.725C253.017 499.359 252.468 498.296 252.092 496.99C251.715 495.684 251.515 494.145 251.924 492.822L251.933 492.793L251.911 492.771C251.767 492.631 251.621 492.56 251.481 492.533C251.342 492.506 251.212 492.524 251.103 492.559C250.994 492.594 250.903 492.647 250.84 492.691C250.834 492.695 250.829 492.699 250.824 492.702V484.255V484.228L250.801 484.213L249.169 483.159V478.91V478.872L249.132 478.862L243.102 477.268V471.427V471.392L243.068 471.38L243.052 471.427L243.068 471.38L243.068 471.38L243.068 471.38L243.066 471.379L243.058 471.376L243.025 471.365C242.996 471.354 242.954 471.339 242.899 471.318C242.79 471.276 242.631 471.214 242.434 471.133C242.04 470.969 241.492 470.726 240.877 470.409C239.653 469.776 238.169 468.848 237.113 467.667C237.114 462.057 237.569 453.952 238.097 444.827L238.17 443.567C238.679 434.764 239.239 425.093 239.517 415.841C239.708 409.46 240.141 402.86 240.588 396.278C240.622 395.772 240.657 395.266 240.691 394.761C241.105 388.689 241.517 382.647 241.749 376.823C242.028 369.805 241.861 362.812 241.701 356.111L241.688 355.567C241.524 348.701 241.381 342.151 241.749 336.203C242.63 321.929 243.631 310.353 244.756 303.604Z"  />
</symbol>
<symbol id="right-2" width="296" height="503" viewBox="0 0 296 503">
<path d="M196.767 121.862L196.771 121.862L196.771 121.86L193.152 92.9996L193.152 92.9989L193.152 92.9977L193.152 92.9965L193.151 92.9868L193.148 92.9481L193.135 92.7962L193.087 92.2091C193.045 91.6978 192.985 90.9545 192.91 90.0265C192.76 88.1706 192.553 85.576 192.325 82.6213C191.869 76.7121 191.326 69.3631 190.98 63.6036C190.258 51.557 189.775 36.0574 189.473 23.569C189.322 17.3248 189.216 11.8337 189.148 7.90351C189.114 5.93844 189.09 4.36363 189.074 3.2801C189.066 2.73833 189.06 2.31938 189.056 2.03588L189.051 1.71379L189.051 1.67084L189.068 1.67566C189.121 1.68999 189.198 1.71046 189.294 1.73506C189.486 1.78425 189.755 1.84997 190.06 1.91611C190.67 2.04819 191.433 2.18277 192.033 2.18947C192.64 2.19624 193.119 2.04956 193.584 1.90735C193.612 1.89869 193.641 1.89005 193.669 1.88146C194.161 1.73169 194.645 1.59717 195.269 1.65476C195.847 1.70805 196.292 1.9483 196.741 2.19061C196.761 2.20131 196.781 2.21201 196.801 2.22269C197.269 2.47469 197.747 2.7194 198.376 2.72397C199.001 2.72851 199.482 2.44674 199.945 2.17492C199.959 2.16658 199.973 2.15824 199.988 2.14992C200.467 1.86906 200.933 1.608 201.544 1.65483C202.15 1.70127 202.603 2.07544 203.066 2.45836C203.078 2.46794 203.09 2.47752 203.101 2.4871C203.572 2.87584 204.059 3.2654 204.72 3.25846C205.359 3.25174 205.831 2.84042 206.284 2.44543L206.303 2.42896C206.768 2.02375 207.216 1.64144 207.82 1.65496C208.4 1.66794 208.828 2.03864 209.271 2.43054L209.288 2.44602C209.721 2.82836 210.171 3.22612 210.783 3.2584C211.47 3.29456 211.979 2.9249 212.473 2.53775C212.503 2.5142 212.533 2.49058 212.563 2.46698C213.029 2.09927 213.493 1.73446 214.102 1.65455C214.683 1.57827 215.135 1.71106 215.595 1.86497C215.63 1.87664 215.665 1.88845 215.7 1.90029C216.127 2.04435 216.571 2.19412 217.129 2.18947C217.668 2.18499 218.094 2.04365 218.506 1.90725C218.535 1.89761 218.564 1.888 218.593 1.87846C219.032 1.73378 219.464 1.60546 220.02 1.65478C220.564 1.70297 220.981 1.94433 221.404 2.18915C221.418 2.19742 221.433 2.2057 221.447 2.21397C221.883 2.466 222.329 2.7144 222.919 2.72396C223.537 2.73399 224.006 2.45891 224.462 2.18987L224.467 2.18682C224.924 1.91737 225.369 1.65498 225.954 1.65498C226.524 1.65498 226.962 1.92169 227.409 2.19412C227.421 2.20146 227.433 2.2088 227.445 2.21614C227.901 2.49421 228.371 2.77045 228.991 2.72383C229.5 2.6855 229.882 2.43061 230.252 2.18372L230.256 2.18106C230.63 1.93163 230.992 1.69105 231.473 1.65484C232.057 1.6109 232.501 1.86915 232.959 2.14822C232.974 2.15693 232.988 2.16565 233.002 2.17439C233.444 2.44392 233.904 2.72397 234.503 2.72397C235.118 2.72397 235.586 2.4508 236.041 2.18497L236.045 2.18264C236.503 1.9147 236.949 1.65498 237.536 1.65498C238.123 1.65498 238.569 1.9147 239.028 2.18264L239.032 2.18497C239.487 2.4508 239.954 2.72397 240.57 2.72397C241.185 2.72397 241.653 2.4508 242.108 2.18497L242.112 2.18264C242.57 1.9147 243.016 1.65498 243.603 1.65498C244.19 1.65498 244.636 1.91253 245.095 2.17927L245.103 2.1841C245.557 2.44799 246.023 2.71932 246.636 2.72397C247.263 2.72872 247.74 2.45258 248.204 2.18408L248.213 2.17909C248.682 1.90764 249.139 1.64567 249.738 1.65497C250.312 1.66387 250.748 1.91719 251.196 2.17941L251.204 2.18412C251.647 2.44357 252.103 2.71029 252.702 2.72396C253.346 2.73863 253.836 2.46404 254.314 2.19373L254.324 2.18789C254.801 1.91832 255.266 1.65498 255.875 1.65498C256.484 1.65498 256.949 1.91832 257.426 2.18789L257.436 2.19373C257.914 2.46404 258.404 2.73863 259.048 2.72396C259.647 2.71029 260.103 2.44357 260.546 2.18412L260.554 2.17941C261.002 1.91719 261.438 1.66387 262.012 1.65497C262.611 1.64567 263.068 1.90764 263.537 2.17909L263.546 2.18407C264.01 2.45258 264.487 2.72872 265.114 2.72397C265.73 2.7193 266.197 2.47715 266.655 2.22649C266.677 2.21454 266.698 2.20257 266.72 2.19061C267.157 1.95077 267.591 1.71272 268.152 1.65471C268.788 1.58896 269.283 1.73802 269.786 1.89754L269.831 1.91188C270.319 2.06692 270.82 2.22597 271.459 2.18939C272.169 2.14875 272.714 1.89706 273.25 1.65015L273.27 1.64093C273.812 1.39067 274.346 1.14793 275.043 1.12044C275.597 1.09861 276.033 1.2494 276.471 1.40104C276.495 1.4093 276.519 1.41756 276.543 1.4258C277.005 1.58502 277.475 1.73402 278.081 1.65455C278.721 1.57068 279.205 1.19056 279.669 0.827001C279.699 0.803462 279.729 0.779992 279.759 0.756676C280.255 0.370028 280.736 0.0248231 281.382 0.0514441C281.978 0.0760381 282.421 0.386149 282.874 0.740118C282.916 0.772564 282.957 0.805389 282.999 0.838377C283.41 1.16297 283.842 1.50333 284.405 1.65329C285.053 1.82597 285.887 1.82543 286.555 1.78274C286.89 1.76135 287.185 1.72926 287.396 1.70253C287.502 1.68916 287.586 1.67712 287.645 1.66841C287.656 1.66666 287.667 1.66503 287.677 1.66356L287.676 1.71519L287.675 2.04332L287.67 3.33378C287.665 4.46964 287.659 6.14824 287.651 8.31917C287.636 12.661 287.616 18.9722 287.597 26.8494C287.559 42.6039 287.523 64.6227 287.534 89.6801C287.555 139.777 287.762 202.02 288.503 250.63H218.455C215.117 239.788 211.902 228.345 210.008 216.999C209.145 211.829 208.384 207.388 207.68 203.283C205.845 192.579 204.402 184.157 202.562 171.033C201.231 161.53 199.783 149.237 198.668 139.32C198.111 134.361 197.636 129.997 197.302 126.872C197.134 125.309 197.002 124.057 196.911 123.195C196.866 122.764 196.831 122.43 196.807 122.205L196.78 121.949L196.774 121.883L196.772 121.867L196.772 121.863L196.771 121.862C196.771 121.862 196.771 121.862 196.767 121.862Z"  />
</symbol>
</svg>
