<svg width="66" height="66" viewBox="0 0 66 66" fill="none" xmlns="http://www.w3.org/2000/svg">
<path d="M30.5 56.4166L14.3333 47C13.5555 46.5555 12.9444 45.9444 12.5 45.1666C12.0555 44.3888 11.8333 43.5555 11.8333 42.6666V23.8333C11.8333 22.9444 12.0555 22.1111 12.5 21.3333C12.9444 20.5555 13.5555 19.9444 14.3333 19.5L30.5 10.0833C31.2777 9.63885 32.1111 9.41663 33 9.41663C33.8888 9.41663 34.7222 9.63885 35.5 10.0833L51.6666 19.5C52.4444 19.9444 53.0555 20.5555 53.5 21.3333C53.9444 22.1111 54.1666 22.9444 54.1666 23.8333V42.6666C54.1666 43.5555 53.9444 44.3888 53.5 45.1666C53.0555 45.9444 52.4444 46.5555 51.6666 47L35.5 56.4166C34.7222 56.8611 33.8888 57.0833 33 57.0833C32.1111 57.0833 31.2777 56.8611 30.5 56.4166ZM31.8333 54.5V33.8333L14.1666 23.8333V42.6666C14.1666 43.1111 14.2777 43.5277 14.5 43.9166C14.7222 44.3055 15.0555 44.6388 15.5 44.9166L31.8333 54.5ZM34.1666 54.5L50.5 44.9166C50.9444 44.6388 51.2777 44.3055 51.5 43.9166C51.7222 43.5277 51.8333 43.1111 51.8333 42.6666V23.8333L34.1666 33.8333V54.5ZM0.666626 13V7.99996C0.666626 5.9444 1.37551 4.20774 2.79329 2.78996C4.20885 1.3744 5.9444 0.666626 7.99996 0.666626H13V2.99996H7.99996C6.61107 2.99996 5.43107 3.47218 4.45996 4.41663C3.48663 5.36107 2.99996 6.55551 2.99996 7.99996V13H0.666626ZM7.99996 65.3333C5.9444 65.3333 4.20885 64.6244 2.79329 63.2066C1.37551 61.7911 0.666626 60.0555 0.666626 58V53H2.99996V58C2.99996 59.3889 3.48663 60.5689 4.45996 61.54C5.43107 62.5133 6.61107 63 7.99996 63H13V65.3333H7.99996ZM53 64.5V62.1666H58C59.4444 62.1666 60.6389 61.68 61.5833 60.7066C62.5277 59.7355 63 58.5555 63 57.1666V52.1666H65.3333V57.1666C65.3333 59.2222 64.6244 60.9577 63.2066 62.3733C61.7911 63.7911 60.0555 64.5 58 64.5H53ZM63 13V7.99996C63 6.55551 62.5277 5.36107 61.5833 4.41663C60.6389 3.47218 59.4444 2.99996 58 2.99996H53V0.666626H58C60.0555 0.666626 61.7911 1.3744 63.2066 2.78996C64.6244 4.20774 65.3333 5.9444 65.3333 7.99996V13H63ZM33 31.8333L50.6666 21.6666L34.3333 12.25C33.8888 11.9722 33.4444 11.8333 33 11.8333C32.5555 11.8333 32.1111 11.9722 31.6666 12.25L15.3333 21.6666L33 31.8333Z" fill="white"/>
</svg>
