<svg width="61" height="60" viewBox="0 0 61 60" fill="none" xmlns="http://www.w3.org/2000/svg">
<path d="M44 29.6667C41.5556 27.6667 39.2922 25.6944 37.21 23.75C35.1256 21.8056 33.3333 19.9167 31.8333 18.0833C30.3333 16.25 29.1533 14.5 28.2933 12.8333C27.4311 11.1667 27 9.61111 27 8.16667C27 5.88889 27.7922 3.95778 29.3767 2.37333C30.9589 0.791111 32.8889 0 35.1667 0C36.6667 0 38.1811 0.43 39.71 1.29C41.2367 2.15222 42.6667 3.5 44 5.33333C45.3333 3.5 46.7644 2.15222 48.2933 1.29C49.82 0.43 51.3333 0 52.8333 0C55.1111 0 57.0422 0.791111 58.6267 2.37333C60.2089 3.95778 61 5.88889 61 8.16667C61 9.61111 60.57 11.1667 59.71 12.8333C58.8478 14.5 57.6667 16.25 56.1667 18.0833C54.6667 19.9167 52.8755 21.8056 50.7933 23.75C48.7089 25.6944 46.4444 27.6667 44 29.6667ZM44 26.5C47.9444 23.2222 51.3756 19.9722 54.2933 16.75C57.2089 13.5278 58.6667 10.6667 58.6667 8.16667C58.6667 6.5 58.1111 5.11111 57 4C55.8889 2.88889 54.5 2.33333 52.8333 2.33333C51.8889 2.33333 50.82 2.63889 49.6267 3.25C48.4311 3.86111 47.1111 5.11111 45.6667 7L44 9.16667L42.3333 7C40.8889 5.11111 39.57 3.86111 38.3767 3.25C37.1811 2.63889 36.1111 2.33333 35.1667 2.33333C33.5 2.33333 32.1111 2.88889 31 4C29.8889 5.11111 29.3333 6.5 29.3333 8.16667C29.3333 10.6667 30.7922 13.5278 33.71 16.75C36.6256 19.9722 40.0556 23.2222 44 26.5ZM37.3333 59.1667L11.3333 51.5V55.6667H0V31.3333H19.6667L39.6667 38.6667C40.6667 39.0556 41.5556 39.7633 42.3333 40.79C43.1111 41.8189 43.5 43.2222 43.5 45H54.5C56.2778 45 57.5833 45.6389 58.4167 46.9167C59.25 48.1945 59.6667 49.8889 59.6667 52V52.1667L37.3333 59.1667ZM2.33333 53.3333H9V33.6667H2.33333V53.3333ZM37.1667 56.6667L57.1667 50.5C57.1667 49.5556 56.9311 48.7922 56.46 48.21C55.9867 47.6256 55.3333 47.3333 54.5 47.3333H39C37.5556 47.3333 36.0833 47.2367 34.5833 47.0433C33.0833 46.8478 31.7778 46.5556 30.6667 46.1667L24 44L25 41.6667L31.1667 43.8333C32.3333 44.2778 33.6389 44.5833 35.0833 44.75C36.5278 44.9167 38.5556 45 41.1667 45C41.1667 43.8333 40.9722 42.9167 40.5833 42.25C40.1944 41.5833 39.6111 41.1111 38.8333 40.8333L19.3333 33.6667H11.3333V49L37.1667 56.6667Z" fill="white"/>
</svg>
