<svg width="547" height="512" viewBox="0 0 547 512" fill="none" xmlns="http://www.w3.org/2000/svg">
<symbol id="left-1"  width="547" height="512" viewBox="0 0 547 512">
<path d="M150.943 110.558C130.084 73.1867 95.6865 1.01541 103.006 1.01317C146.079 0.999959 216.018 0.998478 281.502 1.00105L291.002 60.5L324.502 146.5L367.002 230L407.457 291.906L428.502 331.84L430.145 507.147L423.558 506.231L407.457 505.132C407.457 505.132 394.65 503.301 394.65 499.271V482.784C394.65 482.784 387.697 481.728 387.697 478.388C387.697 455.673 392.627 433.564 394.65 404.748C397.108 369.722 398.784 350.23 400.87 340.633C402.819 331.66 403.431 331.84 403.431 331.84C403.431 331.84 396.361 331.462 390.259 330.743C359.155 327.079 309.023 297.404 309.023 297.404C309.023 297.404 267.279 269.389 246.45 245.38C202.904 195.186 182.108 166.395 150.943 110.558Z" />
</symbol>
<symbol id="left-2"  width="547" height="512" viewBox="0 0 547 512">
<path d="M436.73 508.064H448.805C448.805 508.064 458.966 510.957 465.638 510.995C471.115 511.026 480.641 510.995 481.373 508.797C481.734 507.711 481.739 506.232 481.739 506.232C481.739 506.232 502.815 507.793 515.77 504.767C521.44 503.442 528.943 501.254 535.529 500.004C541.692 498.835 547.19 498.643 545.776 496.341C544.633 494.48 543.214 493.41 543.214 493.41C543.214 493.41 542.604 490.735 539.92 490.479C516.867 488.281 511.024 488.647 489.056 488.647C467.467 488.647 461.612 434.059 456.855 395.957C452.543 361.425 453.171 320.484 449.031 301.339C449.165 301.503 449.331 301.661 449.536 301.799C450.515 302.458 452.314 302.631 453.196 302.532C454.466 302.389 455.749 302.441 456.855 301.799C458.364 300.922 459.146 300.128 459.782 298.502C460.306 297.163 460.479 296.642 460.514 295.205C460.542 294.063 460.173 293.016 459.794 291.94L459.782 291.907C459.307 290.558 458.067 289.368 456.855 288.61C455.5 287.762 454.776 288.109 453.196 287.877C451.915 287.69 449.902 288.244 449.902 288.244C449.902 288.244 451.129 268.825 451.733 256.372C455.002 188.92 451.733 83.4477 451.733 83.4477L446.975 29.2257H445.512V25.9285L446.609 25.5621C446.609 25.5621 448.033 17.5311 447.707 12.373C447.421 7.86444 445.512 1.01565 445.512 1.01565C445.512 1.01565 367.332 1.00532 281.5 1.00195L291 60.5009L324.5 146.501L367 230.001L407.456 291.907L428.5 331.841L430.143 507.148L436.73 508.064Z" />
</symbol>
<symbol id="right-1"  width="547" height="512" viewBox="0 0 547 512">
<path d="M396.057 110.558C416.916 73.1867 451.314 1.01541 443.994 1.01317C400.921 0.999959 330.982 0.998478 265.498 1.00105L255.998 60.5L222.498 146.5L179.998 230L139.543 291.906L118.498 331.84L116.855 507.147L123.442 506.231L139.543 505.132C139.543 505.132 152.35 503.301 152.35 499.271V482.784C152.35 482.784 159.303 481.728 159.303 478.388C159.303 455.673 154.373 433.564 152.35 404.748C149.892 369.722 148.216 350.23 146.13 340.633C144.181 331.66 143.569 331.84 143.569 331.84C143.569 331.84 150.639 331.462 156.741 330.743C187.845 327.079 237.977 297.404 237.977 297.404C237.977 297.404 279.721 269.389 300.55 245.38C344.096 195.186 364.892 166.395 396.057 110.558Z" />
</symbol>
<symbol id="right-2"  width="547" height="512" viewBox="0 0 547 512">
<path d="M110.27 508.064H98.1948C98.1948 508.064 88.0343 510.957 81.3622 510.995C75.8852 511.026 66.3592 510.995 65.6274 508.797C65.2658 507.711 65.2614 506.232 65.2614 506.232C65.2614 506.232 44.1846 507.793 31.2303 504.767C25.5597 503.442 18.0574 501.254 11.4711 500.004C5.30751 498.835 -0.190395 498.643 1.22437 496.341C2.36736 494.48 3.78583 493.41 3.78583 493.41C3.78583 493.41 4.39554 490.735 7.07994 490.479C30.1333 488.281 35.9759 488.647 57.9437 488.647C79.5333 488.647 85.3882 434.059 90.1452 395.957C94.4565 361.425 93.8285 320.484 97.9689 301.339C97.8355 301.503 97.6691 301.661 97.4637 301.799C96.4846 302.458 94.6859 302.631 93.8045 302.532C92.5343 302.389 91.2507 302.441 90.1452 301.799C88.6365 300.922 87.8543 300.128 87.2178 298.502C86.6938 297.163 86.5214 296.642 86.486 295.205C86.4578 294.063 86.8269 293.016 87.2063 291.94L87.2178 291.907C87.6934 290.558 88.9334 289.368 90.1452 288.61C91.5001 287.762 92.2236 288.109 93.8045 287.877C95.085 287.69 97.0978 288.244 97.0978 288.244C97.0978 288.244 95.8709 268.825 95.2674 256.372C91.9984 188.92 95.2674 83.4477 95.2674 83.4477L100.025 29.2257H101.488V25.9285L100.391 25.5621C100.391 25.5621 98.967 17.5311 99.2934 12.373C99.5786 7.86444 101.488 1.01565 101.488 1.01565C101.488 1.01565 179.668 1.00532 265.5 1.00195L256 60.5009L222.5 146.501L180 230.001L139.544 291.907L118.5 331.841L116.857 507.148L110.27 508.064Z" />
</symbol>
</svg>