<svg width="547" height="512" viewBox="0 0 547 512" fill="none" xmlns="http://www.w3.org/2000/svg">
<symbol id="left-3"  width="547" height="512" viewBox="0 0 547 512">
<path d="M150.941 110.558C130.083 73.1866 95.6849 1.01533 103.004 1.01308C132.119 1.00415 173.509 1.00058 217.5 1L236 83.4467L301.5 203.5L382.5 291.906L421 331.84L415.506 505.682L407.456 505.132C407.456 505.132 394.648 503.3 394.648 499.27V482.784C394.648 482.784 387.695 481.728 387.695 478.388C387.695 455.673 392.626 433.563 394.648 404.748C397.107 369.722 398.783 350.23 400.868 340.633C402.818 331.66 403.43 331.84 403.43 331.84C403.43 331.84 396.36 331.462 390.257 330.743C359.153 327.079 309.021 297.404 309.021 297.404C309.021 297.404 267.277 269.389 246.448 245.38C202.902 195.186 182.106 166.395 150.941 110.558Z"  />
</symbol>
<symbol id="left-2"  width="547" height="512" viewBox="0 0 547 512">
<path d="M436.73 508.063L423.557 506.231L415.507 505.682L421.001 331.84L382.501 291.906L301.501 203.5L236.001 83.4468L217.501 1.00009C254.76 0.999594 293.885 1.00124 329.001 1.0036L342.001 83.4468L371.501 203.5L407.456 287.876L436.73 331.84V508.063Z"  />
</symbol>
<symbol id="left-1"  width="547" height="512" viewBox="0 0 547 512">
<path d="M445.512 1.01506C445.512 1.01506 447.421 7.86384 447.707 12.3724C448.033 17.5305 446.609 25.5615 446.609 25.5615L445.512 25.9279V29.2251H446.975L451.733 83.4471C451.733 83.4471 455.002 188.919 451.733 256.371C451.129 268.824 449.902 288.243 449.902 288.243C449.902 288.243 451.915 287.689 453.196 287.877C454.776 288.108 455.5 287.762 456.855 288.609C458.067 289.368 459.307 290.557 459.782 291.907C460.166 292.994 460.542 294.051 460.514 295.204C460.479 296.641 460.306 297.162 459.782 298.501C459.146 300.127 458.364 300.922 456.855 301.798C455.749 302.441 454.466 302.389 453.196 302.531C452.314 302.63 450.515 302.457 449.536 301.798C448.186 300.89 448.524 299.141 448.804 300.333C453.196 319.018 452.466 360.807 456.855 395.956C461.612 434.058 467.467 488.646 489.056 488.646C511.024 488.646 516.867 488.28 539.92 490.478C542.604 490.734 543.214 493.409 543.214 493.409C543.214 493.409 544.633 494.48 545.776 496.34C547.19 498.642 541.692 498.834 535.529 500.004C528.943 501.253 521.44 503.441 515.77 504.766C502.815 507.793 481.739 506.232 481.739 506.232C481.739 506.232 481.734 507.71 481.373 508.796C480.641 510.995 471.115 511.026 465.638 510.995C458.966 510.957 448.805 508.064 448.805 508.064H436.73V331.84L407.456 287.877L371.5 203.5L342 83.4471L329 1.00391C394.159 1.00827 445.512 1.01506 445.512 1.01506Z" />
</symbol>
<symbol id="right-3"  width="547" height="512" viewBox="0 0 547 512">
<path d="M396.059 110.558C416.917 73.1866 451.315 1.01533 443.996 1.01308C414.881 1.00415 373.491 1.00058 329.5 1L311 83.4467L245.5 203.5L164.5 291.906L126 331.84L131.494 505.682L139.544 505.132C139.544 505.132 152.352 503.3 152.352 499.27V482.784C152.352 482.784 159.305 481.728 159.305 478.388C159.305 455.673 154.374 433.563 152.352 404.748C149.893 369.722 148.217 350.23 146.132 340.633C144.182 331.66 143.57 331.84 143.57 331.84C143.57 331.84 150.64 331.462 156.743 330.743C187.847 327.079 237.979 297.404 237.979 297.404C237.979 297.404 279.723 269.389 300.552 245.38C344.098 195.186 364.894 166.395 396.059 110.558Z"  />
</symbol>
<symbol id="right-2"  width="547" height="512" viewBox="0 0 547 512">
<path d="M110.27 508.063L123.443 506.231L131.493 505.682L125.999 331.84L164.499 291.906L245.499 203.5L310.999 83.4468L329.499 1.00009C292.24 0.999594 253.115 1.00124 217.999 1.0036L204.999 83.4468L175.499 203.5L139.544 287.876L110.27 331.84V508.063Z"  />
</symbol>
<symbol id="right-1"  width="547" height="512" viewBox="0 0 547 512">
<path d="M101.488 1.01506C101.488 1.01506 99.5786 7.86384 99.2934 12.3724C98.967 17.5305 100.391 25.5615 100.391 25.5615L101.488 25.9279V29.2251H100.025L95.2674 83.4471C95.2674 83.4471 91.9984 188.919 95.2674 256.371C95.8709 268.824 97.0978 288.243 97.0978 288.243C97.0978 288.243 95.085 287.689 93.8045 287.877C92.2236 288.108 91.5001 287.762 90.1452 288.609C88.9334 289.368 87.6934 290.557 87.2178 291.907C86.8343 292.994 86.4575 294.051 86.486 295.204C86.5214 296.641 86.6938 297.162 87.2178 298.501C87.8543 300.127 88.6365 300.922 90.1452 301.798C91.2507 302.441 92.5343 302.389 93.8045 302.531C94.6859 302.63 96.4846 302.457 97.4637 301.798C98.8139 300.89 98.4757 299.141 98.1956 300.333C93.8045 319.018 94.5336 360.807 90.1452 395.956C85.3882 434.058 79.5333 488.646 57.9437 488.646C35.9759 488.646 30.1333 488.28 7.07994 490.478C4.39554 490.734 3.78583 493.409 3.78583 493.409C3.78583 493.409 2.36736 494.48 1.22437 496.34C-0.190395 498.642 5.30751 498.834 11.4711 500.004C18.0574 501.253 25.5597 503.441 31.2303 504.766C44.1846 507.793 65.2614 506.232 65.2614 506.232C65.2614 506.232 65.2658 507.71 65.6274 508.796C66.3592 510.995 75.8852 511.026 81.3622 510.995C88.0343 510.957 98.1948 508.064 98.1948 508.064H110.27V331.84L139.544 287.877L175.5 203.5L205 83.4471L218 1.00391C152.841 1.00827 101.488 1.01506 101.488 1.01506Z" />
</symbol>
</svg>