<svg width="547" height="512" viewBox="0 0 547 512" fill="none" xmlns="http://www.w3.org/2000/svg">
<symbol id="left-3"  width="547" height="512" viewBox="0 0 547 512">
<path d="M394.648 482.784C394.648 482.784 387.695 481.728 387.695 478.388C387.695 455.673 392.626 433.564 394.648 404.748C396.069 384.507 397.228 369.454 398.356 358.5H453.724C454.439 370.963 455.344 383.853 456.855 395.956C461.612 434.058 467.467 488.646 489.056 488.646C511.024 488.646 516.867 488.28 539.92 490.478C542.604 490.734 543.214 493.409 543.214 493.409C543.214 493.409 544.633 494.479 545.776 496.34C547.19 498.642 541.692 498.834 535.529 500.003C528.943 501.253 521.44 503.441 515.77 504.766C502.815 507.792 481.739 506.231 481.739 506.231C481.739 506.231 481.734 507.71 481.373 508.796C480.641 510.994 471.115 511.025 465.638 510.994C458.966 510.956 448.805 508.063 448.805 508.063H436.73L423.556 506.231L407.456 505.132C407.456 505.132 394.648 503.301 394.648 499.271V482.784Z"  />
</symbol>
<symbol id="left-2"  width="547" height="512" viewBox="0 0 547 512">
<path d="M246.448 245.38C267.277 269.389 309.021 297.404 309.021 297.404C309.021 297.404 359.153 327.079 390.257 330.743C396.36 331.462 403.43 331.84 403.43 331.84C403.43 331.84 402.818 331.66 400.868 340.633C399.988 344.684 399.181 350.498 398.356 358.5H453.724C452.398 335.403 451.72 313.773 449.031 301.339C449.165 301.502 449.331 301.66 449.536 301.798C450.515 302.457 452.314 302.63 453.196 302.531C454.466 302.388 455.749 302.44 456.855 301.798C458.364 300.922 459.146 300.127 459.782 298.501C460.306 297.162 460.479 296.641 460.514 295.204C460.542 294.062 460.173 293.015 459.794 291.939L459.782 291.906C459.307 290.557 458.067 289.367 456.855 288.609C455.5 287.761 454.776 288.108 453.196 287.876C451.915 287.689 449.902 288.243 449.902 288.243C449.902 288.243 451.129 268.824 451.733 256.371C452.995 230.329 453.282 198.619 453.16 169.5H186.708C203.254 193.939 220.951 215.991 246.448 245.38Z" />
</symbol>
<symbol id="left-1"  width="547" height="512" viewBox="0 0 547 512">
<path d="M103.005 1.01317C202.536 0.982645 445.512 1.01475 445.512 1.01475C445.512 1.01475 447.422 7.86353 447.707 12.3721C448.034 17.5302 446.609 25.5612 446.609 25.5612L445.512 25.9276V29.2248H446.975L451.733 83.4468C451.733 83.4468 452.965 123.198 453.16 169.5H186.709C174.996 152.199 163.859 133.702 150.942 110.558C130.083 73.1867 95.6855 1.01541 103.005 1.01317Z"  />
</symbol>
<symbol id="right-3"  width="547" height="512" viewBox="0 0 547 512">
<path d="M152.352 482.784C152.352 482.784 159.305 481.728 159.305 478.388C159.305 455.673 154.374 433.564 152.352 404.748C150.931 384.507 149.772 369.454 148.644 358.5H93.2761C92.5605 370.963 91.6562 383.853 90.1452 395.956C85.3882 434.058 79.5333 488.646 57.9437 488.646C35.9759 488.646 30.1333 488.28 7.07994 490.478C4.39554 490.734 3.78583 493.409 3.78583 493.409C3.78583 493.409 2.36736 494.479 1.22437 496.34C-0.190395 498.642 5.30751 498.834 11.4711 500.003C18.0574 501.253 25.5597 503.441 31.2303 504.766C44.1846 507.792 65.2614 506.231 65.2614 506.231C65.2614 506.231 65.2658 507.71 65.6274 508.796C66.3592 510.994 75.8852 511.025 81.3622 510.994C88.0343 510.956 98.1948 508.063 98.1948 508.063H110.27L123.444 506.231L139.544 505.132C139.544 505.132 152.352 503.301 152.352 499.271V482.784Z"  />
</symbol>
<symbol id="right-2"  width="547" height="512" viewBox="0 0 547 512">
<path d="M300.552 245.38C279.723 269.389 237.979 297.404 237.979 297.404C237.979 297.404 187.847 327.079 156.743 330.743C150.64 331.462 143.57 331.84 143.57 331.84C143.57 331.84 144.182 331.66 146.132 340.633C147.012 344.684 147.819 350.498 148.644 358.5H93.276C94.602 335.403 95.2796 313.773 97.9688 301.339C97.8354 301.502 97.6691 301.66 97.4637 301.798C96.4845 302.457 94.6858 302.63 93.8044 302.531C92.5342 302.388 91.2506 302.44 90.1451 301.798C88.6364 300.922 87.8542 300.127 87.2177 298.501C86.6937 297.162 86.5213 296.641 86.4859 295.204C86.4577 294.062 86.8268 293.015 87.2063 291.939L87.2177 291.906C87.6933 290.557 88.9333 289.367 90.1451 288.609C91.5 287.761 92.2235 288.108 93.8044 287.876C95.0849 287.689 97.0977 288.243 97.0977 288.243C97.0977 288.243 95.8709 268.824 95.2673 256.371C94.0052 230.329 93.7177 198.619 93.8403 169.5H360.292C343.746 193.939 326.049 215.991 300.552 245.38Z" />
</symbol>
<symbol id="right-1"  width="547" height="512" viewBox="0 0 547 512">
<path d="M443.995 1.01317C344.464 0.982645 101.488 1.01475 101.488 1.01475C101.488 1.01475 99.5781 7.86353 99.2928 12.3721C98.9664 17.5302 100.391 25.5612 100.391 25.5612L101.488 25.9276V29.2248H100.025L95.2669 83.4468C95.2669 83.4468 94.0348 123.198 93.8398 169.5H360.291C372.004 152.199 383.141 133.702 396.058 110.558C416.917 73.1867 451.315 1.01541 443.995 1.01317Z"  />
</symbol>
</svg>