<svg width="742" height="506" viewBox="0 0 742 506" fill="none" xmlns="http://www.w3.org/2000/svg">
<g clip-path="url(#clip0_2_30065)">
<path d="M98.508 1.11311L98.5098 1.04231L98.5911 1.0285C98.6698 1.01526 98.7843 0.996322 98.9274 0.973541C99.2136 0.927977 99.6142 0.867055 100.071 0.805631C100.986 0.682706 102.125 0.558066 103.028 0.550013C104.01 0.541255 104.759 0.665557 105.512 0.792716L105.542 0.79775C106.285 0.923324 107.034 1.05001 108.013 1.05001C108.951 1.05001 109.68 0.917917 110.394 0.788701C110.435 0.781293 110.475 0.773895 110.516 0.766531C111.269 0.630764 112.017 0.506637 112.996 0.549966C113.95 0.592243 114.651 0.829656 115.342 1.06405C115.386 1.07892 115.43 1.09378 115.474 1.10858C116.21 1.35677 116.951 1.58657 117.985 1.54998C118.823 1.52031 119.417 1.27011 119.99 1.02838C120.02 1.01562 120.051 1.00289 120.081 0.990212C120.682 0.737627 121.276 0.506878 122.135 0.549952C122.828 0.584706 123.282 0.818314 123.738 1.0532L123.774 1.07168C124.244 1.31326 124.723 1.55001 125.461 1.55001C126.197 1.55001 126.685 1.35186 127.161 1.12825C127.213 1.10406 127.264 1.07959 127.316 1.05506C127.74 0.853262 128.174 0.646853 128.792 0.549405C130.049 0.351295 131.051 0.489093 132.067 0.670654C132.188 0.692218 132.309 0.714408 132.431 0.736724C133.334 0.902275 134.275 1.07478 135.432 1.05C136.895 1.01869 138.002 0.780248 139.096 0.544543L139.18 0.526499C140.301 0.285129 141.419 0.0521447 142.909 0.0500147C144.752 0.0473807 146.107 0.398026 147.467 0.762131L147.573 0.790467C148.898 1.14571 150.24 1.50542 152.047 1.55C153.865 1.59484 155.247 1.36638 156.627 1.11621C156.72 1.09926 156.814 1.08222 156.907 1.06516C158.194 0.830323 159.504 0.591485 161.189 0.55C163.929 0.482552 166.031 0.898395 168.124 1.31261L168.244 1.3362C170.377 1.75809 172.514 2.16864 175.314 2.04997C177.222 1.96913 178.665 1.62541 180.083 1.28792C180.157 1.27026 180.231 1.25262 180.305 1.23504C181.795 0.88143 183.282 0.550015 185.283 0.550015C187.259 0.550015 188.731 0.927177 190.203 1.30412L190.256 1.31772C191.745 1.69924 193.24 2.07579 195.253 2.05001C196.549 2.03342 197.196 1.84373 197.908 1.63477C198.022 1.60139 198.137 1.56752 198.257 1.53379C199.125 1.28996 200.242 1.05001 202.731 1.05001C204.861 1.05001 206.492 1.27112 208.126 1.50683C208.209 1.51891 208.293 1.53102 208.377 1.54315C209.928 1.76772 211.505 1.99593 213.53 2.05C216.615 2.13233 218.78 1.97658 221.267 1.79771C222.45 1.71265 223.705 1.62235 225.166 1.54995C226.487 1.48453 227.589 1.38651 228.634 1.29357C230.423 1.13457 232.043 0.990466 234.302 1.05C236.005 1.09489 237.324 1.32927 238.624 1.56034C238.704 1.57453 238.783 1.5887 238.863 1.60281C240.242 1.84691 241.625 2.07373 243.443 2.05001C245.455 2.02376 246.95 1.6792 248.441 1.32643L248.538 1.30353C249.996 0.958283 251.459 0.611641 253.414 0.54999C255.54 0.482967 257.17 0.757309 258.804 1.03665L258.853 1.04506C260.471 1.3217 262.099 1.59995 264.215 1.55C265.256 1.52543 266.08 1.40453 266.879 1.2871C266.963 1.27482 267.047 1.26257 267.13 1.25048C268.01 1.1228 268.887 1.01184 270.028 1.04999C270.785 1.07527 271.371 1.19256 271.949 1.30794C271.998 1.31784 272.048 1.32772 272.097 1.33753C272.724 1.46174 273.354 1.57384 274.186 1.54999C274.858 1.53072 275.362 1.43595 275.862 1.33099C275.917 1.31933 275.973 1.30754 276.028 1.29572C276.473 1.20122 276.928 1.10451 277.512 1.0498C279.278 0.88451 280.663 0.996116 282.056 1.15589C282.294 1.18321 282.533 1.21195 282.773 1.24096C283.94 1.38158 285.159 1.52844 286.646 1.55001C288.817 1.58148 290.566 1.41032 292.263 1.24434C292.476 1.22358 292.687 1.2029 292.898 1.1827C294.799 1.00108 296.692 0.858734 299.106 1.04986C299.757 1.10138 300.286 1.21511 300.794 1.32427C300.923 1.35203 301.051 1.3795 301.179 1.40558C301.811 1.53411 302.445 1.62759 303.269 1.54979C303.99 1.48175 304.467 1.26194 304.936 1.04555L304.946 1.04099C305.417 0.82366 305.883 0.610784 306.592 0.549831C307.597 0.463467 308.322 0.696906 309.056 0.961447C309.108 0.979925 309.159 0.99856 309.211 1.01725C309.897 1.26625 310.609 1.52482 311.572 1.55C312.759 1.58106 313.633 1.37795 314.501 1.14393C314.6 1.11722 314.699 1.09012 314.799 1.06292C315.569 0.851908 316.361 0.635058 317.393 0.549845C319.66 0.362603 321.416 0.599707 323.181 0.890374C323.381 0.923335 323.581 0.956991 323.783 0.990796C325.355 1.2551 326.982 1.5285 329.02 1.55001C331.512 1.57632 333.463 1.29902 335.383 1.02616C335.482 1.0121 335.581 0.99806 335.68 0.98407C337.696 0.698523 339.708 0.435298 342.312 0.549966C343.847 0.617527 345.034 0.838714 346.202 1.05627C346.287 1.07211 346.372 1.08793 346.457 1.10367C347.708 1.33564 348.964 1.55001 350.623 1.55001C352.258 1.55001 353.499 1.2964 354.73 1.04491L354.788 1.03312C356.038 0.777891 357.283 0.528906 358.931 0.550011C360.371 0.568452 361.464 0.813906 362.549 1.05776L362.66 1.08278C363.782 1.33467 364.909 1.57628 366.41 1.55001C367.324 1.53402 368.474 1.4087 369.395 1.28763C369.856 1.22707 370.259 1.1675 370.548 1.12307C370.692 1.10086 370.807 1.08243 370.887 1.06955L370.951 1.05904L370.949 1.21047C370.948 1.34899 370.945 1.55372 370.941 1.81848C370.934 2.348 370.92 3.11762 370.896 4.07794C370.848 5.99859 370.76 8.68195 370.599 11.7327C370.277 17.8349 369.663 25.4045 368.497 31.2807C366.015 43.7906 363.807 54.6962 361.765 64.7846C355.726 94.613 351.134 117.297 345.171 153.183C338.531 193.144 331.034 221.326 320.025 253.247H94.2143C94.4011 203.988 95.4749 140.94 96.5022 90.1996C97.016 64.8209 97.5182 42.5213 97.8919 26.5664C98.0787 18.5889 98.2335 12.1976 98.3415 7.80074C98.3955 5.60228 98.4379 3.90241 98.4667 2.75217L98.4996 1.44538L98.508 1.11311Z"  />
<path d="M319.989 253.347C314.747 268.539 308.71 284.582 301.591 303.148C292.774 326.139 277.046 345.983 264.772 358.54C250.957 372.673 224.27 389.56 207.084 398.795C203.213 400.875 196.775 402.444 191.299 403.493C188.562 404.017 186.067 404.411 184.257 404.674C183.352 404.806 182.618 404.904 182.11 404.97C181.856 405.003 181.659 405.028 181.525 405.044L181.373 405.063L181.334 405.067L181.324 405.069L181.322 405.069L181.321 405.069L181.277 405.074V405.119V410.66V410.693L181.307 410.706L181.327 410.66C181.307 410.706 181.307 410.706 181.308 410.706L181.308 410.706L181.309 410.706L181.315 410.709L181.337 410.718L181.422 410.754C181.497 410.786 181.608 410.834 181.75 410.897C182.034 411.022 182.443 411.205 182.942 411.44C183.94 411.91 185.298 412.584 186.74 413.402C188.183 414.221 189.708 415.183 191.04 416.229C192.372 417.275 193.507 418.403 194.174 419.55C194.845 420.705 195.106 422.11 195.117 423.57C195.129 425.03 194.892 426.542 194.57 427.911C194.248 429.279 193.841 430.502 193.515 431.384C193.352 431.824 193.209 432.179 193.107 432.424C193.056 432.546 193.015 432.641 192.987 432.705C192.973 432.737 192.962 432.762 192.955 432.778L192.947 432.796L192.945 432.801L192.944 432.802L192.944 432.802L192.942 432.802L192.94 432.814L192.326 436.139L192.321 436.169L192.345 436.187L192.376 436.148C192.345 436.187 192.345 436.187 192.345 436.188L192.345 436.188L192.347 436.189L192.351 436.192L192.369 436.206L192.438 436.259C192.499 436.307 192.589 436.377 192.704 436.468C192.935 436.65 193.268 436.916 193.676 437.249C194.493 437.916 195.61 438.855 196.816 439.942C199.228 442.118 201.984 444.884 203.381 447.255C204.437 449.047 204.72 450.531 204.98 452.026L205.007 452.182C205.257 453.628 205.512 455.094 206.449 456.857C208.907 461.478 211.364 464.898 213.897 468.223C214.379 468.856 214.864 469.486 215.352 470.12C217.428 472.816 219.562 475.587 221.797 479.025C223.106 481.038 225.125 482.202 228.584 482.741C229.466 482.878 230.218 482.79 230.947 482.705C230.992 482.699 231.037 482.694 231.081 482.689C231.854 482.599 232.609 482.528 233.49 482.74C234.424 482.965 234.921 483.338 235.394 483.745C235.448 483.792 235.502 483.839 235.556 483.886C235.978 484.254 236.42 484.64 237.166 484.954C239.311 485.856 241.751 485.838 244.161 485.82L244.322 485.819C246.789 485.801 249.216 485.805 251.282 486.8C252.825 487.543 254.052 487.648 255.281 487.607C255.628 487.596 255.974 487.573 256.327 487.55C257.224 487.49 258.166 487.428 259.278 487.543C262.263 487.854 264.633 488.225 266.937 488.586C267.242 488.634 267.546 488.681 267.85 488.729C270.45 489.133 273.057 489.511 276.467 489.76C278.855 489.934 281.513 489.52 284.078 489.12C284.846 489 285.605 488.882 286.346 488.781C287.957 488.562 289.485 488.424 290.834 488.532C292.182 488.64 293.347 488.992 294.239 489.748C294.891 490.301 295.206 490.871 295.254 491.435C295.302 491.999 295.084 492.566 294.651 493.114C293.782 494.213 292.06 495.22 289.958 495.943C285.672 497.417 280.156 497.51 275.017 497.002C269.88 496.495 265.126 495.387 262.368 494.465C261.246 494.09 260.391 494.109 259.677 494.373C258.965 494.636 258.399 495.139 257.853 495.718C257.676 495.906 257.5 496.102 257.322 496.301C256.401 497.33 255.412 498.434 253.745 498.897C249.961 499.948 245.761 499.834 240.872 499.701C240.617 499.694 240.361 499.687 240.102 499.68C234.884 499.541 228.895 499.449 221.83 500.743C219.417 501.185 217.336 501.274 215.277 501.362C215.109 501.369 214.942 501.376 214.774 501.384C212.55 501.481 210.324 501.611 207.71 502.221C206.584 502.483 205.749 502.796 204.939 503.099C204.848 503.133 204.757 503.167 204.665 503.201C203.767 503.535 202.86 503.85 201.575 504.067C198.903 504.518 197.075 504.447 195.22 504.252C194.778 504.206 194.334 504.152 193.876 504.097C192.413 503.922 190.813 503.729 188.693 503.697C182.613 503.606 177.416 504.218 172.248 504.827L171.802 504.88C166.486 505.506 161.174 506.106 154.933 505.914C130.994 505.175 119.402 504.955 96.6184 504.805C92.1598 504.776 88.4125 504.91 84.8548 505.036C83.6298 505.08 82.4273 505.123 81.2261 505.158C76.5356 505.295 71.8611 505.315 65.9309 504.806C61.9033 504.46 59.3143 504.083 56.7249 503.704L56.6574 503.694C54.0899 503.318 51.5097 502.94 47.5161 502.589C41.2279 502.036 36.1618 502.036 30.9041 502.082C30.4594 502.086 30.0133 502.09 29.565 502.094C24.713 502.14 19.6002 502.188 13.1398 501.85C6.54026 501.505 1.74298 499.096 0.293612 495.233C0.0442737 494.569 -0.00610568 493.966 0.108014 493.414C0.222181 492.86 0.50173 492.353 0.917818 491.881C1.7513 490.936 3.12804 490.136 4.7994 489.394C6.30727 488.724 8.0492 488.104 9.83851 487.467C10.0314 487.398 10.2247 487.329 10.4185 487.26C12.4085 486.55 14.4313 485.811 16.2279 484.953C23.1284 481.659 33.1546 480.089 41.9615 478.709L42.1492 478.68C46.5731 477.987 50.6804 477.34 53.9118 476.542C55.5276 476.143 56.9263 475.706 58.0371 475.207C59.147 474.707 59.975 474.143 60.443 473.486C62.5797 470.485 64.8491 467.485 67.0775 464.55L67.5583 463.917C69.6197 461.202 71.6351 458.549 73.4649 456.009C77.4068 450.539 80.4939 445.59 81.3214 441.699C90.3413 399.293 91.3795 375.527 93.0801 336.595L93.0801 336.595L93.106 336.002L93.1083 335.95H93.0561C91.894 335.95 89.6171 335.701 87.6326 334.767C85.6496 333.835 83.9666 332.224 83.9666 329.5C83.9666 328.517 84.4255 327.686 85.1457 326.989C85.8666 326.292 86.847 325.732 87.8826 325.296C89.9546 324.423 92.2328 324.05 93.0561 324.05H93.104L93.106 324.002C94.0995 300.483 94.1309 286.524 94.1768 266.13C94.1858 262.153 94.1953 257.932 94.2126 253.347H319.989Z"  />
<path d="M643.492 1.11311L643.49 1.04231L643.409 1.0285C643.33 1.01526 643.216 0.996322 643.073 0.973541C642.786 0.927977 642.386 0.867055 641.929 0.805631C641.014 0.682706 639.875 0.558066 638.972 0.550013C637.99 0.541255 637.241 0.665557 636.488 0.792716L636.458 0.79775C635.715 0.923324 634.966 1.05001 633.987 1.05001C633.049 1.05001 632.32 0.917917 631.606 0.788701C631.565 0.781293 631.525 0.773895 631.484 0.766531C630.731 0.630764 629.983 0.506637 629.004 0.549966C628.05 0.592243 627.349 0.829656 626.658 1.06405C626.614 1.07892 626.57 1.09378 626.526 1.10858C625.79 1.35677 625.049 1.58657 624.015 1.54998C623.177 1.52031 622.583 1.27011 622.01 1.02838C621.98 1.01562 621.949 1.00289 621.919 0.990212C621.318 0.737627 620.724 0.506878 619.865 0.549952C619.172 0.584706 618.718 0.818314 618.262 1.0532L618.226 1.07168C617.756 1.31326 617.277 1.55001 616.539 1.55001C615.803 1.55001 615.315 1.35186 614.839 1.12825C614.787 1.10406 614.736 1.07959 614.684 1.05506C614.26 0.853262 613.826 0.646853 613.208 0.549405C611.951 0.351295 610.949 0.489093 609.933 0.670654C609.812 0.692218 609.691 0.714408 609.569 0.736724C608.666 0.902275 607.725 1.07478 606.568 1.05C605.105 1.01869 603.998 0.780248 602.904 0.544543L602.82 0.526499C601.699 0.285129 600.581 0.0521447 599.091 0.0500147C597.248 0.0473807 595.893 0.398026 594.533 0.762131L594.427 0.790467C593.102 1.14571 591.76 1.50542 589.953 1.55C588.135 1.59484 586.753 1.36638 585.373 1.11621C585.28 1.09926 585.186 1.08222 585.093 1.06516C583.806 0.830323 582.496 0.591485 580.811 0.55C578.071 0.482552 575.969 0.898395 573.876 1.31261L573.756 1.3362C571.623 1.75809 569.486 2.16864 566.686 2.04997C564.778 1.96913 563.335 1.62541 561.917 1.28792C561.843 1.27026 561.769 1.25262 561.695 1.23504C560.205 0.88143 558.718 0.550015 556.717 0.550015C554.741 0.550015 553.269 0.927177 551.797 1.30412L551.744 1.31772C550.255 1.69924 548.76 2.07579 546.747 2.05001C545.451 2.03342 544.804 1.84373 544.092 1.63477C543.978 1.60139 543.863 1.56752 543.743 1.53379C542.875 1.28996 541.758 1.05001 539.269 1.05001C537.139 1.05001 535.508 1.27112 533.874 1.50683C533.791 1.51891 533.707 1.53102 533.623 1.54315C532.072 1.76772 530.495 1.99593 528.47 2.05C525.385 2.13233 523.22 1.97658 520.733 1.79771C519.55 1.71265 518.295 1.62235 516.834 1.54995C515.513 1.48453 514.411 1.38651 513.366 1.29357C511.577 1.13457 509.957 0.990466 507.698 1.05C505.995 1.09489 504.676 1.32927 503.376 1.56034C503.296 1.57453 503.217 1.5887 503.137 1.60281C501.758 1.84691 500.375 2.07373 498.557 2.05001C496.545 2.02376 495.05 1.6792 493.559 1.32643L493.462 1.30353C492.004 0.958283 490.541 0.611641 488.586 0.54999C486.46 0.482967 484.83 0.757309 483.196 1.03665L483.147 1.04506C481.529 1.3217 479.901 1.59995 477.785 1.55C476.744 1.52543 475.92 1.40453 475.121 1.2871C475.037 1.27482 474.953 1.26257 474.87 1.25048C473.99 1.1228 473.113 1.01184 471.972 1.04999C471.215 1.07527 470.629 1.19256 470.051 1.30794C470.002 1.31784 469.952 1.32772 469.903 1.33753C469.276 1.46174 468.646 1.57384 467.814 1.54999C467.142 1.53072 466.638 1.43595 466.138 1.33099C466.083 1.31933 466.027 1.30754 465.972 1.29572C465.527 1.20122 465.072 1.10451 464.488 1.0498C462.722 0.88451 461.337 0.996116 459.944 1.15589C459.706 1.18321 459.467 1.21195 459.227 1.24096C458.06 1.38158 456.841 1.52844 455.354 1.55001C453.183 1.58148 451.434 1.41032 449.737 1.24434C449.524 1.22358 449.313 1.2029 449.102 1.1827C447.201 1.00108 445.308 0.858734 442.894 1.04986C442.243 1.10138 441.714 1.21511 441.206 1.32427C441.077 1.35203 440.949 1.3795 440.821 1.40558C440.189 1.53411 439.555 1.62759 438.731 1.54979C438.01 1.48175 437.533 1.26194 437.064 1.04555L437.054 1.04099C436.583 0.82366 436.117 0.610784 435.408 0.549831C434.403 0.463467 433.678 0.696906 432.944 0.961447C432.892 0.979925 432.841 0.99856 432.789 1.01725C432.103 1.26625 431.391 1.52482 430.428 1.55C429.241 1.58106 428.367 1.37795 427.499 1.14393C427.4 1.11722 427.301 1.09012 427.201 1.06292C426.431 0.851908 425.639 0.635058 424.607 0.549845C422.34 0.362603 420.584 0.599707 418.819 0.890374C418.619 0.923335 418.419 0.956991 418.217 0.990796C416.645 1.2551 415.018 1.5285 412.98 1.55001C410.488 1.57632 408.537 1.29902 406.617 1.02616C406.518 1.0121 406.419 0.99806 406.32 0.98407C404.304 0.698523 402.292 0.435298 399.688 0.549966C398.153 0.617527 396.966 0.838714 395.798 1.05627C395.713 1.07211 395.628 1.08793 395.543 1.10367C394.292 1.33564 393.036 1.55001 391.377 1.55001C389.742 1.55001 388.501 1.2964 387.27 1.04491L387.212 1.03312C385.962 0.777891 384.717 0.528906 383.069 0.550011C381.629 0.568452 380.536 0.813906 379.451 1.05776L379.34 1.08278C378.218 1.33467 377.091 1.57628 375.59 1.55001C374.676 1.53402 373.526 1.4087 372.605 1.28763C372.144 1.22707 371.741 1.1675 371.452 1.12307C371.308 1.10086 371.193 1.08243 371.113 1.06955L371.049 1.05904L371.051 1.21047C371.052 1.34899 371.055 1.55372 371.059 1.81848C371.066 2.348 371.08 3.11762 371.104 4.07794C371.152 5.99859 371.24 8.68195 371.401 11.7327C371.723 17.8349 372.337 25.4045 373.503 31.2807C375.985 43.7906 378.193 54.6962 380.235 64.7846C386.274 94.613 390.866 117.297 396.829 153.183C403.469 193.144 410.966 221.326 421.975 253.247H647.786C647.599 203.988 646.525 140.94 645.498 90.1996C644.984 64.8209 644.482 42.5213 644.108 26.5664C643.921 18.5889 643.767 12.1976 643.658 7.80074C643.604 5.60228 643.562 3.90241 643.533 2.75217L643.5 1.44538L643.492 1.11311Z"  />
<path d="M422.011 253.347C427.253 268.539 433.29 284.582 440.409 303.148C449.226 326.139 464.954 345.983 477.228 358.54C491.043 372.673 517.73 389.56 534.916 398.795C538.787 400.875 545.225 402.444 550.701 403.493C553.438 404.017 555.933 404.411 557.743 404.674C558.648 404.806 559.382 404.904 559.89 404.97C560.144 405.003 560.341 405.028 560.475 405.044L560.627 405.063L560.666 405.067L560.676 405.069L560.678 405.069L560.679 405.069L560.723 405.074V405.119V410.66V410.693L560.693 410.706L560.673 410.66C560.693 410.706 560.693 410.706 560.692 410.706L560.692 410.706L560.691 410.706L560.685 410.709L560.663 410.718L560.578 410.754C560.503 410.786 560.392 410.834 560.25 410.897C559.966 411.022 559.557 411.205 559.058 411.44C558.06 411.91 556.702 412.584 555.26 413.402C553.817 414.221 552.292 415.183 550.96 416.229C549.628 417.275 548.493 418.403 547.826 419.55C547.155 420.705 546.894 422.11 546.883 423.57C546.871 425.03 547.108 426.542 547.43 427.911C547.752 429.279 548.159 430.502 548.485 431.384C548.648 431.824 548.791 432.179 548.893 432.424C548.944 432.546 548.985 432.641 549.013 432.705C549.027 432.737 549.038 432.762 549.045 432.778L549.053 432.796L549.055 432.801L549.056 432.802L549.056 432.802L549.058 432.802L549.06 432.814L549.674 436.139L549.679 436.169L549.655 436.187L549.624 436.148C549.655 436.187 549.655 436.187 549.655 436.188L549.655 436.188L549.653 436.189L549.649 436.192L549.631 436.206L549.562 436.259C549.501 436.307 549.411 436.377 549.296 436.468C549.065 436.65 548.732 436.916 548.324 437.249C547.507 437.916 546.39 438.855 545.184 439.942C542.772 442.118 540.016 444.884 538.619 447.255C537.563 449.047 537.28 450.531 537.02 452.026L536.993 452.182C536.743 453.628 536.488 455.094 535.551 456.857C533.093 461.478 530.636 464.898 528.103 468.223C527.621 468.856 527.136 469.486 526.648 470.12C524.572 472.816 522.438 475.587 520.203 479.025C518.894 481.038 516.875 482.202 513.416 482.741C512.534 482.878 511.782 482.79 511.053 482.705C511.008 482.699 510.963 482.694 510.919 482.689C510.146 482.599 509.391 482.528 508.51 482.74C507.576 482.965 507.079 483.338 506.606 483.745C506.552 483.792 506.498 483.839 506.444 483.886C506.022 484.254 505.58 484.64 504.834 484.954C502.689 485.856 500.249 485.838 497.839 485.82L497.678 485.819C495.211 485.801 492.784 485.805 490.718 486.8C489.175 487.543 487.948 487.648 486.719 487.607C486.372 487.596 486.026 487.573 485.673 487.55C484.776 487.49 483.834 487.428 482.722 487.543C479.737 487.854 477.367 488.225 475.063 488.586C474.758 488.634 474.454 488.681 474.15 488.729C471.55 489.133 468.943 489.511 465.533 489.76C463.145 489.934 460.487 489.52 457.922 489.12C457.154 489 456.395 488.882 455.654 488.781C454.043 488.562 452.515 488.424 451.166 488.532C449.818 488.64 448.653 488.992 447.761 489.748C447.109 490.301 446.794 490.871 446.746 491.435C446.698 491.999 446.916 492.566 447.349 493.114C448.218 494.213 449.94 495.22 452.042 495.943C456.328 497.417 461.844 497.51 466.983 497.002C472.12 496.495 476.874 495.387 479.632 494.465C480.754 494.09 481.609 494.109 482.323 494.373C483.035 494.636 483.601 495.139 484.147 495.718C484.324 495.906 484.5 496.102 484.678 496.301C485.599 497.33 486.588 498.434 488.255 498.897C492.039 499.948 496.239 499.834 501.128 499.701C501.383 499.694 501.639 499.687 501.898 499.68C507.116 499.541 513.105 499.449 520.17 500.743C522.583 501.185 524.664 501.274 526.723 501.362C526.891 501.369 527.058 501.376 527.226 501.384C529.45 501.481 531.676 501.611 534.29 502.221C535.416 502.483 536.251 502.796 537.061 503.099C537.152 503.133 537.243 503.167 537.335 503.201C538.233 503.535 539.14 503.85 540.425 504.067C543.097 504.518 544.925 504.447 546.78 504.252C547.222 504.206 547.666 504.152 548.124 504.097C549.587 503.922 551.187 503.729 553.307 503.697C559.387 503.606 564.584 504.218 569.752 504.827L570.198 504.88C575.514 505.506 580.826 506.106 587.067 505.914C611.006 505.175 622.598 504.955 645.382 504.805C649.84 504.776 653.588 504.91 657.145 505.036C658.37 505.08 659.573 505.123 660.774 505.158C665.464 505.295 670.139 505.315 676.069 504.806C680.097 504.46 682.686 504.083 685.275 503.704L685.343 503.694C687.91 503.318 690.49 502.94 694.484 502.589C700.772 502.036 705.838 502.036 711.096 502.082C711.541 502.086 711.987 502.09 712.435 502.094C717.287 502.14 722.4 502.188 728.86 501.85C735.46 501.505 740.257 499.096 741.706 495.233C741.956 494.569 742.006 493.966 741.892 493.414C741.778 492.86 741.498 492.353 741.082 491.881C740.249 490.936 738.872 490.136 737.201 489.394C735.693 488.724 733.951 488.104 732.161 487.467C731.969 487.398 731.775 487.329 731.582 487.26C729.592 486.55 727.569 485.811 725.772 484.953C718.872 481.659 708.845 480.089 700.038 478.709L699.851 478.68C695.427 477.987 691.32 477.34 688.088 476.542C686.472 476.143 685.074 475.706 683.963 475.207C682.853 474.707 682.025 474.143 681.557 473.486C679.42 470.485 677.151 467.485 674.923 464.55L674.442 463.917C672.38 461.202 670.365 458.549 668.535 456.009C664.593 450.539 661.506 445.59 660.679 441.699C651.659 399.293 650.621 375.527 648.92 336.595L648.92 336.595L648.894 336.002L648.892 335.95H648.944C650.106 335.95 652.383 335.701 654.367 334.767C656.35 333.835 658.033 332.224 658.033 329.5C658.033 328.517 657.575 327.686 656.854 326.989C656.133 326.292 655.153 325.732 654.117 325.296C652.045 324.423 649.767 324.05 648.944 324.05H648.896L648.894 324.002C647.9 300.483 647.869 286.524 647.823 266.13C647.814 262.153 647.805 257.932 647.787 253.347H422.011Z"  />
</g>
<defs>
<clipPath id="clip0_2_30065">
<rect width="742" height="506" />
</clipPath>
</defs>
</svg>
