<svg width="742" height="506" viewBox="0 0 742 506" fill="none" xmlns="http://www.w3.org/2000/svg">
<g clip-path="url(#clip0_2_30104)">
<g filter="url(#filter0_f_2_30104)">
<path d="M98.4596 1C98.4596 1 101.214 0.516164 103.026 0.5C105 0.4824 106.038 1 108.011 1C109.985 1 111.028 0.412827 112.997 0.5C115.043 0.590638 115.933 1.57252 117.982 1.5C119.726 1.43825 120.395 0.412676 122.136 0.5C123.582 0.572519 124.008 1.5 125.46 1.5C126.911 1.5 127.379 0.721243 128.783 0.5C131.314 0.101148 132.815 1.05597 135.43 1C138.419 0.936001 139.916 0.00427606 142.908 0C146.607 -0.00528818 148.351 1.4088 152.047 1.5C155.672 1.58943 157.562 0.589221 161.186 0.5C166.783 0.362241 169.724 2.23679 175.311 2C179.315 1.83033 181.268 0.5 185.281 0.5C189.295 0.5 191.239 2.05138 195.252 2C198.242 1.96171 197.744 1 202.729 1C206.997 1 209.267 1.88621 213.53 2C218.08 2.12143 220.624 1.72486 225.162 1.5C228.734 1.32305 230.721 0.905629 234.302 1C237.926 1.09552 239.814 2.04731 243.441 2C247.454 1.94766 249.404 0.626383 253.412 0.5C257.673 0.365611 259.948 1.60067 264.213 1.5C266.505 1.44588 267.738 0.923412 270.029 1C271.681 1.05523 272.53 1.54736 274.183 1.5C275.519 1.46171 276.185 1.12375 277.506 1C281.048 0.668494 283.063 1.44805 286.646 1.5C291.522 1.57071 294.273 0.617059 299.109 1C300.749 1.12989 301.629 1.65429 303.263 1.5C304.697 1.36468 305.15 0.623495 306.586 0.5C308.618 0.325352 309.521 1.44636 311.572 1.5C313.932 1.56175 315.047 0.6933 317.388 0.5C321.934 0.124502 324.432 1.45156 329.02 1.5C334.251 1.55523 337.095 0.270236 342.313 0.5C345.613 0.645316 347.313 1.5 350.622 1.5C353.931 1.5 355.622 0.457642 358.931 0.5C361.921 0.538294 363.418 1.55233 366.408 1.5C368.23 1.46812 371 1 371 1C371 1 370.878 19.5307 368.545 31.2904C358.723 80.7894 353.199 105.169 345.219 153.191C335.412 212.212 323.735 245.54 301.637 303.165C292.818 326.165 277.084 346.015 264.807 358.575C250.987 372.714 224.295 389.604 207.107 398.839C199.35 403.007 181.327 405.118 181.327 405.118V410.659C181.327 410.659 191.533 414.903 194.217 419.525C196.925 424.187 192.989 432.823 192.989 432.823L192.376 436.148C192.376 436.148 200.622 442.473 203.424 447.23C205.545 450.829 204.559 453.196 206.494 456.834C211.404 466.069 216.315 470.501 221.839 478.998C223.138 480.995 225.142 482.154 228.592 482.691C230.448 482.981 231.722 482.263 233.502 482.691C235.391 483.146 235.518 484.207 237.185 484.908C241.548 486.743 247.147 484.754 251.303 486.755C254.372 488.232 256.176 487.171 259.283 487.494C266.047 488.197 269.656 489.213 276.47 489.71C282.662 490.162 290.661 486.649 294.271 489.71C296.908 491.945 294.184 494.542 289.974 495.99C281.381 498.945 267.877 496.359 262.352 494.512C257.897 493.023 257.772 497.83 253.759 498.945C245.779 501.161 235.957 498.206 221.839 500.792C216.61 501.75 212.94 501.053 207.721 502.269C205.222 502.852 204.164 503.681 201.583 504.116C196.229 505.02 194.251 503.831 188.693 503.747C176.19 503.559 167.422 506.349 154.932 505.963C130.993 505.225 119.401 505.004 96.6181 504.855C84.633 504.777 77.7922 505.874 65.9266 504.855C57.8685 504.163 55.5659 503.347 47.5117 502.639C34.9402 501.533 27.2555 502.639 13.1372 501.9C6.53195 501.554 1.70705 499.143 0.246798 495.251C-1.77051 489.874 9.03042 488.333 16.2064 484.908C30.1216 478.265 56.7195 478.628 60.4023 473.457C68.9509 461.452 79.6225 449.446 81.2725 441.689C90.3372 399.072 91.3399 375.284 93.0561 336C90.7226 336 83.9166 335 83.9166 329.5C83.9166 325.5 91.3943 324 93.0561 324C94.2439 295.879 94.0564 281.427 94.1628 253.297C94.5354 154.764 98.4596 1 98.4596 1Z" />
<path d="M181.321 405.069L181.277 405.074V405.118V410.659V410.693L181.307 410.706L181.308 410.706L181.309 410.706L181.315 410.709L181.337 410.718L181.422 410.754C181.497 410.786 181.608 410.834 181.75 410.897C182.034 411.021 182.443 411.205 182.942 411.44C183.94 411.91 185.298 412.584 186.74 413.402C188.183 414.221 189.708 415.183 191.04 416.229C192.372 417.275 193.507 418.402 194.174 419.55C194.845 420.705 195.106 422.11 195.117 423.57C195.129 425.03 194.892 426.542 194.57 427.911C194.248 429.279 193.841 430.502 193.515 431.384C193.352 431.824 193.209 432.179 193.107 432.424C193.079 432.491 193.054 432.55 193.033 432.6C193.015 432.641 193 432.676 192.987 432.705C192.973 432.737 192.962 432.761 192.955 432.778L192.947 432.796L192.945 432.801L192.944 432.802L192.942 432.802L192.94 432.814L192.326 436.139L192.321 436.169L192.345 436.187L192.376 436.148C192.345 436.187 192.345 436.187 192.345 436.187L192.345 436.188L192.347 436.188L192.351 436.192L192.369 436.206L192.438 436.259C192.463 436.279 192.493 436.302 192.527 436.329C192.577 436.367 192.636 436.414 192.704 436.468C192.935 436.65 193.268 436.916 193.676 437.249C194.493 437.916 195.61 438.855 196.816 439.942C199.228 442.118 201.984 444.884 203.381 447.255C204.437 449.047 204.72 450.531 204.98 452.026L205.007 452.182C205.257 453.627 205.512 455.094 206.449 456.857C208.907 461.478 211.364 464.898 213.897 468.223C214.379 468.856 214.864 469.486 215.352 470.12C217.428 472.816 219.562 475.587 221.797 479.025C223.106 481.038 225.125 482.202 228.584 482.741C229.466 482.878 230.218 482.79 230.947 482.705L231.081 482.689C231.854 482.599 232.609 482.528 233.49 482.74C234.424 482.965 234.921 483.338 235.394 483.745C235.448 483.792 235.502 483.839 235.556 483.886C235.978 484.254 236.42 484.64 237.166 484.954C239.311 485.856 241.751 485.838 244.161 485.82L244.322 485.819C246.789 485.801 249.216 485.805 251.282 486.8C252.825 487.543 254.052 487.648 255.281 487.607C255.628 487.596 255.974 487.573 256.327 487.549C257.224 487.49 258.166 487.428 259.278 487.543C262.263 487.854 264.633 488.225 266.937 488.586C267.242 488.634 267.546 488.681 267.85 488.728C270.45 489.133 273.057 489.511 276.467 489.76C278.855 489.934 281.513 489.52 284.078 489.12C284.846 489 285.605 488.882 286.346 488.781C287.957 488.562 289.485 488.424 290.834 488.532C292.182 488.64 293.347 488.992 294.239 489.748C294.891 490.301 295.206 490.871 295.254 491.435C295.302 491.999 295.084 492.566 294.651 493.114C293.782 494.213 292.06 495.22 289.958 495.942C285.672 497.417 280.156 497.51 275.017 497.002C269.88 496.494 265.126 495.387 262.368 494.465C261.246 494.09 260.391 494.109 259.677 494.373C258.965 494.636 258.399 495.139 257.853 495.718C257.676 495.906 257.5 496.102 257.322 496.301C256.401 497.33 255.412 498.434 253.745 498.897C249.961 499.948 245.761 499.834 240.872 499.701C240.617 499.694 240.361 499.687 240.102 499.68C234.884 499.541 228.895 499.449 221.83 500.743C219.416 501.185 217.335 501.274 215.277 501.362C215.109 501.369 214.942 501.376 214.774 501.384C212.55 501.481 210.324 501.611 207.71 502.221C206.584 502.483 205.749 502.796 204.939 503.099C204.848 503.133 204.757 503.167 204.665 503.201C203.767 503.535 202.86 503.85 201.575 504.067C198.903 504.518 197.075 504.447 195.22 504.252C194.778 504.206 194.334 504.152 193.876 504.097C192.413 503.921 190.813 503.729 188.693 503.697C182.613 503.606 177.416 504.218 172.248 504.827L171.802 504.88C166.486 505.505 161.174 506.106 154.933 505.913C130.994 505.175 119.402 504.954 96.6184 504.805C92.1598 504.776 88.4124 504.91 84.8547 505.036C83.6298 505.08 82.4273 505.123 81.2261 505.158C76.5356 505.295 71.8611 505.315 65.9309 504.805C61.9033 504.46 59.3143 504.083 56.7249 503.704L56.6579 503.694C54.0902 503.318 51.5099 502.94 47.5161 502.589C41.2279 502.036 36.1618 502.036 30.9041 502.082C30.4592 502.086 30.013 502.09 29.5645 502.094C24.7127 502.14 19.6 502.188 13.1398 501.85C6.54026 501.505 1.74298 499.096 0.293612 495.233C0.0442737 494.569 -0.00610569 493.966 0.108014 493.413C0.222181 492.86 0.50173 492.353 0.917818 491.881C1.7513 490.936 3.12804 490.136 4.7994 489.393C6.30749 488.724 8.0497 488.104 9.83928 487.466C10.0319 487.398 10.225 487.329 10.4185 487.26C12.4085 486.55 14.4313 485.811 16.2279 484.953C23.1284 481.659 33.1548 480.089 41.9617 478.709L42.1492 478.68C46.5731 477.987 50.6804 477.34 53.9118 476.542C55.5276 476.143 56.9263 475.706 58.0371 475.207C59.147 474.707 59.975 474.143 60.443 473.486C62.5797 470.485 64.8491 467.485 67.0775 464.55L67.5578 463.917C69.6194 461.203 71.635 458.549 73.4649 456.009C77.4068 450.539 80.4939 445.59 81.3214 441.699C90.3414 399.293 91.3795 375.527 93.0801 336.595L93.106 336.002L93.1083 335.95H93.0561C91.894 335.95 89.6171 335.701 87.6326 334.767C85.6496 333.835 83.9666 332.224 83.9666 329.5C83.9666 328.517 84.4255 327.686 85.1457 326.989C85.8666 326.292 86.847 325.732 87.8826 325.296C89.9546 324.423 92.2328 324.05 93.0561 324.05H93.104L93.106 324.002C94.0995 300.482 94.1309 286.524 94.1768 266.13C94.1858 262.139 94.1954 257.901 94.2128 253.297C94.3991 204.031 95.4733 140.957 96.5009 90.1996C97.0147 64.8209 97.5169 42.5213 97.8906 26.5664C98.0775 18.5889 98.2322 12.1976 98.3402 7.80072C98.3942 5.60226 98.4366 3.9024 98.4654 2.75215L98.4983 1.44537L98.5067 1.11309L98.5085 1.04229L98.5898 1.02849C98.6685 1.01525 98.783 0.996307 98.9261 0.973526C99.2123 0.927963 99.6129 0.86704 100.07 0.805616C100.985 0.682692 102.124 0.558051 103.027 0.549998C104.009 0.541241 104.758 0.665542 105.511 0.792701L105.54 0.79774C106.283 0.923312 107.033 1.05 108.011 1.05C108.95 1.05 109.679 0.917903 110.392 0.788688C110.433 0.78128 110.474 0.77388 110.515 0.766516C111.268 0.630749 112.016 0.506623 112.994 0.549951C113.949 0.592229 114.649 0.829642 115.341 1.06404C115.385 1.07891 115.429 1.09377 115.472 1.10856C116.208 1.35675 116.95 1.58656 117.984 1.54997C118.822 1.52029 119.415 1.27009 119.989 1.02836C120.019 1.01561 120.049 1.00287 120.079 0.990198C120.681 0.737613 121.275 0.506864 122.134 0.549937C122.827 0.584691 123.281 0.818303 123.737 1.05319L123.773 1.07166C124.243 1.31324 124.721 1.55 125.46 1.55C126.196 1.55 126.684 1.35184 127.16 1.12823C127.212 1.10404 127.263 1.07958 127.315 1.05505C127.739 0.853251 128.172 0.646839 128.791 0.54939C130.048 0.35128 131.049 0.489078 132.066 0.670639C132.187 0.692204 132.308 0.714394 132.43 0.736711C133.333 0.902262 134.274 1.07476 135.431 1.04999C136.894 1.01867 138.001 0.780231 139.095 0.544525L139.178 0.526484C140.3 0.285114 141.417 0.0521299 142.908 0.0499999C144.75 0.0473659 146.106 0.398011 147.465 0.762116L147.571 0.790459C148.897 1.1457 150.239 1.50541 152.046 1.54998C153.863 1.59483 155.246 1.36636 156.626 1.11619C156.719 1.09925 156.812 1.08221 156.906 1.06514C158.193 0.830309 159.502 0.59147 161.188 0.549985C163.928 0.482537 166.03 0.898382 168.123 1.3126L168.242 1.33619C170.376 1.75808 172.513 2.16862 175.313 2.04996C177.22 1.96912 178.664 1.6254 180.082 1.28791C180.156 1.27025 180.23 1.25261 180.304 1.23502C181.794 0.881415 183.281 0.55 185.281 0.55C187.257 0.55 188.73 0.927162 190.201 1.30411L190.254 1.3177C191.744 1.69922 193.239 2.07578 195.252 2.05C196.548 2.0334 197.195 1.84371 197.907 1.63476C198.021 1.60138 198.136 1.56751 198.256 1.53377C199.124 1.28994 200.241 1.05 202.729 1.05C204.859 1.05 206.491 1.27111 208.124 1.50682C208.208 1.51889 208.292 1.53101 208.375 1.54313C209.927 1.7677 211.503 1.99592 213.529 2.04998C216.614 2.13232 218.779 1.97657 221.266 1.7977C222.448 1.71263 223.703 1.62234 225.165 1.54994C226.485 1.48452 227.588 1.38649 228.633 1.29356C230.421 1.13456 232.042 0.990451 234.301 1.04998C236.004 1.09488 237.322 1.32925 238.623 1.56032C238.702 1.57451 238.782 1.58868 238.862 1.6028C240.241 1.84689 241.624 2.07372 243.442 2.05C245.454 2.02375 246.949 1.67918 248.44 1.32642L248.536 1.3035C249.994 0.958257 251.458 0.611626 253.413 0.549975C255.539 0.482953 257.168 0.757294 258.803 1.03664L258.852 1.04504C260.47 1.32169 262.098 1.59994 264.214 1.54999C265.255 1.52541 266.078 1.40452 266.878 1.28709C266.962 1.27481 267.045 1.26256 267.129 1.25047C268.009 1.12278 268.886 1.01183 270.027 1.04997C270.783 1.07526 271.37 1.19256 271.948 1.30794C271.997 1.31783 272.046 1.32771 272.096 1.33752C272.722 1.46173 273.352 1.57382 274.184 1.54998C274.857 1.53071 275.361 1.43594 275.86 1.33098C275.916 1.31931 275.971 1.30752 276.027 1.2957C276.472 1.2012 276.927 1.10449 277.511 1.04978C279.277 0.884495 280.662 0.996101 282.055 1.15588C282.293 1.1832 282.532 1.21194 282.772 1.24095C283.939 1.38156 285.157 1.52842 286.645 1.54999C288.815 1.58146 290.565 1.4103 292.262 1.24432C292.474 1.22356 292.686 1.20288 292.897 1.18269C294.798 1.00107 296.691 0.858719 299.105 1.04984C299.755 1.10137 300.285 1.2151 300.793 1.32426C300.922 1.35202 301.05 1.37949 301.178 1.40556C301.81 1.53409 302.444 1.62758 303.268 1.54978C303.989 1.48173 304.465 1.26193 304.935 1.04553L304.945 1.04097C305.416 0.823645 305.882 0.610769 306.591 0.549816C307.595 0.463452 308.321 0.696891 309.055 0.961433C309.106 0.979907 309.158 0.998539 309.209 1.01722C309.895 1.26623 310.608 1.52481 311.57 1.54998C312.757 1.58104 313.632 1.37793 314.5 1.14392C314.599 1.11721 314.698 1.0901 314.797 1.0629C315.568 0.851887 316.36 0.635042 317.392 0.54983C319.659 0.362589 321.415 0.599692 323.18 0.890359C323.38 0.923318 323.58 0.956971 323.781 0.990773C325.354 1.25508 326.981 1.52848 329.019 1.55C331.511 1.5763 333.462 1.299 335.382 1.02614L335.678 0.984055C337.695 0.698509 339.707 0.435283 342.311 0.549952C343.845 0.617512 345.033 0.8387 346.2 1.05625C346.285 1.07209 346.37 1.08791 346.455 1.10366C347.707 1.33563 348.963 1.55 350.622 1.55C352.256 1.55 353.498 1.29638 354.729 1.04489L354.786 1.0331C356.036 0.777876 357.282 0.528891 358.93 0.549996C360.37 0.568436 361.462 0.813881 362.547 1.05773L362.659 1.08277C363.781 1.33465 364.908 1.57627 366.409 1.54999C367.323 1.534 368.473 1.40868 369.394 1.28762C369.854 1.22705 370.258 1.16749 370.546 1.12306C370.691 1.10085 370.806 1.08241 370.885 1.06953L370.95 1.05903L370.948 1.21045C370.947 1.34898 370.944 1.55371 370.94 1.81847C370.932 2.34798 370.918 3.11761 370.895 4.07793C370.847 5.99858 370.758 8.68193 370.597 11.7327C370.275 17.8349 369.662 25.4045 368.496 31.2807C366.014 43.7904 363.806 54.6958 361.764 64.784C355.725 94.6127 351.133 117.297 345.17 153.183C335.363 212.199 323.688 245.523 301.591 303.147C292.774 326.138 277.046 345.983 264.772 358.54C250.957 372.673 224.27 389.56 207.084 398.795C203.213 400.875 196.775 402.444 191.299 403.493C188.562 404.017 186.067 404.411 184.257 404.674C183.352 404.805 182.618 404.904 182.11 404.97C181.856 405.003 181.659 405.028 181.525 405.044L181.373 405.063L181.334 405.067L181.324 405.068L181.322 405.069L181.321 405.069C181.321 405.069 181.321 405.069 181.327 405.118L181.321 405.069Z" />
</g>
<path d="M560.679 405.069L560.723 405.074V405.118V410.659V410.693L560.693 410.706L560.692 410.706L560.691 410.706L560.685 410.709L560.663 410.718L560.578 410.754C560.503 410.786 560.392 410.834 560.25 410.897C559.966 411.021 559.557 411.205 559.058 411.44C558.06 411.91 556.702 412.584 555.26 413.402C553.817 414.221 552.292 415.183 550.96 416.229C549.628 417.275 548.493 418.402 547.826 419.55C547.155 420.705 546.894 422.11 546.883 423.57C546.871 425.03 547.108 426.542 547.43 427.911C547.752 429.279 548.159 430.502 548.485 431.384C548.648 431.824 548.791 432.179 548.893 432.424C548.921 432.491 548.946 432.55 548.967 432.6C548.985 432.641 549 432.676 549.013 432.705C549.027 432.737 549.038 432.761 549.045 432.778L549.053 432.796L549.055 432.801L549.056 432.802L549.058 432.802L549.06 432.814L549.674 436.139L549.679 436.169L549.655 436.187L549.624 436.148C549.655 436.187 549.655 436.187 549.655 436.187L549.655 436.188L549.653 436.188L549.649 436.192L549.631 436.206L549.562 436.259C549.537 436.279 549.507 436.302 549.473 436.329C549.423 436.367 549.364 436.414 549.296 436.468C549.065 436.65 548.732 436.916 548.324 437.249C547.507 437.916 546.39 438.855 545.184 439.942C542.772 442.118 540.016 444.884 538.619 447.255C537.563 449.047 537.28 450.531 537.02 452.026L536.993 452.182C536.743 453.627 536.488 455.094 535.551 456.857C533.093 461.478 530.636 464.898 528.103 468.223C527.621 468.856 527.136 469.486 526.648 470.12C524.572 472.816 522.438 475.587 520.203 479.025C518.894 481.038 516.875 482.202 513.416 482.741C512.534 482.878 511.782 482.79 511.053 482.705L510.919 482.689C510.146 482.599 509.391 482.528 508.51 482.74C507.576 482.965 507.079 483.338 506.606 483.745C506.552 483.792 506.498 483.839 506.444 483.886C506.022 484.254 505.58 484.64 504.834 484.954C502.689 485.856 500.249 485.838 497.839 485.82L497.678 485.819C495.211 485.801 492.784 485.805 490.718 486.8C489.175 487.543 487.948 487.648 486.719 487.607C486.372 487.596 486.026 487.573 485.673 487.549C484.776 487.49 483.834 487.428 482.722 487.543C479.737 487.854 477.367 488.225 475.063 488.586C474.758 488.634 474.454 488.681 474.15 488.728C471.55 489.133 468.943 489.511 465.533 489.76C463.145 489.934 460.487 489.52 457.922 489.12C457.154 489 456.395 488.882 455.654 488.781C454.043 488.562 452.515 488.424 451.166 488.532C449.818 488.64 448.653 488.992 447.761 489.748C447.109 490.301 446.794 490.871 446.746 491.435C446.698 491.999 446.916 492.566 447.349 493.114C448.218 494.213 449.94 495.22 452.042 495.942C456.328 497.417 461.844 497.51 466.983 497.002C472.12 496.494 476.874 495.387 479.632 494.465C480.754 494.09 481.609 494.109 482.323 494.373C483.035 494.636 483.601 495.139 484.147 495.718C484.324 495.906 484.5 496.102 484.678 496.301C485.599 497.33 486.588 498.434 488.255 498.897C492.039 499.948 496.239 499.834 501.128 499.701C501.383 499.694 501.639 499.687 501.898 499.68C507.116 499.541 513.105 499.449 520.17 500.743C522.584 501.185 524.665 501.274 526.723 501.362C526.891 501.369 527.058 501.376 527.226 501.384C529.45 501.481 531.676 501.611 534.29 502.221C535.416 502.483 536.251 502.796 537.061 503.099C537.152 503.133 537.243 503.167 537.335 503.201C538.233 503.535 539.14 503.85 540.425 504.067C543.097 504.518 544.925 504.447 546.78 504.252C547.222 504.206 547.666 504.152 548.124 504.097C549.587 503.921 551.187 503.729 553.307 503.697C559.387 503.606 564.584 504.218 569.752 504.827L570.198 504.88C575.514 505.505 580.826 506.106 587.067 505.913C611.006 505.175 622.598 504.954 645.382 504.805C649.84 504.776 653.588 504.91 657.145 505.036C658.37 505.08 659.573 505.123 660.774 505.158C665.464 505.295 670.139 505.315 676.069 504.805C680.097 504.46 682.686 504.083 685.275 503.704L685.342 503.694C687.91 503.318 690.49 502.94 694.484 502.589C700.772 502.036 705.838 502.036 711.096 502.082C711.541 502.086 711.987 502.09 712.435 502.094C717.287 502.14 722.4 502.188 728.86 501.85C735.46 501.505 740.257 499.096 741.706 495.233C741.956 494.569 742.006 493.966 741.892 493.413C741.778 492.86 741.498 492.353 741.082 491.881C740.249 490.936 738.872 490.136 737.201 489.393C735.693 488.724 733.95 488.104 732.161 487.466C731.968 487.398 731.775 487.329 731.582 487.26C729.592 486.55 727.569 485.811 725.772 484.953C718.872 481.659 708.845 480.089 700.038 478.709L699.851 478.68C695.427 477.987 691.32 477.34 688.088 476.542C686.472 476.143 685.074 475.706 683.963 475.207C682.853 474.707 682.025 474.143 681.557 473.486C679.42 470.485 677.151 467.485 674.923 464.55L674.442 463.917C672.381 461.203 670.365 458.549 668.535 456.009C664.593 450.539 661.506 445.59 660.679 441.699C651.659 399.293 650.621 375.527 648.92 336.595L648.894 336.002L648.892 335.95H648.944C650.106 335.95 652.383 335.701 654.367 334.767C656.35 333.835 658.033 332.224 658.033 329.5C658.033 328.517 657.575 327.686 656.854 326.989C656.133 326.292 655.153 325.732 654.117 325.296C652.045 324.423 649.767 324.05 648.944 324.05H648.896L648.894 324.002C647.9 300.482 647.869 286.524 647.823 266.13C647.814 262.139 647.805 257.901 647.787 253.297C647.601 204.031 646.527 140.957 645.499 90.1996C644.985 64.8209 644.483 42.5213 644.109 26.5664C643.923 18.5889 643.768 12.1976 643.66 7.80072C643.606 5.60226 643.563 3.9024 643.535 2.75215L643.502 1.44537L643.493 1.11309L643.491 1.04229L643.41 1.02849C643.332 1.01525 643.217 0.996307 643.074 0.973526C642.788 0.927963 642.387 0.86704 641.93 0.805616C641.015 0.682692 639.876 0.558051 638.973 0.549998C637.991 0.541241 637.242 0.665542 636.489 0.792701L636.46 0.79774C635.717 0.923312 634.967 1.05 633.989 1.05C633.05 1.05 632.321 0.917903 631.608 0.788688C631.567 0.78128 631.526 0.77388 631.485 0.766516C630.732 0.630749 629.984 0.506623 629.006 0.549951C628.051 0.592229 627.351 0.829642 626.659 1.06404C626.615 1.07891 626.571 1.09377 626.528 1.10856C625.792 1.35675 625.05 1.58656 624.016 1.54997C623.178 1.52029 622.585 1.27009 622.011 1.02836C621.981 1.01561 621.951 1.00287 621.921 0.990198C621.319 0.737613 620.725 0.506864 619.866 0.549937C619.173 0.584691 618.719 0.818303 618.263 1.05319L618.227 1.07166C617.757 1.31324 617.279 1.55 616.54 1.55C615.804 1.55 615.316 1.35184 614.84 1.12823C614.788 1.10404 614.737 1.07958 614.685 1.05505C614.261 0.853251 613.828 0.646839 613.209 0.54939C611.952 0.35128 610.951 0.489078 609.934 0.670639C609.813 0.692204 609.692 0.714394 609.57 0.736711C608.667 0.902262 607.726 1.07476 606.569 1.04999C605.106 1.01867 603.999 0.780231 602.905 0.544525L602.822 0.526484C601.7 0.285114 600.583 0.0521299 599.092 0.0499999C597.25 0.0473659 595.894 0.398011 594.535 0.762116L594.429 0.790459C593.103 1.1457 591.761 1.50541 589.954 1.54998C588.137 1.59483 586.754 1.36636 585.374 1.11619C585.281 1.09925 585.188 1.08221 585.094 1.06514C583.807 0.830309 582.498 0.59147 580.812 0.549985C578.072 0.482537 575.97 0.898382 573.877 1.3126L573.758 1.33619C571.624 1.75808 569.487 2.16862 566.687 2.04996C564.78 1.96912 563.336 1.6254 561.918 1.28791C561.844 1.27025 561.77 1.25261 561.696 1.23502C560.206 0.881415 558.719 0.55 556.719 0.55C554.743 0.55 553.27 0.927162 551.799 1.30411L551.746 1.3177C550.256 1.69922 548.761 2.07578 546.748 2.05C545.452 2.0334 544.805 1.84371 544.093 1.63476C543.979 1.60138 543.864 1.56751 543.744 1.53377C542.876 1.28994 541.759 1.05 539.271 1.05C537.141 1.05 535.509 1.27111 533.876 1.50682C533.792 1.51889 533.708 1.53101 533.625 1.54313C532.073 1.7677 530.497 1.99592 528.471 2.04998C525.386 2.13232 523.221 1.97657 520.734 1.7977C519.552 1.71263 518.297 1.62234 516.835 1.54994C515.515 1.48452 514.412 1.38649 513.367 1.29356C511.579 1.13456 509.958 0.990451 507.699 1.04998C505.996 1.09488 504.678 1.32925 503.377 1.56032C503.298 1.57451 503.218 1.58868 503.138 1.6028C501.759 1.84689 500.376 2.07372 498.558 2.05C496.546 2.02375 495.051 1.67918 493.56 1.32642L493.464 1.3035C492.006 0.958257 490.542 0.611626 488.587 0.549975C486.461 0.482953 484.832 0.757294 483.197 1.03664L483.148 1.04504C481.53 1.32169 479.902 1.59994 477.786 1.54999C476.745 1.52541 475.922 1.40452 475.122 1.28709C475.038 1.27481 474.955 1.26256 474.871 1.25047C473.991 1.12278 473.114 1.01183 471.973 1.04997C471.217 1.07526 470.63 1.19256 470.052 1.30794C470.003 1.31783 469.954 1.32771 469.904 1.33752C469.278 1.46173 468.648 1.57382 467.816 1.54998C467.143 1.53071 466.639 1.43594 466.14 1.33098C466.084 1.31931 466.029 1.30752 465.973 1.2957C465.528 1.2012 465.073 1.10449 464.489 1.04978C462.723 0.884495 461.338 0.996101 459.945 1.15588C459.707 1.1832 459.468 1.21194 459.228 1.24095C458.061 1.38156 456.843 1.52842 455.355 1.54999C453.185 1.58146 451.435 1.4103 449.738 1.24432C449.526 1.22356 449.314 1.20288 449.103 1.18269C447.202 1.00107 445.309 0.858719 442.895 1.04984C442.245 1.10137 441.715 1.2151 441.207 1.32426C441.078 1.35202 440.95 1.37949 440.822 1.40556C440.19 1.53409 439.556 1.62758 438.732 1.54978C438.011 1.48173 437.535 1.26193 437.065 1.04553L437.055 1.04097C436.584 0.823645 436.118 0.610769 435.409 0.549816C434.405 0.463452 433.679 0.696891 432.945 0.961433C432.894 0.979907 432.842 0.998539 432.791 1.01722C432.105 1.26623 431.392 1.52481 430.43 1.54998C429.243 1.58104 428.368 1.37793 427.5 1.14392C427.401 1.11721 427.302 1.0901 427.203 1.0629C426.432 0.851887 425.64 0.635042 424.608 0.54983C422.341 0.362589 420.585 0.599692 418.82 0.890359C418.62 0.923318 418.42 0.956971 418.219 0.990773C416.646 1.25508 415.019 1.52848 412.981 1.55C410.489 1.5763 408.538 1.299 406.618 1.02614L406.322 0.984055C404.305 0.698509 402.293 0.435283 399.689 0.549952C398.155 0.617512 396.967 0.8387 395.8 1.05625C395.715 1.07209 395.63 1.08791 395.545 1.10366C394.293 1.33563 393.037 1.55 391.378 1.55C389.744 1.55 388.502 1.29638 387.271 1.04489L387.214 1.0331C385.964 0.777876 384.718 0.528891 383.07 0.549996C381.63 0.568436 380.538 0.813881 379.453 1.05773L379.341 1.08277C378.219 1.33465 377.092 1.57627 375.591 1.54999C374.677 1.534 373.527 1.40868 372.606 1.28762C372.146 1.22705 371.742 1.16749 371.454 1.12306C371.309 1.10085 371.194 1.08241 371.115 1.06953L371.05 1.05903L371.052 1.21045C371.053 1.34898 371.056 1.55371 371.06 1.81847C371.068 2.34798 371.082 3.11761 371.105 4.07793C371.153 5.99858 371.242 8.68193 371.403 11.7327C371.725 17.8349 372.338 25.4045 373.504 31.2807C375.986 43.7904 378.194 54.6958 380.236 64.784C386.275 94.6127 390.867 117.297 396.83 153.183C406.637 212.199 418.312 245.523 440.409 303.147C449.226 326.138 464.954 345.983 477.228 358.54C491.043 372.673 517.73 389.56 534.916 398.795C538.787 400.875 545.225 402.444 550.701 403.493C553.438 404.017 555.933 404.411 557.743 404.674C558.648 404.805 559.382 404.904 559.89 404.97C560.144 405.003 560.341 405.028 560.475 405.044L560.627 405.063L560.666 405.067L560.676 405.068L560.678 405.069L560.679 405.069C560.679 405.069 560.679 405.069 560.673 405.118L560.679 405.069Z"  />
</g>
<defs>
<filter id="filter0_f_2_30104" x="-1" y="-1" width="373" height="508" filterUnits="userSpaceOnUse" color-interpolation-filters="sRGB">
<feFlood flood-opacity="0" result="BackgroundImageFix"/>
<feBlend mode="normal" in="SourceGraphic" in2="BackgroundImageFix" result="shape"/>
<feGaussianBlur stdDeviation="0.5" result="effect1_foregroundBlur_2_30104"/>
</filter>
<clipPath id="clip0_2_30104">
<rect width="742" height="506" />
</clipPath>
</defs>
</svg>
