<svg width="742" height="506" viewBox="0 0 742 506" fill="none" xmlns="http://www.w3.org/2000/svg">
<g clip-path="url(#clip0_2_30081)">
<path d="M192.377 436.148C192.347 436.188 192.347 436.188 192.347 436.188L192.347 436.188L192.348 436.189L192.353 436.192L192.37 436.206L192.44 436.26C192.501 436.307 192.591 436.377 192.706 436.468C192.937 436.651 193.27 436.916 193.678 437.249C194.494 437.916 195.612 438.855 196.817 439.942C199.229 442.118 201.986 444.884 203.383 447.255C204.439 449.047 204.721 450.531 204.981 452.026L205.008 452.182C205.259 453.628 205.514 455.094 206.451 456.858C208.908 461.479 211.365 464.898 213.898 468.223C214.38 468.857 214.865 469.486 215.354 470.12C217.43 472.816 219.564 475.588 221.799 479.025C223.108 481.038 225.127 482.202 228.585 482.741C229.468 482.879 230.219 482.791 230.949 482.705L231.083 482.689C231.855 482.6 232.611 482.528 233.492 482.741C234.426 482.965 234.923 483.339 235.396 483.746C235.45 483.792 235.504 483.839 235.558 483.887C235.979 484.255 236.421 484.641 237.167 484.954C239.312 485.856 241.753 485.838 244.163 485.821L244.324 485.819C246.791 485.802 249.217 485.806 251.283 486.8C252.827 487.544 254.054 487.648 255.282 487.608C255.629 487.596 255.975 487.573 256.328 487.55C257.226 487.491 258.168 487.428 259.279 487.544C262.265 487.854 264.635 488.225 266.939 488.586C267.244 488.634 267.548 488.682 267.852 488.729C270.452 489.133 273.059 489.512 276.468 489.76C278.857 489.935 281.514 489.52 284.08 489.12C284.847 489.001 285.606 488.882 286.347 488.782C287.959 488.562 289.487 488.425 290.835 488.532C292.184 488.64 293.349 488.993 294.241 489.749C294.893 490.302 295.208 490.872 295.256 491.435C295.304 491.999 295.086 492.566 294.652 493.115C293.784 494.213 292.061 495.22 289.96 495.943C285.673 497.417 280.157 497.51 275.019 497.002C269.882 496.495 265.128 495.387 262.37 494.465C261.248 494.09 260.393 494.11 259.679 494.373C258.966 494.636 258.401 495.139 257.855 495.718C257.677 495.906 257.502 496.103 257.323 496.302C256.402 497.33 255.414 498.434 253.747 498.897C249.963 499.948 245.763 499.834 240.873 499.701C240.619 499.694 240.362 499.687 240.104 499.68C234.886 499.542 228.896 499.449 221.832 500.743C219.418 501.185 217.337 501.274 215.279 501.362C215.111 501.37 214.943 501.377 214.776 501.384C212.552 501.482 210.326 501.612 207.712 502.221C206.586 502.484 205.751 502.796 204.941 503.099C204.85 503.134 204.758 503.168 204.667 503.202C203.768 503.536 202.862 503.851 201.576 504.068C198.905 504.518 197.077 504.447 195.221 504.253C194.779 504.206 194.335 504.153 193.878 504.098C192.415 503.922 190.814 503.729 188.695 503.697C182.615 503.606 177.417 504.219 172.249 504.828L171.803 504.88C166.501 505.504 161.204 506.103 154.984 505.915V398.857L213.57 329.533L213.572 329.534L213.577 329.522L259.33 231.522L259.331 231.522L259.333 231.511L286.696 108.011L286.697 108.011L286.697 108.006L299.154 1.05421C299.783 1.10741 300.299 1.21822 300.795 1.32468C300.924 1.35245 301.052 1.37992 301.18 1.40599C301.811 1.53452 302.445 1.62801 303.269 1.55021C303.99 1.48216 304.467 1.26235 304.936 1.04596L304.946 1.0414C305.418 0.824073 305.883 0.611197 306.592 0.550244C307.597 0.46388 308.322 0.697319 309.057 0.961861C309.108 0.980339 309.159 0.998973 309.211 1.01766C309.897 1.26667 310.61 1.52523 311.572 1.55041C312.759 1.58147 313.634 1.37836 314.502 1.14435C314.601 1.11764 314.7 1.09053 314.799 1.06333C315.57 0.852321 316.362 0.635472 317.393 0.550258C319.66 0.363017 321.417 0.60012 323.181 0.890787C323.382 0.923749 323.582 0.957405 323.783 0.991209C325.356 1.25552 326.983 1.52891 329.021 1.55043C331.512 1.57673 333.464 1.29943 335.384 1.02657C335.482 1.01252 335.581 0.998474 335.68 0.984483C337.697 0.698937 339.709 0.435711 342.313 0.55038C343.847 0.61794 345.034 0.839123 346.202 1.05667C346.287 1.07252 346.372 1.08834 346.457 1.10408C347.709 1.33606 348.964 1.55043 350.624 1.55043C352.258 1.55043 353.499 1.29681 354.73 1.04532L354.788 1.03353C356.038 0.778304 357.283 0.529319 358.932 0.550424C360.372 0.568864 361.464 0.814309 362.549 1.05816L362.66 1.0832C363.783 1.33508 364.909 1.57669 366.411 1.55042C367.324 1.53443 368.475 1.40911 369.395 1.28805C369.856 1.22748 370.26 1.16792 370.548 1.12349C370.692 1.10127 370.808 1.08284 370.887 1.06996L370.951 1.05946L370.95 1.21088C370.948 1.34941 370.946 1.55414 370.942 1.81889C370.934 2.34841 370.92 3.11804 370.896 4.07836C370.848 5.99901 370.76 8.68236 370.599 11.7331C370.277 17.8353 369.663 25.4049 368.497 31.2811C366.015 43.7908 363.808 54.6962 361.765 64.7845C355.727 94.6131 351.135 117.297 345.171 153.183C335.365 212.199 323.69 245.523 301.592 303.148C292.776 326.139 277.047 345.983 264.773 358.54C250.958 372.674 224.272 389.561 207.085 398.795C203.214 400.875 196.776 402.444 191.3 403.493C188.563 404.017 186.069 404.411 184.258 404.674C183.353 404.806 182.619 404.905 182.111 404.97C181.997 404.985 181.895 404.998 181.804 405.01C181.693 405.024 181.6 405.035 181.526 405.045L181.374 405.063L181.335 405.068L181.326 405.069L181.323 405.069L181.323 405.069C181.323 405.069 181.322 405.069 181.328 405.119L181.322 405.069L181.278 405.074V405.119V410.66V410.693L181.309 410.706L181.31 410.706L181.311 410.707L181.316 410.709L181.338 410.718L181.424 410.755C181.466 410.773 181.52 410.796 181.584 410.823C181.633 410.845 181.69 410.87 181.752 410.897C182.036 411.022 182.445 411.206 182.944 411.44C183.942 411.91 185.3 412.584 186.742 413.403C188.184 414.221 189.71 415.184 191.041 416.229C192.374 417.276 193.509 418.403 194.175 419.55C194.846 420.706 195.107 422.11 195.119 423.57C195.131 425.03 194.894 426.543 194.572 427.911C194.249 429.28 193.843 430.503 193.517 431.384C193.354 431.824 193.211 432.179 193.109 432.424C193.096 432.455 193.084 432.483 193.072 432.51C193.038 432.592 193.01 432.657 192.989 432.705C192.975 432.737 192.964 432.762 192.957 432.778L192.948 432.797L192.946 432.801L192.946 432.802L192.944 432.802L192.942 432.814L192.328 436.139L192.322 436.169L192.347 436.188L192.377 436.148Z"  />
<path d="M190.048 108.006L190.048 108.006L190.049 108.003L195.298 2.04979C196.563 2.02926 197.202 1.84164 197.906 1.63523C198.019 1.60185 198.135 1.56798 198.255 1.53425C199.122 1.29042 200.239 1.05047 202.728 1.05047C204.858 1.05047 206.49 1.27158 208.123 1.50729C208.207 1.51936 208.29 1.53148 208.374 1.5436C209.925 1.76817 211.502 1.99639 213.528 2.05045C216.613 2.13279 218.778 1.97704 221.264 1.79817C222.447 1.7131 223.702 1.62281 225.164 1.55041C226.484 1.48499 227.587 1.38696 228.632 1.29403C230.42 1.13503 232.041 0.990922 234.299 1.05045C236.002 1.09535 237.321 1.32972 238.621 1.56079C238.701 1.57498 238.781 1.58915 238.861 1.60327C240.24 1.84736 241.622 2.07419 243.441 2.05047C245.453 2.02422 246.948 1.67966 248.438 1.32689L248.535 1.30399C249.993 0.958739 251.457 0.612097 253.412 0.550446C255.537 0.483423 257.167 0.757765 258.801 1.03711L258.851 1.04551C260.469 1.32216 262.096 1.60041 264.213 1.55046C265.254 1.52588 266.077 1.40498 266.877 1.28756C266.961 1.27527 267.044 1.26303 267.127 1.25094C268.007 1.12326 268.885 1.0123 270.026 1.05044C270.782 1.07573 271.369 1.19302 271.946 1.3084C271.996 1.3183 272.045 1.32818 272.095 1.33799C272.721 1.4622 273.351 1.57429 274.183 1.55045C274.856 1.53118 275.359 1.43641 275.859 1.33145C275.915 1.31978 275.97 1.308 276.026 1.29618C276.47 1.20167 276.925 1.10496 277.51 1.05025C279.275 0.884966 280.661 0.996572 282.054 1.15635C282.292 1.18367 282.53 1.21241 282.771 1.24142C283.938 1.38203 285.156 1.52889 286.644 1.55047C288.814 1.58193 290.564 1.41077 292.261 1.2448C292.473 1.22403 292.685 1.20335 292.896 1.18316C294.783 1.00284 296.663 0.861229 299.052 1.04626L286.595 107.992L259.234 231.484L213.487 329.473L154.892 398.807L154.881 398.821V398.839V505.912C139.615 505.441 129.371 505.181 118.03 505.016V398.851L152.091 329.522L152.092 329.523L152.094 329.512L175.358 231.512L175.359 231.512L175.359 231.506L190.048 108.006Z"  />
<path d="M93.0561 324.05H93.104L93.106 324.002C94.0995 300.482 94.1309 286.524 94.1768 266.13C94.1858 262.139 94.1954 257.901 94.2128 253.297C94.3991 204.031 95.4733 140.957 96.5009 90.1996C97.0147 64.8209 97.5169 42.5213 97.8906 26.5664C98.0775 18.5889 98.2322 12.1976 98.3402 7.80074C98.3942 5.60228 98.4366 3.90241 98.4654 2.75217L98.4983 1.44538L98.5067 1.11311L98.5085 1.04231L98.5898 1.0285C98.6685 1.01526 98.783 0.996322 98.9261 0.973541C99.2123 0.927977 99.6129 0.867055 100.07 0.805631C100.985 0.682706 102.124 0.558066 103.027 0.550013C104.009 0.541255 104.758 0.665557 105.511 0.792716L105.54 0.797755C106.283 0.923327 107.033 1.05001 108.011 1.05001C108.95 1.05001 109.679 0.917915 110.392 0.788698C110.433 0.781291 110.474 0.773894 110.515 0.766531C111.268 0.630764 112.016 0.506637 112.994 0.549966C113.949 0.592243 114.649 0.829653 115.341 1.06405C115.385 1.07892 115.429 1.09378 115.472 1.10858C116.208 1.35677 116.95 1.58657 117.984 1.54998C118.822 1.52031 119.415 1.27011 119.989 1.02838C120.019 1.01563 120.049 1.00289 120.079 0.990212C120.681 0.737627 121.275 0.506878 122.134 0.549952C122.827 0.584705 123.281 0.818307 123.737 1.05319L123.773 1.07168C124.243 1.31326 124.721 1.55001 125.46 1.55001C126.196 1.55001 126.684 1.35186 127.16 1.12825C127.212 1.10405 127.263 1.07959 127.315 1.05505C127.739 0.853257 128.172 0.646852 128.791 0.549405C130.048 0.351295 131.049 0.489093 132.066 0.670654C132.187 0.692218 132.308 0.714409 132.43 0.736726C133.333 0.902277 134.274 1.07478 135.431 1.05C136.894 1.01869 138.001 0.780246 139.095 0.544539L139.178 0.526499C140.3 0.285129 141.417 0.0521447 142.908 0.0500147C144.75 0.0473807 146.106 0.398026 147.465 0.762131L147.571 0.790465C148.897 1.14571 150.239 1.50542 152.046 1.55C153.863 1.59484 155.246 1.36638 156.626 1.11621C156.719 1.09926 156.812 1.08222 156.906 1.06516C158.193 0.830324 159.502 0.591485 161.188 0.55C163.928 0.482551 166.03 0.898397 168.123 1.31262L168.242 1.3362C170.376 1.75809 172.513 2.16864 175.313 2.04997C177.22 1.96913 178.664 1.62542 180.082 1.28792C180.156 1.27026 180.23 1.25262 180.304 1.23504C181.794 0.88143 183.281 0.550015 185.281 0.550015C187.257 0.550015 188.73 0.927177 190.201 1.30412L190.254 1.31772C191.731 1.69587 193.212 2.06914 195.199 2.0506L189.95 107.994L189.95 107.998L175.261 231.494L152 329.483L117.937 398.817L117.932 398.827V398.839V505.014C111.544 504.922 104.803 504.859 96.6184 504.805C92.1598 504.776 88.4124 504.91 84.8547 505.036C83.6298 505.08 82.4273 505.123 81.2261 505.158C76.5356 505.295 71.8611 505.315 65.9309 504.805C61.9033 504.46 59.3143 504.083 56.7249 503.704L56.6579 503.694C54.0902 503.318 51.5099 502.94 47.5161 502.589C41.2279 502.036 36.1618 502.036 30.9041 502.082C30.4592 502.086 30.013 502.09 29.5645 502.094C24.7127 502.14 19.6 502.188 13.1398 501.85C6.54026 501.505 1.74298 499.096 0.293612 495.233C0.0442737 494.569 -0.00610568 493.966 0.108014 493.413C0.222181 492.86 0.50173 492.353 0.917818 491.881C1.7513 490.936 3.12804 490.136 4.7994 489.393C6.30748 488.724 8.04969 488.104 9.83926 487.466C10.0319 487.398 10.225 487.329 10.4185 487.26C12.4085 486.55 14.4313 485.811 16.2279 484.953C23.1284 481.659 33.1548 480.089 41.9617 478.709L42.1492 478.68C46.5731 477.987 50.6804 477.34 53.9118 476.542C55.5276 476.143 56.9263 475.706 58.0371 475.207C59.147 474.707 59.975 474.143 60.443 473.486C62.5797 470.485 64.8491 467.485 67.0775 464.55L67.5578 463.917C69.6194 461.203 71.635 458.549 73.4649 456.009C77.4068 450.539 80.4939 445.59 81.3214 441.699C90.3413 399.293 91.3795 375.527 93.0801 336.595L93.0801 336.595L93.106 336.002L93.1083 335.95H93.0561C91.894 335.95 89.6171 335.701 87.6326 334.767C85.6496 333.835 83.9666 332.224 83.9666 329.5C83.9666 328.517 84.4255 327.686 85.1457 326.989C85.8666 326.292 86.847 325.732 87.8826 325.296C89.9546 324.423 92.2328 324.05 93.0561 324.05Z"  />
<path d="M549.623 436.148C549.653 436.188 549.653 436.188 549.653 436.188L549.653 436.188L549.652 436.189L549.647 436.192L549.63 436.206L549.56 436.26C549.499 436.307 549.409 436.377 549.294 436.468C549.063 436.651 548.73 436.916 548.322 437.249C547.506 437.916 546.388 438.855 545.183 439.942C542.771 442.118 540.014 444.884 538.617 447.255C537.561 449.047 537.279 450.531 537.019 452.026L536.992 452.182C536.741 453.628 536.486 455.094 535.549 456.858C533.092 461.479 530.635 464.898 528.102 468.223C527.62 468.857 527.135 469.486 526.646 470.12C524.57 472.816 522.436 475.588 520.201 479.025C518.892 481.038 516.873 482.202 513.415 482.741C512.532 482.879 511.781 482.791 511.051 482.705L510.917 482.689C510.145 482.6 509.389 482.528 508.508 482.741C507.574 482.965 507.077 483.339 506.604 483.746C506.55 483.792 506.496 483.839 506.442 483.887C506.021 484.255 505.579 484.641 504.833 484.954C502.688 485.856 500.247 485.838 497.837 485.821L497.676 485.819C495.209 485.802 492.783 485.806 490.717 486.8C489.173 487.544 487.946 487.648 486.718 487.608C486.371 487.596 486.025 487.573 485.672 487.55C484.774 487.491 483.832 487.428 482.721 487.544C479.735 487.854 477.365 488.225 475.061 488.586C474.756 488.634 474.452 488.682 474.148 488.729C471.548 489.133 468.941 489.512 465.532 489.76C463.143 489.935 460.486 489.52 457.92 489.12C457.153 489.001 456.394 488.882 455.653 488.782C454.041 488.562 452.513 488.425 451.165 488.532C449.816 488.64 448.651 488.993 447.759 489.749C447.107 490.302 446.792 490.872 446.744 491.435C446.696 491.999 446.914 492.566 447.348 493.115C448.216 494.213 449.939 495.22 452.04 495.943C456.327 497.417 461.843 497.51 466.981 497.002C472.118 496.495 476.872 495.387 479.63 494.465C480.752 494.09 481.607 494.11 482.321 494.373C483.034 494.636 483.599 495.139 484.145 495.718C484.323 495.906 484.498 496.103 484.677 496.302C485.598 497.33 486.586 498.434 488.253 498.897C492.037 499.948 496.237 499.834 501.127 499.701C501.381 499.694 501.638 499.687 501.896 499.68C507.114 499.542 513.104 499.449 520.168 500.743C522.582 501.185 524.663 501.274 526.721 501.362C526.889 501.37 527.057 501.377 527.224 501.384C529.448 501.482 531.674 501.612 534.288 502.221C535.414 502.484 536.249 502.796 537.059 503.099C537.15 503.134 537.242 503.168 537.333 503.202C538.232 503.536 539.138 503.851 540.424 504.068C543.095 504.518 544.923 504.447 546.779 504.253C547.221 504.206 547.665 504.153 548.122 504.098C549.585 503.922 551.186 503.729 553.305 503.697C559.385 503.606 564.583 504.219 569.751 504.828L570.197 504.88C575.499 505.504 580.796 506.103 587.016 505.915V405.129L566.643 358.599L507.655 271.028L507.653 271.029L507.649 271.016L471.922 164.016L471.922 164.016L471.921 164.011L446.949 45.0107L446.949 45.0107L446.949 45.0051L442.844 1.0543C442.216 1.10754 441.701 1.21829 441.205 1.32468C441.076 1.35245 440.948 1.37992 440.82 1.40599C440.189 1.53452 439.555 1.62801 438.731 1.55021C438.01 1.48216 437.533 1.26235 437.064 1.04596L437.054 1.0414C436.582 0.824073 436.117 0.611197 435.408 0.550244C434.403 0.46388 433.678 0.697319 432.943 0.961861C432.892 0.980339 432.841 0.998973 432.789 1.01766C432.103 1.26667 431.39 1.52523 430.428 1.55041C429.241 1.58147 428.366 1.37836 427.498 1.14435C427.399 1.11764 427.3 1.09053 427.201 1.06333C426.43 0.852321 425.638 0.635472 424.607 0.550258C422.34 0.363017 420.583 0.60012 418.819 0.890787C418.618 0.923749 418.418 0.957405 418.217 0.991209C416.644 1.25552 415.017 1.52891 412.979 1.55043C410.488 1.57673 408.536 1.29943 406.616 1.02657C406.518 1.01252 406.419 0.998474 406.32 0.984483C404.303 0.698937 402.291 0.435711 399.687 0.55038C398.153 0.61794 396.966 0.839123 395.798 1.05667C395.713 1.07252 395.628 1.08834 395.543 1.10408C394.291 1.33606 393.036 1.55043 391.376 1.55043C389.742 1.55043 388.501 1.29681 387.27 1.04532L387.212 1.03353C385.962 0.778304 384.717 0.529319 383.068 0.550424C381.628 0.568864 380.536 0.814309 379.451 1.05816L379.34 1.0832C378.217 1.33508 377.091 1.57669 375.589 1.55042C374.676 1.53443 373.525 1.40911 372.605 1.28805C372.144 1.22748 371.74 1.16792 371.452 1.12349C371.308 1.10127 371.192 1.08284 371.113 1.06996L371.049 1.05946L371.05 1.21088C371.052 1.34941 371.054 1.55414 371.058 1.81889C371.066 2.34841 371.08 3.11804 371.104 4.07836C371.152 5.99901 371.24 8.68236 371.401 11.7331C371.723 17.8353 372.337 25.4049 373.503 31.2811C375.985 43.7908 378.192 54.6962 380.235 64.7845C386.273 94.6131 390.865 117.297 396.829 153.183C406.635 212.199 418.31 245.523 440.408 303.148C449.224 326.139 464.953 345.983 477.227 358.54C491.042 372.674 517.728 389.561 534.915 398.795C538.786 400.875 545.224 402.444 550.7 403.493C553.437 404.017 555.931 404.411 557.742 404.674C558.647 404.806 559.381 404.905 559.889 404.97C560.003 404.985 560.105 404.998 560.196 405.01C560.307 405.024 560.4 405.035 560.474 405.045L560.626 405.063L560.665 405.068L560.674 405.069L560.677 405.069L560.677 405.069C560.677 405.069 560.678 405.069 560.672 405.119L560.678 405.069L560.722 405.074V405.119V410.66V410.693L560.691 410.706L560.69 410.706L560.689 410.707L560.684 410.709L560.662 410.718L560.576 410.755C560.534 410.773 560.48 410.796 560.416 410.823C560.367 410.845 560.31 410.87 560.248 410.897C559.964 411.022 559.555 411.206 559.056 411.44C558.058 411.91 556.7 412.584 555.258 413.403C553.816 414.221 552.29 415.184 550.959 416.229C549.626 417.276 548.491 418.403 547.825 419.55C547.154 420.706 546.893 422.11 546.881 423.57C546.869 425.03 547.106 426.543 547.428 427.911C547.751 429.28 548.157 430.503 548.483 431.384C548.646 431.824 548.789 432.179 548.891 432.424C548.904 432.455 548.916 432.483 548.928 432.51C548.962 432.592 548.99 432.657 549.011 432.705C549.025 432.737 549.036 432.762 549.043 432.778L549.052 432.797L549.054 432.801L549.054 432.802L549.056 432.802L549.058 432.814L549.672 436.139L549.678 436.169L549.653 436.188L549.623 436.148Z"  />
<path d="M587.119 505.912C604.581 505.374 615.473 505.111 628.951 504.95L623.969 405.13L589.907 324.02L589.907 324.02L589.905 324.011L560.625 185.011L560.625 185.011L560.624 185.006L546.699 62.5065L546.699 62.5061L539.227 1.0505C537.119 1.05354 535.498 1.27321 533.876 1.50729C533.793 1.51936 533.709 1.53148 533.625 1.5436C532.074 1.76817 530.497 1.99639 528.471 2.05045C525.387 2.13279 523.221 1.97704 520.735 1.79817C519.552 1.7131 518.297 1.62281 516.836 1.55041C515.515 1.48499 514.413 1.38696 513.367 1.29403C511.579 1.13503 509.959 0.990922 507.7 1.05045C505.997 1.09535 504.678 1.32972 503.378 1.56079C503.298 1.57498 503.218 1.58915 503.139 1.60327C501.76 1.84736 500.377 2.07419 498.559 2.05047C496.546 2.02422 495.051 1.67966 493.561 1.32689L493.464 1.30398C492.006 0.958733 490.543 0.612097 488.587 0.550446C486.462 0.483423 484.832 0.757765 483.198 1.03711L483.149 1.04552C481.53 1.32216 479.903 1.60041 477.787 1.55046C476.746 1.52588 475.922 1.40498 475.122 1.28756C475.039 1.27527 474.955 1.26303 474.872 1.25094C473.992 1.12326 473.114 1.0123 471.973 1.05044C471.217 1.07573 470.63 1.19302 470.053 1.3084C470.004 1.3183 469.954 1.32818 469.905 1.33799C469.278 1.4622 468.648 1.57429 467.816 1.55045C467.144 1.53118 466.64 1.43641 466.14 1.33145C466.085 1.31978 466.029 1.308 465.974 1.29618C465.529 1.20167 465.074 1.10496 464.489 1.05025C462.724 0.884966 461.339 0.996572 459.946 1.15635C459.708 1.18367 459.469 1.21241 459.228 1.24142C458.062 1.38203 456.843 1.52889 455.355 1.55047C453.185 1.58193 451.435 1.41077 449.738 1.2448C449.526 1.22403 449.315 1.20335 449.103 1.18316C447.216 1.00281 445.336 0.861183 442.946 1.04635L447.05 44.993L472.021 163.99L507.744 270.978L566.731 358.547L566.732 358.547L566.735 358.555L587.114 405.099L587.119 405.108V405.119V505.912Z"  />
<path d="M648.944 324.05H648.896L648.894 324.002C647.9 300.482 647.869 286.524 647.823 266.13C647.814 262.139 647.805 257.901 647.787 253.297C647.601 204.031 646.527 140.957 645.499 90.1996C644.985 64.8209 644.483 42.5213 644.109 26.5664C643.923 18.5889 643.768 12.1976 643.66 7.80074C643.606 5.60228 643.563 3.90241 643.535 2.75217L643.502 1.44538L643.493 1.11311L643.491 1.04231L643.41 1.0285C643.332 1.01526 643.217 0.996322 643.074 0.973541C642.788 0.927977 642.387 0.867055 641.93 0.805631C641.015 0.682706 639.876 0.558066 638.973 0.550013C637.991 0.541255 637.242 0.665557 636.489 0.792716L636.46 0.797755C635.717 0.923327 634.967 1.05001 633.989 1.05001C633.05 1.05001 632.321 0.917915 631.608 0.788698C631.567 0.781291 631.526 0.773894 631.485 0.766531C630.732 0.630764 629.984 0.506637 629.006 0.549966C628.051 0.592243 627.351 0.829653 626.659 1.06405C626.615 1.07892 626.571 1.09378 626.528 1.10858C625.792 1.35677 625.05 1.58657 624.016 1.54998C623.178 1.52031 622.585 1.27011 622.011 1.02838C621.981 1.01563 621.951 1.00289 621.921 0.990212C621.319 0.737627 620.725 0.506878 619.866 0.549952C619.173 0.584705 618.719 0.818307 618.263 1.05319L618.227 1.07168C617.757 1.31326 617.279 1.55001 616.54 1.55001C615.804 1.55001 615.316 1.35186 614.84 1.12825C614.788 1.10405 614.737 1.07959 614.685 1.05505C614.261 0.853257 613.828 0.646852 613.209 0.549405C611.952 0.351295 610.951 0.489093 609.934 0.670654C609.813 0.692218 609.692 0.714409 609.57 0.736726C608.667 0.902277 607.726 1.07478 606.569 1.05C605.106 1.01869 603.999 0.780246 602.905 0.544539L602.822 0.526499C601.7 0.285129 600.583 0.0521447 599.092 0.0500147C597.25 0.0473807 595.894 0.398026 594.535 0.762131L594.429 0.790465C593.103 1.14571 591.761 1.50542 589.954 1.55C588.137 1.59484 586.754 1.36638 585.374 1.11621C585.281 1.09926 585.188 1.08222 585.094 1.06516C583.807 0.830324 582.498 0.591485 580.812 0.55C578.072 0.482551 575.97 0.898397 573.877 1.31262L573.758 1.3362C571.624 1.75809 569.487 2.16864 566.687 2.04997C564.78 1.96913 563.336 1.62542 561.918 1.28792C561.844 1.27026 561.77 1.25262 561.696 1.23504C560.206 0.88143 558.719 0.550015 556.719 0.550015C554.743 0.550015 553.27 0.927177 551.799 1.30412L551.746 1.31772C550.256 1.69924 548.761 2.07579 546.748 2.05001C545.452 2.03342 544.805 1.84372 544.093 1.63477C543.979 1.60139 543.864 1.56752 543.744 1.53379C542.883 1.29181 541.776 1.05366 539.327 1.05006L546.798 62.494L546.798 62.4944L560.722 184.99L560.723 184.994L590.001 323.985L624.064 405.099L624.068 405.107L624.068 405.116L629.051 504.949C633.994 504.89 639.288 504.845 645.382 504.805C649.84 504.776 653.588 504.91 657.145 505.036C658.37 505.08 659.573 505.123 660.774 505.158C665.464 505.295 670.139 505.315 676.069 504.805C680.097 504.46 682.686 504.083 685.275 503.704L685.342 503.694C687.91 503.318 690.49 502.94 694.484 502.589C700.772 502.036 705.838 502.036 711.096 502.082C711.541 502.086 711.987 502.09 712.435 502.094C717.287 502.14 722.4 502.188 728.86 501.85C735.46 501.505 740.257 499.096 741.706 495.233C741.956 494.569 742.006 493.966 741.892 493.413C741.778 492.86 741.498 492.353 741.082 491.881C740.249 490.936 738.872 490.136 737.201 489.393C735.693 488.724 733.95 488.104 732.161 487.466C731.968 487.398 731.775 487.329 731.582 487.26C729.592 486.55 727.569 485.811 725.772 484.953C718.872 481.659 708.845 480.089 700.038 478.709L699.851 478.68C695.427 477.987 691.32 477.34 688.088 476.542C686.472 476.143 685.074 475.706 683.963 475.207C682.853 474.707 682.025 474.143 681.557 473.486C679.42 470.485 677.151 467.485 674.923 464.55L674.442 463.917C672.381 461.203 670.365 458.549 668.535 456.009C664.593 450.539 661.506 445.59 660.679 441.699C651.659 399.293 650.621 375.527 648.92 336.595L648.92 336.595L648.894 336.002L648.892 335.95H648.944C650.106 335.95 652.383 335.701 654.367 334.767C656.35 333.835 658.033 332.224 658.033 329.5C658.033 328.517 657.575 327.686 656.854 326.989C656.133 326.292 655.153 325.732 654.117 325.296C652.045 324.423 649.767 324.05 648.944 324.05Z"  />
</g>
<defs>
<clipPath id="clip0_2_30081">
<rect width="742" height="506" />
</clipPath>
</defs>
</svg>
