<svg width="944" height="512" viewBox="0 0 944 512" fill="none" xmlns="http://www.w3.org/2000/svg">
<path d="M445.512 1.01475C445.512 1.01475 202.535 0.982645 103.004 1.01317C95.6849 1.01541 130.083 73.1867 150.941 110.558C182.106 166.395 202.902 195.186 246.448 245.38C267.277 269.389 309.021 297.404 309.021 297.404C309.021 297.404 359.153 327.079 390.257 330.743C396.36 331.462 403.43 331.84 403.43 331.84C403.43 331.84 402.818 331.66 400.868 340.633C398.783 350.23 397.107 369.722 394.648 404.748C392.626 433.564 387.696 455.673 387.696 478.388C387.696 481.728 394.648 482.784 394.648 482.784V499.271C394.648 503.301 407.456 505.132 407.456 505.132L423.556 506.231L436.73 508.063H448.805C448.805 508.063 458.966 510.956 465.638 510.994C471.115 511.025 480.641 510.994 481.373 508.796C481.734 507.71 481.739 506.231 481.739 506.231C481.739 506.231 502.815 507.792 515.77 504.766C521.44 503.441 528.943 501.253 535.529 500.003C541.692 498.834 547.19 498.642 545.776 496.34C544.633 494.479 543.214 493.409 543.214 493.409C543.214 493.409 542.604 490.734 539.92 490.478C516.867 488.28 511.024 488.646 489.056 488.646C467.467 488.646 461.612 434.058 456.855 395.956C452.543 361.424 453.171 320.483 449.031 301.339C449.165 301.502 449.331 301.66 449.536 301.798C450.515 302.457 452.314 302.63 453.196 302.531C454.466 302.388 455.749 302.44 456.855 301.798C458.364 300.922 459.146 300.127 459.782 298.501C460.306 297.162 460.479 296.641 460.514 295.204C460.542 294.062 460.173 293.015 459.794 291.939L459.782 291.906C459.307 290.557 458.067 289.367 456.855 288.609C455.5 287.761 454.776 288.108 453.196 287.876C451.915 287.689 449.902 288.243 449.902 288.243C449.902 288.243 451.129 268.824 451.733 256.371C455.002 188.919 451.733 83.4468 451.733 83.4468L446.975 29.2248H445.512V25.9276L446.609 25.5612C446.609 25.5612 448.033 17.5302 447.707 12.3721C447.421 7.86353 445.512 1.01475 445.512 1.01475Z"  />
<path d="M101.488 1.01475C101.488 1.01475 344.465 0.982645 443.996 1.01317C451.315 1.01541 416.917 73.1867 396.059 110.558C364.894 166.395 344.098 195.186 300.552 245.38C279.723 269.389 237.979 297.404 237.979 297.404C237.979 297.404 187.847 327.079 156.743 330.743C150.64 331.462 143.57 331.84 143.57 331.84C143.57 331.84 144.182 331.66 146.132 340.633C148.217 350.23 149.894 369.722 152.352 404.748C154.374 433.564 159.305 455.673 159.305 478.388C159.305 481.728 152.352 482.784 152.352 482.784V499.271C152.352 503.301 139.544 505.132 139.544 505.132L123.444 506.231L110.27 508.063H98.1948C98.1948 508.063 88.0343 510.956 81.3622 510.994C75.8852 511.025 66.3592 510.994 65.6274 508.796C65.2658 507.71 65.2614 506.231 65.2614 506.231C65.2614 506.231 44.1846 507.792 31.2303 504.766C25.5597 503.441 18.0574 501.253 11.4711 500.003C5.30751 498.834 -0.190395 498.642 1.22437 496.34C2.36736 494.479 3.78583 493.409 3.78583 493.409C3.78583 493.409 4.39554 490.734 7.07994 490.478C30.1333 488.28 35.9759 488.646 57.9437 488.646C79.5333 488.646 85.3882 434.058 90.1452 395.956C94.4565 361.424 93.8285 320.483 97.9689 301.339C97.8355 301.502 97.6691 301.66 97.4637 301.798C96.4846 302.457 94.6859 302.63 93.8045 302.531C92.5343 302.388 91.2507 302.44 90.1452 301.798C88.6365 300.922 87.8543 300.127 87.2178 298.501C86.6938 297.162 86.5214 296.641 86.486 295.204C86.4578 294.062 86.8269 293.015 87.2063 291.939L87.2178 291.906C87.6934 290.557 88.9334 289.367 90.1452 288.609C91.5001 287.761 92.2236 288.108 93.8045 287.876C95.085 287.689 97.0978 288.243 97.0978 288.243C97.0978 288.243 95.8709 268.824 95.2674 256.371C91.9984 188.919 95.2674 83.4468 95.2674 83.4468L100.025 29.2248H101.488V25.9276L100.391 25.5612C100.391 25.5612 98.967 17.5302 99.2934 12.3721C99.5786 7.86353 101.488 1.01475 101.488 1.01475Z"  />
<path d="M842.512 1.01475C842.512 1.01475 599.535 0.982645 500.004 1.01317C492.685 1.01541 527.083 73.1867 547.941 110.558C579.106 166.395 599.902 195.186 643.448 245.38C664.277 269.389 706.021 297.404 706.021 297.404C706.021 297.404 756.153 327.079 787.257 330.743C793.36 331.462 800.43 331.84 800.43 331.84C800.43 331.84 799.818 331.66 797.868 340.633C795.783 350.23 794.107 369.722 791.648 404.748C789.626 433.564 784.696 455.673 784.696 478.388C784.696 481.728 791.648 482.784 791.648 482.784V499.271C791.648 503.301 804.456 505.132 804.456 505.132L820.556 506.231L833.73 508.063H845.805C845.805 508.063 855.966 510.956 862.638 510.994C868.115 511.025 877.641 510.994 878.373 508.796C878.734 507.71 878.739 506.231 878.739 506.231C878.739 506.231 899.815 507.792 912.77 504.766C918.44 503.441 925.943 501.253 932.529 500.003C938.692 498.834 944.19 498.642 942.776 496.34C941.633 494.479 940.214 493.409 940.214 493.409C940.214 493.409 939.604 490.734 936.92 490.478C913.867 488.28 908.024 488.646 886.056 488.646C864.467 488.646 858.612 434.058 853.855 395.956C849.543 361.424 850.171 320.483 846.031 301.339C846.165 301.502 846.331 301.66 846.536 301.798C847.515 302.457 849.314 302.63 850.196 302.531C851.466 302.388 852.749 302.44 853.855 301.798C855.364 300.922 856.146 300.127 856.782 298.501C857.306 297.162 857.479 296.641 857.514 295.204C857.542 294.062 857.173 293.015 856.794 291.939L856.782 291.906C856.307 290.557 855.067 289.367 853.855 288.609C852.5 287.761 851.776 288.108 850.196 287.876C848.915 287.689 846.902 288.243 846.902 288.243C846.902 288.243 848.129 268.824 848.733 256.371C852.002 188.919 848.733 83.4468 848.733 83.4468L843.975 29.2248H842.512V25.9276L843.609 25.5612C843.609 25.5612 845.033 17.5302 844.707 12.3721C844.421 7.86353 842.512 1.01475 842.512 1.01475Z"  />
<path d="M498.488 1.01475C498.488 1.01475 741.465 0.982645 840.996 1.01317C848.315 1.01541 813.917 73.1867 793.059 110.558C761.894 166.395 741.098 195.186 697.552 245.38C676.723 269.389 634.979 297.404 634.979 297.404C634.979 297.404 584.847 327.079 553.743 330.743C547.64 331.462 540.57 331.84 540.57 331.84C540.57 331.84 541.182 331.66 543.132 340.633C545.217 350.23 546.894 369.722 549.352 404.748C551.374 433.564 556.305 455.673 556.305 478.388C556.305 481.728 549.352 482.784 549.352 482.784V499.271C549.352 503.301 536.544 505.132 536.544 505.132L520.444 506.231L507.27 508.063H495.195C495.195 508.063 485.034 510.956 478.362 510.994C472.885 511.025 463.359 510.994 462.627 508.796C462.266 507.71 462.261 506.231 462.261 506.231C462.261 506.231 441.185 507.792 428.23 504.766C422.56 503.441 415.057 501.253 408.471 500.003C402.308 498.834 396.81 498.642 398.224 496.34C399.367 494.479 400.786 493.409 400.786 493.409C400.786 493.409 401.396 490.734 404.08 490.478C427.133 488.28 432.976 488.646 454.944 488.646C476.533 488.646 482.388 434.058 487.145 395.956C491.457 361.424 490.829 320.483 494.969 301.339C494.835 301.502 494.669 301.66 494.464 301.798C493.485 302.457 491.686 302.63 490.804 302.531C489.534 302.388 488.251 302.44 487.145 301.798C485.636 300.922 484.854 300.127 484.218 298.501C483.694 297.162 483.521 296.641 483.486 295.204C483.458 294.062 483.827 293.015 484.206 291.939L484.218 291.906C484.693 290.557 485.933 289.367 487.145 288.609C488.5 287.761 489.224 288.108 490.804 287.876C492.085 287.689 494.098 288.243 494.098 288.243C494.098 288.243 492.871 268.824 492.267 256.371C488.998 188.919 492.267 83.4468 492.267 83.4468L497.025 29.2248H498.488V25.9276L497.391 25.5612C497.391 25.5612 495.967 17.5302 496.293 12.3721C496.579 7.86353 498.488 1.01475 498.488 1.01475Z"  />
</svg>
