<svg width="944" height="512" viewBox="0 0 944 512" fill="none" xmlns="http://www.w3.org/2000/svg">
<path d="M309.021 297.404C309.021 297.404 359.153 327.08 390.257 330.743C396.36 331.462 403.43 331.84 403.43 331.84C403.43 331.84 402.818 331.66 400.868 340.633C398.783 350.23 397.107 369.722 394.648 404.749C392.626 433.564 387.695 455.673 387.695 478.388C387.695 481.728 394.648 482.784 394.648 482.784V499.271C394.648 503.301 407.456 505.133 407.456 505.133L423.556 506.232L436.73 508.064H448.805C448.805 508.064 458.966 510.957 465.638 510.995C471.115 511.026 480.641 510.995 481.373 508.796C481.734 507.71 481.739 506.232 481.739 506.232C481.739 506.232 502.815 507.793 515.77 504.766C521.44 503.442 528.943 501.253 535.529 500.004C541.692 498.834 547.19 498.642 545.776 496.34C544.633 494.48 543.214 493.409 543.214 493.409C543.214 493.409 542.604 490.734 539.92 490.478C516.867 488.28 511.024 488.646 489.056 488.646C467.467 488.646 461.612 434.058 456.855 395.956C452.543 361.424 453.171 320.484 449.031 301.339C449.165 301.503 449.331 301.66 449.536 301.798C450.515 302.457 452.314 302.63 453.196 302.531C454.466 302.389 455.749 302.441 456.855 301.798C458.364 300.922 459.146 300.127 459.782 298.501C460.306 297.162 460.479 296.641 460.514 295.204C460.542 294.062 460.173 293.016 459.794 291.939L459.782 291.907C459.307 290.557 458.067 289.368 456.855 288.609C455.5 287.762 454.776 288.108 453.196 287.877C451.915 287.689 449.902 288.243 449.902 288.243C449.902 288.243 451.129 268.824 451.733 256.371H257.047C278.885 277.179 309.021 297.404 309.021 297.404Z"  />
<path d="M103.002 1.01317C202.534 0.982645 445.51 1.01475 445.51 1.01475C445.51 1.01475 447.42 7.86353 447.705 12.3721C448.031 17.5302 446.607 25.5612 446.607 25.5612L445.51 25.9276V29.2248H446.973L451.731 83.4468C451.731 83.4468 455 188.919 451.731 256.371H257.045C253.182 252.689 249.577 248.989 246.446 245.38C202.9 195.186 182.104 166.395 150.939 110.558C130.081 73.1867 95.683 1.01541 103.002 1.01317Z"  />
<path d="M237.979 297.404C237.979 297.404 187.847 327.08 156.743 330.743C150.64 331.462 143.57 331.84 143.57 331.84C143.57 331.84 144.182 331.66 146.132 340.633C148.217 350.23 149.893 369.722 152.352 404.749C154.374 433.564 159.305 455.673 159.305 478.388C159.305 481.728 152.352 482.784 152.352 482.784V499.271C152.352 503.301 139.544 505.133 139.544 505.133L123.444 506.232L110.27 508.064H98.1948C98.1948 508.064 88.0343 510.957 81.3622 510.995C75.8852 511.026 66.3592 510.995 65.6274 508.796C65.2658 507.71 65.2614 506.232 65.2614 506.232C65.2614 506.232 44.1846 507.793 31.2303 504.766C25.5597 503.442 18.0574 501.253 11.4711 500.004C5.30751 498.834 -0.190395 498.642 1.22437 496.34C2.36736 494.48 3.78583 493.409 3.78583 493.409C3.78583 493.409 4.39554 490.734 7.07994 490.478C30.1333 488.28 35.9759 488.646 57.9437 488.646C79.5333 488.646 85.3882 434.058 90.1452 395.956C94.4565 361.424 93.8285 320.484 97.9689 301.339C97.8355 301.503 97.6691 301.66 97.4637 301.798C96.4846 302.457 94.6859 302.63 93.8045 302.531C92.5343 302.389 91.2507 302.441 90.1452 301.798C88.6365 300.922 87.8543 300.127 87.2178 298.501C86.6938 297.162 86.5214 296.641 86.486 295.204C86.4578 294.062 86.8269 293.016 87.2063 291.939L87.2178 291.907C87.6934 290.557 88.9334 289.368 90.1452 288.609C91.5001 287.762 92.2236 288.108 93.8045 287.877C95.085 287.689 97.0978 288.243 97.0978 288.243C97.0978 288.243 95.8709 268.824 95.2674 256.371H289.953C268.115 277.179 237.979 297.404 237.979 297.404Z"  />
<path d="M443.998 1.01317C344.466 0.982645 101.49 1.01475 101.49 1.01475C101.49 1.01475 99.5805 7.86353 99.2952 12.3721C98.9689 17.5302 100.393 25.5612 100.393 25.5612L101.49 25.9276V29.2248H100.027L95.2693 83.4468C95.2693 83.4468 92.0003 188.919 95.2693 256.371H289.955C293.818 252.689 297.423 248.989 300.554 245.38C344.1 195.186 364.896 166.395 396.061 110.558C416.919 73.1867 451.317 1.01541 443.998 1.01317Z"  />
<path d="M706.021 297.404C706.021 297.404 756.153 327.08 787.257 330.743C793.36 331.462 800.43 331.84 800.43 331.84C800.43 331.84 799.818 331.66 797.868 340.633C795.783 350.23 794.107 369.722 791.648 404.749C789.626 433.564 784.695 455.673 784.695 478.388C784.695 481.728 791.648 482.784 791.648 482.784V499.271C791.648 503.301 804.456 505.133 804.456 505.133L820.556 506.232L833.73 508.064H845.805C845.805 508.064 855.966 510.957 862.638 510.995C868.115 511.026 877.641 510.995 878.373 508.796C878.734 507.71 878.739 506.232 878.739 506.232C878.739 506.232 899.815 507.793 912.77 504.766C918.44 503.442 925.943 501.253 932.529 500.004C938.692 498.834 944.19 498.642 942.776 496.34C941.633 494.48 940.214 493.409 940.214 493.409C940.214 493.409 939.604 490.734 936.92 490.478C913.867 488.28 908.024 488.646 886.056 488.646C864.467 488.646 858.612 434.058 853.855 395.956C849.543 361.424 850.171 320.484 846.031 301.339C846.165 301.503 846.331 301.66 846.536 301.798C847.515 302.457 849.314 302.63 850.196 302.531C851.466 302.389 852.749 302.441 853.855 301.798C855.364 300.922 856.146 300.127 856.782 298.501C857.306 297.162 857.479 296.641 857.514 295.204C857.542 294.062 857.173 293.016 856.794 291.939L856.782 291.907C856.307 290.557 855.067 289.368 853.855 288.609C852.5 287.762 851.776 288.108 850.196 287.877C848.915 287.689 846.902 288.243 846.902 288.243C846.902 288.243 848.129 268.824 848.733 256.371H654.047C675.885 277.179 706.021 297.404 706.021 297.404Z"  />
<path d="M500.002 1.01317C599.534 0.982645 842.51 1.01475 842.51 1.01475C842.51 1.01475 844.42 7.86353 844.705 12.3721C845.031 17.5302 843.607 25.5612 843.607 25.5612L842.51 25.9276V29.2248H843.973L848.731 83.4468C848.731 83.4468 852 188.919 848.731 256.371H654.045C650.182 252.689 646.577 248.989 643.446 245.38C599.9 195.186 579.104 166.395 547.939 110.558C527.081 73.1867 492.683 1.01541 500.002 1.01317Z"  />
<path d="M634.979 297.404C634.979 297.404 584.847 327.08 553.743 330.743C547.64 331.462 540.57 331.84 540.57 331.84C540.57 331.84 541.182 331.66 543.132 340.633C545.217 350.23 546.893 369.722 549.352 404.749C551.374 433.564 556.305 455.673 556.305 478.388C556.305 481.728 549.352 482.784 549.352 482.784V499.271C549.352 503.301 536.544 505.133 536.544 505.133L520.444 506.232L507.27 508.064H495.195C495.195 508.064 485.034 510.957 478.362 510.995C472.885 511.026 463.359 510.995 462.627 508.796C462.266 507.71 462.261 506.232 462.261 506.232C462.261 506.232 441.185 507.793 428.23 504.766C422.56 503.442 415.057 501.253 408.471 500.004C402.308 498.834 396.81 498.642 398.224 496.34C399.367 494.48 400.786 493.409 400.786 493.409C400.786 493.409 401.396 490.734 404.08 490.478C427.133 488.28 432.976 488.646 454.944 488.646C476.533 488.646 482.388 434.058 487.145 395.956C491.457 361.424 490.829 320.484 494.969 301.339C494.835 301.503 494.669 301.66 494.464 301.798C493.485 302.457 491.686 302.63 490.804 302.531C489.534 302.389 488.251 302.441 487.145 301.798C485.636 300.922 484.854 300.127 484.218 298.501C483.694 297.162 483.521 296.641 483.486 295.204C483.458 294.062 483.827 293.016 484.206 291.939L484.218 291.907C484.693 290.557 485.933 289.368 487.145 288.609C488.5 287.762 489.224 288.108 490.804 287.877C492.085 287.689 494.098 288.243 494.098 288.243C494.098 288.243 492.871 268.824 492.267 256.371H686.953C665.115 277.179 634.979 297.404 634.979 297.404Z"  />
<path d="M840.998 1.01317C741.466 0.982645 498.49 1.01475 498.49 1.01475C498.49 1.01475 496.58 7.86353 496.295 12.3721C495.969 17.5302 497.393 25.5612 497.393 25.5612L498.49 25.9276V29.2248H497.027L492.269 83.4468C492.269 83.4468 489 188.919 492.269 256.371H686.955C690.818 252.689 694.423 248.989 697.554 245.38C741.1 195.186 761.896 166.395 793.061 110.558C813.919 73.1867 848.317 1.01541 840.998 1.01317Z"  />
</svg>
