<svg width="944" height="512" viewBox="0 0 944 512" fill="none" xmlns="http://www.w3.org/2000/svg">
<path d="M150.941 110.558C130.083 73.1866 95.6849 1.01533 103.004 1.01308C132.119 1.00415 173.509 1.00058 217.5 1L236 83.4467L301.5 203.5L382.5 291.906L421 331.84L415.506 505.682L407.456 505.132C407.456 505.132 394.648 503.3 394.648 499.27V482.784C394.648 482.784 387.695 481.728 387.695 478.388C387.695 455.673 392.626 433.563 394.648 404.748C397.107 369.722 398.783 350.23 400.868 340.633C402.818 331.66 403.43 331.84 403.43 331.84C403.43 331.84 396.36 331.462 390.257 330.743C359.153 327.079 309.021 297.404 309.021 297.404C309.021 297.404 267.277 269.389 246.448 245.38C202.902 195.186 182.106 166.395 150.941 110.558Z"  />
<path d="M436.73 508.063L423.557 506.231L415.507 505.682L421.001 331.84L382.501 291.906L301.501 203.5L236.001 83.4468L217.501 1.00009C254.76 0.999594 293.885 1.00124 329.001 1.0036L342.001 83.4468L371.501 203.5L407.456 287.876L436.73 331.84V508.063Z"  />
<path d="M436.73 508.064H448.805C448.805 508.064 458.966 510.957 465.638 510.995C471.115 511.026 480.641 510.995 481.373 508.796C481.734 507.71 481.739 506.232 481.739 506.232C481.739 506.232 502.815 507.793 515.77 504.766C521.44 503.441 528.943 501.253 535.529 500.004C541.692 498.834 547.19 498.642 545.776 496.34C544.633 494.48 543.214 493.409 543.214 493.409C543.214 493.409 542.604 490.734 539.92 490.478C516.867 488.28 511.024 488.646 489.056 488.646C467.467 488.646 461.612 434.058 456.855 395.956C452.543 361.424 453.171 320.484 449.031 301.339C449.165 301.503 449.331 301.66 449.536 301.798C450.515 302.457 452.314 302.63 453.196 302.531C454.466 302.389 455.749 302.441 456.855 301.798C458.364 300.922 459.146 300.127 459.782 298.501C460.306 297.162 460.479 296.641 460.514 295.204C460.542 294.062 460.173 293.015 459.794 291.939L459.782 291.907C459.307 290.557 458.067 289.368 456.855 288.609C455.5 287.762 454.776 288.108 453.196 287.877C451.915 287.689 449.902 288.243 449.902 288.243C449.902 288.243 451.129 268.824 451.733 256.371C455.002 188.919 451.733 83.4471 451.733 83.4471L446.975 29.2251H445.512V25.9279L446.609 25.5615C446.609 25.5615 448.033 17.5305 447.707 12.3724C447.421 7.86384 445.512 1.01506 445.512 1.01506C445.512 1.01506 394.159 1.00827 329 1.00391L342 83.4471L371.5 203.5L407.456 287.877L436.73 331.84V508.064Z"  />
<path d="M396.059 110.558C416.917 73.1866 451.315 1.01533 443.996 1.01308C414.881 1.00415 373.491 1.00058 329.5 1L311 83.4467L245.5 203.5L164.5 291.906L126 331.84L131.494 505.682L139.544 505.132C139.544 505.132 152.352 503.3 152.352 499.27V482.784C152.352 482.784 159.305 481.728 159.305 478.388C159.305 455.673 154.374 433.563 152.352 404.748C149.893 369.722 148.217 350.23 146.132 340.633C144.182 331.66 143.57 331.84 143.57 331.84C143.57 331.84 150.64 331.462 156.743 330.743C187.847 327.079 237.979 297.404 237.979 297.404C237.979 297.404 279.723 269.389 300.552 245.38C344.098 195.186 364.894 166.395 396.059 110.558Z"  />
<path d="M110.27 508.063L123.443 506.231L131.493 505.682L125.999 331.84L164.499 291.906L245.499 203.5L310.999 83.4468L329.499 1.00009C292.24 0.999594 253.115 1.00124 217.999 1.0036L204.999 83.4468L175.499 203.5L139.544 287.876L110.27 331.84V508.063Z"  />
<path d="M110.27 508.064H98.1948C98.1948 508.064 88.0343 510.957 81.3622 510.995C75.8852 511.026 66.3592 510.995 65.6274 508.796C65.2658 507.71 65.2614 506.232 65.2614 506.232C65.2614 506.232 44.1846 507.793 31.2303 504.766C25.5597 503.441 18.0574 501.253 11.4711 500.004C5.30751 498.834 -0.190395 498.642 1.22437 496.34C2.36736 494.48 3.78583 493.409 3.78583 493.409C3.78583 493.409 4.39554 490.734 7.07994 490.478C30.1333 488.28 35.9759 488.646 57.9437 488.646C79.5333 488.646 85.3882 434.058 90.1452 395.956C94.4565 361.424 93.8285 320.484 97.9689 301.339C97.8355 301.503 97.6691 301.66 97.4637 301.798C96.4846 302.457 94.6859 302.63 93.8045 302.531C92.5343 302.389 91.2507 302.441 90.1452 301.798C88.6365 300.922 87.8543 300.127 87.2178 298.501C86.6938 297.162 86.5214 296.641 86.486 295.204C86.4578 294.062 86.8269 293.015 87.2063 291.939L87.2178 291.907C87.6934 290.557 88.9334 289.368 90.1452 288.609C91.5001 287.762 92.2236 288.108 93.8045 287.877C95.085 287.689 97.0978 288.243 97.0978 288.243C97.0978 288.243 95.8709 268.824 95.2674 256.371C91.9984 188.919 95.2674 83.4471 95.2674 83.4471L100.025 29.2251H101.488V25.9279L100.391 25.5615C100.391 25.5615 98.967 17.5305 99.2934 12.3724C99.5786 7.86384 101.488 1.01506 101.488 1.01506C101.488 1.01506 152.841 1.00827 218 1.00391L205 83.4471L175.5 203.5L139.544 287.877L110.27 331.84V508.064Z"  />
<path d="M547.941 110.558C527.083 73.1866 492.685 1.01533 500.004 1.01308C529.119 1.00415 570.509 1.00058 614.5 1L633 83.4467L698.5 203.5L779.5 291.906L818 331.84L812.506 505.682L804.456 505.132C804.456 505.132 791.648 503.3 791.648 499.27V482.784C791.648 482.784 784.695 481.728 784.695 478.388C784.695 455.673 789.626 433.563 791.648 404.748C794.107 369.722 795.783 350.23 797.868 340.633C799.818 331.66 800.43 331.84 800.43 331.84C800.43 331.84 793.36 331.462 787.257 330.743C756.153 327.079 706.021 297.404 706.021 297.404C706.021 297.404 664.277 269.389 643.448 245.38C599.902 195.186 579.106 166.395 547.941 110.558Z"  />
<path d="M833.73 508.063L820.557 506.231L812.507 505.682L818.001 331.84L779.501 291.906L698.501 203.5L633.001 83.4468L614.501 1.00009C651.76 0.999594 690.885 1.00124 726.001 1.0036L739.001 83.4468L768.501 203.5L804.456 287.876L833.73 331.84V508.063Z"  />
<path d="M833.73 508.064H845.805C845.805 508.064 855.966 510.957 862.638 510.995C868.115 511.026 877.641 510.995 878.373 508.796C878.734 507.71 878.739 506.232 878.739 506.232C878.739 506.232 899.815 507.793 912.77 504.766C918.44 503.441 925.943 501.253 932.529 500.004C938.692 498.834 944.19 498.642 942.776 496.34C941.633 494.48 940.214 493.409 940.214 493.409C940.214 493.409 939.604 490.734 936.92 490.478C913.867 488.28 908.024 488.646 886.056 488.646C864.467 488.646 858.612 434.058 853.855 395.956C849.543 361.424 850.171 320.484 846.031 301.339C846.165 301.503 846.331 301.66 846.536 301.798C847.515 302.457 849.314 302.63 850.196 302.531C851.466 302.389 852.749 302.441 853.855 301.798C855.364 300.922 856.146 300.127 856.782 298.501C857.306 297.162 857.479 296.641 857.514 295.204C857.542 294.062 857.173 293.015 856.794 291.939L856.782 291.907C856.307 290.557 855.067 289.368 853.855 288.609C852.5 287.762 851.776 288.108 850.196 287.877C848.915 287.689 846.902 288.243 846.902 288.243C846.902 288.243 848.129 268.824 848.733 256.371C852.002 188.919 848.733 83.4471 848.733 83.4471L843.975 29.2251H842.512V25.9279L843.609 25.5615C843.609 25.5615 845.033 17.5305 844.707 12.3724C844.421 7.86384 842.512 1.01506 842.512 1.01506C842.512 1.01506 791.159 1.00827 726 1.00391L739 83.4471L768.5 203.5L804.456 287.877L833.73 331.84V508.064Z"  />
<path d="M793.059 110.558C813.917 73.1866 848.315 1.01533 840.996 1.01308C811.881 1.00415 770.491 1.00058 726.5 1L708 83.4467L642.5 203.5L561.5 291.906L523 331.84L528.494 505.682L536.544 505.132C536.544 505.132 549.352 503.3 549.352 499.27V482.784C549.352 482.784 556.305 481.728 556.305 478.388C556.305 455.673 551.374 433.563 549.352 404.748C546.893 369.722 545.217 350.23 543.132 340.633C541.182 331.66 540.57 331.84 540.57 331.84C540.57 331.84 547.64 331.462 553.743 330.743C584.847 327.079 634.979 297.404 634.979 297.404C634.979 297.404 676.723 269.389 697.552 245.38C741.098 195.186 761.894 166.395 793.059 110.558Z"  />
<path d="M507.27 508.063L520.443 506.231L528.493 505.682L522.999 331.84L561.499 291.906L642.499 203.5L707.999 83.4468L726.499 1.00009C689.24 0.999594 650.115 1.00124 614.999 1.0036L601.999 83.4468L572.499 203.5L536.544 287.876L507.27 331.84V508.063Z"  />
<path d="M507.27 508.064H495.195C495.195 508.064 485.034 510.957 478.362 510.995C472.885 511.026 463.359 510.995 462.627 508.796C462.266 507.71 462.261 506.232 462.261 506.232C462.261 506.232 441.185 507.793 428.23 504.766C422.56 503.441 415.057 501.253 408.471 500.004C402.308 498.834 396.81 498.642 398.224 496.34C399.367 494.48 400.786 493.409 400.786 493.409C400.786 493.409 401.396 490.734 404.08 490.478C427.133 488.28 432.976 488.646 454.944 488.646C476.533 488.646 482.388 434.058 487.145 395.956C491.457 361.424 490.829 320.484 494.969 301.339C494.835 301.503 494.669 301.66 494.464 301.798C493.485 302.457 491.686 302.63 490.804 302.531C489.534 302.389 488.251 302.441 487.145 301.798C485.636 300.922 484.854 300.127 484.218 298.501C483.694 297.162 483.521 296.641 483.486 295.204C483.458 294.062 483.827 293.015 484.206 291.939L484.218 291.907C484.693 290.557 485.933 289.368 487.145 288.609C488.5 287.762 489.224 288.108 490.804 287.877C492.085 287.689 494.098 288.243 494.098 288.243C494.098 288.243 492.871 268.824 492.267 256.371C488.998 188.919 492.267 83.4471 492.267 83.4471L497.025 29.2251H498.488V25.9279L497.391 25.5615C497.391 25.5615 495.967 17.5305 496.293 12.3724C496.579 7.86384 498.488 1.01506 498.488 1.01506C498.488 1.01506 549.841 1.00827 615 1.00391L602 83.4471L572.5 203.5L536.544 287.877L507.27 331.84V508.064Z"  />
</svg>
