<svg width="944" height="512" viewBox="0 0 944 512" fill="none" xmlns="http://www.w3.org/2000/svg">
<path d="M150.943 110.558C130.084 73.1867 95.6865 1.01541 103.006 1.01317C146.079 0.999959 216.018 0.998478 281.502 1.00105L291.002 60.5L324.502 146.5L367.002 230L407.457 291.906L428.502 331.84L430.145 507.147L423.558 506.231L407.457 505.132C407.457 505.132 394.65 503.301 394.65 499.271V482.784C394.65 482.784 387.697 481.728 387.697 478.388C387.697 455.673 392.627 433.564 394.65 404.748C397.108 369.722 398.784 350.23 400.87 340.633C402.819 331.66 403.431 331.84 403.431 331.84C403.431 331.84 396.361 331.462 390.259 330.743C359.155 327.079 309.023 297.404 309.023 297.404C309.023 297.404 267.279 269.389 246.45 245.38C202.904 195.186 182.108 166.395 150.943 110.558Z"  />
<path d="M436.73 508.064H448.805C448.805 508.064 458.966 510.957 465.638 510.995C471.115 511.026 480.641 510.995 481.373 508.797C481.734 507.711 481.739 506.232 481.739 506.232C481.739 506.232 502.815 507.793 515.77 504.767C521.44 503.442 528.943 501.254 535.529 500.004C541.692 498.835 547.19 498.643 545.776 496.341C544.633 494.48 543.214 493.41 543.214 493.41C543.214 493.41 542.604 490.735 539.92 490.479C516.867 488.281 511.024 488.647 489.056 488.647C467.467 488.647 461.612 434.059 456.855 395.957C452.543 361.425 453.171 320.484 449.031 301.339C449.165 301.503 449.331 301.661 449.536 301.799C450.515 302.458 452.314 302.631 453.196 302.532C454.466 302.389 455.749 302.441 456.855 301.799C458.364 300.922 459.146 300.128 459.782 298.502C460.306 297.163 460.479 296.642 460.514 295.205C460.542 294.063 460.173 293.016 459.794 291.94L459.782 291.907C459.307 290.558 458.067 289.368 456.855 288.61C455.5 287.762 454.776 288.109 453.196 287.877C451.915 287.69 449.902 288.244 449.902 288.244C449.902 288.244 451.129 268.825 451.733 256.372C455.002 188.92 451.733 83.4477 451.733 83.4477L446.975 29.2257H445.512V25.9285L446.609 25.5621C446.609 25.5621 448.033 17.5311 447.707 12.373C447.421 7.86444 445.512 1.01565 445.512 1.01565C445.512 1.01565 367.332 1.00532 281.5 1.00195L291 60.5009L324.5 146.501L367 230.001L407.456 291.907L428.5 331.841L430.143 507.148L436.73 508.064Z"  />
<path d="M396.057 110.558C416.916 73.1867 451.314 1.01541 443.994 1.01317C400.921 0.999959 330.982 0.998478 265.498 1.00105L255.998 60.5L222.498 146.5L179.998 230L139.543 291.906L118.498 331.84L116.855 507.147L123.442 506.231L139.543 505.132C139.543 505.132 152.35 503.301 152.35 499.271V482.784C152.35 482.784 159.303 481.728 159.303 478.388C159.303 455.673 154.373 433.564 152.35 404.748C149.892 369.722 148.216 350.23 146.13 340.633C144.181 331.66 143.569 331.84 143.569 331.84C143.569 331.84 150.639 331.462 156.741 330.743C187.845 327.079 237.977 297.404 237.977 297.404C237.977 297.404 279.721 269.389 300.55 245.38C344.096 195.186 364.892 166.395 396.057 110.558Z"  />
<path d="M110.27 508.064H98.1948C98.1948 508.064 88.0343 510.957 81.3622 510.995C75.8852 511.026 66.3592 510.995 65.6274 508.797C65.2658 507.711 65.2614 506.232 65.2614 506.232C65.2614 506.232 44.1846 507.793 31.2303 504.767C25.5597 503.442 18.0574 501.254 11.4711 500.004C5.30751 498.835 -0.190395 498.643 1.22437 496.341C2.36736 494.48 3.78583 493.41 3.78583 493.41C3.78583 493.41 4.39554 490.735 7.07994 490.479C30.1333 488.281 35.9759 488.647 57.9437 488.647C79.5333 488.647 85.3882 434.059 90.1452 395.957C94.4565 361.425 93.8285 320.484 97.9689 301.339C97.8355 301.503 97.6691 301.661 97.4637 301.799C96.4846 302.458 94.6859 302.631 93.8045 302.532C92.5343 302.389 91.2507 302.441 90.1452 301.799C88.6365 300.922 87.8543 300.128 87.2178 298.502C86.6938 297.163 86.5214 296.642 86.486 295.205C86.4578 294.063 86.8269 293.016 87.2063 291.94L87.2178 291.907C87.6934 290.558 88.9334 289.368 90.1452 288.61C91.5001 287.762 92.2236 288.109 93.8045 287.877C95.085 287.69 97.0978 288.244 97.0978 288.244C97.0978 288.244 95.8709 268.825 95.2674 256.372C91.9984 188.92 95.2674 83.4477 95.2674 83.4477L100.025 29.2257H101.488V25.9285L100.391 25.5621C100.391 25.5621 98.967 17.5311 99.2934 12.373C99.5786 7.86444 101.488 1.01565 101.488 1.01565C101.488 1.01565 179.668 1.00532 265.5 1.00195L256 60.5009L222.5 146.501L180 230.001L139.544 291.907L118.5 331.841L116.857 507.148L110.27 508.064Z"  />
<path d="M547.943 110.558C527.084 73.1867 492.686 1.01541 500.006 1.01317C543.079 0.999959 613.018 0.998478 678.502 1.00105L688.002 60.5L721.502 146.5L764.002 230L804.457 291.906L825.502 331.84L827.145 507.147L820.558 506.231L804.457 505.132C804.457 505.132 791.65 503.301 791.65 499.271V482.784C791.65 482.784 784.697 481.728 784.697 478.388C784.697 455.673 789.627 433.564 791.65 404.748C794.108 369.722 795.784 350.23 797.87 340.633C799.819 331.66 800.431 331.84 800.431 331.84C800.431 331.84 793.361 331.462 787.259 330.743C756.155 327.079 706.023 297.404 706.023 297.404C706.023 297.404 664.279 269.389 643.45 245.38C599.904 195.186 579.108 166.395 547.943 110.558Z"  />
<path d="M833.73 508.064H845.805C845.805 508.064 855.966 510.957 862.638 510.995C868.115 511.026 877.641 510.995 878.373 508.797C878.734 507.711 878.739 506.232 878.739 506.232C878.739 506.232 899.815 507.793 912.77 504.767C918.44 503.442 925.943 501.254 932.529 500.004C938.692 498.835 944.19 498.643 942.776 496.341C941.633 494.48 940.214 493.41 940.214 493.41C940.214 493.41 939.604 490.735 936.92 490.479C913.867 488.281 908.024 488.647 886.056 488.647C864.467 488.647 858.612 434.059 853.855 395.957C849.543 361.425 850.171 320.484 846.031 301.339C846.165 301.503 846.331 301.661 846.536 301.799C847.515 302.458 849.314 302.631 850.196 302.532C851.466 302.389 852.749 302.441 853.855 301.799C855.364 300.922 856.146 300.128 856.782 298.502C857.306 297.163 857.479 296.642 857.514 295.205C857.542 294.063 857.173 293.016 856.794 291.94L856.782 291.907C856.307 290.558 855.067 289.368 853.855 288.61C852.5 287.762 851.776 288.109 850.196 287.877C848.915 287.69 846.902 288.244 846.902 288.244C846.902 288.244 848.129 268.825 848.733 256.372C852.002 188.92 848.733 83.4477 848.733 83.4477L843.975 29.2257H842.512V25.9285L843.609 25.5621C843.609 25.5621 845.033 17.5311 844.707 12.373C844.421 7.86444 842.512 1.01565 842.512 1.01565C842.512 1.01565 764.332 1.00532 678.5 1.00195L688 60.5009L721.5 146.501L764 230.001L804.456 291.907L825.5 331.841L827.143 507.148L833.73 508.064Z"  />
<path d="M793.057 110.558C813.916 73.1867 848.314 1.01541 840.994 1.01317C797.921 0.999959 727.982 0.998478 662.498 1.00105L652.998 60.5L619.498 146.5L576.998 230L536.543 291.906L515.498 331.84L513.855 507.147L520.442 506.231L536.543 505.132C536.543 505.132 549.35 503.301 549.35 499.271V482.784C549.35 482.784 556.303 481.728 556.303 478.388C556.303 455.673 551.373 433.564 549.35 404.748C546.892 369.722 545.216 350.23 543.13 340.633C541.181 331.66 540.569 331.84 540.569 331.84C540.569 331.84 547.639 331.462 553.741 330.743C584.845 327.079 634.977 297.404 634.977 297.404C634.977 297.404 676.721 269.389 697.55 245.38C741.096 195.186 761.892 166.395 793.057 110.558Z"  />
<path d="M507.27 508.064H495.195C495.195 508.064 485.034 510.957 478.362 510.995C472.885 511.026 463.359 510.995 462.627 508.797C462.266 507.711 462.261 506.232 462.261 506.232C462.261 506.232 441.185 507.793 428.23 504.767C422.56 503.442 415.057 501.254 408.471 500.004C402.308 498.835 396.81 498.643 398.224 496.341C399.367 494.48 400.786 493.41 400.786 493.41C400.786 493.41 401.396 490.735 404.08 490.479C427.133 488.281 432.976 488.647 454.944 488.647C476.533 488.647 482.388 434.059 487.145 395.957C491.457 361.425 490.829 320.484 494.969 301.339C494.835 301.503 494.669 301.661 494.464 301.799C493.485 302.458 491.686 302.631 490.804 302.532C489.534 302.389 488.251 302.441 487.145 301.799C485.636 300.922 484.854 300.128 484.218 298.502C483.694 297.163 483.521 296.642 483.486 295.205C483.458 294.063 483.827 293.016 484.206 291.94L484.218 291.907C484.693 290.558 485.933 289.368 487.145 288.61C488.5 287.762 489.224 288.109 490.804 287.877C492.085 287.69 494.098 288.244 494.098 288.244C494.098 288.244 492.871 268.825 492.267 256.372C488.998 188.92 492.267 83.4477 492.267 83.4477L497.025 29.2257H498.488V25.9285L497.391 25.5621C497.391 25.5621 495.967 17.5311 496.293 12.373C496.579 7.86444 498.488 1.01565 498.488 1.01565C498.488 1.01565 576.668 1.00532 662.5 1.00195L653 60.5009L619.5 146.501L577 230.001L536.544 291.907L515.5 331.841L513.857 507.148L507.27 508.064Z"  />
</svg>
