<svg width="469" height="231" viewBox="0 0 469 231" fill="none" xmlns="http://www.w3.org/2000/svg">
<path d="M3.60548 101.83L3.60532 101.833L3.29202 108.774L2.51983 125.88V125.881L2.52011 138.1L2.52003 138.102L1.92768 152.766L1.92763 152.767C1.73426 156.269 1.44651 159.993 1.15105 163.817C0.700238 169.65 0.231472 175.717 0.0525946 181.585C0.043755 181.875 0.0551908 182.191 0.123377 182.481C0.191567 182.771 0.31554 183.03 0.528659 183.21C0.637967 183.302 0.793409 183.368 0.96939 183.415C1.1447 183.462 1.33645 183.488 1.515 183.502C1.69337 183.516 1.85741 183.517 1.97691 183.516C2.03662 183.515 2.08512 183.513 2.11862 183.511L2.15711 183.509L2.16701 183.509L2.16947 183.508L2.17006 183.508L2.17021 183.508L2.2216 183.505L2.22372 183.556C2.33585 186.282 2.19528 190.055 2.05591 193.795C2.01036 195.017 1.96494 196.236 1.92851 197.414C1.85453 199.806 1.8176 202.028 1.89158 203.769C1.92858 204.639 1.99327 205.387 2.09457 205.976C2.19634 206.566 2.33373 206.986 2.51023 207.208C2.63297 207.362 2.81754 207.464 3.03071 207.527C3.24366 207.591 3.48126 207.616 3.70478 207.621C3.92802 207.625 4.13536 207.61 4.28703 207.593C4.3628 207.584 4.42453 207.576 4.46721 207.569C4.48855 207.566 4.50513 207.563 4.5163 207.561L4.52895 207.559L4.53208 207.558L4.53283 207.558L4.533 207.558L4.53302 207.558L4.59108 207.547L4.59229 207.606C4.73288 214.442 4.16095 219.636 3.74811 223.385C3.72235 223.619 3.69721 223.848 3.6729 224.07C3.46583 225.968 3.31956 227.457 3.36325 228.571C3.40702 229.688 3.64108 230.412 4.17674 230.798C4.18179 230.802 4.19718 230.809 4.22964 230.818C4.26042 230.826 4.30163 230.834 4.35371 230.841C4.45776 230.856 4.6014 230.87 4.78399 230.882C5.14897 230.905 5.66596 230.922 6.3254 230.934C7.6441 230.956 9.52986 230.954 11.9028 230.935C16.6485 230.896 23.3411 230.785 31.3391 230.649C31.9554 230.638 32.5794 230.627 33.2109 230.617C48.97 230.348 69.3726 230 89.8556 229.907C104.749 229.84 119.686 229.911 132.826 229.973C138.329 229.999 143.518 230.023 148.256 230.036C156.282 230.056 163.016 230.042 167.801 229.94C170.194 229.889 172.099 229.817 173.435 229.715C174.103 229.665 174.627 229.607 174.999 229.542C175.184 229.509 175.33 229.475 175.436 229.44C175.489 229.422 175.531 229.404 175.562 229.386C175.594 229.369 175.611 229.353 175.62 229.341C176.08 228.693 176.284 227.673 176.322 226.415C176.36 225.158 176.232 223.673 176.036 222.1C175.894 220.964 175.717 219.782 175.54 218.61C175.229 216.54 174.922 214.5 174.825 212.791C174.753 211.532 174.682 209.918 174.629 208.62C174.603 207.971 174.581 207.4 174.565 206.992C174.558 206.788 174.552 206.624 174.548 206.512L174.543 206.383L174.542 206.349L174.542 206.341L174.541 206.339L174.541 206.338L174.541 206.338L174.539 206.281L174.596 206.286L174.596 206.286L174.597 206.286L174.6 206.287L174.611 206.288L174.656 206.291C174.694 206.294 174.75 206.298 174.819 206.301C174.955 206.308 175.143 206.315 175.344 206.312C175.546 206.309 175.761 206.297 175.955 206.267C176.149 206.237 176.315 206.189 176.423 206.12C176.516 206.06 176.599 205.949 176.669 205.783C176.739 205.617 176.795 205.402 176.837 205.14C176.922 204.617 176.953 203.917 176.944 203.081C176.925 201.409 176.746 199.202 176.524 196.79C176.462 196.114 176.396 195.421 176.329 194.719C175.922 190.424 175.483 185.805 175.611 182.56L175.613 182.506L175.666 182.513L175.667 182.513L175.667 182.513L175.67 182.513L175.681 182.514C175.69 182.515 175.705 182.517 175.723 182.518C175.76 182.521 175.813 182.526 175.879 182.529C176.011 182.537 176.192 182.542 176.39 182.533C176.588 182.524 176.802 182.502 176.999 182.454C177.198 182.407 177.376 182.335 177.505 182.23C177.562 182.183 177.618 182.094 177.669 181.955C177.719 181.818 177.762 181.638 177.798 181.419C177.871 180.98 177.915 180.388 177.936 179.668C177.977 178.227 177.925 176.279 177.82 174.033C177.696 171.373 177.498 168.298 177.296 165.154C177.157 162.988 177.015 160.789 176.894 158.672V158.669C176.896 154.884 176.776 150.823 176.663 146.968C176.599 144.766 176.536 142.63 176.499 140.652C176.449 137.972 176.46 135.257 176.471 132.608C176.473 132.345 176.474 132.082 176.475 131.82C176.486 128.922 176.49 126.117 176.404 123.535L176.404 123.534C176.375 120.374 176.355 117.498 176.336 114.845C176.29 108.192 176.254 102.941 176.107 98.1175V98.116L176.107 0.0500031H2.71778L3.30955 89.3166L3.30956 89.3174L3.60548 101.83Z"  />
<path d="M294.605 101.83L294.605 101.833L294.292 108.774L293.52 125.88V125.881L293.52 138.1L293.52 138.102L292.928 152.766L292.928 152.767C292.734 156.269 292.447 159.993 292.151 163.817C291.7 169.65 291.231 175.717 291.053 181.585C291.044 181.875 291.055 182.191 291.123 182.481C291.192 182.771 291.316 183.03 291.529 183.21C291.638 183.302 291.793 183.368 291.969 183.415C292.145 183.462 292.336 183.488 292.515 183.502C292.693 183.516 292.857 183.517 292.977 183.516C293.037 183.515 293.085 183.513 293.119 183.511L293.157 183.509L293.167 183.509L293.169 183.508L293.17 183.508L293.17 183.508L293.222 183.505L293.224 183.556C293.336 186.282 293.195 190.055 293.056 193.795C293.01 195.017 292.965 196.236 292.929 197.414C292.855 199.806 292.818 202.028 292.892 203.769C292.929 204.639 292.993 205.387 293.095 205.976C293.196 206.566 293.334 206.986 293.51 207.208C293.633 207.362 293.818 207.464 294.031 207.527C294.244 207.591 294.481 207.616 294.705 207.621C294.928 207.625 295.135 207.61 295.287 207.593C295.363 207.584 295.425 207.576 295.467 207.569C295.489 207.566 295.505 207.563 295.516 207.561L295.529 207.559L295.532 207.558L295.533 207.558L295.533 207.558L295.533 207.558L295.591 207.547L295.592 207.606C295.733 214.442 295.161 219.636 294.748 223.385C294.722 223.619 294.697 223.848 294.673 224.07C294.466 225.968 294.32 227.457 294.363 228.571C294.407 229.688 294.641 230.412 295.177 230.798C295.182 230.802 295.197 230.809 295.23 230.818C295.26 230.826 295.302 230.834 295.354 230.841C295.458 230.856 295.601 230.87 295.784 230.882C296.149 230.905 296.666 230.922 297.325 230.934C298.644 230.956 300.53 230.954 302.903 230.935C307.648 230.896 314.341 230.785 322.339 230.649C322.955 230.638 323.579 230.627 324.211 230.617C339.97 230.348 360.373 230 380.856 229.907C395.749 229.84 410.686 229.911 423.826 229.973C429.329 229.999 434.518 230.023 439.256 230.036C447.282 230.056 454.016 230.042 458.801 229.94C461.194 229.889 463.099 229.817 464.435 229.715C465.103 229.665 465.627 229.607 465.999 229.542C466.184 229.509 466.33 229.475 466.436 229.44C466.489 229.422 466.531 229.404 466.562 229.386C466.594 229.369 466.611 229.353 466.62 229.341C467.08 228.693 467.284 227.673 467.322 226.415C467.36 225.158 467.232 223.673 467.036 222.1C466.894 220.964 466.717 219.782 466.54 218.61C466.229 216.54 465.922 214.5 465.825 212.791C465.753 211.532 465.682 209.918 465.629 208.62C465.603 207.971 465.581 207.4 465.565 206.992C465.558 206.788 465.552 206.624 465.548 206.512L465.543 206.383L465.542 206.349L465.542 206.341L465.541 206.339L465.541 206.338L465.541 206.338L465.539 206.281L465.596 206.286L465.596 206.286L465.597 206.286L465.6 206.287L465.611 206.288L465.656 206.291C465.694 206.294 465.75 206.298 465.819 206.301C465.955 206.308 466.143 206.315 466.344 206.312C466.546 206.309 466.761 206.297 466.955 206.267C467.149 206.237 467.315 206.189 467.423 206.12C467.516 206.06 467.599 205.949 467.669 205.783C467.739 205.617 467.795 205.402 467.837 205.14C467.922 204.617 467.953 203.917 467.944 203.081C467.925 201.409 467.746 199.202 467.524 196.79C467.462 196.114 467.396 195.421 467.329 194.719C466.922 190.424 466.483 185.805 466.611 182.56L466.613 182.506L466.666 182.513L466.667 182.513L466.667 182.513L466.67 182.513L466.681 182.514C466.69 182.515 466.705 182.517 466.723 182.518C466.76 182.521 466.813 182.526 466.879 182.529C467.011 182.537 467.192 182.542 467.39 182.533C467.588 182.524 467.802 182.502 467.999 182.454C468.198 182.407 468.376 182.335 468.505 182.23C468.562 182.183 468.618 182.094 468.669 181.955C468.719 181.818 468.762 181.638 468.798 181.419C468.871 180.98 468.915 180.388 468.936 179.668C468.977 178.227 468.925 176.279 468.82 174.033C468.696 171.373 468.498 168.298 468.296 165.154C468.157 162.988 468.015 160.789 467.894 158.672V158.669C467.896 154.884 467.776 150.823 467.663 146.968C467.599 144.766 467.536 142.63 467.499 140.652C467.449 137.972 467.46 135.257 467.471 132.608C467.473 132.345 467.474 132.082 467.475 131.82C467.486 128.922 467.49 126.117 467.404 123.535L467.404 123.534C467.375 120.374 467.355 117.498 467.336 114.845C467.29 108.192 467.254 102.941 467.107 98.1175V98.116L467.107 0.0500031H293.718L294.31 89.3166L294.31 89.3174L294.605 101.83Z"  />
</svg>
