<svg width="279" height="231" viewBox="0 0 279 231" fill="none" xmlns="http://www.w3.org/2000/svg">
<symbol id="left-1"  width="279" height="231" viewBox="0 0 279 231">
<path d="M5.62272 101.829L5.62301 101.829L5.62263 101.835L5.13154 108.775L3.92125 125.882L3.92173 138.1L3.92153 138.103L2.99307 152.767L2.99297 152.768C2.69001 156.269 2.23897 159.993 1.77589 163.817C1.65407 164.823 1.53141 165.835 1.4104 166.853C0.829312 171.738 0.286016 176.731 0.0540463 181.585C0.0263924 182.164 0.125685 182.839 0.801778 183.204C0.978513 183.299 1.22841 183.367 1.50765 183.414C1.78599 183.462 2.0895 183.488 2.37103 183.502C2.65243 183.516 2.91105 183.517 3.09936 183.516C3.19349 183.515 3.26999 183.513 3.32291 183.511C3.34937 183.51 3.36993 183.51 3.38384 183.509L3.39964 183.509L3.40363 183.508L3.40461 183.508L3.40485 183.508L3.40491 183.508L3.45392 183.506L3.45708 183.555C3.63291 186.283 3.41248 190.057 3.194 193.797C3.12262 195.019 3.05145 196.237 2.99438 197.415C2.87842 199.806 2.82059 202.028 2.93649 203.768C2.99444 204.637 3.09572 205.384 3.2541 205.971C3.41295 206.559 3.62711 206.978 3.90453 207.2C4.10088 207.358 4.3971 207.461 4.7373 207.526C5.07632 207.591 5.4532 207.616 5.80596 207.621C6.15849 207.625 6.48562 207.61 6.72469 207.593C6.84418 207.584 6.94159 207.575 7.00905 207.569C7.04278 207.565 7.06902 207.563 7.08679 207.561L7.10697 207.558L7.11206 207.558L7.11331 207.558L7.11361 207.558L7.11368 207.558L7.11968 207.607L7.1137 207.558L7.16789 207.551L7.16965 207.606C7.39007 214.443 6.49334 219.639 5.84623 223.388C5.80585 223.622 5.76644 223.851 5.72834 224.073C5.40366 225.972 5.17488 227.458 5.24321 228.57C5.27732 229.126 5.38538 229.584 5.58987 229.951C5.79379 230.318 6.09522 230.597 6.52173 230.794C6.53565 230.8 6.56616 230.808 6.61814 230.817C6.66858 230.825 6.73496 230.833 6.81743 230.841C6.98228 230.856 7.20882 230.87 7.49549 230.881C8.06868 230.905 8.87991 230.922 9.91375 230.934C11.9813 230.956 14.9376 230.954 18.657 230.935C26.0957 230.896 36.586 230.785 49.1222 230.649C50.0881 230.638 51.0662 230.627 52.056 230.617C76.757 230.348 108.736 230 140.841 229.907C164.185 229.84 187.597 229.911 208.193 229.973C216.819 229.999 224.951 230.023 232.378 230.036C244.958 230.056 255.513 230.042 263.015 229.94C266.766 229.889 269.753 229.817 271.848 229.715C272.896 229.665 273.719 229.607 274.304 229.542C274.596 229.509 274.827 229.474 274.996 229.438C275.081 229.42 275.148 229.401 275.2 229.383C275.253 229.364 275.284 229.347 275.3 229.333C276.02 228.685 276.339 227.669 276.399 226.414C276.458 225.16 276.258 223.676 275.951 222.104C275.728 220.965 275.449 219.783 275.173 218.61C275.067 218.163 274.962 217.717 274.861 217.276C274.493 215.677 274.172 214.134 274.051 212.793C273.938 211.533 273.827 209.92 273.745 208.621C273.703 207.972 273.669 207.401 273.645 206.993L273.631 206.754C273.625 206.658 273.621 206.577 273.617 206.513L273.61 206.384L273.608 206.35L273.607 206.342L273.607 206.34L273.607 206.339L273.604 206.283L273.66 206.286L273.661 206.286L273.662 206.286L273.666 206.287L273.685 206.288L273.755 206.291C273.781 206.292 273.811 206.294 273.847 206.295C273.894 206.297 273.949 206.299 274.011 206.301C274.226 206.308 274.521 206.315 274.838 206.312C275.156 206.309 275.495 206.297 275.801 206.266C276.108 206.236 276.376 206.188 276.552 206.116C276.859 205.99 277.073 205.659 277.206 205.136C277.339 204.615 277.387 203.917 277.373 203.081C277.344 201.411 277.064 199.205 276.715 196.793C276.618 196.116 276.515 195.424 276.41 194.722C275.771 190.428 275.083 185.806 275.283 182.559L275.286 182.509L275.337 182.512L275.337 182.512L275.338 182.513L275.343 182.513L275.36 182.514C275.375 182.515 275.398 182.516 275.427 182.518C275.485 182.521 275.569 182.526 275.673 182.529C275.88 182.537 276.166 182.542 276.478 182.533C276.791 182.524 277.129 182.502 277.442 182.454C277.757 182.405 278.042 182.332 278.251 182.224C278.346 182.175 278.433 182.084 278.511 181.948C278.589 181.811 278.656 181.633 278.712 181.415C278.826 180.978 278.895 180.387 278.928 179.667C278.993 178.227 278.911 176.28 278.746 174.034C278.552 171.374 278.242 168.299 277.925 165.155C277.706 162.989 277.485 160.791 277.295 158.673V158.669C277.297 154.884 277.111 150.824 276.934 146.969C276.832 144.767 276.734 142.631 276.676 140.652C276.597 137.972 276.615 135.257 276.632 132.608C276.634 132.345 276.636 132.082 276.637 131.819C276.655 128.922 276.661 126.117 276.526 123.536L276.526 123.534C276.481 120.373 276.449 117.497 276.421 114.843C276.349 108.191 276.292 102.941 276.062 98.1184V98.116L276.062 0.0500031H4.23151L5.15905 89.3159L5.15908 89.3172L5.62272 101.829Z" fill="white" stroke="#D9D9D9" stroke-width="0.1"/>
</symbol>
</svg>
