<svg width="387" height="507" viewBox="0 0 387 507" fill="none" xmlns="http://www.w3.org/2000/svg">
<symbol id="left-1" width="387" height="507" viewBox="0 0 387 507">
<path d="M291.216 405.07L291.255 405.078V405.118V410.659V410.684L291.236 410.699L291.205 410.659L291.236 410.699L291.235 410.699L291.232 410.702L291.22 410.711L291.175 410.747C291.136 410.779 291.077 410.827 291.002 410.889C290.853 411.014 290.637 411.197 290.373 411.432C289.847 411.901 289.13 412.575 288.368 413.393C286.844 415.03 285.148 417.24 284.443 419.54C283.731 421.859 283.891 425.175 284.232 427.916C284.403 429.286 284.618 430.51 284.79 431.391C284.876 431.832 284.952 432.187 285.006 432.432C285.033 432.555 285.054 432.65 285.069 432.714L285.086 432.787L285.09 432.805L285.092 432.81L285.092 432.811L285.092 432.811L285.092 432.811L285.093 432.818L285.417 436.143L285.419 436.161L285.409 436.176L285.368 436.148L285.409 436.176L285.409 436.176L285.408 436.177L285.406 436.181L285.396 436.194L285.36 436.248C285.327 436.295 285.28 436.366 285.219 436.457C285.097 436.639 284.921 436.904 284.706 437.237C284.274 437.904 283.684 438.843 283.047 439.93C281.774 442.105 280.317 444.872 279.578 447.244C279.02 449.039 278.87 450.526 278.733 452.022L278.718 452.178C278.586 453.623 278.452 455.087 277.957 456.847C276.659 461.467 275.361 464.886 274.023 468.211C273.769 468.845 273.512 469.474 273.255 470.108C272.158 472.804 271.03 475.576 269.849 479.014C269.505 480.017 269.065 480.813 268.481 481.426C267.896 482.04 267.167 482.469 266.249 482.739C265.774 482.88 265.368 482.789 264.984 482.704L264.912 482.688C264.504 482.599 264.115 482.53 263.661 482.737C263.177 482.958 262.917 483.325 262.666 483.733C262.638 483.78 262.609 483.827 262.581 483.874C262.359 484.242 262.123 484.631 261.726 484.947C260.584 485.856 259.283 485.838 258.012 485.82L257.924 485.819C256.62 485.801 255.351 485.806 254.27 486.792C253.86 487.165 253.491 487.38 253.14 487.496C252.789 487.612 252.46 487.628 252.133 487.607C251.969 487.597 251.806 487.578 251.642 487.557L251.581 487.55C251.436 487.531 251.29 487.513 251.139 487.5C250.796 487.469 250.434 487.463 250.03 487.543C248.455 487.853 247.204 488.223 245.987 488.584C245.826 488.632 245.665 488.68 245.504 488.727C244.13 489.131 242.751 489.51 240.947 489.76C240.12 489.874 239.235 489.737 238.347 489.519C237.903 489.409 237.457 489.279 237.016 489.149C236.575 489.019 236.139 488.889 235.714 488.78C234.863 488.561 234.062 488.425 233.357 488.532C232.656 488.638 232.047 488.984 231.578 489.736C230.892 490.838 230.902 492.029 231.361 493.126C231.82 494.225 232.728 495.228 233.833 495.948C236.088 497.415 238.991 497.509 241.701 497.003C244.411 496.496 246.918 495.39 248.372 494.47C248.671 494.281 248.938 494.189 249.181 494.179C249.424 494.17 249.639 494.244 249.832 494.379C250.214 494.646 250.514 495.153 250.801 495.73C250.895 495.918 250.988 496.114 251.082 496.313C251.278 496.728 251.479 497.154 251.709 497.547C252.049 498.129 252.445 498.629 252.962 498.901C254.953 499.947 257.162 499.833 259.748 499.701C259.882 499.694 260.016 499.687 260.152 499.68C262.909 499.541 266.079 499.448 269.818 500.745C271.089 501.185 272.185 501.274 273.272 501.362C273.361 501.369 273.449 501.376 273.537 501.384C274.713 501.482 275.894 501.612 277.281 502.224C277.879 502.488 278.322 502.802 278.75 503.105C278.798 503.139 278.846 503.173 278.895 503.207C279.369 503.541 279.844 503.853 280.519 504.069C281.923 504.517 282.882 504.446 283.858 504.253C284.09 504.207 284.324 504.154 284.565 504.099C285.338 503.923 286.189 503.729 287.312 503.697C290.529 503.606 293.278 504.219 296.008 504.828L296.245 504.881C299.053 505.506 301.855 506.106 305.146 505.913C317.794 505.175 323.919 504.954 335.956 504.805C338.313 504.776 340.295 504.91 342.175 505.036C342.822 505.08 343.456 505.123 344.09 505.158C346.567 505.295 349.033 505.315 352.163 504.806C354.289 504.46 355.655 504.084 357.023 503.705L357.058 503.695C358.415 503.319 359.78 502.941 361.891 502.59C365.217 502.036 367.896 502.036 370.674 502.082C370.909 502.086 371.144 502.09 371.381 502.094C373.944 502.14 376.644 502.188 380.055 501.85C383.52 501.507 386.053 499.114 386.821 495.241C387.085 493.907 386.929 492.813 386.49 491.869C386.05 490.925 385.324 490.126 384.443 489.386C383.648 488.717 382.729 488.098 381.783 487.461C381.681 487.393 381.579 487.324 381.477 487.254C380.425 486.544 379.355 485.804 378.405 484.945C374.764 481.655 369.473 480.087 364.818 478.707L364.722 478.678C362.386 477.986 360.213 477.338 358.503 476.539C356.795 475.74 355.536 474.786 355.043 473.474C353.914 470.474 352.715 467.473 351.537 464.538L351.283 463.905C350.194 461.191 349.13 458.537 348.163 455.998C346.08 450.526 344.451 445.58 344.014 441.694C339.249 399.29 338.7 375.525 337.802 336.594L337.788 336.001L337.787 335.95H337.838C338.444 335.95 339.639 335.703 340.682 334.775C341.722 333.849 342.617 332.238 342.617 329.5C342.617 327.519 341.639 326.157 340.551 325.289C340.006 324.855 339.434 324.545 338.944 324.343C338.452 324.141 338.048 324.05 337.838 324.05H337.789L337.788 324.001C337.263 300.482 337.247 286.524 337.223 266.13C337.218 262.139 337.213 257.901 337.204 253.297C337.105 204.031 336.538 140.957 335.995 90.1992C335.723 64.8204 335.458 42.5207 335.261 26.5658C335.162 18.5884 335.08 12.1971 335.023 7.80014C334.995 5.60168 334.972 3.90181 334.957 2.75156L334.94 1.44477L334.935 1.11249L334.934 1.03649L334.904 1.02682C334.863 1.01363 334.802 0.994746 334.727 0.972022C334.576 0.926567 334.365 0.865789 334.124 0.804518C333.641 0.681698 333.043 0.557971 332.57 0.549993C332.058 0.541345 331.667 0.663875 331.269 0.791024L331.252 0.796452C330.86 0.921862 330.46 1.05 329.937 1.05C329.436 1.05 329.045 0.916143 328.669 0.787082C328.647 0.779572 328.625 0.772079 328.603 0.764629C328.206 0.629032 327.817 0.507163 327.308 0.549825C326.812 0.591355 326.449 0.824467 326.082 1.05965C326.06 1.07421 326.037 1.08879 326.014 1.10333C325.626 1.35137 325.225 1.58733 324.667 1.54989C324.213 1.51947 323.892 1.26315 323.591 1.02293C323.574 1.00964 323.557 0.996392 323.541 0.983238C323.222 0.729625 322.918 0.508198 322.48 0.549776C322.126 0.583387 321.893 0.80991 321.649 1.04794L321.633 1.06303C321.387 1.30257 321.126 1.55 320.72 1.55C320.316 1.55 320.051 1.34369 319.799 1.12036C319.772 1.09606 319.744 1.07158 319.717 1.04712C319.493 0.844729 319.269 0.643127 318.949 0.547913C318.296 0.353074 317.776 0.48777 317.241 0.668786C317.177 0.690242 317.113 0.71238 317.049 0.734687C316.572 0.900193 316.069 1.07503 315.45 1.04996C314.671 1.01839 314.081 0.777922 313.504 0.542485L313.458 0.523908C312.866 0.282558 312.281 0.0521093 311.502 0.0499998C310.537 0.0473912 309.828 0.394218 309.109 0.758416L309.052 0.787597C308.353 1.14233 307.638 1.50501 306.676 1.54995C305.708 1.59512 304.972 1.36468 304.243 1.11428C304.194 1.0974 304.145 1.08042 304.095 1.06343C303.415 0.828477 302.728 0.591184 301.843 0.549946C300.402 0.482843 299.298 0.89646 298.191 1.31101L298.13 1.33396C297.003 1.75583 295.867 2.16921 294.379 2.04984C293.365 1.9685 292.597 1.62252 291.849 1.28529C291.81 1.26748 291.77 1.2497 291.731 1.23198C290.944 0.878507 290.164 0.55 289.116 0.55C288.08 0.55 287.308 0.924132 286.529 1.30169L286.504 1.31426C285.717 1.69559 284.92 2.076 283.847 2.04999C283.153 2.03317 282.805 1.83965 282.428 1.63025C282.368 1.59695 282.308 1.56324 282.245 1.52978C281.791 1.28855 281.207 1.05 279.898 1.05C278.777 1.05 277.919 1.26997 277.057 1.50556C277.013 1.51769 276.968 1.52985 276.924 1.54204C276.104 1.76654 275.268 1.99567 274.194 2.04994C272.561 2.13244 271.412 1.97606 270.097 1.79697C269.472 1.71199 268.811 1.62189 268.042 1.54978C267.344 1.48439 266.76 1.38608 266.207 1.29313C266.011 1.26005 265.818 1.22765 265.626 1.19766C264.893 1.08328 264.162 1.00298 263.22 1.04994C262.326 1.09458 261.633 1.32753 260.946 1.55872C260.904 1.57283 260.862 1.58693 260.82 1.60097C260.091 1.84524 259.356 2.07387 258.388 2.04998C257.317 2.02354 256.522 1.67614 255.735 1.32339L255.685 1.30112C254.914 0.955526 254.146 0.611171 253.119 0.549911C252.004 0.483332 251.148 0.755563 250.285 1.03493L250.257 1.04383C249.403 1.32026 248.538 1.60019 247.414 1.54995C246.859 1.52519 246.421 1.40323 245.998 1.28584C245.954 1.27354 245.91 1.26129 245.866 1.2492C245.402 1.12177 244.943 1.01214 244.346 1.0499C243.952 1.07483 243.647 1.19033 243.342 1.30584C243.316 1.31567 243.29 1.3255 243.264 1.33528C242.932 1.45978 242.593 1.57419 242.146 1.54993C241.785 1.53033 241.514 1.43382 241.249 1.32851C241.22 1.3168 241.191 1.305 241.161 1.29318C240.926 1.19864 240.689 1.10327 240.384 1.04923C239.458 0.885134 238.731 0.995685 237.997 1.15506C237.872 1.18226 237.747 1.21092 237.62 1.23987C237.003 1.38054 236.356 1.5283 235.566 1.54998C234.415 1.58156 233.487 1.4097 232.591 1.24372C232.479 1.22296 232.367 1.20229 232.255 1.18212C231.252 1.00071 230.257 0.859208 228.988 1.04945C228.648 1.10029 228.374 1.21209 228.105 1.32105C228.037 1.34899 227.969 1.37674 227.9 1.40323C227.564 1.53265 227.222 1.6287 226.777 1.54922C226.387 1.47953 226.129 1.25473 225.883 1.04002L225.875 1.03324C225.625 0.814896 225.385 0.608525 225.022 0.549351C224.506 0.465463 224.133 0.690781 223.745 0.955703C223.717 0.9744 223.69 0.993303 223.662 1.0123C223.301 1.26038 222.917 1.52425 222.399 1.54994C221.762 1.58148 221.293 1.3747 220.833 1.14018C220.781 1.11337 220.728 1.08622 220.676 1.05902C220.268 0.847892 219.855 0.633679 219.316 0.5494C218.127 0.363464 217.205 0.598505 216.274 0.888758C216.169 0.921661 216.063 0.955293 215.957 0.989099C215.126 1.25338 214.261 1.52836 213.179 1.54999C211.858 1.5764 210.823 1.2979 209.809 1.02513C209.756 1.01101 209.704 0.996897 209.651 0.982845C208.586 0.69743 207.529 0.435711 206.159 0.549827C205.354 0.616995 204.73 0.836782 204.113 1.05444C204.068 1.07021 204.024 1.08598 203.979 1.10167C203.317 1.33386 202.649 1.55 201.766 1.55C200.896 1.55 200.234 1.29432 199.585 1.04311L199.553 1.03075C198.893 0.775497 198.241 0.52907 197.378 0.549985C196.624 0.568258 196.052 0.811366 195.478 1.05555L195.421 1.08C194.827 1.33193 194.226 1.57653 193.424 1.54997C192.937 1.53385 192.327 1.40773 191.84 1.28657C191.596 1.22586 191.382 1.16617 191.23 1.12164C191.153 1.09941 191.092 1.08096 191.05 1.06804L191.051 1.2107C191.052 1.34926 191.053 1.55402 191.055 1.81882C191.059 2.34841 191.067 3.11811 191.079 4.07851C191.105 5.99933 191.151 8.68291 191.236 11.7339C191.406 17.8363 191.731 25.4074 192.347 31.2852C193.658 43.7947 194.824 54.7 195.903 64.788C199.094 94.617 201.52 117.301 204.67 153.186C209.851 212.205 216.019 245.531 227.693 303.155C232.352 326.15 240.662 345.995 247.146 358.552C254.444 372.684 268.542 389.57 277.62 398.804C279.661 400.879 283.057 402.446 285.949 403.495C287.393 404.019 288.71 404.412 289.666 404.675C290.144 404.807 290.532 404.905 290.8 404.971C290.934 405.004 291.038 405.029 291.108 405.045L291.188 405.064L291.209 405.068L291.214 405.069L291.215 405.07L291.216 405.07Z" />
</symbol>
<symbol id="right-1" width="387" height="507" viewBox="0 0 387 507">
<path d="M95.7844 406.07L95.7452 406.078V406.118V411.659V411.684L95.7643 411.699L95.7952 411.659L95.7643 411.699L95.7652 411.699L95.7681 411.702L95.7795 411.711L95.8247 411.747C95.8643 411.779 95.9227 411.827 95.9977 411.889C96.1475 412.014 96.3632 412.197 96.6266 412.432C97.1533 412.901 97.8705 413.575 98.6318 414.393C100.156 416.03 101.852 418.24 102.557 420.54C103.269 422.859 103.109 426.175 102.768 428.916C102.597 430.286 102.382 431.51 102.21 432.391C102.124 432.832 102.048 433.187 101.994 433.432C101.967 433.555 101.946 433.65 101.931 433.714L101.914 433.787L101.91 433.805L101.908 433.81L101.908 433.811L101.908 433.811L101.908 433.811L101.907 433.818L101.583 437.143L101.581 437.161L101.591 437.176L101.632 437.148L101.591 437.176L101.591 437.176L101.592 437.177L101.594 437.181L101.604 437.194L101.64 437.248C101.673 437.295 101.72 437.366 101.781 437.457C101.903 437.639 102.079 437.904 102.294 438.237C102.726 438.904 103.316 439.843 103.953 440.93C105.226 443.105 106.683 445.872 107.422 448.244C107.98 450.039 108.13 451.526 108.267 453.022L108.282 453.178C108.414 454.623 108.548 456.087 109.043 457.847C110.341 462.467 111.639 465.886 112.977 469.211C113.231 469.845 113.488 470.474 113.745 471.108C114.842 473.804 115.97 476.576 117.151 480.014C117.495 481.017 117.935 481.813 118.519 482.426C119.104 483.04 119.833 483.469 120.751 483.739C121.226 483.88 121.632 483.789 122.016 483.704L122.088 483.688C122.496 483.599 122.885 483.53 123.339 483.737C123.823 483.958 124.083 484.325 124.334 484.733C124.362 484.78 124.391 484.827 124.419 484.874C124.641 485.242 124.877 485.631 125.274 485.947C126.416 486.856 127.717 486.838 128.988 486.82L129.076 486.819C130.38 486.801 131.649 486.806 132.73 487.792C133.14 488.165 133.509 488.38 133.86 488.496C134.211 488.612 134.54 488.628 134.867 488.607C135.031 488.597 135.194 488.578 135.358 488.557L135.419 488.55C135.564 488.531 135.71 488.513 135.861 488.5C136.204 488.469 136.566 488.463 136.97 488.543C138.545 488.853 139.796 489.223 141.013 489.584C141.174 489.632 141.335 489.68 141.496 489.727C142.87 490.131 144.249 490.51 146.053 490.76C146.88 490.874 147.765 490.737 148.653 490.519C149.097 490.409 149.543 490.279 149.984 490.149C150.425 490.019 150.861 489.889 151.286 489.78C152.137 489.561 152.938 489.425 153.643 489.532C154.344 489.638 154.953 489.984 155.422 490.736C156.108 491.838 156.098 493.029 155.639 494.126C155.18 495.225 154.272 496.228 153.167 496.948C150.912 498.415 148.009 498.509 145.299 498.003C142.589 497.496 140.082 496.39 138.628 495.47C138.329 495.281 138.062 495.189 137.819 495.179C137.576 495.17 137.361 495.244 137.168 495.379C136.786 495.646 136.486 496.153 136.199 496.73C136.105 496.918 136.012 497.114 135.918 497.313C135.722 497.728 135.521 498.154 135.291 498.547C134.951 499.129 134.555 499.629 134.038 499.901C132.047 500.947 129.838 500.833 127.252 500.701C127.118 500.694 126.984 500.687 126.848 500.68C124.091 500.541 120.921 500.448 117.182 501.745C115.911 502.185 114.815 502.274 113.728 502.362C113.639 502.369 113.551 502.376 113.463 502.384C112.287 502.482 111.106 502.612 109.719 503.224C109.121 503.488 108.678 503.802 108.25 504.105C108.202 504.139 108.154 504.173 108.105 504.207C107.631 504.541 107.156 504.853 106.481 505.069C105.077 505.517 104.118 505.446 103.142 505.253C102.91 505.207 102.676 505.154 102.435 505.099C101.662 504.923 100.811 504.729 99.6881 504.697C96.4712 504.606 93.7215 505.219 90.9919 505.828L90.7554 505.881C87.9468 506.506 85.1453 507.106 81.8537 506.913C69.2058 506.175 63.0812 505.954 51.0441 505.805C48.687 505.776 46.7052 505.91 44.8253 506.036C44.1785 506.08 43.5437 506.123 42.9099 506.158C40.4334 506.295 37.9666 506.315 34.8372 505.806C32.7114 505.46 31.3451 505.084 29.9774 504.705L29.9416 504.695C28.585 504.319 27.2204 503.941 25.1087 503.59C21.7833 503.036 19.1043 503.036 16.3261 503.082C16.0913 503.086 15.8557 503.09 15.619 503.094C13.0556 503.14 10.3564 503.188 6.94535 502.85C3.48029 502.507 0.947132 500.114 0.17943 496.241C-0.0851029 494.907 0.0708933 493.813 0.510396 492.869C0.950406 491.925 1.67621 491.126 2.55699 490.386C3.35234 489.717 4.27121 489.098 5.21663 488.461C5.31855 488.393 5.42078 488.324 5.5232 488.254C6.57456 487.544 7.64471 486.804 8.59538 485.945C12.236 482.655 17.5268 481.087 22.1815 479.707L22.2776 479.678C24.6141 478.986 26.7866 478.338 28.4965 477.539C30.2054 476.74 31.4639 475.786 31.9574 474.474C33.0863 471.474 34.2853 468.473 35.4625 465.538L35.7166 464.905C36.8057 462.191 37.8703 459.537 38.837 456.998C40.9198 451.526 42.5495 446.58 42.9861 442.694C47.7511 400.29 48.2996 376.525 49.198 337.594L49.2117 337.001L49.2129 336.95H49.1617C48.5557 336.95 47.361 336.703 46.3185 335.775C45.2778 334.849 44.3833 333.238 44.3833 330.5C44.3833 328.519 45.3609 327.157 46.4495 326.289C46.994 325.855 47.5659 325.545 48.0559 325.343C48.5475 325.141 48.9519 325.05 49.1617 325.05H49.2106L49.2117 325.001C49.7365 301.482 49.7531 287.524 49.7774 267.13C49.7821 263.139 49.7872 258.901 49.7964 254.297C49.8948 205.031 50.4623 141.957 51.0052 91.1992C51.2766 65.8204 51.5419 43.5207 51.7394 27.5658C51.8381 19.5884 51.9198 13.1971 51.9769 8.80014C52.0054 6.60168 52.0278 4.90181 52.043 3.75156L52.0604 2.44477L52.0649 2.11249L52.0659 2.03649L52.0959 2.02682C52.1374 2.01363 52.1977 1.99475 52.2731 1.97202C52.424 1.92657 52.6351 1.86579 52.8759 1.80452C53.3588 1.6817 53.9572 1.55797 54.4299 1.54999C54.9422 1.54134 55.333 1.66387 55.7306 1.79102L55.7475 1.79645C56.1396 1.92186 56.5402 2.05 57.0627 2.05C57.5644 2.05 57.9548 1.91614 58.3311 1.78708C58.353 1.77957 58.3749 1.77208 58.3967 1.76463C58.7939 1.62903 59.1832 1.50716 59.6922 1.54983C60.1876 1.59135 60.551 1.82447 60.9177 2.05965C60.9404 2.07421 60.9631 2.08879 60.9859 2.10333C61.3743 2.35137 61.7746 2.58733 62.3333 2.54989C62.7873 2.51947 63.1084 2.26315 63.4093 2.02293C63.4259 2.00964 63.4425 1.99639 63.4591 1.98324C63.7781 1.72962 64.082 1.5082 64.52 1.54978C64.8741 1.58339 65.1067 1.80991 65.3512 2.04794L65.3667 2.06303C65.6129 2.30257 65.8744 2.55 66.2805 2.55C66.6837 2.55 66.9494 2.34369 67.201 2.12036C67.2283 2.09606 67.2555 2.07158 67.2827 2.04712C67.5075 1.84473 67.7314 1.64313 68.0506 1.54791C68.7037 1.35307 69.2238 1.48777 69.7595 1.66879C69.8229 1.69024 69.8867 1.71238 69.951 1.73469C70.4277 1.90019 70.9312 2.07503 71.5498 2.04996C72.3289 2.01839 72.9186 1.77792 73.496 1.54249L73.5416 1.52391C74.1339 1.28256 74.7188 1.05211 75.4984 1.05C76.4626 1.04739 77.172 1.39422 77.8905 1.75842L77.9481 1.7876C78.6473 2.14233 79.3622 2.50501 80.3244 2.54995C81.2918 2.59512 82.0277 2.36468 82.7571 2.11428C82.8063 2.0974 82.8555 2.08042 82.9047 2.06343C83.5851 1.82848 84.2723 1.59118 85.1574 1.54995C86.5976 1.48284 87.7021 1.89646 88.8091 2.31101L88.8704 2.33396C89.9975 2.75583 91.1331 3.16921 92.6211 3.04984C93.6351 2.9685 94.4027 2.62252 95.1509 2.28529C95.1904 2.26748 95.2299 2.2497 95.2693 2.23198C96.056 1.87851 96.8357 1.55 97.8844 1.55C98.9202 1.55 99.6918 1.92413 100.471 2.30169L100.496 2.31426C101.283 2.69559 102.08 3.076 103.153 3.04999C103.847 3.03317 104.195 2.83965 104.572 2.63025C104.632 2.59695 104.692 2.56324 104.755 2.52978C105.209 2.28855 105.793 2.05 107.102 2.05C108.223 2.05 109.081 2.26997 109.943 2.50556C109.987 2.51769 110.032 2.52985 110.076 2.54204C110.896 2.76654 111.732 2.99567 112.806 3.04994C114.439 3.13244 115.588 2.97606 116.903 2.79697C117.528 2.71199 118.189 2.62189 118.958 2.54978C119.656 2.48439 120.24 2.38608 120.793 2.29313C120.989 2.26005 121.182 2.22765 121.374 2.19766C122.107 2.08328 122.838 2.00298 123.78 2.04994C124.674 2.09458 125.367 2.32753 126.054 2.55872C126.096 2.57283 126.138 2.58693 126.18 2.60097C126.909 2.84524 127.644 3.07387 128.612 3.04998C129.683 3.02354 130.478 2.67614 131.265 2.32339L131.315 2.30112C132.086 1.95553 132.854 1.61117 133.881 1.54991C134.996 1.48333 135.852 1.75556 136.715 2.03493L136.743 2.04383C137.597 2.32026 138.462 2.60019 139.586 2.54995C140.141 2.52519 140.579 2.40323 141.002 2.28584C141.046 2.27354 141.09 2.26129 141.134 2.2492C141.598 2.12177 142.057 2.01214 142.654 2.0499C143.048 2.07483 143.353 2.19033 143.658 2.30584C143.684 2.31567 143.71 2.3255 143.736 2.33528C144.068 2.45978 144.407 2.57419 144.854 2.54993C145.215 2.53033 145.486 2.43382 145.751 2.32851C145.78 2.3168 145.809 2.305 145.839 2.29318C146.074 2.19864 146.311 2.10327 146.616 2.04923C147.542 1.88513 148.269 1.99569 149.003 2.15506C149.128 2.18226 149.253 2.21092 149.38 2.23987C149.997 2.38054 150.644 2.5283 151.434 2.54998C152.585 2.58156 153.513 2.4097 154.409 2.24372C154.521 2.22296 154.633 2.20229 154.745 2.18212C155.748 2.00071 156.743 1.85921 158.012 2.04945C158.352 2.10029 158.626 2.21209 158.895 2.32105C158.963 2.34899 159.031 2.37674 159.1 2.40323C159.436 2.53265 159.778 2.6287 160.223 2.54922C160.613 2.47953 160.871 2.25473 161.117 2.04002L161.125 2.03324C161.375 1.8149 161.615 1.60853 161.978 1.54935C162.494 1.46546 162.867 1.69078 163.255 1.9557C163.283 1.9744 163.31 1.9933 163.338 2.0123C163.699 2.26038 164.083 2.52425 164.601 2.54994C165.238 2.58148 165.707 2.3747 166.167 2.14018C166.219 2.11337 166.272 2.08622 166.324 2.05902C166.732 1.84789 167.145 1.63368 167.684 1.5494C168.873 1.36346 169.795 1.5985 170.726 1.88876C170.831 1.92166 170.937 1.95529 171.043 1.9891C171.874 2.25338 172.739 2.52836 173.821 2.54999C175.142 2.5764 176.177 2.2979 177.191 2.02513C177.244 2.01101 177.296 1.9969 177.349 1.98284C178.414 1.69743 179.471 1.43571 180.841 1.54983C181.646 1.61699 182.27 1.83678 182.887 2.05444C182.932 2.07021 182.976 2.08598 183.021 2.10167C183.683 2.33386 184.351 2.55 185.234 2.55C186.104 2.55 186.766 2.29432 187.415 2.04311L187.447 2.03075C188.107 1.7755 188.759 1.52907 189.622 1.54999C190.376 1.56826 190.948 1.81137 191.522 2.05555L191.579 2.08C192.173 2.33193 192.774 2.57653 193.576 2.54997C194.063 2.53385 194.673 2.40773 195.16 2.28657C195.404 2.22586 195.618 2.16617 195.77 2.12164C195.847 2.09941 195.908 2.08096 195.95 2.06804L195.949 2.2107C195.948 2.34926 195.947 2.55402 195.945 2.81882C195.941 3.34841 195.933 4.11811 195.921 5.07851C195.895 6.99933 195.849 9.68291 195.764 12.7339C195.594 18.8363 195.269 26.4074 194.653 32.2852C193.342 44.7947 192.176 55.7 191.097 65.788C187.906 95.617 185.48 118.301 182.33 154.186C177.149 213.205 170.981 246.531 159.307 304.155C154.648 327.15 146.338 346.995 139.854 359.552C132.556 373.684 118.458 390.57 109.38 399.804C107.339 401.879 103.943 403.446 101.051 404.495C99.6065 405.019 98.2895 405.412 97.3338 405.675C96.8559 405.807 96.4684 405.905 96.2004 405.971C96.0664 406.004 95.9623 406.029 95.8918 406.045L95.8115 406.064L95.7912 406.068L95.786 406.069L95.7848 406.07L95.7844 406.07Z" />
</symbol>
</svg>
