<svg width="387" height="507" viewBox="0 0 387 507" fill="none" xmlns="http://www.w3.org/2000/svg">
<symbol id="left-1" width="387" height="507" viewBox="0 0 387 507">
<path d="M258.34 48.0051L258.34 48.0052V48.0004V2.04898C257.293 2.01338 256.51 1.67119 255.735 1.32382L255.685 1.30157C254.914 0.955968 254.146 0.611601 253.119 0.550339C252.004 0.48376 251.148 0.755991 250.285 1.03535L250.257 1.04426C249.403 1.32068 248.538 1.60062 247.414 1.55038C246.859 1.52561 246.421 1.40366 245.998 1.28626C245.954 1.27396 245.91 1.26171 245.866 1.24963C245.402 1.1222 244.943 1.01257 244.346 1.05033C243.952 1.07526 243.647 1.19077 243.342 1.30627C243.316 1.3161 243.29 1.32593 243.264 1.33571C242.932 1.46021 242.593 1.57462 242.146 1.55035C241.785 1.53076 241.514 1.43425 241.249 1.32893C241.22 1.31723 241.191 1.30542 241.161 1.29361C240.926 1.19907 240.689 1.1037 240.384 1.04966C239.458 0.885562 238.731 0.996113 237.997 1.15549C237.872 1.18269 237.747 1.21135 237.62 1.2403C237.003 1.38097 236.356 1.52873 235.566 1.55041C234.415 1.58199 233.487 1.41013 232.591 1.24415C232.479 1.22339 232.367 1.20271 232.255 1.18254C231.252 1.00113 230.257 0.859636 228.988 1.04988C228.648 1.10072 228.374 1.21251 228.105 1.32148C228.037 1.34942 227.969 1.37717 227.9 1.40365C227.564 1.53308 227.222 1.62913 226.777 1.54965C226.387 1.47996 226.129 1.25514 225.883 1.04043L225.875 1.03367C225.625 0.815324 225.385 0.608953 225.022 0.549779C224.506 0.465891 224.133 0.691209 223.745 0.956131C223.717 0.974821 223.69 0.993718 223.662 1.01271C223.301 1.2608 222.917 1.52468 222.399 1.55037C221.762 1.58191 221.293 1.37512 220.833 1.14061C220.781 1.1138 220.728 1.08666 220.676 1.05946C220.268 0.848331 219.855 0.634109 219.316 0.549828C218.127 0.363892 217.205 0.598933 216.274 0.889186C216.169 0.92209 216.063 0.955722 215.957 0.989529C215.126 1.25381 214.261 1.52879 213.179 1.55042C211.858 1.57683 210.823 1.29833 209.809 1.02557C209.756 1.01144 209.704 0.997328 209.651 0.983273C208.586 0.697858 207.529 0.436139 206.159 0.550255C205.354 0.617423 204.73 0.83721 204.113 1.05487C204.068 1.07064 204.024 1.08641 203.979 1.1021C203.317 1.33429 202.649 1.55043 201.766 1.55043C200.896 1.55043 200.234 1.29476 199.585 1.04355L199.553 1.03118C198.893 0.775925 198.241 0.529498 197.378 0.550413C196.624 0.568687 196.052 0.811803 195.478 1.056L195.421 1.08043C194.827 1.33236 194.226 1.57696 193.424 1.5504C192.937 1.53428 192.327 1.40815 191.84 1.28699C191.596 1.22629 191.382 1.1666 191.23 1.12207C191.153 1.09984 191.092 1.08139 191.05 1.06847L191.051 1.21113C191.052 1.34969 191.053 1.55445 191.055 1.81925C191.059 2.34883 191.067 3.11854 191.079 4.07894C191.105 5.99976 191.151 8.68334 191.236 11.7344C191.407 17.8368 191.731 25.4078 192.347 31.2856C193.658 43.7953 194.824 54.7007 195.903 64.7889C199.094 94.6176 201.52 117.302 204.67 153.187C209.851 212.205 216.019 245.531 227.693 303.156C232.352 326.15 240.662 345.996 247.146 358.552C254.444 372.685 268.542 389.571 277.62 398.804C279.661 400.88 283.057 402.446 285.949 403.495C287.393 404.019 288.71 404.413 289.666 404.676C290.144 404.807 290.532 404.906 290.8 404.971C290.934 405.004 291.038 405.029 291.108 405.045L291.188 405.064L291.209 405.069L291.214 405.07L291.215 405.07L291.216 405.07L291.255 405.079V405.119V410.66V410.684L291.236 410.699L291.205 410.66L291.236 410.699L291.235 410.7L291.232 410.702L291.22 410.711L291.175 410.747C291.157 410.763 291.133 410.781 291.106 410.804C291.076 410.828 291.042 410.857 291.002 410.89C290.853 411.014 290.637 411.198 290.373 411.432C289.847 411.902 289.13 412.575 288.368 413.393C286.844 415.03 285.148 417.24 284.443 419.54C283.731 421.86 283.891 425.175 284.232 427.917C284.403 429.286 284.618 430.51 284.79 431.392C284.876 431.833 284.952 432.188 285.006 432.433C285.033 432.555 285.054 432.65 285.069 432.714L285.086 432.787L285.09 432.806L285.092 432.81L285.092 432.811L285.092 432.812L285.092 432.812L285.093 432.819L285.417 436.143L285.419 436.161L285.409 436.176L285.368 436.148L285.409 436.177L285.409 436.177L285.408 436.178L285.406 436.181L285.396 436.195L285.36 436.248C285.327 436.296 285.28 436.366 285.219 436.457C285.097 436.639 284.921 436.904 284.706 437.238C284.274 437.905 283.684 438.843 283.047 439.93C281.774 442.106 280.317 444.872 279.578 447.245C279.02 449.039 278.87 450.527 278.733 452.022L278.718 452.178C278.586 453.623 278.452 455.087 277.957 456.848C276.659 461.468 275.361 464.886 274.023 468.212C273.769 468.845 273.512 469.475 273.255 470.109C272.158 472.804 271.03 475.576 269.849 479.014C269.505 480.017 269.065 480.813 268.481 481.427C267.896 482.041 267.167 482.469 266.249 482.74C265.774 482.88 265.368 482.79 264.984 482.704L264.912 482.689C264.504 482.599 264.115 482.53 263.661 482.737C263.177 482.958 262.917 483.326 262.666 483.734C262.638 483.78 262.609 483.827 262.581 483.875C262.359 484.242 262.123 484.631 261.726 484.947C260.584 485.857 259.283 485.838 258.012 485.821L257.924 485.819C256.62 485.802 255.351 485.807 254.27 486.792C253.86 487.165 253.491 487.38 253.14 487.496C252.789 487.612 252.46 487.628 252.133 487.608C251.969 487.597 251.806 487.578 251.642 487.558C251.542 487.545 251.441 487.532 251.34 487.521C251.273 487.513 251.207 487.506 251.139 487.5C250.796 487.469 250.434 487.464 250.03 487.543C248.455 487.853 247.204 488.224 245.987 488.585C245.826 488.633 245.665 488.68 245.504 488.727C244.13 489.132 242.751 489.511 240.947 489.76C240.12 489.874 239.235 489.738 238.347 489.519C237.903 489.41 237.457 489.28 237.016 489.15L236.915 489.12C236.508 489 236.107 488.882 235.714 488.78C234.863 488.561 234.062 488.425 233.357 488.532C232.656 488.638 232.047 488.984 231.578 489.737C230.892 490.839 230.902 492.029 231.361 493.126C231.82 494.225 232.728 495.229 233.833 495.948C236.088 497.416 238.991 497.51 241.701 497.003C244.411 496.496 246.918 495.391 248.372 494.47C248.671 494.281 248.938 494.189 249.181 494.18C249.424 494.17 249.639 494.244 249.832 494.379C250.214 494.646 250.514 495.154 250.801 495.73C250.895 495.919 250.988 496.115 251.082 496.314C251.278 496.728 251.479 497.154 251.709 497.548C252.049 498.129 252.445 498.629 252.962 498.901C254.953 499.948 257.162 499.834 259.748 499.701C259.882 499.694 260.016 499.687 260.152 499.68C262.909 499.542 266.079 499.449 269.818 500.745C271.089 501.186 272.185 501.274 273.272 501.363C273.361 501.37 273.449 501.377 273.538 501.384C274.713 501.482 275.894 501.612 277.281 502.224C277.879 502.488 278.322 502.802 278.75 503.105C278.798 503.14 278.846 503.174 278.895 503.208C279.369 503.541 279.844 503.854 280.519 504.069C281.923 504.518 282.882 504.447 283.858 504.253C284.09 504.207 284.324 504.154 284.565 504.099C285.338 503.923 286.189 503.729 287.312 503.697C290.529 503.606 293.278 504.219 296.008 504.828L296.245 504.881C299.053 505.507 301.855 506.106 305.146 505.914C308.453 505.721 311.313 505.563 313.95 505.433V405.126L295.952 346.515L295.952 346.515L295.951 346.51L277.536 253.307L277.535 253.307L277.535 253.302L267.996 149.505L267.996 149.505L258.34 48.0051Z" />
</symbol>
<symbol id="left-2" width="387" height="507" viewBox="0 0 387 507">
<path d="M337.838 324.05H337.789L337.788 324.001C337.263 300.482 337.247 286.524 337.223 266.13C337.218 262.139 337.213 257.901 337.204 253.297C337.105 204.031 336.538 140.957 335.995 90.1992C335.723 64.8204 335.458 42.5208 335.261 26.5658C335.162 18.5884 335.08 12.1971 335.023 7.80016C334.995 5.6017 334.972 3.90183 334.957 2.75157L334.94 1.44479L334.935 1.11251L334.934 1.0365L334.904 1.02684C334.863 1.01365 334.802 0.994761 334.727 0.972037C334.576 0.926582 334.365 0.865804 334.124 0.804533C333.641 0.681712 333.043 0.557986 332.57 0.550008C332.058 0.54136 331.667 0.663889 331.269 0.791039L331.252 0.796469C330.86 0.921878 330.46 1.05001 329.937 1.05001C329.436 1.05001 329.045 0.916158 328.669 0.787097C328.647 0.779587 328.625 0.772094 328.603 0.764644C328.206 0.629047 327.817 0.507178 327.308 0.54984C326.812 0.59137 326.449 0.824481 326.082 1.05966C326.06 1.07423 326.037 1.0888 326.014 1.10334C325.626 1.35139 325.225 1.58734 324.667 1.5499C324.213 1.51948 323.892 1.26316 323.591 1.02294C323.574 1.00965 323.557 0.996405 323.541 0.983252C323.222 0.72964 322.918 0.508213 322.48 0.549791C322.126 0.583402 321.893 0.809924 321.649 1.04796L321.633 1.06305C321.387 1.30258 321.126 1.55001 320.72 1.55001C320.316 1.55001 320.051 1.3437 319.799 1.12037C319.772 1.09606 319.744 1.07158 319.717 1.04712C319.493 0.844732 319.269 0.643139 318.949 0.547928C318.296 0.353089 317.776 0.487785 317.241 0.668801C317.177 0.690257 317.113 0.712394 317.049 0.734701C316.572 0.900208 316.069 1.07504 315.45 1.04997C314.671 1.0184 314.081 0.777937 313.504 0.5425L313.458 0.523923C312.866 0.282573 312.281 0.0521241 311.502 0.0500146C310.537 0.047406 309.828 0.394232 309.109 0.758431L309.052 0.787603C308.353 1.14234 307.638 1.50502 306.676 1.54996C305.708 1.59514 304.972 1.36469 304.243 1.1143C304.194 1.09741 304.145 1.08043 304.095 1.06345C303.415 0.828491 302.728 0.591199 301.843 0.549961C300.402 0.482857 299.298 0.896474 298.191 1.31103L298.13 1.33398C297.003 1.75584 295.867 2.16922 294.379 2.04985C293.365 1.96852 292.597 1.62254 291.849 1.28531C291.81 1.2675 291.77 1.24972 291.731 1.232C290.944 0.878522 290.164 0.550015 289.116 0.550015C288.08 0.550015 287.308 0.924147 286.529 1.3017L286.504 1.31427C285.717 1.6956 284.92 2.07601 283.847 2.05C283.153 2.03319 282.805 1.83966 282.428 1.63027C282.368 1.59696 282.308 1.56326 282.245 1.5298C281.791 1.28856 281.207 1.05001 279.898 1.05001C278.777 1.05001 277.919 1.26999 277.057 1.50558C277.013 1.5177 276.968 1.52987 276.924 1.54205C276.104 1.76655 275.268 1.99568 274.194 2.04995C272.561 2.13246 271.412 1.97607 270.097 1.79698C269.472 1.712 268.811 1.6219 268.042 1.5498C267.344 1.4844 266.76 1.3861 266.207 1.29314C266.011 1.26007 265.818 1.22767 265.626 1.19767C264.893 1.08329 264.162 1.003 263.22 1.04995C262.326 1.09459 261.633 1.32755 260.946 1.55874C260.904 1.57284 260.862 1.58694 260.82 1.60099C260.104 1.84092 259.382 2.06577 258.44 2.05103V47.9977V48L268.096 149.495L268.096 149.495L277.635 253.292L296.048 346.485L296.049 346.49L314.048 405.104L314.05 405.111V405.118V505.427C321.451 505.063 327.105 504.915 335.956 504.805C338.313 504.776 340.295 504.91 342.175 505.036C342.822 505.08 343.456 505.123 344.09 505.158C346.567 505.295 349.033 505.315 352.163 504.806C354.289 504.46 355.655 504.084 357.023 503.705L357.058 503.695C358.415 503.319 359.78 502.941 361.891 502.59C365.217 502.036 367.896 502.036 370.674 502.082C370.909 502.086 371.144 502.09 371.381 502.094C373.944 502.14 376.644 502.188 380.055 501.85C383.52 501.507 386.053 499.114 386.821 495.241C387.085 493.907 386.929 492.813 386.49 491.869C386.05 490.925 385.324 490.126 384.443 489.386C383.648 488.717 382.729 488.098 381.783 487.461C381.681 487.393 381.579 487.324 381.477 487.254C380.425 486.544 379.355 485.804 378.405 484.945C374.764 481.655 369.473 480.087 364.818 478.707L364.722 478.678C362.386 477.986 360.213 477.338 358.503 476.539C356.795 475.74 355.536 474.786 355.043 473.474C353.914 470.474 352.715 467.473 351.537 464.538L351.283 463.905C350.194 461.191 349.13 458.537 348.163 455.998C346.08 450.526 344.451 445.58 344.014 441.694C339.249 399.29 338.7 375.525 337.802 336.594L337.788 336.001L337.787 335.95H337.838C338.444 335.95 339.639 335.703 340.682 334.775C341.722 333.849 342.617 332.238 342.617 329.5C342.617 327.519 341.639 326.157 340.551 325.289C340.006 324.855 339.434 324.545 338.944 324.343C338.452 324.141 338.048 324.05 337.838 324.05Z" />
</symbol>
<symbol id="right-1" width="387" height="507" viewBox="0 0 387 507">
<path d="M119.004 51.0025L119.004 51.0025V51.0004V2.5459C119.681 2.48054 120.252 2.38449 120.793 2.29356C120.989 2.26048 121.182 2.22808 121.374 2.19808C122.107 2.08371 122.838 2.00341 123.78 2.05037C124.674 2.09501 125.367 2.32796 126.054 2.55915C126.096 2.57326 126.138 2.58735 126.18 2.6014C126.909 2.84567 127.644 3.0743 128.612 3.05041C129.683 3.02397 130.478 2.67657 131.265 2.32382L131.315 2.30157C132.086 1.95597 132.854 1.6116 133.881 1.55034C134.996 1.48376 135.852 1.75599 136.715 2.03535L136.743 2.04426C137.597 2.32068 138.462 2.60062 139.586 2.55038C140.141 2.52561 140.579 2.40366 141.002 2.28626C141.046 2.27396 141.09 2.26171 141.134 2.24963C141.598 2.1222 142.057 2.01257 142.654 2.05033C143.048 2.07526 143.353 2.19077 143.658 2.30627C143.684 2.3161 143.71 2.32593 143.736 2.33571C144.068 2.46021 144.407 2.57462 144.854 2.55035C145.215 2.53076 145.486 2.43425 145.751 2.32893C145.78 2.31723 145.809 2.30542 145.839 2.29361C146.074 2.19907 146.311 2.1037 146.616 2.04966C147.542 1.88556 148.269 1.99611 149.003 2.15549C149.128 2.18269 149.253 2.21135 149.38 2.2403C149.997 2.38097 150.644 2.52873 151.434 2.55041C152.585 2.58199 153.513 2.41013 154.409 2.24415C154.521 2.22339 154.633 2.20271 154.745 2.18254C155.748 2.00113 156.743 1.85964 158.012 2.04988C158.352 2.10072 158.626 2.21251 158.895 2.32148C158.963 2.34942 159.031 2.37717 159.1 2.40365C159.436 2.53308 159.778 2.62913 160.223 2.54965C160.613 2.47996 160.871 2.25514 161.117 2.04043L161.125 2.03367C161.375 1.81532 161.615 1.60895 161.978 1.54978C162.494 1.46589 162.867 1.69121 163.255 1.95613C163.283 1.97482 163.31 1.99372 163.338 2.01271C163.699 2.2608 164.083 2.52468 164.601 2.55037C165.238 2.58191 165.707 2.37512 166.167 2.14061C166.219 2.1138 166.272 2.08666 166.324 2.05946C166.732 1.84833 167.145 1.63411 167.684 1.54983C168.873 1.36389 169.795 1.59893 170.726 1.88919C170.831 1.92209 170.937 1.95572 171.043 1.98953C171.874 2.25381 172.739 2.52879 173.821 2.55042C175.142 2.57683 176.177 2.29833 177.191 2.02557C177.244 2.01144 177.296 1.99733 177.349 1.98327C178.414 1.69786 179.471 1.43614 180.841 1.55026C181.646 1.61742 182.27 1.83721 182.887 2.05487C182.932 2.07064 182.976 2.08641 183.021 2.1021C183.683 2.33429 184.351 2.55043 185.234 2.55043C186.104 2.55043 186.766 2.29476 187.415 2.04355L187.447 2.03118C188.107 1.77592 188.759 1.5295 189.622 1.55041C190.376 1.56869 190.948 1.8118 191.522 2.056L191.579 2.08043C192.173 2.33236 192.774 2.57696 193.576 2.5504C194.063 2.53428 194.673 2.40815 195.16 2.28699C195.404 2.22629 195.618 2.1666 195.77 2.12207C195.847 2.09984 195.908 2.08139 195.95 2.06847L195.949 2.21113C195.948 2.34969 195.947 2.55445 195.945 2.81925C195.941 3.34883 195.933 4.11854 195.921 5.07894C195.895 6.99976 195.849 9.68334 195.764 12.7344C195.593 18.8368 195.269 26.4078 194.653 32.2856C193.342 44.7953 192.176 55.7007 191.097 65.7889C187.906 95.6176 185.48 118.302 182.33 154.187C177.149 213.205 170.981 246.531 159.307 304.156C154.648 327.15 146.338 346.996 139.854 359.552C132.556 373.685 118.458 390.571 109.38 399.804C107.339 401.88 103.943 403.446 101.051 404.495C99.6065 405.019 98.2895 405.413 97.3338 405.676C96.8559 405.807 96.4684 405.906 96.2004 405.971C96.0664 406.004 95.9623 406.029 95.8918 406.045L95.8115 406.064L95.7912 406.069L95.786 406.07L95.7848 406.07L95.7844 406.07L95.7452 406.079V406.119V411.66V411.684L95.7643 411.699L95.7952 411.66L95.7643 411.699L95.7652 411.7L95.7681 411.702L95.7795 411.711L95.8247 411.747C95.8643 411.78 95.9227 411.827 95.9976 411.89C96.1475 412.014 96.3632 412.198 96.6266 412.432C97.1533 412.902 97.8705 413.575 98.6318 414.393C100.156 416.03 101.852 418.24 102.557 420.54C103.269 422.86 103.109 426.175 102.768 428.917C102.597 430.286 102.382 431.51 102.21 432.392C102.124 432.833 102.048 433.188 101.994 433.433C101.967 433.555 101.946 433.65 101.931 433.714L101.914 433.787L101.91 433.806L101.908 433.81L101.908 433.811L101.908 433.812L101.908 433.812L101.907 433.819L101.583 437.143L101.581 437.161L101.591 437.176L101.632 437.148L101.591 437.177L101.591 437.177L101.592 437.178L101.594 437.181L101.604 437.195L101.64 437.248C101.673 437.296 101.72 437.366 101.781 437.457C101.903 437.639 102.079 437.904 102.294 438.238C102.726 438.905 103.316 439.843 103.953 440.93C105.226 443.106 106.683 445.872 107.422 448.245C107.98 450.039 108.13 451.527 108.267 453.022L108.282 453.178C108.414 454.623 108.548 456.087 109.043 457.848C110.341 462.468 111.639 465.886 112.977 469.212C113.231 469.845 113.488 470.475 113.745 471.109C114.842 473.804 115.97 476.576 117.151 480.014C117.495 481.017 117.935 481.813 118.519 482.427C119.104 483.041 119.833 483.469 120.751 483.74C121.226 483.88 121.632 483.79 122.016 483.704L122.088 483.689C122.496 483.599 122.885 483.53 123.339 483.737C123.823 483.958 124.083 484.326 124.334 484.734C124.362 484.78 124.391 484.827 124.419 484.875C124.641 485.242 124.877 485.631 125.274 485.947C126.416 486.857 127.717 486.838 128.988 486.821L129.076 486.819C130.38 486.802 131.649 486.807 132.73 487.792C133.14 488.165 133.509 488.38 133.86 488.496C134.211 488.612 134.54 488.628 134.867 488.608C135.031 488.597 135.194 488.578 135.358 488.558L135.419 488.55C135.564 488.532 135.71 488.513 135.861 488.5C136.204 488.469 136.566 488.464 136.97 488.543C138.545 488.853 139.796 489.224 141.013 489.585C141.174 489.633 141.335 489.68 141.496 489.727C142.87 490.132 144.249 490.511 146.053 490.76C146.88 490.874 147.765 490.738 148.653 490.519C149.097 490.41 149.543 490.28 149.984 490.15L150.085 490.12C150.492 490 150.893 489.882 151.286 489.78C152.137 489.561 152.938 489.425 153.643 489.532C154.344 489.638 154.953 489.984 155.422 490.737C156.108 491.839 156.098 493.029 155.639 494.126C155.18 495.225 154.272 496.229 153.167 496.948C150.912 498.416 148.009 498.51 145.299 498.003C142.589 497.496 140.082 496.391 138.628 495.47C138.329 495.281 138.062 495.189 137.819 495.18C137.576 495.17 137.361 495.244 137.168 495.379C136.786 495.646 136.486 496.154 136.199 496.73C136.105 496.919 136.012 497.115 135.918 497.314C135.722 497.728 135.521 498.154 135.291 498.548C134.951 499.129 134.555 499.629 134.038 499.901C132.047 500.948 129.838 500.834 127.252 500.701C127.118 500.694 126.984 500.687 126.848 500.68C124.091 500.542 120.921 500.449 117.182 501.745C115.911 502.186 114.815 502.274 113.728 502.363C113.639 502.37 113.551 502.377 113.462 502.384C112.287 502.482 111.106 502.612 109.719 503.224C109.121 503.488 108.678 503.802 108.25 504.105C108.202 504.14 108.154 504.174 108.105 504.208C107.631 504.541 107.156 504.854 106.481 505.069C105.077 505.518 104.118 505.447 103.142 505.253C102.91 505.207 102.676 505.154 102.435 505.099C101.662 504.923 100.811 504.729 99.6881 504.697C96.4712 504.606 93.7215 505.219 90.9919 505.828L90.7554 505.881C87.9468 506.507 85.1453 507.106 81.8537 506.914C77.9108 506.684 74.6018 506.504 71.55 506.361V406.125L95.8436 311.513L95.8439 311.513L95.8447 311.508L112.858 196.508L112.858 196.508L112.858 196.503L119.004 51.0025Z" />
</symbol>
<symbol id="right-2" width="387" height="507" viewBox="0 0 387 507">
<path d="M49.1617 325.05H49.2106L49.2117 325.001C49.7365 301.482 49.7531 287.524 49.7774 267.13C49.7821 263.139 49.7872 258.901 49.7964 254.297C49.8948 205.031 50.4623 141.957 51.0052 91.1992C51.2766 65.8204 51.5419 43.5208 51.7394 27.5658C51.8381 19.5884 51.9198 13.1971 51.9769 8.80016C52.0054 6.6017 52.0278 4.90183 52.043 3.75157L52.0604 2.44479L52.0649 2.11251L52.0659 2.0365L52.0959 2.02684C52.1374 2.01365 52.1977 1.99476 52.2731 1.97204C52.424 1.92658 52.6351 1.8658 52.8759 1.80453C53.3588 1.68171 53.9572 1.55799 54.4299 1.55001C54.9422 1.54136 55.333 1.66389 55.7306 1.79104L55.7475 1.79647C56.1396 1.92188 56.5402 2.05001 57.0627 2.05001C57.5644 2.05001 57.9548 1.91616 58.3311 1.7871C58.353 1.77959 58.3749 1.77209 58.3967 1.76464C58.7939 1.62905 59.1833 1.50718 59.6922 1.54984C60.1876 1.59137 60.551 1.82448 60.9177 2.05966C60.9404 2.07423 60.9631 2.0888 60.9859 2.10334C61.3743 2.35139 61.7746 2.58734 62.3333 2.5499C62.7873 2.51948 63.1084 2.26316 63.4093 2.02294C63.4259 2.00965 63.4425 1.9964 63.4591 1.98325C63.7781 1.72964 64.082 1.50821 64.52 1.54979C64.8741 1.5834 65.1067 1.80992 65.3512 2.04796L65.3667 2.06305C65.6129 2.30258 65.8744 2.55001 66.2805 2.55001C66.6837 2.55001 66.9494 2.3437 67.201 2.12037C67.2283 2.09606 67.2555 2.07158 67.2827 2.04712C67.5075 1.84473 67.7314 1.64314 68.0506 1.54793C68.7037 1.35309 69.2238 1.48779 69.7595 1.6688C69.8229 1.69026 69.8867 1.71239 69.951 1.7347C70.4277 1.90021 70.9312 2.07504 71.5498 2.04997C72.3289 2.0184 72.9186 1.77794 73.496 1.5425L73.5416 1.52392C74.1339 1.28257 74.7188 1.05212 75.4984 1.05001C76.4626 1.04741 77.1719 1.39423 77.8905 1.75843L77.948 1.7876C78.6473 2.14234 79.3622 2.50502 80.3244 2.54996C81.2918 2.59514 82.0277 2.36469 82.7571 2.1143C82.8063 2.09741 82.8555 2.08043 82.9047 2.06345C83.5851 1.82849 84.2723 1.5912 85.1574 1.54996C86.5976 1.48286 87.7021 1.89647 88.8091 2.31103L88.8704 2.33398C89.9975 2.75584 91.1331 3.16922 92.6211 3.04985C93.6351 2.96852 94.4027 2.62254 95.1509 2.28531C95.1904 2.2675 95.2299 2.24972 95.2693 2.232C96.056 1.87852 96.8357 1.55001 97.8844 1.55001C98.9202 1.55001 99.6918 1.92415 100.471 2.3017L100.496 2.31427C101.283 2.6956 102.08 3.07601 103.153 3.05C103.847 3.03319 104.195 2.83966 104.572 2.63027C104.632 2.59696 104.692 2.56326 104.755 2.5298C105.209 2.28856 105.793 2.05001 107.102 2.05001C108.223 2.05001 109.081 2.26999 109.943 2.50558C109.987 2.5177 110.032 2.52987 110.076 2.54205C110.896 2.76655 111.732 2.99568 112.806 3.04995C114.439 3.13246 115.588 2.97607 116.903 2.79698C117.513 2.71402 118.158 2.62619 118.904 2.55497V51L112.759 196.498L95.7468 311.488L95.7457 311.493L71.4516 406.106L71.45 406.106V406.118V506.355C64.758 506.043 59.2874 505.907 51.0441 505.805C48.687 505.776 46.7052 505.91 44.8253 506.036C44.1785 506.08 43.5437 506.123 42.9099 506.158C40.4334 506.295 37.9666 506.315 34.8372 505.806C32.7114 505.46 31.3451 505.084 29.9774 504.705L29.9416 504.695C28.585 504.319 27.2204 503.941 25.1087 503.59C21.7833 503.036 19.1043 503.036 16.3261 503.082C16.0913 503.086 15.8557 503.09 15.619 503.094C13.0556 503.14 10.3564 503.188 6.94535 502.85C3.48029 502.507 0.947132 500.114 0.17943 496.241C-0.0851028 494.907 0.0708933 493.813 0.510396 492.869C0.950406 491.925 1.67621 491.126 2.55699 490.386C3.35234 489.717 4.27121 489.098 5.21663 488.461C5.31855 488.393 5.42078 488.324 5.5232 488.254C6.57456 487.544 7.64471 486.804 8.59538 485.945C12.236 482.655 17.5268 481.087 22.1815 479.707L22.2776 479.678C24.6141 478.986 26.7866 478.338 28.4965 477.539C30.2054 476.74 31.4639 475.786 31.9574 474.474C33.0863 471.474 34.2853 468.473 35.4625 465.538L35.7166 464.905C36.8057 462.191 37.8703 459.537 38.837 456.998C40.9198 451.526 42.5495 446.58 42.9861 442.694C47.7512 400.29 48.2996 376.525 49.198 337.594L49.2117 337.001L49.2129 336.95H49.1617C48.5557 336.95 47.361 336.703 46.3185 335.775C45.2778 334.849 44.3833 333.238 44.3833 330.5C44.3833 328.519 45.3609 327.157 46.4495 326.289C46.994 325.855 47.5659 325.545 48.0559 325.343C48.5475 325.141 48.9519 325.05 49.1617 325.05Z" />
</symbol>
</svg>
