<svg width="387" height="507" viewBox="0 0 387 507" fill="none" xmlns="http://www.w3.org/2000/svg">
<symbol id="left-1" width="387" height="507" viewBox="0 0 387 507">
<path d="M217.972 253.347C220.742 268.542 223.932 284.587 227.693 303.156C232.352 326.15 240.662 345.996 247.146 358.552C254.444 372.685 268.542 389.571 277.62 398.804C279.661 400.879 283.057 402.446 285.949 403.495C287.393 404.019 288.71 404.412 289.666 404.675C290.144 404.807 290.532 404.905 290.8 404.971C290.853 404.984 290.901 404.996 290.945 405.006C291.011 405.022 291.066 405.035 291.108 405.045L291.188 405.064L291.209 405.068L291.214 405.069L291.215 405.07L291.216 405.07L291.255 405.078V405.119V410.66V410.684L291.236 410.699L291.205 410.66L291.236 410.699L291.236 410.699L291.235 410.7L291.232 410.702L291.22 410.711L291.175 410.747C291.136 410.779 291.077 410.827 291.002 410.889C290.853 411.014 290.637 411.197 290.373 411.432C289.847 411.901 289.13 412.575 288.368 413.393C286.844 415.03 285.148 417.24 284.443 419.54C283.731 421.86 283.891 425.175 284.232 427.916C284.403 429.286 284.618 430.51 284.79 431.391C284.876 431.832 284.952 432.187 285.006 432.432C285.033 432.555 285.054 432.65 285.069 432.714L285.086 432.787L285.09 432.805L285.092 432.81L285.092 432.811L285.092 432.811L285.092 432.811L285.093 432.818L285.417 436.143L285.419 436.161L285.409 436.176L285.368 436.148L285.409 436.176L285.409 436.176L285.408 436.177L285.406 436.181L285.396 436.194L285.36 436.248C285.327 436.295 285.28 436.366 285.219 436.457C285.097 436.639 284.921 436.904 284.706 437.238C284.274 437.904 283.684 438.843 283.047 439.93C281.774 442.105 280.317 444.872 279.578 447.245C279.02 449.039 278.87 450.526 278.733 452.022L278.718 452.178C278.586 453.623 278.452 455.087 277.957 456.847C276.659 461.467 275.361 464.886 274.023 468.212C273.769 468.845 273.513 469.474 273.255 470.108C272.158 472.804 271.03 475.576 269.849 479.014C269.505 480.017 269.065 480.813 268.481 481.426C267.896 482.04 267.167 482.469 266.249 482.74C265.774 482.88 265.368 482.79 264.984 482.704C264.96 482.699 264.936 482.693 264.912 482.688C264.504 482.599 264.115 482.53 263.661 482.737C263.177 482.958 262.917 483.325 262.666 483.734C262.638 483.78 262.609 483.827 262.581 483.875C262.359 484.242 262.123 484.631 261.726 484.947C260.584 485.856 259.283 485.838 258.012 485.82L257.924 485.819C256.62 485.801 255.351 485.806 254.27 486.792C253.86 487.165 253.491 487.38 253.14 487.496C252.789 487.612 252.46 487.628 252.133 487.607C251.969 487.597 251.806 487.578 251.642 487.557L251.58 487.55C251.435 487.531 251.289 487.513 251.139 487.5C250.796 487.469 250.434 487.463 250.03 487.543C248.455 487.853 247.204 488.223 245.987 488.584C245.826 488.632 245.665 488.68 245.504 488.727C244.13 489.131 242.751 489.511 240.947 489.76C240.12 489.874 239.235 489.737 238.347 489.519C237.903 489.409 237.457 489.279 237.016 489.149L236.912 489.119C236.507 488.999 236.106 488.881 235.714 488.78C234.863 488.561 234.062 488.425 233.357 488.532C232.656 488.638 232.047 488.984 231.578 489.737C230.892 490.838 230.902 492.029 231.361 493.126C231.82 494.225 232.728 495.229 233.833 495.948C236.088 497.415 238.991 497.51 241.701 497.003C244.411 496.496 246.918 495.39 248.372 494.47C248.671 494.281 248.938 494.189 249.181 494.179C249.424 494.17 249.639 494.244 249.832 494.379C250.214 494.646 250.514 495.153 250.801 495.73C250.895 495.918 250.988 496.115 251.082 496.314C251.278 496.728 251.479 497.154 251.709 497.547C252.049 498.129 252.445 498.629 252.962 498.901C254.953 499.947 257.162 499.834 259.748 499.701C259.882 499.694 260.016 499.687 260.152 499.68C262.909 499.541 266.079 499.449 269.818 500.745C271.089 501.185 272.184 501.274 273.272 501.362C273.36 501.369 273.449 501.377 273.537 501.384C274.713 501.482 275.894 501.612 277.281 502.224C277.879 502.488 278.322 502.802 278.75 503.105C278.798 503.139 278.846 503.173 278.895 503.207C279.369 503.541 279.844 503.854 280.519 504.069C281.923 504.517 282.882 504.447 283.858 504.253C284.09 504.207 284.324 504.154 284.565 504.099C285.338 503.923 286.188 503.729 287.312 503.697C290.529 503.606 293.278 504.219 296.008 504.828L296.245 504.881C299.053 505.506 301.855 506.106 305.146 505.914C317.794 505.175 323.919 504.955 335.956 504.805C338.313 504.776 340.295 504.91 342.175 505.037C342.821 505.08 343.456 505.123 344.09 505.158C346.567 505.295 349.033 505.315 352.163 504.806C354.289 504.46 355.655 504.084 357.023 503.705L357.058 503.695C358.415 503.319 359.78 502.941 361.891 502.59C365.217 502.036 367.896 502.036 370.674 502.082C370.909 502.086 371.144 502.09 371.381 502.094C373.945 502.14 376.644 502.188 380.055 501.85C383.52 501.507 386.053 499.114 386.821 495.241C387.085 493.907 386.929 492.813 386.49 491.869C386.05 490.925 385.324 490.126 384.443 489.386C383.648 488.717 382.729 488.098 381.783 487.461C381.681 487.393 381.579 487.324 381.477 487.255C380.425 486.544 379.355 485.804 378.405 484.945C374.764 481.655 369.473 480.087 364.818 478.707L364.722 478.679C362.386 477.986 360.213 477.338 358.503 476.539C356.795 475.74 355.536 474.786 355.043 473.474C353.914 470.474 352.715 467.473 351.537 464.538L351.284 463.906C350.195 461.191 349.13 458.537 348.163 455.998C346.08 450.526 344.451 445.58 344.014 441.694C339.249 399.29 338.7 375.526 337.802 336.594V336.594L337.788 336.001L337.787 335.95H337.838C338.444 335.95 339.639 335.703 340.682 334.775C341.722 333.849 342.617 332.238 342.617 329.5C342.617 327.519 341.639 326.157 340.551 325.289C340.006 324.855 339.434 324.545 338.944 324.343C338.452 324.141 338.048 324.05 337.838 324.05H337.789L337.788 324.001C337.263 300.482 337.247 286.524 337.223 266.13C337.218 262.153 337.213 257.932 337.204 253.347H217.972Z" />
</symbol>
<symbol id="left-2" width="387" height="507" viewBox="0 0 387 507">
<path d="M337.204 253.247C337.105 203.988 336.538 140.94 335.995 90.1992C335.724 64.8204 335.458 42.5208 335.261 26.5658C335.162 18.5884 335.08 12.1971 335.023 7.80016C334.995 5.6017 334.972 3.90183 334.957 2.75157L334.94 1.44479L334.935 1.11251L334.934 1.0365L334.904 1.02684C334.863 1.01365 334.803 0.994761 334.727 0.972037C334.576 0.926582 334.365 0.865804 334.124 0.804533C333.641 0.681712 333.043 0.557986 332.57 0.550008C332.058 0.54136 331.667 0.663889 331.27 0.791039L331.253 0.796469C330.861 0.921878 330.46 1.05001 329.938 1.05001C329.436 1.05001 329.045 0.916159 328.669 0.787099C328.647 0.779589 328.625 0.772094 328.604 0.764644C328.206 0.629047 327.817 0.507178 327.308 0.54984C326.813 0.59137 326.449 0.824484 326.083 1.05967C326.06 1.07423 326.037 1.0888 326.014 1.10334C325.626 1.35139 325.226 1.58734 324.667 1.5499C324.213 1.51948 323.892 1.26316 323.591 1.02294C323.574 1.00965 323.558 0.996405 323.541 0.983252C323.222 0.72964 322.918 0.508213 322.48 0.549791C322.126 0.583402 321.894 0.809923 321.649 1.04795L321.634 1.06305C321.387 1.30258 321.126 1.55001 320.72 1.55001C320.317 1.55001 320.051 1.3437 319.799 1.12037C319.772 1.09607 319.745 1.07159 319.718 1.04712C319.493 0.844737 319.269 0.64314 318.95 0.547928C318.297 0.353089 317.776 0.487785 317.241 0.668801C317.177 0.690257 317.114 0.712395 317.049 0.734702C316.573 0.900209 316.069 1.07504 315.45 1.04997C314.671 1.0184 314.082 0.777936 313.504 0.542498C313.489 0.536302 313.474 0.530109 313.459 0.523923C312.866 0.282573 312.281 0.0521241 311.502 0.0500146C310.538 0.047406 309.828 0.394232 309.11 0.758431C309.091 0.768145 309.071 0.777872 309.052 0.787605C308.353 1.14234 307.638 1.50502 306.676 1.54996C305.708 1.59514 304.973 1.36469 304.243 1.1143C304.194 1.09741 304.145 1.08043 304.096 1.06344C303.415 0.82849 302.728 0.591199 301.843 0.549961C300.403 0.482857 299.298 0.896474 298.191 1.31103L298.13 1.33398C297.003 1.75584 295.867 2.16922 294.379 2.04985C293.365 1.96852 292.598 1.62254 291.849 1.28531C291.81 1.2675 291.77 1.24972 291.731 1.232C290.944 0.878522 290.165 0.550015 289.116 0.550015C288.08 0.550015 287.308 0.924147 286.53 1.3017L286.504 1.31427C285.717 1.6956 284.921 2.07601 283.847 2.05C283.154 2.03319 282.805 1.83966 282.428 1.63027C282.368 1.59696 282.308 1.56326 282.245 1.5298C281.791 1.28856 281.207 1.05001 279.898 1.05001C278.778 1.05001 277.92 1.26999 277.057 1.50558C277.013 1.5177 276.968 1.52987 276.924 1.54205C276.105 1.76655 275.268 1.99568 274.194 2.04995C272.561 2.13246 271.412 1.97607 270.097 1.79698C269.473 1.712 268.811 1.6219 268.042 1.5498C267.344 1.4844 266.76 1.3861 266.208 1.29314C266.011 1.26007 265.819 1.22767 265.626 1.19767C264.893 1.08329 264.162 1.003 263.221 1.04995C262.326 1.09459 261.633 1.32754 260.946 1.55873C260.904 1.57284 260.862 1.58694 260.82 1.60099C260.091 1.84526 259.356 2.07388 258.389 2.05C257.318 2.02356 256.522 1.67616 255.735 1.32341L255.685 1.30115C254.914 0.955552 254.146 0.611187 253.119 0.549926C252.004 0.483347 251.149 0.755578 250.285 1.03494L250.258 1.04385C249.403 1.32027 248.538 1.60021 247.414 1.54996C246.86 1.5252 246.421 1.40324 245.999 1.28585C245.954 1.27355 245.91 1.2613 245.866 1.24922C245.402 1.12178 244.943 1.01216 244.347 1.04991C243.953 1.07485 243.647 1.19035 243.342 1.30586C243.316 1.31569 243.29 1.32552 243.264 1.3353C242.932 1.45979 242.594 1.57421 242.146 1.54994C241.785 1.53035 241.514 1.43384 241.25 1.32852C241.22 1.31681 241.191 1.30501 241.161 1.2932C240.926 1.19865 240.689 1.10329 240.384 1.04925C239.458 0.885149 238.732 0.9957 237.998 1.15508C237.872 1.18227 237.747 1.21093 237.62 1.23989C237.003 1.38056 236.356 1.52832 235.566 1.55C234.416 1.58157 233.487 1.40972 232.591 1.24374C232.479 1.22297 232.367 1.2023 232.256 1.18213C231.253 1.00072 230.257 0.859222 228.988 1.04946C228.649 1.1003 228.374 1.2121 228.106 1.32107C228.037 1.349 227.969 1.37675 227.9 1.40324C227.564 1.53267 227.222 1.62872 226.777 1.54924C226.387 1.47954 226.129 1.25473 225.883 1.04002L225.876 1.03325C225.625 0.81491 225.386 0.60854 225.022 0.549366C224.507 0.465478 224.134 0.690796 223.745 0.955718C223.718 0.974408 223.69 0.993305 223.663 1.01229C223.302 1.26038 222.918 1.52427 222.399 1.54995C221.762 1.5815 221.293 1.37471 220.833 1.1402C220.781 1.11339 220.729 1.08624 220.676 1.05905C220.269 0.847918 219.855 0.633696 219.316 0.549415C218.127 0.363479 217.205 0.598519 216.274 0.888773C216.169 0.921676 216.063 0.955308 215.957 0.989115C215.126 1.25339 214.262 1.52838 213.18 1.55C211.858 1.57641 210.823 1.29792 209.809 1.02516C209.756 1.01103 209.704 0.996915 209.651 0.982859C208.587 0.697445 207.529 0.435726 206.16 0.549842C205.354 0.61701 204.73 0.836796 204.113 1.05445C204.069 1.07023 204.024 1.08599 203.979 1.10169C203.317 1.33387 202.649 1.55001 201.766 1.55001C200.896 1.55001 200.235 1.29433 199.585 1.04313L199.553 1.03077C198.893 0.775512 198.241 0.529085 197.378 0.55C196.624 0.568273 196.052 0.811389 195.478 1.05558L195.421 1.08002C194.828 1.33194 194.226 1.57654 193.424 1.54999C192.938 1.53387 192.327 1.40774 191.84 1.28658C191.596 1.22588 191.383 1.16618 191.23 1.12166C191.154 1.09943 191.093 1.08097 191.051 1.06805L191.051 1.21072C191.052 1.34927 191.053 1.55404 191.055 1.81883C191.06 2.34842 191.067 3.11813 191.08 4.07853C191.105 5.99935 191.151 8.68293 191.237 11.734C191.407 17.8364 191.731 25.4074 192.347 31.2852C193.658 43.7946 194.825 54.6997 195.904 64.7877C199.094 94.6168 201.52 117.301 204.67 153.187C208.178 193.146 212.139 221.328 217.954 253.247H337.204Z" />
</symbol>
<symbol id="right-1" width="387" height="507" viewBox="0 0 387 507">
<path d="M49.7962 254.247C49.8949 204.988 50.4622 141.94 51.0049 91.1992C51.2764 65.8204 51.5417 43.5208 51.7391 27.5658C51.8378 19.5884 51.9196 13.1971 51.9766 8.80016C52.0052 6.6017 52.0275 4.90183 52.0428 3.75157L52.0602 2.44479L52.0646 2.11251L52.0656 2.0365L52.0957 2.02684C52.1371 2.01365 52.1974 1.99476 52.2729 1.97204C52.4237 1.92658 52.6348 1.8658 52.8757 1.80453C53.3585 1.68171 53.9569 1.55799 54.4296 1.55001C54.9419 1.54136 55.3327 1.66389 55.7303 1.79104L55.7473 1.79647C56.1393 1.92188 56.5399 2.05001 57.0624 2.05001C57.5642 2.05001 57.9545 1.91616 58.3309 1.7871C58.3528 1.77959 58.3746 1.77209 58.3964 1.76464C58.7937 1.62905 59.183 1.50718 59.6919 1.54984C60.1873 1.59137 60.5507 1.82448 60.9174 2.05967C60.9401 2.07423 60.9628 2.0888 60.9856 2.10334C61.3741 2.35139 61.7744 2.58734 62.3331 2.5499C62.7871 2.51948 63.1081 2.26316 63.409 2.02294C63.4257 2.00965 63.4423 1.99641 63.4588 1.98325C63.7778 1.72964 64.0817 1.50821 64.5197 1.54979C64.8738 1.5834 65.1065 1.80992 65.351 2.04795L65.3665 2.06305C65.6127 2.30258 65.8742 2.55001 66.2802 2.55001C66.6834 2.55001 66.9492 2.3437 67.2007 2.12037C67.2281 2.09607 67.2552 2.07159 67.2824 2.04712C67.5072 1.84474 67.7311 1.64314 68.0503 1.54793C68.7034 1.35309 69.2235 1.48779 69.7592 1.6688C69.8227 1.69026 69.8864 1.7124 69.9507 1.7347C70.4274 1.90021 70.931 2.07504 71.5496 2.04997C72.3286 2.0184 72.9184 1.77794 73.4957 1.5425C73.5109 1.5363 73.5261 1.53011 73.5413 1.52392C74.1336 1.28257 74.7185 1.05212 75.4982 1.05001C76.4623 1.04741 77.1717 1.39423 77.8902 1.75843C77.9094 1.76815 77.9286 1.77787 77.9478 1.78761C78.647 2.14234 79.3619 2.50502 80.3241 2.54996C81.2915 2.59514 82.0274 2.36469 82.7568 2.1143C82.806 2.09741 82.8552 2.08043 82.9044 2.06344C83.5848 1.82849 84.272 1.5912 85.1571 1.54996C86.5973 1.48286 87.7018 1.89647 88.8088 2.31103L88.8701 2.33398C89.9972 2.75584 91.1328 3.16922 92.6208 3.04985C93.6348 2.96852 94.4024 2.62254 95.1506 2.28531C95.1901 2.2675 95.2296 2.24972 95.269 2.232C96.0557 1.87852 96.8354 1.55001 97.8842 1.55001C98.9199 1.55001 99.6916 1.92415 100.47 2.3017L100.496 2.31427C101.283 2.6956 102.079 3.07601 103.153 3.05C103.846 3.03319 104.195 2.83966 104.572 2.63027C104.632 2.59696 104.692 2.56326 104.755 2.5298C105.209 2.28856 105.793 2.05001 107.102 2.05001C108.222 2.05001 109.08 2.26999 109.943 2.50558C109.987 2.5177 110.032 2.52987 110.076 2.54205C110.895 2.76655 111.732 2.99568 112.806 3.04995C114.439 3.13246 115.588 2.97607 116.903 2.79698C117.527 2.712 118.189 2.6219 118.958 2.5498C119.656 2.4844 120.24 2.3861 120.792 2.29314C120.989 2.26007 121.181 2.22767 121.374 2.19767C122.107 2.08329 122.838 2.003 123.779 2.04995C124.674 2.09459 125.367 2.32754 126.054 2.55873C126.096 2.57284 126.138 2.58694 126.18 2.60099C126.909 2.84526 127.644 3.07388 128.611 3.05C129.682 3.02356 130.478 2.67616 131.265 2.32341L131.315 2.30115C132.086 1.95555 132.854 1.61119 133.881 1.54993C134.996 1.48335 135.851 1.75558 136.715 2.03494L136.742 2.04385C137.597 2.32027 138.462 2.60021 139.586 2.54996C140.14 2.5252 140.579 2.40324 141.001 2.28585C141.046 2.27355 141.09 2.2613 141.134 2.24922C141.598 2.12178 142.057 2.01216 142.653 2.04991C143.047 2.07485 143.353 2.19035 143.658 2.30586C143.684 2.31569 143.71 2.32552 143.736 2.3353C144.068 2.45979 144.406 2.57421 144.854 2.54994C145.215 2.53035 145.486 2.43384 145.75 2.32852C145.78 2.31681 145.809 2.30501 145.839 2.2932C146.074 2.19865 146.311 2.10329 146.616 2.04925C147.542 1.88515 148.268 1.9957 149.002 2.15508C149.128 2.18227 149.253 2.21093 149.38 2.23989C149.997 2.38056 150.644 2.52832 151.434 2.55C152.584 2.58157 153.513 2.40972 154.409 2.24374C154.521 2.22297 154.633 2.2023 154.744 2.18213C155.747 2.00072 156.743 1.85922 158.012 2.04946C158.351 2.1003 158.626 2.2121 158.894 2.32107C158.963 2.349 159.031 2.37675 159.1 2.40324C159.436 2.53267 159.778 2.62872 160.223 2.54924C160.613 2.47954 160.871 2.25473 161.117 2.04002L161.124 2.03325C161.375 1.81491 161.614 1.60854 161.978 1.54937C162.493 1.46548 162.866 1.6908 163.255 1.95572C163.282 1.97441 163.31 1.99331 163.337 2.01229C163.698 2.26038 164.082 2.52427 164.601 2.54995C165.238 2.5815 165.707 2.37471 166.167 2.1402C166.219 2.11339 166.271 2.08624 166.324 2.05905C166.731 1.84792 167.145 1.6337 167.684 1.54941C168.873 1.36348 169.795 1.59852 170.726 1.88877C170.831 1.92168 170.937 1.95531 171.043 1.98912C171.874 2.25339 172.738 2.52838 173.82 2.55C175.142 2.57641 176.177 2.29792 177.191 2.02516C177.244 2.01103 177.296 1.99692 177.349 1.98286C178.413 1.69745 179.471 1.43573 180.84 1.54984C181.646 1.61701 182.27 1.8368 182.887 2.05445C182.931 2.07023 182.976 2.08599 183.021 2.10169C183.683 2.33387 184.351 2.55001 185.234 2.55001C186.104 2.55001 186.765 2.29433 187.415 2.04313L187.447 2.03077C188.107 1.77551 188.759 1.52908 189.622 1.55C190.376 1.56827 190.948 1.81139 191.522 2.05558L191.579 2.08002C192.172 2.33194 192.774 2.57654 193.576 2.54999C194.062 2.53387 194.673 2.40774 195.16 2.28658C195.404 2.22588 195.617 2.16618 195.77 2.12166C195.846 2.09943 195.907 2.08097 195.949 2.06805L195.949 2.21072C195.948 2.34927 195.947 2.55404 195.945 2.81883C195.94 3.34842 195.933 4.11813 195.92 5.07853C195.895 6.99935 195.849 9.68293 195.763 12.734C195.593 18.8364 195.269 26.4074 194.653 32.2852C193.342 44.7946 192.175 55.6997 191.096 65.7877C187.906 95.6168 185.48 118.301 182.33 154.187C178.822 194.146 174.861 222.328 169.046 254.247H49.7962Z" />
</symbol>
<symbol id="right-2" width="387" height="507" viewBox="0 0 387 507">
<path d="M169.028 254.347C166.258 269.542 163.068 285.587 159.307 304.155C154.648 327.149 146.338 346.995 139.854 359.552C132.556 373.684 118.458 390.57 109.38 399.804C107.339 401.879 103.943 403.446 101.051 404.494C99.6065 405.018 98.2895 405.412 97.3338 405.675C96.8559 405.806 96.4684 405.905 96.2004 405.971C96.1472 405.984 96.0988 405.996 96.0552 406.006C95.9891 406.022 95.9343 406.035 95.8918 406.045L95.8115 406.063L95.7912 406.068L95.786 406.069L95.7848 406.069L95.7844 406.07L95.7452 406.078V406.118V411.659V411.684L95.7643 411.699L95.7952 411.659L95.7643 411.699L95.7645 411.699L95.7652 411.699L95.7681 411.702L95.7795 411.711L95.8247 411.747C95.8643 411.779 95.9227 411.827 95.9977 411.889C96.1475 412.014 96.3632 412.197 96.6266 412.432C97.1533 412.901 97.8705 413.575 98.6318 414.393C100.156 416.03 101.852 418.239 102.557 420.539C103.269 422.859 103.109 426.174 102.768 428.916C102.597 430.285 102.382 431.509 102.21 432.391C102.124 432.832 102.048 433.187 101.994 433.432C101.967 433.554 101.946 433.649 101.931 433.714L101.914 433.787L101.91 433.805L101.908 433.81L101.908 433.811L101.908 433.811L101.908 433.811L101.907 433.818L101.583 437.143L101.581 437.161L101.591 437.176L101.632 437.148L101.591 437.176L101.591 437.176L101.592 437.177L101.594 437.18L101.604 437.194L101.64 437.248C101.673 437.295 101.72 437.365 101.781 437.456C101.903 437.638 102.079 437.904 102.294 438.237C102.726 438.904 103.316 439.843 103.953 440.93C105.226 443.105 106.683 445.872 107.422 448.244C107.98 450.039 108.13 451.526 108.267 453.022L108.282 453.178C108.414 454.623 108.548 456.087 109.043 457.847C110.341 462.467 111.639 465.886 112.977 469.211C113.231 469.844 113.487 470.474 113.745 471.108C114.842 473.804 115.97 476.576 117.151 480.014C117.495 481.017 117.935 481.813 118.519 482.426C119.104 483.04 119.833 483.468 120.751 483.739C121.226 483.879 121.632 483.789 122.016 483.704C122.04 483.699 122.064 483.693 122.088 483.688C122.496 483.598 122.885 483.53 123.339 483.737C123.823 483.958 124.083 484.325 124.334 484.733C124.362 484.78 124.391 484.827 124.419 484.874C124.641 485.241 124.877 485.63 125.274 485.947C126.416 486.856 127.717 486.838 128.988 486.82L129.076 486.819C130.38 486.801 131.649 486.806 132.73 487.792C133.14 488.165 133.509 488.38 133.86 488.496C134.211 488.612 134.54 488.627 134.867 488.607C135.031 488.597 135.194 488.577 135.358 488.557L135.42 488.549C135.565 488.531 135.711 488.513 135.861 488.499C136.204 488.469 136.566 488.463 136.97 488.543C138.545 488.852 139.796 489.223 141.013 489.584C141.174 489.632 141.335 489.68 141.496 489.727C142.87 490.131 144.249 490.51 146.053 490.759C146.88 490.874 147.765 490.737 148.653 490.519C149.097 490.409 149.543 490.279 149.984 490.149L150.088 490.119C150.493 489.999 150.894 489.881 151.286 489.78C152.137 489.561 152.938 489.425 153.643 489.532C154.344 489.638 154.953 489.984 155.422 490.736C156.108 491.838 156.098 493.029 155.639 494.126C155.18 495.224 154.272 496.228 153.167 496.948C150.912 498.415 148.009 498.509 145.299 498.002C142.589 497.496 140.082 496.39 138.628 495.47C138.329 495.28 138.062 495.189 137.819 495.179C137.576 495.17 137.361 495.244 137.168 495.379C136.786 495.645 136.486 496.153 136.199 496.73C136.105 496.918 136.012 497.114 135.918 497.313C135.722 497.728 135.521 498.154 135.291 498.547C134.951 499.129 134.555 499.628 134.038 499.9C132.047 500.947 129.838 500.833 127.252 500.7C127.118 500.693 126.984 500.687 126.848 500.68C124.091 500.541 120.921 500.448 117.182 501.744C115.911 502.185 114.816 502.274 113.728 502.362C113.64 502.369 113.551 502.376 113.463 502.384C112.287 502.481 111.106 502.612 109.719 503.224C109.121 503.487 108.678 503.802 108.25 504.105C108.202 504.139 108.154 504.173 108.105 504.207C107.631 504.541 107.156 504.853 106.481 505.069C105.077 505.517 104.118 505.446 103.142 505.253C102.91 505.207 102.676 505.153 102.435 505.098C101.662 504.922 100.812 504.729 99.6881 504.697C96.4713 504.605 93.7217 505.219 90.9922 505.828L90.7554 505.88C87.9468 506.506 85.1453 507.106 81.8537 506.913C69.2058 506.175 63.0812 505.954 51.0441 505.805C48.687 505.776 46.7053 505.91 44.8253 506.036C44.1785 506.08 43.5437 506.123 42.9099 506.158C40.4334 506.295 37.9666 506.314 34.8372 505.806C32.7114 505.46 31.3451 505.084 29.9774 504.705L29.9416 504.695C28.585 504.319 27.2204 503.941 25.1087 503.589C21.7833 503.036 19.1043 503.036 16.3261 503.082C16.0912 503.086 15.8556 503.09 15.6188 503.094C13.0555 503.14 10.3563 503.188 6.94535 502.85C3.48029 502.507 0.947132 500.114 0.17943 496.241C-0.0851028 494.907 0.0708933 493.813 0.510396 492.869C0.950406 491.924 1.67621 491.126 2.55699 490.386C3.3524 489.717 4.27136 489.098 5.21686 488.461C5.31871 488.392 5.42086 488.323 5.5232 488.254C6.57456 487.544 7.64471 486.804 8.59538 485.945C12.236 482.655 17.5268 481.087 22.1815 479.707L22.2776 479.678C24.6141 478.986 26.7866 478.338 28.4965 477.539C30.2054 476.74 31.4639 475.786 31.9574 474.474C33.0863 471.474 34.2853 468.473 35.4625 465.538L35.7164 464.905C36.8055 462.191 37.8703 459.537 38.837 456.998C40.9198 451.526 42.5495 446.58 42.9861 442.694C47.7512 400.29 48.2996 376.525 49.198 337.594V337.594L49.2117 337.001L49.2129 336.95H49.1617C48.5557 336.95 47.361 336.703 46.3185 335.775C45.2778 334.848 44.3833 333.238 44.3833 330.5C44.3833 328.519 45.3609 327.157 46.4495 326.289C46.994 325.855 47.5659 325.545 48.0559 325.343C48.5475 325.141 48.9519 325.05 49.1617 325.05H49.2106L49.2117 325.001C49.7365 301.482 49.7531 287.524 49.7774 267.13C49.7821 263.153 49.7871 258.932 49.7963 254.347H169.028Z" />
</svg>
