<svg width="889" height="506" viewBox="0 0 889 506" fill="none" xmlns="http://www.w3.org/2000/svg">
<g clip-path="url(#clip0_2_32586)">
<g clip-path="url(#clip1_2_32586)">
<path d="M191.833 331.05C186.974 342.043 181.605 351.457 176.972 358.547C167.738 372.68 149.9 389.566 138.412 398.8C135.828 400.877 131.529 402.445 127.869 403.494C126.04 404.018 124.373 404.412 123.163 404.675C122.558 404.806 122.068 404.905 121.729 404.971C121.675 404.981 121.624 404.991 121.578 404.999C121.479 405.018 121.399 405.033 121.338 405.045L121.236 405.063L121.21 405.068L121.204 405.069L121.202 405.069L121.202 405.069C121.202 405.069 121.202 405.069 121.202 405.07L121.202 405.069L121.16 405.076V405.118V410.659V410.687L121.184 410.702L121.21 410.659L121.184 410.702L121.184 410.702L121.185 410.703L121.189 410.705L121.203 410.714L121.26 410.75C121.311 410.782 121.385 410.83 121.479 410.893C121.669 411.017 121.942 411.201 122.275 411.436C122.942 411.905 123.85 412.579 124.813 413.397C126.742 415.035 128.888 417.244 129.78 419.543C130.68 421.86 130.477 425.173 130.046 427.915C129.831 429.284 129.559 430.507 129.341 431.389C129.232 431.83 129.136 432.185 129.068 432.429C129.034 432.552 129.006 432.647 128.987 432.711L128.966 432.784L128.96 432.802L128.959 432.807L128.959 432.808L128.959 432.808L128.958 432.808L128.957 432.817L128.546 436.142L128.544 436.164L128.558 436.181L128.596 436.148L128.558 436.181L128.559 436.181L128.559 436.182L128.562 436.185L128.574 436.199L128.621 436.252C128.661 436.3 128.721 436.37 128.798 436.461C128.953 436.643 129.175 436.909 129.448 437.242C129.994 437.909 130.741 438.847 131.546 439.935C133.158 442.11 135.001 444.876 135.935 447.248C136.642 449.041 136.831 450.528 137.005 452.023L137.023 452.179C137.19 453.624 137.36 455.089 137.986 456.851C139.629 461.471 141.271 464.89 142.964 468.215C143.286 468.849 143.611 469.478 143.937 470.113C145.325 472.808 146.751 475.58 148.246 479.017C148.682 480.022 149.238 480.818 149.977 481.43C150.716 482.043 151.635 482.47 152.794 482.74C153.389 482.879 153.897 482.79 154.384 482.704C154.414 482.699 154.444 482.694 154.474 482.689C154.99 482.599 155.489 482.529 156.071 482.739C156.688 482.961 157.018 483.331 157.335 483.738C157.371 483.784 157.407 483.831 157.443 483.879C157.724 484.246 158.021 484.635 158.523 484.95C159.963 485.856 161.602 485.838 163.211 485.82L163.321 485.819C164.971 485.801 166.584 485.806 167.958 486.795C168.995 487.542 169.821 487.648 170.647 487.607C170.882 487.596 171.114 487.573 171.351 487.549C171.95 487.49 172.574 487.428 173.314 487.543C175.308 487.853 176.891 488.224 178.431 488.585C178.635 488.633 178.838 488.68 179.042 488.728C180.78 489.132 182.524 489.511 184.805 489.76C185.847 489.873 186.963 489.737 188.086 489.519C188.647 489.41 189.212 489.28 189.769 489.15L189.899 489.12C190.413 489 190.921 488.882 191.417 488.781C193.575 488.341 195.485 488.237 196.67 489.741C197.538 490.841 197.524 492.027 196.945 493.122C196.365 494.22 195.216 495.224 193.815 495.945C190.956 497.416 187.275 497.51 183.843 497.002C180.412 496.495 177.237 495.388 175.395 494.467C174.64 494.089 174.058 494.107 173.572 494.376C173.091 494.641 172.712 495.148 172.348 495.725C172.229 495.914 172.111 496.11 171.992 496.309C171.744 496.723 171.489 497.149 171.199 497.543C170.77 498.124 170.268 498.625 169.609 498.899C167.085 499.947 164.284 499.834 161.013 499.701C160.843 499.694 160.673 499.687 160.501 499.68C157.012 499.541 153.005 499.449 148.278 500.744C146.668 501.185 145.279 501.274 143.903 501.362C143.791 501.369 143.679 501.376 143.567 501.384C142.08 501.481 140.588 501.612 138.838 502.222C138.083 502.485 137.523 502.799 136.982 503.102C136.921 503.136 136.86 503.17 136.799 503.204C136.198 503.538 135.595 503.852 134.739 504.068C132.957 504.518 131.739 504.447 130.502 504.252C130.207 504.206 129.911 504.153 129.605 504.098C128.627 503.922 127.554 503.729 126.135 503.697C122.068 503.606 118.591 504.219 115.137 504.827L114.838 504.88C111.285 505.506 107.737 506.106 103.569 505.913C87.5655 505.175 79.8164 504.954 64.5862 504.805C61.6048 504.776 59.0986 504.91 56.7202 505.036C55.9016 505.08 55.098 505.123 54.2955 505.158C51.1609 505.295 48.0379 505.315 44.0759 504.806C41.3848 504.46 39.6551 504.083 37.9244 503.704L37.8793 503.694C36.1628 503.318 34.4371 502.941 31.7664 502.589C27.5609 502.036 24.1728 502.036 20.6579 502.082C20.3606 502.086 20.0623 502.09 19.7626 502.094C16.5193 502.14 13.1028 502.188 8.78566 501.85C4.38759 501.506 1.18344 499.106 0.213474 495.239C-0.120566 493.907 0.0762331 492.816 0.631533 491.874C1.18807 490.929 2.10672 490.13 3.22233 489.389C4.22933 488.72 5.39273 488.101 6.58895 487.464C6.71786 487.395 6.84715 487.326 6.97667 487.257C8.30692 486.547 9.66025 485.807 10.8624 484.949C15.4715 481.657 22.1695 480.088 28.0583 478.708L28.1815 478.679C31.1382 477.986 33.8855 477.339 36.0474 476.54C38.2063 475.743 39.7971 474.791 40.4219 473.478C41.8502 470.478 43.3672 467.477 44.8568 464.542C44.9639 464.331 45.0707 464.121 45.1774 463.911C46.5557 461.196 47.9032 458.542 49.1266 456.002C51.7619 450.53 53.8245 445.583 54.3772 441.696C60.4065 399.291 61.1005 375.526 62.2373 336.594V336.594L62.2546 336.001L62.2561 335.95H62.2046C61.5089 335.95 60.2079 335.749 58.9896 335.027C57.7847 334.314 56.6602 333.092 56.2807 331.05H191.833Z"  />
<path d="M62.2031 324.05H62.2517L62.2531 324.001C62.9172 300.482 62.9382 286.524 62.9689 266.13C62.9749 262.139 62.9813 257.901 62.9929 253.297C63.0642 225.105 63.3298 192.39 63.6728 160.05H229.934C223.533 214.869 215.773 247.8 201.584 303.153C199.028 313.123 195.604 322.501 191.875 330.95H56.2614C56.1852 330.506 56.1438 330.024 56.1438 329.5C56.1438 327.524 57.3775 326.163 58.7586 325.292C59.4487 324.857 60.1738 324.547 60.7954 324.344C61.4182 324.142 61.9331 324.05 62.2031 324.05Z"  />
<path d="M65.8659 1.05794L65.8662 1.03895L65.9106 1.02768C65.9631 1.01447 66.0395 0.995555 66.1351 0.972803C66.3262 0.927294 66.5936 0.866444 66.8988 0.805096C67.5099 0.682227 68.2693 0.558028 68.8703 0.55001C69.5227 0.541305 70.0205 0.664752 70.5235 0.791891L70.5441 0.797108C71.0406 0.922617 71.5445 1.05001 72.202 1.05001C72.8329 1.05001 73.3235 0.917057 73.8001 0.787902C73.8276 0.780446 73.8551 0.773003 73.8826 0.765599C74.3854 0.62994 74.8819 0.506896 75.5311 0.549905C76.1636 0.591811 76.6275 0.826998 77.0903 1.06168C77.1194 1.07642 77.1485 1.09115 77.1776 1.10584C77.6696 1.35414 78.1708 1.58694 78.8694 1.54994C79.4369 1.51989 79.8387 1.26645 80.221 1.0253C80.2416 1.0123 80.2621 0.999341 80.2826 0.98645C80.6849 0.73369 81.0755 0.507524 81.64 0.549875C82.0955 0.584042 82.3939 0.813702 82.7007 1.0498C82.7081 1.05548 82.7154 1.06116 82.7228 1.06685C83.0362 1.3078 83.3619 1.55001 83.8654 1.55001C84.3663 1.55001 84.6977 1.34778 85.0167 1.12391C85.0513 1.09965 85.0857 1.07517 85.1202 1.05066C85.404 0.848633 85.6902 0.644937 86.0984 0.54868C86.9319 0.35216 87.596 0.488474 88.2747 0.669739C88.3552 0.691251 88.436 0.713416 88.5173 0.735728C89.1208 0.901268 89.7538 1.0749 90.5317 1.04999C91.5134 1.01855 92.2564 0.779104 92.9875 0.5435L93.0443 0.525212C93.7937 0.283887 94.5374 0.0521348 95.5288 0.0500147C96.7549 0.0473929 97.6567 0.396172 98.5656 0.760247C98.5895 0.76981 98.6133 0.779385 98.6372 0.788963C99.5228 1.14402 100.424 1.50523 101.636 1.54998C102.856 1.59499 103.783 1.36557 104.706 1.11526C104.768 1.09834 104.831 1.08133 104.893 1.0643C105.754 0.829424 106.626 0.591347 107.749 0.549981C109.576 0.482699 110.978 0.897453 112.378 1.3118L112.456 1.3351C113.883 1.75701 115.315 2.16892 117.192 2.04991C118.471 1.96883 119.439 1.62398 120.387 1.28659C120.436 1.26886 120.486 1.25115 120.536 1.23351C121.531 0.880016 122.522 0.550015 123.854 0.550015C125.17 0.550015 126.15 0.925661 127.134 1.30283L127.169 1.31597C128.164 1.69747 129.168 2.0759 130.52 2.05001C131.392 2.0333 131.828 1.8417 132.305 1.63248C132.381 1.59914 132.458 1.56535 132.538 1.53175C133.114 1.28931 133.857 1.05001 135.517 1.05001C136.938 1.05001 138.026 1.27057 139.118 1.50622C139.174 1.51832 139.23 1.53045 139.286 1.54261C140.323 1.76715 141.379 1.99581 142.736 2.04997C144.8 2.13239 146.25 1.97634 147.913 1.79736C148.704 1.71234 149.542 1.62214 150.517 1.54988C151.398 1.48455 152.136 1.38641 152.835 1.29348C153.084 1.26039 153.328 1.22795 153.572 1.19789C154.5 1.08341 155.427 1.00293 156.621 1.04998C157.756 1.09475 158.635 1.32843 159.504 1.55955C159.557 1.57369 159.611 1.58783 159.664 1.60191C160.586 1.84611 161.513 2.0738 162.733 2.05001C164.083 2.02366 165.086 1.67771 166.082 1.32491L166.146 1.3023C167.121 0.956924 168.096 0.61142 169.399 0.549959C170.815 0.483149 171.901 0.756476 172.994 1.03581L173.028 1.04445C174.109 1.32101 175.2 1.60008 176.619 1.54998C177.317 1.52532 177.87 1.40391 178.404 1.28649C178.46 1.2742 178.516 1.26195 178.572 1.24986C179.16 1.12231 179.743 1.01199 180.502 1.04995C181.004 1.07507 181.394 1.19147 181.78 1.3069C181.813 1.31676 181.846 1.32662 181.879 1.33642C182.298 1.4608 182.723 1.57402 183.284 1.54997C183.737 1.53054 184.076 1.43493 184.411 1.32976C184.448 1.31807 184.485 1.30628 184.522 1.29446C184.82 1.19994 185.122 1.10391 185.51 1.04953C186.686 0.884817 187.609 0.995918 188.539 1.1555C188.698 1.18276 188.857 1.21146 189.018 1.24044C189.798 1.38108 190.615 1.52838 191.612 1.55C193.065 1.58152 194.237 1.41003 195.371 1.24405C195.513 1.22328 195.654 1.20261 195.795 1.18243C197.065 1.00091 198.328 0.858968 199.938 1.04967C200.37 1.10085 200.721 1.21362 201.06 1.32268C201.147 1.35053 201.233 1.37814 201.319 1.40441C201.743 1.53343 202.171 1.62813 202.728 1.54952C203.215 1.48063 203.538 1.25805 203.851 1.0423L203.859 1.03674C204.175 0.819104 204.482 0.609661 204.949 0.549606C205.611 0.464432 206.089 0.693958 206.58 0.958423C206.614 0.976993 206.649 0.995745 206.684 1.01457C207.142 1.26322 207.623 1.52455 208.273 1.54998C209.072 1.58127 209.661 1.37639 210.242 1.14203C210.308 1.11527 210.375 1.08815 210.441 1.06095C210.956 0.849898 211.483 0.634387 212.168 0.549637C213.679 0.363022 214.849 0.599143 216.028 0.889587C216.161 0.922518 216.295 0.95616 216.43 0.989964C217.481 1.25426 218.571 1.52844 219.937 1.55001C221.606 1.57636 222.913 1.29848 224.196 1.02566C224.262 1.01157 224.329 0.997497 224.395 0.983479C225.743 0.698007 227.084 0.435503 228.821 0.549907C229.844 0.617275 230.635 0.837765 231.416 1.05535C231.472 1.07117 231.529 1.08697 231.586 1.10269C232.423 1.33479 233.265 1.55001 234.378 1.55001C235.475 1.55001 236.308 1.29539 237.131 1.04401L237.17 1.03195C238.005 0.776739 238.834 0.528992 239.931 0.550006C240.89 0.568364 241.616 0.812647 242.342 1.05662L242.416 1.0814C243.166 1.33335 243.923 1.57641 244.932 1.55C245.545 1.53394 246.316 1.40824 246.932 1.28712C247.24 1.22649 247.51 1.16686 247.703 1.12238C247.8 1.10014 247.877 1.08169 247.93 1.06878L247.95 1.06393L247.949 1.21064C247.948 1.34919 247.946 1.55394 247.944 1.81873C247.938 2.3483 247.929 3.11798 247.913 4.07835C247.881 5.99912 247.822 8.68264 247.715 11.7336C247.499 17.8359 247.089 25.4065 246.309 31.2839C244.65 43.7936 243.174 54.6991 241.809 64.7873C237.773 94.6159 234.703 117.3 230.717 153.185C230.462 155.478 230.206 157.732 229.947 159.95H63.6755C64.1033 119.632 64.651 79.9027 65.0918 50.2491C65.3123 35.416 65.5061 23.104 65.6447 14.5002C65.714 10.1983 65.7696 6.82345 65.8078 4.5241C65.8269 3.37442 65.8417 2.49361 65.8517 1.90022L65.863 1.22802L65.8659 1.05794Z"  />
<path d="M304.167 331.05C309.026 342.043 314.395 351.457 319.028 358.547C328.262 372.68 346.1 389.566 357.588 398.8C360.172 400.877 364.471 402.445 368.131 403.494C369.96 404.018 371.627 404.412 372.837 404.675C373.442 404.806 373.932 404.905 374.271 404.971C374.325 404.981 374.376 404.991 374.422 404.999C374.521 405.018 374.601 405.033 374.662 405.045L374.764 405.063L374.79 405.068L374.796 405.069L374.798 405.069L374.798 405.069C374.798 405.069 374.798 405.069 374.798 405.07L374.798 405.069L374.84 405.076V405.118V410.659V410.687L374.816 410.702L374.79 410.659L374.816 410.702L374.816 410.702L374.815 410.703L374.811 410.705L374.797 410.714L374.74 410.75C374.689 410.782 374.615 410.83 374.521 410.893C374.331 411.017 374.058 411.201 373.725 411.436C373.058 411.905 372.15 412.579 371.187 413.397C369.258 415.035 367.112 417.244 366.22 419.543C365.32 421.86 365.523 425.173 365.954 427.915C366.169 429.284 366.441 430.507 366.659 431.389C366.768 431.83 366.864 432.185 366.932 432.429C366.966 432.552 366.994 432.647 367.013 432.711L367.034 432.784L367.04 432.802L367.041 432.807L367.041 432.808L367.041 432.808L367.042 432.808L367.043 432.817L367.454 436.142L367.456 436.164L367.442 436.181L367.404 436.148L367.442 436.181L367.441 436.181L367.441 436.182L367.438 436.185L367.426 436.199L367.379 436.252C367.339 436.3 367.279 436.37 367.202 436.461C367.047 436.643 366.825 436.909 366.552 437.242C366.006 437.909 365.259 438.847 364.454 439.935C362.842 442.11 360.999 444.876 360.065 447.248C359.358 449.041 359.169 450.528 358.995 452.023L358.977 452.179C358.81 453.624 358.64 455.089 358.014 456.851C356.371 461.471 354.729 464.89 353.036 468.215C352.714 468.849 352.389 469.478 352.063 470.113C350.675 472.808 349.249 475.58 347.754 479.017C347.318 480.022 346.762 480.818 346.023 481.43C345.284 482.043 344.365 482.47 343.206 482.74C342.611 482.879 342.103 482.79 341.616 482.704C341.586 482.699 341.556 482.694 341.526 482.689C341.01 482.599 340.511 482.529 339.929 482.739C339.312 482.961 338.982 483.331 338.665 483.738C338.629 483.784 338.593 483.831 338.557 483.879C338.276 484.246 337.979 484.635 337.477 484.95C336.037 485.856 334.398 485.838 332.789 485.82L332.679 485.819C331.029 485.801 329.416 485.806 328.042 486.795C327.005 487.542 326.179 487.648 325.353 487.607C325.118 487.596 324.886 487.573 324.649 487.549C324.05 487.49 323.426 487.428 322.686 487.543C320.692 487.853 319.109 488.224 317.569 488.585C317.365 488.633 317.162 488.68 316.958 488.728C315.22 489.132 313.476 489.511 311.195 489.76C310.153 489.873 309.037 489.737 307.914 489.519C307.353 489.41 306.788 489.28 306.231 489.15L306.101 489.12C305.587 489 305.079 488.882 304.583 488.781C302.425 488.341 300.515 488.237 299.33 489.741C298.462 490.841 298.476 492.027 299.055 493.122C299.635 494.22 300.784 495.224 302.185 495.945C305.044 497.416 308.725 497.51 312.157 497.002C315.588 496.495 318.763 495.388 320.605 494.467C321.36 494.089 321.942 494.107 322.428 494.376C322.909 494.641 323.288 495.148 323.652 495.725C323.771 495.914 323.889 496.11 324.008 496.309C324.256 496.723 324.511 497.149 324.801 497.543C325.23 498.124 325.732 498.625 326.391 498.899C328.915 499.947 331.716 499.834 334.987 499.701C335.157 499.694 335.327 499.687 335.499 499.68C338.988 499.541 342.995 499.449 347.722 500.744C349.332 501.185 350.721 501.274 352.097 501.362C352.209 501.369 352.321 501.376 352.433 501.384C353.92 501.481 355.412 501.612 357.162 502.222C357.917 502.485 358.477 502.799 359.018 503.102C359.079 503.136 359.14 503.17 359.201 503.204C359.802 503.538 360.405 503.852 361.261 504.068C363.043 504.518 364.261 504.447 365.498 504.252C365.793 504.206 366.089 504.153 366.395 504.098C367.373 503.922 368.446 503.729 369.865 503.697C373.932 503.606 377.409 504.219 380.863 504.827L381.162 504.88C384.715 505.506 388.263 506.106 392.431 505.913C408.435 505.175 416.184 504.954 431.414 504.805C434.395 504.776 436.901 504.91 439.28 505.036C440.098 505.08 440.902 505.123 441.705 505.158C444.839 505.295 447.962 505.315 451.924 504.806C454.615 504.46 456.345 504.083 458.076 503.704L458.121 503.694C459.837 503.318 461.563 502.941 464.234 502.589C468.439 502.036 471.827 502.036 475.342 502.082C475.639 502.086 475.938 502.09 476.237 502.094C479.481 502.14 482.897 502.188 487.214 501.85C491.612 501.506 494.817 499.106 495.787 495.239C496.121 493.907 495.924 492.816 495.368 491.874C494.812 490.929 493.893 490.13 492.778 489.389C491.771 488.72 490.607 488.101 489.411 487.464C489.282 487.395 489.153 487.326 489.023 487.257C487.693 486.547 486.34 485.807 485.138 484.949C480.529 481.657 473.83 480.088 467.942 478.708L467.819 478.679C464.862 477.986 462.115 477.339 459.953 476.54C457.794 475.743 456.203 474.791 455.578 473.478C454.15 470.478 452.633 467.477 451.143 464.542C451.036 464.331 450.929 464.121 450.823 463.911C449.444 461.196 448.097 458.542 446.873 456.002C444.238 450.53 442.175 445.583 441.623 441.696C435.593 399.291 434.9 375.526 433.763 336.594V336.594L433.745 336.001L433.744 335.95H433.795C434.491 335.95 435.792 335.749 437.01 335.027C438.215 334.314 439.34 333.092 439.719 331.05H304.167Z"  />
<path d="M433.797 324.05H433.748L433.747 324.001C433.083 300.482 433.062 286.524 433.031 266.13C433.025 262.139 433.019 257.901 433.007 253.297C432.936 225.25 432.673 192.727 432.333 160.55H266.125C272.514 215.07 280.271 247.969 294.416 303.153C296.972 313.123 300.396 322.501 304.125 330.95H439.739C439.815 330.506 439.856 330.024 439.856 329.5C439.856 327.524 438.622 326.163 437.241 325.292C436.551 324.857 435.826 324.547 435.205 324.344C434.582 324.142 434.067 324.05 433.797 324.05Z"  />
<path d="M430.133 1.05818L430.132 1.03895L430.088 1.02768C430.036 1.01447 429.959 0.995555 429.864 0.972803C429.672 0.927294 429.405 0.866444 429.1 0.805096C428.489 0.682227 427.729 0.558028 427.128 0.55001C426.476 0.541305 425.978 0.664752 425.475 0.791891L425.454 0.797108C424.958 0.922617 424.454 1.05001 423.797 1.05001C423.166 1.05001 422.675 0.917057 422.198 0.787902C422.171 0.780446 422.144 0.773003 422.116 0.765599C421.613 0.62994 421.117 0.506896 420.468 0.549905C419.835 0.591811 419.371 0.826998 418.908 1.06168C418.879 1.07642 418.85 1.09115 418.821 1.10584C418.329 1.35414 417.828 1.58694 417.129 1.54994C416.562 1.51989 416.16 1.26645 415.778 1.0253C415.757 1.0123 415.736 0.999341 415.716 0.98645C415.314 0.73369 414.923 0.507524 414.359 0.549875C413.903 0.584042 413.605 0.813702 413.298 1.0498C413.291 1.05548 413.283 1.06116 413.276 1.06685C412.962 1.3078 412.637 1.55001 412.133 1.55001C411.632 1.55001 411.301 1.34778 410.982 1.12391C410.947 1.09965 410.913 1.07517 410.878 1.05066C410.595 0.848633 410.308 0.644937 409.9 0.54868C409.067 0.35216 408.403 0.488474 407.724 0.669739C407.643 0.691251 407.563 0.713416 407.481 0.735728C406.878 0.901268 406.245 1.0749 405.467 1.04999C404.485 1.01855 403.742 0.779104 403.011 0.5435L402.954 0.525212C402.205 0.283887 401.461 0.0521348 400.47 0.0500147C399.244 0.0473929 398.342 0.396172 397.433 0.760247C397.409 0.76981 397.385 0.779385 397.361 0.788963C396.476 1.14402 395.575 1.50523 394.362 1.54998C393.143 1.59499 392.215 1.36557 391.293 1.11526C391.23 1.09834 391.168 1.08133 391.106 1.0643C390.245 0.829424 389.373 0.591347 388.249 0.549981C386.422 0.482699 385.021 0.897453 383.621 1.3118L383.542 1.3351C382.116 1.75701 380.683 2.16892 378.806 2.04991C377.527 1.96883 376.559 1.62398 375.612 1.28659C375.562 1.26886 375.512 1.25115 375.463 1.23351C374.467 0.880016 373.477 0.550015 372.145 0.550015C370.829 0.550015 369.848 0.925661 368.864 1.30283L368.83 1.31597C367.834 1.69747 366.831 2.0759 365.479 2.05001C364.607 2.0333 364.17 1.8417 363.694 1.63248C363.618 1.59914 363.541 1.56535 363.461 1.53175C362.884 1.28931 362.141 1.05001 360.481 1.05001C359.06 1.05001 357.972 1.27057 356.881 1.50622C356.825 1.51832 356.769 1.53045 356.712 1.54261C355.676 1.76715 354.62 1.99581 353.263 2.04997C351.199 2.13239 349.749 1.97634 348.085 1.79736C347.295 1.71234 346.457 1.62214 345.482 1.54988C344.6 1.48455 343.862 1.38641 343.163 1.29348C342.914 1.26039 342.671 1.22795 342.427 1.19789C341.499 1.08341 340.571 1.00293 339.378 1.04998C338.243 1.09475 337.364 1.32843 336.494 1.55955C336.441 1.57369 336.388 1.58783 336.335 1.60191C335.413 1.84611 334.485 2.0738 333.266 2.05001C331.916 2.02366 330.913 1.67771 329.917 1.32491L329.853 1.3023C328.878 0.956924 327.902 0.61142 326.6 0.549959C325.183 0.483149 324.097 0.756476 323.005 1.03581L322.971 1.04445C321.89 1.32101 320.799 1.60008 319.38 1.54998C318.682 1.52532 318.129 1.40391 317.594 1.28649C317.538 1.2742 317.483 1.26195 317.427 1.24986C316.839 1.12231 316.255 1.01199 315.496 1.04995C314.994 1.07507 314.605 1.19147 314.219 1.3069C314.186 1.31676 314.153 1.32662 314.12 1.33642C313.701 1.4608 313.276 1.57402 312.715 1.54997C312.262 1.53054 311.922 1.43493 311.588 1.32976C311.55 1.31807 311.513 1.30628 311.476 1.29446C311.179 1.19994 310.877 1.10391 310.488 1.04953C309.312 0.884817 308.39 0.995918 307.46 1.1555C307.301 1.18276 307.142 1.21146 306.981 1.24044C306.201 1.38108 305.384 1.52838 304.387 1.55C302.934 1.58152 301.762 1.41003 300.628 1.24405C300.486 1.22328 300.345 1.20261 300.203 1.18243C298.934 1.00091 297.671 0.858968 296.061 1.04967C295.629 1.10085 295.278 1.21362 294.939 1.32268C294.852 1.35053 294.766 1.37814 294.68 1.40441C294.256 1.53343 293.828 1.62813 293.271 1.54952C292.783 1.48063 292.46 1.25805 292.148 1.0423L292.14 1.03674C291.824 0.819104 291.517 0.609661 291.05 0.549606C290.388 0.464432 289.909 0.693958 289.419 0.958423C289.384 0.976993 289.35 0.995745 289.315 1.01457C288.857 1.26322 288.376 1.52455 287.726 1.54998C286.927 1.58127 286.338 1.37639 285.757 1.14203C285.69 1.11527 285.624 1.08815 285.558 1.06095C285.042 0.849898 284.516 0.634387 283.83 0.549637C282.32 0.363022 281.15 0.599143 279.971 0.889587C279.837 0.922518 279.703 0.95616 279.569 0.989964C278.518 1.25426 277.427 1.52844 276.062 1.55001C274.393 1.57636 273.086 1.29848 271.803 1.02566C271.736 1.01157 271.67 0.997497 271.604 0.983479C270.256 0.698007 268.914 0.435503 267.178 0.549907C266.155 0.617275 265.364 0.837765 264.583 1.05535C264.526 1.07117 264.47 1.08697 264.413 1.10269C263.576 1.33479 262.733 1.55001 261.62 1.55001C260.524 1.55001 259.691 1.29539 258.868 1.04401L258.829 1.03195C257.993 0.776739 257.164 0.528992 256.067 0.550006C255.109 0.568364 254.382 0.812647 253.657 1.05662L253.583 1.0814C252.832 1.33335 252.075 1.57641 251.066 1.55C250.453 1.53394 249.682 1.40824 249.067 1.28712C248.759 1.22649 248.489 1.16686 248.296 1.12238C248.199 1.10014 248.122 1.08169 248.069 1.06878L248.049 1.06393L248.05 1.21064C248.051 1.34919 248.052 1.55394 248.055 1.81873C248.06 2.3483 248.069 3.11798 248.085 4.07835C248.117 5.99912 248.176 8.68264 248.284 11.7336C248.499 17.8359 248.91 25.4065 249.689 31.2839C251.348 43.7936 252.824 54.6991 254.189 64.7873C258.226 94.6159 261.295 117.3 265.282 153.185C265.555 155.651 265.831 158.071 266.11 160.45H432.328C431.901 120.044 431.352 80.1897 430.91 50.4331C430.688 35.5485 430.494 23.1905 430.355 14.5536C430.285 10.2351 430.229 6.84692 430.191 4.53836C430.172 3.38408 430.157 2.49971 430.147 1.9039L430.136 1.22896L430.133 1.05818Z"  />
</g>
<g clip-path="url(#clip2_2_32586)">
<path d="M584.833 331.05C579.974 342.043 574.605 351.457 569.972 358.547C560.738 372.68 542.9 389.566 531.412 398.8C528.828 400.877 524.529 402.445 520.869 403.494C519.04 404.018 517.373 404.412 516.163 404.675C515.558 404.806 515.068 404.905 514.729 404.971C514.675 404.981 514.624 404.991 514.578 404.999C514.479 405.018 514.399 405.033 514.338 405.045L514.236 405.063L514.21 405.068L514.204 405.069L514.202 405.069L514.202 405.069C514.202 405.069 514.202 405.069 514.202 405.07L514.202 405.069L514.16 405.076V405.118V410.659V410.687L514.184 410.702L514.21 410.659L514.184 410.702L514.184 410.702L514.185 410.703L514.189 410.705L514.203 410.714L514.26 410.75C514.311 410.782 514.385 410.83 514.479 410.893C514.669 411.017 514.942 411.201 515.275 411.436C515.942 411.905 516.85 412.579 517.813 413.397C519.742 415.035 521.888 417.244 522.78 419.543C523.68 421.86 523.477 425.173 523.046 427.915C522.831 429.284 522.559 430.507 522.341 431.389C522.232 431.83 522.136 432.185 522.068 432.429C522.034 432.552 522.006 432.647 521.987 432.711L521.966 432.784L521.96 432.802L521.959 432.807L521.959 432.808L521.959 432.808L521.958 432.808L521.957 432.817L521.546 436.142L521.544 436.164L521.558 436.181L521.596 436.148L521.558 436.181L521.559 436.181L521.559 436.182L521.562 436.185L521.574 436.199L521.621 436.252C521.661 436.3 521.721 436.37 521.798 436.461C521.953 436.643 522.175 436.909 522.448 437.242C522.994 437.909 523.741 438.847 524.546 439.935C526.158 442.11 528.001 444.876 528.935 447.248C529.642 449.041 529.831 450.528 530.005 452.023L530.023 452.179C530.19 453.624 530.36 455.089 530.986 456.851C532.629 461.471 534.271 464.89 535.964 468.215C536.286 468.849 536.611 469.478 536.937 470.113C538.325 472.808 539.751 475.58 541.246 479.017C541.682 480.022 542.238 480.818 542.977 481.43C543.716 482.043 544.635 482.47 545.794 482.74C546.389 482.879 546.897 482.79 547.384 482.704C547.414 482.699 547.444 482.694 547.474 482.689C547.99 482.599 548.489 482.529 549.071 482.739C549.688 482.961 550.018 483.331 550.335 483.738C550.371 483.784 550.407 483.831 550.443 483.879C550.724 484.246 551.021 484.635 551.523 484.95C552.963 485.856 554.602 485.838 556.211 485.82L556.321 485.819C557.971 485.801 559.584 485.806 560.958 486.795C561.995 487.542 562.821 487.648 563.647 487.607C563.882 487.596 564.114 487.573 564.351 487.549C564.95 487.49 565.574 487.428 566.314 487.543C568.308 487.853 569.891 488.224 571.431 488.585C571.635 488.633 571.838 488.68 572.042 488.728C573.78 489.132 575.524 489.511 577.805 489.76C578.847 489.873 579.963 489.737 581.086 489.519C581.647 489.41 582.212 489.28 582.769 489.15L582.899 489.12C583.413 489 583.921 488.882 584.417 488.781C586.575 488.341 588.485 488.237 589.67 489.741C590.538 490.841 590.524 492.027 589.945 493.122C589.365 494.22 588.216 495.224 586.815 495.945C583.956 497.416 580.275 497.51 576.843 497.002C573.412 496.495 570.237 495.388 568.395 494.467C567.64 494.089 567.058 494.107 566.572 494.376C566.091 494.641 565.712 495.148 565.348 495.725C565.229 495.914 565.111 496.11 564.992 496.309C564.744 496.723 564.489 497.149 564.199 497.543C563.77 498.124 563.268 498.625 562.609 498.899C560.085 499.947 557.284 499.834 554.013 499.701C553.843 499.694 553.673 499.687 553.501 499.68C550.012 499.541 546.005 499.449 541.278 500.744C539.668 501.185 538.279 501.274 536.903 501.362C536.791 501.369 536.679 501.376 536.567 501.384C535.08 501.481 533.588 501.612 531.838 502.222C531.083 502.485 530.523 502.799 529.982 503.102C529.921 503.136 529.86 503.17 529.799 503.204C529.198 503.538 528.595 503.852 527.739 504.068C525.957 504.518 524.739 504.447 523.502 504.252C523.207 504.206 522.911 504.153 522.605 504.098C521.627 503.922 520.554 503.729 519.135 503.697C515.068 503.606 511.591 504.219 508.137 504.827L507.838 504.88C504.285 505.506 500.737 506.106 496.569 505.913C480.565 505.175 472.816 504.954 457.586 504.805C454.605 504.776 452.099 504.91 449.72 505.036C448.902 505.08 448.098 505.123 447.295 505.158C444.161 505.295 441.038 505.315 437.076 504.806C434.385 504.46 432.655 504.083 430.924 503.704L430.879 503.694C429.163 503.318 427.437 502.941 424.766 502.589C420.561 502.036 417.173 502.036 413.658 502.082C413.361 502.086 413.062 502.09 412.763 502.094C409.519 502.14 406.103 502.188 401.786 501.85C397.388 501.506 394.183 499.106 393.213 495.239C392.879 493.907 393.076 492.816 393.632 491.874C394.188 490.929 395.107 490.13 396.222 489.389C397.229 488.72 398.393 488.101 399.589 487.464C399.718 487.395 399.847 487.326 399.977 487.257C401.307 486.547 402.66 485.807 403.862 484.949C408.471 481.657 415.17 480.088 421.058 478.708L421.181 478.679C424.138 477.986 426.885 477.339 429.047 476.54C431.206 475.743 432.797 474.791 433.422 473.478C434.85 470.478 436.367 467.477 437.857 464.542C437.964 464.331 438.071 464.121 438.177 463.911C439.556 461.196 440.903 458.542 442.127 456.002C444.762 450.53 446.825 445.583 447.377 441.696C453.407 399.291 454.1 375.526 455.237 336.594V336.594L455.255 336.001L455.256 335.95H455.205C454.509 335.95 453.208 335.749 451.99 335.027C450.785 334.314 449.66 333.092 449.281 331.05H584.833Z"  />
<path d="M455.203 324.05H455.252L455.253 324.001C455.917 300.482 455.938 286.524 455.969 266.13C455.975 262.139 455.981 257.901 455.993 253.297C456.064 225.105 456.33 192.39 456.673 160.05H622.934C616.533 214.869 608.773 247.8 594.584 303.153C592.028 313.123 588.604 322.501 584.875 330.95H449.261C449.185 330.506 449.144 330.024 449.144 329.5C449.144 327.524 450.378 326.163 451.759 325.292C452.449 324.857 453.174 324.547 453.795 324.344C454.418 324.142 454.933 324.05 455.203 324.05Z"  />
<path d="M458.866 1.05794L458.866 1.03895L458.911 1.02768C458.963 1.01447 459.04 0.995555 459.135 0.972803C459.326 0.927294 459.594 0.866444 459.899 0.805096C460.51 0.682227 461.269 0.558028 461.87 0.55001C462.523 0.541305 463.02 0.664752 463.523 0.791891L463.544 0.797108C464.041 0.922617 464.545 1.05001 465.202 1.05001C465.833 1.05001 466.324 0.917057 466.8 0.787902C466.828 0.780446 466.855 0.773003 466.883 0.765599C467.385 0.62994 467.882 0.506896 468.531 0.549905C469.164 0.591811 469.627 0.826998 470.09 1.06168C470.119 1.07642 470.148 1.09115 470.178 1.10584C470.67 1.35414 471.171 1.58694 471.869 1.54994C472.437 1.51989 472.839 1.26645 473.221 1.0253C473.242 1.0123 473.262 0.999341 473.283 0.98645C473.685 0.73369 474.076 0.507524 474.64 0.549875C475.095 0.584042 475.394 0.813702 475.701 1.0498C475.708 1.05548 475.715 1.06116 475.723 1.06685C476.036 1.3078 476.362 1.55001 476.865 1.55001C477.366 1.55001 477.698 1.34778 478.017 1.12391C478.051 1.09965 478.086 1.07517 478.12 1.05066C478.404 0.848633 478.69 0.644937 479.098 0.54868C479.932 0.35216 480.596 0.488474 481.275 0.669739C481.355 0.691251 481.436 0.713416 481.517 0.735728C482.121 0.901268 482.754 1.0749 483.532 1.04999C484.513 1.01855 485.256 0.779104 485.988 0.5435L486.044 0.525212C486.794 0.283887 487.537 0.0521348 488.529 0.0500147C489.755 0.0473929 490.657 0.396172 491.566 0.760247C491.589 0.76981 491.613 0.779385 491.637 0.788963C492.523 1.14402 493.424 1.50523 494.636 1.54998C495.856 1.59499 496.783 1.36557 497.706 1.11526C497.768 1.09834 497.831 1.08133 497.893 1.0643C498.754 0.829424 499.626 0.591347 500.749 0.549981C502.576 0.482699 503.978 0.897453 505.378 1.3118L505.456 1.3351C506.883 1.75701 508.315 2.16892 510.192 2.04991C511.471 1.96883 512.439 1.62398 513.387 1.28659C513.436 1.26886 513.486 1.25115 513.536 1.23351C514.531 0.880016 515.522 0.550015 516.854 0.550015C518.17 0.550015 519.15 0.925661 520.134 1.30283L520.169 1.31597C521.164 1.69747 522.168 2.0759 523.52 2.05001C524.392 2.0333 524.828 1.8417 525.305 1.63248C525.381 1.59914 525.458 1.56535 525.538 1.53175C526.114 1.28931 526.857 1.05001 528.517 1.05001C529.938 1.05001 531.026 1.27057 532.118 1.50622C532.174 1.51832 532.23 1.53045 532.286 1.54261C533.323 1.76715 534.379 1.99581 535.736 2.04997C537.8 2.13239 539.25 1.97634 540.913 1.79736C541.704 1.71234 542.542 1.62214 543.517 1.54988C544.398 1.48455 545.136 1.38641 545.835 1.29348C546.084 1.26039 546.328 1.22795 546.572 1.19789C547.5 1.08341 548.427 1.00293 549.621 1.04998C550.756 1.09475 551.635 1.32843 552.504 1.55955C552.557 1.57369 552.611 1.58783 552.664 1.60191C553.586 1.84611 554.513 2.0738 555.733 2.05001C557.083 2.02366 558.086 1.67771 559.082 1.32491L559.146 1.3023C560.121 0.956924 561.096 0.61142 562.399 0.549959C563.815 0.483149 564.901 0.756476 565.994 1.03581L566.028 1.04445C567.109 1.32101 568.2 1.60008 569.619 1.54998C570.317 1.52532 570.87 1.40391 571.404 1.28649C571.46 1.2742 571.516 1.26195 571.572 1.24986C572.16 1.12231 572.743 1.01199 573.502 1.04995C574.004 1.07507 574.394 1.19147 574.78 1.3069C574.813 1.31676 574.846 1.32662 574.879 1.33642C575.298 1.4608 575.723 1.57402 576.284 1.54997C576.737 1.53054 577.076 1.43493 577.411 1.32976C577.448 1.31807 577.485 1.30628 577.522 1.29446C577.82 1.19994 578.122 1.10391 578.51 1.04953C579.686 0.884817 580.609 0.995918 581.539 1.1555C581.698 1.18276 581.857 1.21146 582.018 1.24044C582.798 1.38108 583.615 1.52838 584.612 1.55C586.065 1.58152 587.237 1.41003 588.371 1.24405C588.513 1.22328 588.654 1.20261 588.795 1.18243C590.065 1.00091 591.328 0.858968 592.938 1.04967C593.37 1.10085 593.721 1.21362 594.06 1.32268C594.147 1.35053 594.233 1.37814 594.319 1.40441C594.743 1.53343 595.171 1.62813 595.728 1.54952C596.215 1.48063 596.538 1.25805 596.851 1.0423L596.859 1.03674C597.175 0.819104 597.482 0.609661 597.949 0.549606C598.611 0.464432 599.089 0.693958 599.58 0.958423C599.614 0.976993 599.649 0.995745 599.684 1.01457C600.142 1.26322 600.623 1.52455 601.273 1.54998C602.072 1.58127 602.661 1.37639 603.242 1.14203C603.308 1.11527 603.375 1.08815 603.441 1.06095C603.956 0.849898 604.483 0.634387 605.168 0.549637C606.679 0.363022 607.849 0.599143 609.028 0.889587C609.161 0.922518 609.295 0.95616 609.43 0.989964C610.481 1.25426 611.571 1.52844 612.937 1.55001C614.606 1.57636 615.913 1.29848 617.196 1.02566C617.262 1.01157 617.329 0.997497 617.395 0.983479C618.743 0.698007 620.084 0.435503 621.821 0.549907C622.844 0.617275 623.635 0.837765 624.416 1.05535C624.472 1.07117 624.529 1.08697 624.586 1.10269C625.423 1.33479 626.265 1.55001 627.378 1.55001C628.475 1.55001 629.308 1.29539 630.131 1.04401L630.17 1.03195C631.005 0.776739 631.834 0.528992 632.931 0.550006C633.89 0.568364 634.616 0.812647 635.342 1.05662L635.416 1.0814C636.166 1.33335 636.923 1.57641 637.932 1.55C638.545 1.53394 639.316 1.40824 639.932 1.28712C640.24 1.22649 640.51 1.16686 640.703 1.12238C640.8 1.10014 640.877 1.08169 640.93 1.06878L640.95 1.06393L640.949 1.21064C640.948 1.34919 640.946 1.55394 640.944 1.81873C640.938 2.3483 640.929 3.11798 640.913 4.07835C640.881 5.99912 640.822 8.68264 640.715 11.7336C640.499 17.8359 640.089 25.4065 639.309 31.2839C637.65 43.7936 636.174 54.6991 634.809 64.7873C630.773 94.6159 627.703 117.3 623.717 153.185C623.462 155.478 623.206 157.732 622.947 159.95H456.676C457.103 119.632 457.651 79.9027 458.092 50.2491C458.312 35.416 458.506 23.104 458.645 14.5002C458.714 10.1983 458.77 6.82345 458.808 4.5241C458.827 3.37442 458.842 2.49361 458.852 1.90022L458.863 1.22802L458.866 1.05794Z"  />
<path d="M697.167 331.05C702.026 342.043 707.395 351.457 712.028 358.547C721.262 372.68 739.1 389.566 750.588 398.8C753.172 400.877 757.471 402.445 761.131 403.494C762.96 404.018 764.627 404.412 765.837 404.675C766.442 404.806 766.932 404.905 767.271 404.971C767.325 404.981 767.376 404.991 767.422 404.999C767.521 405.018 767.601 405.033 767.662 405.045L767.764 405.063L767.79 405.068L767.796 405.069L767.798 405.069L767.798 405.069C767.798 405.069 767.798 405.069 767.798 405.07L767.798 405.069L767.84 405.076V405.118V410.659V410.687L767.816 410.702L767.79 410.659L767.816 410.702L767.816 410.702L767.815 410.703L767.811 410.705L767.797 410.714L767.74 410.75C767.689 410.782 767.615 410.83 767.521 410.893C767.331 411.017 767.058 411.201 766.725 411.436C766.058 411.905 765.15 412.579 764.187 413.397C762.258 415.035 760.112 417.244 759.22 419.543C758.32 421.86 758.523 425.173 758.954 427.915C759.169 429.284 759.441 430.507 759.659 431.389C759.768 431.83 759.864 432.185 759.932 432.429C759.966 432.552 759.994 432.647 760.013 432.711L760.034 432.784L760.04 432.802L760.041 432.807L760.041 432.808L760.041 432.808L760.042 432.808L760.043 432.817L760.454 436.142L760.456 436.164L760.442 436.181L760.404 436.148L760.442 436.181L760.441 436.181L760.441 436.182L760.438 436.185L760.426 436.199L760.379 436.252C760.339 436.3 760.279 436.37 760.202 436.461C760.047 436.643 759.825 436.909 759.552 437.242C759.006 437.909 758.259 438.847 757.454 439.935C755.842 442.11 753.999 444.876 753.065 447.248C752.358 449.041 752.169 450.528 751.995 452.023L751.977 452.179C751.81 453.624 751.64 455.089 751.014 456.851C749.371 461.471 747.729 464.89 746.036 468.215C745.714 468.849 745.389 469.478 745.063 470.113C743.675 472.808 742.249 475.58 740.754 479.017C740.318 480.022 739.762 480.818 739.023 481.43C738.284 482.043 737.365 482.47 736.206 482.74C735.611 482.879 735.103 482.79 734.616 482.704C734.586 482.699 734.556 482.694 734.526 482.689C734.01 482.599 733.511 482.529 732.929 482.739C732.312 482.961 731.982 483.331 731.665 483.738C731.629 483.784 731.593 483.831 731.557 483.879C731.276 484.246 730.979 484.635 730.477 484.95C729.037 485.856 727.398 485.838 725.789 485.82L725.679 485.819C724.029 485.801 722.416 485.806 721.042 486.795C720.005 487.542 719.179 487.648 718.353 487.607C718.118 487.596 717.886 487.573 717.649 487.549C717.05 487.49 716.426 487.428 715.686 487.543C713.692 487.853 712.109 488.224 710.569 488.585C710.365 488.633 710.162 488.68 709.958 488.728C708.22 489.132 706.476 489.511 704.195 489.76C703.153 489.873 702.037 489.737 700.914 489.519C700.353 489.41 699.788 489.28 699.231 489.15L699.101 489.12C698.587 489 698.079 488.882 697.583 488.781C695.425 488.341 693.515 488.237 692.33 489.741C691.462 490.841 691.476 492.027 692.055 493.122C692.635 494.22 693.784 495.224 695.185 495.945C698.044 497.416 701.725 497.51 705.157 497.002C708.588 496.495 711.763 495.388 713.605 494.467C714.36 494.089 714.942 494.107 715.428 494.376C715.909 494.641 716.288 495.148 716.652 495.725C716.771 495.914 716.889 496.11 717.008 496.309C717.256 496.723 717.511 497.149 717.801 497.543C718.23 498.124 718.732 498.625 719.391 498.899C721.915 499.947 724.716 499.834 727.987 499.701C728.157 499.694 728.327 499.687 728.499 499.68C731.988 499.541 735.995 499.449 740.722 500.744C742.332 501.185 743.721 501.274 745.097 501.362C745.209 501.369 745.321 501.376 745.433 501.384C746.92 501.481 748.412 501.612 750.162 502.222C750.917 502.485 751.477 502.799 752.018 503.102C752.079 503.136 752.14 503.17 752.201 503.204C752.802 503.538 753.405 503.852 754.261 504.068C756.043 504.518 757.261 504.447 758.498 504.252C758.793 504.206 759.089 504.153 759.395 504.098C760.373 503.922 761.446 503.729 762.865 503.697C766.932 503.606 770.409 504.219 773.863 504.827L774.162 504.88C777.715 505.506 781.263 506.106 785.431 505.913C801.435 505.175 809.184 504.954 824.414 504.805C827.395 504.776 829.901 504.91 832.28 505.036C833.098 505.08 833.902 505.123 834.705 505.158C837.839 505.295 840.962 505.315 844.924 504.806C847.615 504.46 849.345 504.083 851.076 503.704L851.121 503.694C852.837 503.318 854.563 502.941 857.234 502.589C861.439 502.036 864.827 502.036 868.342 502.082C868.639 502.086 868.938 502.09 869.237 502.094C872.481 502.14 875.897 502.188 880.214 501.85C884.612 501.506 887.817 499.106 888.787 495.239C889.121 493.907 888.924 492.816 888.368 491.874C887.812 490.929 886.893 490.13 885.778 489.389C884.771 488.72 883.607 488.101 882.411 487.464C882.282 487.395 882.153 487.326 882.023 487.257C880.693 486.547 879.34 485.807 878.138 484.949C873.529 481.657 866.83 480.088 860.942 478.708L860.819 478.679C857.862 477.986 855.115 477.339 852.953 476.54C850.794 475.743 849.203 474.791 848.578 473.478C847.15 470.478 845.633 467.477 844.143 464.542C844.036 464.331 843.929 464.121 843.823 463.911C842.444 461.196 841.097 458.542 839.873 456.002C837.238 450.53 835.175 445.583 834.623 441.696C828.593 399.291 827.9 375.526 826.763 336.594V336.594L826.745 336.001L826.744 335.95H826.795C827.491 335.95 828.792 335.749 830.01 335.027C831.215 334.314 832.34 333.092 832.719 331.05H697.167Z"  />
<path d="M826.797 324.05H826.748L826.747 324.001C826.083 300.482 826.062 286.524 826.031 266.13C826.025 262.139 826.019 257.901 826.007 253.297C825.936 225.25 825.673 192.727 825.333 160.55H659.125C665.514 215.07 673.271 247.969 687.416 303.153C689.972 313.123 693.396 322.501 697.125 330.95H832.739C832.815 330.506 832.856 330.024 832.856 329.5C832.856 327.524 831.622 326.163 830.241 325.292C829.551 324.857 828.826 324.547 828.205 324.344C827.582 324.142 827.067 324.05 826.797 324.05Z"  />
<path d="M823.133 1.05818L823.132 1.03895L823.088 1.02768C823.036 1.01447 822.959 0.995555 822.864 0.972803C822.672 0.927294 822.405 0.866444 822.1 0.805096C821.489 0.682227 820.729 0.558028 820.128 0.55001C819.476 0.541305 818.978 0.664752 818.475 0.791891L818.454 0.797108C817.958 0.922617 817.454 1.05001 816.797 1.05001C816.166 1.05001 815.675 0.917057 815.198 0.787902C815.171 0.780446 815.144 0.773003 815.116 0.765599C814.613 0.62994 814.117 0.506896 813.468 0.549905C812.835 0.591811 812.371 0.826998 811.908 1.06168C811.879 1.07642 811.85 1.09115 811.821 1.10584C811.329 1.35414 810.828 1.58694 810.129 1.54994C809.562 1.51989 809.16 1.26645 808.778 1.0253C808.757 1.0123 808.736 0.999341 808.716 0.98645C808.314 0.73369 807.923 0.507524 807.359 0.549875C806.903 0.584042 806.605 0.813702 806.298 1.0498C806.291 1.05548 806.283 1.06116 806.276 1.06685C805.962 1.3078 805.637 1.55001 805.133 1.55001C804.632 1.55001 804.301 1.34778 803.982 1.12391C803.947 1.09965 803.913 1.07517 803.878 1.05066C803.595 0.848633 803.308 0.644937 802.9 0.54868C802.067 0.35216 801.403 0.488474 800.724 0.669739C800.643 0.691251 800.563 0.713416 800.481 0.735728C799.878 0.901268 799.245 1.0749 798.467 1.04999C797.485 1.01855 796.742 0.779104 796.011 0.5435L795.954 0.525212C795.205 0.283887 794.461 0.0521348 793.47 0.0500147C792.244 0.0473929 791.342 0.396172 790.433 0.760247C790.409 0.76981 790.385 0.779385 790.361 0.788963C789.476 1.14402 788.575 1.50523 787.362 1.54998C786.143 1.59499 785.215 1.36557 784.293 1.11526C784.23 1.09834 784.168 1.08133 784.106 1.0643C783.245 0.829424 782.373 0.591347 781.249 0.549981C779.422 0.482699 778.021 0.897453 776.621 1.3118L776.542 1.3351C775.116 1.75701 773.683 2.16892 771.806 2.04991C770.527 1.96883 769.559 1.62398 768.612 1.28659C768.562 1.26886 768.512 1.25115 768.463 1.23351C767.467 0.880016 766.477 0.550015 765.145 0.550015C763.829 0.550015 762.848 0.925661 761.864 1.30283L761.83 1.31597C760.834 1.69747 759.831 2.0759 758.479 2.05001C757.607 2.0333 757.17 1.8417 756.694 1.63248C756.618 1.59914 756.541 1.56535 756.461 1.53175C755.884 1.28931 755.141 1.05001 753.481 1.05001C752.06 1.05001 750.972 1.27057 749.881 1.50622C749.825 1.51832 749.769 1.53045 749.712 1.54261C748.676 1.76715 747.62 1.99581 746.263 2.04997C744.199 2.13239 742.749 1.97634 741.085 1.79736C740.295 1.71234 739.457 1.62214 738.482 1.54988C737.6 1.48455 736.862 1.38641 736.163 1.29348C735.914 1.26039 735.671 1.22795 735.427 1.19789C734.499 1.08341 733.571 1.00293 732.378 1.04998C731.243 1.09475 730.364 1.32843 729.494 1.55955C729.441 1.57369 729.388 1.58783 729.335 1.60191C728.413 1.84611 727.485 2.0738 726.266 2.05001C724.916 2.02366 723.913 1.67771 722.917 1.32491L722.853 1.3023C721.878 0.956924 720.902 0.61142 719.6 0.549959C718.183 0.483149 717.097 0.756476 716.005 1.03581L715.971 1.04445C714.89 1.32101 713.799 1.60008 712.38 1.54998C711.682 1.52532 711.129 1.40391 710.594 1.28649C710.538 1.2742 710.483 1.26195 710.427 1.24986C709.839 1.12231 709.255 1.01199 708.496 1.04995C707.994 1.07507 707.605 1.19147 707.219 1.3069C707.186 1.31676 707.153 1.32662 707.12 1.33642C706.701 1.4608 706.276 1.57402 705.715 1.54997C705.262 1.53054 704.922 1.43493 704.588 1.32976C704.55 1.31807 704.513 1.30628 704.476 1.29446C704.179 1.19994 703.877 1.10391 703.488 1.04953C702.312 0.884817 701.39 0.995918 700.46 1.1555C700.301 1.18276 700.142 1.21146 699.981 1.24044C699.201 1.38108 698.384 1.52838 697.387 1.55C695.934 1.58152 694.762 1.41003 693.628 1.24405C693.486 1.22328 693.345 1.20261 693.203 1.18243C691.934 1.00091 690.671 0.858968 689.061 1.04967C688.629 1.10085 688.278 1.21362 687.939 1.32268C687.852 1.35053 687.766 1.37814 687.68 1.40441C687.256 1.53343 686.828 1.62813 686.271 1.54952C685.783 1.48063 685.46 1.25805 685.148 1.0423L685.14 1.03674C684.824 0.819104 684.517 0.609661 684.05 0.549606C683.388 0.464432 682.909 0.693958 682.419 0.958423C682.384 0.976993 682.35 0.995745 682.315 1.01457C681.857 1.26322 681.376 1.52455 680.726 1.54998C679.927 1.58127 679.338 1.37639 678.757 1.14203C678.69 1.11527 678.624 1.08815 678.558 1.06095C678.042 0.849898 677.516 0.634387 676.83 0.549637C675.32 0.363022 674.15 0.599143 672.971 0.889587C672.837 0.922518 672.703 0.95616 672.569 0.989964C671.518 1.25426 670.427 1.52844 669.062 1.55001C667.393 1.57636 666.086 1.29848 664.803 1.02566C664.736 1.01157 664.67 0.997497 664.604 0.983479C663.256 0.698007 661.914 0.435503 660.178 0.549907C659.155 0.617275 658.364 0.837765 657.583 1.05535C657.526 1.07117 657.47 1.08697 657.413 1.10269C656.576 1.33479 655.733 1.55001 654.62 1.55001C653.524 1.55001 652.691 1.29539 651.868 1.04401L651.829 1.03195C650.993 0.776739 650.164 0.528992 649.067 0.550006C648.109 0.568364 647.382 0.812647 646.657 1.05662L646.583 1.0814C645.832 1.33335 645.075 1.57641 644.066 1.55C643.453 1.53394 642.682 1.40824 642.067 1.28712C641.759 1.22649 641.489 1.16686 641.296 1.12238C641.199 1.10014 641.122 1.08169 641.069 1.06878L641.049 1.06393L641.05 1.21064C641.051 1.34919 641.052 1.55394 641.055 1.81873C641.06 2.3483 641.069 3.11798 641.085 4.07835C641.117 5.99912 641.176 8.68264 641.284 11.7336C641.499 17.8359 641.91 25.4065 642.689 31.2839C644.348 43.7936 645.824 54.6991 647.189 64.7873C651.226 94.6159 654.295 117.3 658.282 153.185C658.555 155.651 658.831 158.071 659.11 160.45H825.328C824.901 120.044 824.352 80.1897 823.91 50.4331C823.688 35.5485 823.494 23.1905 823.355 14.5536C823.285 10.2351 823.229 6.84692 823.191 4.53836C823.172 3.38408 823.157 2.49971 823.147 1.9039L823.136 1.22896L823.133 1.05818Z"  />
</g>
</g>
<defs>
<clipPath id="clip0_2_32586">
<rect width="889" height="506" />
</clipPath>
<clipPath id="clip1_2_32586">
<rect width="496" height="506" />
</clipPath>
<clipPath id="clip2_2_32586">
<rect width="496" height="506"  transform="translate(393)"/>
</clipPath>
</defs>
</svg>
