<svg width="889" height="506" viewBox="0 0 889 506" fill="none" xmlns="http://www.w3.org/2000/svg">
<g clip-path="url(#clip0_2_33674)">
<g clip-path="url(#clip1_2_33674)">
<g filter="url(#filter0_f_2_33674)">
<path d="M65.8166 1C65.8166 1 67.6578 0.516164 68.8694 0.5C70.1886 0.4824 70.8824 1 72.2018 1C73.5211 1 74.2184 0.412827 75.5341 0.5C76.9022 0.590638 77.4971 1.57252 78.8665 1.5C80.0325 1.43825 80.4795 0.412676 81.6435 0.5C82.6102 0.572519 82.8951 1.5 83.8651 1.5C84.8351 1.5 85.1484 0.721243 86.0867 0.5C87.7783 0.101148 88.7823 1.05597 90.5299 1C92.5283 0.936001 93.5288 0.00427606 95.5285 0C98.0015 -0.00528818 99.1669 1.4088 101.638 1.5C104.061 1.58943 105.324 0.589221 107.747 0.5C111.488 0.362241 113.454 2.23679 117.189 2C119.865 1.83033 121.171 0.5 123.854 0.5C126.537 0.5 127.836 2.05138 130.519 2C132.518 1.96171 132.185 1 135.517 1C138.37 1 139.887 1.88621 142.737 2C145.779 2.12143 147.479 1.72486 150.513 1.5C152.901 1.32305 154.229 0.905629 156.622 1C159.045 1.09552 160.307 2.04731 162.732 2C165.414 1.94766 166.717 0.626383 169.396 0.5C172.245 0.365611 173.766 1.60067 176.617 1.5C178.149 1.44588 178.973 0.923412 180.504 1C181.609 1.05523 182.177 1.54736 183.281 1.5C184.175 1.46171 184.619 1.12375 185.503 1C187.87 0.668494 189.217 1.44805 191.612 1.5C194.872 1.57071 196.711 0.617059 199.943 1C201.04 1.12989 201.628 1.65429 202.72 1.5C203.679 1.36468 203.982 0.623495 204.942 0.5C206.3 0.325352 206.904 1.44636 208.274 1.5C209.852 1.56175 210.598 0.6933 212.162 0.5C215.201 0.124502 216.871 1.45156 219.938 1.5C223.434 1.55523 225.336 0.270236 228.824 0.5C231.03 0.645316 232.166 1.5 234.378 1.5C236.59 1.5 237.721 0.457642 239.932 0.5C241.931 0.538294 242.932 1.55233 244.931 1.5C246.148 1.46812 248 1 248 1C248 1 247.918 19.5307 246.359 31.2904C239.794 80.7894 236.101 105.169 230.766 153.191C224.21 212.212 216.405 245.54 201.634 303.165C195.738 326.165 185.221 346.015 177.014 358.575C167.776 372.714 149.933 389.604 138.444 398.839C133.258 403.007 121.21 405.118 121.21 405.118V410.659C121.21 410.659 128.033 414.903 129.827 419.525C131.637 424.187 129.006 432.823 129.006 432.823L128.596 436.148C128.596 436.148 134.109 442.473 135.982 447.23C137.4 450.829 136.74 453.196 138.033 456.834C141.316 466.069 144.599 470.501 148.292 478.998C149.16 480.995 150.499 482.154 152.805 482.691C154.046 482.981 154.897 482.263 156.088 482.691C157.35 483.146 157.435 484.207 158.55 484.908C161.466 486.743 165.209 484.754 167.987 486.755C170.039 488.232 171.244 487.171 173.321 487.494C177.843 488.197 180.255 489.213 184.81 489.71C188.949 490.162 194.296 486.649 196.71 489.71C198.472 491.945 196.651 494.542 193.837 495.99C188.093 498.945 179.066 496.359 175.373 494.512C172.395 493.023 172.311 497.83 169.628 498.945C164.294 501.161 157.729 498.206 148.292 500.792C144.796 501.75 142.342 501.053 138.854 502.269C137.184 502.852 136.476 503.681 134.751 504.116C131.172 505.02 129.85 503.831 126.134 503.747C117.776 503.559 111.916 506.349 103.566 505.963C87.5638 505.225 79.8153 505.004 64.5857 504.855C56.5741 504.777 52.0012 505.874 44.0695 504.855C38.683 504.163 37.1438 503.347 31.7598 502.639C23.3563 501.533 18.2193 502.639 8.78176 501.9C4.36637 501.554 1.1411 499.143 0.164976 495.251C-1.18352 489.874 6.03651 488.333 10.8334 484.908C20.1352 478.265 37.9149 478.628 40.3767 473.457C46.0912 461.452 53.2248 449.446 54.3277 441.689C60.3872 399.072 61.0574 375.284 62.2046 336C60.6448 336 56.0952 335 56.0952 329.5C56.0952 325.5 61.0938 324 62.2046 324C62.9986 295.879 62.8733 281.427 62.9444 253.297C63.1935 154.764 65.8166 1 65.8166 1Z" />
<path d="M121.202 405.069L121.16 405.076V405.118V410.659V410.687L121.184 410.702L121.21 410.659L121.184 410.702L121.184 410.702L121.185 410.703L121.189 410.705L121.203 410.714L121.26 410.75C121.311 410.782 121.385 410.83 121.479 410.893C121.669 411.017 121.942 411.201 122.275 411.436C122.942 411.905 123.85 412.579 124.813 413.397C126.742 415.035 128.888 417.244 129.78 419.543C130.68 421.861 130.477 425.173 130.046 427.915C129.831 429.284 129.559 430.507 129.341 431.389C129.232 431.83 129.136 432.185 129.068 432.43C129.034 432.552 129.006 432.647 128.987 432.711L128.966 432.784L128.96 432.802L128.959 432.807L128.959 432.808L128.959 432.808L128.958 432.808L128.957 432.817L128.546 436.142L128.544 436.164L128.558 436.181L128.596 436.148L128.558 436.181L128.559 436.181L128.559 436.182L128.562 436.185L128.574 436.199L128.621 436.252C128.661 436.3 128.721 436.37 128.798 436.461C128.953 436.643 129.175 436.909 129.448 437.242C129.994 437.909 130.741 438.847 131.546 439.935C133.158 442.11 135.001 444.876 135.935 447.248C136.642 449.041 136.831 450.527 137.005 452.023L137.023 452.179C137.19 453.624 137.36 455.089 137.986 456.851C139.629 461.471 141.271 464.89 142.964 468.215C143.286 468.849 143.611 469.478 143.937 470.112C145.325 472.808 146.751 475.58 148.246 479.017C148.682 480.022 149.238 480.818 149.977 481.43C150.716 482.043 151.635 482.47 152.794 482.74C153.389 482.879 153.897 482.79 154.384 482.704L154.474 482.689C154.99 482.599 155.489 482.529 156.071 482.739C156.688 482.961 157.018 483.331 157.335 483.738C157.371 483.784 157.407 483.832 157.443 483.879C157.724 484.246 158.021 484.635 158.523 484.95C159.963 485.856 161.602 485.838 163.211 485.82L163.321 485.819C164.97 485.801 166.584 485.806 167.958 486.795C168.995 487.542 169.821 487.648 170.647 487.607C170.882 487.596 171.114 487.573 171.351 487.549C171.95 487.49 172.574 487.428 173.314 487.543C175.308 487.853 176.891 488.224 178.431 488.585C178.635 488.633 178.838 488.68 179.042 488.728C180.78 489.132 182.524 489.511 184.805 489.76C185.847 489.873 186.963 489.737 188.086 489.519C188.647 489.41 189.212 489.28 189.769 489.15C190.327 489.02 190.879 488.89 191.417 488.781C193.575 488.341 195.485 488.237 196.67 489.741C197.538 490.841 197.524 492.027 196.945 493.122C196.365 494.22 195.216 495.224 193.815 495.945C190.956 497.416 187.275 497.51 183.843 497.002C180.412 496.495 177.237 495.388 175.395 494.467C174.64 494.09 174.058 494.107 173.572 494.376C173.091 494.641 172.712 495.148 172.348 495.725C172.229 495.914 172.111 496.11 171.992 496.309C171.744 496.723 171.489 497.149 171.199 497.543C170.77 498.124 170.268 498.625 169.609 498.899C167.085 499.947 164.284 499.833 161.013 499.701C160.843 499.694 160.673 499.687 160.501 499.68C157.012 499.541 153.005 499.449 148.278 500.744C146.667 501.185 145.279 501.274 143.903 501.362C143.791 501.369 143.679 501.376 143.567 501.384C142.08 501.481 140.588 501.612 138.838 502.222C138.083 502.485 137.523 502.799 136.982 503.102C136.921 503.136 136.86 503.17 136.799 503.204C136.198 503.538 135.595 503.852 134.739 504.068C132.957 504.518 131.739 504.447 130.502 504.252C130.207 504.206 129.911 504.153 129.605 504.098C128.627 503.922 127.554 503.729 126.135 503.697C122.068 503.606 118.592 504.218 115.137 504.827L114.838 504.88C111.285 505.506 107.737 506.106 103.569 505.913C87.5655 505.175 79.8164 504.954 64.5862 504.805C61.6049 504.776 59.0989 504.91 56.7206 505.036C55.9018 505.08 55.0981 505.123 54.2955 505.158C51.1609 505.295 48.0379 505.315 44.0759 504.806C41.3848 504.46 39.6551 504.083 37.9244 503.704L37.8786 503.694C36.1624 503.318 34.4368 502.941 31.7664 502.589C27.5609 502.036 24.1728 502.036 20.6579 502.082C20.3605 502.086 20.0621 502.09 19.7623 502.094C16.5191 502.14 13.1027 502.188 8.78566 501.85C4.38759 501.506 1.18344 499.106 0.213474 495.239C-0.120566 493.907 0.0762331 492.816 0.631533 491.874C1.18807 490.929 2.10672 490.13 3.22233 489.389C4.22934 488.72 5.39275 488.101 6.58899 487.464C6.71788 487.395 6.84716 487.326 6.97667 487.257C8.30692 486.547 9.66025 485.807 10.8624 484.949C15.4715 481.657 22.1696 480.088 28.0584 478.708L28.1815 478.679C31.1382 477.986 33.8855 477.339 36.0474 476.54C38.2063 475.743 39.7971 474.791 40.4219 473.478C41.8502 470.478 43.3672 467.477 44.8568 464.542L45.1787 463.908C46.5565 461.194 47.9036 458.541 49.1266 456.002C51.7619 450.53 53.8245 445.583 54.3772 441.696C60.4065 399.291 61.1005 375.526 62.2373 336.594L62.2546 336.001L62.2561 335.95H62.2046C61.4324 335.95 59.9158 335.702 58.5937 334.772C57.2746 333.843 56.1452 332.234 56.1452 329.5C56.1452 327.524 57.379 326.163 58.76 325.292C59.4502 324.857 60.1752 324.547 60.7968 324.344C61.4197 324.142 61.9346 324.05 62.2046 324.05H62.2532L62.2546 324.001C62.9187 300.482 62.9397 286.524 62.9704 266.13C62.9764 262.139 62.9827 257.901 62.9944 253.297C63.1189 204.031 63.837 140.957 64.5239 90.1993C64.8674 64.8205 65.2031 42.5209 65.4529 26.566C65.5778 18.5885 65.6812 12.1972 65.7534 7.80031C65.7895 5.60185 65.8178 3.90199 65.8371 2.75174L65.8591 1.44495L65.8647 1.11267L65.866 1.03894L65.9103 1.02767C65.9628 1.01445 66.0393 0.99554 66.1348 0.972788C66.3259 0.927279 66.5933 0.866429 66.8985 0.805081C67.5097 0.682212 68.2691 0.558013 68.87 0.549996C69.5225 0.541291 70.0202 0.664737 70.5233 0.791876L70.5439 0.797095C71.0404 0.922604 71.5443 1.05 72.2018 1.05C72.8326 1.05 73.3233 0.91704 73.7999 0.787884C73.8274 0.780429 73.8549 0.772987 73.8823 0.765584C74.3851 0.629926 74.8817 0.506882 75.5308 0.549891C76.1634 0.591796 76.6272 0.826989 77.0901 1.06168C77.1192 1.07641 77.1482 1.09114 77.1773 1.10582C77.6693 1.35413 78.1705 1.58693 78.8692 1.54993C79.4366 1.51988 79.8384 1.26643 80.2207 1.0253C80.2413 1.01229 80.2619 0.999328 80.2824 0.986436C80.6847 0.733676 81.0753 0.507509 81.6398 0.54986C82.0952 0.584027 82.3936 0.813689 82.7004 1.04979L82.7226 1.06683C83.0359 1.30778 83.3617 1.55 83.8651 1.55C84.366 1.55 84.6975 1.34777 85.0165 1.12389C85.0511 1.09963 85.0855 1.07514 85.1199 1.05063C85.4038 0.848607 85.6899 0.64492 86.0982 0.548666C86.9317 0.352146 87.5957 0.488459 88.2744 0.669724C88.355 0.691236 88.4358 0.713401 88.5171 0.735713C89.1205 0.901253 89.7535 1.07489 90.5315 1.04997C91.5132 1.01854 92.2562 0.779093 92.9873 0.543489L93.044 0.525197C93.7935 0.283873 94.5371 0.05212 95.5286 0.0499999C96.7546 0.0473781 97.6565 0.396157 98.5653 0.760232L98.637 0.788942C99.5226 1.144 100.423 1.50521 101.636 1.54997C102.855 1.59497 103.783 1.36555 104.706 1.11525C104.768 1.09833 104.83 1.08132 104.893 1.06429C105.753 0.829408 106.626 0.591332 107.749 0.549966C109.576 0.482685 110.978 0.897437 112.377 1.31178L112.456 1.33508C113.882 1.757 115.315 2.1689 117.192 2.0499C118.471 1.96882 119.439 1.62397 120.386 1.28657C120.436 1.26884 120.486 1.25114 120.536 1.23349C121.531 0.880002 122.521 0.55 123.854 0.55C125.17 0.55 126.15 0.925648 127.134 1.30282L127.169 1.31596C128.164 1.69745 129.168 2.07588 130.52 2.04999C131.391 2.03329 131.828 1.84169 132.304 1.63247C132.38 1.59912 132.457 1.56533 132.537 1.53173C133.114 1.2893 133.857 1.05 135.517 1.05C136.938 1.05 138.026 1.27056 139.118 1.5062C139.174 1.5183 139.23 1.53044 139.286 1.54259C140.323 1.76713 141.379 1.9958 142.735 2.04996C144.8 2.13238 146.25 1.97632 147.913 1.79735C148.703 1.71232 149.542 1.62212 150.517 1.54986C151.398 1.48454 152.136 1.38639 152.835 1.29347C153.084 1.26037 153.328 1.22793 153.572 1.19788C154.5 1.08339 155.427 1.00292 156.62 1.04996C157.756 1.09473 158.635 1.32841 159.504 1.55953C159.557 1.57368 159.61 1.58781 159.663 1.6019C160.586 1.8461 161.513 2.07379 162.733 2.04999C164.082 2.02365 165.085 1.6777 166.082 1.3249L166.146 1.30227C167.121 0.956901 168.096 0.611404 169.399 0.549944C170.815 0.483135 171.901 0.756461 172.993 1.0358L173.027 1.04443C174.109 1.32099 175.2 1.60006 176.618 1.54997C177.317 1.5253 177.87 1.40389 178.404 1.28648C178.46 1.27419 178.516 1.26194 178.572 1.24985C179.159 1.1223 179.743 1.01198 180.502 1.04994C181.004 1.07505 181.393 1.19146 181.779 1.30688C181.812 1.31675 181.845 1.32661 181.878 1.33641C182.298 1.46079 182.723 1.574 183.284 1.54995C183.737 1.53053 184.076 1.43491 184.411 1.32974C184.448 1.31805 184.485 1.30626 184.522 1.29443C184.82 1.19992 185.122 1.10389 185.51 1.04952C186.686 0.884802 187.609 0.995904 188.539 1.15548C188.698 1.18274 188.857 1.21144 189.018 1.24043C189.798 1.38107 190.614 1.52836 191.611 1.54999C193.064 1.58151 194.236 1.41001 195.371 1.24403C195.513 1.22327 195.654 1.20259 195.795 1.18241C197.065 1.0009 198.328 0.858954 199.937 1.04965C200.37 1.10084 200.72 1.2136 201.06 1.32266C201.146 1.35051 201.232 1.37812 201.319 1.4044C201.742 1.53341 202.171 1.62811 202.727 1.54951C203.215 1.48061 203.538 1.258 203.851 1.04224L203.859 1.03672C204.174 0.819089 204.481 0.609646 204.948 0.549592C205.611 0.464417 206.089 0.693944 206.58 0.958408C206.614 0.976979 206.649 0.99573 206.683 1.01455C207.141 1.26321 207.623 1.52453 208.272 1.54996C209.072 1.58126 209.661 1.37637 210.242 1.14201C210.308 1.11526 210.374 1.08813 210.441 1.06094C210.956 0.849883 211.482 0.634372 212.168 0.549623C213.678 0.363008 214.849 0.599128 216.027 0.889572C216.161 0.922506 216.295 0.95615 216.429 0.989956C217.481 1.25425 218.571 1.52842 219.937 1.54999C221.606 1.57635 222.913 1.29847 224.196 1.02565C224.262 1.01156 224.328 0.997483 224.394 0.983464C225.742 0.697992 227.084 0.435488 228.821 0.549892C229.843 0.617261 230.635 0.837757 231.415 1.05535C231.472 1.07116 231.529 1.08696 231.585 1.10268C232.423 1.33477 233.265 1.55 234.378 1.55C235.475 1.55 236.308 1.29537 237.13 1.044L237.17 1.03193C238.005 0.776724 238.834 0.528977 239.931 0.549991C240.89 0.56835 241.616 0.812639 242.342 1.05662L242.415 1.08138C243.166 1.33333 243.923 1.57639 244.932 1.54998C245.545 1.53393 246.316 1.40822 246.932 1.28711C247.24 1.22647 247.51 1.16684 247.703 1.12237C247.799 1.10013 247.877 1.08167 247.93 1.06877L247.95 1.06391L247.949 1.21063C247.948 1.34918 247.946 1.55393 247.943 1.81871C247.938 2.34828 247.929 3.11796 247.913 4.07834C247.881 5.99911 247.822 8.68262 247.714 11.7336C247.499 17.8359 247.089 25.4065 246.309 31.2838C244.65 43.7936 243.174 54.6991 241.809 64.7873C237.773 94.6159 234.703 117.3 230.717 153.185C224.161 212.203 216.356 245.528 201.585 303.153C195.691 326.146 185.177 345.991 176.972 358.547C167.738 372.68 149.9 389.566 138.412 398.8C135.828 400.877 131.529 402.445 127.869 403.494C126.04 404.018 124.373 404.412 123.163 404.675C122.558 404.806 122.068 404.905 121.729 404.971C121.559 405.003 121.427 405.028 121.338 405.045L121.236 405.063L121.21 405.068L121.204 405.069L121.202 405.069L121.202 405.069C121.202 405.069 121.202 405.069 121.21 405.118L121.202 405.069Z" />
</g>
<path d="M374.798 405.069L374.84 405.076V405.118V410.659V410.687L374.816 410.702L374.79 410.659L374.816 410.702L374.816 410.702L374.815 410.703L374.811 410.705L374.797 410.714L374.74 410.75C374.689 410.782 374.615 410.83 374.521 410.893C374.331 411.017 374.058 411.201 373.725 411.436C373.058 411.905 372.15 412.579 371.187 413.397C369.258 415.035 367.112 417.244 366.22 419.543C365.32 421.861 365.523 425.173 365.954 427.915C366.169 429.284 366.441 430.507 366.659 431.389C366.768 431.83 366.864 432.185 366.932 432.43C366.966 432.552 366.994 432.647 367.013 432.711L367.034 432.784L367.04 432.802L367.041 432.807L367.041 432.808L367.041 432.808L367.042 432.808L367.043 432.817L367.454 436.142L367.456 436.164L367.442 436.181L367.404 436.148L367.442 436.181L367.441 436.181L367.441 436.182L367.438 436.185L367.426 436.199L367.379 436.252C367.339 436.3 367.279 436.37 367.202 436.461C367.047 436.643 366.825 436.909 366.552 437.242C366.006 437.909 365.259 438.847 364.454 439.935C362.842 442.11 360.999 444.876 360.065 447.248C359.358 449.041 359.169 450.527 358.995 452.023L358.977 452.179C358.81 453.624 358.64 455.089 358.014 456.851C356.371 461.471 354.729 464.89 353.036 468.215C352.714 468.849 352.389 469.478 352.063 470.112C350.675 472.808 349.249 475.58 347.754 479.017C347.318 480.022 346.762 480.818 346.023 481.43C345.284 482.043 344.365 482.47 343.206 482.74C342.611 482.879 342.103 482.79 341.616 482.704L341.526 482.689C341.01 482.599 340.511 482.529 339.929 482.739C339.312 482.961 338.982 483.331 338.665 483.738C338.629 483.784 338.593 483.832 338.557 483.879C338.276 484.246 337.979 484.635 337.477 484.95C336.037 485.856 334.398 485.838 332.789 485.82L332.679 485.819C331.03 485.801 329.416 485.806 328.042 486.795C327.005 487.542 326.179 487.648 325.353 487.607C325.118 487.596 324.886 487.573 324.649 487.549C324.05 487.49 323.426 487.428 322.686 487.543C320.692 487.853 319.109 488.224 317.569 488.585C317.365 488.633 317.162 488.68 316.958 488.728C315.22 489.132 313.476 489.511 311.195 489.76C310.153 489.873 309.037 489.737 307.914 489.519C307.353 489.41 306.788 489.28 306.231 489.15C305.673 489.02 305.121 488.89 304.583 488.781C302.425 488.341 300.515 488.237 299.33 489.741C298.462 490.841 298.476 492.027 299.055 493.122C299.635 494.22 300.784 495.224 302.185 495.945C305.044 497.416 308.725 497.51 312.157 497.002C315.588 496.495 318.763 495.388 320.605 494.467C321.36 494.09 321.942 494.107 322.428 494.376C322.909 494.641 323.288 495.148 323.652 495.725C323.771 495.914 323.889 496.11 324.008 496.309C324.256 496.723 324.511 497.149 324.801 497.543C325.23 498.124 325.732 498.625 326.391 498.899C328.915 499.947 331.716 499.833 334.987 499.701C335.157 499.694 335.327 499.687 335.499 499.68C338.988 499.541 342.995 499.449 347.722 500.744C349.333 501.185 350.721 501.274 352.097 501.362C352.209 501.369 352.321 501.376 352.433 501.384C353.92 501.481 355.412 501.612 357.162 502.222C357.917 502.485 358.477 502.799 359.018 503.102C359.079 503.136 359.14 503.17 359.201 503.204C359.802 503.538 360.405 503.852 361.261 504.068C363.043 504.518 364.261 504.447 365.498 504.252C365.793 504.206 366.089 504.153 366.395 504.098C367.373 503.922 368.446 503.729 369.865 503.697C373.932 503.606 377.408 504.218 380.863 504.827L381.162 504.88C384.715 505.506 388.263 506.106 392.431 505.913C408.435 505.175 416.184 504.954 431.414 504.805C434.395 504.776 436.901 504.91 439.279 505.036C440.098 505.08 440.902 505.123 441.705 505.158C444.839 505.295 447.962 505.315 451.924 504.806C454.615 504.46 456.345 504.083 458.076 503.704L458.121 503.694C459.838 503.318 461.563 502.941 464.234 502.589C468.439 502.036 471.827 502.036 475.342 502.082C475.64 502.086 475.938 502.09 476.238 502.094C479.481 502.14 482.897 502.188 487.214 501.85C491.612 501.506 494.817 499.106 495.787 495.239C496.121 493.907 495.924 492.816 495.368 491.874C494.812 490.929 493.893 490.13 492.778 489.389C491.771 488.72 490.607 488.101 489.411 487.464C489.282 487.395 489.153 487.326 489.023 487.257C487.693 486.547 486.34 485.807 485.138 484.949C480.528 481.657 473.83 480.088 467.942 478.708L467.819 478.679C464.862 477.986 462.115 477.339 459.953 476.54C457.794 475.743 456.203 474.791 455.578 473.478C454.15 470.478 452.633 467.477 451.143 464.542L450.821 463.908C449.443 461.194 448.096 458.541 446.873 456.002C444.238 450.53 442.175 445.583 441.623 441.696C435.593 399.291 434.9 375.526 433.763 336.594L433.745 336.001L433.744 335.95H433.795C434.568 335.95 436.084 335.702 437.406 334.772C438.725 333.843 439.855 332.234 439.855 329.5C439.855 327.524 438.621 326.163 437.24 325.292C436.55 324.857 435.825 324.547 435.203 324.344C434.58 324.142 434.065 324.05 433.795 324.05H433.747L433.745 324.001C433.081 300.482 433.06 286.524 433.03 266.13C433.024 262.139 433.017 257.901 433.006 253.297C432.881 204.031 432.163 140.957 431.476 90.1993C431.133 64.8205 430.797 42.5209 430.547 26.566C430.422 18.5885 430.319 12.1972 430.247 7.80031C430.21 5.60185 430.182 3.90199 430.163 2.75174L430.141 1.44495L430.135 1.11267L430.134 1.03894L430.09 1.02767C430.037 1.01445 429.961 0.99554 429.865 0.972788C429.674 0.927279 429.407 0.866429 429.101 0.805081C428.49 0.682212 427.731 0.558013 427.13 0.549996C426.477 0.541291 425.98 0.664737 425.477 0.791876L425.456 0.797095C424.96 0.922604 424.456 1.05 423.798 1.05C423.167 1.05 422.677 0.91704 422.2 0.787884C422.173 0.780429 422.145 0.772987 422.118 0.765584C421.615 0.629926 421.118 0.506882 420.469 0.549891C419.837 0.591796 419.373 0.826989 418.91 1.06168C418.881 1.07641 418.852 1.09114 418.823 1.10582C418.331 1.35413 417.829 1.58693 417.131 1.54993C416.563 1.51988 416.162 1.26643 415.779 1.0253C415.759 1.01229 415.738 0.999328 415.718 0.986436C415.315 0.733676 414.925 0.507509 414.36 0.54986C413.905 0.584027 413.606 0.813689 413.3 1.04979L413.277 1.06683C412.964 1.30778 412.638 1.55 412.135 1.55C411.634 1.55 411.303 1.34777 410.984 1.12389C410.949 1.09963 410.915 1.07514 410.88 1.05063C410.596 0.848607 410.31 0.64492 409.902 0.548666C409.068 0.352146 408.404 0.488459 407.726 0.669724C407.645 0.691236 407.564 0.713401 407.483 0.735713C406.879 0.901253 406.246 1.07489 405.469 1.04997C404.487 1.01854 403.744 0.779093 403.013 0.543489L402.956 0.525197C402.207 0.283873 401.463 0.05212 400.471 0.0499999C399.245 0.0473781 398.344 0.396157 397.435 0.760232L397.363 0.788942C396.477 1.144 395.577 1.50521 394.364 1.54997C393.145 1.59497 392.217 1.36555 391.294 1.11525C391.232 1.09833 391.17 1.08132 391.107 1.06429C390.247 0.829408 389.374 0.591332 388.251 0.549966C386.424 0.482685 385.022 0.897437 383.623 1.31178L383.544 1.33508C382.118 1.757 380.685 2.1689 378.808 2.0499C377.529 1.96882 376.561 1.62397 375.614 1.28657C375.564 1.26884 375.514 1.25114 375.464 1.23349C374.469 0.880002 373.479 0.55 372.146 0.55C370.83 0.55 369.85 0.925648 368.866 1.30282L368.831 1.31596C367.836 1.69745 366.832 2.07588 365.48 2.04999C364.609 2.03329 364.172 1.84169 363.696 1.63247C363.62 1.59912 363.543 1.56533 363.463 1.53173C362.886 1.2893 362.143 1.05 360.483 1.05C359.062 1.05 357.974 1.27056 356.882 1.5062C356.826 1.5183 356.77 1.53044 356.714 1.54259C355.677 1.76713 354.621 1.9958 353.265 2.04996C351.2 2.13238 349.75 1.97632 348.087 1.79735C347.297 1.71232 346.458 1.62212 345.483 1.54986C344.602 1.48454 343.864 1.38639 343.165 1.29347C342.916 1.26037 342.672 1.22793 342.428 1.19788C341.5 1.08339 340.573 1.00292 339.38 1.04996C338.244 1.09473 337.365 1.32841 336.496 1.55953C336.443 1.57368 336.39 1.58781 336.337 1.6019C335.414 1.8461 334.487 2.07379 333.267 2.04999C331.918 2.02365 330.915 1.6777 329.918 1.3249L329.854 1.30227C328.879 0.956901 327.904 0.611404 326.601 0.549944C325.185 0.483135 324.099 0.756461 323.007 1.0358L322.973 1.04443C321.891 1.32099 320.8 1.60006 319.382 1.54997C318.683 1.5253 318.13 1.40389 317.596 1.28648C317.54 1.27419 317.484 1.26194 317.428 1.24985C316.841 1.1223 316.257 1.01198 315.498 1.04994C314.996 1.07505 314.607 1.19146 314.221 1.30688C314.188 1.31675 314.155 1.32661 314.122 1.33641C313.702 1.46079 313.277 1.574 312.716 1.54995C312.263 1.53053 311.924 1.43491 311.589 1.32974C311.552 1.31805 311.515 1.30626 311.478 1.29443C311.18 1.19992 310.878 1.10389 310.49 1.04952C309.314 0.884802 308.391 0.995904 307.461 1.15548C307.302 1.18274 307.143 1.21144 306.982 1.24043C306.202 1.38107 305.386 1.52836 304.389 1.54999C302.936 1.58151 301.764 1.41001 300.629 1.24403C300.487 1.22327 300.346 1.20259 300.205 1.18241C298.935 1.0009 297.672 0.858954 296.063 1.04965C295.63 1.10084 295.28 1.2136 294.94 1.32266C294.854 1.35051 294.768 1.37812 294.681 1.4044C294.258 1.53341 293.829 1.62811 293.273 1.54951C292.785 1.48061 292.462 1.258 292.149 1.04224L292.141 1.03672C291.826 0.819089 291.519 0.609646 291.052 0.549592C290.389 0.464417 289.911 0.693944 289.42 0.958408C289.386 0.976979 289.351 0.99573 289.317 1.01455C288.859 1.26321 288.377 1.52453 287.728 1.54996C286.928 1.58126 286.339 1.37637 285.758 1.14201C285.692 1.11526 285.626 1.08813 285.559 1.06094C285.044 0.849883 284.518 0.634372 283.832 0.549623C282.322 0.363008 281.151 0.599128 279.973 0.889572C279.839 0.922506 279.705 0.95615 279.571 0.989956C278.519 1.25425 277.429 1.52842 276.063 1.54999C274.394 1.57635 273.087 1.29847 271.804 1.02565C271.738 1.01156 271.672 0.997483 271.606 0.983464C270.258 0.697992 268.916 0.435488 267.179 0.549892C266.157 0.617261 265.365 0.837757 264.585 1.05535C264.528 1.07116 264.471 1.08696 264.415 1.10268C263.577 1.33477 262.735 1.55 261.622 1.55C260.525 1.55 259.692 1.29537 258.87 1.044L258.83 1.03193C257.995 0.776724 257.166 0.528977 256.069 0.549991C255.11 0.56835 254.384 0.812639 253.658 1.05662L253.585 1.08138C252.834 1.33333 252.077 1.57639 251.068 1.54998C250.455 1.53393 249.684 1.40822 249.068 1.28711C248.76 1.22647 248.49 1.16684 248.297 1.12237C248.201 1.10013 248.123 1.08167 248.07 1.06877L248.05 1.06391L248.051 1.21063C248.052 1.34918 248.054 1.55393 248.057 1.81871C248.062 2.34828 248.071 3.11796 248.087 4.07834C248.119 5.99911 248.178 8.68262 248.286 11.7336C248.501 17.8359 248.911 25.4065 249.691 31.2838C251.35 43.7936 252.826 54.6991 254.191 64.7873C258.227 94.6159 261.297 117.3 265.283 153.185C271.839 212.203 279.644 245.528 294.415 303.153C300.309 326.146 310.823 345.991 319.028 358.547C328.262 372.68 346.1 389.566 357.588 398.8C360.172 400.877 364.471 402.445 368.131 403.494C369.96 404.018 371.627 404.412 372.837 404.675C373.442 404.806 373.932 404.905 374.271 404.971C374.441 405.003 374.573 405.028 374.662 405.045L374.764 405.063L374.79 405.068L374.796 405.069L374.798 405.069L374.798 405.069C374.798 405.069 374.798 405.069 374.79 405.118L374.798 405.069Z"  />
</g>
<g clip-path="url(#clip2_2_33674)">
<g filter="url(#filter1_f_2_33674)">
<path d="M458.817 1C458.817 1 460.658 0.516164 461.869 0.5C463.189 0.4824 463.882 1 465.202 1C466.521 1 467.218 0.412827 468.534 0.5C469.902 0.590638 470.497 1.57252 471.867 1.5C473.033 1.43825 473.48 0.412676 474.644 0.5C475.61 0.572519 475.895 1.5 476.865 1.5C477.835 1.5 478.148 0.721243 479.087 0.5C480.778 0.101148 481.782 1.05597 483.53 1C485.528 0.936001 486.529 0.00427606 488.528 0C491.001 -0.00528818 492.167 1.4088 494.638 1.5C497.061 1.58943 498.324 0.589221 500.747 0.5C504.488 0.362241 506.454 2.23679 510.189 2C512.865 1.83033 514.171 0.5 516.854 0.5C519.537 0.5 520.836 2.05138 523.519 2C525.518 1.96171 525.185 1 528.517 1C531.37 1 532.887 1.88621 535.737 2C538.779 2.12143 540.479 1.72486 543.513 1.5C545.901 1.32305 547.229 0.905629 549.622 1C552.045 1.09552 553.307 2.04731 555.732 2C558.414 1.94766 559.717 0.626383 562.396 0.5C565.245 0.365611 566.766 1.60067 569.617 1.5C571.149 1.44588 571.973 0.923412 573.504 1C574.609 1.05523 575.177 1.54736 576.281 1.5C577.175 1.46171 577.619 1.12375 578.503 1C580.87 0.668494 582.217 1.44805 584.612 1.5C587.872 1.57071 589.711 0.617059 592.943 1C594.04 1.12989 594.628 1.65429 595.72 1.5C596.679 1.36468 596.982 0.623495 597.942 0.5C599.3 0.325352 599.904 1.44636 601.274 1.5C602.852 1.56175 603.598 0.6933 605.162 0.5C608.201 0.124502 609.871 1.45156 612.938 1.5C616.434 1.55523 618.336 0.270236 621.824 0.5C624.03 0.645316 625.166 1.5 627.378 1.5C629.59 1.5 630.721 0.457642 632.932 0.5C634.931 0.538294 635.932 1.55233 637.931 1.5C639.148 1.46812 641 1 641 1C641 1 640.918 19.5307 639.359 31.2904C632.794 80.7894 629.101 105.169 623.766 153.191C617.21 212.212 609.405 245.54 594.634 303.165C588.738 326.165 578.221 346.015 570.014 358.575C560.776 372.714 542.933 389.604 531.444 398.839C526.258 403.007 514.21 405.118 514.21 405.118V410.659C514.21 410.659 521.033 414.903 522.827 419.525C524.637 424.187 522.006 432.823 522.006 432.823L521.596 436.148C521.596 436.148 527.109 442.473 528.982 447.23C530.4 450.829 529.74 453.196 531.033 456.834C534.316 466.069 537.599 470.501 541.292 478.998C542.16 480.995 543.499 482.154 545.805 482.691C547.046 482.981 547.897 482.263 549.088 482.691C550.35 483.146 550.435 484.207 551.55 484.908C554.466 486.743 558.209 484.754 560.987 486.755C563.039 488.232 564.244 487.171 566.321 487.494C570.843 488.197 573.255 489.213 577.81 489.71C581.949 490.162 587.296 486.649 589.71 489.71C591.472 491.945 589.651 494.542 586.837 495.99C581.093 498.945 572.066 496.359 568.373 494.512C565.395 493.023 565.311 497.83 562.628 498.945C557.294 501.161 550.729 498.206 541.292 500.792C537.796 501.75 535.342 501.053 531.854 502.269C530.184 502.852 529.476 503.681 527.751 504.116C524.172 505.02 522.85 503.831 519.134 503.747C510.776 503.559 504.916 506.349 496.566 505.963C480.564 505.225 472.815 505.004 457.586 504.855C449.574 504.777 445.001 505.874 437.07 504.855C431.683 504.163 430.144 503.347 424.76 502.639C416.356 501.533 411.219 502.639 401.782 501.9C397.366 501.554 394.141 499.143 393.165 495.251C391.816 489.874 399.037 488.333 403.833 484.908C413.135 478.265 430.915 478.628 433.377 473.457C439.091 461.452 446.225 449.446 447.328 441.689C453.387 399.072 454.057 375.284 455.205 336C453.645 336 449.095 335 449.095 329.5C449.095 325.5 454.094 324 455.205 324C455.999 295.879 455.873 281.427 455.944 253.297C456.193 154.764 458.817 1 458.817 1Z" />
<path d="M514.202 405.069L514.16 405.076V405.118V410.659V410.687L514.184 410.702L514.21 410.659L514.184 410.702L514.184 410.702L514.185 410.703L514.189 410.705L514.203 410.714L514.26 410.75C514.311 410.782 514.385 410.83 514.479 410.893C514.669 411.017 514.942 411.201 515.275 411.436C515.942 411.905 516.85 412.579 517.813 413.397C519.742 415.035 521.888 417.244 522.78 419.543C523.68 421.861 523.477 425.173 523.046 427.915C522.831 429.284 522.559 430.507 522.341 431.389C522.232 431.83 522.136 432.185 522.068 432.43C522.034 432.552 522.006 432.647 521.987 432.711L521.966 432.784L521.96 432.802L521.959 432.807L521.959 432.808L521.959 432.808L521.958 432.808L521.957 432.817L521.546 436.142L521.544 436.164L521.558 436.181L521.596 436.148L521.558 436.181L521.559 436.181L521.559 436.182L521.562 436.185L521.574 436.199L521.621 436.252C521.661 436.3 521.721 436.37 521.798 436.461C521.953 436.643 522.175 436.909 522.448 437.242C522.994 437.909 523.741 438.847 524.546 439.935C526.158 442.11 528.001 444.876 528.935 447.248C529.642 449.041 529.831 450.527 530.005 452.023L530.023 452.179C530.19 453.624 530.36 455.089 530.986 456.851C532.629 461.471 534.271 464.89 535.964 468.215C536.286 468.849 536.611 469.478 536.937 470.112C538.325 472.808 539.751 475.58 541.246 479.017C541.682 480.022 542.238 480.818 542.977 481.43C543.716 482.043 544.635 482.47 545.794 482.74C546.389 482.879 546.897 482.79 547.384 482.704L547.474 482.689C547.99 482.599 548.489 482.529 549.071 482.739C549.688 482.961 550.018 483.331 550.335 483.738C550.371 483.784 550.407 483.832 550.443 483.879C550.724 484.246 551.021 484.635 551.523 484.95C552.963 485.856 554.602 485.838 556.211 485.82L556.321 485.819C557.97 485.801 559.584 485.806 560.958 486.795C561.995 487.542 562.821 487.648 563.647 487.607C563.882 487.596 564.114 487.573 564.351 487.549C564.95 487.49 565.574 487.428 566.314 487.543C568.308 487.853 569.891 488.224 571.431 488.585C571.635 488.633 571.838 488.68 572.042 488.728C573.78 489.132 575.524 489.511 577.805 489.76C578.847 489.873 579.963 489.737 581.086 489.519C581.647 489.41 582.212 489.28 582.769 489.15C583.327 489.02 583.879 488.89 584.417 488.781C586.575 488.341 588.485 488.237 589.67 489.741C590.538 490.841 590.524 492.027 589.945 493.122C589.365 494.22 588.216 495.224 586.815 495.945C583.956 497.416 580.275 497.51 576.843 497.002C573.412 496.495 570.237 495.388 568.395 494.467C567.64 494.09 567.058 494.107 566.572 494.376C566.091 494.641 565.712 495.148 565.348 495.725C565.229 495.914 565.111 496.11 564.992 496.309C564.744 496.723 564.489 497.149 564.199 497.543C563.77 498.124 563.268 498.625 562.609 498.899C560.085 499.947 557.284 499.833 554.013 499.701C553.843 499.694 553.673 499.687 553.501 499.68C550.012 499.541 546.005 499.449 541.278 500.744C539.667 501.185 538.279 501.274 536.903 501.362C536.791 501.369 536.679 501.376 536.567 501.384C535.08 501.481 533.588 501.612 531.838 502.222C531.083 502.485 530.523 502.799 529.982 503.102C529.921 503.136 529.86 503.17 529.799 503.204C529.198 503.538 528.595 503.852 527.739 504.068C525.957 504.518 524.739 504.447 523.502 504.252C523.207 504.206 522.911 504.153 522.605 504.098C521.627 503.922 520.554 503.729 519.135 503.697C515.068 503.606 511.592 504.218 508.137 504.827L507.838 504.88C504.285 505.506 500.737 506.106 496.569 505.913C480.565 505.175 472.816 504.954 457.586 504.805C454.605 504.776 452.099 504.91 449.721 505.036C448.902 505.08 448.098 505.123 447.295 505.158C444.161 505.295 441.038 505.315 437.076 504.806C434.385 504.46 432.655 504.083 430.924 503.704L430.879 503.694C429.162 503.318 427.437 502.941 424.766 502.589C420.561 502.036 417.173 502.036 413.658 502.082C413.36 502.086 413.062 502.09 412.762 502.094C409.519 502.14 406.103 502.188 401.786 501.85C397.388 501.506 394.183 499.106 393.213 495.239C392.879 493.907 393.076 492.816 393.632 491.874C394.188 490.929 395.107 490.13 396.222 489.389C397.229 488.72 398.393 488.101 399.589 487.464C399.718 487.395 399.847 487.326 399.977 487.257C401.307 486.547 402.66 485.807 403.862 484.949C408.472 481.657 415.17 480.088 421.058 478.708L421.181 478.679C424.138 477.986 426.885 477.339 429.047 476.54C431.206 475.743 432.797 474.791 433.422 473.478C434.85 470.478 436.367 467.477 437.857 464.542L438.179 463.908C439.557 461.194 440.904 458.541 442.127 456.002C444.762 450.53 446.825 445.583 447.377 441.696C453.407 399.291 454.1 375.526 455.237 336.594L455.255 336.001L455.256 335.95H455.205C454.432 335.95 452.916 335.702 451.594 334.772C450.275 333.843 449.145 332.234 449.145 329.5C449.145 327.524 450.379 326.163 451.76 325.292C452.45 324.857 453.175 324.547 453.797 324.344C454.42 324.142 454.935 324.05 455.205 324.05H455.253L455.255 324.001C455.919 300.482 455.94 286.524 455.97 266.13C455.976 262.139 455.983 257.901 455.994 253.297C456.119 204.031 456.837 140.957 457.524 90.1993C457.867 64.8205 458.203 42.5209 458.453 26.566C458.578 18.5885 458.681 12.1972 458.753 7.80031C458.79 5.60185 458.818 3.90199 458.837 2.75174L458.859 1.44495L458.865 1.11267L458.866 1.03894L458.91 1.02767C458.963 1.01445 459.039 0.99554 459.135 0.972788C459.326 0.927279 459.593 0.866429 459.899 0.805081C460.51 0.682212 461.269 0.558013 461.87 0.549996C462.523 0.541291 463.02 0.664737 463.523 0.791876L463.544 0.797095C464.04 0.922604 464.544 1.05 465.202 1.05C465.833 1.05 466.323 0.91704 466.8 0.787884C466.827 0.780429 466.855 0.772987 466.882 0.765584C467.385 0.629926 467.882 0.506882 468.531 0.549891C469.163 0.591796 469.627 0.826989 470.09 1.06168C470.119 1.07641 470.148 1.09114 470.177 1.10582C470.669 1.35413 471.171 1.58693 471.869 1.54993C472.437 1.51988 472.838 1.26643 473.221 1.0253C473.241 1.01229 473.262 0.999328 473.282 0.986436C473.685 0.733676 474.075 0.507509 474.64 0.54986C475.095 0.584027 475.394 0.813689 475.7 1.04979L475.723 1.06683C476.036 1.30778 476.362 1.55 476.865 1.55C477.366 1.55 477.697 1.34777 478.016 1.12389C478.051 1.09963 478.085 1.07514 478.12 1.05063C478.404 0.848607 478.69 0.64492 479.098 0.548666C479.932 0.352146 480.596 0.488459 481.274 0.669724C481.355 0.691236 481.436 0.713401 481.517 0.735713C482.121 0.901253 482.754 1.07489 483.531 1.04997C484.513 1.01854 485.256 0.779093 485.987 0.543489L486.044 0.525197C486.793 0.283873 487.537 0.05212 488.529 0.0499999C489.755 0.0473781 490.656 0.396157 491.565 0.760232L491.637 0.788942C492.523 1.144 493.423 1.50521 494.636 1.54997C495.855 1.59497 496.783 1.36555 497.706 1.11525C497.768 1.09833 497.83 1.08132 497.893 1.06429C498.753 0.829408 499.626 0.591332 500.749 0.549966C502.576 0.482685 503.978 0.897437 505.377 1.31178L505.456 1.33508C506.882 1.757 508.315 2.1689 510.192 2.0499C511.471 1.96882 512.439 1.62397 513.386 1.28657C513.436 1.26884 513.486 1.25114 513.536 1.23349C514.531 0.880002 515.521 0.55 516.854 0.55C518.17 0.55 519.15 0.925648 520.134 1.30282L520.169 1.31596C521.164 1.69745 522.168 2.07588 523.52 2.04999C524.391 2.03329 524.828 1.84169 525.304 1.63247C525.38 1.59912 525.457 1.56533 525.537 1.53173C526.114 1.2893 526.857 1.05 528.517 1.05C529.938 1.05 531.026 1.27056 532.118 1.5062C532.174 1.5183 532.23 1.53044 532.286 1.54259C533.323 1.76713 534.379 1.9958 535.735 2.04996C537.8 2.13238 539.25 1.97632 540.913 1.79735C541.703 1.71232 542.542 1.62212 543.517 1.54986C544.398 1.48454 545.136 1.38639 545.835 1.29347C546.084 1.26037 546.328 1.22793 546.572 1.19788C547.5 1.08339 548.427 1.00292 549.62 1.04996C550.756 1.09473 551.635 1.32841 552.504 1.55953C552.557 1.57368 552.61 1.58781 552.663 1.6019C553.586 1.8461 554.513 2.07379 555.733 2.04999C557.082 2.02365 558.085 1.6777 559.082 1.3249L559.146 1.30227C560.121 0.956901 561.096 0.611404 562.399 0.549944C563.815 0.483135 564.901 0.756461 565.993 1.0358L566.027 1.04443C567.109 1.32099 568.2 1.60006 569.618 1.54997C570.317 1.5253 570.87 1.40389 571.404 1.28648C571.46 1.27419 571.516 1.26194 571.572 1.24985C572.159 1.1223 572.743 1.01198 573.502 1.04994C574.004 1.07505 574.393 1.19146 574.779 1.30688C574.812 1.31675 574.845 1.32661 574.878 1.33641C575.298 1.46079 575.723 1.574 576.284 1.54995C576.737 1.53053 577.076 1.43491 577.411 1.32974C577.448 1.31805 577.485 1.30626 577.522 1.29443C577.82 1.19992 578.122 1.10389 578.51 1.04952C579.686 0.884802 580.609 0.995904 581.539 1.15548C581.698 1.18274 581.857 1.21144 582.018 1.24043C582.798 1.38107 583.614 1.52836 584.611 1.54999C586.064 1.58151 587.236 1.41001 588.371 1.24403C588.513 1.22327 588.654 1.20259 588.795 1.18241C590.065 1.0009 591.328 0.858954 592.937 1.04965C593.37 1.10084 593.72 1.2136 594.06 1.32266C594.146 1.35051 594.232 1.37812 594.319 1.4044C594.742 1.53341 595.171 1.62811 595.727 1.54951C596.215 1.48061 596.538 1.258 596.851 1.04224L596.859 1.03672C597.174 0.819089 597.481 0.609646 597.948 0.549592C598.611 0.464417 599.089 0.693944 599.58 0.958408C599.614 0.976979 599.649 0.99573 599.683 1.01455C600.141 1.26321 600.623 1.52453 601.272 1.54996C602.072 1.58126 602.661 1.37637 603.242 1.14201C603.308 1.11526 603.374 1.08813 603.441 1.06094C603.956 0.849883 604.482 0.634372 605.168 0.549623C606.678 0.363008 607.849 0.599128 609.027 0.889572C609.161 0.922506 609.295 0.95615 609.429 0.989956C610.481 1.25425 611.571 1.52842 612.937 1.54999C614.606 1.57635 615.913 1.29847 617.196 1.02565C617.262 1.01156 617.328 0.997483 617.394 0.983464C618.742 0.697992 620.084 0.435488 621.821 0.549892C622.843 0.617261 623.635 0.837757 624.415 1.05535C624.472 1.07116 624.529 1.08696 624.585 1.10268C625.423 1.33477 626.265 1.55 627.378 1.55C628.475 1.55 629.308 1.29537 630.13 1.044L630.17 1.03193C631.005 0.776724 631.834 0.528977 632.931 0.549991C633.89 0.56835 634.616 0.812639 635.342 1.05662L635.415 1.08138C636.166 1.33333 636.923 1.57639 637.932 1.54998C638.545 1.53393 639.316 1.40822 639.932 1.28711C640.24 1.22647 640.51 1.16684 640.703 1.12237C640.799 1.10013 640.877 1.08167 640.93 1.06877L640.95 1.06391L640.949 1.21063C640.948 1.34918 640.946 1.55393 640.943 1.81871C640.938 2.34828 640.929 3.11796 640.913 4.07834C640.881 5.99911 640.822 8.68262 640.714 11.7336C640.499 17.8359 640.089 25.4065 639.309 31.2838C637.65 43.7936 636.174 54.6991 634.809 64.7873C630.773 94.6159 627.703 117.3 623.717 153.185C617.161 212.203 609.356 245.528 594.585 303.153C588.691 326.146 578.177 345.991 569.972 358.547C560.738 372.68 542.9 389.566 531.412 398.8C528.828 400.877 524.529 402.445 520.869 403.494C519.04 404.018 517.373 404.412 516.163 404.675C515.558 404.806 515.068 404.905 514.729 404.971C514.559 405.003 514.427 405.028 514.338 405.045L514.236 405.063L514.21 405.068L514.204 405.069L514.202 405.069L514.202 405.069C514.202 405.069 514.202 405.069 514.21 405.118L514.202 405.069Z" />
</g>
<path d="M767.798 405.069L767.84 405.076V405.118V410.659V410.687L767.816 410.702L767.79 410.659L767.816 410.702L767.816 410.702L767.815 410.703L767.811 410.705L767.797 410.714L767.74 410.75C767.689 410.782 767.615 410.83 767.521 410.893C767.331 411.017 767.058 411.201 766.725 411.436C766.058 411.905 765.15 412.579 764.187 413.397C762.258 415.035 760.112 417.244 759.22 419.543C758.32 421.861 758.523 425.173 758.954 427.915C759.169 429.284 759.441 430.507 759.659 431.389C759.768 431.83 759.864 432.185 759.932 432.43C759.966 432.552 759.994 432.647 760.013 432.711L760.034 432.784L760.04 432.802L760.041 432.807L760.041 432.808L760.041 432.808L760.042 432.808L760.043 432.817L760.454 436.142L760.456 436.164L760.442 436.181L760.404 436.148L760.442 436.181L760.441 436.181L760.441 436.182L760.438 436.185L760.426 436.199L760.379 436.252C760.339 436.3 760.279 436.37 760.202 436.461C760.047 436.643 759.825 436.909 759.552 437.242C759.006 437.909 758.259 438.847 757.454 439.935C755.842 442.11 753.999 444.876 753.065 447.248C752.358 449.041 752.169 450.527 751.995 452.023L751.977 452.179C751.81 453.624 751.64 455.089 751.014 456.851C749.371 461.471 747.729 464.89 746.036 468.215C745.714 468.849 745.389 469.478 745.063 470.112C743.675 472.808 742.249 475.58 740.754 479.017C740.318 480.022 739.762 480.818 739.023 481.43C738.284 482.043 737.365 482.47 736.206 482.74C735.611 482.879 735.103 482.79 734.616 482.704L734.526 482.689C734.01 482.599 733.511 482.529 732.929 482.739C732.312 482.961 731.982 483.331 731.665 483.738C731.629 483.784 731.593 483.832 731.557 483.879C731.276 484.246 730.979 484.635 730.477 484.95C729.037 485.856 727.398 485.838 725.789 485.82L725.679 485.819C724.03 485.801 722.416 485.806 721.042 486.795C720.005 487.542 719.179 487.648 718.353 487.607C718.118 487.596 717.886 487.573 717.649 487.549C717.05 487.49 716.426 487.428 715.686 487.543C713.692 487.853 712.109 488.224 710.569 488.585C710.365 488.633 710.162 488.68 709.958 488.728C708.22 489.132 706.476 489.511 704.195 489.76C703.153 489.873 702.037 489.737 700.914 489.519C700.353 489.41 699.788 489.28 699.231 489.15C698.673 489.02 698.121 488.89 697.583 488.781C695.425 488.341 693.515 488.237 692.33 489.741C691.462 490.841 691.476 492.027 692.055 493.122C692.635 494.22 693.784 495.224 695.185 495.945C698.044 497.416 701.725 497.51 705.157 497.002C708.588 496.495 711.763 495.388 713.605 494.467C714.36 494.09 714.942 494.107 715.428 494.376C715.909 494.641 716.288 495.148 716.652 495.725C716.771 495.914 716.889 496.11 717.008 496.309C717.256 496.723 717.511 497.149 717.801 497.543C718.23 498.124 718.732 498.625 719.391 498.899C721.915 499.947 724.716 499.833 727.987 499.701C728.157 499.694 728.327 499.687 728.499 499.68C731.988 499.541 735.995 499.449 740.722 500.744C742.333 501.185 743.721 501.274 745.097 501.362C745.209 501.369 745.321 501.376 745.433 501.384C746.92 501.481 748.412 501.612 750.162 502.222C750.917 502.485 751.477 502.799 752.018 503.102C752.079 503.136 752.14 503.17 752.201 503.204C752.802 503.538 753.405 503.852 754.261 504.068C756.043 504.518 757.261 504.447 758.498 504.252C758.793 504.206 759.089 504.153 759.395 504.098C760.373 503.922 761.446 503.729 762.865 503.697C766.932 503.606 770.408 504.218 773.863 504.827L774.162 504.88C777.715 505.506 781.263 506.106 785.431 505.913C801.435 505.175 809.184 504.954 824.414 504.805C827.395 504.776 829.901 504.91 832.279 505.036C833.098 505.08 833.902 505.123 834.705 505.158C837.839 505.295 840.962 505.315 844.924 504.806C847.615 504.46 849.345 504.083 851.076 503.704L851.121 503.694C852.838 503.318 854.563 502.941 857.234 502.589C861.439 502.036 864.827 502.036 868.342 502.082C868.64 502.086 868.938 502.09 869.238 502.094C872.481 502.14 875.897 502.188 880.214 501.85C884.612 501.506 887.817 499.106 888.787 495.239C889.121 493.907 888.924 492.816 888.368 491.874C887.812 490.929 886.893 490.13 885.778 489.389C884.771 488.72 883.607 488.101 882.411 487.464C882.282 487.395 882.153 487.326 882.023 487.257C880.693 486.547 879.34 485.807 878.138 484.949C873.528 481.657 866.83 480.088 860.942 478.708L860.819 478.679C857.862 477.986 855.115 477.339 852.953 476.54C850.794 475.743 849.203 474.791 848.578 473.478C847.15 470.478 845.633 467.477 844.143 464.542L843.821 463.908C842.443 461.194 841.096 458.541 839.873 456.002C837.238 450.53 835.175 445.583 834.623 441.696C828.593 399.291 827.9 375.526 826.763 336.594L826.745 336.001L826.744 335.95H826.795C827.568 335.95 829.084 335.702 830.406 334.772C831.725 333.843 832.855 332.234 832.855 329.5C832.855 327.524 831.621 326.163 830.24 325.292C829.55 324.857 828.825 324.547 828.203 324.344C827.58 324.142 827.065 324.05 826.795 324.05H826.747L826.745 324.001C826.081 300.482 826.06 286.524 826.03 266.13C826.024 262.139 826.017 257.901 826.006 253.297C825.881 204.031 825.163 140.957 824.476 90.1993C824.133 64.8205 823.797 42.5209 823.547 26.566C823.422 18.5885 823.319 12.1972 823.247 7.80031C823.21 5.60185 823.182 3.90199 823.163 2.75174L823.141 1.44495L823.135 1.11267L823.134 1.03894L823.09 1.02767C823.037 1.01445 822.961 0.99554 822.865 0.972788C822.674 0.927279 822.407 0.866429 822.101 0.805081C821.49 0.682212 820.731 0.558013 820.13 0.549996C819.477 0.541291 818.98 0.664737 818.477 0.791876L818.456 0.797095C817.96 0.922604 817.456 1.05 816.798 1.05C816.167 1.05 815.677 0.91704 815.2 0.787884C815.173 0.780429 815.145 0.772987 815.118 0.765584C814.615 0.629926 814.118 0.506882 813.469 0.549891C812.837 0.591796 812.373 0.826989 811.91 1.06168C811.881 1.07641 811.852 1.09114 811.823 1.10582C811.331 1.35413 810.829 1.58693 810.131 1.54993C809.563 1.51988 809.162 1.26643 808.779 1.0253C808.759 1.01229 808.738 0.999328 808.718 0.986436C808.315 0.733676 807.925 0.507509 807.36 0.54986C806.905 0.584027 806.606 0.813689 806.3 1.04979L806.277 1.06683C805.964 1.30778 805.638 1.55 805.135 1.55C804.634 1.55 804.303 1.34777 803.984 1.12389C803.949 1.09963 803.915 1.07514 803.88 1.05063C803.596 0.848607 803.31 0.64492 802.902 0.548666C802.068 0.352146 801.404 0.488459 800.726 0.669724C800.645 0.691236 800.564 0.713401 800.483 0.735713C799.879 0.901253 799.246 1.07489 798.469 1.04997C797.487 1.01854 796.744 0.779093 796.013 0.543489L795.956 0.525197C795.207 0.283873 794.463 0.05212 793.471 0.0499999C792.245 0.0473781 791.344 0.396157 790.435 0.760232L790.363 0.788942C789.477 1.144 788.577 1.50521 787.364 1.54997C786.145 1.59497 785.217 1.36555 784.294 1.11525C784.232 1.09833 784.17 1.08132 784.107 1.06429C783.247 0.829408 782.374 0.591332 781.251 0.549966C779.424 0.482685 778.022 0.897437 776.623 1.31178L776.544 1.33508C775.118 1.757 773.685 2.1689 771.808 2.0499C770.529 1.96882 769.561 1.62397 768.614 1.28657C768.564 1.26884 768.514 1.25114 768.464 1.23349C767.469 0.880002 766.479 0.55 765.146 0.55C763.83 0.55 762.85 0.925648 761.866 1.30282L761.831 1.31596C760.836 1.69745 759.832 2.07588 758.48 2.04999C757.609 2.03329 757.172 1.84169 756.696 1.63247C756.62 1.59912 756.543 1.56533 756.463 1.53173C755.886 1.2893 755.143 1.05 753.483 1.05C752.062 1.05 750.974 1.27056 749.882 1.5062C749.826 1.5183 749.77 1.53044 749.714 1.54259C748.677 1.76713 747.621 1.9958 746.265 2.04996C744.2 2.13238 742.75 1.97632 741.087 1.79735C740.297 1.71232 739.458 1.62212 738.483 1.54986C737.602 1.48454 736.864 1.38639 736.165 1.29347C735.916 1.26037 735.672 1.22793 735.428 1.19788C734.5 1.08339 733.573 1.00292 732.38 1.04996C731.244 1.09473 730.365 1.32841 729.496 1.55953C729.443 1.57368 729.39 1.58781 729.337 1.6019C728.414 1.8461 727.487 2.07379 726.267 2.04999C724.918 2.02365 723.915 1.6777 722.918 1.3249L722.854 1.30227C721.879 0.956901 720.904 0.611404 719.601 0.549944C718.185 0.483135 717.099 0.756461 716.007 1.0358L715.973 1.04443C714.891 1.32099 713.8 1.60006 712.382 1.54997C711.683 1.5253 711.13 1.40389 710.596 1.28648C710.54 1.27419 710.484 1.26194 710.428 1.24985C709.841 1.1223 709.257 1.01198 708.498 1.04994C707.996 1.07505 707.607 1.19146 707.221 1.30688C707.188 1.31675 707.155 1.32661 707.122 1.33641C706.702 1.46079 706.277 1.574 705.716 1.54995C705.263 1.53053 704.924 1.43491 704.589 1.32974C704.552 1.31805 704.515 1.30626 704.478 1.29443C704.18 1.19992 703.878 1.10389 703.49 1.04952C702.314 0.884802 701.391 0.995904 700.461 1.15548C700.302 1.18274 700.143 1.21144 699.982 1.24043C699.202 1.38107 698.386 1.52836 697.389 1.54999C695.936 1.58151 694.764 1.41001 693.629 1.24403C693.487 1.22327 693.346 1.20259 693.205 1.18241C691.935 1.0009 690.672 0.858954 689.063 1.04965C688.63 1.10084 688.28 1.2136 687.94 1.32266C687.854 1.35051 687.768 1.37812 687.681 1.4044C687.258 1.53341 686.829 1.62811 686.273 1.54951C685.785 1.48061 685.462 1.258 685.149 1.04224L685.141 1.03672C684.826 0.819089 684.519 0.609646 684.052 0.549592C683.389 0.464417 682.911 0.693944 682.42 0.958408C682.386 0.976979 682.351 0.99573 682.317 1.01455C681.859 1.26321 681.377 1.52453 680.728 1.54996C679.928 1.58126 679.339 1.37637 678.758 1.14201C678.692 1.11526 678.626 1.08813 678.559 1.06094C678.044 0.849883 677.518 0.634372 676.832 0.549623C675.322 0.363008 674.151 0.599128 672.973 0.889572C672.839 0.922506 672.705 0.95615 672.571 0.989956C671.519 1.25425 670.429 1.52842 669.063 1.54999C667.394 1.57635 666.087 1.29847 664.804 1.02565C664.738 1.01156 664.672 0.997483 664.606 0.983464C663.258 0.697992 661.916 0.435488 660.179 0.549892C659.157 0.617261 658.365 0.837757 657.585 1.05535C657.528 1.07116 657.471 1.08696 657.415 1.10268C656.577 1.33477 655.735 1.55 654.622 1.55C653.525 1.55 652.692 1.29537 651.87 1.044L651.83 1.03193C650.995 0.776724 650.166 0.528977 649.069 0.549991C648.11 0.56835 647.384 0.812639 646.658 1.05662L646.585 1.08138C645.834 1.33333 645.077 1.57639 644.068 1.54998C643.455 1.53393 642.684 1.40822 642.068 1.28711C641.76 1.22647 641.49 1.16684 641.297 1.12237C641.201 1.10013 641.123 1.08167 641.07 1.06877L641.05 1.06391L641.051 1.21063C641.052 1.34918 641.054 1.55393 641.057 1.81871C641.062 2.34828 641.071 3.11796 641.087 4.07834C641.119 5.99911 641.178 8.68262 641.286 11.7336C641.501 17.8359 641.911 25.4065 642.691 31.2838C644.35 43.7936 645.826 54.6991 647.191 64.7873C651.227 94.6159 654.297 117.3 658.283 153.185C664.839 212.203 672.644 245.528 687.415 303.153C693.309 326.146 703.823 345.991 712.028 358.547C721.262 372.68 739.1 389.566 750.588 398.8C753.172 400.877 757.471 402.445 761.131 403.494C762.96 404.018 764.627 404.412 765.837 404.675C766.442 404.806 766.932 404.905 767.271 404.971C767.441 405.003 767.573 405.028 767.662 405.045L767.764 405.063L767.79 405.068L767.796 405.069L767.798 405.069L767.798 405.069C767.798 405.069 767.798 405.069 767.79 405.118L767.798 405.069Z"  />
</g>
</g>
<defs>
<filter id="filter0_f_2_33674" x="-1" y="-1" width="250" height="508" filterUnits="userSpaceOnUse" color-interpolation-filters="sRGB">
<feFlood flood-opacity="0" result="BackgroundImageFix"/>
<feBlend mode="normal" in="SourceGraphic" in2="BackgroundImageFix" result="shape"/>
<feGaussianBlur stdDeviation="0.5" result="effect1_foregroundBlur_2_33674"/>
</filter>
<filter id="filter1_f_2_33674" x="392" y="-1" width="250" height="508" filterUnits="userSpaceOnUse" color-interpolation-filters="sRGB">
<feFlood flood-opacity="0" result="BackgroundImageFix"/>
<feBlend mode="normal" in="SourceGraphic" in2="BackgroundImageFix" result="shape"/>
<feGaussianBlur stdDeviation="0.5" result="effect1_foregroundBlur_2_33674"/>
</filter>
<clipPath id="clip0_2_33674">
<rect width="889" height="506" />
</clipPath>
<clipPath id="clip1_2_33674">
<rect width="496" height="506" />
</clipPath>
<clipPath id="clip2_2_33674">
<rect width="496" height="506"  transform="translate(393)"/>
</clipPath>
</defs>
</svg>
