<svg width="889" height="506" viewBox="0 0 889 506" fill="none" xmlns="http://www.w3.org/2000/svg">
<g clip-path="url(#clip0_2_32662)">
<g clip-path="url(#clip1_2_32662)">
<path d="M103.569 505.914C95.6879 505.55 89.8087 505.312 84.052 505.146L88.0496 405.131L117.545 342.522L117.547 342.522L117.549 342.51L138.493 237.51L138.493 237.51L138.494 237.505L150.563 108.505L150.563 108.503L156.669 1.05245C157.781 1.10192 158.647 1.33218 159.504 1.55996C159.557 1.57411 159.61 1.58824 159.663 1.60233C160.586 1.84652 161.513 2.07422 162.733 2.05042C164.082 2.02408 165.085 1.67813 166.082 1.32532L166.146 1.30271C167.121 0.957337 168.096 0.611833 169.399 0.550372C170.815 0.483563 171.901 0.756889 172.993 1.03622L173.027 1.04486C174.109 1.32142 175.2 1.60049 176.618 1.5504C177.317 1.52573 177.87 1.40432 178.404 1.28691C178.46 1.27461 178.516 1.26237 178.572 1.25028C179.159 1.12273 179.743 1.01241 180.502 1.05037C181.004 1.07548 181.393 1.19189 181.779 1.30731C181.812 1.31718 181.845 1.32704 181.878 1.33683C182.298 1.46122 182.723 1.57443 183.284 1.55038C183.737 1.53095 184.076 1.43534 184.411 1.33017C184.448 1.31849 184.485 1.30669 184.522 1.29487C184.82 1.20035 185.122 1.10432 185.51 1.04994C186.686 0.88523 187.609 0.996332 188.539 1.15591C188.698 1.18317 188.857 1.21187 189.018 1.24085C189.798 1.3815 190.614 1.52879 191.611 1.55042C193.064 1.58194 194.236 1.41044 195.371 1.24446C195.513 1.2237 195.654 1.20302 195.795 1.18284C197.065 1.00132 198.328 0.859382 199.937 1.05008C200.37 1.10127 200.72 1.21403 201.06 1.32309C201.146 1.35094 201.232 1.37855 201.319 1.40483C201.742 1.53384 202.171 1.62854 202.727 1.54994C203.215 1.48104 203.538 1.25845 203.851 1.04269L203.859 1.03715C204.174 0.819517 204.481 0.610074 204.948 0.55002C205.611 0.464845 206.089 0.694372 206.58 0.958836C206.614 0.977412 206.649 0.996169 206.683 1.015C207.141 1.26365 207.623 1.52496 208.272 1.55039C209.072 1.58168 209.661 1.3768 210.242 1.14244C210.308 1.11568 210.374 1.08855 210.441 1.06135C210.956 0.850302 211.482 0.634799 212.168 0.550051C213.678 0.363436 214.849 0.599556 216.027 0.89C216.161 0.922931 216.295 0.956573 216.429 0.990377C217.481 1.25468 218.571 1.52885 219.937 1.55042C221.606 1.57678 222.913 1.29889 224.196 1.02607C224.262 1.01199 224.328 0.997911 224.394 0.983892C225.742 0.69842 227.084 0.435916 228.821 0.55032C229.843 0.617688 230.635 0.838178 231.415 1.05577C231.472 1.07158 231.529 1.08738 231.585 1.1031C232.423 1.3352 233.265 1.55043 234.378 1.55043C235.475 1.55043 236.308 1.2958 237.13 1.04442L237.17 1.03236C238.005 0.777152 238.834 0.529405 239.931 0.550419C240.889 0.568778 241.616 0.81306 242.342 1.05704L242.416 1.08181C243.166 1.33376 243.923 1.57682 244.932 1.55041C245.545 1.53436 246.316 1.40865 246.932 1.28753C247.24 1.2269 247.51 1.16727 247.703 1.12279C247.799 1.10055 247.877 1.0821 247.93 1.0692L247.95 1.06434L247.949 1.21106C247.948 1.3496 247.946 1.55436 247.943 1.81914C247.938 2.34871 247.929 3.11839 247.913 4.07877C247.881 5.99954 247.822 8.68305 247.714 11.734C247.499 17.8363 247.089 25.4069 246.309 31.2843C244.65 43.794 243.174 54.6995 241.809 64.7877C237.773 94.6163 234.703 117.3 230.717 153.186C224.161 212.203 216.356 245.529 201.585 303.153C195.691 326.146 185.177 345.992 176.972 358.548C167.738 372.68 149.9 389.567 138.412 398.8C135.828 400.877 131.529 402.445 127.869 403.494C126.04 404.018 124.373 404.412 123.163 404.675C122.558 404.806 122.068 404.905 121.729 404.971C121.687 404.979 121.648 404.987 121.611 404.994C121.497 405.015 121.405 405.033 121.338 405.045L121.236 405.064L121.21 405.068L121.204 405.069L121.202 405.07L121.202 405.07C121.202 405.07 121.202 405.07 121.21 405.119L121.202 405.07L121.16 405.077V405.119V410.66V410.688L121.184 410.702L121.21 410.66L121.184 410.702L121.184 410.702L121.185 410.703L121.189 410.705L121.203 410.714L121.26 410.751C121.311 410.783 121.385 410.831 121.479 410.893C121.669 411.018 121.942 411.201 122.275 411.436C122.942 411.905 123.85 412.579 124.813 413.397C126.742 415.035 128.888 417.245 129.78 419.543C130.68 421.861 130.477 425.174 130.046 427.915C129.831 429.284 129.559 430.508 129.341 431.389C129.232 431.83 129.136 432.185 129.068 432.43C129.034 432.552 129.006 432.647 128.987 432.711L128.966 432.784L128.96 432.803L128.959 432.807L128.959 432.809L128.959 432.809L128.958 432.809L128.957 432.817L128.546 436.142L128.544 436.164L128.558 436.181L128.596 436.148L128.558 436.181L128.559 436.181L128.559 436.182L128.562 436.185L128.574 436.199L128.621 436.253C128.661 436.3 128.721 436.37 128.798 436.461C128.953 436.644 129.175 436.909 129.448 437.242C129.994 437.909 130.741 438.848 131.546 439.935C133.158 442.11 135.001 444.876 135.935 447.248C136.642 449.042 136.831 450.528 137.005 452.024L137.023 452.18C137.19 453.625 137.36 455.089 137.986 456.851C139.629 461.471 141.271 464.89 142.964 468.216C143.286 468.849 143.611 469.479 143.937 470.113C145.325 472.808 146.751 475.58 148.246 479.018C148.682 480.022 149.238 480.818 149.977 481.431C150.716 482.043 151.635 482.471 152.794 482.741C153.389 482.879 153.897 482.79 154.384 482.705L154.474 482.689C154.99 482.599 155.489 482.529 156.071 482.739C156.688 482.961 157.018 483.331 157.335 483.738C157.371 483.785 157.407 483.832 157.443 483.879C157.724 484.247 158.021 484.635 158.523 484.951C159.963 485.857 161.602 485.838 163.211 485.821L163.321 485.819C164.97 485.802 166.584 485.806 167.958 486.796C168.995 487.543 169.821 487.648 170.647 487.608C170.882 487.596 171.114 487.573 171.351 487.55C171.95 487.49 172.574 487.428 173.314 487.543C175.308 487.854 176.891 488.225 178.431 488.585C178.635 488.633 178.838 488.681 179.042 488.728C180.78 489.132 182.524 489.511 184.805 489.76C185.847 489.874 186.963 489.738 188.086 489.52C188.647 489.41 189.212 489.28 189.769 489.151L189.901 489.12C190.414 489 190.921 488.882 191.417 488.781C193.575 488.341 195.485 488.237 196.67 489.741C197.538 490.841 197.524 492.028 196.945 493.122C196.365 494.22 195.216 495.225 193.815 495.946C190.956 497.416 187.275 497.51 183.843 497.003C180.412 496.496 177.237 495.389 175.395 494.468C174.64 494.09 174.058 494.108 173.572 494.376C173.091 494.642 172.712 495.148 172.348 495.726C172.229 495.914 172.111 496.111 171.992 496.31C171.744 496.724 171.489 497.15 171.199 497.543C170.77 498.124 170.268 498.625 169.609 498.899C167.085 499.948 164.284 499.834 161.013 499.701C160.843 499.694 160.673 499.687 160.501 499.68C157.012 499.542 153.005 499.449 148.278 500.744C146.667 501.185 145.279 501.274 143.903 501.362C143.791 501.37 143.679 501.377 143.567 501.384C142.08 501.482 140.588 501.612 138.838 502.223C138.083 502.486 137.523 502.799 136.982 503.102C136.921 503.137 136.86 503.171 136.799 503.205C136.198 503.539 135.595 503.852 134.739 504.068C132.957 504.518 131.739 504.447 130.502 504.253C130.207 504.207 129.911 504.153 129.605 504.098C128.627 503.922 127.554 503.729 126.135 503.697C122.068 503.606 118.592 504.219 115.137 504.828L114.838 504.881C111.285 505.506 107.737 506.106 103.569 505.914Z"  />
<path d="M62.2046 324.05H62.2532L62.2546 324.001C62.9187 300.482 62.9397 286.524 62.9704 266.13C62.9764 262.139 62.9827 257.901 62.9944 253.297C63.1189 204.031 63.837 140.957 64.5239 90.1993C64.8674 64.8205 65.2031 42.5209 65.4529 26.566C65.5778 18.5885 65.6812 12.1972 65.7534 7.80033C65.7895 5.60187 65.8178 3.902 65.8371 2.75175L65.8591 1.44496L65.8647 1.11269L65.866 1.03895L65.9103 1.02768C65.9628 1.01447 66.0393 0.995555 66.1348 0.972803C66.3259 0.927294 66.5933 0.866444 66.8985 0.805096C67.5097 0.682227 68.2691 0.558028 68.87 0.55001C69.5225 0.541305 70.0202 0.664752 70.5233 0.791891L70.5439 0.797109C71.0404 0.922618 71.5443 1.05001 72.2018 1.05001C72.8326 1.05001 73.3233 0.917055 73.7999 0.787898C73.8274 0.780444 73.8549 0.773002 73.8823 0.765599C74.3851 0.62994 74.8817 0.506896 75.5308 0.549905C76.1634 0.591811 76.6272 0.827003 77.0901 1.06169C77.1192 1.07643 77.1482 1.09116 77.1773 1.10584C77.6693 1.35414 78.1705 1.58694 78.8692 1.54994C79.4366 1.5199 79.8384 1.26646 80.2207 1.02532C80.2413 1.01232 80.2619 0.999346 80.2824 0.98645C80.6847 0.73369 81.0753 0.507524 81.6398 0.549875C82.0952 0.584042 82.3936 0.813704 82.7004 1.04981L82.7226 1.06685C83.0359 1.3078 83.3617 1.55001 83.8651 1.55001C84.366 1.55001 84.6975 1.34778 85.0165 1.12391C85.0511 1.09965 85.0855 1.07517 85.1199 1.05066C85.4037 0.848636 85.6899 0.644938 86.0982 0.54868C86.9317 0.35216 87.5957 0.488474 88.2744 0.669739C88.355 0.69125 88.4358 0.713414 88.5171 0.735724C89.1205 0.901265 89.7535 1.0749 90.5315 1.04999C91.5132 1.01855 92.2562 0.779107 92.9873 0.543504L93.044 0.525212C93.7935 0.283887 94.5371 0.0521348 95.5286 0.0500147C96.7546 0.0473929 97.6565 0.396172 98.5653 0.760247L98.637 0.788957C99.5226 1.14402 100.423 1.50523 101.636 1.54998C102.855 1.59499 103.783 1.36557 104.706 1.11526C104.768 1.09835 104.83 1.08133 104.893 1.06431C105.753 0.829426 106.626 0.591347 107.749 0.549981C109.576 0.482699 110.978 0.897455 112.378 1.3118L112.456 1.3351C113.882 1.75701 115.315 2.16892 117.192 2.04991C118.471 1.96883 119.439 1.62398 120.386 1.28658C120.436 1.26886 120.486 1.25115 120.536 1.23351C121.531 0.880016 122.521 0.550015 123.854 0.550015C125.17 0.550015 126.15 0.925663 127.134 1.30283L127.169 1.31597C128.164 1.69747 129.168 2.0759 130.52 2.05001C131.391 2.0333 131.828 1.8417 132.304 1.63248C132.38 1.59914 132.457 1.56535 132.537 1.53175C133.114 1.28931 133.857 1.05001 135.517 1.05001C136.938 1.05001 138.026 1.27057 139.118 1.50622C139.174 1.51832 139.23 1.53045 139.286 1.54261C140.323 1.76715 141.379 1.99581 142.735 2.04997C144.8 2.13239 146.25 1.97634 147.913 1.79736C148.703 1.71234 149.542 1.62214 150.517 1.54988C151.398 1.48455 152.136 1.38641 152.835 1.29348C153.084 1.26039 153.328 1.22795 153.572 1.19789C154.486 1.08504 155.401 1.00523 156.569 1.04804L150.463 108.495L150.463 108.497L138.394 237.495L117.452 342.484L87.9548 405.097L87.9504 405.106L87.95 405.116L83.952 505.143C78.0536 504.974 72.2726 504.881 64.5862 504.805C61.6049 504.776 59.0989 504.91 56.7206 505.036C55.9018 505.08 55.0981 505.123 54.2955 505.158C51.1609 505.295 48.0379 505.315 44.0759 504.806C41.3848 504.46 39.6551 504.083 37.9244 503.704L37.8786 503.694C36.1624 503.318 34.4368 502.941 31.7664 502.589C27.5609 502.036 24.1728 502.036 20.6579 502.082C20.3605 502.086 20.0621 502.09 19.7623 502.094C16.5191 502.14 13.1027 502.188 8.78566 501.85C4.38759 501.506 1.18344 499.106 0.213474 495.239C-0.120566 493.907 0.0762331 492.816 0.631533 491.874C1.18807 490.929 2.10672 490.13 3.22233 489.389C4.22934 488.72 5.39275 488.101 6.58899 487.464C6.71788 487.395 6.84716 487.326 6.97667 487.257C8.30692 486.547 9.66025 485.807 10.8624 484.949C15.4715 481.657 22.1696 480.088 28.0584 478.708L28.1815 478.679C31.1382 477.986 33.8855 477.339 36.0474 476.54C38.2063 475.743 39.7971 474.791 40.4219 473.478C41.8502 470.478 43.3672 467.477 44.8568 464.542L45.1787 463.908C46.5565 461.194 47.9036 458.541 49.1266 456.002C51.7619 450.53 53.8245 445.583 54.3772 441.696C60.4066 399.291 61.1005 375.526 62.2373 336.594L62.2546 336.001L62.2561 335.95H62.2046C61.4324 335.95 59.9158 335.702 58.5937 334.772C57.2746 333.843 56.1452 332.234 56.1452 329.5C56.1452 327.524 57.379 326.163 58.76 325.292C59.4502 324.857 60.1752 324.547 60.7968 324.344C61.4197 324.142 61.9346 324.05 62.2046 324.05Z"  />
<path d="M248.07 1.0692L248.05 1.06434L248.051 1.21106C248.052 1.3496 248.054 1.55436 248.057 1.81914C248.062 2.34871 248.071 3.11839 248.087 4.07877C248.119 5.99954 248.178 8.68305 248.286 11.734C248.501 17.8363 248.911 25.4069 249.691 31.2843C251.35 43.794 252.826 54.6995 254.191 64.7877C258.227 94.6163 261.297 117.3 265.283 153.186C271.839 212.203 279.644 245.529 294.415 303.153C300.309 326.146 310.823 345.992 319.028 358.548C328.262 372.68 346.1 389.567 357.588 398.8C360.172 400.877 364.471 402.445 368.131 403.494C369.96 404.018 371.627 404.412 372.837 404.675C373.442 404.806 373.932 404.905 374.271 404.971C374.441 405.004 374.573 405.029 374.662 405.045L374.764 405.064L374.79 405.068L374.796 405.069L374.798 405.07L374.798 405.07C374.798 405.07 374.798 405.07 374.79 405.119L374.798 405.07L374.84 405.077V405.119V410.66V410.688L374.816 410.702L374.79 410.66L374.816 410.702L374.816 410.702L374.815 410.703L374.811 410.705L374.797 410.714L374.74 410.751C374.689 410.783 374.615 410.831 374.521 410.893C374.331 411.018 374.058 411.201 373.725 411.436C373.058 411.905 372.15 412.579 371.187 413.397C369.258 415.035 367.112 417.245 366.22 419.543C365.32 421.861 365.523 425.174 365.954 427.915C366.169 429.284 366.441 430.508 366.659 431.389C366.768 431.83 366.864 432.185 366.932 432.43C366.95 432.492 366.965 432.547 366.979 432.594C366.992 432.64 367.003 432.68 367.013 432.711L367.034 432.784L367.04 432.803L367.041 432.807L367.041 432.809L367.041 432.809L367.042 432.809L367.043 432.817L367.454 436.142L367.456 436.164L367.442 436.181L367.404 436.148L367.442 436.181L367.441 436.181L367.441 436.182L367.438 436.185L367.426 436.199L367.379 436.253L367.321 436.321C367.287 436.36 367.248 436.407 367.202 436.461C367.047 436.644 366.825 436.909 366.552 437.242C366.006 437.909 365.259 438.848 364.454 439.935C362.842 442.11 360.999 444.876 360.065 447.248C359.358 449.042 359.169 450.528 358.995 452.024L358.977 452.18C358.81 453.625 358.64 455.089 358.014 456.851C356.371 461.471 354.729 464.89 353.036 468.216C352.714 468.849 352.389 469.479 352.063 470.113C350.675 472.808 349.249 475.58 347.754 479.018C347.318 480.022 346.762 480.818 346.023 481.431C345.284 482.043 344.365 482.471 343.206 482.741C342.611 482.879 342.103 482.79 341.616 482.705L341.526 482.689C341.01 482.599 340.511 482.529 339.929 482.739C339.312 482.961 338.982 483.331 338.665 483.738C338.629 483.785 338.593 483.832 338.557 483.879C338.276 484.247 337.979 484.635 337.477 484.951C336.037 485.857 334.398 485.838 332.789 485.821L332.679 485.819C331.03 485.802 329.416 485.806 328.042 486.796C327.005 487.543 326.179 487.648 325.353 487.608C325.118 487.596 324.886 487.573 324.649 487.55C324.05 487.49 323.426 487.428 322.686 487.543C320.692 487.854 319.109 488.225 317.569 488.585C317.365 488.633 317.162 488.681 316.958 488.728C315.22 489.132 313.476 489.511 311.195 489.76C310.153 489.874 309.037 489.738 307.914 489.52C307.353 489.41 306.788 489.28 306.231 489.151L306.099 489.12C305.586 489 305.079 488.882 304.583 488.781C302.425 488.341 300.515 488.237 299.33 489.741C298.462 490.841 298.476 492.028 299.055 493.122C299.635 494.22 300.784 495.225 302.185 495.946C305.044 497.416 308.725 497.51 312.157 497.003C315.588 496.496 318.763 495.389 320.605 494.468C321.36 494.09 321.942 494.108 322.428 494.376C322.909 494.642 323.288 495.148 323.652 495.726C323.771 495.914 323.889 496.111 324.008 496.31C324.256 496.724 324.511 497.15 324.801 497.543C325.23 498.124 325.732 498.625 326.391 498.899C328.915 499.948 331.716 499.834 334.987 499.701C335.157 499.694 335.327 499.687 335.499 499.68C338.988 499.542 342.995 499.449 347.722 500.744C349.333 501.185 350.721 501.274 352.097 501.362C352.209 501.37 352.321 501.377 352.433 501.384C353.92 501.482 355.412 501.612 357.162 502.223C357.917 502.486 358.477 502.799 359.018 503.102C359.079 503.137 359.14 503.171 359.201 503.205C359.802 503.539 360.405 503.852 361.261 504.068C363.043 504.518 364.261 504.447 365.498 504.253C365.793 504.207 366.089 504.153 366.395 504.098C367.373 503.922 368.446 503.729 369.865 503.697C373.932 503.606 377.408 504.219 380.863 504.828L381.162 504.881C384.715 505.506 388.263 506.106 392.431 505.914C396.564 505.723 400.147 505.567 403.45 505.438V405.126L366.125 283.015L366.125 283.015L366.124 283.009L348.951 178.509L348.95 178.509L348.95 178.503L342.45 72.5035L342.45 72.5026L339.33 1.05248C338.218 1.10201 337.353 1.33223 336.496 1.55996C336.443 1.57411 336.39 1.58824 336.337 1.60233C335.414 1.84652 334.487 2.07422 333.267 2.05042C331.918 2.02408 330.915 1.67813 329.918 1.32532L329.854 1.30271C328.879 0.957337 327.904 0.611833 326.601 0.550372C325.185 0.483563 324.099 0.756889 323.007 1.03622L322.973 1.04486C321.891 1.32142 320.8 1.60049 319.382 1.5504C318.683 1.52573 318.13 1.40432 317.596 1.28691C317.54 1.27461 317.484 1.26237 317.428 1.25028C316.841 1.12273 316.257 1.01241 315.498 1.05037C314.996 1.07548 314.607 1.19189 314.221 1.30731C314.188 1.31718 314.155 1.32704 314.122 1.33683C313.702 1.46122 313.277 1.57443 312.716 1.55038C312.263 1.53095 311.924 1.43534 311.589 1.33017C311.552 1.31849 311.515 1.30669 311.478 1.29487C311.18 1.20035 310.878 1.10432 310.49 1.04994C309.314 0.88523 308.391 0.996332 307.461 1.15591C307.302 1.18317 307.143 1.21187 306.982 1.24085C306.202 1.3815 305.386 1.52879 304.389 1.55042C302.936 1.58194 301.764 1.41044 300.629 1.24446C300.487 1.2237 300.346 1.20302 300.205 1.18284C298.935 1.00132 297.672 0.859382 296.063 1.05008C295.63 1.10127 295.28 1.21403 294.94 1.32309C294.854 1.35094 294.768 1.37855 294.681 1.40483C294.258 1.53384 293.829 1.62854 293.273 1.54994C292.785 1.48104 292.462 1.25845 292.149 1.04269L292.141 1.03715C291.826 0.819517 291.519 0.610074 291.052 0.55002C290.389 0.464845 289.911 0.694372 289.42 0.958836C289.386 0.977412 289.351 0.996169 289.317 1.015C288.859 1.26365 288.377 1.52496 287.728 1.55039C286.928 1.58168 286.339 1.3768 285.758 1.14244C285.692 1.11568 285.626 1.08855 285.559 1.06135C285.044 0.850302 284.518 0.634799 283.832 0.550051C282.322 0.363436 281.151 0.599556 279.973 0.89C279.839 0.922932 279.705 0.956575 279.571 0.99038C278.519 1.25468 277.429 1.52885 276.063 1.55042C274.394 1.57678 273.087 1.29889 271.804 1.02607C271.738 1.01199 271.672 0.997911 271.606 0.983892C270.258 0.69842 268.916 0.435916 267.179 0.55032C266.157 0.617688 265.365 0.838178 264.585 1.05577C264.528 1.07158 264.471 1.08738 264.415 1.1031C263.577 1.3352 262.735 1.55043 261.622 1.55043C260.525 1.55043 259.692 1.2958 258.87 1.04442L258.83 1.03236C257.995 0.777152 257.166 0.529405 256.069 0.550419C255.111 0.568778 254.384 0.81306 253.658 1.05704L253.584 1.08181C252.834 1.33376 252.077 1.57682 251.068 1.55041C250.455 1.53436 249.684 1.40865 249.068 1.28753C248.76 1.2269 248.49 1.16727 248.297 1.12279C248.201 1.10055 248.123 1.0821 248.07 1.0692Z" fill="#FFFDFD" />
<path d="M433.795 324.05H433.747L433.745 324.001C433.081 300.482 433.06 286.524 433.03 266.13C433.024 262.139 433.017 257.901 433.006 253.297C432.881 204.031 432.163 140.957 431.476 90.1993C431.133 64.8205 430.797 42.5209 430.547 26.566C430.422 18.5885 430.319 12.1972 430.247 7.80033C430.21 5.60187 430.182 3.902 430.163 2.75175L430.141 1.44496L430.135 1.11269L430.134 1.03895L430.09 1.02768C430.037 1.01447 429.961 0.995555 429.865 0.972803C429.674 0.927294 429.407 0.866444 429.101 0.805096C428.49 0.682227 427.731 0.558028 427.13 0.55001C426.478 0.541305 425.98 0.664752 425.477 0.791891L425.456 0.797109C424.96 0.922618 424.456 1.05001 423.798 1.05001C423.167 1.05001 422.677 0.917055 422.2 0.787898C422.173 0.780444 422.145 0.773002 422.118 0.765599C421.615 0.62994 421.118 0.506896 420.469 0.549905C419.837 0.591811 419.373 0.827003 418.91 1.06169C418.881 1.07643 418.852 1.09116 418.823 1.10584C418.331 1.35414 417.829 1.58694 417.131 1.54994C416.563 1.5199 416.162 1.26646 415.779 1.02532C415.759 1.01232 415.738 0.999346 415.718 0.98645C415.315 0.73369 414.925 0.507524 414.36 0.549875C413.905 0.584042 413.606 0.813704 413.3 1.04981L413.277 1.06685C412.964 1.3078 412.638 1.55001 412.135 1.55001C411.634 1.55001 411.303 1.34778 410.983 1.12391C410.949 1.09965 410.915 1.07517 410.88 1.05066C410.596 0.848636 410.31 0.644938 409.902 0.54868C409.068 0.35216 408.404 0.488474 407.726 0.669739C407.645 0.69125 407.564 0.713414 407.483 0.735724C406.879 0.901265 406.246 1.0749 405.469 1.04999C404.487 1.01855 403.744 0.779107 403.013 0.543504L402.956 0.525212C402.207 0.283887 401.463 0.0521348 400.471 0.0500147C399.245 0.0473929 398.344 0.396172 397.435 0.760247L397.363 0.788957C396.477 1.14402 395.577 1.50523 394.364 1.54998C393.145 1.59499 392.217 1.36557 391.294 1.11526C391.232 1.09835 391.17 1.08133 391.107 1.06431C390.247 0.829426 389.374 0.591347 388.251 0.549981C386.424 0.482699 385.022 0.897455 383.622 1.3118L383.544 1.3351C382.118 1.75701 380.685 2.16892 378.808 2.04991C377.529 1.96883 376.561 1.62398 375.614 1.28658C375.564 1.26886 375.514 1.25115 375.464 1.23351C374.469 0.880016 373.479 0.550015 372.146 0.550015C370.83 0.550015 369.85 0.925663 368.866 1.30283L368.831 1.31597C367.836 1.69747 366.832 2.0759 365.48 2.05001C364.609 2.0333 364.172 1.8417 363.696 1.63248C363.62 1.59914 363.543 1.56535 363.463 1.53175C362.886 1.28931 362.143 1.05001 360.483 1.05001C359.062 1.05001 357.974 1.27057 356.882 1.50622C356.826 1.51832 356.77 1.53045 356.714 1.54261C355.677 1.76715 354.621 1.99581 353.265 2.04997C351.2 2.13239 349.75 1.97634 348.087 1.79736C347.297 1.71234 346.458 1.62214 345.483 1.54988C344.602 1.48455 343.864 1.38641 343.165 1.29348C342.916 1.26039 342.672 1.22795 342.428 1.19789C341.513 1.08502 340.599 1.0052 339.43 1.04807L342.55 72.4969L342.55 72.4978L349.05 178.497L366.221 282.985L366.222 282.992L403.548 405.104L403.55 405.111V405.118V505.433C412.987 505.065 420.157 504.915 431.414 504.805C434.395 504.776 436.901 504.91 439.279 505.036C440.098 505.08 440.902 505.123 441.705 505.158C444.839 505.295 447.962 505.315 451.924 504.806C454.615 504.46 456.345 504.083 458.076 503.704L458.121 503.694C459.838 503.318 461.563 502.941 464.234 502.589C468.439 502.036 471.827 502.036 475.342 502.082C475.64 502.086 475.938 502.09 476.238 502.094C479.481 502.14 482.897 502.188 487.214 501.85C491.612 501.506 494.817 499.106 495.787 495.239C496.121 493.907 495.924 492.816 495.368 491.874C494.812 490.929 493.893 490.13 492.778 489.389C491.771 488.72 490.607 488.101 489.411 487.464C489.282 487.395 489.153 487.326 489.023 487.257C487.693 486.547 486.34 485.807 485.138 484.949C480.528 481.657 473.83 480.088 467.942 478.708L467.819 478.679C464.862 477.986 462.115 477.339 459.953 476.54C457.794 475.743 456.203 474.791 455.578 473.478C454.15 470.478 452.633 467.477 451.143 464.542L450.821 463.908C449.443 461.194 448.096 458.541 446.873 456.002C444.238 450.53 442.175 445.583 441.623 441.696C435.593 399.291 434.9 375.526 433.763 336.594L433.745 336.001L433.744 335.95H433.795C434.568 335.95 436.084 335.702 437.406 334.772C438.725 333.843 439.855 332.234 439.855 329.5C439.855 327.524 438.621 326.163 437.24 325.292C436.55 324.857 435.825 324.547 435.203 324.344C434.58 324.142 434.065 324.05 433.795 324.05Z" fill="#FFFDFD" />
</g>
<g clip-path="url(#clip2_2_32662)">
<path d="M496.569 505.914C488.688 505.55 482.809 505.312 477.052 505.146L481.05 405.131L510.545 342.522L510.547 342.522L510.549 342.51L531.493 237.51L531.493 237.51L531.494 237.505L543.563 108.505L543.563 108.503L549.669 1.05245C550.781 1.10192 551.647 1.33218 552.504 1.55996C552.557 1.57411 552.61 1.58824 552.663 1.60233C553.586 1.84652 554.513 2.07422 555.733 2.05042C557.082 2.02408 558.085 1.67813 559.082 1.32532L559.146 1.30271C560.121 0.957337 561.096 0.611833 562.399 0.550372C563.815 0.483563 564.901 0.756889 565.993 1.03622L566.027 1.04486C567.109 1.32142 568.2 1.60049 569.618 1.5504C570.317 1.52573 570.87 1.40432 571.404 1.28691C571.46 1.27461 571.516 1.26237 571.572 1.25028C572.159 1.12273 572.743 1.01241 573.502 1.05037C574.004 1.07548 574.393 1.19189 574.779 1.30731C574.812 1.31718 574.845 1.32704 574.878 1.33683C575.298 1.46122 575.723 1.57443 576.284 1.55038C576.737 1.53095 577.076 1.43534 577.411 1.33017C577.448 1.31849 577.485 1.30669 577.522 1.29487C577.82 1.20035 578.122 1.10432 578.51 1.04994C579.686 0.88523 580.609 0.996332 581.539 1.15591C581.698 1.18317 581.857 1.21187 582.018 1.24085C582.798 1.3815 583.614 1.52879 584.611 1.55042C586.064 1.58194 587.236 1.41044 588.371 1.24446C588.513 1.2237 588.654 1.20302 588.795 1.18284C590.065 1.00132 591.328 0.859382 592.937 1.05008C593.37 1.10127 593.72 1.21403 594.06 1.32309C594.146 1.35094 594.232 1.37855 594.319 1.40483C594.742 1.53384 595.171 1.62854 595.727 1.54994C596.215 1.48104 596.538 1.25845 596.851 1.04269L596.859 1.03715C597.174 0.819517 597.481 0.610074 597.948 0.55002C598.611 0.464845 599.089 0.694372 599.58 0.958836C599.614 0.977412 599.649 0.996169 599.683 1.015C600.141 1.26365 600.623 1.52496 601.272 1.55039C602.072 1.58168 602.661 1.3768 603.242 1.14244C603.308 1.11568 603.374 1.08855 603.441 1.06135C603.956 0.850302 604.482 0.634799 605.168 0.550051C606.678 0.363436 607.849 0.599556 609.027 0.89C609.161 0.922931 609.295 0.956573 609.429 0.990377C610.481 1.25468 611.571 1.52885 612.937 1.55042C614.606 1.57678 615.913 1.29889 617.196 1.02607C617.262 1.01199 617.328 0.997911 617.394 0.983892C618.742 0.69842 620.084 0.435916 621.821 0.55032C622.843 0.617688 623.635 0.838178 624.415 1.05577C624.472 1.07158 624.529 1.08738 624.585 1.1031C625.423 1.3352 626.265 1.55043 627.378 1.55043C628.475 1.55043 629.308 1.2958 630.13 1.04442L630.17 1.03236C631.005 0.777152 631.834 0.529405 632.931 0.550419C633.889 0.568778 634.616 0.81306 635.342 1.05704L635.416 1.08181C636.166 1.33376 636.923 1.57682 637.932 1.55041C638.545 1.53436 639.316 1.40865 639.932 1.28753C640.24 1.2269 640.51 1.16727 640.703 1.12279C640.799 1.10055 640.877 1.0821 640.93 1.0692L640.95 1.06434L640.949 1.21106C640.948 1.3496 640.946 1.55436 640.943 1.81914C640.938 2.34871 640.929 3.11839 640.913 4.07877C640.881 5.99954 640.822 8.68305 640.714 11.734C640.499 17.8363 640.089 25.4069 639.309 31.2843C637.65 43.794 636.174 54.6995 634.809 64.7877C630.773 94.6163 627.703 117.3 623.717 153.186C617.161 212.203 609.356 245.529 594.585 303.153C588.691 326.146 578.177 345.992 569.972 358.548C560.738 372.68 542.9 389.567 531.412 398.8C528.828 400.877 524.529 402.445 520.869 403.494C519.04 404.018 517.373 404.412 516.163 404.675C515.558 404.806 515.068 404.905 514.729 404.971C514.687 404.979 514.648 404.987 514.611 404.994C514.497 405.015 514.405 405.033 514.338 405.045L514.236 405.064L514.21 405.068L514.204 405.069L514.202 405.07L514.202 405.07C514.202 405.07 514.202 405.07 514.21 405.119L514.202 405.07L514.16 405.077V405.119V410.66V410.688L514.184 410.702L514.21 410.66L514.184 410.702L514.184 410.702L514.185 410.703L514.189 410.705L514.203 410.714L514.26 410.751C514.311 410.783 514.385 410.831 514.479 410.893C514.669 411.018 514.942 411.201 515.275 411.436C515.942 411.905 516.85 412.579 517.813 413.397C519.742 415.035 521.888 417.245 522.78 419.543C523.68 421.861 523.477 425.174 523.046 427.915C522.831 429.284 522.559 430.508 522.341 431.389C522.232 431.83 522.136 432.185 522.068 432.43C522.034 432.552 522.006 432.647 521.987 432.711L521.966 432.784L521.96 432.803L521.959 432.807L521.959 432.809L521.959 432.809L521.958 432.809L521.957 432.817L521.546 436.142L521.544 436.164L521.558 436.181L521.596 436.148L521.558 436.181L521.559 436.181L521.559 436.182L521.562 436.185L521.574 436.199L521.621 436.253C521.661 436.3 521.721 436.37 521.798 436.461C521.953 436.644 522.175 436.909 522.448 437.242C522.994 437.909 523.741 438.848 524.546 439.935C526.158 442.11 528.001 444.876 528.935 447.248C529.642 449.042 529.831 450.528 530.005 452.024L530.023 452.18C530.19 453.625 530.36 455.089 530.986 456.851C532.629 461.471 534.271 464.89 535.964 468.216C536.286 468.849 536.611 469.479 536.937 470.113C538.325 472.808 539.751 475.58 541.246 479.018C541.682 480.022 542.238 480.818 542.977 481.431C543.716 482.043 544.635 482.471 545.794 482.741C546.389 482.879 546.897 482.79 547.384 482.705L547.474 482.689C547.99 482.599 548.489 482.529 549.071 482.739C549.688 482.961 550.018 483.331 550.335 483.738C550.371 483.785 550.407 483.832 550.443 483.879C550.724 484.247 551.021 484.635 551.523 484.951C552.963 485.857 554.602 485.838 556.211 485.821L556.321 485.819C557.97 485.802 559.584 485.806 560.958 486.796C561.995 487.543 562.821 487.648 563.647 487.608C563.882 487.596 564.114 487.573 564.351 487.55C564.95 487.49 565.574 487.428 566.314 487.543C568.308 487.854 569.891 488.225 571.431 488.585C571.635 488.633 571.838 488.681 572.042 488.728C573.78 489.132 575.524 489.511 577.805 489.76C578.847 489.874 579.963 489.738 581.086 489.52C581.647 489.41 582.212 489.28 582.769 489.151L582.901 489.12C583.414 489 583.921 488.882 584.417 488.781C586.575 488.341 588.485 488.237 589.67 489.741C590.538 490.841 590.524 492.028 589.945 493.122C589.365 494.22 588.216 495.225 586.815 495.946C583.956 497.416 580.275 497.51 576.843 497.003C573.412 496.496 570.237 495.389 568.395 494.468C567.64 494.09 567.058 494.108 566.572 494.376C566.091 494.642 565.712 495.148 565.348 495.726C565.229 495.914 565.111 496.111 564.992 496.31C564.744 496.724 564.489 497.15 564.199 497.543C563.77 498.124 563.268 498.625 562.609 498.899C560.085 499.948 557.284 499.834 554.013 499.701C553.843 499.694 553.673 499.687 553.501 499.68C550.012 499.542 546.005 499.449 541.278 500.744C539.667 501.185 538.279 501.274 536.903 501.362C536.791 501.37 536.679 501.377 536.567 501.384C535.08 501.482 533.588 501.612 531.838 502.223C531.083 502.486 530.523 502.799 529.982 503.102C529.921 503.137 529.86 503.171 529.799 503.205C529.198 503.539 528.595 503.852 527.739 504.068C525.957 504.518 524.739 504.447 523.502 504.253C523.207 504.207 522.911 504.153 522.605 504.098C521.627 503.922 520.554 503.729 519.135 503.697C515.068 503.606 511.592 504.219 508.137 504.828L507.838 504.881C504.285 505.506 500.737 506.106 496.569 505.914Z"  />
<path d="M455.205 324.05H455.253L455.255 324.001C455.919 300.482 455.94 286.524 455.97 266.13C455.976 262.139 455.983 257.901 455.994 253.297C456.119 204.031 456.837 140.957 457.524 90.1993C457.867 64.8205 458.203 42.5209 458.453 26.566C458.578 18.5885 458.681 12.1972 458.753 7.80033C458.79 5.60187 458.818 3.902 458.837 2.75175L458.859 1.44496L458.865 1.11269L458.866 1.03895L458.91 1.02768C458.963 1.01447 459.039 0.995555 459.135 0.972803C459.326 0.927294 459.593 0.866444 459.899 0.805096C460.51 0.682227 461.269 0.558028 461.87 0.55001C462.522 0.541305 463.02 0.664752 463.523 0.791891L463.544 0.797109C464.04 0.922618 464.544 1.05001 465.202 1.05001C465.833 1.05001 466.323 0.917055 466.8 0.787898C466.827 0.780444 466.855 0.773002 466.882 0.765599C467.385 0.62994 467.882 0.506896 468.531 0.549905C469.163 0.591811 469.627 0.827003 470.09 1.06169C470.119 1.07643 470.148 1.09116 470.177 1.10584C470.669 1.35414 471.171 1.58694 471.869 1.54994C472.437 1.5199 472.838 1.26646 473.221 1.02532C473.241 1.01232 473.262 0.999346 473.282 0.98645C473.685 0.73369 474.075 0.507524 474.64 0.549875C475.095 0.584042 475.394 0.813704 475.7 1.04981L475.723 1.06685C476.036 1.3078 476.362 1.55001 476.865 1.55001C477.366 1.55001 477.697 1.34778 478.017 1.12391C478.051 1.09965 478.085 1.07517 478.12 1.05066C478.404 0.848636 478.69 0.644938 479.098 0.54868C479.932 0.35216 480.596 0.488474 481.274 0.669739C481.355 0.69125 481.436 0.713414 481.517 0.735724C482.121 0.901265 482.754 1.0749 483.531 1.04999C484.513 1.01855 485.256 0.779107 485.987 0.543504L486.044 0.525212C486.793 0.283887 487.537 0.0521348 488.529 0.0500147C489.755 0.0473929 490.656 0.396172 491.565 0.760247L491.637 0.788957C492.523 1.14402 493.423 1.50523 494.636 1.54998C495.855 1.59499 496.783 1.36557 497.706 1.11526C497.768 1.09835 497.83 1.08133 497.893 1.06431C498.753 0.829426 499.626 0.591347 500.749 0.549981C502.576 0.482699 503.978 0.897455 505.378 1.3118L505.456 1.3351C506.882 1.75701 508.315 2.16892 510.192 2.04991C511.471 1.96883 512.439 1.62398 513.386 1.28658C513.436 1.26886 513.486 1.25115 513.536 1.23351C514.531 0.880016 515.521 0.550015 516.854 0.550015C518.17 0.550015 519.15 0.925663 520.134 1.30283L520.169 1.31597C521.164 1.69747 522.168 2.0759 523.52 2.05001C524.391 2.0333 524.828 1.8417 525.304 1.63248C525.38 1.59914 525.457 1.56535 525.537 1.53175C526.114 1.28931 526.857 1.05001 528.517 1.05001C529.938 1.05001 531.026 1.27057 532.118 1.50622C532.174 1.51832 532.23 1.53045 532.286 1.54261C533.323 1.76715 534.379 1.99581 535.735 2.04997C537.8 2.13239 539.25 1.97634 540.913 1.79736C541.703 1.71234 542.542 1.62214 543.517 1.54988C544.398 1.48455 545.136 1.38641 545.835 1.29348C546.084 1.26039 546.328 1.22795 546.572 1.19789C547.486 1.08504 548.401 1.00523 549.569 1.04804L543.463 108.495L543.463 108.497L531.394 237.495L510.452 342.484L480.955 405.097L480.95 405.106L480.95 405.116L476.952 505.143C471.054 504.974 465.273 504.881 457.586 504.805C454.605 504.776 452.099 504.91 449.721 505.036C448.902 505.08 448.098 505.123 447.295 505.158C444.161 505.295 441.038 505.315 437.076 504.806C434.385 504.46 432.655 504.083 430.924 503.704L430.879 503.694C429.162 503.318 427.437 502.941 424.766 502.589C420.561 502.036 417.173 502.036 413.658 502.082C413.36 502.086 413.062 502.09 412.762 502.094C409.519 502.14 406.103 502.188 401.786 501.85C397.388 501.506 394.183 499.106 393.213 495.239C392.879 493.907 393.076 492.816 393.632 491.874C394.188 490.929 395.107 490.13 396.222 489.389C397.229 488.72 398.393 488.101 399.589 487.464C399.718 487.395 399.847 487.326 399.977 487.257C401.307 486.547 402.66 485.807 403.862 484.949C408.472 481.657 415.17 480.088 421.058 478.708L421.181 478.679C424.138 477.986 426.885 477.339 429.047 476.54C431.206 475.743 432.797 474.791 433.422 473.478C434.85 470.478 436.367 467.477 437.857 464.542L438.179 463.908C439.557 461.194 440.904 458.541 442.127 456.002C444.762 450.53 446.825 445.583 447.377 441.696C453.407 399.291 454.1 375.526 455.237 336.594L455.255 336.001L455.256 335.95H455.205C454.432 335.95 452.916 335.702 451.594 334.772C450.275 333.843 449.145 332.234 449.145 329.5C449.145 327.524 450.379 326.163 451.76 325.292C452.45 324.857 453.175 324.547 453.797 324.344C454.42 324.142 454.935 324.05 455.205 324.05Z"  />
<path d="M641.07 1.0692L641.05 1.06434L641.051 1.21106C641.052 1.3496 641.054 1.55436 641.057 1.81914C641.062 2.34871 641.071 3.11839 641.087 4.07877C641.119 5.99954 641.178 8.68305 641.286 11.734C641.501 17.8363 641.911 25.4069 642.691 31.2843C644.35 43.794 645.826 54.6995 647.191 64.7877C651.227 94.6163 654.297 117.3 658.283 153.186C664.839 212.203 672.644 245.529 687.415 303.153C693.309 326.146 703.823 345.992 712.028 358.548C721.262 372.68 739.1 389.567 750.588 398.8C753.172 400.877 757.471 402.445 761.131 403.494C762.96 404.018 764.627 404.412 765.837 404.675C766.442 404.806 766.932 404.905 767.271 404.971C767.441 405.004 767.573 405.029 767.662 405.045L767.764 405.064L767.79 405.068L767.796 405.069L767.798 405.07L767.798 405.07C767.798 405.07 767.798 405.07 767.79 405.119L767.798 405.07L767.84 405.077V405.119V410.66V410.688L767.816 410.702L767.79 410.66L767.816 410.702L767.816 410.702L767.815 410.703L767.811 410.705L767.797 410.714L767.74 410.751C767.689 410.783 767.615 410.831 767.521 410.893C767.331 411.018 767.058 411.201 766.725 411.436C766.058 411.905 765.15 412.579 764.187 413.397C762.258 415.035 760.112 417.245 759.22 419.543C758.32 421.861 758.523 425.174 758.954 427.915C759.169 429.284 759.441 430.508 759.659 431.389C759.768 431.83 759.864 432.185 759.932 432.43C759.95 432.492 759.965 432.547 759.979 432.594C759.992 432.64 760.003 432.68 760.013 432.711L760.034 432.784L760.04 432.803L760.041 432.807L760.041 432.809L760.041 432.809L760.042 432.809L760.043 432.817L760.454 436.142L760.456 436.164L760.442 436.181L760.404 436.148L760.442 436.181L760.441 436.181L760.441 436.182L760.438 436.185L760.426 436.199L760.379 436.253L760.321 436.321C760.287 436.36 760.248 436.407 760.202 436.461C760.047 436.644 759.825 436.909 759.552 437.242C759.006 437.909 758.259 438.848 757.454 439.935C755.842 442.11 753.999 444.876 753.065 447.248C752.358 449.042 752.169 450.528 751.995 452.024L751.977 452.18C751.81 453.625 751.64 455.089 751.014 456.851C749.371 461.471 747.729 464.89 746.036 468.216C745.714 468.849 745.389 469.479 745.063 470.113C743.675 472.808 742.249 475.58 740.754 479.018C740.318 480.022 739.762 480.818 739.023 481.431C738.284 482.043 737.365 482.471 736.206 482.741C735.611 482.879 735.103 482.79 734.616 482.705L734.526 482.689C734.01 482.599 733.511 482.529 732.929 482.739C732.312 482.961 731.982 483.331 731.665 483.738C731.629 483.785 731.593 483.832 731.557 483.879C731.276 484.247 730.979 484.635 730.477 484.951C729.037 485.857 727.398 485.838 725.789 485.821L725.679 485.819C724.03 485.802 722.416 485.806 721.042 486.796C720.005 487.543 719.179 487.648 718.353 487.608C718.118 487.596 717.886 487.573 717.649 487.55C717.05 487.49 716.426 487.428 715.686 487.543C713.692 487.854 712.109 488.225 710.569 488.585C710.365 488.633 710.162 488.681 709.958 488.728C708.22 489.132 706.476 489.511 704.195 489.76C703.153 489.874 702.037 489.738 700.914 489.52C700.353 489.41 699.788 489.28 699.231 489.151L699.099 489.12C698.586 489 698.079 488.882 697.583 488.781C695.425 488.341 693.515 488.237 692.33 489.741C691.462 490.841 691.476 492.028 692.055 493.122C692.635 494.22 693.784 495.225 695.185 495.946C698.044 497.416 701.725 497.51 705.157 497.003C708.588 496.496 711.763 495.389 713.605 494.468C714.36 494.09 714.942 494.108 715.428 494.376C715.909 494.642 716.288 495.148 716.652 495.726C716.771 495.914 716.889 496.111 717.008 496.31C717.256 496.724 717.511 497.15 717.801 497.543C718.23 498.124 718.732 498.625 719.391 498.899C721.915 499.948 724.716 499.834 727.987 499.701C728.157 499.694 728.327 499.687 728.499 499.68C731.988 499.542 735.995 499.449 740.722 500.744C742.333 501.185 743.721 501.274 745.097 501.362C745.209 501.37 745.321 501.377 745.433 501.384C746.92 501.482 748.412 501.612 750.162 502.223C750.917 502.486 751.477 502.799 752.018 503.102C752.079 503.137 752.14 503.171 752.201 503.205C752.802 503.539 753.405 503.852 754.261 504.068C756.043 504.518 757.261 504.447 758.498 504.253C758.793 504.207 759.089 504.153 759.395 504.098C760.373 503.922 761.446 503.729 762.865 503.697C766.932 503.606 770.408 504.219 773.863 504.828L774.162 504.881C777.715 505.506 781.263 506.106 785.431 505.914C789.564 505.723 793.147 505.567 796.45 505.438V405.126L759.125 283.015L759.125 283.015L759.124 283.009L741.951 178.509L741.95 178.509L741.95 178.503L735.45 72.5035L735.45 72.5026L732.33 1.05248C731.218 1.10201 730.353 1.33223 729.496 1.55996C729.443 1.57411 729.39 1.58824 729.337 1.60233C728.414 1.84652 727.487 2.07422 726.267 2.05042C724.918 2.02408 723.915 1.67813 722.918 1.32532L722.854 1.30271C721.879 0.957337 720.904 0.611833 719.601 0.550372C718.185 0.483563 717.099 0.756889 716.007 1.03622L715.973 1.04486C714.891 1.32142 713.8 1.60049 712.382 1.5504C711.683 1.52573 711.13 1.40432 710.596 1.28691C710.54 1.27461 710.484 1.26237 710.428 1.25028C709.841 1.12273 709.257 1.01241 708.498 1.05037C707.996 1.07548 707.607 1.19189 707.221 1.30731C707.188 1.31718 707.155 1.32704 707.122 1.33683C706.702 1.46122 706.277 1.57443 705.716 1.55038C705.263 1.53095 704.924 1.43534 704.589 1.33017C704.552 1.31849 704.515 1.30669 704.478 1.29487C704.18 1.20035 703.878 1.10432 703.49 1.04994C702.314 0.88523 701.391 0.996332 700.461 1.15591C700.302 1.18317 700.143 1.21187 699.982 1.24085C699.202 1.3815 698.386 1.52879 697.389 1.55042C695.936 1.58194 694.764 1.41044 693.629 1.24446C693.487 1.2237 693.346 1.20302 693.205 1.18284C691.935 1.00132 690.672 0.859382 689.063 1.05008C688.63 1.10127 688.28 1.21403 687.94 1.32309C687.854 1.35094 687.768 1.37855 687.681 1.40483C687.258 1.53384 686.829 1.62854 686.273 1.54994C685.785 1.48104 685.462 1.25845 685.149 1.04269L685.141 1.03715C684.826 0.819517 684.519 0.610074 684.052 0.55002C683.389 0.464845 682.911 0.694372 682.42 0.958836C682.386 0.977412 682.351 0.996169 682.317 1.015C681.859 1.26365 681.377 1.52496 680.728 1.55039C679.928 1.58168 679.339 1.3768 678.758 1.14244C678.692 1.11568 678.626 1.08855 678.559 1.06135C678.044 0.850302 677.518 0.634799 676.832 0.550051C675.322 0.363436 674.151 0.599556 672.973 0.89C672.839 0.922932 672.705 0.956575 672.571 0.99038C671.519 1.25468 670.429 1.52885 669.063 1.55042C667.394 1.57678 666.087 1.29889 664.804 1.02607C664.738 1.01199 664.672 0.997911 664.606 0.983892C663.258 0.69842 661.916 0.435916 660.179 0.55032C659.157 0.617688 658.365 0.838178 657.585 1.05577C657.528 1.07158 657.471 1.08738 657.415 1.1031C656.577 1.3352 655.735 1.55043 654.622 1.55043C653.525 1.55043 652.692 1.2958 651.87 1.04442L651.83 1.03236C650.995 0.777152 650.166 0.529405 649.069 0.550419C648.111 0.568778 647.384 0.81306 646.658 1.05704L646.584 1.08181C645.834 1.33376 645.077 1.57682 644.068 1.55041C643.455 1.53436 642.684 1.40865 642.068 1.28753C641.76 1.2269 641.49 1.16727 641.297 1.12279C641.201 1.10055 641.123 1.0821 641.07 1.0692Z" fill="#FFFDFD" />
<path d="M826.795 324.05H826.747L826.745 324.001C826.081 300.482 826.06 286.524 826.03 266.13C826.024 262.139 826.017 257.901 826.006 253.297C825.881 204.031 825.163 140.957 824.476 90.1993C824.133 64.8205 823.797 42.5209 823.547 26.566C823.422 18.5885 823.319 12.1972 823.247 7.80033C823.21 5.60187 823.182 3.902 823.163 2.75175L823.141 1.44496L823.135 1.11269L823.134 1.03895L823.09 1.02768C823.037 1.01447 822.961 0.995555 822.865 0.972803C822.674 0.927294 822.407 0.866444 822.101 0.805096C821.49 0.682227 820.731 0.558028 820.13 0.55001C819.478 0.541305 818.98 0.664752 818.477 0.791891L818.456 0.797109C817.96 0.922618 817.456 1.05001 816.798 1.05001C816.167 1.05001 815.677 0.917055 815.2 0.787898C815.173 0.780444 815.145 0.773002 815.118 0.765599C814.615 0.62994 814.118 0.506896 813.469 0.549905C812.837 0.591811 812.373 0.827003 811.91 1.06169C811.881 1.07643 811.852 1.09116 811.823 1.10584C811.331 1.35414 810.829 1.58694 810.131 1.54994C809.563 1.5199 809.162 1.26646 808.779 1.02532C808.759 1.01232 808.738 0.999346 808.718 0.98645C808.315 0.73369 807.925 0.507524 807.36 0.549875C806.905 0.584042 806.606 0.813704 806.3 1.04981L806.277 1.06685C805.964 1.3078 805.638 1.55001 805.135 1.55001C804.634 1.55001 804.303 1.34778 803.983 1.12391C803.949 1.09965 803.915 1.07517 803.88 1.05066C803.596 0.848636 803.31 0.644938 802.902 0.54868C802.068 0.35216 801.404 0.488474 800.726 0.669739C800.645 0.69125 800.564 0.713414 800.483 0.735724C799.879 0.901265 799.246 1.0749 798.469 1.04999C797.487 1.01855 796.744 0.779107 796.013 0.543504L795.956 0.525212C795.207 0.283887 794.463 0.0521348 793.471 0.0500147C792.245 0.0473929 791.344 0.396172 790.435 0.760247L790.363 0.788957C789.477 1.14402 788.577 1.50523 787.364 1.54998C786.145 1.59499 785.217 1.36557 784.294 1.11526C784.232 1.09835 784.17 1.08133 784.107 1.06431C783.247 0.829426 782.374 0.591347 781.251 0.549981C779.424 0.482699 778.022 0.897455 776.622 1.3118L776.544 1.3351C775.118 1.75701 773.685 2.16892 771.808 2.04991C770.529 1.96883 769.561 1.62398 768.614 1.28658C768.564 1.26886 768.514 1.25115 768.464 1.23351C767.469 0.880016 766.479 0.550015 765.146 0.550015C763.83 0.550015 762.85 0.925663 761.866 1.30283L761.831 1.31597C760.836 1.69747 759.832 2.0759 758.48 2.05001C757.609 2.0333 757.172 1.8417 756.696 1.63248C756.62 1.59914 756.543 1.56535 756.463 1.53175C755.886 1.28931 755.143 1.05001 753.483 1.05001C752.062 1.05001 750.974 1.27057 749.882 1.50622C749.826 1.51832 749.77 1.53045 749.714 1.54261C748.677 1.76715 747.621 1.99581 746.265 2.04997C744.2 2.13239 742.75 1.97634 741.087 1.79736C740.297 1.71234 739.458 1.62214 738.483 1.54988C737.602 1.48455 736.864 1.38641 736.165 1.29348C735.916 1.26039 735.672 1.22795 735.428 1.19789C734.513 1.08502 733.599 1.0052 732.43 1.04807L735.55 72.4969L735.55 72.4978L742.05 178.497L759.221 282.985L759.222 282.992L796.548 405.104L796.55 405.111V405.118V505.433C805.987 505.065 813.157 504.915 824.414 504.805C827.395 504.776 829.901 504.91 832.279 505.036C833.098 505.08 833.902 505.123 834.705 505.158C837.839 505.295 840.962 505.315 844.924 504.806C847.615 504.46 849.345 504.083 851.076 503.704L851.121 503.694C852.838 503.318 854.563 502.941 857.234 502.589C861.439 502.036 864.827 502.036 868.342 502.082C868.64 502.086 868.938 502.09 869.238 502.094C872.481 502.14 875.897 502.188 880.214 501.85C884.612 501.506 887.817 499.106 888.787 495.239C889.121 493.907 888.924 492.816 888.368 491.874C887.812 490.929 886.893 490.13 885.778 489.389C884.771 488.72 883.607 488.101 882.411 487.464C882.282 487.395 882.153 487.326 882.023 487.257C880.693 486.547 879.34 485.807 878.138 484.949C873.528 481.657 866.83 480.088 860.942 478.708L860.819 478.679C857.862 477.986 855.115 477.339 852.953 476.54C850.794 475.743 849.203 474.791 848.578 473.478C847.15 470.478 845.633 467.477 844.143 464.542L843.821 463.908C842.443 461.194 841.096 458.541 839.873 456.002C837.238 450.53 835.175 445.583 834.623 441.696C828.593 399.291 827.9 375.526 826.763 336.594L826.745 336.001L826.744 335.95H826.795C827.568 335.95 829.084 335.702 830.406 334.772C831.725 333.843 832.855 332.234 832.855 329.5C832.855 327.524 831.621 326.163 830.24 325.292C829.55 324.857 828.825 324.547 828.203 324.344C827.58 324.142 827.065 324.05 826.795 324.05Z" fill="#FFFDFD" />
</g>
</g>
<defs>
<clipPath id="clip0_2_32662">
<rect width="889" height="506" />
</clipPath>
<clipPath id="clip1_2_32662">
<rect width="496" height="506" />
</clipPath>
<clipPath id="clip2_2_32662">
<rect width="496" height="506"  transform="translate(393)"/>
</clipPath>
</defs>
</svg>
