<svg width="605" height="503" viewBox="0 0 605 503" fill="none" xmlns="http://www.w3.org/2000/svg">
<symbol width="605" height="503" viewBox="0 0 605 503">
<path d="M13.6087 317.136L13.6587 317.137L13.6587 317.137L13.6087 317.136ZM13.6087 317.136C13.6587 317.137 13.6587 317.137 13.6587 317.137L13.6588 317.135L13.6588 317.13L13.6591 317.109L13.6601 317.026L13.664 316.698L13.679 315.434L13.7346 310.733C13.7817 306.737 13.8475 301.151 13.9217 294.795C14.0699 282.098 14.2519 266.324 14.3872 253.992L191.203 253.988L199.95 485.921L199.95 485.925L199.355 498.883C199.281 500.494 197.975 501.771 196.362 501.794C192.283 501.853 184.756 501.923 179.346 501.745C175.506 501.619 172.288 500.936 169.222 500.286C168.306 500.091 167.404 499.9 166.504 499.727C162.586 498.976 158.694 498.577 153.815 499.827C152.386 500.193 151.3 500.684 150.234 501.166L150.049 501.25C148.923 501.758 147.798 502.248 146.284 502.567C142.966 503.265 140.35 502.901 137.717 502.305C137.12 502.17 136.523 502.023 135.916 501.874C133.844 501.364 131.661 500.827 129.043 500.651C123.783 500.296 119.671 500.362 115.557 500.484C114.986 500.5 114.414 500.518 113.84 500.536C110.279 500.648 106.6 500.764 102.067 500.651C98.0613 500.551 94.6969 500.012 91.4963 499.501C90.4502 499.333 89.4216 499.169 88.3939 499.023C84.2223 498.432 80.0707 498.156 74.8376 499.284C73.8558 499.496 73.0962 499.728 72.344 499.957L72.283 499.976C71.5108 500.212 70.7399 500.445 69.7348 500.652C65.6805 501.486 62.4584 501.061 59.2181 500.536C58.9779 500.498 58.7376 500.458 58.4969 500.419C55.4897 499.925 52.4119 499.42 48.5973 499.83C47.5584 499.942 46.7409 500.087 45.9365 500.231L45.8003 500.255C44.9514 500.405 44.1037 500.551 43.0088 500.651C40.1262 500.913 37.8724 500.631 35.6128 500.322C35.5123 500.308 35.4118 500.294 35.3112 500.281C33.1503 499.984 30.9581 499.682 28.1869 499.83C26.7084 499.909 25.5609 500.064 24.4151 500.224L24.2443 500.248C23.1549 500.4 22.0526 500.554 20.6527 500.651C16.6279 500.928 11.4666 500.722 7.3101 500.446C5.23215 500.309 3.40589 500.153 2.09914 500.033C1.47865 499.975 0.975307 499.926 0.617782 499.89C0.657031 499.886 0.697794 499.882 0.739967 499.878C1.18882 499.835 1.79792 499.752 2.43823 499.594C3.07825 499.436 3.75143 499.203 4.32728 498.856C4.90321 498.51 5.38462 498.049 5.63557 497.437C6.87358 494.415 7.00321 491.196 6.88127 487.708C6.84742 486.741 6.79422 485.752 6.73982 484.742C6.59809 482.109 6.44821 479.324 6.61129 476.356C7.00199 469.244 7.39947 463.917 7.81509 458.348C8.13074 454.118 8.45684 449.748 8.79838 444.349C10.3787 419.368 11.25 405.355 12.2006 380.333C12.6692 368 13.0337 352.201 13.2811 339.485C13.4048 333.128 13.4992 327.54 13.5627 323.543C13.5944 321.544 13.6184 319.943 13.6345 318.841C13.6426 318.29 13.6486 317.864 13.6527 317.576L13.6572 317.248L13.6584 317.165L13.6586 317.144L13.6587 317.139L13.6587 317.138C13.6587 317.137 13.6587 317.137 13.6087 317.136Z"  />
</symbol>
<symbol width="605" height="503" viewBox="0 0 605 503">
<path d="M14.3865 253.892C15.4096 160.667 16.4766 17.4765 16.5669 5.27803C16.5706 4.77896 16.9445 4.45301 17.4538 4.41298C19.403 4.25976 24.0023 3.97848 27.1783 4.42424C27.703 4.49789 28.0487 4.63071 28.3292 4.79272C28.5251 4.90588 28.6883 5.03237 28.8608 5.16604C28.9379 5.22578 29.0169 5.28696 29.1014 5.34902C29.6479 5.75022 30.3865 6.15288 32.221 6.32252C33.1385 6.40736 33.7226 6.33133 34.1401 6.16405C34.5586 5.99638 34.8043 5.7389 35.0463 5.47572C35.0555 5.4657 35.0647 5.45567 35.0739 5.44563C35.3066 5.19215 35.542 4.93579 35.9338 4.73442C36.3412 4.52504 36.9217 4.37334 37.8484 4.35633C38.7776 4.33927 39.3606 4.40792 39.7626 4.51877C40.1628 4.62909 40.3858 4.78173 40.5958 4.9386C40.6143 4.95249 40.6329 4.96645 40.6514 4.98043C40.8439 5.12542 41.0401 5.27327 41.3607 5.3865C41.7113 5.51032 42.2079 5.59205 43.0115 5.59205C43.8155 5.59205 44.3182 5.50597 44.6816 5.37573C45.0023 5.26079 45.2126 5.11188 45.4209 4.9644C45.4488 4.94466 45.4766 4.92494 45.5047 4.90534C45.7415 4.73992 45.9992 4.57821 46.4424 4.4612C46.8872 4.34377 47.5208 4.27088 48.5088 4.28794C49.4978 4.30501 50.0851 4.38269 50.4672 4.49105C50.8463 4.59858 51.0244 4.73648 51.1954 4.88026C51.2067 4.88979 51.218 4.89935 51.2294 4.90895C51.3926 5.047 51.563 5.19104 51.8969 5.31205C52.2518 5.44062 52.7895 5.54277 53.7014 5.59198C54.6134 5.64119 55.1832 5.59729 55.5826 5.49743C55.9843 5.397 56.2111 5.24049 56.4366 5.0721C56.4533 5.05965 56.4699 5.04714 56.4867 5.03459C56.6941 4.87875 56.9106 4.7162 57.2767 4.57363C57.6732 4.41922 58.2476 4.2876 59.1756 4.21942C61.0335 4.08292 61.6366 4.20802 62.188 4.36522C62.2349 4.37859 62.2816 4.39224 62.3287 4.40604C62.5609 4.47398 62.8047 4.54531 63.1435 4.60255C63.5512 4.67143 64.0958 4.7199 64.9271 4.7199C66.591 4.7199 67.3165 4.52703 67.8799 4.35859C67.9094 4.34978 67.9384 4.34105 67.967 4.33244C68.2107 4.25904 68.4265 4.19406 68.6873 4.15529C68.9781 4.11206 69.3262 4.10133 69.8292 4.15092C70.7149 4.23825 71.2288 4.50813 71.7725 4.79365C71.8676 4.8436 71.9636 4.89402 72.0627 4.94403C72.7312 5.28147 73.5267 5.59205 75.0893 5.59205C75.87 5.59205 76.3856 5.50101 76.774 5.36163C77.1455 5.22835 77.398 5.05162 77.6503 4.87503L77.6852 4.85065C77.9489 4.66633 78.2202 4.48292 78.6401 4.341C79.0606 4.19887 79.6327 4.09754 80.4972 4.08276C81.3628 4.06796 81.8842 4.13374 82.239 4.23871C82.5808 4.3398 82.7704 4.47773 82.9691 4.62239L82.9888 4.63666C83.1972 4.78814 83.4193 4.94407 83.8295 5.06089C84.2377 5.17715 84.8301 5.25418 85.7801 5.25418C86.7311 5.25418 87.3297 5.15374 87.7469 5.00656C88.1578 4.8616 88.3899 4.67213 88.6047 4.49669L88.6168 4.48688C88.8334 4.31005 89.0345 4.14958 89.395 4.05325C89.7577 3.95633 90.2852 3.92361 91.1534 4.01411C92.0218 4.10464 92.4869 4.24772 92.7604 4.40723C93.0039 4.54931 93.0979 4.70516 93.1932 4.8634C93.2037 4.88075 93.2142 4.89814 93.2249 4.91553C93.2793 5.00409 93.3398 5.09347 93.4324 5.17593C93.5252 5.25855 93.648 5.33226 93.8252 5.39382C94.1778 5.51626 94.7507 5.59205 95.7454 5.59205C96.7417 5.59205 97.391 5.50396 97.8626 5.36655C98.3355 5.22878 98.6272 5.04208 98.9075 4.85014C98.9304 4.83442 98.9533 4.81868 98.9761 4.80294C99.2316 4.62704 99.4878 4.45069 99.8796 4.30099C100.307 4.13777 100.898 4.00558 101.824 3.94588C102.752 3.88605 103.302 3.90473 103.666 3.96166C104.022 4.01744 104.2 4.10994 104.384 4.20519L104.391 4.2091C104.581 4.30787 104.778 4.40847 105.172 4.46902C105.562 4.5292 106.146 4.54981 107.11 4.49304C109.038 4.3795 109.575 4.24233 110.036 4.1244L110.038 4.12404C110.49 4.00839 110.868 3.91168 112.484 3.87758C113.293 3.86051 113.812 3.89044 114.19 3.94441C114.565 3.99788 114.803 4.07508 115.051 4.15549L115.057 4.15727C115.563 4.32144 116.102 4.49312 117.86 4.49312C119.617 4.49312 120.133 4.33875 120.618 4.17415C120.635 4.16839 120.651 4.16262 120.668 4.15685C120.89 4.0813 121.11 4.00598 121.454 3.94412C121.824 3.87743 122.337 3.82626 123.146 3.80919C123.956 3.79212 124.435 3.82639 124.748 3.88632C125.059 3.94575 125.208 4.0304 125.358 4.11861L125.369 4.12552C125.52 4.21405 125.676 4.30609 125.988 4.37545C126.305 4.44608 126.782 4.49312 127.58 4.49312C129.11 4.49312 129.81 4.2995 130.503 4.10782C130.535 4.09908 130.567 4.09034 130.598 4.08162C131.318 3.88346 132.073 3.69621 133.806 3.74079C134.674 3.76313 135.184 3.82122 135.515 3.8949C135.836 3.9666 135.988 4.05306 136.139 4.13878L136.149 4.14399C136.307 4.23394 136.467 4.32232 136.806 4.38726C137.142 4.4517 137.653 4.49312 138.516 4.49312C139.379 4.49312 139.953 4.4404 140.387 4.36111C140.801 4.28536 141.086 4.18554 141.369 4.08629L141.409 4.07206C141.997 3.86621 142.618 3.66191 144.469 3.67242C146.324 3.68294 146.692 3.81112 147 3.92115L147.008 3.92398C147.165 3.97995 147.312 4.03268 147.619 4.06474C147.928 4.0971 148.4 4.10848 149.21 4.08274C150.75 4.03384 151.381 3.93392 151.991 3.83743C152.024 3.83226 152.057 3.8271 152.089 3.82196C152.729 3.72143 153.397 3.62765 155.132 3.60402C156.669 3.5831 157.482 3.61565 158.092 3.64005C158.171 3.64322 158.247 3.64626 158.321 3.64903C158.962 3.6731 159.429 3.67634 160.468 3.56957C161.248 3.48947 161.601 3.31918 161.963 3.14452C162.066 3.09467 162.17 3.04447 162.285 2.99591C162.8 2.77834 163.553 2.5828 165.49 2.5828C166.458 2.5828 167.079 2.65374 167.519 2.75803C167.957 2.86201 168.216 2.99952 168.462 3.1364L168.503 3.15932C168.736 3.28939 168.967 3.41839 169.332 3.51168C169.717 3.6102 170.248 3.66849 171.089 3.65134C171.932 3.63416 172.505 3.52487 172.942 3.36913C173.375 3.21506 173.673 3.0163 173.964 2.82223L173.973 2.81575C174.267 2.61976 174.555 2.42909 174.975 2.2864C175.395 2.14365 175.95 2.04812 176.775 2.04805C177.603 2.04798 178.036 2.14843 178.283 2.29602C178.514 2.43426 178.588 2.6163 178.672 2.82394L178.684 2.85539C178.775 3.07761 178.884 3.31795 179.217 3.51809C179.545 3.71588 180.088 3.87207 181.039 3.94583C183.369 4.12652 185.433 3.94424 186.683 3.77601C187.305 3.69217 187.886 4.16613 187.894 4.79053L191.199 253.887L14.3865 253.892Z"  />
</symbol>
<symbol width="605" height="503" viewBox="0 0 605 503">
<path d="M497.186 303.612L497.203 303.565L497.155 303.548C478.611 297.139 462.962 282.716 454.268 269.361C452.479 266.612 450.592 263.783 448.662 260.89C447.165 258.646 445.643 256.364 444.12 254.05H589.405C590.187 276.784 591.339 294.837 592.494 312.933L592.545 313.726C593.718 332.102 594.888 350.595 595.671 374.151C596.112 387.402 596.636 399.327 597.132 410.589C598.352 438.343 599.396 462.073 598.571 491.723C598.409 491.975 598.167 492.213 597.905 492.441C597.793 492.538 597.677 492.635 597.562 492.73C597.406 492.859 597.253 492.986 597.118 493.11C596.884 493.324 596.69 493.54 596.618 493.763C596.582 493.876 596.576 493.991 596.613 494.107C596.649 494.223 596.726 494.336 596.847 494.448C598.018 495.526 600.059 496.197 601.799 496.598C602.671 496.798 603.469 496.932 604.05 497.016C604.182 497.035 604.302 497.051 604.41 497.065L575.422 498.637L575.395 498.638L575.382 498.662L575.382 498.662L575.381 498.663L575.378 498.667L575.368 498.685L575.356 498.704C575.348 498.717 575.338 498.733 575.326 498.752C575.29 498.81 575.236 498.893 575.168 498.993C575.031 499.192 574.833 499.457 574.594 499.722C574.355 499.988 574.075 500.252 573.771 500.449C573.467 500.646 573.143 500.775 572.815 500.775C570.063 500.775 568.342 500.664 566.757 500.541C566.555 500.525 566.354 500.51 566.154 500.494C564.789 500.386 563.438 500.279 561.508 500.24C558.121 500.172 555.382 500.391 552.727 500.603C552.362 500.632 551.998 500.661 551.634 500.689C548.628 500.922 545.627 501.094 541.795 500.775C536.528 500.336 533.161 500.24 527.873 500.24C526.55 500.24 525.279 500.325 524.07 500.423C523.763 500.448 523.46 500.474 523.161 500.499C522.284 500.573 521.443 500.645 520.642 500.683C518.492 500.786 516.638 500.651 515.142 499.713C514.555 499.345 513.4 498.282 512.61 496.978C511.82 495.673 511.404 494.146 512.258 492.835L512.29 492.786L512.237 492.762C511.646 492.489 511.055 492.49 510.614 492.558C510.393 492.591 510.209 492.642 510.08 492.685C510.025 492.703 509.98 492.719 509.947 492.733V484.255V484.218L509.911 484.208L506.467 483.149V478.91V478.866L506.423 478.861L493.709 477.263V471.428V471.385L493.668 471.378L493.66 471.428L493.668 471.378L493.667 471.378L493.666 471.378L493.662 471.377L493.644 471.374L493.576 471.362C493.547 471.358 493.513 471.352 493.472 471.344C493.426 471.336 493.372 471.327 493.311 471.316C493.08 471.274 492.745 471.212 492.33 471.13C491.499 470.966 490.345 470.723 489.051 470.405C486.472 469.771 483.343 468.841 481.116 467.656C481.119 462.049 482.075 453.951 483.184 444.831C483.235 444.413 483.286 443.993 483.338 443.57C484.41 434.768 485.587 425.096 486.171 415.843C486.573 409.463 487.482 402.864 488.423 396.282C488.495 395.776 488.568 395.27 488.64 394.765C489.511 388.693 490.377 382.65 490.864 376.826C491.451 369.806 491.1 362.811 490.764 356.111C490.754 355.929 490.745 355.748 490.736 355.566C490.392 348.699 490.091 342.151 490.864 336.206C492.718 321.933 494.821 310.359 497.186 303.612Z"  />
</symbol>
<symbol width="605" height="503" viewBox="0 0 605 503">
<path d="M396.286 121.856L396.285 121.854L388.675 92.9945L388.675 92.9921L388.673 92.9823L388.666 92.9437L388.64 92.7918C388.617 92.658 388.583 92.4604 388.539 92.2047C388.451 91.6934 388.323 90.9501 388.166 90.0222C387.851 88.1663 387.417 85.5717 386.937 82.6172C385.977 76.7079 384.835 69.3593 384.109 63.6003C382.59 51.5548 381.575 36.0559 380.94 23.5676C380.623 17.3237 380.4 11.8326 380.257 7.90255C380.185 5.93753 380.134 4.36277 380.1 3.27928C380.083 2.73753 380.07 2.3186 380.062 2.03512L380.053 1.71306L380.052 1.66222L380.165 1.67699C380.276 1.69128 380.437 1.71171 380.639 1.73626C381.042 1.78536 381.605 1.85096 382.246 1.91698C383.529 2.04898 385.125 2.18282 386.379 2.18947C387.642 2.19618 388.639 2.0511 389.618 1.90876C389.676 1.90019 389.735 1.89163 389.794 1.88311C390.83 1.73317 391.862 1.5966 393.19 1.65493C394.421 1.70894 395.37 1.95249 396.313 2.19416C396.355 2.20515 396.398 2.21614 396.441 2.2271C397.426 2.47921 398.416 2.71948 399.716 2.72397C401.009 2.72844 402.002 2.45138 402.981 2.17841C403.009 2.17058 403.037 2.16276 403.065 2.15495C404.071 1.87465 405.071 1.60709 406.383 1.65494C407.682 1.7023 408.652 2.08305 409.62 2.46324C409.647 2.47386 409.674 2.48447 409.701 2.49508C410.696 2.88557 411.698 3.26524 413.054 3.25847C414.37 3.25189 415.344 2.84832 416.306 2.44962L416.335 2.43745C417.307 2.03476 418.27 1.64107 419.577 1.65497C420.83 1.66831 421.749 2.04962 422.676 2.43917L422.703 2.45055C423.621 2.83638 424.549 3.22686 425.811 3.25845C427.221 3.29377 428.269 2.9335 429.311 2.54525C429.375 2.52125 429.439 2.49715 429.504 2.47303C430.481 2.10688 431.471 1.73616 432.774 1.65488C434.016 1.57739 434.981 1.71274 435.95 1.86693C436.023 1.87856 436.096 1.8903 436.17 1.90207C437.068 2.04626 437.989 2.19406 439.15 2.18947C440.27 2.18504 441.155 2.04548 442.021 1.90894C442.082 1.89938 442.142 1.88985 442.203 1.88037C443.127 1.73547 444.048 1.60487 445.236 1.65493C446.398 1.70387 447.288 1.94895 448.174 2.19291C448.206 2.20158 448.237 2.21024 448.269 2.21889C449.187 2.47122 450.11 2.71458 451.327 2.72397C452.601 2.73379 453.568 2.46467 454.53 2.19494L454.548 2.18988C455.504 1.92186 456.456 1.65498 457.706 1.65498C458.928 1.65498 459.865 1.92662 460.8 2.19766L460.882 2.22146C461.845 2.50017 462.813 2.76953 464.087 2.72394C465.137 2.68635 465.925 2.43605 466.708 2.1876L466.71 2.18713C467.493 1.93857 468.27 1.69202 469.306 1.65494C470.562 1.60997 471.517 1.87511 472.479 2.15354L472.564 2.17809C473.498 2.44887 474.446 2.72397 475.683 2.72397C476.956 2.72397 477.923 2.45519 478.884 2.18807L478.886 2.18765C479.847 1.92041 480.803 1.65498 482.062 1.65498C483.32 1.65498 484.276 1.92041 485.238 2.18765L485.239 2.18807C486.201 2.45519 487.168 2.72397 488.441 2.72397C489.714 2.72397 490.681 2.45519 491.642 2.18807L491.644 2.18765C492.605 1.92041 493.561 1.65498 494.82 1.65498C496.078 1.65498 497.034 1.91816 497.996 2.18424L498.007 2.18726C498.965 2.45238 499.93 2.71939 501.198 2.72397C502.495 2.72865 503.482 2.45693 504.462 2.18716L504.474 2.18402C505.458 1.91325 506.436 1.64549 507.722 1.65498C508.953 1.66406 509.887 1.92285 510.826 2.18443L510.836 2.18735C511.772 2.44801 512.715 2.71053 513.956 2.72397C515.285 2.73837 516.297 2.46937 517.304 2.19849L517.332 2.19086C518.329 1.92254 519.323 1.65498 520.625 1.65498C521.927 1.65498 522.921 1.92255 523.918 2.19087L523.946 2.19849C524.953 2.46937 525.965 2.73837 527.294 2.72397C528.535 2.71053 529.478 2.44801 530.414 2.18735L530.424 2.18443C531.363 1.92285 532.297 1.66406 533.528 1.65498C534.814 1.64549 535.792 1.91325 536.776 2.18402L536.788 2.18715C537.768 2.45693 538.755 2.72865 540.052 2.72397C541.324 2.71938 542.292 2.48178 543.255 2.23102C543.302 2.21882 543.349 2.20658 543.396 2.19434C544.312 1.95512 545.236 1.71373 546.433 1.65492C547.789 1.58827 548.843 1.73975 549.901 1.89932L549.993 1.91322C551.022 2.06847 552.062 2.22562 553.391 2.18945C554.868 2.14923 556.003 1.90012 557.131 1.65271L557.169 1.64436C558.309 1.39427 559.445 1.1483 560.929 1.12047C562.109 1.09834 563.038 1.25131 563.958 1.40271C564.009 1.41111 564.06 1.4195 564.111 1.42786C565.082 1.58692 566.056 1.73309 567.31 1.65488C568.632 1.57238 569.637 1.19809 570.616 0.833064C570.678 0.810024 570.74 0.787021 570.801 0.764131C571.841 0.378567 572.874 0.0242108 574.264 0.051477C575.547 0.0766204 576.495 0.394065 577.446 0.747593C577.533 0.780007 577.621 0.812733 577.708 0.845566C578.575 1.17084 579.47 1.50666 580.638 1.65458C581.988 1.82558 583.731 1.82545 585.135 1.78282C585.837 1.76149 586.455 1.7295 586.897 1.70283C587.119 1.6895 587.296 1.6775 587.418 1.66884C587.476 1.66475 587.521 1.66141 587.553 1.65901L587.552 1.71496L587.549 2.04309C587.547 2.33336 587.543 2.76562 587.538 3.33356C587.529 4.46944 587.516 6.14804 587.5 8.31898C587.468 12.6608 587.426 18.972 587.386 26.8493C587.305 42.6038 587.23 64.6227 587.252 89.6801C587.297 139.795 587.732 202.064 589.293 250.682C589.328 251.782 589.364 252.871 589.401 253.95H444.055C436.282 242.136 428.512 229.504 424.119 216.991C422.304 211.82 420.704 207.379 419.224 203.274C415.366 192.57 412.33 184.149 408.463 171.026C405.662 161.523 402.618 149.231 400.274 139.314C399.102 134.355 398.105 129.991 397.401 126.866C397.049 125.304 396.77 124.051 396.579 123.189C396.484 122.758 396.411 122.425 396.361 122.199L396.305 121.943L396.291 121.878L396.287 121.862L396.286 121.857L396.286 121.856C396.286 121.856 396.286 121.856 396.24 121.866L396.286 121.856Z"  />
</symbol>
</svg>


