<svg width="605" height="503" viewBox="0 0 605 503" fill="none" xmlns="http://www.w3.org/2000/svg">
<symbol id="left-3"  width="605" height="503" viewBox="0 0 605 503">
<path d="M128.991 500.647C123.757 500.296 119.658 500.362 115.559 500.483C114.987 500.5 114.416 500.518 113.841 500.536C110.28 500.648 106.601 500.764 102.068 500.651C98.0627 500.551 94.6983 500.012 91.4977 499.5C90.4516 499.333 89.423 499.169 88.3952 499.023C84.2236 498.432 80.072 498.156 74.8388 499.284C73.857 499.495 73.0975 499.728 72.3453 499.957L72.2843 499.976C71.5275 500.207 70.7721 500.436 69.7961 500.639L69.8872 392V4.1567C70.7395 4.24958 71.2433 4.51416 71.7756 4.79373C71.8707 4.84368 71.9667 4.8941 72.0658 4.94411C72.7343 5.28155 73.5298 5.59213 75.0924 5.59213C75.8731 5.59213 76.3887 5.50108 76.7771 5.36171C77.1486 5.22842 77.4011 5.0517 77.6534 4.87511C77.665 4.86698 77.6767 4.85885 77.6883 4.85073C77.9521 4.66641 78.2233 4.483 78.6432 4.34108C79.0637 4.19894 79.6358 4.09762 80.5003 4.08284C81.3659 4.06804 81.8873 4.13382 82.2421 4.23878C82.5839 4.33988 82.7735 4.47781 82.9723 4.62247C82.9788 4.62722 82.9853 4.63198 82.9919 4.63674C83.2003 4.78822 83.4224 4.94415 83.8326 5.06097C84.2408 5.17723 84.8332 5.25426 85.7832 5.25426C86.7342 5.25426 87.3328 5.15382 87.75 5.00664C88.1609 4.86168 88.393 4.67221 88.6078 4.49677L88.6199 4.48696C88.8365 4.31013 89.0376 4.14965 89.3981 4.05333C89.7608 3.95641 90.2883 3.92369 91.1565 4.01419C92.0249 4.10471 92.49 4.2478 92.7635 4.40731C93.007 4.54938 93.101 4.70524 93.1963 4.86348C93.2068 4.88083 93.2173 4.89821 93.228 4.91561C93.2824 5.00417 93.3429 5.09355 93.4355 5.176C93.5283 5.25863 93.6511 5.33234 93.8283 5.3939C94.1809 5.51634 94.7538 5.59213 95.7485 5.59213C96.7448 5.59213 97.3941 5.50404 97.8657 5.36663C98.3386 5.22886 98.6303 5.04216 98.9106 4.85021C98.9335 4.8345 98.9564 4.81877 98.9792 4.80303C99.2347 4.62713 99.4909 4.45077 99.8827 4.30107C100.31 4.13785 100.901 4.00566 101.827 3.94596C102.755 3.88613 103.306 3.90481 103.669 3.96174C104.025 4.01752 104.203 4.11001 104.387 4.20526L104.394 4.20918C104.584 4.30795 104.782 4.40855 105.175 4.4691C105.566 4.52928 106.149 4.54988 107.113 4.49311C109.041 4.37957 109.578 4.24241 110.039 4.12448L110.041 4.12412C110.493 4.00847 110.871 3.91176 112.487 3.87766C113.296 3.86059 113.815 3.89052 114.194 3.94449C114.568 3.99796 114.806 4.07516 115.054 4.15557L115.06 4.15735C115.566 4.32152 116.105 4.4932 117.863 4.4932C119.62 4.4932 120.136 4.33883 120.621 4.17423C120.638 4.16846 120.655 4.16269 120.672 4.15692C120.893 4.08138 121.113 4.00606 121.457 3.9442C121.827 3.87751 122.34 3.82633 123.149 3.80927C123.959 3.79219 124.438 3.82647 124.751 3.8864C125.062 3.94583 125.211 4.03048 125.361 4.11869L125.373 4.12559C125.523 4.21412 125.679 4.30616 125.991 4.37552C126.301 4.44468 126.765 4.49121 127.533 4.49314L128.991 500.647Z" fill="white" stroke="#D9D9D9" stroke-width="0.1"/>
</symbol>
<symbol id="left-2"  width="605" height="503" viewBox="0 0 605 503">
<path d="M191.14 253.938L191.141 253.939L199.951 485.923L199.951 485.925L199.352 498.884C199.277 500.495 197.971 501.771 196.359 501.794C192.256 501.853 184.659 501.923 179.199 501.745C175.332 501.618 172.091 500.936 169.003 500.285C168.081 500.091 167.173 499.9 166.266 499.727C162.32 498.976 158.401 498.577 153.487 499.827C152.047 500.193 150.954 500.684 149.88 501.166L149.694 501.25C148.56 501.758 147.427 502.248 145.902 502.567C142.56 503.264 139.925 502.901 137.273 502.305C136.673 502.17 136.071 502.023 135.46 501.874C133.372 501.364 131.175 500.827 128.538 500.651L128.53 500.65L128.522 500.652L127.117 501.019V252.763L127.116 4.49305C128.623 4.48891 129.32 4.29743 130.01 4.10784C130.042 4.0991 130.074 4.09036 130.106 4.08165C130.831 3.88347 131.591 3.69621 133.337 3.74079C134.211 3.76313 134.725 3.82122 135.058 3.89492C135.382 3.96664 135.535 4.05312 135.687 4.13885L135.696 4.14407C135.856 4.23401 136.017 4.32235 136.358 4.38727C136.696 4.4517 137.211 4.49312 138.08 4.49312C138.95 4.49312 139.528 4.44041 139.964 4.36112C140.381 4.28538 140.668 4.18558 140.953 4.08633C140.967 4.08159 140.98 4.07684 140.994 4.0721C141.586 3.86622 142.212 3.66191 144.076 3.67242C145.944 3.68294 146.315 3.81113 146.625 3.92119L146.633 3.92402C146.791 3.97998 146.939 4.03269 147.248 4.06474C147.56 4.0971 148.035 4.10848 148.851 4.08274C150.401 4.03385 151.037 3.93392 151.652 3.83744C151.685 3.83227 151.717 3.82711 151.75 3.82197C152.394 3.72143 153.068 3.62765 154.815 3.60402C156.362 3.5831 157.182 3.61565 157.796 3.64005C157.876 3.64322 157.953 3.64626 158.027 3.64903C158.673 3.6731 159.142 3.67634 160.189 3.56957C160.974 3.48949 161.329 3.31925 161.694 3.14459C161.798 3.09474 161.903 3.04453 162.019 2.99596C162.537 2.77835 163.296 2.5828 165.247 2.5828C166.222 2.5828 166.848 2.65374 167.29 2.75804C167.732 2.86205 167.993 2.99959 168.241 3.13648C168.255 3.14412 168.268 3.15177 168.282 3.15941C168.517 3.28947 168.749 3.41844 169.116 3.5117C169.504 3.6102 170.039 3.66849 170.886 3.65134C171.735 3.63416 172.312 3.52488 172.752 3.36916C173.188 3.21513 173.488 3.01641 173.781 2.82234L173.791 2.81584C174.086 2.61986 174.376 2.42915 174.799 2.28644C175.223 2.14366 175.781 2.04812 176.613 2.04805C177.447 2.04798 177.882 2.14843 178.131 2.2961C178.364 2.43437 178.438 2.61641 178.523 2.82397C178.527 2.83442 178.532 2.84493 178.536 2.85551C178.627 3.07778 178.737 3.31808 179.072 3.51817C179.403 3.7159 179.95 3.87208 180.907 3.94584C183.26 4.12703 185.344 3.94321 186.601 3.77459C187.223 3.69116 187.803 4.16474 187.811 4.78851L191.14 253.938Z" fill="white" stroke="#D9D9D9" stroke-width="0.1"/>
</symbol>
<symbol id="left-1"  width="605" height="503" viewBox="0 0 605 503">
<path d="M0.613621 499.89C0.652556 499.886 0.692992 499.883 0.734823 499.878C1.18054 499.835 1.78538 499.753 2.42122 499.594C3.05677 499.436 3.72527 499.203 4.29712 498.856C4.86907 498.51 5.34709 498.049 5.59626 497.437C6.82552 494.415 6.95424 491.196 6.83316 487.709C6.79955 486.741 6.74673 485.752 6.69271 484.742C6.55197 482.109 6.40315 479.325 6.56508 476.356C6.95303 469.244 7.34772 463.917 7.76041 458.348C8.07383 454.118 8.39764 449.748 8.73677 444.349C10.306 419.368 11.1712 405.355 12.1151 380.333C12.5803 368 12.9423 352.201 13.1879 339.485C13.3107 333.128 13.4045 327.541 13.4675 323.543C13.4991 321.544 13.5229 319.943 13.5389 318.841C13.5468 318.29 13.5529 317.864 13.5569 317.576L13.5614 317.249L13.5625 317.165L13.5628 317.144L13.5629 317.139L13.5629 317.138C13.5629 317.137 13.5629 317.137 13.5129 317.137C13.5629 317.137 13.5629 317.137 13.5629 317.137L13.5629 317.135L13.563 317.13L13.5632 317.109L13.5642 317.026L13.5681 316.699L13.583 315.434L13.6382 310.734C13.685 306.737 13.7503 301.151 13.824 294.795C13.9713 282.081 14.1523 266.282 14.2868 253.943C15.3029 160.717 16.3628 17.4747 16.4524 5.27778C16.4561 4.77893 16.8296 4.45306 17.3386 4.41281C19.2774 4.25949 23.8383 3.97922 26.9887 4.42453C27.5096 4.49816 27.8527 4.63096 28.1312 4.79294C28.3257 4.90609 28.4878 5.03255 28.659 5.16621C28.7356 5.22595 28.814 5.28714 28.898 5.34921C29.4407 5.75046 30.1742 6.15316 31.9959 6.32281C32.907 6.40766 33.4871 6.33163 33.9018 6.1643C34.3174 5.99658 34.5614 5.73905 34.8017 5.47589C34.8108 5.46587 34.82 5.45584 34.8291 5.44581C35.0602 5.19231 35.2939 4.93598 35.6829 4.73465C36.0873 4.52531 36.6637 4.37363 37.5837 4.35662C38.5063 4.33957 39.0851 4.40822 39.4842 4.51903C39.8815 4.62933 40.1029 4.78193 40.3114 4.93879C40.3298 4.95269 40.3482 4.96664 40.3667 4.98062C40.5577 5.12561 40.7527 5.2735 41.0711 5.38675C41.4193 5.5106 41.9124 5.59234 42.7105 5.59234C43.5088 5.59234 44.008 5.50626 44.369 5.37599C44.6876 5.26102 44.8964 5.11208 45.1032 4.9646C45.1309 4.94486 45.1585 4.92514 45.1864 4.90554C45.4215 4.74013 45.6774 4.57845 46.1174 4.46147C46.5589 4.34407 47.188 4.27117 48.169 4.28823C49.151 4.3053 49.7341 4.38298 50.1134 4.49131C50.4898 4.59881 50.6665 4.73667 50.8363 4.88044C50.8476 4.88997 50.8588 4.89954 50.8701 4.90913C51.0322 5.04718 51.2014 5.19127 51.5331 5.3123C51.8855 5.44091 52.4195 5.54306 53.325 5.59227C54.2306 5.64148 54.7965 5.59759 55.1932 5.4977C55.5921 5.39725 55.8175 5.24069 56.0414 5.07229C56.0579 5.05984 56.0744 5.04733 56.091 5.03478C56.2971 4.87894 56.512 4.71642 56.8754 4.57388C57.2691 4.4195 57.8393 4.28789 58.7607 4.21971C60.6055 4.08321 61.2043 4.20831 61.7517 4.36549C61.7983 4.37886 61.8446 4.39251 61.8914 4.4063C62.122 4.47424 62.3641 4.54559 62.7006 4.60284C63.1054 4.67172 63.6462 4.7202 64.4717 4.7202C66.1239 4.7202 66.8444 4.52731 67.4039 4.35886C67.4332 4.35004 67.462 4.34131 67.4903 4.3327C67.7324 4.2593 67.9466 4.19433 68.2055 4.15557C68.4854 4.11367 68.8189 4.1023 69.2942 4.14686V500.71C65.2872 501.533 62.076 501.097 58.8465 500.562C58.6085 500.522 58.3704 500.482 58.1318 500.442C55.123 499.937 52.0456 499.42 48.255 499.83C47.2235 499.942 46.4118 500.087 45.6132 500.231L45.4777 500.255C44.6348 500.406 43.793 500.552 42.7059 500.651C39.8436 500.913 37.6057 500.631 35.3621 500.322L35.0626 500.281C32.917 499.984 30.7401 499.682 27.9883 499.83C26.5203 499.909 25.3808 500.064 24.2431 500.224L24.0742 500.248C22.9923 500.4 21.8975 500.554 20.5072 500.651C16.5108 500.928 11.3859 500.722 7.25866 500.446C5.19536 500.309 3.38197 500.153 2.08442 500.033C1.46837 499.975 0.968619 499.926 0.613621 499.89Z" fill="white" stroke="#D9D9D9" stroke-width="0.1"/>
</symbol>
<symbol id="right-3"  width="605" height="503" viewBox="0 0 605 503">
<path d="M457.757 1.6548C458.955 1.66208 459.879 1.93 460.801 2.19734C460.829 2.20527 460.856 2.21321 460.883 2.22113C461.846 2.49985 462.814 2.7692 464.088 2.72361C465.138 2.68603 465.926 2.43572 466.709 2.18728L466.711 2.1868C467.494 1.93824 468.271 1.69169 469.307 1.65462C470.563 1.60965 471.518 1.87479 472.48 2.15321C472.508 2.16139 472.536 2.16958 472.565 2.17777C473.498 2.44855 474.447 2.72364 475.684 2.72364C476.957 2.72364 477.924 2.45487 478.885 2.18774L478.887 2.18732C479.848 1.92009 480.804 1.65465 482.063 1.65465C483.321 1.65465 484.277 1.92009 485.239 2.18732L485.24 2.18774C486.202 2.45487 487.169 2.72364 488.442 2.72364C489.714 2.72364 490.682 2.45487 491.643 2.18774L491.644 2.18732C492.606 1.92009 493.562 1.65465 494.82 1.65465C496.079 1.65465 497.035 1.91783 497.997 2.18391L498.007 2.18694C498.966 2.45205 499.931 2.71907 501.199 2.72364C502.495 2.72832 503.483 2.45661 504.463 2.18683L504.475 2.1837C505.458 1.91292 506.437 1.64516 507.723 1.65465C508.954 1.66373 509.887 1.92252 510.827 2.18411L510.837 2.18703C511.773 2.44769 512.716 2.7102 513.956 2.72364C515.286 2.73804 516.298 2.46905 517.304 2.19817L517.333 2.19054C518.33 1.92222 519.324 1.65465 520.626 1.65465C521.928 1.65465 522.922 1.92222 523.919 2.19054L523.947 2.19817C524.954 2.46905 525.966 2.73804 527.295 2.72364C528.536 2.7102 529.478 2.44769 530.414 2.18703L530.425 2.18411C531.364 1.92252 532.298 1.66373 533.529 1.65465C534.815 1.64516 535.793 1.91292 536.777 2.1837L536.789 2.18684C537.769 2.45661 538.756 2.72832 540.053 2.72364C541.325 2.71905 542.293 2.48145 543.256 2.2307C543.303 2.21849 543.349 2.20625 543.396 2.19401C544.299 1.9583 545.21 1.72048 546.381 1.65729V289.5L546.381 307L546.381 307.001L550.432 500.778C547.815 500.959 545.118 501.052 541.796 500.775C536.529 500.336 533.162 500.24 527.875 500.24C526.551 500.24 525.28 500.325 524.071 500.423C523.764 500.448 523.461 500.473 523.162 500.499C522.285 500.573 521.444 500.644 520.643 500.683C518.504 500.785 516.658 500.652 515.166 499.728L512.051 298.499L512.052 298.499L512.049 298.487L506.049 275.487L506.05 275.487L506.047 275.481L464.049 171.027L457.757 131.496V1.6548Z" fill="white" stroke="#D9D9D9" stroke-width="0.1"/>
</symbol>
<symbol id="right-2"  width="605" height="503" viewBox="0 0 605 503">
<path d="M497.186 303.612L497.203 303.564L497.156 303.548C478.611 297.138 462.962 282.716 454.269 269.36C452.479 266.61 450.592 263.781 448.662 260.888C439.505 247.162 429.386 231.992 424.119 216.99C422.304 211.82 420.704 207.379 419.224 203.274C415.366 192.57 412.33 184.149 408.463 171.026C405.662 161.523 402.618 149.231 400.274 139.313C399.102 134.355 398.105 129.991 397.401 126.866C397.049 125.303 396.77 124.051 396.579 123.189C396.484 122.758 396.411 122.425 396.361 122.199L396.305 121.943L396.291 121.878L396.287 121.861L396.286 121.857L396.286 121.856C396.286 121.856 396.286 121.856 396.24 121.866L396.286 121.856L396.285 121.854L388.675 92.9942L388.675 92.9917L388.673 92.982L388.666 92.9434L388.64 92.7914C388.617 92.6577 388.583 92.46 388.539 92.2044C388.451 91.6931 388.323 90.9498 388.166 90.0218C387.851 88.1659 387.417 85.5714 386.937 82.6168C385.977 76.7076 384.835 69.359 384.109 63.6C382.59 51.5544 381.575 36.0556 380.94 23.5673C380.623 17.3233 380.4 11.8323 380.257 7.90221C380.185 5.93719 380.134 4.36242 380.1 3.27893C380.083 2.73719 380.07 2.31826 380.062 2.03477L380.053 1.71271L380.052 1.66188L380.165 1.67664C380.276 1.69094 380.437 1.71136 380.639 1.73591C381.042 1.78501 381.605 1.85062 382.246 1.91664C383.529 2.04863 385.125 2.18248 386.379 2.18913C387.642 2.19583 388.639 2.05075 389.618 1.90841C389.676 1.89984 389.735 1.89128 389.794 1.88277C390.83 1.73282 391.862 1.59625 393.19 1.65458C394.421 1.70859 395.37 1.95214 396.313 2.19381C396.355 2.20481 396.398 2.21579 396.441 2.22676C397.426 2.47886 398.416 2.71913 399.716 2.72362C401.009 2.72809 402.002 2.45103 402.981 2.17806C403.009 2.17024 403.037 2.16241 403.065 2.1546C404.071 1.8743 405.071 1.60674 406.383 1.6546C407.682 1.70196 408.652 2.0827 409.62 2.46289C409.647 2.47351 409.674 2.48413 409.701 2.49474C410.696 2.88522 411.698 3.26489 413.054 3.25812C414.37 3.25155 415.344 2.84797 416.306 2.44927L416.335 2.43711C417.307 2.03441 418.27 1.64072 419.577 1.65463C420.83 1.66796 421.749 2.04927 422.676 2.43882L422.703 2.4502C423.621 2.83604 424.549 3.22651 425.811 3.25811C427.221 3.29343 428.269 2.93316 429.311 2.54491C429.375 2.52091 429.439 2.49681 429.504 2.47268C430.481 2.10653 431.471 1.73582 432.774 1.65453C434.016 1.57704 434.981 1.7124 435.95 1.86658C436.023 1.87822 436.096 1.88996 436.17 1.90172C437.068 2.04592 437.989 2.19372 439.15 2.18913C440.27 2.1847 441.155 2.04513 442.021 1.90859C442.082 1.89904 442.142 1.8895 442.203 1.88003C443.127 1.73512 444.048 1.60453 445.236 1.65459C446.398 1.70353 447.288 1.9486 448.174 2.19256L448.269 2.21855C449.187 2.47087 450.11 2.71423 451.327 2.72362C452.601 2.73345 453.568 2.46433 454.53 2.19459L454.548 2.18953C455.491 1.9251 456.43 1.66177 457.656 1.65477V131H457.656L457.657 131.008L464.036 171.048L464.034 171.048L464.039 171.06L486.074 222.018L486.075 222.02L506.369 275.512L506.371 275.518L512.167 298.007L515.065 499.662C514.457 499.254 513.367 498.226 512.611 496.978C511.82 495.673 511.405 494.146 512.258 492.834L512.29 492.786L512.237 492.762C511.646 492.489 511.055 492.489 510.614 492.557C510.393 492.591 510.21 492.642 510.081 492.684C510.054 492.693 510.029 492.702 510.007 492.71C509.984 492.718 509.964 492.725 509.947 492.732V484.255V484.218L509.912 484.207L506.468 483.149V478.91V478.866L506.424 478.861L493.71 477.263V471.427V471.385L493.668 471.378L493.66 471.427L493.668 471.378L493.667 471.378L493.662 471.377L493.645 471.374L493.576 471.362C493.515 471.352 493.426 471.336 493.311 471.315C493.08 471.274 492.746 471.212 492.33 471.13C491.499 470.966 490.345 470.722 489.051 470.404C486.472 469.77 483.343 468.841 481.116 467.656C481.12 462.048 482.076 453.95 483.185 444.83L483.338 443.57C484.41 434.767 485.588 425.095 486.171 415.843C486.573 409.463 487.483 402.864 488.423 396.281C488.496 395.776 488.568 395.27 488.641 394.764C489.511 388.692 490.377 382.65 490.864 376.825C491.451 369.806 491.1 362.811 490.764 356.11L490.737 355.566C490.393 348.699 490.092 342.151 490.864 336.206C492.718 321.933 494.821 310.359 497.186 303.612Z" fill="white" stroke="#D9D9D9" stroke-width="0.1"/>
</symbol>
<symbol id="right-1"  width="605" height="503" viewBox="0 0 605 503">
<path d="M587.417 1.66884C587.475 1.66475 587.52 1.66141 587.552 1.65901L587.551 1.71496L587.549 2.04309C587.546 2.33336 587.542 2.76562 587.538 3.33356C587.528 4.46944 587.515 6.14804 587.499 8.31898C587.467 12.6608 587.426 18.972 587.385 26.8493C587.304 42.6038 587.229 64.6227 587.251 89.6801C587.296 139.795 587.731 202.064 589.292 250.682C590.067 274.799 591.26 293.609 592.461 312.418L592.494 312.933C593.684 331.571 594.877 350.256 595.671 374.151C596.112 387.402 596.636 399.327 597.131 410.589C598.352 438.343 599.395 462.073 598.571 491.723C598.409 491.975 598.167 492.213 597.904 492.441C597.793 492.538 597.676 492.635 597.561 492.73C597.405 492.859 597.252 492.986 597.118 493.11C596.883 493.324 596.69 493.54 596.618 493.763C596.581 493.876 596.576 493.991 596.612 494.107C596.649 494.223 596.726 494.336 596.847 494.448C598.017 495.526 600.059 496.197 601.799 496.598C602.67 496.798 603.469 496.932 604.05 497.016C604.181 497.035 604.302 497.051 604.41 497.065L575.422 498.637L575.395 498.638L575.381 498.662L575.381 498.662L575.381 498.663L575.378 498.667L575.367 498.685C575.358 498.7 575.344 498.723 575.326 498.752C575.29 498.81 575.236 498.893 575.167 498.993C575.03 499.192 574.833 499.457 574.594 499.722C574.355 499.988 574.074 500.252 573.771 500.449C573.467 500.646 573.143 500.775 572.815 500.775C570.062 500.775 568.342 500.664 566.757 500.541C566.554 500.525 566.354 500.51 566.154 500.494C564.788 500.386 563.437 500.279 561.508 500.24C558.12 500.172 555.381 500.391 552.726 500.603C551.992 500.662 551.264 500.72 550.531 500.771L549.55 425.999L549.55 425.998L545.55 303.596L546.48 1.65267C547.813 1.59181 548.855 1.74161 549.901 1.89932C549.931 1.90394 549.962 1.90858 549.993 1.91321C551.021 2.06847 552.062 2.22562 553.39 2.18945C554.867 2.14923 556.003 1.90012 557.13 1.65271L557.168 1.64436C558.308 1.39427 559.444 1.1483 560.928 1.12047C562.108 1.09834 563.037 1.25131 563.957 1.4027C564.008 1.41111 564.059 1.4195 564.11 1.42786C565.081 1.58692 566.055 1.73309 567.309 1.65488C568.632 1.57238 569.636 1.1981 570.615 0.83307C570.677 0.810029 570.739 0.787024 570.801 0.764131C571.84 0.378567 572.873 0.0242108 574.264 0.051477C575.546 0.0766204 576.495 0.394065 577.446 0.747593C577.533 0.780004 577.62 0.812726 577.707 0.845556C578.574 1.17083 579.469 1.50666 580.637 1.65458C581.988 1.82558 583.731 1.82545 585.134 1.78282C585.836 1.76149 586.454 1.7295 586.897 1.70283C587.118 1.6895 587.295 1.6775 587.417 1.66884Z" fill="white" stroke="#D9D9D9" stroke-width="0.1"/>
</symbol>
</svg>