<svg width="605" height="503" viewBox="0 0 605 503" fill="none" xmlns="http://www.w3.org/2000/svg">
<symbol id="left-3"  width="605" height="503" viewBox="0 0 605 503">
<path d="M191.203 255.938L191.203 255.939L192.712 295.95H13.9334C14.08 283.387 14.2572 268.01 14.3897 255.943C14.7716 221.142 15.1598 179.372 15.5009 140.05H189.666L191.203 255.938Z" fill="white" stroke="#D9D9D9" stroke-width="0.1"/>
</symbol>
<symbol id="left-2"  width="605" height="503" viewBox="0 0 605 503">
<path d="M13.6087 317.136C13.6587 317.137 13.6587 317.137 13.6587 317.138L13.6587 317.139L13.6586 317.144L13.6584 317.165L13.6572 317.248L13.6527 317.576C13.6486 317.864 13.6426 318.29 13.6345 318.841C13.6184 319.943 13.5944 321.544 13.5627 323.543C13.4992 327.54 13.4048 333.128 13.2811 339.485C13.0337 352.201 12.6692 368 12.2006 380.333C11.25 405.355 10.3787 419.368 8.79838 444.349C8.45684 449.748 8.13074 454.118 7.81509 458.348C7.39947 463.917 7.00199 469.244 6.61129 476.356C6.44821 479.324 6.59809 482.109 6.73982 484.742C6.79422 485.752 6.84742 486.741 6.88127 487.708C7.00321 491.196 6.87358 494.415 5.63557 497.437C5.38462 498.049 4.90321 498.51 4.32728 498.856C3.75143 499.203 3.07825 499.436 2.43823 499.594C1.79792 499.752 1.18882 499.835 0.739967 499.878C0.697794 499.882 0.657031 499.886 0.617782 499.89C0.975307 499.926 1.47865 499.975 2.09914 500.033C3.40589 500.153 5.23215 500.309 7.3101 500.446C11.4666 500.722 16.6279 500.928 20.6527 500.651C22.0526 500.554 23.1549 500.4 24.2443 500.248L24.4151 500.224C25.5609 500.064 26.7084 499.909 28.1869 499.83C30.9581 499.682 33.1503 499.984 35.3112 500.281C35.4118 500.294 35.5123 500.308 35.6128 500.322C37.8724 500.631 40.1262 500.913 43.0088 500.651C44.1037 500.551 44.9514 500.405 45.8003 500.255L45.9365 500.231C46.7409 500.087 47.5584 499.942 48.5973 499.83C52.4119 499.42 55.4897 499.925 58.4969 500.419C58.7376 500.458 58.9779 500.498 59.2181 500.536C62.4584 501.061 65.6805 501.486 69.7348 500.652C70.7399 500.445 71.5108 500.212 72.283 499.976L72.344 499.957C73.0962 499.728 73.8558 499.496 74.8376 499.284C80.0707 498.156 84.2223 498.432 88.3939 499.023C89.4216 499.169 90.4502 499.333 91.4963 499.501C94.6969 500.012 98.0613 500.551 102.067 500.651C106.6 500.764 110.279 500.648 113.84 500.536C114.414 500.518 114.986 500.5 115.557 500.484C119.671 500.362 123.783 500.296 129.043 500.651C131.661 500.827 133.844 501.364 135.916 501.874C136.523 502.023 137.12 502.17 137.717 502.305C140.35 502.901 142.966 503.265 146.284 502.567C147.798 502.248 148.923 501.758 150.049 501.25L150.234 501.166C151.3 500.684 152.386 500.193 153.815 499.827C158.694 498.577 162.586 498.976 166.504 499.727C167.404 499.9 168.306 500.091 169.222 500.286C172.288 500.936 175.506 501.619 179.346 501.745C184.756 501.923 192.283 501.853 196.362 501.794C197.975 501.771 199.281 500.494 199.355 498.883L199.95 485.925L199.95 485.921L192.771 295.55H13.9129C13.8409 301.711 13.7775 307.101 13.7319 310.955L13.6782 315.495L13.6638 316.714L13.66 317.03L13.6591 317.11L13.6588 317.13L13.6588 317.135L13.6587 317.137L13.6587 317.137C13.6587 317.137 13.6587 317.137 13.6087 317.136ZM13.6087 317.136L13.6587 317.137L13.6587 317.137L13.6087 317.136Z" fill="white" stroke="#D9D9D9" stroke-width="0.1"/>
</symbol>
<symbol id="left-1"  width="605" height="503" viewBox="0 0 605 503">
<path d="M17.4571 4.41298C19.4063 4.25976 24.0056 3.97848 27.1816 4.42424C27.7063 4.49789 28.052 4.63071 28.3325 4.79272C28.5284 4.90588 28.6916 5.03237 28.8641 5.16604C28.9412 5.22578 29.0202 5.28696 29.1047 5.34902C29.6512 5.75022 30.3898 6.15288 32.2243 6.32252C33.1418 6.40736 33.726 6.33133 34.1434 6.16405C34.5619 5.99638 34.8076 5.7389 35.0496 5.47572C35.0588 5.4657 35.068 5.45568 35.0772 5.44564C35.31 5.19215 35.5453 4.93579 35.9371 4.73442C36.3445 4.52504 36.9251 4.37334 37.8517 4.35633C38.7809 4.33927 39.3639 4.40792 39.7659 4.51877C40.1661 4.62909 40.3891 4.78173 40.5991 4.9386C40.6177 4.95249 40.6362 4.96645 40.6547 4.98043C40.8472 5.12542 41.0434 5.27327 41.364 5.3865C41.7146 5.51032 42.2112 5.59205 43.0148 5.59205C43.8188 5.59205 44.3215 5.50597 44.6849 5.37573C45.0057 5.26079 45.2159 5.11188 45.4242 4.9644C45.4521 4.94466 45.4799 4.92494 45.508 4.90534C45.7448 4.73992 46.0025 4.57821 46.4457 4.4612C46.8905 4.34377 47.5241 4.27088 48.5121 4.28794C49.5011 4.30501 50.0884 4.38269 50.4705 4.49105C50.8497 4.59858 51.0277 4.73648 51.1987 4.88026C51.21 4.88979 51.2213 4.89935 51.2327 4.90895C51.3959 5.047 51.5663 5.19104 51.9002 5.31205C52.2551 5.44062 52.7928 5.54277 53.7047 5.59198C54.6167 5.64119 55.1865 5.59729 55.5859 5.49743C55.9876 5.397 56.2145 5.24049 56.4399 5.0721C56.4566 5.05964 56.4733 5.04713 56.49 5.03457C56.6975 4.87874 56.9139 4.71619 57.28 4.57363C57.6766 4.41922 58.2509 4.2876 59.1789 4.21942C61.0368 4.08292 61.64 4.20802 62.1913 4.36522C62.2382 4.37859 62.2849 4.39224 62.332 4.40604C62.5642 4.47398 62.808 4.54531 63.1468 4.60255C63.5545 4.67143 64.0991 4.7199 64.9304 4.7199C66.5943 4.7199 67.3198 4.52703 67.8832 4.35859C67.9127 4.34978 67.9417 4.34105 67.9703 4.33244C68.214 4.25904 68.4298 4.19406 68.6906 4.15529C68.9814 4.11206 69.3295 4.10133 69.8325 4.15092C70.7182 4.23825 71.2321 4.50813 71.7758 4.79365C71.8709 4.8436 71.9669 4.89402 72.066 4.94403C72.7346 5.28147 73.53 5.59205 75.0926 5.59205C75.8733 5.59205 76.3889 5.50101 76.7773 5.36163C77.1488 5.22835 77.4013 5.05162 77.6536 4.87503L77.6885 4.85065C77.9523 4.66633 78.2235 4.48292 78.6434 4.341C79.0639 4.19887 79.636 4.09754 80.5005 4.08276C81.3661 4.06796 81.8875 4.13374 82.2423 4.23871C82.5841 4.3398 82.7737 4.47773 82.9725 4.62239L82.9921 4.63666C83.2005 4.78814 83.4226 4.94407 83.8328 5.06089C84.241 5.17715 84.8334 5.25418 85.7835 5.25418C86.7344 5.25418 87.333 5.15374 87.7502 5.00656C88.1611 4.8616 88.3932 4.67213 88.6081 4.49669L88.6201 4.48688C88.8367 4.31005 89.0378 4.14958 89.3983 4.05325C89.761 3.95633 90.2885 3.92361 91.1567 4.01411C92.0252 4.10464 92.4902 4.24772 92.7637 4.40723C93.0072 4.54931 93.1012 4.70516 93.1966 4.8634C93.207 4.88075 93.2175 4.89814 93.2282 4.91553C93.2826 5.00409 93.3431 5.09347 93.4357 5.17593C93.5285 5.25855 93.6513 5.33226 93.8285 5.39382C94.1811 5.51626 94.754 5.59205 95.7487 5.59205C96.745 5.59205 97.3943 5.50396 97.8659 5.36655C98.3388 5.22878 98.6305 5.04208 98.9108 4.85014C98.9337 4.83442 98.9566 4.81868 98.9795 4.80294C99.2349 4.62704 99.4911 4.45069 99.8829 4.30099C100.31 4.13777 100.901 4.00558 101.827 3.94588C102.756 3.88605 103.306 3.90473 103.669 3.96166C104.026 4.01744 104.204 4.10994 104.387 4.20519L104.394 4.2091C104.584 4.30787 104.782 4.40847 105.175 4.46902C105.566 4.5292 106.149 4.54981 107.113 4.49304C109.042 4.3795 109.578 4.24233 110.039 4.1244L110.041 4.12404C110.493 4.00839 110.871 3.91168 112.487 3.87758C113.296 3.86051 113.815 3.89044 114.194 3.94441C114.569 3.99788 114.807 4.07508 115.054 4.15549L115.06 4.15727C115.566 4.32144 116.105 4.49312 117.863 4.49312C119.62 4.49312 120.137 4.33875 120.621 4.17415C120.638 4.16839 120.655 4.16262 120.672 4.15685C120.893 4.0813 121.114 4.00598 121.457 3.94412C121.827 3.87743 122.341 3.82626 123.15 3.80919C123.959 3.79212 124.438 3.82639 124.751 3.88632C125.062 3.94575 125.211 4.0304 125.361 4.11861L125.373 4.12552C125.523 4.21405 125.679 4.30609 125.991 4.37545C126.308 4.44608 126.785 4.49312 127.583 4.49312C129.114 4.49312 129.814 4.2995 130.507 4.10782C130.538 4.09908 130.57 4.09034 130.602 4.08162C131.321 3.88346 132.076 3.69621 133.809 3.74079C134.678 3.76313 135.187 3.82122 135.518 3.8949C135.84 3.9666 135.992 4.05306 136.143 4.13878L136.152 4.14399C136.31 4.23394 136.47 4.32232 136.809 4.38726C137.145 4.4517 137.657 4.49312 138.519 4.49312C139.383 4.49312 139.957 4.4404 140.39 4.36111C140.804 4.28537 141.089 4.18555 141.372 4.08631L141.413 4.07206C142 3.86621 142.622 3.66191 144.473 3.67242C146.327 3.68294 146.695 3.81112 147.003 3.92115L147.011 3.92398C147.168 3.97995 147.315 4.03268 147.622 4.06474C147.931 4.0971 148.403 4.10848 149.213 4.08274C150.753 4.03384 151.385 3.93392 151.995 3.83743C152.027 3.83226 152.06 3.8271 152.093 3.82196C152.732 3.72143 153.401 3.62765 155.136 3.60402C156.672 3.5831 157.485 3.61565 158.095 3.64005C158.175 3.64322 158.251 3.64626 158.324 3.64903C158.966 3.6731 159.432 3.67634 160.471 3.56957C161.251 3.48947 161.604 3.31918 161.966 3.14452C162.069 3.09467 162.173 3.04447 162.288 2.99591C162.803 2.77834 163.556 2.5828 165.494 2.5828C166.462 2.5828 167.083 2.65374 167.522 2.75803C167.96 2.86201 168.22 2.99952 168.466 3.1364L168.507 3.15932C168.74 3.28939 168.971 3.41839 169.335 3.51168C169.72 3.6102 170.252 3.66849 171.093 3.65134C171.935 3.63416 172.508 3.52487 172.946 3.36913C173.378 3.21506 173.676 3.0163 173.967 2.82223L173.977 2.81575C174.27 2.61976 174.558 2.42909 174.978 2.2864C175.398 2.14365 175.953 2.04812 176.779 2.04805C177.606 2.04798 178.039 2.14843 178.286 2.29602C178.517 2.43426 178.591 2.6163 178.675 2.82394L178.688 2.85539C178.778 3.07761 178.887 3.31795 179.22 3.51809C179.549 3.71588 180.092 3.87207 181.043 3.94583C183.372 4.12652 185.436 3.94424 186.686 3.77601C187.309 3.69217 187.889 4.16613 187.898 4.79053L189.691 139.95H15.484C16.0631 73.3689 16.5105 13.3484 16.5697 5.34688C16.5734 4.84334 16.9527 4.45263 17.4571 4.41298Z" fill="white" stroke="#D9D9D9" stroke-width="0.1"/>
</symbol>
<symbol id="right-3"  width="605" height="503" viewBox="0 0 605 503">
<path d="M497.187 303.612L497.203 303.564L497.156 303.548C491.548 301.61 486.205 298.938 481.238 295.785H591.421C591.771 301.594 592.133 307.261 592.495 312.933C593.685 331.571 594.877 350.255 595.672 374.15C596.112 387.402 596.637 399.327 597.132 410.589C598.353 438.343 599.396 462.073 598.572 491.723C598.41 491.975 598.168 492.212 597.905 492.441C597.794 492.538 597.677 492.634 597.562 492.73C597.406 492.859 597.253 492.986 597.119 493.109C596.884 493.324 596.691 493.54 596.619 493.762C596.582 493.875 596.577 493.99 596.613 494.107C596.65 494.222 596.727 494.335 596.848 494.447C598.018 495.526 600.06 496.196 601.8 496.597C602.671 496.798 603.47 496.932 604.051 497.015C604.182 497.034 604.303 497.051 604.41 497.065L575.423 498.636L575.396 498.638L575.382 498.661L575.382 498.661L575.381 498.663L575.379 498.667L575.368 498.685C575.359 498.7 575.345 498.723 575.327 498.752C575.312 498.776 575.294 498.804 575.273 498.837C575.243 498.882 575.208 498.934 575.168 498.992C575.031 499.191 574.834 499.457 574.595 499.722C574.356 499.987 574.075 500.251 573.772 500.448C573.468 500.646 573.144 500.774 572.816 500.774C570.063 500.774 568.343 500.663 566.758 500.541C566.555 500.525 566.355 500.509 566.155 500.493C564.789 500.385 563.439 500.279 561.509 500.24C558.121 500.172 555.383 500.39 552.727 500.603C552.362 500.632 551.998 500.661 551.635 500.689C548.628 500.922 545.628 501.094 541.796 500.775C536.529 500.335 533.162 500.24 527.874 500.24C526.55 500.24 525.279 500.325 524.071 500.423C523.763 500.448 523.46 500.473 523.161 500.499C522.284 500.573 521.444 500.644 520.642 500.683C518.493 500.785 516.639 500.651 515.143 499.713C514.555 499.345 513.401 498.281 512.611 496.978C511.82 495.673 511.405 494.146 512.259 492.834L512.29 492.786L512.238 492.762C511.646 492.489 511.055 492.489 510.614 492.557C510.394 492.591 510.21 492.642 510.081 492.684C510.026 492.702 509.981 492.719 509.947 492.732V484.255V484.218L509.912 484.207L506.468 483.149V478.91V478.866L506.424 478.86L493.71 477.262V471.427V471.385L493.668 471.378L493.66 471.427L493.668 471.378L493.668 471.378L493.667 471.378L493.662 471.377L493.645 471.374L493.576 471.362C493.516 471.352 493.426 471.336 493.311 471.315C493.08 471.274 492.746 471.212 492.33 471.13C491.5 470.966 490.345 470.722 489.051 470.404C486.472 469.77 483.344 468.841 481.116 467.656C481.12 462.048 482.076 453.95 483.185 444.83C483.236 444.412 483.287 443.992 483.338 443.57C484.41 434.767 485.588 425.095 486.171 415.843C486.574 409.462 487.483 402.864 488.424 396.281C488.496 395.775 488.568 395.27 488.641 394.764C489.511 388.692 490.377 382.65 490.864 376.825C491.451 369.805 491.1 362.811 490.764 356.11C490.755 355.929 490.746 355.747 490.737 355.566C490.393 348.699 490.092 342.151 490.864 336.206C492.718 321.932 494.822 310.359 497.187 303.612Z" fill="white" stroke="#D9D9D9" stroke-width="0.1"/>
</symbol>
<symbol id="right-2"  width="605" height="503" viewBox="0 0 605 503">
<path d="M587.553 1.65901L587.551 1.79619L587.546 2.36394C587.542 2.86539 587.536 3.61033 587.528 4.58431C587.513 6.53227 587.491 9.39638 587.467 13.061C587.418 20.3902 587.358 30.9215 587.313 43.7297C587.224 69.3342 587.195 104.038 587.437 140.45H400.543C399.301 135.221 398.238 130.577 397.485 127.238C397.107 125.565 396.808 124.219 396.602 123.292C396.5 122.829 396.42 122.469 396.367 122.226L396.307 121.95L396.291 121.88L396.287 121.862L396.286 121.858L396.286 121.856L396.286 121.856L396.285 121.854L388.675 92.9945L388.675 92.9921L388.673 92.9823L388.666 92.9437L388.64 92.7918C388.617 92.658 388.583 92.4604 388.539 92.2047C388.451 91.6934 388.323 90.9501 388.166 90.0222C387.851 88.1663 387.417 85.5717 386.937 82.6172C385.977 76.7079 384.835 69.3593 384.109 63.6003C382.59 51.5548 381.575 36.0559 380.94 23.5676C380.623 17.3237 380.4 11.8326 380.257 7.90255C380.185 5.93753 380.134 4.36277 380.1 3.27928C380.083 2.73753 380.07 2.3186 380.062 2.03512L380.053 1.71306L380.052 1.66222L380.165 1.67699C380.276 1.69128 380.437 1.71171 380.639 1.73626C381.042 1.78536 381.605 1.85096 382.246 1.91698C383.529 2.04898 385.125 2.18282 386.379 2.18947C387.642 2.19618 388.639 2.0511 389.618 1.90876C389.676 1.90019 389.735 1.89163 389.794 1.88311C390.83 1.73317 391.862 1.5966 393.19 1.65493C394.421 1.70894 395.37 1.95249 396.313 2.19416C396.355 2.20515 396.398 2.21614 396.441 2.2271C397.426 2.47921 398.416 2.71948 399.716 2.72397C401.009 2.72844 402.002 2.45138 402.981 2.17841C403.009 2.17058 403.037 2.16276 403.065 2.15495C404.071 1.87465 405.071 1.60709 406.383 1.65494C407.682 1.7023 408.652 2.08305 409.62 2.46324C409.647 2.47386 409.674 2.48447 409.701 2.49508C410.696 2.88557 411.698 3.26524 413.054 3.25847C414.37 3.25189 415.344 2.84832 416.306 2.44962L416.335 2.43745C417.307 2.03476 418.27 1.64107 419.577 1.65497C420.83 1.66831 421.749 2.04962 422.676 2.43917L422.703 2.45055C423.621 2.83638 424.549 3.22686 425.811 3.25845C427.221 3.29377 428.269 2.9335 429.311 2.54525C429.375 2.52125 429.439 2.49715 429.504 2.47303C430.481 2.10688 431.471 1.73616 432.774 1.65488C434.016 1.57739 434.981 1.71274 435.95 1.86693C436.023 1.87856 436.096 1.8903 436.17 1.90207C437.068 2.04626 437.989 2.19406 439.15 2.18947C440.27 2.18504 441.155 2.04548 442.021 1.90894C442.082 1.89938 442.142 1.88985 442.203 1.88037C443.127 1.73547 444.048 1.60487 445.236 1.65493C446.398 1.70387 447.288 1.94895 448.174 2.19291C448.206 2.20158 448.237 2.21024 448.269 2.21889C449.187 2.47122 450.11 2.71458 451.327 2.72397C452.601 2.73379 453.568 2.46467 454.53 2.19494L454.548 2.18988C455.504 1.92186 456.456 1.65498 457.706 1.65498C458.928 1.65498 459.865 1.92662 460.8 2.19766L460.882 2.22146C461.845 2.50017 462.813 2.76953 464.087 2.72394C465.137 2.68635 465.925 2.43605 466.708 2.1876L466.71 2.18713C467.493 1.93857 468.27 1.69202 469.306 1.65494C470.562 1.60997 471.517 1.87511 472.479 2.15354L472.564 2.17809C473.498 2.44887 474.446 2.72397 475.683 2.72397C476.956 2.72397 477.923 2.45519 478.884 2.18807L478.886 2.18765C479.847 1.92041 480.803 1.65498 482.062 1.65498C483.32 1.65498 484.276 1.92041 485.238 2.18765L485.239 2.18807C486.201 2.45519 487.168 2.72397 488.441 2.72397C489.714 2.72397 490.681 2.45519 491.642 2.18807L491.644 2.18765C492.605 1.92041 493.561 1.65498 494.82 1.65498C496.078 1.65498 497.034 1.91816 497.996 2.18424L498.007 2.18726C498.965 2.45238 499.93 2.71939 501.198 2.72397C502.495 2.72865 503.482 2.45693 504.462 2.18716L504.474 2.18402C505.458 1.91325 506.436 1.64549 507.722 1.65498C508.953 1.66406 509.887 1.92285 510.826 2.18443L510.836 2.18735C511.772 2.44801 512.715 2.71053 513.956 2.72397C515.285 2.73837 516.297 2.46937 517.304 2.19849L517.332 2.19086C518.329 1.92254 519.323 1.65498 520.625 1.65498C521.927 1.65498 522.921 1.92255 523.918 2.19087L523.946 2.19849C524.953 2.46937 525.965 2.73837 527.294 2.72397C528.535 2.71053 529.478 2.44801 530.414 2.18735L530.424 2.18443C531.363 1.92285 532.297 1.66406 533.528 1.65498C534.814 1.64549 535.792 1.91325 536.776 2.18402L536.788 2.18715C537.768 2.45693 538.755 2.72865 540.052 2.72397C541.324 2.71938 542.292 2.48178 543.255 2.23102C543.302 2.21882 543.349 2.20658 543.396 2.19434C544.312 1.95512 545.236 1.71373 546.433 1.65492C547.789 1.58827 548.843 1.73975 549.901 1.89932L549.993 1.91322C551.022 2.06847 552.062 2.22562 553.391 2.18945C554.868 2.14923 556.003 1.90012 557.131 1.65271L557.169 1.64436C558.309 1.39427 559.445 1.1483 560.929 1.12047C562.109 1.09834 563.038 1.25131 563.958 1.40271C564.009 1.41111 564.06 1.4195 564.111 1.42786C565.082 1.58692 566.056 1.73309 567.31 1.65488C568.632 1.57238 569.637 1.19809 570.616 0.833064C570.678 0.810024 570.74 0.787021 570.801 0.764131C571.841 0.378567 572.874 0.0242108 574.264 0.051477C575.547 0.0766204 576.495 0.394065 577.446 0.747593C577.533 0.780007 577.621 0.812733 577.708 0.845566C578.575 1.17084 579.47 1.50666 580.638 1.65458C581.988 1.82558 583.731 1.82545 585.135 1.78282C585.837 1.76149 586.455 1.7295 586.897 1.70283C587.119 1.6895 587.296 1.6775 587.418 1.66884C587.476 1.66475 587.521 1.66141 587.553 1.65901Z" fill="#FFFEFE" stroke="#D9D9D9" stroke-width="0.1"/>
</symbol>
<symbol id="right-1"  width="605" height="503" viewBox="0 0 605 503">
<path d="M424.119 216.991C422.304 211.82 420.704 207.379 419.224 203.274C415.366 192.57 412.33 184.149 408.463 171.026C405.778 161.914 402.868 150.238 400.567 140.55H587.438C587.689 178.159 588.23 217.584 589.293 250.682C589.839 267.705 590.595 282.085 591.415 295.686H481.081C469.695 288.423 460.305 278.634 454.269 269.361C452.479 266.611 450.592 263.782 448.662 260.888C439.505 247.162 429.386 231.992 424.119 216.991Z" fill="white" stroke="#D9D9D9" stroke-width="0.1"/>
</symbol>
</svg>